<svg width="37" height="30" fill="none" xmlns="http://www.w3.org/2000/svg"><g clip-path="url(#clip0_4454:4264)"><path d="M4.766 27.53L.124 10.297C-.358 8.504.658 6.639 2.388 6.14L23.223.125a3.158 3.158 0 012.7.455l10.043 7.03c.953.668 1.295 1.937.813 3.019l-5.078 11.396a3.29 3.29 0 01-2.085 1.837L8.781 29.876c-1.73.498-3.533-.553-4.015-2.346zM36.088 9.202a1.53 1.53 0 00-.6-.86l-10.043-7.03a2.333 2.333 0 00-1.992-.335L2.618 6.993C1.342 7.36.593 8.736.948 10.058l4.643 17.234c.355 1.321 1.683 2.097 2.96 1.73l20.835-6.016a2.42 2.42 0 001.536-1.354l5.08-11.396c.155-.342.177-.714.086-1.054z" fill="#151515"/><path d="M7.245 25.646L3.188 10.585c-.224-.835.246-1.699 1.052-1.932l18.98-5.479a1.471 1.471 0 011.255.212l8.704 6.092c.329.23.449.675.283 1.048l-4.404 9.876a1.53 1.53 0 01-.968.854L9.11 26.734c-.806.233-1.641-.254-1.865-1.088z" fill="#E33435"/><path d="M29.408 12.812c.896 0 1.623-.752 1.623-1.68 0-.928-.727-1.68-1.623-1.68s-1.623.752-1.623 1.68c0 .928.727 1.68 1.623 1.68zm-18.919 3.375c-.681-.416-1.154-1.116-1.42-2.1-.173-.644-.203-1.241-.09-1.793.114-.551.35-1.016.708-1.396a2.96 2.96 0 011.36-.81c.843-.243 1.606-.154 2.29.268.681.42 1.153 1.118 1.415 2.09.265.984.21 1.836-.165 2.556s-.984 1.202-1.828 1.447c-.832.241-1.59.153-2.27-.262zm7.152-7.841l2.28-.659-4.478 13.658-2.28.658 4.478-13.657zm-4.726 5.957c.098-.311.073-.745-.077-1.303-.15-.556-.346-.942-.584-1.157-.24-.212-.502-.28-.788-.197-.274.08-.462.278-.564.596-.102.318-.08.75.068 1.297.147.547.344.928.59 1.145.246.217.506.285.78.207.286-.08.478-.277.575-.588zm6.842 5.037c-.674-.417-1.145-1.118-1.411-2.1-.262-.974-.206-1.822.166-2.548.373-.727.977-1.21 1.81-1.45.844-.245 1.607-.156 2.29.266.682.42 1.154 1.118 1.416 2.091.265.983.21 1.835-.165 2.555-.375.72-.984 1.202-1.828 1.448-.842.242-1.603.155-2.278-.262zm2.435-1.886c.098-.31.073-.744-.077-1.302-.15-.557-.345-.943-.584-1.156-.24-.213-.502-.28-.787-.197-.284.083-.476.28-.574.59-.098.31-.073.744.078 1.302.15.557.345.943.584 1.156.24.213.502.28.786.196.284-.082.476-.279.575-.59z" fill="#fff"/><path d="M29.095 11.148a.462.462 0 01-.003-.218l4.062-9.063a.427.427 0 01.516-.327c.23.057.37.296.316.534l-4.062 9.063a.427.427 0 01-.516.327.439.439 0 01-.313-.316z" fill="#151515"/></g><defs><clipPath id="clip0_4454:4264"><path fill="#fff" d="M0 0h37v30H0z"/></clipPath></defs></svg>