<svg width="22" height="22" fill="none" xmlns="http://www.w3.org/2000/svg"><path d="M11.185 21.815H0l3.615-3.108-.233-.226A10.772 10.772 0 01.375 11C.375 5.037 5.226.185 11.19.185 17.15.185 22 5.037 22 11c0 5.963-4.852 10.815-10.815 10.815zm-9.152-.754h9.152c5.548 0 10.061-4.513 10.061-10.061S16.736.939 11.19.939C5.642.939 1.129 5.452 1.129 11c0 2.6.99 5.068 2.788 6.95l.519.504.296.287-2.7 2.32z" fill="#151515"/><path d="M12.545 16.11c-.332.315-.75.468-1.267.468-.506 0-.92-.158-1.25-.468a1.52 1.52 0 01-.496-1.147c0-.462.163-.843.484-1.142.327-.3.745-.446 1.256-.446.517 0 .935.147 1.268.446.326.3.495.68.495 1.142.005.45-.158.832-.49 1.147zm2.425-6.66a2.87 2.87 0 01-.517.815c-.2.223-.462.468-.777.75-.348.3-.609.555-.772.762a1.173 1.173 0 00-.245.734H9.913c0-.511.115-.935.338-1.273.228-.331.554-.7.984-1.103a6.23 6.23 0 00.664-.701 1.01 1.01 0 00.217-.61.842.842 0 00-.375-.717c-.25-.18-.577-.272-.98-.272-.412 0-.782.097-1.119.293a2.29 2.29 0 00-.81.816L6.537 7.709a4.354 4.354 0 011.789-1.68c.772-.402 1.702-.603 2.79-.603 1.223 0 2.207.255 2.952.761.745.511 1.12 1.218 1.12 2.137a2.9 2.9 0 01-.218 1.126z" fill="#00B4D3"/></svg>