<svg width="25" height="25" fill="none" xmlns="http://www.w3.org/2000/svg"><path d="M18.36 2.233a5.61 5.61 0 014.174 1.814c1.094 1.188 1.698 2.829 1.698 4.621 0 1.891-.703 3.583-2.279 5.484-1.521 1.836-3.785 3.765-6.405 5.997-.917.782-1.957 1.668-3.04 2.615a.014.014 0 01-.009.003 297.251 297.251 0 00-3.048-2.617c-2.621-2.234-4.884-4.163-6.406-6C1.469 12.25.767 10.559.767 8.668c0-1.792.602-3.433 1.697-4.62a5.618 5.618 0 014.177-1.814c1.182 0 2.268.376 3.226 1.118.955.738 1.593 1.691 1.96 2.361l.673 1.232.674-1.232c.367-.67 1.004-1.623 1.96-2.361.958-.742 2.043-1.118 3.225-1.118zm0-.768c-1.357 0-2.6.43-3.697 1.277-1.051.814-1.751 1.849-2.163 2.601-.412-.752-1.112-1.788-2.162-2.6-1.097-.848-2.34-1.278-3.697-1.278C2.855 1.465 0 4.562 0 8.667c0 4.436 3.562 7.472 8.953 12.067.916.78 1.954 1.665 3.033 2.608a.783.783 0 001.028 0c1.08-.943 2.117-1.827 3.033-2.608C21.438 16.14 25 13.104 25 8.667c0-4.105-2.855-7.202-6.64-7.202z" fill="#161616"/></svg>