<svg width="22" height="22" fill="none" xmlns="http://www.w3.org/2000/svg"><g clip-path="url(#clip0_4304:4335)"><path d="M9.247 21.601c-.137.042-.126.24.016.264a8.38 8.38 0 001.132.128c1.264.04 1.845-.098 1.845-.098s.845-.922.901-2.553c.057-1.63-1.603-3.406-1.603-3.406s.802-.007 1.97 1.313c1.17 1.32 1.18 2.197 1.18 2.197s.825-1.535-.133-3.225c-1.244-2.194-3.385-2.946-4.218-5.23-.664-1.818.24-4.236.24-4.236s-1.058.86-1.839 2.15c-.499.823-.853 1.858-.853 2.834 0 4.507 3.144 4.985 3.345 7.99.072 1.077-1.209 1.634-1.983 1.872zM14.37 8.494s.068 1.061.781 2.402c.296.557.875 1.041 1.373 1.656 1.332 1.645-.146 4.057-.146 4.057s.561-.982-1.42-3.135c-2.372-2.578-.587-4.98-.587-4.98z" fill="#00B4D3"/><path d="M14.093 21.777a.393.393 0 01-.088-.775c.016-.004 1.749-.424 3.193-1.741.923-.841 1.91-2.441 1.91-4.41 0-.796-.148-1.377-.285-1.859-.196-.685-.496-1.206-.91-1.927a28.456 28.456 0 01-1.075-2.007c-.523-1.087-.554-2.854-.495-4.102-.23.415-.517.867-.911 1.311-.504.567-1.08 1.064-1.583 1.363a.621.621 0 01-.664-.01.566.566 0 01-.238-.567c.233-1.424.092-2.753-.407-3.841-.532-1.16-1.268-1.816-1.879-2.221.076.574.112 1.353-.093 2.02-.348 1.135-1.115 2.02-1.927 2.955-.423.489-.86.993-1.254 1.553-2.01 2.86-1.092 6.99-.333 8.542a.493.493 0 01-.147.616.494.494 0 01-.634-.027c-.551-.496-1.56-1.807-2.073-3.164-.43-1.137-.65-2.459-.751-3.566-.637 2.317-.732 4.316-.27 5.847 1.296 4.29 4.863 5.133 4.899 5.141a.393.393 0 01-.171.766c-.165-.036-4.052-.956-5.48-5.68-.616-2.043-.338-4.803.806-7.98a.48.48 0 01.932.174c-.025 1.042.11 3.273.77 5.02.215.57.531 1.133.852 1.612-.534-2.021-.822-5.22.958-7.752.416-.593.867-1.113 1.303-1.616.756-.872 1.47-1.694 1.77-2.672.215-.701.092-1.61 0-2.09a.575.575 0 01.231-.581.574.574 0 01.624-.033 6.01 6.01 0 012.58 2.807c.511 1.114.692 2.434.53 3.845.27-.2.646-.517 1.06-.983.534-.601.86-1.245 1.12-1.762.115-.227.224-.442.335-.624.138-.224.414-.332.642-.251a.46.46 0 01.3.508c-.16 1.214-.3 3.843.305 5.101.398.827.742 1.426 1.047 1.956.426.74.763 1.325.985 2.102.153.534.315 1.177.315 2.074 0 2.225-1.118 4.037-2.165 4.991-1.602 1.46-3.466 1.907-3.544 1.925a.344.344 0 01-.09.012z" fill="#151515"/></g><defs><clipPath id="clip0_4304:4335"><path fill="#fff" d="M0 0h22v22H0z"/></clipPath></defs></svg>