<svg width="19" height="19" viewBox="0 0 19 19" fill="none" xmlns="http://www.w3.org/2000/svg">
<path d="M9.50232 0C4.25518 0 0 4.25415 0 9.5C0 12.0488 1.00586 14.3612 2.63747 16.0666C2.65138 16.0805 3.11491 16.53 3.11491 16.53L0.241034 19C0.241034 19 9.17785 19 9.49768 19C14.7448 19 19 14.7459 19 9.5C19 4.25415 14.7495 0 9.50232 0ZM10.8651 14.0461C10.5823 14.3149 10.2254 14.4446 9.78507 14.4446C9.35399 14.4446 9.00171 14.3102 8.71896 14.0461C8.4362 13.7773 8.29715 13.4529 8.29715 13.0683C8.29715 12.6744 8.4362 12.35 8.70969 12.0951C8.9878 11.8402 9.34472 11.7151 9.78043 11.7151C10.2208 11.7151 10.5777 11.8402 10.8605 12.0951C11.1386 12.35 11.2823 12.6744 11.2823 13.0683C11.2869 13.4529 11.1478 13.7773 10.8651 14.0461ZM12.9324 8.36927C12.8119 8.64732 12.6636 8.87902 12.4921 9.06439C12.3206 9.25439 12.0981 9.46293 11.8292 9.7039C11.5326 9.95878 11.3101 10.1766 11.171 10.3527C11.032 10.5334 10.9624 10.742 10.9624 10.9783H8.62162C8.62162 10.5427 8.71896 10.1812 8.909 9.8939C9.10368 9.61122 9.3818 9.2961 9.74799 8.95317C10.0029 8.71683 10.1883 8.51756 10.3135 8.35537C10.434 8.19317 10.4989 8.02171 10.4989 7.83634C10.4989 7.58146 10.3923 7.37756 10.1791 7.22463C9.96585 7.07171 9.68773 6.99293 9.34472 6.99293C8.99244 6.99293 8.67724 7.07634 8.38985 7.24317C8.1071 7.41 7.87534 7.64171 7.69919 7.93829L5.74311 6.88634C6.10002 6.27463 6.6099 5.79732 7.26811 5.45439C7.92632 5.11146 8.71896 4.94 9.64601 4.94C10.6889 4.94 11.5279 5.1578 12.163 5.58878C12.798 6.02439 13.1178 6.62683 13.1178 7.41C13.1132 7.7761 13.0529 8.09122 12.9324 8.36927Z" fill="#00B5D3"/>
</svg>
