<svg width="47" height="47" viewBox="0 0 47 47" fill="none" xmlns="http://www.w3.org/2000/svg">
<path d="M0.879909 29.7693C1.08696 29.9744 16.8226 45.7693 17.0297 45.9744C17.4438 46.3846 18.0649 46.5898 18.479 46.1795C18.6861 45.9744 44.153 20.7436 44.153 20.7436V4.53849L46.8447 1.66669C46.8447 1.66669 47.0517 1.05131 46.6376 0.641054C46.2235 0.230797 45.6024 0.435926 45.6024 0.435926L42.9107 3.10259H26.5539C26.5539 3.10259 1.08696 28.1282 0.879909 28.3334C0.465812 28.7436 0.465812 29.359 0.879909 29.7693ZM32.1442 11.6154C32.1442 9.74669 33.6743 8.2308 35.5605 8.2308C37.4467 8.2308 38.9768 9.74669 38.9768 11.6154C38.9768 13.4841 37.4467 15 35.5605 15C33.6743 15 32.1442 13.4841 32.1442 11.6154ZM22.2059 26.2821C22.2059 24.2431 23.8747 22.5898 25.9328 22.5898C27.9908 22.5898 29.6596 24.2431 29.6596 26.2821C29.6596 28.3211 27.9908 29.9744 25.9328 29.9744C23.8747 29.9744 22.2059 28.3211 22.2059 26.2821ZM19.9284 17.7693C19.9284 17.2605 20.3466 16.8462 20.8601 16.8462C21.3715 16.8462 21.7918 17.2605 21.7918 17.7693V34.7949C21.7918 35.3016 21.3715 35.718 20.8601 35.718C20.3466 35.718 19.9284 35.3016 19.9284 34.7949V17.7693ZM12.0605 26.2821C12.0605 24.2431 13.7293 22.5898 15.7874 22.5898C17.8455 22.5898 19.5143 24.2431 19.5143 26.2821C19.5143 28.3211 17.8455 29.9744 15.7874 29.9744C13.7293 29.9744 12.0605 28.3211 12.0605 26.2821Z" fill="#E43535"/>
<path d="M25.9328 27.9232C26.8476 27.9232 27.5892 27.1885 27.5892 26.2821C27.5892 25.3758 26.8476 24.6411 25.9328 24.6411C25.018 24.6411 24.2764 25.3758 24.2764 26.2821C24.2764 27.1885 25.018 27.9232 25.9328 27.9232Z" fill="#E43535"/>
<path d="M15.7872 27.9232C16.702 27.9232 17.4436 27.1885 17.4436 26.2821C17.4436 25.3758 16.702 24.6411 15.7872 24.6411C14.8724 24.6411 14.1309 25.3758 14.1309 26.2821C14.1309 27.1885 14.8724 27.9232 15.7872 27.9232Z" fill="#E43535"/>
</svg>
