<svg width="16" height="21" fill="none" xmlns="http://www.w3.org/2000/svg"><path d="M.804 6.602a.588.588 0 01-.548-.804 3.733 3.733 0 013.457-2.334h.722C4.705 2.041 5.952.914 7.48.914h1.255c1.526 0 2.775 1.126 3.044 2.55h.723c1.562 0 2.903.967 3.456 2.334a.588.588 0 01-.547.804H.804zm7.93-4.511H7.48a1.93 1.93 0 00-1.834 1.373h4.923a1.93 1.93 0 00-1.834-1.373zm5.06 17.269a1.771 1.771 0 01-1.76 1.64H4.183c-.922 0-1.696-.72-1.761-1.64L1.597 7.78H14.62l-.825 11.58zM6.5 10.928a.588.588 0 00-1.176.058l.314 6.277a.589.589 0 001.176-.058L6.5 10.928zm3.835-.559a.589.589 0 00-.617.559l-.314 6.277a.588.588 0 001.176.058l.314-6.277a.588.588 0 00-.559-.617z" fill="silver"/></svg>