<svg width="107" height="80" viewBox="0 0 107 80" fill="none" xmlns="http://www.w3.org/2000/svg">
<path d="M80.0004 13.8846C80.8044 13.7609 79.4438 13.8537 79.2273 13.8537C77.8357 13.7918 76.4132 13.6681 75.0526 13.4207C71.4963 12.8332 68.3112 11.0705 64.8786 10.0809C61.5388 9.1223 58.0754 9.27692 54.7665 10.3283C51.7978 11.287 49.293 13.2661 47.0356 15.338C43.6339 18.4922 40.0468 21.7702 37.109 25.3573C35.872 26.8417 35.2536 27.9859 36.305 29.8104C37.7893 32.3461 40.5106 33.9542 43.3556 34.4489C46.7263 35.0056 50.097 34.1706 53.1894 32.8409C55.6324 31.7895 58.3846 30.3361 61.1059 30.3979C63.3943 30.4288 65.2188 31.5112 67.1979 32.5007C69.3626 33.5831 71.5272 34.6654 73.661 35.7477C75.671 36.7682 77.6502 37.7887 79.6293 38.8401C81.1136 39.6441 82.7835 40.4482 84.0205 41.6233C84.9791 42.5201 85.4739 43.6333 85.7213 44.9012C85.9687 46.0454 86.3398 47.7462 85.6594 48.7976C85.0719 49.7562 83.7112 50.2819 82.6289 50.3747C82.5671 50.3747 81.8558 50.1582 82.3815 50.3438C82.3197 50.3129 82.2578 50.2819 82.196 50.251C81.9486 50.1582 81.7012 50.0036 81.4847 49.8799C75.1763 46.6639 69.0224 43.1076 62.8686 39.6441C61.2915 38.7783 59.8999 41.1594 61.477 42.0562C67.1979 45.2723 72.9497 48.5193 78.7325 51.5807C79.6293 52.0446 80.557 52.6322 81.5156 52.9414C83.804 53.6836 86.8655 52.1683 88.0715 50.1582C89.3394 48.0554 88.8137 44.7157 87.9478 42.551C87.0201 40.1698 85.1337 38.7783 83.0309 37.5104C79.4128 35.3457 75.5783 33.5212 71.8056 31.6349C67.7236 29.5939 63.487 26.718 58.7248 27.7075C52.8802 28.9445 46.2934 34.5726 40.4179 30.2433C39.7685 29.7794 39.1809 29.161 38.7789 28.4806C38.6552 28.2951 38.5624 28.0786 38.4387 27.8622C38.2532 27.5529 38.5624 27.8312 38.4078 28.1095C38.748 27.4911 39.4592 26.7489 39.9849 26.1613C41.6548 24.3059 43.4793 22.5742 45.2729 20.8424C47.3757 18.8015 49.3858 16.6368 51.7669 14.9051C55.0139 12.5858 59.1886 11.5344 63.116 12.4312C67.1051 13.3589 70.6923 15.4926 74.7742 16.1111C76.6606 16.3894 78.7634 16.7914 80.7116 16.5131C82.5052 16.2966 81.763 13.6063 80.0004 13.8846Z" fill="#151515"/>
<path d="M50.5903 15.4935C50.5903 15.4935 49.6317 14.7513 47.3742 13.3597C45.3023 12.0918 43.4778 11.8754 40.6328 11.9063C38.9011 11.9372 37.1384 12.2774 35.2521 12.6175C34.5718 12.7412 33.8914 12.8649 33.2111 12.9886C30.7991 13.3906 26.748 13.9163 26.5625 13.9473L26.1914 11.195C26.2223 11.195 30.3661 10.6384 32.7473 10.2364C33.3967 10.1127 34.077 9.98902 34.7573 9.86532C36.6746 9.49423 38.6537 9.12315 40.6328 9.09222C43.8489 9.03038 46.261 9.33962 48.8586 10.9477C51.3016 12.432 52.3221 13.236 52.353 13.2669L50.5903 15.4935Z" fill="#151515"/>
<path d="M19.4817 60.5184C18.4303 60.5184 17.3789 60.2401 16.4512 59.6525C13.6989 57.9826 12.864 54.3645 14.5339 51.6432L18.7395 44.8091C19.5435 43.4793 20.8423 42.5516 22.3576 42.1805C23.8729 41.8094 25.45 42.0568 26.7797 42.8918C29.5319 44.5617 30.3669 48.1798 28.697 50.9011L24.4914 57.7352C23.3472 59.5288 21.4299 60.5184 19.4817 60.5184ZM17.8736 57.3023C19.2961 58.1682 21.1825 57.7352 22.0793 56.3127L26.2849 49.4476C27.1508 48.0251 26.7179 46.1388 25.2954 45.242C24.6151 44.8091 23.7801 44.6854 22.9761 44.8709C22.1721 45.0565 21.5227 45.5512 21.0897 46.2316L16.8841 53.0657C15.9873 54.5191 16.4512 56.4055 17.8736 57.3023Z" fill="#151515"/>
<path d="M103.902 46.7575L94.6249 50.1591C93.1096 50.7157 91.4706 49.9426 90.914 48.4274L77.122 10.793C76.5653 9.27777 77.3384 7.63881 78.8537 7.08218L88.1309 3.68056C89.6461 3.12393 91.2851 3.89702 91.8417 5.41229L105.634 43.0466C106.159 44.531 105.386 46.2008 103.902 46.7575Z" fill="#00B4D3"/>
<path d="M2.38104 46.7262L11.8437 50.1897C13.359 50.7463 14.998 49.9732 15.5546 48.458L29.3776 10.8546C29.9342 9.33929 29.1611 7.70033 27.6458 7.1437L18.1831 3.64931C16.6679 3.09268 15.0289 3.86577 14.4723 5.38104L0.649305 43.0154C0.0926762 44.4997 0.865772 46.1696 2.38104 46.7262Z" fill="#00B4D3"/>
<path d="M35.9934 71.6194C34.942 71.6194 33.8906 71.3411 32.9629 70.7536C30.2106 69.0837 29.3757 65.4656 31.0456 62.7443L35.5295 55.4463C37.1994 52.694 40.8175 51.8591 43.5388 53.529C44.8685 54.333 45.7963 55.6318 46.1674 57.1471C46.5384 58.6623 46.291 60.2395 45.4561 61.5692L40.9721 68.8672C39.8898 70.6299 37.9416 71.6194 35.9934 71.6194ZM34.4163 68.4034C35.8388 69.2692 37.7251 68.8363 38.6219 67.4138L43.1059 60.1158C43.5388 59.4354 43.6625 58.6005 43.477 57.7965C43.2914 56.9925 42.7966 56.3431 42.1163 55.9101C41.436 55.4772 40.6011 55.3535 39.797 55.539C38.993 55.7246 38.3436 56.2194 37.9107 56.8997L33.3958 64.1977C32.5299 65.6202 32.9629 67.5066 34.4163 68.4034Z" fill="#151515"/>
<path d="M45.1192 75.5473C44.0369 75.5473 42.9855 75.2381 42.0578 74.6814L42.0268 74.6505C40.6971 73.8465 39.7694 72.5477 39.3983 71.0015C39.0272 69.4862 39.2746 67.9091 40.1095 66.5485L42.5216 62.6211C44.2224 59.8689 47.8405 59.003 50.5927 60.7038C53.3759 62.4047 54.2418 66.0228 52.5409 68.8059L50.1289 72.7332C49.2939 74.063 48.0261 75.0216 46.4799 75.3618C46.0469 75.4855 45.5831 75.5473 45.1192 75.5473ZM43.5112 72.3003C44.2224 72.7332 45.0574 72.8569 45.8305 72.6714C46.6345 72.4858 47.3148 71.9911 47.7477 71.2798L50.1598 67.3525C51.0566 65.8991 50.5927 63.9818 49.1393 63.1159C47.655 62.2191 45.7686 62.6521 44.8718 64.1055L42.4598 68.0328C42.0268 68.7441 41.9031 69.579 42.0887 70.383C42.3051 71.187 42.7999 71.8674 43.5112 72.3003Z" fill="#151515"/>
<path d="M27.0572 67.3528C26.0058 67.3528 24.9544 67.0745 24.0267 66.4869L23.7793 66.3323C21.0271 64.6624 20.1921 61.0443 21.862 58.323L27.8303 48.582C29.5002 45.8298 33.1183 44.9948 35.8396 46.6647L36.087 46.8193C38.8392 48.4892 39.6741 52.1073 38.0042 54.8286L32.0359 64.5387C30.9536 66.3632 29.0363 67.3528 27.0572 67.3528ZM25.4801 64.1367C26.9026 65.0026 28.7889 64.5696 29.6857 63.1471L35.654 53.4371C36.5199 52.0146 36.087 50.1282 34.6645 49.2314L34.4171 49.0768C32.9946 48.2109 31.1082 48.6439 30.2114 50.0664L24.2431 59.7764C23.3773 61.1989 23.8102 63.0853 25.2327 63.9821L25.4801 64.1367Z" fill="#151515"/>
<path d="M77.8356 50.8383C78.2685 52.6937 78.1448 54.9512 76.7223 56.3737C75.6091 57.4869 73.5681 57.3632 72.1147 57.1777C70.754 56.9921 69.4243 56.0335 68.0946 55.2913C64.4455 53.2504 60.7656 51.2403 57.1166 49.1993C55.5395 48.3335 54.1479 50.7455 55.725 51.6114C59.9925 53.9925 64.26 56.3427 68.5275 58.7239C70.754 59.9608 73.0733 60.3319 75.6709 59.899C80.1549 59.1259 81.4846 54.0235 80.5569 50.127C80.093 48.3335 77.4026 49.0756 77.8356 50.8383Z" fill="#151515"/>
<path d="M68.403 58.3222C68.8669 61.0745 68.0629 64.5379 64.785 64.8781C63.1151 65.0636 62.0946 64.2596 60.4865 63.4556C57.3942 61.9094 54.3636 60.3014 51.3022 58.6624C49.725 57.8275 48.3025 60.2086 49.9106 61.0745C53.6214 63.0536 57.3014 65.0636 61.0741 66.8263C63.3315 67.8777 66.0528 68.0633 68.1866 66.5171C71.0934 64.3833 71.65 60.9198 71.0625 57.5491C70.7842 55.8174 68.0938 56.5596 68.403 58.3222Z" fill="#151515"/>
<path d="M57.9523 74.4035C57.3029 74.4035 55.8804 74.187 54.4579 73.7231C51.4583 72.7336 48.4587 71.1874 48.2422 71.0946L49.7884 68.6826C50.2522 68.8681 54.829 71.3729 58.2306 71.5894C61.0756 71.7749 61.3539 69.1773 61.3848 68.8062C61.4157 67.3219 61.1065 66.7343 61.1065 66.7343C61.1374 66.7653 61.1374 66.7962 61.1374 66.7962L63.5804 65.4355C63.7041 65.6829 64.168 66.6725 64.1061 68.8681C64.0443 71.4348 62.4053 74.4035 57.9523 74.4035Z" fill="#151515"/>
</svg>
