<svg width="80" height="80" viewBox="0 0 80 80" fill="none" xmlns="http://www.w3.org/2000/svg">
<g clip-path="url(#clip0_2500_2050)">
<path d="M49.0333 30.9676H33.5494C32.13 30.9676 30.9688 29.8064 30.9688 28.387V27.0967H51.6139V28.387C51.6139 29.8064 50.4526 30.9676 49.0333 30.9676Z" fill="#00B5D3"/>
<path d="M78.3064 53.08L68.3226 44.209C67.1452 43.1607 65.6129 42.58 64.0323 42.58H21.3871L10.0323 23.2897C9.08064 21.6607 7.30645 20.6445 5.35484 20.6445C2.40323 20.6445 0 23.0478 0 25.9994C0 26.9349 0.241935 27.8703 0.725806 28.6768L12.871 49.6768C14.0161 51.6607 16.1613 52.9026 18.4516 52.9026H35.0161C35.5968 50.6768 37.5968 49.0316 40 49.0316C42.4032 49.0316 44.4032 50.6768 44.9839 52.9026H62.5806L71.6613 60.709C72.5806 61.4994 73.7581 61.9349 74.9516 61.9349C77.7419 61.9349 80 59.6607 80 56.8542C80 55.4187 79.3871 54.0478 78.3064 53.08Z" fill="#00B5D3"/>
<path d="M72.2274 77.1454C70.6307 69.9357 64.4855 64.8551 57.1629 64.5486L50.6791 58.0648H56.7758C58.1952 58.0648 59.3565 56.9035 59.3565 55.4841V52.9035C59.3565 51.4841 58.1952 50.3228 56.7758 50.3228H45.1307C43.9532 48.7583 42.0984 47.7422 40.0016 47.7422C37.9049 47.7422 36.05 48.7583 34.8726 50.3228H23.2274C21.8081 50.3228 20.6468 51.4841 20.6468 52.9035V55.4841C20.6468 56.9035 21.8081 58.0648 23.2274 58.0648H34.8726C35.7436 59.2261 37.0016 60.0809 38.4532 60.4357L45.3403 67.3228C43.4694 68.597 41.8887 70.2744 40.6952 72.2583H10.3242V80.0002H72.2597V77.4196L72.2274 77.1454ZM56.7758 52.9035V55.4841H46.3242C46.4049 55.0648 46.4532 54.6293 46.4532 54.1938C46.4532 53.7583 46.4049 53.3228 46.3242 52.9035H56.7758ZM23.2274 55.4841V52.9035H33.6791C33.5984 53.3228 33.55 53.7583 33.55 54.1938C33.55 54.6293 33.5984 55.0648 33.6791 55.4841H23.2274ZM36.1307 54.1938C36.1307 52.0648 37.8726 50.3228 40.0016 50.3228C42.1307 50.3228 43.8726 52.0648 43.8726 54.1938C43.8726 56.3228 42.1307 58.0648 40.0016 58.0648C37.8726 58.0648 36.1307 56.3228 36.1307 54.1938ZM41.9694 60.3067C43.2436 59.8873 44.3403 59.1131 45.1307 58.0648H47.0339L53.5178 64.5486C51.4371 64.6615 49.4694 65.1615 47.6629 66.0002L41.9694 60.3067ZM12.9049 77.4196V74.8389H39.4371C39.1468 75.5809 38.9049 76.3389 38.7274 77.1454V77.4196H12.9049ZM41.3242 77.4196C42.8081 71.3228 48.1791 67.097 54.4694 67.097H56.4855C62.792 67.097 68.1468 71.3228 69.6307 77.4196H41.3242Z" fill="#161616"/>
<path d="M79.999 28.5968V24.5161H61.9345V28.5968L62.9506 31.6452C63.3538 32.871 64.0474 33.9516 64.9022 34.8387H59.3538V19.3548C59.3538 17.9355 60.5151 16.7742 61.9345 16.7742C63.3538 16.7742 64.5151 17.9355 64.5151 19.3548V21.9355H67.0958V19.3548C67.0958 16.5161 64.7732 14.1935 61.9345 14.1935C59.0958 14.1935 56.7732 16.5161 56.7732 19.3548V34.8387H46.4506V32.2581H49.0313C51.1603 32.2581 52.9022 30.5161 52.9022 28.3871V19.3548C52.9022 17.2258 51.1603 15.4839 49.0313 15.4839H39.999V7.41935C39.999 3.32258 36.6764 0 32.5796 0C30.3377 0 28.2571 1 26.8377 2.72581L19.7087 11.4355L15.9022 7.62903C15.1603 6.8871 14.1119 6.45161 13.0635 6.45161C10.8377 6.45161 9.03125 8.25806 9.03125 10.4839C9.03125 11.5484 9.46673 12.5806 10.2087 13.3387L20.2248 23.3548C20.9667 24.0968 22.0151 24.5323 23.0796 24.5323C25.3054 24.5323 27.1119 22.7258 27.1119 20.5C27.1119 19.4355 26.6764 18.4032 25.9345 17.6452L21.5635 13.2742L28.8377 4.35484C29.7571 3.22581 31.128 2.58065 32.5796 2.58065C35.2409 2.58065 37.4184 4.75806 37.4184 7.41935V15.4839H33.5474C31.4184 15.4839 29.6764 17.2258 29.6764 19.3548V28.3871C29.6764 30.5161 31.4184 32.2581 33.5474 32.2581H36.128V34.8387H34.8377C32.7087 34.8387 30.9667 36.5806 30.9667 38.7097V42.5806H33.5474V38.7097C33.5474 38 34.128 37.4194 34.8377 37.4194H76.128C76.8377 37.4194 77.4184 38 77.4184 38.7097V43.871H79.999V38.7097C79.999 36.8548 78.6926 35.3064 76.9506 34.9355C77.8538 34.0323 78.5635 32.9194 78.9829 31.6452L79.999 28.5968ZM24.5151 20.4839C24.5151 21.2742 23.87 21.9355 23.0635 21.9355C22.6764 21.9355 22.3054 21.7742 22.0474 21.5161L12.0313 11.5C11.7732 11.2258 11.6119 10.8548 11.6119 10.4839C11.6119 9.69355 12.2571 9.03226 13.0635 9.03226C13.4506 9.03226 13.8216 9.19355 14.0796 9.45161L24.0958 19.4677C24.3538 19.7419 24.5151 20.1129 24.5151 20.4839ZM32.2571 28.3871V19.3548C32.2571 18.6452 32.8377 18.0645 33.5474 18.0645H49.0313C49.7409 18.0645 50.3216 18.6452 50.3216 19.3548V28.3871C50.3216 29.0968 49.7409 29.6774 49.0313 29.6774H33.5474C32.8377 29.6774 32.2571 29.0968 32.2571 28.3871ZM38.7087 32.2581H43.87V34.8387H38.7087V32.2581ZM77.4184 28.1774L76.5313 30.8226C75.7248 33.2258 73.499 34.8387 70.9667 34.8387C68.4345 34.8387 66.1926 33.2258 65.4022 30.8226L64.5151 28.1774V27.0968H77.4184V28.1774Z" fill="#161616"/>
</g>
<defs>
<clipPath id="clip0_2500_2050">
<rect width="80" height="80" fill="white"/>
</clipPath>
</defs>
</svg>
