<svg width="98" height="80" viewBox="0 0 98 80" fill="none" xmlns="http://www.w3.org/2000/svg">
<path d="M93.6358 70.8775L81.2662 58.5079C82.967 55.5392 83.9566 52.0758 83.9566 48.4268C83.9566 43.0151 81.8229 38.0673 78.3285 34.4492V16.9153C78.3285 16.5133 78.1739 16.1113 77.8646 15.8021L62.6192 0.556631C62.3099 0.247393 61.9079 0.0927734 61.5059 0.0927734H20.0679C17.5013 0.0927734 15.3984 2.1956 15.3984 4.76227V75.2068C15.3984 77.7735 17.5013 79.8763 20.0679 79.8763H73.6899C76.2566 79.8763 78.3594 77.7735 78.3594 75.2068V70.5064L86.1831 78.3301C87.2036 79.3506 88.5643 79.8763 89.9249 79.8763C91.2856 79.8763 92.6462 79.3506 93.6667 78.3301C95.7077 76.2891 95.7077 72.9494 93.6358 70.8775ZM63.7015 65.8678C54.0842 65.8678 46.2604 58.0441 46.2604 48.4268C46.2604 38.8094 54.0842 30.9857 63.7015 30.9857C73.3188 30.9857 81.1425 38.8094 81.1425 48.4268C81.1425 58.0441 73.3497 65.8678 63.7015 65.8678ZM63.083 5.41168L73.0405 15.3692H64.6601C63.7943 15.3692 63.1139 14.6579 63.1139 13.823V5.41168H63.083ZM75.669 75.7325C75.669 76.5984 74.9578 77.3096 74.0919 77.3096H19.6659C18.8001 77.3096 18.0888 76.5984 18.0888 75.7325V4.26749C18.0888 3.40163 18.8001 2.69038 19.6659 2.69038H60.238L60.2071 13.4519C60.2071 16.0804 62.279 18.1523 64.9075 18.1523H75.669V31.8516C72.3602 29.5323 68.3401 28.1098 63.9798 28.1098C52.6307 28.1098 43.4154 37.2014 43.4154 48.5504C43.4154 50.777 43.7556 52.9107 44.405 54.8898H25.0776C24.2117 54.8898 23.5005 55.6011 23.5005 56.467C23.5005 57.3328 24.2117 58.0441 25.0776 58.0441H45.2709C45.4255 58.0441 45.5492 58.0131 45.7038 57.9822C49.1364 64.569 56.0324 68.7437 63.9798 68.7437C67.6907 68.7437 70.9377 67.816 73.9682 66.0843L75.6999 67.816V75.7325H75.669ZM91.8422 76.4128C90.6362 77.4333 89.059 77.1241 88.2241 76.2891L76.0092 64.4453C77.4008 63.4248 78.7923 62.0023 79.72 60.7035L91.7803 72.702C92.6462 73.5678 92.9864 75.3305 91.8422 76.4128Z" fill="#222222"/>
<path d="M39.4255 43.8506H25.386C24.5202 43.8506 23.8398 44.5618 23.8398 45.3968C23.8398 46.2317 24.5511 46.943 25.386 46.943H39.4255C40.2913 46.943 40.9716 46.2317 40.9716 45.3968C40.9716 44.5618 40.2913 43.8506 39.4255 43.8506Z" fill="#222222"/>
<path d="M40.3532 33.0576H25.386C24.5202 33.0576 23.8398 33.7689 23.8398 34.6038C23.8398 35.4697 24.5511 36.15 25.386 36.15H40.3223C41.1881 36.15 41.8684 35.4388 41.8684 34.6038C41.8994 33.7379 41.219 33.0576 40.3532 33.0576Z" fill="#222222"/>
<path d="M45.0263 65.4658C44.6243 65.4658 44.2223 65.6204 43.9131 65.9297C43.6348 66.208 43.4492 66.61 43.4492 67.0429C43.4492 67.445 43.6038 67.847 43.9131 68.1562C44.1914 68.4345 44.5934 68.6201 45.0263 68.6201C45.4283 68.6201 45.8304 68.4654 46.1396 68.1562C46.4179 67.8779 46.6035 67.4759 46.6035 67.0429C46.6035 66.6409 46.4488 66.2389 46.1396 65.9297C45.8304 65.6514 45.4283 65.4658 45.0263 65.4658Z" fill="#222222"/>
<path d="M38.6215 65.4658H25.386C24.5202 65.4658 23.8398 66.1771 23.8398 67.012C23.8398 67.8779 24.5511 68.5582 25.386 68.5582H38.5905C39.4564 68.5582 40.1367 67.847 40.1367 67.012C40.1676 66.1771 39.4564 65.4658 38.6215 65.4658Z" fill="#222222"/>
<path d="M25.3896 25.3574C25.7916 25.3574 26.1936 25.2027 26.5029 24.8935C26.7812 24.6152 26.9667 24.2132 26.9667 23.7802C26.9667 23.3782 26.8121 22.9762 26.5029 22.667C26.2246 22.3887 25.8225 22.2031 25.3896 22.2031C24.9876 22.2031 24.5856 22.3577 24.2764 22.667C23.998 22.9453 23.8125 23.3473 23.8125 23.7802C23.8125 24.1823 23.9671 24.5843 24.2764 24.8935C24.5856 25.2027 24.9876 25.3574 25.3896 25.3574Z" fill="#222222"/>
<path d="M55.2928 22.2344H32.0071C31.1413 22.2344 30.4609 22.9456 30.4609 23.7806C30.4609 24.6464 31.1722 25.3268 32.0071 25.3268H55.2928C56.1587 25.3268 56.839 24.6155 56.839 23.7806C56.8699 22.9456 56.1587 22.2344 55.2928 22.2344Z" fill="#222222"/>
<path d="M25.386 14.565H55.2894C56.1553 14.565 56.8356 13.8538 56.8356 13.0188C56.8356 12.1839 56.1243 11.4727 55.2894 11.4727H25.386C24.5202 11.4727 23.8398 12.1839 23.8398 13.0188C23.8398 13.8538 24.5511 14.565 25.386 14.565Z" fill="#222222"/>
<path d="M63.7009 33.7686C55.5988 33.7686 49.043 40.3244 49.043 48.4265C49.043 56.5285 55.5988 63.0844 63.7009 63.0844C71.8029 63.0844 78.3588 56.5285 78.3588 48.4265C78.3588 40.3244 71.8029 33.7686 63.7009 33.7686ZM71.2463 44.0971L60.6085 54.704C60.3611 54.9514 60.0209 55.106 59.6808 55.106C59.6498 55.106 59.588 55.106 59.5571 55.106C59.1551 55.0751 58.8149 54.8586 58.5984 54.5185L55.939 50.5293C55.537 49.9108 55.6916 49.1068 56.3101 48.7048C56.9285 48.3028 57.7326 48.4574 58.1346 49.0759L59.8972 51.7044L69.3599 42.2417C69.8856 41.716 70.7206 41.716 71.2463 42.2417C71.7411 42.7365 71.7411 43.5714 71.2463 44.0971Z" fill="#00B4D3"/>
</svg>
