<svg width="98" height="80" viewBox="0 0 98 80" fill="none" xmlns="http://www.w3.org/2000/svg">
<path d="M19.6039 79.3817C11.8111 79.3817 7.07974 74.6194 6.8942 74.4339L6.49219 74.0319V29.5325L6.83235 29.1304C6.98697 28.9449 10.8834 24.6465 20.1605 24.6465C29.5305 24.6465 32.6847 29.0995 32.8084 29.2851L33.0558 29.6252V74.0628L32.6228 74.4648C32.4373 74.6503 27.3967 79.3817 19.6039 79.3817ZM9.27533 72.8258C10.4504 73.8154 14.1922 76.5985 19.6039 76.5985C25.0774 76.5985 29.0048 73.8154 30.2726 72.8258V30.5529C29.4995 29.718 26.6855 27.4296 20.1605 27.4296C13.6356 27.4296 10.2958 29.7489 9.27533 30.6457V72.8258Z" fill="#151515"/>
<path d="M49.0766 79.3815C41.2837 79.3815 36.5524 74.6192 36.3669 74.4337L35.9648 74.0316V51.1789L36.305 50.7769C36.4596 50.5914 40.356 46.293 49.6332 46.293C59.0031 46.293 62.1573 50.746 62.281 50.9315L62.5284 51.2717V74.0626L62.0955 74.4646C61.879 74.6501 56.8384 79.3815 49.0766 79.3815ZM38.748 72.8256C39.9231 73.8152 43.6649 76.5983 49.0766 76.5983C54.5191 76.5983 58.4774 73.8152 59.7453 72.7947V52.1994C58.9722 51.3645 56.1581 49.0761 49.6332 49.0761C43.1083 49.0761 39.7685 51.3954 38.748 52.2922V72.8256Z" fill="#151515"/>
<path d="M78.6703 79.3817C70.8775 79.3817 66.1461 74.6194 65.9606 74.4339L65.5586 74.0319V61.384L65.8988 60.982C66.0534 60.7965 69.9498 56.498 79.2269 56.498C88.5969 56.498 91.7511 60.9511 91.8748 61.1366L92.1222 61.4768V74.0628L91.6893 74.4648C91.4728 74.6503 86.4322 79.3817 78.6703 79.3817ZM68.3417 72.8258C69.5168 73.8154 73.2586 76.5985 78.6703 76.5985C84.1438 76.5985 88.0712 73.8154 89.339 72.8258V62.4354C88.5659 61.6005 85.7519 59.3121 79.2269 59.3121C72.702 59.3121 69.3622 61.6314 68.3417 62.5282V72.8258Z" fill="#151515"/>
<path d="M19.7917 68.7749C9.86517 68.7749 6.83463 63.6725 6.71094 63.456L7.91697 62.7757L9.123 62.0645C9.21577 62.2191 11.6278 65.9918 19.8226 65.9918C28.0175 65.9918 30.4295 62.3737 30.5223 62.2191L32.9034 63.6725C32.7488 63.889 29.6874 68.7749 19.7917 68.7749Z" fill="#151515"/>
<path d="M49.2331 68.7749C39.3066 68.7749 36.276 63.6725 36.1523 63.456L37.3584 62.7757L38.5644 62.0645C38.6572 62.2191 41.0692 65.9918 49.2641 65.9918C57.4589 65.9918 59.8709 62.3737 59.9637 62.2191L62.3448 63.6725C62.1902 63.889 59.1288 68.7749 49.2331 68.7749Z" fill="#151515"/>
<path d="M78.7956 68.7749C68.8691 68.7749 65.8385 63.6725 65.7148 63.456L66.9209 62.7757L68.1269 62.0645C68.2197 62.2191 70.6317 65.9918 78.8266 65.9918C87.0214 65.9918 89.4335 62.3737 89.5262 62.2191L91.9074 63.6725C91.7527 63.889 88.7222 68.7749 78.7956 68.7749Z" fill="#151515"/>
<path d="M19.7917 58.5083C9.86517 58.5083 6.83463 53.4059 6.71094 53.1894L7.91697 52.5091L9.123 51.7979C9.21577 51.9525 11.6278 55.7252 19.8226 55.7252C28.0175 55.7252 30.4295 52.1071 30.5223 51.9525L32.9034 53.4059C32.7488 53.6224 29.6874 58.5083 19.7917 58.5083Z" fill="#151515"/>
<path d="M49.2331 58.5083C39.3066 58.5083 36.276 53.4059 36.1523 53.1894L37.3584 52.5091L38.5644 51.7979C38.6572 51.9525 41.0692 55.7252 49.2641 55.7252C57.4589 55.7252 59.8709 52.1071 59.9637 51.9525L62.3448 53.4059C62.1902 53.6224 59.1288 58.5083 49.2331 58.5083Z" fill="#151515"/>
<path d="M19.7917 48.2105C9.86517 48.2105 6.83463 43.108 6.71094 42.8916L7.91697 42.2112L9.123 41.5C9.21577 41.6546 11.6278 45.4273 19.8226 45.4273C28.0175 45.4273 30.4295 41.8092 30.5223 41.6546L32.9034 43.108C32.7488 43.3245 29.6874 48.2105 19.7917 48.2105Z" fill="#151515"/>
<path d="M19.7917 37.1089C9.86517 37.1089 6.83463 32.0065 6.71094 31.79L7.91697 31.1097L9.123 30.3984C9.18485 30.5531 11.5969 34.3258 19.7917 34.3258C27.9865 34.3258 30.3986 30.7077 30.4914 30.5531L32.8725 32.0065C32.7488 32.2229 29.6874 37.1089 19.7917 37.1089Z" fill="#151515"/>
<path d="M13.8836 17.6263C22.0166 20.5022 30.1805 23.3781 38.3135 26.2231C51.2396 30.7689 64.1658 35.3147 77.092 39.8914C80.0607 40.9429 83.0294 41.9943 85.9981 43.0457C87.6989 43.6332 88.4101 40.9429 86.7402 40.3553C78.6073 37.4794 70.4434 34.6035 62.3104 31.7585C49.3842 27.2127 36.458 22.6359 23.5319 18.0901C20.5632 17.0387 17.5945 15.9873 14.6258 14.9359C12.925 14.3484 12.2137 17.0387 13.8836 17.6263Z" fill="#151515"/>
<path d="M79.8131 31.4803C82.5344 35.5004 85.2248 39.5205 87.9152 43.5715C88.1935 42.8912 88.4718 42.2108 88.7501 41.5305C84.0497 42.5819 79.3802 43.6024 74.6798 44.6538C72.9171 45.0558 73.6593 47.7153 75.4219 47.3442C80.1223 46.2928 84.7919 45.2723 89.4923 44.2209C90.3272 44.0353 90.822 42.8912 90.3272 42.1799C87.6059 38.1598 84.9155 34.1397 82.2252 30.0887C81.2047 28.6043 78.7926 29.9959 79.8131 31.4803Z" fill="#151515"/>
<path d="M56.2207 12.4933C55.1074 11.3491 54.5508 9.74104 54.5508 7.76191C54.5508 6.46311 54.7982 5.288 55.3239 4.32937C55.8496 3.3398 56.5299 2.59763 57.4576 2.07192C58.3544 1.54622 59.3749 1.29883 60.55 1.29883C62.3436 1.29883 63.7661 1.88638 64.8793 3.06149C65.9926 4.23659 66.5492 5.81371 66.5492 7.79284C66.5492 9.80289 65.9926 11.38 64.8793 12.5242C63.7661 13.6684 62.3127 14.2559 60.55 14.2559C58.7564 14.225 57.3339 13.6374 56.2207 12.4933ZM74.342 1.57714H79.1662L63.2095 24.9556H58.4163L74.342 1.57714ZM61.9725 10.2358C62.3436 9.71011 62.4982 8.87517 62.4982 7.73099C62.4982 6.58681 62.3127 5.75186 61.9725 5.22616C61.6014 4.70045 61.1376 4.42214 60.55 4.42214C59.9625 4.42214 59.4986 4.70045 59.1275 5.22616C58.7564 5.78279 58.5709 6.58681 58.5709 7.70007C58.5709 8.81332 58.7564 9.64827 59.1275 10.174C59.4986 10.7306 59.9625 10.978 60.55 10.978C61.1376 11.0398 61.6014 10.7924 61.9725 10.2358ZM72.7031 23.5022C71.5898 22.358 71.0641 20.7499 71.0641 18.7708C71.0641 16.7917 71.6207 15.2146 72.734 14.0395C73.8473 12.8643 75.2698 12.2768 77.0324 12.2768C78.826 12.2768 80.2485 12.8643 81.3617 14.0395C82.475 15.2146 83.0316 16.7917 83.0316 18.7708C83.0316 20.7809 82.475 22.358 81.3617 23.5022C80.2485 24.6463 78.7951 25.2339 77.0324 25.2339C75.2388 25.2339 73.7854 24.6463 72.7031 23.5022ZM78.4549 21.2756C78.826 20.7499 78.9806 19.915 78.9806 18.7708C78.9806 17.6266 78.7951 16.7917 78.4549 16.266C78.0838 15.7403 77.62 15.462 77.0324 15.462C76.4449 15.462 75.9501 15.7403 75.6099 16.266C75.2388 16.7917 75.0842 17.6266 75.0842 18.7708C75.0842 19.915 75.2698 20.7499 75.6099 21.2756C75.981 21.8013 76.4449 22.0797 77.0324 22.0797C77.62 22.0797 78.0838 21.8013 78.4549 21.2756Z" fill="#00B4D3"/>
</svg>
