<svg width="98" height="80" viewBox="0 0 98 80" fill="none" xmlns="http://www.w3.org/2000/svg">
<path d="M46.0446 10.761H59.3418C60.084 10.761 60.6715 10.1735 60.6715 9.43129C60.6715 8.68912 60.084 8.10156 59.3418 8.10156H46.0446C45.3024 8.10156 44.7148 8.68912 44.7148 9.43129C44.7148 10.1735 45.3024 10.761 46.0446 10.761Z" fill="#161616"/>
<path d="M42.0563 18.7708H68.6508C69.393 18.7708 69.9805 18.1832 69.9805 17.4411C69.9805 16.6989 69.393 16.1113 68.6508 16.1113H42.0563C41.3141 16.1113 40.7266 16.6989 40.7266 17.4411C40.7266 18.1523 41.3141 18.7708 42.0563 18.7708Z" fill="#161616"/>
<path d="M34.0797 34.7278H59.3445C60.0867 34.7278 60.6742 34.1403 60.6742 33.3981C60.6742 32.6559 60.0867 32.0684 59.3445 32.0684H34.0797C33.3376 32.0684 32.75 32.6559 32.75 33.3981C32.75 34.1403 33.3376 34.7278 34.0797 34.7278Z" fill="#161616"/>
<path d="M34.0797 26.7493H48.7067C49.4489 26.7493 50.0364 26.1617 50.0364 25.4196C50.0364 24.6774 49.4489 24.0898 48.7067 24.0898H34.0797C33.3376 24.0898 32.75 24.6774 32.75 25.4196C32.75 26.1308 33.3376 26.7493 34.0797 26.7493Z" fill="#161616"/>
<path d="M71.3104 32.0684H64.6618C63.9196 32.0684 63.332 32.6559 63.332 33.3981C63.332 34.1403 63.9196 34.7278 64.6618 34.7278H71.3104C72.0526 34.7278 72.6401 34.1403 72.6401 33.3981C72.6401 32.6559 72.0526 32.0684 71.3104 32.0684Z" fill="#161616"/>
<path d="M34.0797 42.7054H46.0473C46.7894 42.7054 47.377 42.1178 47.377 41.3756C47.377 40.6335 46.7894 40.0459 46.0473 40.0459H34.0797C33.3376 40.0459 32.75 40.6335 32.75 41.3756C32.75 42.1178 33.3376 42.7054 34.0797 42.7054Z" fill="#161616"/>
<path d="M34.0797 50.6839H42.0581C42.8003 50.6839 43.3878 50.0963 43.3878 49.3541C43.3878 48.612 42.8003 48.0244 42.0581 48.0244H34.0797C33.3376 48.0244 32.75 48.612 32.75 49.3541C32.75 50.0963 33.3376 50.6839 34.0797 50.6839Z" fill="#161616"/>
<path d="M43.3878 56.0029H34.0797C33.3376 56.0029 32.75 56.5905 32.75 57.3327C32.75 58.0748 33.3376 58.6624 34.0797 58.6624H43.3878C44.13 58.6624 44.7175 58.0748 44.7175 57.3327C44.7175 56.6214 44.13 56.0029 43.3878 56.0029Z" fill="#161616"/>
<path d="M52.6953 25.4196C52.6953 26.1617 53.2829 26.7493 54.025 26.7493H71.3115C72.0536 26.7493 72.6412 26.1617 72.6412 25.4196C72.6412 24.6774 72.0536 24.0898 71.3115 24.0898H54.025C53.2829 24.0898 52.6953 24.6774 52.6953 25.4196Z" fill="#161616"/>
<path d="M80.2484 11.1629L69.6106 0.525057C69.3632 0.277666 69.023 0.123047 68.6829 0.123047H26.1007C25.3585 0.123047 24.771 0.7106 24.771 1.45277V8.1014H18.0914C17.3493 8.1014 16.7617 8.68895 16.7617 9.43112V78.6078C16.7617 79.3499 17.3493 79.9375 18.0914 79.9375H71.3114C72.0536 79.9375 72.6411 79.3499 72.6411 78.6078V71.9591H79.2897C80.0319 71.9591 80.6195 71.3716 80.6195 70.6294V12.0906C80.6504 11.7504 80.4958 11.4102 80.2484 11.1629ZM69.9817 4.66885L76.0737 10.7608H69.9817V4.66885ZM69.9817 77.309H19.4212V10.7608H24.7401V70.6294C24.7401 71.3716 25.3276 71.9591 26.0698 71.9591H69.9817V77.309ZM27.4304 69.3306V2.7825H67.3531V12.0906C67.3531 12.8327 67.9407 13.4203 68.6829 13.4203H77.9909V69.2997H27.4304V69.3306Z" fill="#161616"/>
<path d="M61.3529 37.2637C53.2508 37.2637 46.6641 43.8505 46.6641 51.9525C46.6641 60.0545 53.2508 66.6413 61.3529 66.6413C69.4549 66.6413 76.0417 60.0545 76.0417 51.9525C76.0417 43.8505 69.4549 37.2637 61.3529 37.2637ZM68.8983 47.6541L58.2605 58.2919C58.0131 58.5393 57.673 58.6939 57.3328 58.6939C57.3019 58.6939 57.24 58.6939 57.2091 58.6939C56.8071 58.663 56.4669 58.4465 56.2195 58.1063L53.5601 54.1172C53.1581 53.4987 53.3127 52.6637 53.9312 52.2617C54.5496 51.8597 55.3846 52.0143 55.7866 52.6328L57.5493 55.2613L67.0429 45.7677C67.5686 45.242 68.4035 45.242 68.9292 45.7677C69.424 46.2934 69.424 47.1284 68.8983 47.6541Z" fill="#00B4D3"/>
</svg>
