<svg version="1.1" id="Слой_1" xmlns="http://www.w3.org/2000/svg" x="0" y="0" viewBox="0 0 30 30" xml:space="preserve"><style>.st0{fill:#151515}</style><path class="st0" d="M22.695 30H7.275a.734.734 0 01-.734-.734v-2.209c0-.405.329-.734.734-.734h15.42c.405 0 .734.329.734.734v2.209a.734.734 0 01-.734.734zM7.586 28.956h14.8v-1.589h-14.8v1.589z"/><path class="st0" d="M21.267 26.936H8.704L8.7 23.857a1.25 1.25 0 01.931-1.212c1.167-.305 3.124-1.13 3.124-3.222 0-1.764-1.229-2.906-2.531-4.116-.897-.833-1.824-1.695-2.417-2.812C6.384 9.818 6.32 3.884 6.358 1.457A1.487 1.487 0 017.839 0h14.29c.805 0 1.47.655 1.481 1.459.035 2.452-.04 8.448-1.475 11.156-.652 1.23-1.573 2.056-2.465 2.856-1.259 1.13-2.347 2.105-2.347 4.012 0 2.24 1.841 2.94 2.938 3.158a1.256 1.256 0 011.01 1.231l-.004 3.064zM9.746 25.892h10.478l.004-2.022a.21.21 0 00-.169-.205c-1.136-.225-3.779-1.084-3.779-4.182 0-2.372 1.37-3.601 2.694-4.789.823-.739 1.675-1.502 2.239-2.568 1.359-2.565 1.38-8.802 1.353-10.652a.438.438 0 00-.437-.43H7.839a.44.44 0 00-.437.429c-.029 1.83-.019 8 1.326 10.531.511.961 1.373 1.762 2.206 2.537 1.408 1.309 2.864 2.662 2.864 4.881 0 2.898-2.73 3.926-3.904 4.233a.205.205 0 00-.151.2l.003 2.037z"/><path class="st0" d="M13.148 17.544h3.609v1.044h-3.609zm0 2.503h3.609v1.044h-3.609z"/><path d="M15.314 4.042l1.01 2.046c.05.101.146.171.258.187l2.258.328a.342.342 0 01.19.584L17.396 8.78a.342.342 0 00-.098.303l.386 2.249a.342.342 0 01-.496.361l-2.02-1.062a.344.344 0 00-.318 0l-2.02 1.062a.342.342 0 01-.496-.361l.386-2.249a.344.344 0 00-.098-.303l-1.634-1.593a.342.342 0 01.19-.584l2.258-.328a.343.343 0 00.258-.187l1.01-2.046a.34.34 0 01.61 0z" fill="#00b4d3"/><path class="st0" d="M22.181 12.515l-.276-1.007c2.507-.687 3.491-2.227 3.964-2.967l.059-.093c.393-.61.904-2.441.362-4.107-.45-1.384-3.057-.99-3.083-.986l-.172-1.03c.144-.024 3.516-.559 4.248 1.693.635 1.952.103 4.096-.478 4.996l-.057.089c-.5.784-1.672 2.618-4.567 3.412zm-14.362 0c-2.894-.794-4.067-2.628-4.568-3.411l-.057-.09c-.58-.9-1.112-3.044-.478-4.996.732-2.251 4.105-1.716 4.248-1.693l-.172 1.03.086-.515-.085.516c-.026-.004-2.636-.391-3.084.986-.542 1.666-.031 3.496.362 4.106l.059.093c.473.74 1.457 2.279 3.964 2.967l-.275 1.007z"/></svg>