<svg width="105" height="58" fill="none" xmlns="http://www.w3.org/2000/svg"><path d="M63.412 44.981H0V.22h63.412v44.76zM2.035 42.946h59.339V2.255H2.034v40.691z" fill="#151515"/><path d="M18.931 57.78c-4.09 0-7.418-3.328-7.418-7.419 0-4.09 3.328-7.418 7.418-7.418 4.091 0 7.42 3.328 7.42 7.419 0 4.09-3.329 7.418-7.42 7.418zm0-12.799a5.385 5.385 0 00-5.38 5.38 5.385 5.385 0 005.38 5.38 5.385 5.385 0 005.38-5.38 5.383 5.383 0 00-5.38-5.38zM85.987 57.78c-4.09 0-7.419-3.328-7.419-7.419 0-4.09 3.328-7.418 7.419-7.418 4.09 0 7.419 3.328 7.419 7.419 0 4.09-3.328 7.418-7.419 7.418zm0-12.799a5.385 5.385 0 00-5.38 5.38 5.385 5.385 0 005.38 5.38 5.385 5.385 0 005.38-5.38 5.385 5.385 0 00-5.38-5.38z" fill="#151515"/><path d="M93.198 51.703l-.229-2.024c2.718-.309 7.197-.93 8.986-1.415.066-2.118-.139-9.453-.312-10.549-.323-.506-2.493-2.368-7.235-4.985-4.16-2.295-9.71-8.264-13.385-12.213-1.075-1.154-2.004-2.153-2.638-2.78-2.406-2.368-4.614-2.364-4.704-2.364h-11v-2.035h10.968c.33-.007 3.218.045 6.168 2.946.665.655 1.608 1.671 2.7 2.843 3.585 3.855 9.007 9.679 12.879 11.818 1.799.991 7.706 4.375 8.209 6.191.191.683.312 5.006.347 6.313.038 1.477.055 2.836.055 3.83-.003 1.876-.007 2.379-.704 2.68-1.847.787-9.266 1.647-10.105 1.744z" fill="#151515"/><path d="M72.238 32.134a3.398 3.398 0 01-2.561-1.137c-.77-.836-1.04-2.146-1.04-3.013v-9.807h12.17v2.035H70.672v7.772c0 .61.222 1.328.503 1.633.305.333.655.485 1.089.478a5506.98 5506.98 0 0113.925-.117h.035l.034.003c.267.014 1.065-.056 1.443-.503.457-.544.707-1.574.762-1.924l2.011.316c-.028.187-.308 1.848-1.217 2.922-1.047 1.241-2.742 1.238-3.078 1.224-.645.003-11.922.09-13.884.118h-.056zm3.079 4.379h-4.573a1.019 1.019 0 110-2.039h4.573a1.019 1.019 0 110 2.039zm28.243 1.275h-4.912v2.035h4.912v-2.035zM79.45 51.974H67.145a3.133 3.133 0 01-1.553-.402 8.497 8.497 0 01-4.164-5.852 3.003 3.003 0 01-.048-.572v-1.775h2.035v1.775c0 .076.007.145.017.2a6.454 6.454 0 003.169 4.452c.156.09.346.135.547.135h12.304v2.039h-.004z" fill="#151515"/><path d="M64.685 48.479h-38.89v2.035h38.89v-2.035zM12.3 50.514H6.438a1.019 1.019 0 110-2.038H12.3a1.019 1.019 0 110 2.038z" fill="#151515"/><path d="M27.806 20.479l6.518-6.517a2.01 2.01 0 000-2.847l-2.618-2.62L19.12 21.082c-1.27 1.269-.371 3.436 1.421 3.436h11.308l-4.042-4.04z" fill="#00B0CE"/><path d="M42.872 20.514H31.564l4.042 4.042-6.517 6.517a2.01 2.01 0 000 2.846l2.617 2.618 12.588-12.588c1.269-1.269.37-3.435-1.422-3.435z" fill="#00B0CE"/></svg>