<svg version="1.1" id="Слой_1" xmlns="http://www.w3.org/2000/svg" x="0" y="0" viewBox="0 0 30 30" xml:space="preserve"><style>.st1{fill:#151515}</style><path d="M26.544 27.093a.521.521 0 01-.377-.16l-6.074-6.265a.524.524 0 11.754-.73l6.074 6.265a.524.524 0 01-.377.89z" fill="#00b4d3"/><path class="st1" d="M12.293 19.649l-3.272 3.197-.201.199.054.277c.006.031.58 3.07-.913 4.563-.943.943-2.426 1.085-3.394 1.061l2.66-3.01-3.38-3.159-2.759 2.902c-.099-1.047-.041-2.711 1.057-3.81 1.689-1.689 4.08-1.001 4.184-.97l.298.091 5.458-5.391-.742-.742-5.022 4.961c-.836-.175-3.156-.453-4.918 1.309C-.472 23.003.008 25.935.2 26.789a.596.596 0 001.015.28l2.676-2.815 1.874 1.751L3.18 28.93a.593.593 0 00.357.981A8.4 8.4 0 004.769 30c1.17 0 2.799-.239 3.934-1.374 1.6-1.6 1.373-4.331 1.247-5.222l3.068-2.997-.725-.758zM29.836 3.003a.54.54 0 00-.379-.41.546.546 0 00-.542.142l-2.74 2.814-1.789-1.637 2.674-2.884a.557.557 0 00-.327-.931c-.618-.092-3.789-.461-5.515 1.266-1.583 1.583-1.415 4.239-1.31 5.108l-5.068 4.948.742.742 5.251-5.13.196-.194-.048-.271c-.005-.03-.504-2.98.978-4.462.95-.95 2.587-1.08 3.643-1.05l-2.705 2.917 3.319 3.038 2.718-2.792c.076 1.09.001 2.809-1.026 3.836-1.603 1.603-4.488 1.046-4.516 1.04l-.272-.055-3.328 3.271.768.717 2.907-2.857c.866.121 3.494.318 5.185-1.373 1.92-1.919 1.265-5.402 1.184-5.793zM14.189 16.898L4.169 7.019 2.09 6.547-.008 2.3 2.315 0l4.242 2.204.285 2.164 10.016 9.728-2.669 2.802zM2.809 5.634l1.884.428 9.472 9.339 1.216-1.276-9.542-9.268-.265-1.981-3.065-1.592-1.241 1.229 1.541 3.121z"/><path class="st1" d="M26.767 30c-.581 0-1.013-.099-1.053-.108l-.145-.034-8.717-8.74c-.639.124-2.1.254-3.24-.788-1.422-1.301-1.403-2.624-1.401-2.68l.006-.201 4.822-5.063.144-.038c.059-.015 1.452-.364 2.901.88 1.177 1.011 1.098 2.595 1.004 3.25l8.677 8.922.038.117c.029.091.709 2.254-.569 3.578-.716.739-1.716.905-2.467.905zm-.675-1.104c.415.068 1.679.201 2.386-.531.713-.738.453-2.034.356-2.418l-8.889-9.14.069-.282c.004-.015.378-1.651-.614-2.502-.801-.688-1.535-.706-1.825-.679l-4.295 4.509c.054.314.261.988 1.04 1.701 1.02.933 2.526.488 2.541.483l.302-.092.225.223 8.704 8.728z"/></svg>