<svg width="70" height="62" fill="none" xmlns="http://www.w3.org/2000/svg"><path d="M12.31 61.648c-.31 0-.625-.033-.94-.096-1.633-.335-4.823-1.386-7.83-4.65C1.668 54.87.455 52.786.124 51.034c-.586-3.099 1.045-4.245 2.07-4.653l23.923-9.336c.406-.16.76-.46.994-.837l.005-.01 14.107-22.39 9.287 4.55-11.072 24.775a4.281 4.281 0 01-1.514 1.846L14.707 60.927a4.214 4.214 0 01-2.396.721zM29.002 37.38a4.353 4.353 0 01-2.07 1.736L3.008 48.451c-.332.13-1.032.41-.7 2.172.252 1.33 1.297 3.07 2.867 4.777 2.586 2.806 5.271 3.696 6.643 3.978.59.121 1.2.019 1.629-.278l23.217-15.948a2.09 2.09 0 00.737-.9l10.206-22.837-5.565-2.728L29.001 37.38zm23.255-20.343c-.65 0-1.376-.133-2.172-.445-2.431-.957-7.22-3.596-7.422-3.708l-.917-.504L46.93 1.437l8.456 3.759c1.179.602 3.195 2.424 2.385 5.026-.77 2.473-1.699 4.421-2.233 5.184-.62.887-1.743 1.631-3.28 1.631zm-7.604-5.6c1.521.82 4.562 2.425 6.246 3.087 1.802.71 2.574-.04 2.821-.394.353-.504 1.19-2.189 1.93-4.571.43-1.381-.994-2.233-1.255-2.375L48.01 4.346l-3.358 7.091zm-4.139.271L45.57.914 44.289.391c-.462-.135-.945.094-1.19.441-.667.948-4.083 8.578-4.177 8.816-.226.564-.16 1.059.245 1.302.234.137 1.347.758 1.347.758z" fill="#151515"/><path d="M68.887 19.571c-.159 0-.32-.035-.474-.107l-9.324-4.398a1.112 1.112 0 01.948-2.012l9.324 4.399a1.112 1.112 0 01-.474 2.118zm-26.028 6.753c-.159 0-.32-.035-.474-.107l-3.05-1.44a1.112 1.112 0 01.948-2.011l3.05 1.44a1.112 1.112 0 01-.474 2.118zm-1.799 3.208c-.159 0-.32-.035-.474-.107l-2.994-1.412a1.112 1.112 0 01.948-2.01l2.993 1.41a1.112 1.112 0 01-.473 2.12zm-1.498 3.503c-.159 0-.32-.035-.474-.107l-3.318-1.566a1.112 1.112 0 01.947-2.011l3.318 1.565a1.112 1.112 0 01-.473 2.119zm-1.912 3.25c-.158 0-.319-.035-.473-.107l-3.32-1.566a1.112 1.112 0 01.947-2.012l3.32 1.566a1.112 1.112 0 01-.473 2.119z" fill="#00B4D3"/></svg>