<svg width="16" height="12" fill="none" xmlns="http://www.w3.org/2000/svg"><path d="M1.355.763A.75.75 0 10.184 1.7L1.355.763zM4.77 6.23l.585.469a.75.75 0 000-.937l-.585.468zM.184 10.763a.75.75 0 001.171.937l-1.171-.937zm0-9.063l4 5 1.171-.937-4-5L.184 1.7zm4 4.063l-4 5 1.171.937 4-5-1.171-.937zm1.929-5a.75.75 0 00-1.171.937L6.113.763zM9.527 6.23l.586.469a.75.75 0 000-.937l-.586.468zm-4.585 4.532a.75.75 0 001.171.937l-1.171-.937zm0-9.063l4 5 1.171-.937-4-5-1.171.937zm4 4.063l-4 5 1.171.937 4-5-1.171-.937zM10.87.763A.75.75 0 109.7 1.7l1.17-.937zm3.415 5.468l.586.469a.75.75 0 000-.937l-.586.468zM9.7 10.763a.75.75 0 001.17.937l-1.17-.937zm0-9.063l4 5 1.17-.937-4-5L9.7 1.7zm4 4.063l-4 5 1.17.937 4-5-1.17-.937z" fill="#00B5D3"/></svg>