<svg width="19" height="20" fill="none" xmlns="http://www.w3.org/2000/svg"><path d="M2.688 1.902c0 .485-.008.936 0 1.387.017.8.596 1.388 1.363 1.388.766 0 1.345-.588 1.362-1.388.008-.451 0-.902 0-1.387h7.842V3.23c.009.834.57 1.438 1.354 1.447.792.008 1.37-.596 1.38-1.456V1.92c1.251-.137 2.375.893 2.375 2.153.009 2.359 0 4.708 0 7.067v6.555c0 1.32-.954 2.299-2.273 2.299-4.505.008-9 .008-13.505 0-1.32 0-2.29-.97-2.29-2.29a3586.5 3586.5 0 010-13.537c.008-1.345 1.055-2.35 2.392-2.264zM1.147 6.209v11.366c0 1.021.553 1.558 1.592 1.558h13.164c1.09 0 1.627-.528 1.627-1.618V6.2c-5.484.008-10.908.008-16.383.008z" fill="silver"/><path d="M13.773 2.069c0-.4-.008-.792 0-1.192.017-.51.383-.877.852-.877.468 0 .834.375.843.885.008.792.008 1.584 0 2.384-.009.528-.35.877-.835.886-.493.008-.851-.358-.86-.903-.008-.383 0-.783 0-1.183zM4.9 2.127c0 .383.009.766 0 1.15-.008.527-.349.885-.826.893-.502.009-.86-.349-.868-.894a111.29 111.29 0 010-2.383c.008-.511.374-.877.843-.877.46 0 .834.374.851.885.009.409 0 .817 0 1.226zm3.813 8.122H6.37V7.89h2.342v2.358zm-5.983.017V7.89h2.376v2.366l-2.376.009zm10.864-.035V7.898h2.358v2.333h-2.358zM12.318 7.89v2.342H9.977V7.89h2.341zm-9.576 7.22h2.342v2.332H2.742V15.11zm0-3.602h2.342v2.333H2.742v-2.333zm5.962.013v2.333H6.371v-2.332h2.333zm1.273-.013h2.333v2.333H9.977v-2.333zm3.617 2.338V11.52h2.35v2.325h-2.35zM8.709 15.12v2.332H6.367v-2.333H8.71zm3.614.005v2.324h-2.35v-2.324h2.35zm3.612 2.333h-2.341v-2.333h2.341v2.333z" fill="silver"/></svg>