<svg width="23" height="15" fill="none" xmlns="http://www.w3.org/2000/svg"><path d="M22.947 8.188a.163.163 0 00-.022-.048l-3.137-4.708a1.766 1.766 0 00-1.469-.785H15.5v-.882C15.5.79 14.71 0 13.736 0H2.706C1.731 0 .941.79.941 1.765V7.94h13.677v.883H.94v3.088c0 .728.596 1.323 1.324 1.323H2.3a2.447 2.447 0 01-.035-.44 3.092 3.092 0 013.088-3.09 3.092 3.092 0 013.088 3.09c0 .15-.008.295-.035.44h7.57a2.445 2.445 0 01-.035-.44 3.092 3.092 0 013.089-3.09 3.092 3.092 0 013.088 3.09c0 .123-.009.246-.027.37.525-.172.91-.67.91-1.253v-3.53a.457.457 0 00-.032-.154.179.179 0 00-.022-.04zM15.5 7.941V3.53h2.82c.295 0 .573.146.736.393l2.678 4.02H15.5z" fill="silver"/><path d="M5.354 15a2.206 2.206 0 100-4.412 2.206 2.206 0 000 4.412zm13.676 0a2.206 2.206 0 100-4.412 2.206 2.206 0 000 4.412z" fill="silver"/></svg>