<svg width="24" height="16" fill="none" xmlns="http://www.w3.org/2000/svg"><path d="M23.473 8.734a.174.174 0 00-.023-.052l-3.346-5.02a1.884 1.884 0 00-1.567-.838H15.53v-.942C15.53.842 14.687 0 13.647 0H1.882C.842 0 0 .842 0 1.882v6.589h14.588v.94H0v3.295c0 .777.635 1.412 1.412 1.412h.037a2.61 2.61 0 01-.037-.47 3.298 3.298 0 013.294-3.295A3.298 3.298 0 018 13.647c0 .16-.01.316-.038.47h8.076a2.613 2.613 0 01-.038-.47 3.298 3.298 0 013.294-3.294 3.298 3.298 0 013.294 3.294c0 .132-.009.264-.028.396.56-.184.97-.716.97-1.337V8.941a.49.49 0 00-.033-.164.19.19 0 00-.024-.043zm-7.943-.263V3.765h3.007a.94.94 0 01.786.419l2.856 4.287h-6.65z" fill="#00B5D3"/><path d="M4.708 15.999a2.353 2.353 0 100-4.706 2.353 2.353 0 000 4.706zm14.586 0a2.353 2.353 0 100-4.706 2.353 2.353 0 000 4.706z" fill="#00B5D3"/></svg>