<svg width="34" height="16" fill="none" xmlns="http://www.w3.org/2000/svg"><g clip-path="url(#clip0)" fill="#fff"><path d="M17.204 13.284h-6.12c-.312 0-.358-.05-.367-.369-.02-.906-.151-1.782-.62-2.583-.616-1.044-1.49-1.774-2.659-2.14a4.536 4.536 0 00-2.367-.091c-.646.142-1.25.373-1.773.776A4.666 4.666 0 001.8 10.843c-.072.172-.123.353-.19.529-.047.117-.026.31-.215.302-.174-.008-.368-.021-.507-.11-.266-.159-.38-.448-.481-.733-.393-1.128-.422-2.303-.414-3.473.009-.851.097-1.698.17-2.55.008-.096.105-.21.193-.272.773-.529 1.562-1.028 2.322-1.573.814-.587 1.595-1.225 2.397-1.829.367-.28.738-.566 1.13-.805C6.65.061 7.165.015 7.67.01c1.942-.012 3.883-.008 5.825-.012 1.278 0 2.561-.009 3.84 0 .384.004.781 0 1.152.084.287.067.57.23.807.415 1.097.868 2.177 1.757 3.258 2.646.641.529 1.262 1.082 1.899 1.615.405.34.907.453 1.41.524.666.097 1.337.164 2.004.252 1.114.147 2.2.403 3.25.793.937.348 1.815.805 2.676 1.308a.37.37 0 01.202.336c-.008.914.021 1.832-.046 2.742-.034.453-.435.718-.87.869-.274.096-.29.08-.37-.206-.364-1.313-1.153-2.281-2.381-2.906a4.45 4.45 0 00-2.608-.462c-1.275.156-2.322.751-3.12 1.762a4.238 4.238 0 00-.873 1.912c-.076.44-.055.902-.05 1.355 0 .168-.056.235-.207.239-.182.004-.368 0-.55 0-1.898.008-3.806.008-5.714.008zm5.614-8.136c-.127-.205-.203-.377-.321-.516a16.34 16.34 0 00-3.925-3.384c-.22-.135-.486-.281-.73-.286-1.49-.025-2.984-.016-4.474-.012-.477 0-.92.436-.924.906a268.07 268.07 0 000 3.208c0 .025.012.05.02.084h10.354zM7.69 5.161v-.005h.17c1.033 0 2.067.005 3.101 0 .397 0 .469-.075.469-.46 0-.945 0-1.888-.004-2.832 0-.482-.435-.91-.929-.91-.831 0-1.659.008-2.49-.004a1.096 1.096 0 00-.629.197A12.036 12.036 0 004.77 3.378a5.372 5.372 0 00-.764 1.103c-.194.378-.084.671.41.688h.168c1.038-.008 2.072-.008 3.106-.008z"/><path d="M6.069 16c-1.904-.004-3.444-1.53-3.44-3.422A3.415 3.415 0 016.077 9.15c1.933.005 3.457 1.523 3.444 3.456C9.512 14.477 7.997 16 6.069 16zm-2.132-3.418c-.02 1.162.946 2.126 2.136 2.126 1.186 0 2.148-.947 2.144-2.11a2.132 2.132 0 00-2.148-2.15c-1.136-.005-2.166.935-2.132 2.134zm27.759-.004c.05 1.867-1.55 3.406-3.39 3.427-1.878.02-3.502-1.514-3.486-3.431a3.439 3.439 0 013.436-3.426c1.89-.009 3.486 1.53 3.44 3.43zm-5.576 0c-.071 1.082.954 2.14 2.136 2.13 1.236-.008 2.16-.968 2.16-2.138 0-1.175-.949-2.13-2.164-2.127a2.144 2.144 0 00-2.132 2.135z"/></g><defs><clipPath id="clip0"><path fill="#fff" d="M0 0h34v16H0z"/></clipPath></defs></svg>