<svg width="22" height="16" viewBox="0 0 22 16" fill="none" xmlns="http://www.w3.org/2000/svg">
<path d="M20.9805 5.59999H17.4431L13.4197 0.173453C13.2848 -0.00857191 13.0162 -0.0547343 12.8199 0.0703654L12.1088 0.523552C11.9125 0.648689 11.8627 0.897726 11.9977 1.07979L15.3491 5.59999H6.7689L10.1203 1.07979C10.2553 0.897726 10.2055 0.648689 10.0091 0.523552L9.29797 0.0703654C9.10167 -0.0547343 8.8331 -0.00857191 8.69819 0.173453L4.67482 5.59999H1.13744C0.899201 5.59999 0.706055 5.77906 0.706055 6.00001V6.79999C0.706055 7.0209 0.899201 7.2 1.13744 7.2H1.68473L4.32177 14.8852C4.55095 15.552 5.21148 16 5.96595 16H16.152C16.9065 16 17.5671 15.552 17.7962 14.8848L20.4332 7.2H20.9806C21.2188 7.2 21.4119 7.0209 21.4119 6.79999V6.00001C21.4119 5.77906 21.2188 5.59999 20.9805 5.59999Z" fill="white"/>
</svg>
