<svg width="18" height="18" viewBox="0 0 18 18" fill="none" xmlns="http://www.w3.org/2000/svg">
<path d="M1.8653 0H16.7017C17.4001 0 17.9683 0.563536 17.9683 1.25629V3.05099C17.9683 3.74374 17.4001 4.30728 16.7017 4.30728H1.8653C1.1669 4.30728 0.598778 3.74374 0.598778 3.05099V1.25629C0.598778 0.563536 1.1669 0 1.8653 0Z" fill="#C0C0C0"/>
<path d="M17.4264 8.25556H6.93237C6.63275 8.25556 6.38957 8.01434 6.38957 7.71713C6.38957 7.41992 6.63275 7.17871 6.93237 7.17871H17.4264C17.7261 7.17871 17.9692 7.41992 17.9692 7.71713C17.9692 8.01434 17.7261 8.25556 17.4264 8.25556Z" fill="#C0C0C0"/>
<path d="M17.4264 10.4092H6.93237C6.63275 10.4092 6.38957 10.168 6.38957 9.87082C6.38957 9.57361 6.63275 9.3324 6.93237 9.3324H17.4264C17.7261 9.3324 17.9692 9.57361 17.9692 9.87082C17.9692 10.168 17.7261 10.4092 17.4264 10.4092Z" fill="#C0C0C0"/>
<path d="M17.4264 14.7167H6.93237C6.63275 14.7167 6.38957 14.4755 6.38957 14.1783C6.38957 13.8811 6.63275 13.6399 6.93237 13.6399H17.4264C17.7261 13.6399 17.9692 13.8811 17.9692 14.1783C17.9692 14.4755 17.7261 14.7167 17.4264 14.7167Z" fill="#C0C0C0"/>
<path d="M17.4264 16.8702H6.93237C6.63275 16.8702 6.38957 16.629 6.38957 16.3318C6.38957 16.0345 6.63275 15.7933 6.93237 15.7933H17.4264C17.7261 15.7933 17.9692 16.0345 17.9692 16.3318C17.9692 16.629 17.7261 16.8702 17.4264 16.8702Z" fill="#C0C0C0"/>
<path d="M2.77071 10.7682C1.5716 10.7682 0.599524 9.804 0.599524 8.61458C0.599524 7.42516 1.5716 6.46094 2.77071 6.46094C3.96982 6.46094 4.94189 7.42516 4.94189 8.61458C4.94189 9.804 3.96982 10.7682 2.77071 10.7682Z" fill="#C0C0C0"/>
<path d="M2.77071 17.2292C1.5716 17.2292 0.599524 16.2649 0.599524 15.0755C0.599524 13.8861 1.5716 12.9219 2.77071 12.9219C3.96982 12.9219 4.94189 13.8861 4.94189 15.0755C4.94189 16.2649 3.96982 17.2292 2.77071 17.2292Z" fill="#C0C0C0"/>
</svg>
