<svg width="26" height="26" fill="none" xmlns="http://www.w3.org/2000/svg"><rect width="26" height="26" rx="2" fill="#00B5D3"/><path d="M5.354 8.11h2.815v1.247c0 .17.135.32.32.32h2.074a.32.32 0 00.32-.32V5.244a.32.32 0 00-.32-.32H8.506a.32.32 0 00-.32.32v1.248H5.354A.356.356 0 005 6.846v.893c0 .22.169.371.354.371zm15.309-1.618h-8.749V8.11h8.732A.356.356 0 0021 7.756v-.893a.337.337 0 00-.337-.371zm-.003 5.327h-3.152v1.618h3.135a.356.356 0 00.354-.354v-.893a.337.337 0 00-.337-.371zM5.354 13.437h8.412v1.247c0 .169.134.32.32.32h2.073a.32.32 0 00.32-.32v-4.113a.32.32 0 00-.32-.32h-2.056a.32.32 0 00-.32.32v1.248h-8.43a.356.356 0 00-.354.354v.893c0 .22.169.37.354.37zm15.309 3.708h-8.749v1.619h8.732A.356.356 0 0021 18.41v-.894a.346.346 0 00-.337-.37zm-10.1-1.567H8.506a.32.32 0 00-.32.32v1.247H5.354A.356.356 0 005 17.5v.894c0 .202.169.354.354.354h2.815v1.247c0 .169.135.32.32.32h2.074a.32.32 0 00.32-.32v-4.096a.31.31 0 00-.32-.32z" fill="#fff"/></svg>