<svg width="24" height="18" fill="none" xmlns="http://www.w3.org/2000/svg"><path d="M23.912 17.859h-2.859v-9.42h-.232c-5.909 0-11.817 0-17.726-.003-.183 0-.232.05-.232.232.004 2.985.004 5.974.004 8.958v.233H.004v-.237c0-3.575.004-7.155-.004-10.73 0-.347.152-.549.442-.698.679-.354 1.353-.716 2.028-1.078.896-.48 1.796-.961 2.691-1.445.748-.4 1.495-.808 2.242-1.212.808-.435 1.612-.87 2.42-1.304l1.811-.972c.206-.11.412-.13.618-.02 1.235.66 2.47 1.327 3.705 1.99 1.166.626 2.337 1.251 3.503 1.876 1.03.553 2.055 1.11 3.08 1.662.366.198.728.4 1.094.595a.513.513 0 01.286.473v.076c-.008 3.644-.008 11.024-.008 11.024z" fill="#fff"/><path d="M12.289 12.373v2.383H7.852v-2.383h4.437zm1.051-.012h1.307c.972 0 1.94.004 2.913-.004.16 0 .206.046.206.206-.008.724-.004 1.449-.004 2.188H13.34v-2.39zm-1.04 5.498H7.844V15.83c0-.362 0-.362.362-.362 1.296 0 2.588.004 3.884-.004.168 0 .217.046.214.213-.008.671-.004 1.346-.004 2.017v.164zm5.47-.004h-4.422v-2.379c.057-.004.118-.007.183-.007 1.341 0 2.68.004 4.021-.004.176 0 .229.05.225.225-.015.72-.008 1.437-.008 2.165zM6.8 11.668H3.48V9.289H6.8v2.379zm0 .709v2.375H3.48v-2.375H6.8zm-3.331 5.478c0-.759 0-1.498-.004-2.234 0-.114.034-.152.152-.152 1.01.004 2.02.004 3.03 0 .104 0 .169.007.169.14-.004.744-.004 1.487-.004 2.246H3.469z" fill="#fff"/></svg>