<svg width="9" height="20" viewBox="0 0 9 20" fill="none" xmlns="http://www.w3.org/2000/svg">
<path d="M8.57268 17.8417L8.29324 18.984C7.45489 19.3149 6.78522 19.5668 6.28655 19.7399C5.78734 19.9136 5.2073 20 4.54641 20C3.5315 20 2.74209 19.7514 2.17907 19.2576C1.61605 18.7618 1.33446 18.1335 1.33446 17.3713C1.33446 17.0763 1.35489 16.7728 1.39737 16.4636C1.44021 16.154 1.50833 15.8054 1.60153 15.4157L2.64924 11.7074C2.74245 11.3523 2.82168 11.0159 2.88513 10.6977C2.94948 10.3815 2.98049 10.0906 2.98049 9.82873C2.98049 9.35515 2.88244 9.0239 2.68724 8.83766C2.49204 8.65196 2.11956 8.55768 1.56658 8.55768C1.29574 8.55768 1.01736 8.60106 0.733614 8.68494C0.448609 8.76919 0.205011 8.85057 0.000488281 8.92621L0.280654 7.78297C0.966996 7.50352 1.62305 7.26422 2.25059 7.06561C2.87814 6.86647 3.4711 6.76681 4.03196 6.76681C5.03988 6.76681 5.81764 7.01041 6.36381 7.4976C6.90998 7.98516 7.18297 8.61719 7.18297 9.39602C7.18297 9.55717 7.16505 9.8411 7.12651 10.2469C7.08887 10.6536 7.01878 11.0263 6.91661 11.3652L5.87338 15.0587C5.78788 15.3553 5.71098 15.6945 5.64412 16.0761C5.57511 16.4552 5.54213 16.7448 5.54213 16.9392C5.54213 17.4296 5.65147 17.7644 5.87069 17.9424C6.09153 18.1204 6.47189 18.209 7.01215 18.209C7.26578 18.209 7.55437 18.164 7.87505 18.0756C8.19483 17.9872 8.42803 17.9096 8.57268 17.8417ZM8.83726 2.33561C8.83726 2.97911 8.59473 3.52868 8.10736 3.98057C7.62123 4.43407 7.03545 4.661 6.35018 4.661C5.66277 4.661 5.07555 4.43407 4.58387 3.98057C4.09309 3.52851 3.84716 2.97911 3.84716 2.33561C3.84716 1.69336 4.09309 1.14289 4.58387 0.685267C5.07465 0.228362 5.66295 0 6.35018 0C7.03527 0 7.62123 0.2289 8.10736 0.685267C8.59509 1.14289 8.83726 1.69354 8.83726 2.33561Z" fill="#C0C0C0"/>
</svg>
