<svg width="14" height="17" fill="none" xmlns="http://www.w3.org/2000/svg"><path d="M6.868 16.998c-1.71 0-3.413-.008-5.123 0-1.017.008-1.797-.793-1.742-1.745.047-.761.016-1.53.008-2.3-.024-1.785.74-3.15 2.19-4.14.308-.207.67-.334 1.01-.476.063-.024.189.031.26.087 1.277 1.047 2.743 1.388 4.35 1.19.812-.104 1.569-.429 2.152-.984.426-.412.765-.254 1.127-.063 1.033.531 1.845 1.308 2.255 2.419.18.5.323 1.039.354 1.562.055.92 0 1.848.024 2.776.024.897-.71 1.658-1.663 1.666-1.734.016-3.468.008-5.202.008z" fill="silver"/><path d="M6.768 8.717c-2.247-.055-4.225-1.903-4.21-4.354C2.575 1.785 4.562-.024 6.903 0c2.388.024 4.287 1.896 4.28 4.394-.008 2.483-2.09 4.387-4.414 4.323z" fill="silver"/></svg>