<svg width="16" height="16" fill="none" xmlns="http://www.w3.org/2000/svg"><path d="M14.473 12.967c2.247-2.57 1.97-6.447-.564-8.697 1.302 4.526-2.141 9.047-6.885 9.047l-1.712-.01a6.27 6.27 0 004.42 1.811l5.821-.03a.443.443 0 00.312-.758l-1.392-1.363z" fill="#00B5D3"/><path d="M7.024 12.43c3.455 0 6.265-2.788 6.265-6.215S10.48 0 7.024 0C3.569 0 .758 2.788.758 6.215a6.14 6.14 0 001.525 4.065L.891 11.643a.443.443 0 00.312.758l5.82.03zM4.36 4.017h5.357c.247 0 .447.198.447.442 0 .245-.2.443-.447.443H4.36a.445.445 0 01-.447-.443c0-.244.2-.442.447-.442zm0 1.771h5.357c.247 0 .447.198.447.443s-.2.443-.447.443H4.36a.445.445 0 01-.447-.443c0-.245.2-.443.447-.443zm-.447 2.215c0-.245.2-.443.447-.443h5.357c.247 0 .447.198.447.443 0 .244-.2.442-.447.442H4.36a.445.445 0 01-.447-.442z" fill="#00B5D3"/></svg>