<svg width="23" height="23" fill="none" xmlns="http://www.w3.org/2000/svg"><path d="M21.432 18.819h-3.66a4.187 4.187 0 01-4.181-4.182 4.187 4.187 0 014.182-4.182h3.659a.522.522 0 00.523-.523V8.364c0-1.096-.85-1.988-1.925-2.074l-3.002-5.244A2.066 2.066 0 0014.19.282L3.898 6.273H2.091A2.093 2.093 0 000 8.364V20.91C0 22.063.938 23 2.09 23h17.774c1.153 0 2.09-.937 2.09-2.09v-1.57a.522.522 0 00-.522-.523zM17.676 4.284l1.14 1.99h-4.557l3.417-1.99zm-11.7 1.99l8.74-5.089a1.025 1.025 0 011.404.38l.002.003L8.04 6.273H5.976z" fill="#00B5D3"/><path d="M21.431 11.5h-3.659a3.14 3.14 0 00-3.136 3.136 3.14 3.14 0 003.136 3.137h3.66a1.57 1.57 0 001.567-1.569v-3.136a1.57 1.57 0 00-1.568-1.568zm-3.659 4.182a1.047 1.047 0 010-2.09 1.046 1.046 0 110 2.09z" fill="#00B5D3"/></svg>