<svg width="17" height="16" fill="none" xmlns="http://www.w3.org/2000/svg"><path d="M14.909 13.09h-2.546a2.912 2.912 0 01-2.909-2.908 2.912 2.912 0 012.91-2.91h2.545a.363.363 0 00.364-.363V5.82c0-.763-.592-1.383-1.34-1.443L11.846.728A1.437 1.437 0 009.871.196l-7.16 4.168H1.456C.652 4.364 0 5.016 0 5.818v8.728C0 15.348.652 16 1.455 16h12.363c.802 0 1.455-.652 1.455-1.454v-1.091a.363.363 0 00-.364-.364zM12.296 2.98l.793 1.384h-3.17l2.377-1.384zM4.157 4.364l6.08-3.54a.713.713 0 01.977.265v.002l-5.62 3.273H4.157z" fill="silver"/><path d="M14.91 8h-2.545a2.184 2.184 0 00-2.181 2.182c0 1.203.978 2.182 2.181 2.182h2.546c.601 0 1.09-.49 1.09-1.091V9.09c0-.602-.489-1.091-1.09-1.091zm-2.545 2.909a.728.728 0 010-1.454.728.728 0 010 1.454z" fill="silver"/></svg>