<svg width="17" height="17" fill="none" xmlns="http://www.w3.org/2000/svg"><path d="M8.502 0A8.502 8.502 0 000 8.5C0 13.194 3.777 17 8.498 17A8.502 8.502 0 0017 8.5C17 3.806 13.197 0 8.502 0zm1.22 12.568c-.254.24-.573.356-.967.356-.386 0-.7-.12-.954-.356a1.158 1.158 0 01-.377-.875c0-.353.124-.643.369-.871.249-.228.568-.34.958-.34.394 0 .713.112.966.34.25.228.378.518.378.87a1.14 1.14 0 01-.374.876zm1.85-5.08a2.19 2.19 0 01-.395.622 7.83 7.83 0 01-.593.572 4.594 4.594 0 00-.589.58.893.893 0 00-.187.56H7.714c0-.39.087-.712.257-.97.174-.252.423-.534.75-.841a4.59 4.59 0 00.507-.535.767.767 0 00.166-.465.641.641 0 00-.286-.547c-.191-.137-.44-.207-.747-.207-.315 0-.597.074-.854.224-.253.149-.46.356-.618.622l-1.75-.942a3.302 3.302 0 011.364-1.28c.589-.308 1.298-.461 2.128-.461.933 0 1.684.195 2.252.58.568.39.854.93.854 1.63-.004.328-.058.61-.166.858z" fill="#fff"/></svg>