<svg width="16" height="16" fill="none" xmlns="http://www.w3.org/2000/svg"><path d="M8.002 0A8.002 8.002 0 000 8c0 2.146.847 4.094 2.221 5.53l.402.39L.203 16h7.795A8.002 8.002 0 0016 8c0-4.418-3.58-8-7.998-8zM9.15 11.828c-.239.227-.54.336-.91.336-.363 0-.66-.113-.898-.336a1.09 1.09 0 01-.355-.823c0-.332.117-.605.347-.82.235-.214.535-.32.902-.32.371 0 .672.106.91.32.234.215.355.488.355.82.004.324-.113.597-.351.823zm1.74-4.78a2.06 2.06 0 01-.37.585 7.69 7.69 0 01-.559.539 4.28 4.28 0 00-.554.546.84.84 0 00-.175.527H7.26c0-.367.082-.671.242-.913.164-.238.398-.504.707-.792a4.32 4.32 0 00.476-.504.722.722 0 00.156-.437.604.604 0 00-.27-.515c-.179-.129-.413-.195-.702-.195a1.566 1.566 0 00-1.385.796l-1.648-.886c.3-.515.73-.917 1.285-1.206.554-.289 1.221-.433 2.002-.433.878 0 1.585.183 2.12.546.534.367.804.874.804 1.534a2.069 2.069 0 01-.157.808z" fill="#00B5D3"/></svg>