<svg width="25" height="18" fill="none" xmlns="http://www.w3.org/2000/svg"><path d="M24.018 17.859h-2.86v-9.42h-.232c-5.908 0-11.817 0-17.725-.003-.183 0-.233.05-.233.232.004 2.985.004 5.974.004 8.959v.232H.109v-.236c0-3.576.004-7.155-.004-10.731 0-.347.153-.549.443-.698.678-.354 1.353-.716 2.028-1.078.895-.48 1.795-.96 2.69-1.445.748-.4 1.495-.808 2.242-1.212l2.42-1.304c.603-.324 1.21-.648 1.811-.972.206-.11.412-.13.618-.019 1.235.66 2.47 1.327 3.705 1.99l3.503 1.875c1.03.553 2.055 1.11 3.08 1.662.366.199.729.4 1.095.595a.513.513 0 01.285.473v.076c-.007 3.644-.007 11.024-.007 11.024z" fill="silver"/><path d="M12.394 12.374v2.382H7.957v-2.382h4.437zm1.051-.012h1.308c.972 0 1.94.004 2.912-.004.16 0 .206.046.206.206-.008.725-.004 1.449-.004 2.188h-4.422v-2.39zm-1.04 5.497H7.95v-2.028c0-.362 0-.362.362-.362 1.296 0 2.589.004 3.885-.004.168 0 .217.046.213.214-.007.67-.004 1.345-.004 2.016v.164zm5.47-.004h-4.422v-2.379c.057-.003.118-.007.183-.007 1.342 0 2.68.004 4.022-.004.175 0 .228.05.225.225-.016.72-.008 1.437-.008 2.165zM6.906 11.668h-3.32V9.29h3.32v2.378zm0 .709v2.375h-3.32v-2.375h3.32zm-3.332 5.478c0-.758 0-1.498-.004-2.234 0-.114.035-.152.153-.152 1.01.004 2.02.004 3.03 0 .103 0 .168.008.168.141-.004.743-.004 1.487-.004 2.245H3.574z" fill="silver"/></svg>