<svg width="30" height="30" fill="none" xmlns="http://www.w3.org/2000/svg"><g clip-path="url(#clip0_5344_4639)"><path d="M15.062 22.617c-5.27 0-7.332-2.044-8.44-3.142a13.12 13.12 0 00-.337-.327 1.66 1.66 0 01-.535-1.22V12.98h.885v4.946c0 .216.091.424.249.57.114.103.234.223.361.35 1.089 1.078 2.911 2.884 7.817 2.884 4.787 0 6.817-1.939 7.908-2.98.097-.093.187-.179.271-.255a.775.775 0 00.249-.569V12.98h.885v4.946c0 .463-.195.908-.535 1.221-.08.073-.165.155-.258.244-1.182 1.127-3.379 3.225-8.52 3.225z" fill="#161616"/><path d="M15 17.061c-.338 0-.675-.069-.989-.206L.751 11.06A1.238 1.238 0 010 9.926c-.006-.5.272-.94.726-1.149L14.05 2.621a2.261 2.261 0 011.9 0l13.324 6.157c.453.21.731.65.726 1.15a1.236 1.236 0 01-.75 1.132l-13.26 5.796a2.476 2.476 0 01-.99.205zm0-13.764c-.197 0-.395.042-.578.127L1.098 9.58a.362.362 0 00-.213.337.36.36 0 00.22.332l13.26 5.795c.403.176.866.176 1.27 0l13.261-5.796a.36.36 0 00.22-.332.359.359 0 00-.214-.336L15.578 3.424A1.376 1.376 0 0015 3.297z" fill="#161616"/><path d="M14.947 11.205c-1.36 0-2.386-.618-2.386-1.437 0-.819 1.025-1.437 2.386-1.437 1.361 0 2.389.618 2.389 1.437-.002.82-1.027 1.437-2.388 1.437zm0-1.988c-.975 0-1.502.391-1.502.552 0 .16.527.552 1.502.552.977 0 1.503-.391 1.503-.552 0-.16-.526-.552-1.502-.552z" fill="#161616"/><path d="M26.894 19.575l-.012-7.542-10.03-1.752.152-.87 10.762 1.877.013 8.286-.885.001z" fill="#161616"/><path d="M27.327 22.169a1.477 1.477 0 100-2.954 1.477 1.477 0 000 2.954z" fill="#00B4D3"/><path d="M28.848 23.078h-.002c-.107-.76-.742-1.347-1.51-1.347-.773 0-1.41.592-1.512 1.36h-.001s-.438 3.211-.438 3.668c0 .456.418.83.928.83h2.01c.512 0 .929-.374.929-.83 0-.455-.404-3.68-.404-3.68z" fill="#00B4D3"/></g><defs><clipPath id="clip0_5344_4639"><path fill="#fff" d="M0 0h30v30H0z"/></clipPath></defs></svg>