<svg width="26" height="22" fill="none" xmlns="http://www.w3.org/2000/svg"><path d="M23.576 15.122V7.298l-1.474.491v7.333a2.32 2.32 0 00-1.579 2.195v3.946c0 .407.33.737.737.737h3.158c.407 0 .737-.33.737-.737v-3.947a2.32 2.32 0 00-1.579-2.194zm-11.699-4.396l-7.143-2.38v5.02c0 .195.078.382.216.52a10.714 10.714 0 007.626 3.159c2.88 0 5.588-1.122 7.625-3.159a.737.737 0 00.216-.52v-5.02l-7.142 2.38a2.21 2.21 0 01-1.398 0z" fill="#fff"/><path d="M12.577 9.367a.737.737 0 00.233-.038l11.84-3.946a.737.737 0 000-1.398L12.81.038a.738.738 0 00-.466 0L.504 3.985a.737.737 0 000 1.398l11.84 3.946a.737.737 0 00.233.038z" fill="#fff"/></svg>