<svg width="22" height="22" fill="none" xmlns="http://www.w3.org/2000/svg"><rect width="22" height="22" rx="4" fill="#00B5D3"/><path d="M6.05 7.94a.407.407 0 01-.38-.557 2.586 2.586 0 012.395-1.617h.5C8.752 4.781 9.616 4 10.674 4h.87c1.056 0 1.92.78 2.108 1.766h.5c1.083 0 2.011.67 2.395 1.617a.407.407 0 01-.38.557H6.05zm5.493-3.125h-.87c-.595 0-1.1.4-1.27.951h3.41a1.337 1.337 0 00-1.27-.95zm3.505 11.963a1.227 1.227 0 01-1.22 1.136H8.39a1.227 1.227 0 01-1.22-1.136l-.572-8.022h9.021l-.571 8.022zm-5.054-5.841a.408.408 0 00-.814.04l.217 4.348a.408.408 0 00.814-.04l-.217-4.348zm2.657-.387a.408.408 0 00-.428.387l-.217 4.348a.408.408 0 00.814.04l.218-4.348a.408.408 0 00-.387-.427z" fill="#fff"/></svg>