<svg width="26" height="17" fill="none" xmlns="http://www.w3.org/2000/svg"><path d="M24.944 9.281a.184.184 0 00-.025-.055l-3.556-5.335A2.002 2.002 0 0019.698 3h-3.195V2a2 2 0 00-2-2.001H2a2 2 0 00-2 2V9h15.502v1H0v3.501c0 .825.675 1.5 1.5 1.5h.04c-.03-.165-.04-.33-.04-.5 0-1.93 1.57-3.5 3.5-3.5a3.504 3.504 0 013.501 3.5c0 .17-.01.335-.04.5h8.582c-.03-.165-.04-.33-.04-.5 0-1.93 1.57-3.5 3.5-3.5s3.5 1.57 3.5 3.5c0 .14-.01.28-.03.42a1.5 1.5 0 001.03-1.42v-4a.52.52 0 00-.034-.176.203.203 0 00-.025-.045zm-8.441-.28v-5h3.195a1 1 0 01.835.445L23.568 9h-7.066z" fill="#00B5D3"/><path d="M5.004 17a2.5 2.5 0 100-5 2.5 2.5 0 000 5zm15.504 0a2.5 2.5 0 100-5 2.5 2.5 0 000 5z" fill="#00B5D3"/></svg>