<svg width="31" height="18" fill="none" xmlns="http://www.w3.org/2000/svg"><path d="M15.433 18c-1.811 0-3.614-.008-5.425 0-1.077.008-1.903-.84-1.845-1.848.05-.806.017-1.621.008-2.436-.025-1.89.785-3.334 2.32-4.384.326-.219.71-.353 1.07-.504.066-.025.2.033.275.092 1.352 1.109 2.904 1.47 4.607 1.26.86-.11 1.66-.453 2.278-1.041.451-.437.81-.27 1.194-.068 1.093.563 1.953 1.386 2.387 2.562.192.53.342 1.1.376 1.655.058.974 0 1.957.025 2.94.025.949-.751 1.755-1.761 1.764-1.837.016-3.673.008-5.51.008z" fill="silver"/><path d="M15.324 9.231c-2.378-.059-4.473-2.016-4.457-4.611.017-2.73 2.12-4.645 4.6-4.62 2.528.025 4.54 2.007 4.531 4.653-.008 2.63-2.211 4.645-4.674 4.578zm7.896 8.131c.427-1.143.168-2.268.235-3.369.075-1.133-.076-2.225-.693-3.309.417.143.75.269 1.093.386 1.419.48 2.721.185 3.898-.671.317-.227.567-.21.835-.068 1.469.781 2.27 1.983 2.27 3.688 0 .655.008 1.31 0 1.973-.009.874-.5 1.37-1.36 1.378-2.087-.008-4.174-.008-6.277-.008zM8.096 10.659c-.618 1.092-.768 2.192-.693 3.334.067 1.1-.184 2.235.225 3.36H1.443c-.96 0-1.435-.487-1.435-1.47v-1.931c.008-1.68.818-2.873 2.278-3.637.268-.143.518-.152.835.075 1.419 1.008 2.955 1.184 4.549.42.1-.05.217-.075.426-.151z" fill="silver"/><path d="M2.146 6.82c-.1-1.898 1.661-3.645 3.623-3.611C7.73 3.242 9.358 4.88 9.34 6.87a3.652 3.652 0 01-3.63 3.611c-1.92.009-3.682-1.705-3.565-3.662zm26.564.05c.1 1.924-1.669 3.646-3.614 3.612a3.653 3.653 0 01-3.58-3.662c.008-1.982 1.652-3.611 3.622-3.611 1.92-.009 3.698 1.713 3.572 3.662z" fill="silver"/></svg>