<svg width="79" height="98" viewBox="0 0 79 98" fill="none" xmlns="http://www.w3.org/2000/svg">
<g clip-path="url(#clip0)" filter="url(#filter0_d)">
<path d="M10.0302 45.3578L3.99951 40.6899V39.6771L10.0981 39.6475L10.0302 45.3578Z" fill="#BC2727"/>
<path d="M70.9283 93H13.0782C11.2751 93 9.81348 91.5383 9.81348 89.7353V6.26469C9.81348 4.46166 11.2751 3 13.0782 3H55.2584L74.193 21.5615V89.7355C74.193 91.5386 72.7314 93 70.9283 93Z" fill="white"/>
<path d="M74.1948 21.5566L74.1942 22.4836H60.0485C57.7873 22.4836 55.9541 20.6505 55.9541 18.3892V3.92676L74.1948 21.5566Z" fill="#DCDCDC"/>
<path d="M74.1948 21.5569H59.3532C57.092 21.5569 55.2588 19.7237 55.2588 17.4625V3L74.1948 21.5569Z" fill="#F2F2F2"/>
<path d="M65.2407 52.3751H18.5999C18.2367 52.3751 17.9424 52.0808 17.9424 51.7176V48.8743C17.9424 48.5111 18.2367 48.2168 18.5999 48.2168H65.2407C65.6038 48.2168 65.8982 48.5111 65.8982 48.8743V51.7176C65.8982 52.0808 65.6038 52.3751 65.2407 52.3751Z" fill="#E4E5E4"/>
<path d="M65.2407 60.4767H18.5999C18.2367 60.4767 17.9424 60.1824 17.9424 59.8192V56.9758C17.9424 56.6127 18.2367 56.3184 18.5999 56.3184H65.2407C65.6038 56.3184 65.8982 56.6127 65.8982 56.9758V59.8192C65.8982 60.1824 65.6038 60.4767 65.2407 60.4767Z" fill="#E4E5E4"/>
<path d="M65.2407 68.5773H18.5999C18.2367 68.5773 17.9424 68.2829 17.9424 67.9198V65.0764C17.9424 64.7133 18.2367 64.4189 18.5999 64.4189H65.2407C65.6038 64.4189 65.8982 64.7133 65.8982 65.0764V67.9198C65.8982 68.2829 65.6038 68.5773 65.2407 68.5773Z" fill="#E4E5E4"/>
<path d="M65.2407 76.6788H18.5999C18.2367 76.6788 17.9424 76.3845 17.9424 76.0214V73.178C17.9424 72.8148 18.2367 72.5205 18.5999 72.5205H65.2407C65.6038 72.5205 65.8982 72.8148 65.8982 73.178V76.0214C65.8982 76.3845 65.6038 76.6788 65.2407 76.6788Z" fill="#E4E5E4"/>
<path d="M65.2407 84.7804H18.5999C18.2367 84.7804 17.9424 84.4861 17.9424 84.1229V81.2795C17.9424 80.9164 18.2367 80.6221 18.5999 80.6221H65.2407C65.6038 80.6221 65.8982 80.9164 65.8982 81.2795V84.1229C65.8982 84.4861 65.6038 84.7804 65.2407 84.7804Z" fill="#E4E5E4"/>
<path d="M47.2085 41.5755H9.81348V23.2344C9.81348 21.1433 11.2967 19.4482 13.1264 19.4482H47.2083C49.038 19.4482 50.5212 21.1433 50.5212 23.2344V37.7893C50.5214 39.8804 49.0382 41.5755 47.2085 41.5755Z" fill="#DCDCDC"/>
<path d="M46.7351 40.69H3.99951V22.3486C3.99951 20.2575 5.69455 18.5625 7.78565 18.5625H46.7351C48.8262 18.5625 50.5212 20.2575 50.5212 22.3486V36.9036C50.5212 38.9947 48.8262 40.69 46.7351 40.69Z" fill="#E73B38"/>
<path d="M18.497 23.9402C19.2706 24.2906 19.8664 24.7875 20.2845 25.4313C20.7024 26.0751 20.9114 26.8376 20.9114 27.7187C20.9114 28.5887 20.7024 29.3481 20.2845 29.9975C19.8664 30.6473 19.2706 31.1442 18.497 31.4886C17.7232 31.8332 16.8113 32.0052 15.7607 32.0052H13.3718V35.2752H10.627V23.415H15.7607C16.811 23.415 17.7232 23.5902 18.497 23.9402ZM17.4889 29.235C17.9181 28.8791 18.1327 28.3738 18.1327 27.7187C18.1327 27.0524 17.9179 26.5411 17.4889 26.1854C17.0592 25.8294 16.4323 25.6517 15.6082 25.6517H13.3718V29.769H15.6082C16.4326 29.7688 17.0595 29.5908 17.4889 29.235Z" fill="white"/>
<path d="M22.8599 23.415H28.2479C29.5355 23.415 30.6734 23.6607 31.6618 24.152C32.65 24.6433 33.418 25.3353 33.9659 26.2276C34.5137 27.1201 34.7877 28.159 34.7877 29.3451C34.7877 30.5312 34.5137 31.5706 33.9659 32.4626C33.418 33.3551 32.6498 34.0469 31.6618 34.5382C30.6731 35.0295 29.5352 35.2752 28.2479 35.2752H22.8599V23.415ZM28.1123 33.0219C29.2982 33.0219 30.2442 32.6914 30.9501 32.0307C31.656 31.3699 32.0092 30.4749 32.0092 29.3451C32.0092 28.2158 31.656 27.3203 30.9501 26.6596C30.2442 25.9988 29.2982 25.6684 28.1123 25.6684H25.6047V33.0216L28.1123 33.0219Z" fill="white"/>
<path d="M39.5999 25.6176V28.7521H45.0896V30.9546H39.5999V35.2752H36.855V23.415H45.818V25.6176H39.5999Z" fill="white"/>
</g>
<defs>
<filter id="filter0_d" x="0" y="0" width="78.1933" height="98" filterUnits="userSpaceOnUse" color-interpolation-filters="sRGB">
<feFlood flood-opacity="0" result="BackgroundImageFix"/>
<feColorMatrix in="SourceAlpha" type="matrix" values="0 0 0 0 0 0 0 0 0 0 0 0 0 0 0 0 0 0 127 0" result="hardAlpha"/>
<feOffset dy="1"/>
<feGaussianBlur stdDeviation="2"/>
<feComposite in2="hardAlpha" operator="out"/>
<feColorMatrix type="matrix" values="0 0 0 0 0 0 0 0 0 0 0 0 0 0 0 0 0 0 0.15 0"/>
<feBlend mode="normal" in2="BackgroundImageFix" result="effect1_dropShadow"/>
<feBlend mode="normal" in="SourceGraphic" in2="effect1_dropShadow" result="shape"/>
</filter>
<clipPath id="clip0">
<rect width="70.1933" height="90" fill="white" transform="translate(4 3)"/>
</clipPath>
</defs>
</svg>
