<svg width="79" height="98" viewBox="0 0 79 98" fill="none" xmlns="http://www.w3.org/2000/svg">
<g clip-path="url(#clip0)" filter="url(#filter0_d)">
<path d="M10.0307 45.3578L4 40.6899V39.6771L10.0986 39.6475L10.0307 45.3578Z" fill="#1C7131"/>
<path d="M70.9284 93H13.0782C11.2751 93 9.81348 91.5383 9.81348 89.7353V6.26469C9.81348 4.46166 11.2751 3 13.0782 3H55.2584L74.1931 21.5615V89.7355C74.1931 91.5386 72.7314 93 70.9284 93Z" fill="white"/>
<path d="M74.1934 22.4836H60.0485C57.7873 22.4836 55.9541 20.6505 55.9541 18.3892V3.92676L74.1934 21.5612V22.4836Z" fill="#DCDCDC"/>
<path d="M74.1948 21.5569H59.3532C57.0919 21.5569 55.2588 19.7237 55.2588 17.4625V3L74.1948 21.5569Z" fill="#F2F2F2"/>
<path d="M65.2407 52.3751H18.5999C18.2367 52.3751 17.9424 52.0808 17.9424 51.7176V48.8743C17.9424 48.5111 18.2367 48.2168 18.5999 48.2168H65.2407C65.6038 48.2168 65.8981 48.5111 65.8981 48.8743V51.7176C65.8981 52.0808 65.6038 52.3751 65.2407 52.3751Z" fill="#E4E5E4"/>
<path d="M65.2407 60.4767H18.5999C18.2367 60.4767 17.9424 60.1824 17.9424 59.8192V56.9758C17.9424 56.6127 18.2367 56.3184 18.5999 56.3184H65.2407C65.6038 56.3184 65.8981 56.6127 65.8981 56.9758V59.8192C65.8981 60.1824 65.6038 60.4767 65.2407 60.4767Z" fill="#E4E5E4"/>
<path d="M65.2407 68.5773H18.5999C18.2367 68.5773 17.9424 68.2829 17.9424 67.9198V65.0764C17.9424 64.7133 18.2367 64.4189 18.5999 64.4189H65.2407C65.6038 64.4189 65.8981 64.7133 65.8981 65.0764V67.9198C65.8981 68.2829 65.6038 68.5773 65.2407 68.5773Z" fill="#E4E5E4"/>
<path d="M65.2407 76.6788H18.5999C18.2367 76.6788 17.9424 76.3845 17.9424 76.0214V73.178C17.9424 72.8148 18.2367 72.5205 18.5999 72.5205H65.2407C65.6038 72.5205 65.8981 72.8148 65.8981 73.178V76.0214C65.8981 76.3845 65.6038 76.6788 65.2407 76.6788Z" fill="#E4E5E4"/>
<path d="M65.2407 84.7804H18.5999C18.2367 84.7804 17.9424 84.4861 17.9424 84.1229V81.2795C17.9424 80.9164 18.2367 80.6221 18.5999 80.6221H65.2407C65.6038 80.6221 65.8981 80.9164 65.8981 81.2795V84.1229C65.8981 84.4861 65.6038 84.7804 65.2407 84.7804Z" fill="#E4E5E4"/>
<path d="M46.7357 41.5755H9.81388L9.79395 23.2344C9.79395 21.1433 11.489 19.4482 13.5801 19.4482H46.7357C48.8268 19.4482 50.5218 21.1433 50.5218 23.2344V37.7893C50.5218 39.8804 48.8268 41.5755 46.7357 41.5755Z" fill="#DCDCDC"/>
<path d="M46.7355 40.69H4V22.3486C4 20.2575 5.69503 18.5625 7.78613 18.5625H46.7355C48.8266 18.5625 50.5217 20.2575 50.5217 22.3486V36.9036C50.5217 38.9947 48.8266 40.69 46.7355 40.69Z" fill="#49AD41"/>
<path d="M19.9534 35.2754L17.0901 31.1581L14.2773 35.2754H11.126L15.5142 29.2436L11.3464 23.415H14.4637L17.1916 27.2612L19.8688 23.415H22.8339L18.6996 29.1419L23.1219 35.2754H19.9534Z" fill="white"/>
<path d="M24.2061 23.415H26.9509V33.0388H32.8979V35.2752H24.2061V23.415Z" fill="white"/>
<path d="M35.5501 35.0975C34.6745 34.8433 33.9714 34.5131 33.4404 34.1063L34.3723 32.0393C34.8805 32.412 35.4847 32.7114 36.1851 32.9374C36.8852 33.1636 37.5856 33.2762 38.2859 33.2762C39.0653 33.2762 39.6417 33.1606 40.0143 32.9288C40.387 32.6973 40.5733 32.3895 40.5733 32.0053C40.5733 31.723 40.463 31.4887 40.2428 31.3021C40.0227 31.1156 39.7402 30.9661 39.3958 30.853C39.0512 30.7401 38.5851 30.6159 37.9981 30.4803C37.0942 30.266 36.3545 30.0511 35.7783 29.8365C35.2024 29.6222 34.7081 29.2773 34.2961 28.8032C33.8835 28.3288 33.6775 27.6963 33.6775 26.9056C33.6775 26.2168 33.8641 25.5925 34.2367 25.0333C34.6094 24.474 35.1712 24.0309 35.9225 23.7032C36.6734 23.3758 37.5913 23.2119 38.6757 23.2119C39.4324 23.2119 40.1724 23.3025 40.8954 23.4831C41.618 23.6638 42.251 23.9236 42.793 24.2624L41.946 26.3466C40.85 25.7255 39.7545 25.4147 38.6588 25.4147C37.8908 25.4147 37.323 25.5392 36.9561 25.7874C36.5888 26.036 36.4052 26.3635 36.4052 26.77C36.4052 27.1767 36.6171 27.4789 37.0407 27.6766C37.4641 27.8743 38.1107 28.0692 38.9807 28.2611C39.8841 28.4759 40.6243 28.6905 41.2002 28.9049C41.7761 29.1195 42.2702 29.4586 42.6827 29.9216C43.0948 30.3849 43.301 31.0118 43.301 31.8023C43.301 32.4799 43.1119 33.0985 42.7335 33.6574C42.355 34.2164 41.7875 34.66 41.0306 34.9875C40.2737 35.3149 39.3534 35.4788 38.269 35.4788C37.3316 35.4788 36.4252 35.3518 35.5501 35.0975Z" fill="white"/>
</g>
<defs>
<filter id="filter0_d" x="0" y="0" width="78.1933" height="98" filterUnits="userSpaceOnUse" color-interpolation-filters="sRGB">
<feFlood flood-opacity="0" result="BackgroundImageFix"/>
<feColorMatrix in="SourceAlpha" type="matrix" values="0 0 0 0 0 0 0 0 0 0 0 0 0 0 0 0 0 0 127 0" result="hardAlpha"/>
<feOffset dy="1"/>
<feGaussianBlur stdDeviation="2"/>
<feComposite in2="hardAlpha" operator="out"/>
<feColorMatrix type="matrix" values="0 0 0 0 0 0 0 0 0 0 0 0 0 0 0 0 0 0 0.15 0"/>
<feBlend mode="normal" in2="BackgroundImageFix" result="effect1_dropShadow"/>
<feBlend mode="normal" in="SourceGraphic" in2="effect1_dropShadow" result="shape"/>
</filter>
<clipPath id="clip0">
<rect width="70.1933" height="90" fill="white" transform="translate(4 3)"/>
</clipPath>
</defs>
</svg>
