<svg width="47" height="37" fill="none" xmlns="http://www.w3.org/2000/svg"><path d="M30.31 31.694H14.816v-1.287h15.22V6.822H1.528v23.585H6.99v1.287H1.254A1.023 1.023 0 01.23 30.678V6.536c0-.558.462-1.015 1.024-1.015h29.07c.562 0 1.024.457 1.024 1.015v24.142a1.045 1.045 0 01-1.038 1.016z" fill="#151515"/><path d="M30.325 10.083H3.46a.252.252 0 01-.245-.243V8.768c0-.13.115-.244.245-.244h26.85c.13 0 .246.115.246.244V9.84c0 .143-.101.243-.23.243zM13.91 3.89H3.46a.252.252 0 01-.245-.243V2.574c0-.129.115-.243.245-.243h10.45a.25.25 0 01.244.243v1.073c0 .129-.1.243-.245.243zm32.427 24.8h-3.041a.252.252 0 01-.245-.242v-1.073c0-.129.115-.243.245-.243h3.04c.13 0 .246.114.246.243v1.073a.242.242 0 01-.245.243zm-15.795 0H16.749a.252.252 0 01-.245-.242v-1.073c0-.129.115-.243.245-.243h13.793c.13 0 .245.114.245.243v1.073a.242.242 0 01-.245.243zm-25.222 0H1.14a.252.252 0 01-.245-.242v-1.073c0-.129.115-.243.245-.243h4.18a.25.25 0 01.244.243v1.073c0 .143-.1.243-.245.243zM1.412 3.89H.33a.252.252 0 01-.245-.243V2.574c0-.129.115-.243.245-.243h1.08c.13 0 .246.114.246.243v1.073a.242.242 0 01-.245.243z" fill="#151515"/><path d="M13.908 17.492l3.445-3.418a1.056 1.056 0 000-1.502L15.969 11.2l-6.658 6.608c-.678.672-.202 1.802.749 1.802h5.981l-2.133-2.117z" fill="#00B0CE"/><path d="M21.88 17.52h-5.981l2.133 2.117-3.445 3.418a1.056 1.056 0 000 1.502l1.383 1.373 6.66-6.607c.677-.673.201-1.803-.75-1.803z" fill="#00B0CE"/><path d="M11.01 35.598c-2.536 0-4.612-2.06-4.612-4.577s2.076-4.577 4.613-4.577c2.536 0 4.612 2.06 4.612 4.577s-2.061 4.577-4.612 4.577zm0-7.866c-1.83 0-3.314 1.473-3.314 3.29 0 1.816 1.484 3.289 3.315 3.289 1.83 0 3.315-1.474 3.315-3.29s-1.485-3.29-3.316-3.29z" fill="#151515"/><path d="M11.024 31.794c.43 0 .779-.346.779-.773a.775.775 0 00-.779-.772.775.775 0 00-.778.772c0 .427.348.773.778.773zm26.608 3.804c-2.537 0-4.612-2.06-4.612-4.577s2.075-4.577 4.612-4.577c2.536 0 4.612 2.06 4.612 4.577s-2.076 4.577-4.612 4.577zm0-7.866c-1.83 0-3.315 1.473-3.315 3.29 0 1.816 1.484 3.289 3.315 3.289 1.83 0 3.315-1.474 3.315-3.29s-1.485-3.29-3.315-3.29z" fill="#151515"/><path d="M37.645 31.794c.43 0 .779-.346.779-.773a.775.775 0 00-.779-.772.775.775 0 00-.778.772c0 .427.349.773.779.773z" fill="#151515"/><path d="M45.76 31.694h-4.007v-1.287h3.776V22.77l-6.89-10.584h-7.307v18.207h1.96v1.287h-3.257V10.913h8.734c.36 0 .692.186.894.486l7.005 10.741c.115.172.172.372.172.572v7.938a1.08 1.08 0 01-1.08 1.044z" fill="#151515"/><path d="M45.573 22.369H33.726a.705.705 0 01-.706-.7v-6.88c0-.386.317-.701.706-.701h7.264v1.287h-6.673v5.707h11.256v1.287z" fill="#151515"/></svg>