<svg width="47" height="47" fill="none" xmlns="http://www.w3.org/2000/svg"><g clip-path="url(#clip0)"><path d="M26.791 45.12l-.156-.784C22.875 29.453 16.92 6.58 15.51 4.543 13.787 2.036 9.4 2.506 9.244 2.506c-.47 0-.784-.313-.94-.783 0-.47.313-.783.783-.94.157 0 5.483-.47 7.677 2.82 1.88 2.82 9.556 33.213 11.123 39.48l10.027-2.663c.47-.157.94.156.94.626.156.47-.157.94-.627.94L26.791 45.12z" fill="#151515"/><path d="M20.837 47c-.626 0-1.253-.156-1.88-.313a4.477 4.477 0 01-2.663-2.663 5.19 5.19 0 010-3.76 4.476 4.476 0 012.663-2.664 5.19 5.19 0 013.76 0 4.476 4.476 0 012.664 2.664 5.19 5.19 0 010 3.76 4.476 4.476 0 01-2.664 2.663c-.626.157-1.253.314-1.88.314zm0-8.146c-.47 0-.783.157-1.253.313a3.1 3.1 0 00-1.723 1.724 3.46 3.46 0 000 2.506c.313.784.94 1.41 1.723 1.724a3.46 3.46 0 002.507 0 3.103 3.103 0 001.723-1.724 3.46 3.46 0 000-2.506 3.103 3.103 0 00-1.723-1.724c-.47-.157-.784-.313-1.254-.313z" fill="#151515"/><path d="M20.834 43.084a.94.94 0 100-1.88.94.94 0 000 1.88zM8.773 2.82l-6.423.313c-.157 0-.313 0-.47-.156-.47-.314-1.567-.94-1.88-1.88V.783C0 .47.313 0 .627 0h7.99c.47 0 .783.47.783.94l-.157 1.567c-.156.156-.313.313-.47.313z" fill="#151515"/><path d="M43.711 26.32l-6.736 1.88 2.036 8.304-2.036.47-2.194-8.147-7.363 2.037 3.29 11.436 16.293-4.543-3.29-11.437zm-5.328-11.593l-6.893 1.88 2.193 8.146-2.037.627-2.193-8.147-7.363 2.037 3.133 11.437 16.45-4.544-3.29-11.436zm.154-12.064l-7.05-.94-1.253 8.303-2.037-.313 1.097-8.303-7.52-.94-1.567 11.75 16.763 2.193 1.567-11.75z" fill="#00B4D3"/></g><defs><clipPath id="clip0"><path fill="#fff" d="M0 0h47v47H0z"/></clipPath></defs></svg>