<svg width="47" height="47" fill="none" xmlns="http://www.w3.org/2000/svg"><path d="M37.443 27.104l-11.28-2.82c-.626-.157-1.096-.157-1.723-.157L13.943 25.38 4.387 13.004c-.47-.47-1.097-.627-1.724-.627h-.156A2.475 2.475 0 000 14.884c0 .783.313 1.41.783 1.88l9.87 12.69c.314.313.784.47 1.097.783V32.9a2.808 2.808 0 002.82 2.82c.47 0 .94-.156 1.41-.313l4.7.94v2.193H5.013c-1.88 0-3.446 1.567-3.446 3.447 0 .313.313.627.626.627h33.84c.314 0 .627-.314.627-.627v-2.82c0-2.193-1.567-4.073-3.603-4.543l-11.75-2.664-2.82-.626.47-.784 6.266-.626L36.19 32.9c.157 0 .47.157.627 0 1.41 0 2.663-1.096 2.663-2.663v-.157c0-1.566-.94-2.663-2.037-2.976zM20.523 40.89H3.133c.314-.783 1.097-1.41 1.88-1.41h15.51v1.41zm1.41-7.833l10.81 2.507c1.41.313 2.35 1.41 2.507 2.82H23.187v1.41h12.22v1.41H21.933v-8.147zm-6.11.313c-.313.627-1.253.94-1.88.627-.47-.313-.783-.783-.783-1.253V30.55h1.253l2.977-.313-1.567 3.133zm4.7-.626v2.036l-3.603-.626.94-1.88 2.663.47zm17.547-2.977c0 .783-.627 1.253-1.253 1.253h-.314L25.38 28.2h-.313L14.1 29.297c-.94.157-1.88-.157-2.663-.783l-9.87-12.69c-.314-.47-.314-1.254.156-1.724.157-.313.627-.47.94-.47h.157c.313 0 .627.157.783.314l9.714 12.69c.156.156.313.156.47.156l10.81-1.253h1.253l11.28 2.82c.627.157.94.627.94 1.253v.157z" fill="#151515"/><path d="M15.195 31.49h-1.41v1.41h1.41v-1.41zM41.046 2.35C40.733 1.41 39.95.783 38.853.783h-14.57c-1.097 0-2.037.94-2.037 2.037v15.04h1.41V2.82c0-.313.313-.627.627-.627h14.57c.47 0 .94.47.94.94 0 .314-.314.784-.627.784l-6.11 2.036c-.783.314-1.41 1.097-1.41 1.88V8.93c-.627.157-1.253.47-1.723.94-.627-.94-1.88-1.253-2.82-.627-.627.314-.94 1.097-.94 1.723v2.037c0 1.097.94 2.037 2.036 2.037v-1.41c-.313 0-.626-.314-.626-.627v-2.037c0-.313.313-.626.626-.626.314 0 .627.313.627.627v1.41c0 1.88 1.567 3.446 3.447 3.446 1.88 0 3.446-1.566 3.446-3.447v-1.41c0-.313.314-.626.627-.626s.627.313.627.627v2.036c0 .313-.314.627-.627.627v1.41c1.097 0 2.037-.94 2.037-2.037v-2.037c0-1.096-.94-2.036-2.037-2.036-.627 0-1.41.313-1.723.94-.47-.47-1.097-.783-1.724-.94v-.94c0-.313.157-.47.47-.627l6.11-2.036c1.41-.47 2.037-1.724 1.567-2.977zm-6.58 10.027c0 1.096-.94 2.036-2.037 2.036-1.096 0-2.036-.94-2.036-2.037 0-1.096.94-2.036 2.036-2.036 1.097 0 2.037.94 2.037 2.037z" fill="#151515"/><path d="M33.215 11.594h-1.41v1.41h1.41v-1.41zm-8.619 8.46h-4.074v-2.037c0-1.096-.94-2.037-2.036-2.037-1.097 0-2.037.94-2.037 2.037v.627h1.41v-.627c0-.313.313-.627.627-.627.313 0 .626.314.626.627v2.037h-4.856c-.314 0-.627.313-.627.627v1.096h1.41v-.47h9.087v2.037h1.41V20.68c-.157-.313-.47-.626-.94-.626z" fill="#151515"/><path d="M36.345 46.06c5.883 0 10.653-4.77 10.653-10.654 0-5.883-4.77-10.653-10.653-10.653-5.884 0-10.654 4.77-10.654 10.653 0 5.884 4.77 10.654 10.654 10.654z" fill="#00B4D3"/><path d="M30.233 35.093a3.848 3.848 0 01-.784-2.35c0-.627.157-1.254.314-1.724a3.66 3.66 0 011.096-1.096c.47-.314.94-.314 1.567-.314.94 0 1.567.314 2.193.784.47.626.784 1.41.784 2.35a3.85 3.85 0 01-.784 2.35c-.47.626-1.253.783-2.193.783-.94 0-1.723-.157-2.193-.783zm8.773-5.327h2.35l-7.833 11.437h-2.35l7.833-11.437zm-5.953 4.23c.156-.313.313-.627.313-1.253 0-.627-.157-.94-.313-1.254-.157-.313-.47-.47-.627-.47-.313 0-.47.157-.627.47-.47.314-.47.784-.47 1.254s.157.94.314 1.253c.156.313.47.47.626.47.314-.157.47-.157.784-.47zm5.17 6.423a3.848 3.848 0 01-.784-2.35c0-.94.314-1.723.784-2.35.47-.626 1.253-.783 2.036-.783.94 0 1.567.313 2.194.783.47.627.783 1.41.783 2.35 0 .94-.313 1.724-.783 2.35-.47.627-1.254.784-2.194.784a2.04 2.04 0 01-2.036-.784zm2.82-1.096c.156-.314.313-.627.313-1.254 0-.626-.157-.94-.313-1.253-.157-.313-.47-.47-.627-.47-.157 0-.47.157-.627.47-.156.313-.313.627-.313 1.253 0 .627.157.94.313 1.254.157.313.47.313.627.313.157 0 .47 0 .627-.313z" fill="#fff"/></svg>