<svg width="45" height="45" fill="none" xmlns="http://www.w3.org/2000/svg"><g clip-path="url(#clip0)"><path d="M17.851 14.1l7.65-7.65c.9-.9.9-2.4 0-3.3l-3-3.15-14.85 14.85c-1.5 1.5-.45 4.05 1.65 4.05h13.35l-4.8-4.8z" fill="#00B0CE"/><path d="M35.703 14.25h-13.35l4.8 4.8-7.65 7.65c-.9.9-.9 2.4 0 3.3l3.15 3.15 14.85-14.85c1.35-1.5.3-4.05-1.8-4.05z" fill="#00B0CE"/><path d="M42.45 23.4c0-.15-.15-.3 0-.45.15-.3.45-.75.45-1.05 0-.3 0-.75-.15-.75 0 0-.3.15-.45.3-.3.15-.3.6-.3.6 0 .45-.15.75-.6.75-.45 0-.6 0-.9-.45 0 0-.3-1.05.45-1.95.9-.9 1.8-.9 2.25-.6.75.3 1.05 1.2 1.05 2.25 0 .6-.45 1.35-.9 1.65-.3.15-.75 0-.9-.3zm.305 4.8c-.45 0-.75-.3-.75-.6 0-.45.3-.75.6-.9.3 0 .6-.15.75-.15l.15-.15c-.15-.15-.45-.3-1.05 0-.75.3-.9.6-1.05.9-.15.15-.3.6-.9.6h-.3l-.15-.3c-.15-.3-.15-.6-.15-.9 0-.3.15-1.2 0-1.5-.15-.3-.45-.45-.6-.45v.15c0 .3.15.45.15.45.3.3.3.75 0 1.05-.3.3-.75.3-1.05 0 0 0-.6-.6-.6-1.5 0-1.05.75-1.5 1.2-1.65.45-.15 1.65 0 2.4 1.35.15.15.15.45.15.75.15-.15.3-.15.45-.15 1.65-.6 2.7.3 3 .75.3.6.3 1.35-.45 2.1-.75 0-1.5.15-1.8.15z" fill="#151515"/><path d="M41.1 32.55h-.6c-.45 0-.75-.45-.6-.9 0-.45.45-.75.9-.6.3 0 1.05 0 1.35-.3.15-.15.15-.3.15-.3-.15-.15-.6-.3-1.5 0-1.05.3-1.5.9-1.65 1.05-.15.15-.3.45-.75.45-.15 0-.45 0-.6-.15-.45-.45-.15-.9-.15-1.2.15-.3.45-.9.15-1.8-.3-.6-.45-.9-.75-.9 0 .15.15.45.15.6.15.45 0 .9-.3 1.05-.3.15-.9.15-1.05-.3 0 0-.45-.75-.3-1.5.15-.9.75-1.35 1.2-1.35.45-.15 1.8 0 2.55 1.95.15.3.15.6.15.9.3-.15.6-.3.9-.3 2.1-.6 3 .3 3.15.6.45.45.75 1.5-.15 2.55-.75.45-1.65.45-2.25.45z" fill="#151515"/><path d="M39.153 37.2c-.9 0-1.5-.3-1.65-.3-.45-.15-.6-.6-.45-1.05.15-.45.6-.6 1.05-.45 0 0 1.05.3 1.8 0 .45-.15.6-.3.6-.45-.3-.15-1.05-.6-2.1-.6s-1.8.45-2.25.75c-.3.15-.9.45-1.35 0-.3-.45-.15-.75-.15-1.05.15-.3.45-1.05.15-1.65-.15-.6-.45-.9-.6-1.05 0 .15 0 .3.15.45.15.45-.15.9-.45 1.05-.45.15-.9-.15-1.05-.45 0-.15-.15-.75-.15-1.2.15-1.2 1.05-1.35 1.2-1.35.45 0 1.8.3 2.4 2.4.15.45.15.9.15 1.35.45-.15 1.05-.3 1.8-.45 1.65 0 3.3.9 3.6 1.5.15.6.15 1.95-1.5 2.55-.3-.15-.9 0-1.2 0z" fill="#151515"/><path d="M35.403 41.4c-1.65 0-2.7-1.05-2.7-1.05-.3-.3-.3-.75 0-1.05.3-.3.75-.3 1.05 0 0 0 .9.9 2.25.45.6-.15.9-.3 1.05-.6-.15-.3-1.05-.9-2.25-1.2-1.05-.15-2.25.45-2.85.75-.3.15-.9.45-1.35 0-.15-.15-.45-.6.15-1.2.3-.3 1.05-1.05.9-2.25-.15-.9-.45-1.35-.75-1.5 0 .15-.15.15-.3.45-.15.45-.15.9-.15 1.05.15.45-.15.9-.6.9-.45.15-.9-.15-.9-.6 0-.15-.3-1.05.15-1.95.45-1.05 1.2-1.5 1.65-1.5.45 0 2.1.6 2.25 3 0 .6 0 1.05-.15 1.5.6-.15 1.35-.3 2.1-.15 1.65.3 3.45 1.5 3.6 2.55 0 .45-.15 1.8-2.25 2.25-.15.15-.6.15-.9.15zm-5.25 3.6c-.6 0-1.5 0-2.4-.45-.75-.3-1.35-.9-1.8-1.2-.3.3-.9.6-1.5 1.05-.45.15-.9 0-1.05-.3-.15-.45 0-.9.3-1.05.45-.3.9-.6 1.2-.75-.3-.45-1.2-1.8-1.05-3.3.15-1.35.9-2.1 1.35-2.4.45-.3 1.05-.6 1.35-.45.6.15 2.4 1.2 2.1 3.45 0 .3-.15.75-.15 1.05.75-.15 1.5-.15 2.1 0 2.1.6 3.15 2.1 3.15 2.85 0 1.05-2.1 1.8-3.15 1.8 0-.3-.15-.3-.45-.3zm-2.85-2.7c.3.3.75.6 1.2.9.6.3 1.5.3 1.95.3.6 0 1.2-.3 1.65-.45-.3-.3-.75-.9-1.8-1.2-.6-.3-1.5-.3-3 .45zm-.75-4.8c-.3.15-.75.45-.9 1.5-.15.9.45 1.8.6 2.1.15-.15.75-.6.9-2.1.15-.9-.3-1.35-.6-1.5zM1.499 23.7c-.45-.3-.9-.9-.9-1.65C.45 21 .9 20.1 1.65 19.8c.45-.15 1.5-.3 2.25.6.75.9.6 1.95.6 1.95-.15.45-.45.6-.9.45-.3 0-.6-.3-.6-.75 0 0 0-.3-.15-.6-.15-.15-.45-.3-.45-.3-.15 0-.15.45-.15.75s.3.6.45 1.05v.45c-.3.3-.75.45-1.2.3zm.751 4.5c.45 0 .75-.3.75-.6 0-.45-.3-.75-.6-.9-.3 0-.6-.15-.75-.15l-.15-.15c.15-.15.45-.3 1.05 0 .75.3.9.6 1.05.9.15.15.3.6.9.6h.3l.15-.3c.15-.3.15-.6.15-.9 0-.3-.15-1.2 0-1.5.15-.3.45-.45.6-.45v.15c0 .3-.15.45-.15.45-.3.3-.3.75 0 1.05.3.3.75.3 1.05 0 0 0 .6-.6.6-1.5 0-1.05-.75-1.5-1.2-1.65-.45-.15-1.65 0-2.4 1.35-.15.15-.15.45-.15.75-.15-.15-.3-.15-.45-.15-1.65-.6-2.7.3-3 .75-.3.6-.3 1.35.45 2.1.75 0 1.5.15 1.8.15z" fill="#151515"/><path d="M1.802 31.95c-.9-.9-.6-1.95-.15-2.55.15-.15 1.2-1.2 3.15-.6.3.15.6.15.9.3 0-.3.15-.6.15-.9.75-1.95 2.1-2.1 2.55-1.95.45.15 1.05.45 1.2 1.35.15.75-.3 1.35-.3 1.5-.15.3-.75.45-1.05.3-.3-.15-.45-.75-.3-1.05 0 0 .15-.3.15-.6-.15.15-.45.3-.75.9-.3.75 0 1.35.15 1.8.15.15.3.75-.15 1.2-.15.15-.45.15-.6.15-.3 0-.6-.3-.75-.45-.3-.3-.6-.75-1.65-1.05-.9-.3-1.35 0-1.5 0 0 0 0 .15.15.3.3.3 1.05.3 1.35.3.45 0 .9.15.9.6 0 .45-.15.9-.6.9h-.6c-.75.15-1.65.15-2.25-.45zM6 37.2c.9 0 1.5-.3 1.65-.3.45-.15.6-.6.45-1.05-.15-.45-.6-.6-1.05-.45 0 0-1.05.3-1.8 0-.45-.15-.6-.3-.6-.45.3-.15 1.05-.6 2.1-.6s1.8.45 2.25.75c.3.15.9.45 1.35 0 .3-.45.15-.75.15-1.05-.15-.3-.45-1.05-.15-1.65.15-.6.45-.9.6-1.05 0 .15 0 .3-.15.45-.15.45.15.9.45 1.05.45.15.9-.15 1.05-.45 0-.15.15-.75.15-1.2-.15-1.2-1.05-1.35-1.2-1.35-.45 0-1.8.3-2.4 2.4-.15.45-.15.9-.15 1.35-.45-.15-1.05-.3-1.8-.45-1.65 0-3.3.9-3.6 1.5-.15.6-.15 1.95 1.5 2.55.15-.15.75 0 1.2 0z" fill="#151515"/><path d="M9.6 41.4c1.65 0 2.7-1.05 2.7-1.05.3-.3.3-.75 0-1.05-.3-.3-.75-.3-1.05 0 0 0-.9.9-2.25.45-.6-.15-.9-.3-1.05-.6C8.1 39 9 38.4 10.2 38.1c1.05-.15 2.25.45 2.85.75.3.15.9.45 1.35 0 .15-.15.45-.6-.15-1.2-.3-.3-1.05-1.05-.9-2.25.15-.9.45-1.35.75-1.5 0 .15.15.15.3.45.15.45.15.9.15 1.05-.15.45.15.9.6.9.45.15.9-.15.9-.6 0-.15.3-1.05-.15-1.95-.45-1.05-1.2-1.5-1.65-1.5-.45 0-2.1.6-2.25 3 0 .6 0 1.05.15 1.5-.6-.15-1.35-.3-2.1-.15-1.65.3-3.45 1.5-3.6 2.55 0 .45.15 1.8 2.25 2.25h.9zm4.8 3.6c-1.05-.15-3.15-.75-3.15-1.8 0-.75 1.05-2.25 3.15-2.85.6-.15 1.35-.15 2.1 0-.15-.3-.15-.6-.15-1.05-.3-2.25 1.5-3.3 2.1-3.45.3 0 .9.15 1.35.45.45.45 1.2 1.05 1.35 2.4.15 1.65-.6 2.85-1.05 3.3.3.3.75.45 1.2.75.45.15.45.75.3 1.05-.15.45-.75.45-1.05.3-.6-.3-1.2-.75-1.5-1.05-.45.3-1.05.9-1.8 1.2-.9.75-1.95.75-2.4.75h-.45zm.3-3.3c-1.05.3-1.65.9-1.8 1.2.3.15.9.45 1.65.45.45 0 1.35 0 1.95-.3.45-.3.9-.6 1.2-.9-1.5-.6-2.4-.6-3-.45zm3-2.7c.15 1.5.75 1.95.9 2.1.3-.3.75-1.2.6-2.1-.15-1.05-.6-1.35-.9-1.5-.15.15-.6.6-.6 1.5z" fill="#151515"/></g><defs><clipPath id="clip0"><path fill="#fff" d="M0 0h45v45H0z"/></clipPath></defs></svg>