<svg width="45" height="45" fill="none" xmlns="http://www.w3.org/2000/svg"><path d="M7.257.457s5.03-1.036 8.138 3.107c3.107 4.143 1.48 7.841 1.48 7.841l18.938 19.087s3.698-.888 6.362 1.775c2.663 2.663 2.663 6.214 1.775 7.99l-2.959-2.96s-.592-.74-1.48-.591c-.74 0-1.183.591-1.331.74l-1.628 1.627c-.148.148-.591 1.184 0 1.923.592.74 3.403 3.403 3.403 3.403s-3.994 2.072-7.841-1.48c-2.96-2.81-2.072-6.657-2.072-6.657L11.4 16.88s-4.29 2.071-8.433-1.924C-.584 11.553.6 7.263.6 7.263l3.698 3.699s.444.74 1.48.74 1.48-.592 1.48-.592L11.4 7.115s.444-.592.444-1.48c0-.887-.888-1.627-.888-1.627L7.257.457z" fill="#00B4D3"/><path d="M28.124 19.542l-2.663-2.663 9.173-9.173 1.184-3.107L40.996.604c.296-.148.74-.148 1.036.148l2.22 2.071c.295.296.443.74.147 1.184-.444.74-3.55 4.587-3.847 5.03l-.148.148-2.959 1.184-9.32 9.173zm-.444-2.663l.592.592 8.285-8.434 2.96-1.035c1.035-1.332 2.663-3.403 3.255-4.29l-1.48-1.333-4.29 3.255-1.184 2.96-8.138 8.285zm-12.284 7.102s-.296 0-.592.148-1.183 1.036-1.48 1.332c-.295.296-.147 1.036-.147 1.036s-.444-.148-1.036 0c-.592.148-1.183.74-1.183.74l-9.174 9.025c-.296.295-.443.591-.591.74-.888 1.627-1.332 3.994.591 5.918 1.776 1.923 3.847 1.775 5.179 1.331a3.475 3.475 0 001.627-1.035s9.174-9.026 9.765-9.766c.444-.591.148-1.775.148-1.775h.592c.296 0 .444-.296.444-.296l1.184-1.184c.148-.295.148-.74.148-.74l-5.475-5.474zM2.376 39.665a1.161 1.161 0 010-1.628l9.173-9.173a1.161 1.161 0 011.628 0 1.161 1.161 0 010 1.627l-9.173 9.174c-.444.591-1.184.591-1.628 0zm13.76-6.215l-9.173 9.174a1.161 1.161 0 01-1.628 0 1.161 1.161 0 010-1.628l9.174-9.173a1.161 1.161 0 011.627 0 1.161 1.161 0 010 1.627z" fill="#151515"/></svg>