<svg width="47" height="47" fill="none" xmlns="http://www.w3.org/2000/svg"><g clip-path="url(#clip0)"><path d="M12.848 47V24.597l31.49 1.723v17.547L12.848 47zm1.566-20.68v18.8l28.357-2.82V27.887L14.414 26.32zM11.907 47l-9.243-3.134v-17.39l9.243-1.723V47zm-7.676-4.387l6.11 2.037V26.633L4.23 27.73v14.883zM23.502 4.387c-.47 0-.783-.314-.783-.784V.783c0-.47.313-.783.783-.783.47 0 .783.313.783.783v2.82c0 .47-.313.784-.783.784zm-.002 11.75c-.156 0-.156 0 0 0-.94 0-1.723-.47-2.35-1.097-.94-.94-1.096-2.507-.47-3.603.47-.784 1.41-1.254 1.88-1.41V7.833c0-.47.314-.783.784-.783.47 0 .783.313.783.783v3.604h-.783s-.94 0-1.41.783c-.313.47-.313 1.253.157 1.723.313.314.626.47 1.096.47.47 0 .94-.156 1.254-.47.626-.156.626-.783.626-.783 0-.47.314-.784.784-.784.47 0 .783.314.783.784 0 .156 0 1.41-.94 2.193-.627.47-1.41.784-2.193.784z" fill="#151515"/><path d="M25.537 1.41h-4.074c-.156 0-.156 0-.313.157l-2.037 3.446v.314l2.037 3.446c0 .157.157.157.313.157h4.074c.156 0 .156 0 .313-.157l2.037-3.446v-.314L25.85 1.567c-.157-.157-.313-.157-.313-.157z" fill="#00B4D3"/><path d="M42.613 25.694c-.157 0-.313 0-.313-.157l-18.8-9.243L5.17 25.38c-.47.157-.94 0-1.097-.313-.156-.47 0-.94.314-1.097l18.643-9.243c.313-.157.47-.157.783 0l19.113 9.4c.47.157.627.627.314 1.097-.157.313-.314.47-.627.47z" fill="#151515"/><path d="M33.84 25.223c-.157 0-.314 0-.47-.156l-9.87-8.46-9.4 7.363c-.314.313-.94.157-1.097-.157-.313-.313-.157-.94.156-1.096l9.87-7.834c.314-.313.784-.313 1.254 0l10.34 8.93c.313.314.313.784.157 1.097-.47.313-.627.313-.94.313z" fill="#151515"/><path d="M16.293 43.397v-14.57c0-.47.313-.783.783-.783.47 0 .784.313.784.783v12.69l1.41-.156c.47 0 .783.313.94.783 0 .47-.314.783-.784.94l-3.133.313zm5.328-.47v-13.63c0-.47.313-.783.783-.783.47 0 .784.313.784.783v11.907l1.41-.157c.47 0 .783.313.94.783 0 .47-.314.784-.784.94l-3.133.157zm5.484-.47V29.61c0-.47.314-.783.784-.783.47 0 .783.313.783.783v11.124l1.41-.157c.47 0 .784.314.94.784 0 .47-.313.783-.783.94l-3.134.156zm5.325-.627V29.767c0-.47.313-.784.783-.784.47 0 .783.314.783.784V39.95l1.41-.157c.47 0 .784.314.94.784 0 .47-.313.783-.783.94l-3.133.313zm5.484-.47V30.237c0-.47.313-.784.783-.784.47 0 .784.314.784.784v9.4l1.41-.157c.47 0 .783.313.94.783 0 .47-.314.784-.784.94l-3.133.157z" fill="#00B4D3"/></g><defs><clipPath id="clip0"><path fill="#fff" d="M0 0h47v47H0z"/></clipPath></defs></svg>