<svg width="17" height="16" fill="none" xmlns="http://www.w3.org/2000/svg"><path d="M14.115 0H1.943C.895 0 0 .985 0 2.03v12.18C0 15.253.895 16 1.943 16h12.172c1.048 0 1.887-.746 1.887-1.79V2.03c0-1.045-.839-2.03-1.887-2.03zm-.377 2.286a.55.55 0 01.55.549v1.759a.55.55 0 01-.55.55H11.98a.55.55 0 01-.55-.55V2.835a.55.55 0 01.55-.55h1.76zm-5.69 2.79a3.067 3.067 0 013.07 3.062 3.067 3.067 0 01-3.07 3.063 3.067 3.067 0 01-3.071-3.063 3.067 3.067 0 013.07-3.063zm6.24 8.725c0 .245-.262.485-.508.485H2.316c-.247 0-.602-.24-.602-.485V6.857h1.65c-.113.572-.174.838-.174 1.281 0 2.672 2.18 4.845 4.858 4.845 2.678 0 4.857-2.173 4.857-4.845 0-.443-.06-.71-.172-1.28h1.554V13.8z" fill="#fff"/></svg>