<svg width="20" height="11" fill="none" xmlns="http://www.w3.org/2000/svg"><path d="M19.107 9.811c-.052-.086-.372-.783-1.915-2.215-1.614-1.499-1.398-1.255.547-3.847 1.185-1.579 1.658-2.543 1.51-2.955-.14-.393-1.012-.289-1.012-.289L15.34.522s-.214-.029-.375.066C14.81.682 14.71.9 14.71.9s-.46 1.222-1.071 2.26c-1.291 2.193-1.808 2.308-2.019 2.172-.49-.317-.367-1.275-.367-1.954 0-2.125.321-3.01-.628-3.24-.316-.075-.547-.126-1.353-.134-1.034-.011-1.91.003-2.406.245-.33.162-.584.522-.429.543.192.025.626.116.856.43.298.403.287 1.312.287 1.312s.17 2.5-.4 2.811c-.39.214-.927-.221-2.078-2.21A18.546 18.546 0 014.067.987S3.982.778 3.83.666a1.201 1.201 0 00-.446-.18L.628.505S.215.516.063.695c-.135.16-.01.49-.01.49s2.156 5.046 4.597 7.59c2.24 2.332 4.783 2.179 4.783 2.179h1.152s.348-.039.525-.23c.164-.176.158-.507.158-.507s-.023-1.546.696-1.773c.707-.225 1.615 1.494 2.578 2.155.728.5 1.281.39 1.281.39l2.575-.035s1.348-.084.709-1.143z" fill="#fff"/></svg>