<svg width="20" height="20" viewBox="0 0 20 20" fill="none" xmlns="http://www.w3.org/2000/svg">
<g clip-path="url(#clip0)">
<path d="M13.4334 1.60748L4.35753 6.25415L0.750031 4.47915L9.66586 0.0766467C9.86586 -0.0250199 10.1059 -0.0250199 10.3159 0.0766467L13.4334 1.60748Z" fill="#00B5D3"/>
<path d="M19.24 4.47915L10.005 9.05415L6.54666 7.34998L6.04666 7.09582L15.1325 2.44998L15.6325 2.70331L19.24 4.47915Z" fill="#00B5D3"/>
<path d="M9.265 10.3725L9.255 20L0.41 15.3842C0.16 15.2525 0 14.9883 0 14.7042V5.79749L3.74833 7.64415V10.8908C3.74833 11.3067 4.08833 11.6517 4.49833 11.6517C4.90833 11.6517 5.24833 11.3067 5.24833 10.8908V8.39499L5.74833 8.63832L9.265 10.3725Z" fill="#00B5D3"/>
<path d="M19.99 5.8075L10.765 10.3625L10.755 19.99L20 15.1625L19.99 5.8075Z" fill="#00B5D3"/>
</g>
<defs>
<clipPath id="clip0">
<rect width="20" height="20" fill="white"/>
</clipPath>
</defs>
</svg>
