<svg width="22" height="17" viewBox="0 0 22 17" fill="none" xmlns="http://www.w3.org/2000/svg">
<path d="M21.5416 5.94999H17.7831L13.5083 0.184294C13.3649 -0.00910766 13.0796 -0.0581552 12.871 0.0747633L12.1154 0.556274C11.9068 0.689232 11.8539 0.953834 11.9973 1.14728L15.5582 5.94999H6.44178L10.0026 1.14728C10.146 0.953834 10.0932 0.689232 9.88451 0.556274L9.12891 0.0747633C8.92034 -0.0581552 8.63498 -0.00910766 8.49164 0.184294L4.21682 5.94999H0.458347C0.205218 5.94999 0 6.14025 0 6.37501V7.22499C0 7.45971 0.205218 7.65 0.458347 7.65H1.03984L3.8417 15.8155C4.0852 16.5239 4.78701 17 5.58863 17H16.4114C17.213 17 17.9148 16.5239 18.1583 15.815L20.9601 7.65H21.5417C21.7948 7.65 22 7.45971 22 7.22499V6.37501C22 6.14025 21.7947 5.94999 21.5416 5.94999Z" fill="#00B5D3"/>
</svg>
