<svg width="14" height="14" viewBox="0 0 14 14" fill="none" xmlns="http://www.w3.org/2000/svg">
<path d="M7 14C3.12667 14 0 10.8733 0 7C0 3.12667 3.12667 0 7 0C10.8733 0 14 3.12667 14 7C14 10.8733 10.8733 14 7 14ZM7 0.466667C3.40667 0.466667 0.466667 3.40667 0.466667 7C0.466667 10.5933 3.40667 13.5333 7 13.5333C10.5933 13.5333 13.5333 10.5933 13.5333 7C13.5333 3.40667 10.5933 0.466667 7 0.466667Z" fill="#151515"/>
<path d="M11.2933 6.25332L6.76668 8.86665C6.34668 9.09999 5.83335 8.95999 5.60001 8.53999C5.36668 8.11999 5.50668 7.60665 5.92668 7.37332L10.4533 4.75999C10.8733 4.52665 11.3867 4.66665 11.62 5.08665C11.8533 5.50665 11.7133 6.01999 11.2933 6.25332Z" fill="#00B4D3"/>
<path d="M5.13332 4.85332L7.04666 7.60665C7.32666 7.97998 7.23332 8.53998 6.81332 8.77332C6.43999 9.05332 5.87999 8.95998 5.64666 8.53998L3.73332 5.83332C3.45332 5.45998 3.54666 4.89998 3.96666 4.66665C4.33999 4.38665 4.85332 4.47998 5.13332 4.85332Z" fill="#00B4D3"/>
</svg>
