<svg width="15" height="15" viewBox="0 0 15 15" fill="none" xmlns="http://www.w3.org/2000/svg">
<path d="M6.84999 7.74999L0.399994 2.84999L1.04999 2.54999H14.15L14.6 2.94999L8.19999 7.74999C7.79999 8.04999 7.24999 8.04999 6.84999 7.74999Z" fill="#00B4D3"/>
<path d="M13.85 12.6H1.15C0.5 12.6 0 12.1 0 11.5V3.49998C0 2.84998 0.5 2.34998 1.15 2.34998H13.85C14.5 2.39998 15 2.89998 15 3.49998V11.5C15 12.1 14.5 12.6 13.85 12.6ZM1.15 2.79998C0.75 2.79998 0.4 3.09998 0.4 3.49998V11.5C0.4 11.9 0.75 12.25 1.15 12.25H13.85C14.25 12.25 14.6 11.9 14.6 11.5V3.49998C14.6 3.09998 14.25 2.74998 13.85 2.74998H1.15V2.79998Z" fill="#151515"/>
<path d="M0.650006 12.2C0.600006 12.2 0.550006 12.15 0.500006 12.1C0.450006 12 0.450006 11.9 0.550006 11.8L4.70001 8.54999C4.80001 8.49999 4.90001 8.49999 5.00001 8.59999C5.05001 8.69999 5.05001 8.79999 4.95001 8.89999L0.800006 12.15C0.750006 12.2 0.700006 12.2 0.650006 12.2Z" fill="#151515"/>
<path d="M14.45 12.2C14.4 12.2 14.35 12.2 14.3 12.15L10.15 8.89999C10.05 8.84999 10.05 8.69999 10.1 8.59999C10.15 8.49999 10.3 8.49999 10.4 8.54999L14.55 11.8C14.65 11.85 14.65 12 14.6 12.1C14.6 12.2 14.55 12.2 14.45 12.2Z" fill="#151515"/>
</svg>
