<svg width="14" height="14" viewBox="0 0 14 14" fill="none" xmlns="http://www.w3.org/2000/svg">
<path d="M7 14C6.90667 14 6.72 13.9533 6.3 13.5333C4.94667 12.1333 1.77334 7.74667 1.86667 5.13333C1.91334 2.24 4.2 0 7 0C9.84667 0 12.1333 2.33333 12.1333 5.13333C12.1333 6.95333 10.6867 9.42667 9.84667 10.7333C9.28667 11.5733 8.72667 12.3667 8.16667 13.02C7.32667 14 7.09334 14 7 14ZM7 0.466667C4.48 0.466667 2.42667 2.52 2.33334 5.13333C2.28667 6.72 3.64 9.05333 4.43334 10.2667C5.55334 11.9933 6.67334 13.2533 7 13.44C7.7 13.0667 11.6667 8.07333 11.6667 5.13333C11.6667 2.56667 9.56667 0.466667 7 0.466667Z" fill="#151515"/>
<path d="M7.00001 7.65334C8.39177 7.65334 9.52001 6.5251 9.52001 5.13334C9.52001 3.74158 8.39177 2.61334 7.00001 2.61334C5.60825 2.61334 4.48001 3.74158 4.48001 5.13334C4.48001 6.5251 5.60825 7.65334 7.00001 7.65334Z" fill="#00B4D3"/>
</svg>
