<svg width="14" height="15" viewBox="0 0 14 15" fill="none" xmlns="http://www.w3.org/2000/svg">
<path d="M5.38987 4.83555C5.51631 4.72692 5.60665 4.58234 5.64885 4.42107C5.69105 4.25981 5.68311 4.08951 5.62609 3.93287C5.62015 3.92381 5.61703 3.91162 5.61078 3.90163L3.79636 0.520879C3.75573 0.41604 3.69384 0.320747 3.61457 0.241C3.53531 0.161252 3.4404 0.0987786 3.33581 0.057511C3.23474 0.0171351 3.12655 -0.00235155 3.01776 0.00022608C2.90896 0.00280371 2.80181 0.0273923 2.70277 0.0725089C2.69323 0.0753815 2.68409 0.0794772 2.67559 0.0846944C2.59685 0.120939 2.51499 0.163433 2.42563 0.209676L5.05524 5.12301L5.38987 4.83555Z" fill="#00B5D3"/>
<path d="M7.96167 10.5334C7.85638 10.6242 7.72259 10.6751 7.58362 10.6773C7.44465 10.6795 7.3093 10.6329 7.20116 10.5456C6.54346 10.0183 5.93606 9.43122 5.38674 8.79182C4.83904 8.15231 4.35133 7.46378 3.92977 6.73493C3.8604 6.61409 3.83494 6.47298 3.85772 6.33551C3.8805 6.19804 3.95011 6.07268 4.05475 5.98067L4.69997 5.42919L2.02224 0.421814C1.71718 0.587682 1.42365 0.773909 1.14362 0.979231C-0.110567 1.9094 -0.0861954 2.99674 0.0834668 4.43278C0.302582 5.85892 0.793593 7.2297 1.52981 8.47061C1.97514 9.28188 2.50408 10.0444 3.10802 10.7456C3.71085 11.449 4.38404 12.0889 5.11709 12.6553C6.23276 13.57 7.51292 14.263 8.88872 14.6972C9.4354 14.8718 10.0027 14.9736 10.576 15C10.9309 15.0019 11.2823 14.9292 11.6074 14.7868C11.9325 14.6443 12.224 14.4352 12.4632 14.1729C12.7297 13.909 12.9795 13.6288 13.2112 13.334L8.6675 9.92758L7.96167 10.5334Z" fill="#00B5D3"/>
<path d="M13.7264 12.1632C13.7006 12.0542 13.6528 11.9515 13.5862 11.8615C13.5196 11.7714 13.4354 11.6958 13.3387 11.6392L10.2548 9.31204C10.2464 9.30305 10.2355 9.29675 10.2235 9.29392C10.0781 9.21219 9.91109 9.17733 9.74517 9.19411C9.57924 9.21089 9.42254 9.27848 9.29647 9.38765L9.02089 9.62387L13.489 12.9712C13.5283 12.9168 13.5677 12.8621 13.6011 12.815C13.6043 12.8087 13.6102 12.7996 13.6133 12.7937C13.6734 12.7015 13.7144 12.5982 13.7338 12.4899C13.7532 12.3816 13.7507 12.2705 13.7264 12.1632Z" fill="#00B5D3"/>
</svg>
