<svg width="16" height="15" viewBox="0 0 16 15" fill="none" xmlns="http://www.w3.org/2000/svg">
<path d="M5.89412 8.63105C4.5357 7.37337 4.22897 6.11568 4.15978 5.61179C4.14044 5.47247 4.19223 5.33274 4.29989 5.23376L5.39919 4.21644C5.5609 4.06681 5.58959 3.83363 5.46839 3.65416L3.71809 1.13788C3.584 0.939153 3.30866 0.86743 3.08231 0.972266L0.272469 2.19746C0.0894297 2.28091 -0.0182313 2.46096 0.00255072 2.64887C0.149779 3.94382 0.759547 7.1271 4.13843 10.2556C7.51731 13.3842 10.9551 13.9485 12.3545 14.0848C12.5574 14.104 12.7519 14.0044 12.842 13.8349L14.1654 11.2334C14.2782 11.0243 14.2012 10.7701 13.9875 10.6457L11.2697 9.02567C11.0759 8.91333 10.8241 8.93971 10.6623 9.08928L9.56353 10.1071C9.45662 10.2067 9.30571 10.2547 9.15522 10.2368C8.61097 10.1727 7.25254 9.88874 5.89412 8.63105Z" fill="white"/>
<path d="M11.4417 0.0871582C9.40896 0.0871582 7.76099 1.40936 7.76099 3.04053C7.76431 3.63904 7.98466 4.21916 8.38671 4.68784L8.00637 6.44828L9.93604 5.73356C10.4161 5.90615 10.9267 5.99444 11.4417 5.99391C13.4744 5.99391 15.1224 4.67171 15.1224 3.04053C15.1224 1.40936 13.4744 0.0871582 11.4417 0.0871582ZM9.47865 3.4949C9.20761 3.4949 8.98789 3.29147 8.98789 3.04053C8.98789 2.7896 9.20761 2.58617 9.47865 2.58617C9.74969 2.58617 9.96941 2.7896 9.96941 3.04053C9.96941 3.29147 9.74969 3.4949 9.47865 3.4949ZM11.4417 3.4949C11.1707 3.4949 10.9509 3.29147 10.9509 3.04053C10.9509 2.7896 11.1707 2.58617 11.4417 2.58617C11.7127 2.58617 11.9325 2.7896 11.9325 3.04053C11.9325 3.29147 11.7127 3.4949 11.4417 3.4949ZM13.4047 3.4949C13.1337 3.4949 12.914 3.29147 12.914 3.04053C12.914 2.7896 13.1337 2.58617 13.4047 2.58617C13.6758 2.58617 13.8955 2.7896 13.8955 3.04053C13.8955 3.29147 13.6758 3.4949 13.4047 3.4949Z" fill="white"/>
</svg>
