<svg width="14" height="14" viewBox="0 0 14 14" fill="none" xmlns="http://www.w3.org/2000/svg">
<g clip-path="url(#clip0)">
<path d="M8.91333 14C8.26 14 7.60667 13.8134 7.28 13.6734C6.62667 13.3934 4.99333 12.3667 3.54667 10.9667C1.77333 9.24004 0.233334 6.86004 0.0933345 5.97337C-0.0466655 5.04004 0.0466678 4.38671 0.373334 3.73337C0.840001 2.80004 1.63333 1.96004 2.14667 2.05337C2.38 2.10004 3.12667 2.80004 3.73333 3.40671C5.04 4.71337 5.04 4.85337 5.04 4.99337C5.04 5.32004 4.71333 5.64671 4.34 6.02004C4.06 6.30004 3.73333 6.62671 3.68667 6.81337C3.68667 7.00004 4.06 7.70004 5.08667 8.77337C5.97333 9.70671 6.86 10.36 7.18667 10.4067C7.32667 10.4067 7.60667 10.08 7.84 9.84671C8.21333 9.42671 8.58667 9.00671 9.00667 9.00671C9.1 9.00671 9.28667 9.00671 10.5467 10.22C11.0133 10.6867 11.8533 11.48 11.9467 11.8534C12.0867 12.32 10.9667 13.4867 9.8 13.9067C9.52 13.9534 9.24 14 8.91333 14ZM2.00667 2.56671C1.86667 2.56671 1.30667 2.98671 0.793334 3.96671C0.513334 4.48004 0.466668 5.08671 0.560001 5.83337C0.700001 6.53337 2.05333 8.82004 3.87333 10.5934C5.27333 11.9467 6.86 12.9734 7.46667 13.2067C8.07333 13.44 9.00667 13.6267 9.61333 13.3934C10.5933 13.0667 11.34 12.18 11.4333 11.9467C11.2 11.48 9.28667 9.70671 8.91333 9.47337C8.68 9.52004 8.4 9.84671 8.16667 10.1267C7.84 10.5 7.51333 10.8734 7.14 10.8734C6.44 10.8734 5.18 9.61337 4.71334 9.10004C4.10667 8.44671 3.08 7.28004 3.17333 6.72004C3.26667 6.34671 3.59333 6.02004 3.96667 5.64671C4.15333 5.46004 4.48 5.13337 4.52667 4.99337C4.24667 4.62004 2.38 2.75337 2.00667 2.56671Z" fill="#151515"/>
<path d="M8.63332 7.42004C8.58665 7.42004 8.58665 7.42004 8.63332 7.42004C8.30665 7.42004 8.07332 7.14004 8.07332 6.86004C8.07332 6.72004 8.02665 6.34671 7.83999 6.16004C7.65332 5.97337 7.27999 5.92671 7.13999 5.97337C6.85999 6.02004 6.57999 5.78671 6.53332 5.46004C6.48665 5.18004 6.71999 4.90004 7.04665 4.85337C7.13999 4.85337 8.02665 4.76004 8.63332 5.36671C9.19332 5.97337 9.19332 6.81337 9.19332 6.90671C9.14666 7.18671 8.91332 7.42004 8.63332 7.42004Z" fill="#00B4D3"/>
<path d="M11.0133 7.51335C10.7333 7.51335 10.5 7.28002 10.4533 7.00002C10.4533 7.00002 10.3133 5.41335 9.38001 4.48002C8.40001 3.50002 6.95334 3.54669 6.95334 3.54669C6.67334 3.54669 6.39334 3.31335 6.39334 3.03335C6.39334 2.75335 6.62667 2.47335 6.90667 2.47335C7.00001 2.47335 8.82001 2.42669 10.1267 3.73335C11.3867 4.94669 11.5267 6.86002 11.5267 6.95335C11.5733 7.23335 11.34 7.46669 11.0133 7.51335Z" fill="#00B4D3"/>
<path d="M13.44 7.70002C13.16 7.70002 12.88 7.46669 12.88 7.14002C12.88 7.09336 12.8333 4.62002 11.0133 2.80002C9.24 0.980024 6.81333 1.07336 6.76666 1.07336C6.48666 1.07336 6.20667 0.840024 6.20667 0.560024C6.20667 0.280024 6.44 2.42087e-05 6.72 2.42087e-05C6.86 2.42087e-05 9.70666 -0.139976 11.8067 2.05336C13.9533 4.20002 14 7.00002 14 7.14002C14 7.42002 13.7667 7.70002 13.44 7.70002Z" fill="#00B4D3"/>
</g>
<defs>
<clipPath id="clip0">
<rect width="14" height="14" fill="white"/>
</clipPath>
</defs>
</svg>
