<?xml version="1.0" encoding="utf-8"?>
<!-- Generator: Adobe Illustrator 24.3.0, SVG Export Plug-In . SVG Version: 6.00 Build 0)  -->
<svg version="1.1" id="Слой_1" xmlns="http://www.w3.org/2000/svg" xmlns:xlink="http://www.w3.org/1999/xlink" x="0px" y="0px"
	 viewBox="0 0 1028 114" style="enable-background:new 0 0 1028 114;" xml:space="preserve">
<style type="text/css">
	.st0{fill:#00B1CF;}
	.st1{fill:#1A2021;}
</style>
<g>
	<g>
		<path class="st0" d="M38.27,49.08l26.31-26.31c3.17-3.17,3.17-8.32,0-11.49L54.01,0.71L3.19,51.53
			C-1.93,56.65,1.69,65.4,8.93,65.4h45.66L38.27,49.08z"/>
		<path class="st0" d="M99.09,49.23H53.43l16.32,16.32L43.44,91.86c-3.17,3.17-3.17,8.32,0,11.49l10.57,10.57l50.82-50.82
			C109.95,57.98,106.33,49.23,99.09,49.23z"/>
	</g>
	<g>
		<path class="st1" d="M238.67,71.31c0-11.6-9.4-21-21-21c0,0,0,0,0,0h-42.82c-2.9,0-5.25-2.35-5.25-5.25c0-2.9,2.35-5.25,5.25-5.25
			h54.89v-17.5c0,0-60.14,0-60.14,0c-11.6,0-21,9.4-21,21s9.4,21,21,21h42.82c2.9,0,5.25,2.35,5.25,5.25c0,2.9-2.35,5.25-5.25,5.25
			h-60.03v17.5h65.28C229.27,92.31,238.67,82.91,238.67,71.31z"/>
		<polygon class="st1" points="329.89,22.31 241.6,22.31 241.6,39.81 275.25,39.81 275.25,92.31 296.25,92.31 296.25,39.81 
			329.89,39.81 		"/>
		<polygon class="st1" points="514.87,22.31 495.13,68.25 475.4,22.31 446.16,22.31 446.16,92.31 467.16,92.31 467.16,45.64 
			485.7,92.31 504.57,92.31 523.11,45.63 523.11,92.31 544.11,92.31 544.11,22.31 		"/>
		<path class="st1" d="M410.84,22.31h-51.12c-11.6,0-21,9.4-21,21v28c0,11.6,9.4,21,21,21h51.12c11.6,0,21-9.4,21-21v-28
			C431.84,31.72,422.44,22.31,410.84,22.31z M410.84,71.31c0,1.93-1.57,3.5-3.5,3.5h-44.12c-1.93,0-3.5-1.57-3.5-3.5v-28
			c0-1.93,1.57-3.5,3.5-3.5h44.12c1.93,0,3.5,1.57,3.5,3.5V71.31z"/>
		<polygon class="st1" points="730.85,22.31 642.55,22.31 642.55,39.81 676.2,39.81 676.2,92.31 697.2,92.31 697.2,39.81 
			730.85,39.81 		"/>
		<path class="st1" d="M811.79,22.31h-51.12c-11.6,0-21,9.4-21,21v28c0,11.6,9.4,21,21,21h51.12c11.6,0,21-9.4,21-21v-28
			C832.79,31.72,823.39,22.31,811.79,22.31z M811.79,71.31c0,1.93-1.57,3.5-3.5,3.5h-44.12c-1.93,0-3.5-1.57-3.5-3.5v-28
			c0-1.93,1.57-3.5,3.5-3.5h44.12c1.93,0,3.5,1.57,3.5,3.5V71.31z"/>
		<path class="st1" d="M630.09,92.31h21.5l-35.22-70H588.3l-35.22,70h21l7.04-14h41.91L630.09,92.31z M588.17,64.31l13.91-27.65
			L616,64.31H588.17z"/>
		<path class="st1" d="M908.07,92.31h23.72l-17.07-20c9.03-4.26,15.25-13.51,15.07-24.2c-0.24-14.41-12.37-25.8-26.78-25.8l-58.04,0
			v17.5h53.83c5.74,0,10.35,4.84,9.98,10.67c-0.34,5.31-5,9.33-10.32,9.33h-42.48c-6.08,0-11,4.92-11,11v21.5h21v-14
			c0-1.93,1.57-3.5,3.5-3.5h23.66L908.07,92.31z"/>
		<path class="st1" d="M984.4,53.14v11.17h23.81v7c0,1.93-1.57,3.5-3.5,3.5h-40.62c-1.93,0-3.5-1.57-3.5-3.5v-28
			c0-1.93,1.57-3.5,3.5-3.5h53.62v-17.5h-57.12c-11.6,0-21,9.4-21,21v28c0,11.6,9.4,21,21,21h45.62c11.6,0,21-9.4,21-21V53.14H984.4
			z"/>
	</g>
</g>
</svg>
