<?xml version="1.0" encoding="utf-8"?>
<!-- Generator: Adobe Illustrator 24.3.0, SVG Export Plug-In . SVG Version: 6.00 Build 0)  -->
<svg version="1.1" id="Слой_1" xmlns="http://www.w3.org/2000/svg" xmlns:xlink="http://www.w3.org/1999/xlink" x="0px" y="0px"
	 viewBox="0 0 30 30" style="enable-background:new 0 0 30 30;" xml:space="preserve">
<style type="text/css">
	.st0{fill:#00B4D3;}
	.st1{fill:#151515;}
	.st2{display:none;}
	.st3{display:inline;fill:#151515;}
</style>
<g id="Слой_2_1_">
	<g>
		<path class="st0" d="M22.4,1.3c-3.8-2.3-7.1,1.7-7.1,1.7s-1.5-1.5-3.4-2.2C10.7,0.4,9.2,0.4,8.1,1C5.6,2.4,4.7,5.3,4.7,6.5
			c-0.1,1.9,1.9,7.7,1.9,7.7h16.8l1.7-5.3C25.3,8.2,26.3,3.6,22.4,1.3z M8.3,7.5c-0.8,0-1.5-0.7-1.5-1.6c0-0.9,0.7-1.6,1.5-1.6
			c0.8,0,1.5,0.7,1.5,1.6C9.8,6.8,9.2,7.5,8.3,7.5z M9.1,3.3c0-0.5,0.3-0.8,0.8-0.8s0.8,0.4,0.8,0.8s-0.3,0.8-0.8,0.8
			S9.1,3.8,9.1,3.3z M10.8,5.2c-0.2,0-0.4-0.2-0.4-0.5c0-0.3,0.2-0.5,0.4-0.5c0.2,0,0.4,0.2,0.4,0.5C11.2,5,11,5.2,10.8,5.2z"/>
		<g>
			<path class="st1" d="M23.7,14.5H6.4l-0.1-0.3c-0.1-0.2-1.9-5.8-1.9-7.8c0-1.8,1.1-4.5,3.7-5.9c1.1-0.6,2.7-0.7,4.1-0.2
				c1.4,0.6,2.6,1.6,3.2,2c3.1-3,5.7-2.5,7.3-1.5c4.3,2.5,3.1,7.5,2.9,8l0,0L23.7,14.5z M7,13.5h16l1.5-4.9c0.1-0.3,0.4-1.5,0.2-2.9
				c-0.2-1.7-1.1-3.1-2.6-3.9c-2-1.2-4.1-0.7-6.3,1.5c-0.2,0.2-0.3,0.3-0.6,0.3c-0.1,0-0.2-0.1-0.4-0.3c-0.5-0.4-1.7-1.5-3.1-2
				C10.7,0.9,9.3,1,8.4,1.4c-2.2,1.2-3.2,3.4-3.2,5C5.3,7.8,6.4,11.7,7,13.5z"/>
		</g>
		<g>
			<path class="st1" d="M14.6,3.3c2,1.7,4.6,2.9,7.3,3.1c0.7,0,0.7-1,0-1c-2.4-0.1-4.7-1.3-6.5-2.8C14.9,2.2,14.1,2.9,14.6,3.3
				L14.6,3.3z"/>
		</g>
		<g class="st2">
			<path class="st3" d="M22.3,16.6H7.8l-1.7-3.1h18L22.3,16.6z M8.5,15.5h13.3l0.6-1H7.9L8.5,15.5z"/>
		</g>
		<g>
			<path class="st1" d="M15.1,30C15.1,30,15.1,30,15.1,30c-1.2-0.1-4.2-3.7-4.4-4c-0.1-0.2-0.2-0.4-0.6-5.2
				c-0.2-2.3-0.5-6.2-0.5-6.3l0.1-1h11l0.1,1c-0.4,3.5-1.3,11.1-1.5,11.4c-0.1,0.4-1.5,1.8-1.8,2.2C16,29.9,15.4,30,15.1,30z
				 M15.2,29L15.2,29L15.2,29z M15.1,29L15.1,29L15.1,29z M11.7,25.5c0.3,0.5,2.8,3.1,3.4,3.4c0.7-0.3,3-2.9,3.3-3.4
				c0.1-0.6,0.7-7.5,1.1-11.1h-8.7C11.1,17.9,11.5,24.9,11.7,25.5z M11.7,25.5L11.7,25.5L11.7,25.5z"/>
		</g>
		<path class="st0" d="M20.5,18.5l-10.5,1.8c-0.5,0.1-0.9-0.2-1-0.7L9,19.3c-0.1-0.5,0.2-0.9,0.7-1l10.5-1.8c0.5-0.1,0.9,0.2,1,0.7
			l0.1,0.4C21.3,18,21,18.5,20.5,18.5z"/>
		<path class="st0" d="M20.7,22.7l-10.5,1.8c-0.5,0.1-0.9-0.2-1-0.7l-0.1-0.4c-0.1-0.5,0.2-0.9,0.7-1l10.5-1.8
			c0.5-0.1,0.9,0.2,1,0.7l0.1,0.4C21.5,22.2,21.1,22.7,20.7,22.7z"/>
		<g class="st2">
			<path class="st3" d="M10.9,21.9c-0.7,0-1.3-0.5-1.4-1.2l-0.1-0.4c-0.1-0.4,0-0.7,0.2-1.1c0.2-0.3,0.5-0.5,0.9-0.6l8.6-1.5
				c0.4-0.1,0.7,0,1.1,0.2c0.3,0.2,0.5,0.5,0.6,0.9l0.1,0.4c0.1,0.8-0.4,1.5-1.1,1.6l0,0l-8.6,1.5C11,21.9,10.9,21.9,10.9,21.9z
				 M19.4,18.2C19.4,18.2,19.4,18.2,19.4,18.2l-8.7,1.5c-0.1,0-0.2,0.1-0.2,0.2s-0.1,0.2-0.1,0.3l0.1,0.4c0,0.2,0.2,0.3,0.4,0.3
				l8.6-1.5l0,0c0.2,0,0.3-0.2,0.3-0.4l-0.1-0.4c0-0.1-0.1-0.2-0.2-0.2C19.6,18.3,19.5,18.2,19.4,18.2z"/>
		</g>
		<g class="st2">
			<path class="st3" d="M10.9,26.4c-0.7,0-1.3-0.5-1.4-1.2l-0.1-0.4c-0.1-0.4,0-0.7,0.2-1.1c0.2-0.3,0.5-0.5,0.9-0.6l8.6-1.5
				c0.8-0.1,1.5,0.4,1.6,1.1l0.1,0.4c0.1,0.8-0.4,1.5-1.1,1.6l0,0l-8.6,1.5C11,26.4,10.9,26.4,10.9,26.4z M19.4,22.7
				C19.4,22.7,19.4,22.7,19.4,22.7l-8.7,1.5c-0.1,0-0.2,0.1-0.2,0.2s-0.1,0.2-0.1,0.3l0.1,0.4c0,0.2,0.2,0.3,0.4,0.3l8.6-1.5l0,0
				c0.2,0,0.3-0.2,0.3-0.4L19.8,23c0-0.1-0.1-0.2-0.2-0.2C19.6,22.8,19.5,22.7,19.4,22.7z"/>
		</g>
	</g>
</g>
</svg>
