<?xml version="1.0" encoding="utf-8"?>
<!-- Generator: Adobe Illustrator 24.3.0, SVG Export Plug-In . SVG Version: 6.00 Build 0)  -->
<svg version="1.1" id="Слой_1" xmlns="http://www.w3.org/2000/svg" xmlns:xlink="http://www.w3.org/1999/xlink" x="0px" y="0px"
	 viewBox="0 0 30 30" style="enable-background:new 0 0 30 30;" xml:space="preserve">
<style type="text/css">
	.st0{display:none;}
	.st1{display:inline;}
	.st2{fill:#00B5D3;}
	.st3{fill:#151515;}
	.st4{fill:#00B4D3;}
	.st5{display:inline;fill:#151515;}
	.st6{display:inline;fill:#00B4D3;}
	.st7{fill:none;}
	.st8{fill:#161616;}
	.st9{display:none;fill:#00B4D3;}
</style>
<g id="Слой_1_1_" class="st0">
	<g id="ЗУб" class="st1">
		<polygon class="st2" points="18.4,19.2 16.9,20.2 15.3,19 15.3,16.8 18.4,16.8 		"/>
		<polygon class="st2" points="22.7,27.5 11.2,27.5 11.6,25.1 13.9,23.9 16.9,25.3 20.1,23.8 22.7,25.1 		"/>
		<g>
			<path class="st3" d="M18.7,36.8c-0.1,0-0.1,0-0.2,0c-0.4-0.1-0.5-0.4-0.8-1.8c-0.2-0.6-0.5-1.7-0.7-2.2c-0.3,0.7-1.1,3.2-1.1,3.4
				c-0.1,0.3-0.2,0.6-0.5,0.6c-0.2,0-0.4,0-1.6-1.3c-0.4-0.5-1.2-1.5-1.9-2.8c-1-1.9-1.6-4.4-1.3-5.8c0.5-2.3,1.9-3.7,3.7-3.7l0,0
				c0.7,0,1.3,0.5,1.9,1c0.3,0.2,0.7,0.5,0.8,0.5c0.1,0,0.4-0.3,0.6-0.5c0.5-0.5,1.1-1,2-1c0,0,0,0,0.1,0c1.4,0,3.2,1.2,3.7,3.4
				c0.2,0.9,0,3.3-0.9,5.4c-0.7,1.6-1.6,2.8-2,3.4C19.4,36.6,18.9,36.8,18.7,36.8z M16.9,31.4c0.7,0,1.1,0.9,1.7,3.3
				c0.1,0.3,0.2,0.6,0.2,0.8c0.6-0.6,1.8-2.1,2.6-4c0.8-1.9,1-4.1,0.9-4.7c-0.4-1.6-1.7-2.6-2.7-2.6c-0.5,0-0.9,0.4-1.3,0.8
				c-0.4,0.4-0.8,0.7-1.3,0.7h0c-0.5,0-1-0.4-1.5-0.8c-0.4-0.3-0.9-0.7-1.3-0.7l0,0c-1.3,0-2.3,1-2.7,2.8c-0.2,1,0.2,3.3,1.2,5.1
				c0.7,1.4,1.7,2.5,2.2,3.1c0-0.1,0-0.1,0-0.2C15.8,32.4,16.2,31.4,16.9,31.4z"/>
		</g>
		<g>
			<path class="st3" d="M16.9,21c-0.2,0-0.3,0-2.2-1.8L14.5,19v-2.8h4.6V19L19,19.1C17.2,21,17.2,21,16.9,21z M15.6,18.6
				c0.5,0.5,1,1,1.3,1.2c0.3-0.3,0.8-0.8,1.2-1.2v-1.4h-2.5L15.6,18.6L15.6,18.6z"/>
		</g>
		<g>
			<path class="st3" d="M18.8,17.4h-3.7l-5.5-5.3h14.7L18.8,17.4z M15.5,16.3h2.9l3.3-3.2h-9.5L15.5,16.3z"/>
		</g>
		<g>
			<path class="st3" d="M31,12.2h-7.6c-0.5,0-0.8-0.4-0.8-0.8V8.7c0-0.5,0.4-0.8,0.8-0.8H31c0.5,0,0.8,0.4,0.8,0.8v2.7
				C31.8,11.8,31.4,12.2,31,12.2z M23.6,11.1h7.1V8.9h-7.1L23.6,11.1L23.6,11.1z"/>
		</g>
		<g>
			<path class="st3" d="M10.3,12.2H2.7c-0.5,0-0.8-0.4-0.8-0.8V8.7c0-0.5,0.4-0.8,0.8-0.8h7.6c0.5,0,0.8,0.4,0.8,0.8v2.7
				C11.2,11.8,10.8,12.2,10.3,12.2z M3,11.1h7.1V8.9H3V11.1z"/>
		</g>
		<g>
			<path class="st3" d="M22.7,13.1H11.1c-0.5,0-0.9-0.4-0.9-0.9V7.7c0-0.5,0.4-0.9,0.9-0.9h11.6c0.5,0,0.9,0.4,0.9,0.9v4.5
				C23.6,12.7,23.2,13.1,22.7,13.1z M11.3,12.1h11.3V7.9H11.3V12.1z"/>
		</g>
		<g>
			<path class="st3" d="M17,28.4c-3.8,0-6.1-0.8-6.2-0.8l0.3-1c0,0,2.2,0.7,5.8,0.7c3.7,0,5.8-0.7,5.8-0.7l0.3,1
				C23.1,27.6,20.8,28.4,17,28.4z"/>
		</g>
	</g>
</g>
<g id="Слой_2_1_" class="st0">
	<g class="st1">
		<path class="st4" d="M24.9,8.2c-3.8-2.2-7.1,1.7-7.1,1.7s-1.5-1.5-3.4-2.2c-1.1-0.5-2.7-0.5-3.7,0.1c-2.5,1.4-3.4,4.3-3.5,5.5
			C7.2,15.3,9.2,21,9.2,21H26l1.7-5.3C27.8,15,28.9,10.5,24.9,8.2z M10.9,14.3c-0.8,0-1.5-0.7-1.5-1.6c0-0.9,0.7-1.6,1.5-1.6
			c0.8,0,1.5,0.7,1.5,1.6C12.4,13.6,11.8,14.3,10.9,14.3z M11.7,10.2c0-0.5,0.3-0.8,0.8-0.8s0.8,0.4,0.8,0.8c0,0.5-0.3,0.8-0.8,0.8
			C12,11,11.7,10.7,11.7,10.2z M13.4,12c-0.2,0-0.4-0.2-0.4-0.5s0.2-0.5,0.4-0.5s0.4,0.2,0.4,0.5S13.6,12,13.4,12z"/>
		<g>
			<path class="st3" d="M26.2,21.4H8.9L8.8,21c-0.1-0.2-1.9-5.8-1.9-7.8c0-1.8,1.1-4.5,3.7-5.9c1.1-0.6,2.7-0.7,4.1-0.2
				c1.4,0.6,2.6,1.6,3.2,2c3.1-3,5.6-2.5,7.3-1.5c4.3,2.5,3.1,7.5,2.9,8l0,0L26.2,21.4z M9.6,20.3h15.9l1.5-4.9
				c0.1-0.3,0.4-1.5,0.2-2.9c-0.2-1.7-1.1-3-2.6-3.9c-2-1.2-4.1-0.7-6.3,1.5c-0.2,0.2-0.3,0.3-0.6,0.3c-0.1,0-0.2-0.1-0.4-0.3
				c-0.5-0.4-1.7-1.4-3-2c-1.1-0.4-2.4-0.4-3.3,0.1c-2.2,1.2-3.2,3.4-3.2,5C7.9,14.6,9,18.5,9.6,20.3z"/>
		</g>
		<g>
			<path class="st3" d="M17.2,10.2c2,1.7,4.6,2.9,7.2,3.1c0.7,0,0.7-1,0-1c-2.4-0.1-4.7-1.3-6.5-2.8C17.5,9,16.7,9.7,17.2,10.2
				L17.2,10.2z"/>
		</g>
		<g class="st0">
			<path class="st5" d="M24.9,23.4H10.4l-1.7-3.1h17.9L24.9,23.4z M11.1,22.4h13.3l0.6-1H10.5L11.1,22.4z"/>
		</g>
		<g>
			<path class="st3" d="M17.7,36.8C17.7,36.8,17.7,36.8,17.7,36.8c-1.2-0.1-4.2-3.7-4.4-4c-0.1-0.2-0.2-0.4-0.6-5.2
				c-0.2-2.3-0.5-6.2-0.5-6.3l0.1-1h11l0.1,1C23,24.9,22.1,32.4,22,32.8c-0.1,0.4-1.4,1.8-1.8,2.2C18.5,36.7,18,36.8,17.7,36.8z
				 M17.7,35.8L17.7,35.8L17.7,35.8z M17.7,35.8L17.7,35.8L17.7,35.8z M14.3,32.3c0.3,0.5,2.8,3.1,3.4,3.4c0.7-0.3,3-2.9,3.3-3.4
				c0.1-0.6,0.7-7.5,1.1-11.1h-8.7C13.7,24.7,14.1,31.7,14.3,32.3z M14.3,32.4L14.3,32.4L14.3,32.4z"/>
		</g>
		<path class="st4" d="M23.1,25.4l-10.4,1.8c-0.5,0.1-0.9-0.2-1-0.7l-0.1-0.4c-0.1-0.5,0.2-0.9,0.7-1l10.4-1.8
			c0.5-0.1,0.9,0.2,1,0.7l0.1,0.4C23.9,24.8,23.6,25.3,23.1,25.4z"/>
		<path class="st4" d="M23.2,29.6l-10.4,1.8c-0.5,0.1-0.9-0.2-1-0.7l-0.1-0.4c-0.1-0.5,0.2-0.9,0.7-1l10.4-1.8
			c0.5-0.1,0.9,0.2,1,0.7l0.1,0.4C24,29,23.7,29.5,23.2,29.6z"/>
		<g class="st0">
			<path class="st5" d="M13.4,28.7c-0.7,0-1.3-0.5-1.4-1.2L12,27.2c-0.1-0.4,0-0.7,0.2-1.1c0.2-0.3,0.5-0.5,0.9-0.6l8.6-1.5
				c0.4-0.1,0.7,0,1.1,0.2c0.3,0.2,0.5,0.5,0.6,0.9l0.1,0.4c0.1,0.8-0.4,1.5-1.1,1.6l0,0l-8.6,1.5C13.6,28.7,13.5,28.7,13.4,28.7z
				 M22,25.1C22,25.1,22,25.1,22,25.1l-8.7,1.5c-0.1,0-0.2,0.1-0.2,0.2C13,26.8,13,26.9,13,27l0.1,0.4c0,0.2,0.2,0.3,0.4,0.3
				l8.6-1.5l0,0c0.2,0,0.3-0.2,0.3-0.4l-0.1-0.4c0-0.1-0.1-0.2-0.2-0.2C22.2,25.1,22.1,25.1,22,25.1z"/>
		</g>
		<g class="st0">
			<path class="st5" d="M13.4,33.2c-0.7,0-1.3-0.5-1.4-1.2L12,31.7c-0.1-0.4,0-0.7,0.2-1.1c0.2-0.3,0.5-0.5,0.9-0.6l8.6-1.5
				c0.8-0.1,1.5,0.4,1.6,1.1l0.1,0.4c0.1,0.8-0.4,1.5-1.1,1.6l0,0l-8.6,1.5C13.6,33.2,13.5,33.2,13.4,33.2z M22,29.6
				C22,29.6,22,29.6,22,29.6l-8.7,1.5c-0.1,0-0.2,0.1-0.2,0.2C13,31.3,13,31.4,13,31.5l0.1,0.4c0,0.2,0.2,0.3,0.4,0.3l8.6-1.5l0,0
				c0.2,0,0.3-0.2,0.3-0.4l-0.1-0.4c0-0.1-0.1-0.2-0.2-0.2C22.2,29.6,22.1,29.6,22,29.6z"/>
		</g>
	</g>
</g>
<g id="Слой_3" class="st0">
	<g class="st1">
		<path class="st3" d="M33.9,36.8h-34l0.8-7.2h32.4L33.9,36.8z M1.1,35.8h31.6l-0.6-5.1H1.6L1.1,35.8z"/>
	</g>
	<g class="st1">
		<path class="st3" d="M30.8,30.7H3.1V12.3c0-3,2.4-5.4,5.4-5.4h17c3,0,5.4,2.4,5.4,5.4V30.7z M4.1,29.6h25.6V12.3
			c0-2.4-1.9-4.3-4.3-4.3h-17c-2.4,0-4.3,1.9-4.3,4.3V29.6z"/>
	</g>
	<path class="st6" d="M21.4,12.2h-9c-3.3,0-6,2.7-6,6v11.5h21V18.2C27.4,14.9,24.7,12.2,21.4,12.2z M12.2,14.1
		c0.6,0,1.1,0.5,1.1,1.1c0,0.6-0.5,1.1-1.1,1.1s-1.1-0.5-1.1-1.1C11.1,14.5,11.6,14.1,12.2,14.1z M10.4,19.9c-1,0-1.9-0.8-1.9-1.9
		c0-1,0.8-1.9,1.9-1.9c1,0,1.9,0.8,1.9,1.9C12.2,19.1,11.4,19.9,10.4,19.9z M13.5,17.6c-0.4,0-0.7-0.3-0.7-0.7
		c0-0.4,0.3-0.7,0.7-0.7c0.4,0,0.7,0.3,0.7,0.7C14.2,17.3,13.9,17.6,13.5,17.6z"/>
	<g class="st1">
		<line class="st7" x1="0.9" y1="32.3" x2="32.9" y2="32.3"/>
		<rect x="0.9" y="31.8" class="st3" width="31.9" height="1"/>
	</g>
</g>
<g id="Слой_4">
	<path class="st8" d="M23.5,12h-1c-0.8,0-1.5,0.6-1.5,1.5v1c0,0.3,0.2,0.5,0.5,0.5h1v1.8c0,0.8-0.5,1.3-1.3,1.5h0
		c0.2-0.3,0.3-0.8,0.3-1.1c0-1.4-1.1-2.5-2.5-2.5c0,0-0.2,0-0.2,0c-0.8,0-1.6,0.1-2.3,0.2v-2.3h1.8c1.4,0,2.5-1.1,2.5-2.5
		c0,0,0-0.2,0-0.2l-0.5-5.7C20.1,1.8,18.2,0,15.8,0h-1.6c-2.4,0-4.3,1.8-4.5,4.1L9.2,9.8c-0.1,1.4,0.9,2.6,2.3,2.7c0,0,0.2,0,0.2,0
		h1.9v2.3c-0.8,0-1.6,0-2.3-0.2c-1.4-0.1-2.6,0.9-2.7,2.3c0,0,0,0.2,0,0.2c0,0.4,0.1,0.8,0.3,1.1h0c-0.8-0.2-1.3-0.8-1.3-1.5V15h1
		C8.8,15,9,14.8,9,14.5v-1C9,12.7,8.4,12,7.5,12h-1C5.7,12,5,12.7,5,13.5v1C5,14.8,5.2,15,5.5,15h1v1.8c0,1.2,0.9,2.2,2.1,2.5
		c0,0,0.6,0.1,1.1,0.2c0.5,0.1,1.1,0.1,1.1,0.1c0.9,0.1,1.8,0.1,2.7,0.2v3.1c-0.3,0.3-0.5,0.7-0.5,1.1V25l-3.2,0.3
		c-0.8,0.1-1.3,0.8-1.3,1.5v0.2c-0.8,0.3-1.2,1.1-0.9,1.9c0.3,0.8,1.1,1.2,1.9,0.9c0.8-0.3,1.2-1.1,0.9-1.9
		c-0.2-0.5-0.5-0.8-0.9-0.9v-0.2c0-0.3,0.2-0.5,0.5-0.5l3-0.3c0,0.3,0.3,0.5,0.5,0.5h3c0.3,0,0.5-0.2,0.5-0.5l3,0.3
		c0.3,0,0.5,0.3,0.5,0.5v0.2c-0.8,0.3-1.2,1.1-0.9,1.9c0.3,0.8,1.1,1.2,1.9,0.9c0.8-0.3,1.2-1.1,0.9-1.9c-0.2-0.5-0.5-0.8-0.9-0.9
		v-0.2c0-0.8-0.5-1.4-1.3-1.5L17,25.1V24c0-0.4-0.2-0.8-0.5-1.1v-3.1c0.9,0,1.8,0,2.7-0.2c0,0,0.3,0,0.3,0c0.5-0.1,1.8-0.3,1.8-0.3
		c1.2-0.2,2.1-1.3,2.1-2.5V15h1c0.3,0,0.5-0.2,0.5-0.5v-1C25,12.7,24.3,12,23.5,12z M6,13.5C6,13.2,6.2,13,6.5,13h1
		C7.8,13,8,13.2,8,13.5V14H6V13.5z M9,29c-0.3,0-0.5-0.2-0.5-0.5C8.5,28.2,8.7,28,9,28c0.3,0,0.5,0.2,0.5,0.5C9.5,28.8,9.3,29,9,29z
		 M21,29c-0.3,0-0.5-0.2-0.5-0.5c0-0.3,0.2-0.5,0.5-0.5c0.3,0,0.5,0.2,0.5,0.5C21.5,28.8,21.3,29,21,29z M10.5,11
		c-0.3-0.3-0.5-0.8-0.4-1.1l0.5-5.7C10.8,2.4,12.3,1,14.2,1h1.6c1.8,0,3.4,1.4,3.5,3.2l0.5,5.7c0,0.8-0.5,1.6-1.3,1.6
		c0,0-0.1,0-0.2,0h-6.6C11.3,11.5,10.8,11.3,10.5,11z M14.5,12.5h1v2.4h-1V12.5z M10,16c0.3-0.3,0.6-0.4,1-0.4h0.2
		c1,0.1,1.9,0.1,2.8,0.2h0h0c0.6,0,1.3,0,1.9,0h0h0c1,0,1.9,0,2.8-0.2c0.8,0,1.6,0.5,1.6,1.4c0,0,0,0.1,0,0.1c0,0.8-0.6,1.4-1.3,1.5
		c-2.7,0.2-5.5,0.2-8.2,0c-0.8,0-1.4-0.8-1.3-1.6C9.6,16.7,9.7,16.3,10,16z M16,25.5h-2V24c0-0.3,0.2-0.5,0.5-0.5h1
		c0.3,0,0.5,0.2,0.5,0.5V25.5z M15.5,22.5h-1v-2.7H15h0.5C15.5,19.8,15.5,22.5,15.5,22.5z M24,14h-2v-0.5c0-0.3,0.2-0.5,0.5-0.5h1
		c0.3,0,0.5,0.2,0.5,0.5L24,14L24,14z"/>
	<g>
		<path class="st4" d="M21.2,18.3c0.2-0.3,0.3-0.6,0.3-1v-0.2c0-1.4-1.1-2.4-2.5-2.4c0,0-0.2,0-0.2,0c-0.8,0-1.6,0.1-2.3,0.2l-1,0
			h-1l-1,0c-0.8,0-1.6,0-2.3-0.2c-1.4-0.1-2.6,0.9-2.7,2.3c0,0,0,0.2,0,0.2c0,0.4,0.1,0.8,0.3,1.1c0,0,0.2,0.3,0.6,0.6
			c0.6,0.5,1.4,0.7,1.4,0.7c0.9,0.1,1.8,0.1,2.7,0.2l1.1,0H15h0.5h1c0.9,0,1.8,0,2.7-0.2c0,0,0.9-0.3,1.4-0.6
			C21,18.7,21.2,18.3,21.2,18.3z"/>
	</g>
	<ellipse class="st9" cx="8.9" cy="28.5" rx="1.5" ry="1.5"/>
</g>
</svg>
