<?xml version="1.0" encoding="utf-8"?>
<!-- Generator: Adobe Illustrator 24.3.0, SVG Export Plug-In . SVG Version: 6.00 Build 0)  -->
<svg version="1.1" id="Слой_1" xmlns="http://www.w3.org/2000/svg" xmlns:xlink="http://www.w3.org/1999/xlink" x="0px" y="0px"
	 viewBox="0 0 30 30" style="enable-background:new 0 0 30 30;" xml:space="preserve">
<style type="text/css">
	.st0{display:none;}
	.st1{display:inline;}
	.st2{fill:#00B4D3;}
	.st3{fill:#151515;}
	.st4{display:inline;fill:#151515;}
	.st5{display:inline;fill:#00B4D3;}
</style>
<g id="Слой_2_1_" class="st0">
	<g class="st1">
		<path class="st2" d="M78-101c-32.8-19.4-61.6,15-61.6,15S3.2-99-12.5-105.1c-9.8-3.9-22.9-3.9-32.1,1.2
			c-21.5,12-29.3,37-29.8,47.4C-75.2-39.9-57.8,9.7-57.8,9.7H87.1l14.3-46C103-42,112-81,78-101z M-42.7-47.9
			c-7.1,0-12.9-6.2-12.9-14c0-7.7,5.8-14,12.9-14s12.9,6.2,12.9,14C-29.8-54.2-35.5-47.9-42.7-47.9z M-36.5-83.6c0-4,3-7.3,6.7-7.3
			s6.7,3.3,6.7,7.3s-3,7.3-6.7,7.3S-36.5-79.6-36.5-83.6z M-21.8-67.6c-2.1,0-3.8-1.8-3.8-4.1c0-2.3,1.7-4.1,3.8-4.1S-18-74-18-71.7
			C-18-69.4-19.7-67.6-21.8-67.6z"/>
		<g>
			<path class="st3" d="M89.3,12.7H-59.9l-1-3c-0.7-2-16.6-49.9-16.7-66.9c0-15.9,9.9-38.6,31.9-50.8c9.6-5.3,23.6-5.9,35-1.5
				c12.2,4.8,22.6,13.4,27.5,17.6c26.6-25.6,48.7-21.4,62.6-13.2c36.8,21.7,26.4,64.3,25.1,69.1l-0.1,0.2L89.3,12.7z M-54.1,3.7
				H83.4l13.2-42.3c0.6-2.2,3.1-12.6,1.5-24.6C96-78.1,88.4-89.5,75.5-97.1c-17-10-35.2-5.7-54.1,12.9c-1.8,1.8-3,2.9-5,2.6
				c-1.2-0.2-1.8-0.7-3.6-2.2C8.9-87.2-1.5-96.3-13.5-101c-9.2-3.6-20.9-3.2-28.5,1c-18.8,10.5-27.4,29.6-27.3,42.8
				C-69.3-45.2-59.1-11.6-54.1,3.7z"/>
		</g>
		<g>
			<path class="st3" d="M11.6-83.8c17.5,14.5,39.6,25.3,62.5,26.5c5.8,0.3,5.8-8.7,0-9C53.7-67.4,33.5-77.2,18-90.1
				C13.6-93.9,7.2-87.6,11.6-83.8L11.6-83.8z"/>
		</g>
		<g class="st0">
			<path class="st4" d="M77.9,30.3H-47L-62,3.6H92.8L77.9,30.3z M-41.7,21.3H72.6l4.9-8.7h-124L-41.7,21.3z"/>
		</g>
		<g>
			<path class="st3" d="M15.8,146.1c-0.3,0-0.5,0-0.7,0c-9.6-0.6-35.7-31.9-37.1-34.4c-0.8-1.4-1.9-3.3-5.3-45.2
				c-1.6-20.2-4-53.7-4-53.9l0.6-9h94.6l1.1,9C61.4,43,53.5,108.1,52.5,111c-1.2,3.4-12.5,15.7-15.4,18.8
				C22.9,144.9,18.2,146.1,15.8,146.1z M16,137.2L16,137.2L16,137.2z M15.2,137.2L15.2,137.2L15.2,137.2z M-14,107.5
				c3,4.5,23.8,27,29.6,29.5c5.7-2.4,25.6-24.6,28.4-29.1c1-5.3,6.2-64.9,9.8-95.3H-21C-18.9,41.7-15.5,102-14,107.5z M-13.9,107.7
				L-13.9,107.7L-13.9,107.7z"/>
		</g>
		<path class="st2" d="M62.1,47.4L-28,63.3c-4.1,0.7-8.1-2-8.8-6.2l-0.5-3.1c-0.7-4.1,2-8.1,6.2-8.8L59,29.3c4.1-0.7,8.1,2,8.8,6.2
			l0.5,3.1C69,42.8,66.3,46.7,62.1,47.4z"/>
		<path class="st2" d="M63.4,83.5l-90.1,15.9c-4.1,0.7-8.1-2-8.8-6.2l-0.5-3.1c-0.7-4.1,2-8.1,6.2-8.8l90.1-15.9
			c4.1-0.7,8.1,2,8.8,6.2l0.5,3.1C70.3,78.8,67.6,82.8,63.4,83.5z"/>
		<g class="st0">
			<path class="st4" d="M-21.1,76.2c-5.8,0-10.9-4.1-11.9-10l-0.5-3.1c-0.6-3.2,0.2-6.4,2-9.1c1.9-2.7,4.6-4.4,7.8-5l74.4-13.1
				c3.2-0.6,6.4,0.2,9.1,2c2.7,1.9,4.4,4.6,5,7.8l0.5,3.1c1.2,6.6-3.2,12.9-9.8,14l0,0l-74.4,13.1C-19.7,76.1-20.4,76.2-21.1,76.2z
				 M52.8,44.7c-0.2,0-0.4,0-0.5,0l-74.4,13.1c-0.8,0.1-1.5,0.6-2,1.3s-0.7,1.5-0.5,2.3l0.5,3.1c0.3,1.7,1.9,2.8,3.6,2.5l74.4-13.1
				l0,0c1.7-0.3,2.8-1.9,2.5-3.6l-0.5-3.1c-0.1-0.8-0.6-1.5-1.3-2C54.1,44.9,53.5,44.7,52.8,44.7z"/>
		</g>
		<g class="st0">
			<path class="st4" d="M-21.1,114.9c-5.8,0-10.9-4.1-11.9-10l-0.5-3.1c-0.6-3.2,0.2-6.4,2-9.1c1.9-2.7,4.6-4.4,7.8-5l74.4-13.1
				c6.6-1.2,12.9,3.2,14,9.8l0.5,3.1c1.2,6.6-3.2,12.9-9.8,14l0,0L-19,114.6C-19.7,114.9-20.4,114.9-21.1,114.9z M52.8,83.5
				c-0.2,0-0.4,0-0.5,0l-74.4,13.1c-0.8,0.1-1.5,0.6-2,1.3s-0.7,1.5-0.5,2.3l0.5,3.1c0.3,1.7,1.9,2.8,3.6,2.5l74.4-13.1l0,0
				c1.7-0.3,2.8-1.9,2.5-3.6L55.9,86c-0.1-0.8-0.6-1.5-1.3-2C54.1,83.7,53.5,83.5,52.8,83.5z"/>
		</g>
	</g>
</g>
<g id="Шприц" class="st0">
	<g class="st1">
		<path class="st3" d="M121.5-45c-1.8,0-3.6-0.7-4.9-2L73.5-90.1c-2.7-2.7-2.7-7.2,0-9.9l9.4-9.4c2.7-2.7,7.2-2.7,9.9,0l43.1,43.1
			c1.3,1.3,2,3.1,2,4.9c0,1.9-0.7,3.6-2,4.9l-9.4,9.4C125.1-45.7,123.3-45,121.5-45z M81.3-95l40.2,40.2l6.5-6.5l-40.2-40.2L81.3-95
			z"/>
	</g>
	<g class="st1">
		<path class="st3" d="M83.4,10.3c-1.8,0-3.6-0.7-5-2.1L18.2-52c-2.7-2.8-2.7-7.2,0-10l9.3-9.3c1.3-1.3,3.1-2.1,5-2.1
			c1.9,0,3.7,0.7,5,2.1l60.2,60.2c1.3,1.3,2.1,3.1,2.1,5s-0.7,3.7-2.1,5l-9.3,9.3C87,9.6,85.2,10.3,83.4,10.3z M25.9-57L83.4,0.5
			l6.5-6.6L32.5-63.5L25.9-57z"/>
	</g>
	<g class="st1">
		<path class="st3" d="M-49.4,108.6c-1.9,0-3.7-0.7-5.1-2.1l-25.9-26c-1.4-1.3-2.1-3.1-2.1-5.1c0-1.9,0.7-3.7,2.1-5.1l8.3-8.3
			c1.3-1.4,3.1-2.1,5.1-2.1c1.9,0,3.7,0.7,5.1,2.1L-36,87.9c1.4,1.3,2.1,3.1,2.1,5.1c0,1.9-0.7,3.7-2.1,5.1l0,0l-8.4,8.4
			C-45.7,107.8-47.5,108.6-49.4,108.6z M-72.7,75.5l23.3,23.3l5.7-5.7L-67,69.8L-72.7,75.5z"/>
	</g>
	<g class="st1">
		<path class="st3" d="M-27.2,102.1c-3.5,0-6.8-1.4-9.3-3.8l-35.3-35.1c-2.5-2.5-3.9-5.8-3.9-9.3s1.4-6.9,3.8-9.4L18-46
			c5.1-5.2,13.5-5.2,18.7-0.1L72-11c2.5,2.5,3.9,5.8,3.9,9.3s-1.4,6.9-3.8,9.4l-89.9,90.5C-20.3,100.7-23.7,102.1-27.2,102.1
			L-27.2,102.1z M27.3-41c-1.1,0-2.2,0.4-3,1.2l-89.9,90.5c-0.8,0.8-1.2,1.9-1.2,3s0.4,2.2,1.2,3l35.3,35.1c0.8,0.8,1.9,1.3,3,1.2
			c1.1,0,2.2-0.4,3-1.2L65.6,1.3c0.8-0.8,1.2-1.9,1.2-3s-0.4-2.2-1.2-3L30.3-39.8C29.5-40.6,28.4-41,27.3-41z"/>
	</g>
	<g class="st1">
		<path class="st3" d="M-76,117.6c-1.9,0-3.8-0.8-5.2-2.1l0,0l0,0l-8-8c-1.4-1.4-2.1-3.2-2.1-5.2c0-1.9,0.8-3.8,2.1-5.2l13.9-13.9
			c1.4-1.4,3.2-2.1,5.2-2.1s3.8,0.8,5.2,2.1l8,8c1.4,1.4,2.1,3.2,2.1,5.2c0,1.9-0.8,3.8-2.1,5.2l-13.9,13.9
			C-72.2,116.8-74.1,117.6-76,117.6z M-81.6,102.3l5.6,5.6l11.5-11.5l-5.6-5.6L-81.6,102.3z"/>
	</g>
	<g class="st1">
		<path class="st3" d="M-111.5,143.8c10.9-10.8,21.8-21.6,32.7-32.3c4.1-4.1-2.2-10.4-6.4-6.4c-10.8,10.8-21.7,21.6-32.7,32.4
			C-122,141.5-115.6,147.9-111.5,143.8L-111.5,143.8z"/>
	</g>
	<polygon class="st5" points="-5.9,4.7 -53.7,52.6 -26.3,79.9 43.1,10.5 	"/>
	<g class="st1">
		<path class="st3" d="M-29,83.6l-28.1-28.1L-4.8,3.2l56,0.2L-29,83.6z M-44.4,55.5L-29,70.9l58.6-58.6l-30.7-0.1L-44.4,55.5z"/>
	</g>
	<g class="st1">
		<path class="st3" d="M73.5-22.4L48.8-47.1l39.8-39.7l24.7,24.7L73.5-22.4z M61.5-47.1l11.9,11.9l27.1-27.1L88.6-74.1L61.5-47.1z"
			/>
	</g>
</g>
<g id="Слой_3">
	<g>
		<path class="st3" d="M28.1,7.8c-0.2,0-0.4-0.1-0.6-0.2l-5-5c-0.3-0.3-0.3-0.8,0-1.2l1.1-1.1c0.3-0.3,0.8-0.3,1.2,0l5,5
			C29.9,5.5,30,5.7,30,5.9c0,0.2-0.1,0.4-0.2,0.6l-1.1,1.1C28.5,7.7,28.3,7.8,28.1,7.8z M23.4,1.9l4.7,4.7l0.8-0.8l-4.7-4.7
			L23.4,1.9z"/>
	</g>
	<g>
		<path class="st3" d="M23.6,14.2c-0.2,0-0.4-0.1-0.6-0.2l-7-7c-0.3-0.3-0.3-0.8,0-1.2l1.1-1.1c0.2-0.2,0.4-0.2,0.6-0.2
			c0.2,0,0.4,0.1,0.6,0.2l7,7c0.2,0.2,0.2,0.4,0.2,0.6c0,0.2-0.1,0.4-0.2,0.6L24.2,14C24.1,14.2,23.9,14.2,23.6,14.2z M16.9,6.4
			l6.7,6.7l0.8-0.8l-6.7-6.7L16.9,6.4z"/>
	</g>
	<g>
		<path class="st3" d="M8.1,25.7c-0.2,0-0.4-0.1-0.6-0.2l-3-3c-0.2-0.2-0.2-0.4-0.2-0.6c0-0.2,0.1-0.4,0.2-0.6l1-1
			C5.6,20.1,5.9,20,6.1,20c0.2,0,0.4,0.1,0.6,0.2l3,3c0.2,0.2,0.2,0.4,0.2,0.6c0,0.2-0.1,0.4-0.2,0.6l0,0l-1,1
			C8.6,25.6,8.4,25.7,8.1,25.7z M5.4,21.8l2.7,2.7l0.7-0.7l-2.7-2.7L5.4,21.8z"/>
	</g>
	<g>
		<path class="st3" d="M10.7,24.9c-0.4,0-0.8-0.2-1.1-0.4l-4.1-4.1c-0.3-0.3-0.5-0.7-0.5-1.1c0-0.4,0.2-0.8,0.4-1.1L16,7.7
			c0.6-0.6,1.6-0.6,2.2,0l4.1,4.1c0.3,0.3,0.5,0.7,0.5,1.1s-0.2,0.8-0.4,1.1L11.8,24.5C11.5,24.8,11.1,24.9,10.7,24.9L10.7,24.9z
			 M17.1,8.3c-0.1,0-0.3,0-0.4,0.1L6.3,18.9c-0.1,0.1-0.1,0.2-0.1,0.4c0,0.1,0,0.3,0.1,0.4l4.1,4.1c0.1,0.1,0.2,0.2,0.4,0.1
			c0.1,0,0.3,0,0.4-0.1l10.5-10.6c0.1-0.1,0.1-0.2,0.1-0.4c0-0.1,0-0.3-0.1-0.4l-4.1-4.1C17.4,8.3,17.2,8.3,17.1,8.3z"/>
	</g>
	<g>
		<path class="st3" d="M5,26.8c-0.2,0-0.4-0.1-0.6-0.2l0,0l0,0l-0.9-0.9c-0.2-0.2-0.2-0.4-0.2-0.6c0-0.2,0.1-0.4,0.2-0.6l1.6-1.6
			c0.2-0.2,0.4-0.2,0.6-0.2c0.2,0,0.4,0.1,0.6,0.2l0.9,0.9c0.2,0.2,0.2,0.4,0.2,0.6c0,0.2-0.1,0.4-0.2,0.6l-1.6,1.6
			C5.5,26.7,5.3,26.8,5,26.8z M4.4,25L5,25.6l1.3-1.3l-0.7-0.7L4.4,25z"/>
	</g>
	<g>
		<path class="st3" d="M0.9,29.8c1.3-1.3,2.5-2.5,3.8-3.8c0.5-0.5-0.3-1.2-0.7-0.7c-1.3,1.3-2.5,2.5-3.8,3.8
			C-0.3,29.5,0.4,30.3,0.9,29.8L0.9,29.8z"/>
	</g>
	<polygon class="st2" points="13.2,13.6 7.6,19.2 10.8,22.4 18.9,14.3 	"/>
	<g class="st0">
		<path class="st4" d="M10.5,22.8l-3.3-3.3l6.1-6.1l6.5,0L10.5,22.8z M8.7,19.5l1.8,1.8l6.8-6.8l-3.6,0L8.7,19.5z"/>
	</g>
	<g>
		<path class="st3" d="M22.5,10.4l-2.9-2.9l4.6-4.6l2.9,2.9L22.5,10.4z M21.1,7.5l1.4,1.4l3.2-3.2l-1.4-1.4L21.1,7.5z"/>
	</g>
</g>
</svg>
