<?xml version="1.0" encoding="utf-8"?>
<!-- Generator: Adobe Illustrator 24.3.0, SVG Export Plug-In . SVG Version: 6.00 Build 0)  -->
<svg version="1.1" id="Слой_1" xmlns="http://www.w3.org/2000/svg" xmlns:xlink="http://www.w3.org/1999/xlink" x="0px" y="0px"
	 viewBox="0 0 30 30" style="enable-background:new 0 0 30 30;" xml:space="preserve">
<style type="text/css">
	.st0{display:none;}
	.st1{display:inline;}
	.st2{fill:#00B4D3;}
	.st3{fill:#151515;}
	.st4{display:inline;fill:#151515;}
	.st5{display:inline;fill:#00B4D3;}
	.st6{fill:#00B5D3;}
	.st7{fill:#161616;}
</style>
<g id="Слой_2_1_" class="st0">
	<g class="st1">
		<path class="st2" d="M78-101c-32.8-19.4-61.6,15-61.6,15S3.2-99-12.5-105.1c-9.8-3.9-22.9-3.9-32.1,1.2
			c-21.5,12-29.3,37-29.8,47.4C-75.2-39.9-57.8,9.7-57.8,9.7H87.1l14.3-46C103-42,112-81,78-101z M-42.7-47.9
			c-7.1,0-12.9-6.2-12.9-14c0-7.7,5.8-14,12.9-14s12.9,6.2,12.9,14C-29.8-54.2-35.5-47.9-42.7-47.9z M-36.5-83.6c0-4,3-7.3,6.7-7.3
			s6.7,3.3,6.7,7.3s-3,7.3-6.7,7.3S-36.5-79.6-36.5-83.6z M-21.8-67.6c-2.1,0-3.8-1.8-3.8-4.1c0-2.3,1.7-4.1,3.8-4.1S-18-74-18-71.7
			C-18-69.4-19.7-67.6-21.8-67.6z"/>
		<g>
			<path class="st3" d="M89.3,12.7H-59.9l-1-3c-0.7-2-16.6-49.9-16.7-66.9c0-15.9,9.9-38.6,31.9-50.8c9.6-5.3,23.6-5.9,35-1.5
				c12.2,4.8,22.6,13.4,27.5,17.6c26.6-25.6,48.7-21.4,62.6-13.2c36.8,21.7,26.4,64.3,25.1,69.1l-0.1,0.2L89.3,12.7z M-54.1,3.7
				H83.4l13.2-42.3c0.6-2.2,3.1-12.6,1.5-24.6C96-78.1,88.4-89.5,75.5-97.1c-17-10-35.2-5.7-54.1,12.9c-1.8,1.8-3,2.9-5,2.6
				c-1.2-0.2-1.8-0.7-3.6-2.2C8.9-87.2-1.5-96.3-13.5-101c-9.2-3.6-20.9-3.2-28.5,1c-18.8,10.5-27.4,29.6-27.3,42.8
				C-69.3-45.2-59.1-11.6-54.1,3.7z"/>
		</g>
		<g>
			<path class="st3" d="M11.6-83.8c17.5,14.5,39.6,25.3,62.5,26.5c5.8,0.3,5.8-8.7,0-9C53.7-67.4,33.5-77.2,18-90.1
				C13.6-93.9,7.2-87.6,11.6-83.8L11.6-83.8z"/>
		</g>
		<g class="st0">
			<path class="st4" d="M77.9,30.3H-47L-62,3.6H92.8L77.9,30.3z M-41.7,21.3H72.6l4.9-8.7h-124L-41.7,21.3z"/>
		</g>
		<g>
			<path class="st3" d="M15.8,146.1c-0.3,0-0.5,0-0.7,0c-9.6-0.6-35.7-31.9-37.1-34.4c-0.8-1.4-1.9-3.3-5.3-45.2
				c-1.6-20.2-4-53.7-4-53.9l0.6-9h94.6l1.1,9C61.4,43,53.5,108.1,52.5,111c-1.2,3.4-12.5,15.7-15.4,18.8
				C22.9,144.9,18.2,146.1,15.8,146.1z M16,137.2L16,137.2L16,137.2z M15.2,137.2L15.2,137.2L15.2,137.2z M-14,107.5
				c3,4.5,23.8,27,29.6,29.5c5.7-2.4,25.6-24.6,28.4-29.1c1-5.3,6.2-64.9,9.8-95.3H-21C-18.9,41.7-15.5,102-14,107.5z M-13.9,107.7
				L-13.9,107.7L-13.9,107.7z"/>
		</g>
		<path class="st2" d="M62.1,47.4L-28,63.3c-4.1,0.7-8.1-2-8.8-6.2l-0.5-3.1c-0.7-4.1,2-8.1,6.2-8.8L59,29.3c4.1-0.7,8.1,2,8.8,6.2
			l0.5,3.1C69,42.8,66.3,46.7,62.1,47.4z"/>
		<path class="st2" d="M63.4,83.5l-90.1,15.9c-4.1,0.7-8.1-2-8.8-6.2l-0.5-3.1c-0.7-4.1,2-8.1,6.2-8.8l90.1-15.9
			c4.1-0.7,8.1,2,8.8,6.2l0.5,3.1C70.3,78.8,67.6,82.8,63.4,83.5z"/>
		<g class="st0">
			<path class="st4" d="M-21.1,76.2c-5.8,0-10.9-4.1-11.9-10l-0.5-3.1c-0.6-3.2,0.2-6.4,2-9.1c1.9-2.7,4.6-4.4,7.8-5l74.4-13.1
				c3.2-0.6,6.4,0.2,9.1,2c2.7,1.9,4.4,4.6,5,7.8l0.5,3.1c1.2,6.6-3.2,12.9-9.8,14l0,0l-74.4,13.1C-19.7,76.1-20.4,76.2-21.1,76.2z
				 M52.8,44.7c-0.2,0-0.4,0-0.5,0l-74.4,13.1c-0.8,0.1-1.5,0.6-2,1.3s-0.7,1.5-0.5,2.3l0.5,3.1c0.3,1.7,1.9,2.8,3.6,2.5l74.4-13.1
				l0,0c1.7-0.3,2.8-1.9,2.5-3.6l-0.5-3.1c-0.1-0.8-0.6-1.5-1.3-2C54.1,44.9,53.5,44.7,52.8,44.7z"/>
		</g>
		<g class="st0">
			<path class="st4" d="M-21.1,114.9c-5.8,0-10.9-4.1-11.9-10l-0.5-3.1c-0.6-3.2,0.2-6.4,2-9.1c1.9-2.7,4.6-4.4,7.8-5l74.4-13.1
				c6.6-1.2,12.9,3.2,14,9.8l0.5,3.1c1.2,6.6-3.2,12.9-9.8,14l0,0L-19,114.6C-19.7,114.9-20.4,114.9-21.1,114.9z M52.8,83.5
				c-0.2,0-0.4,0-0.5,0l-74.4,13.1c-0.8,0.1-1.5,0.6-2,1.3s-0.7,1.5-0.5,2.3l0.5,3.1c0.3,1.7,1.9,2.8,3.6,2.5l74.4-13.1l0,0
				c1.7-0.3,2.8-1.9,2.5-3.6L55.9,86c-0.1-0.8-0.6-1.5-1.3-2C54.1,83.7,53.5,83.5,52.8,83.5z"/>
		</g>
	</g>
</g>
<g id="Шприц" class="st0">
	<g class="st1">
		<path class="st3" d="M121.5-45c-1.8,0-3.6-0.7-4.9-2L73.5-90.1c-2.7-2.7-2.7-7.2,0-9.9l9.4-9.4c2.7-2.7,7.2-2.7,9.9,0l43.1,43.1
			c1.3,1.3,2,3.1,2,4.9c0,1.9-0.7,3.6-2,4.9l-9.4,9.4C125.1-45.7,123.3-45,121.5-45z M81.3-95l40.2,40.2l6.5-6.5l-40.2-40.2L81.3-95
			z"/>
	</g>
	<g class="st1">
		<path class="st3" d="M83.4,10.3c-1.8,0-3.6-0.7-5-2.1L18.2-52c-2.7-2.8-2.7-7.2,0-10l9.3-9.3c1.3-1.3,3.1-2.1,5-2.1
			c1.9,0,3.7,0.7,5,2.1l60.2,60.2c1.3,1.3,2.1,3.1,2.1,5s-0.7,3.7-2.1,5l-9.3,9.3C87,9.6,85.2,10.3,83.4,10.3z M25.9-57L83.4,0.5
			l6.5-6.6L32.5-63.5L25.9-57z"/>
	</g>
	<g class="st1">
		<path class="st3" d="M-49.4,108.6c-1.9,0-3.7-0.7-5.1-2.1l-25.9-26c-1.4-1.3-2.1-3.1-2.1-5.1c0-1.9,0.7-3.7,2.1-5.1l8.3-8.3
			c1.3-1.4,3.1-2.1,5.1-2.1c1.9,0,3.7,0.7,5.1,2.1L-36,87.9c1.4,1.3,2.1,3.1,2.1,5.1c0,1.9-0.7,3.7-2.1,5.1l0,0l-8.4,8.4
			C-45.7,107.8-47.5,108.6-49.4,108.6z M-72.7,75.5l23.3,23.3l5.7-5.7L-67,69.8L-72.7,75.5z"/>
	</g>
	<g class="st1">
		<path class="st3" d="M-27.2,102.1c-3.5,0-6.8-1.4-9.3-3.8l-35.3-35.1c-2.5-2.5-3.9-5.8-3.9-9.3s1.4-6.9,3.8-9.4L18-46
			c5.1-5.2,13.5-5.2,18.7-0.1L72-11c2.5,2.5,3.9,5.8,3.9,9.3s-1.4,6.9-3.8,9.4l-89.9,90.5C-20.3,100.7-23.7,102.1-27.2,102.1
			L-27.2,102.1z M27.3-41c-1.1,0-2.2,0.4-3,1.2l-89.9,90.5c-0.8,0.8-1.2,1.9-1.2,3s0.4,2.2,1.2,3l35.3,35.1c0.8,0.8,1.9,1.3,3,1.2
			c1.1,0,2.2-0.4,3-1.2L65.6,1.3c0.8-0.8,1.2-1.9,1.2-3s-0.4-2.2-1.2-3L30.3-39.8C29.5-40.6,28.4-41,27.3-41z"/>
	</g>
	<g class="st1">
		<path class="st3" d="M-76,117.6c-1.9,0-3.8-0.8-5.2-2.1l0,0l0,0l-8-8c-1.4-1.4-2.1-3.2-2.1-5.2c0-1.9,0.8-3.8,2.1-5.2l13.9-13.9
			c1.4-1.4,3.2-2.1,5.2-2.1s3.8,0.8,5.2,2.1l8,8c1.4,1.4,2.1,3.2,2.1,5.2c0,1.9-0.8,3.8-2.1,5.2l-13.9,13.9
			C-72.2,116.8-74.1,117.6-76,117.6z M-81.6,102.3l5.6,5.6l11.5-11.5l-5.6-5.6L-81.6,102.3z"/>
	</g>
	<g class="st1">
		<path class="st3" d="M-111.5,143.8c10.9-10.8,21.8-21.6,32.7-32.3c4.1-4.1-2.2-10.4-6.4-6.4c-10.8,10.8-21.7,21.6-32.7,32.4
			C-122,141.5-115.6,147.9-111.5,143.8L-111.5,143.8z"/>
	</g>
	<polygon class="st5" points="-5.9,4.7 -53.7,52.6 -26.3,79.9 43.1,10.5 	"/>
	<g class="st1">
		<path class="st3" d="M-29,83.6l-28.1-28.1L-4.8,3.2l56,0.2L-29,83.6z M-44.4,55.5L-29,70.9l58.6-58.6l-30.7-0.1L-44.4,55.5z"/>
	</g>
	<g class="st1">
		<path class="st3" d="M73.5-22.4L48.8-47.1l39.8-39.7l24.7,24.7L73.5-22.4z M61.5-47.1l11.9,11.9l27.1-27.1L88.6-74.1L61.5-47.1z"
			/>
	</g>
</g>
<path class="st6" d="M18.4,11.6h-5.8c-0.5,0-1-0.4-1-1v-0.5h7.7v0.5C19.4,11.2,18.9,11.6,18.4,11.6z"/>
<path class="st6" d="M29.4,19.9l-3.7-3.3c-0.4-0.4-1-0.6-1.6-0.6H8L3.8,8.7c-0.4-0.6-1-1-1.8-1c-1.1,0-2,0.9-2,2
	c0,0.4,0.1,0.7,0.3,1l4.6,7.9c0.4,0.7,1.2,1.2,2.1,1.2h6.2c0.2-0.8,1-1.5,1.9-1.5s1.7,0.6,1.9,1.5h6.6l3.4,2.9
	c0.3,0.3,0.8,0.5,1.2,0.5c1,0,1.9-0.9,1.9-1.9C30,20.8,29.8,20.3,29.4,19.9z"/>
<path class="st7" d="M27.1,28.9c-0.6-2.7-2.9-4.6-5.6-4.7L19,21.8h2.3c0.5,0,1-0.4,1-1v-1c0-0.5-0.4-1-1-1h-4.4
	c-0.4-0.6-1.1-1-1.9-1s-1.5,0.4-1.9,1H8.7c-0.5,0-1,0.4-1,1v1c0,0.5,0.4,1,1,1h4.4c0.3,0.4,0.8,0.8,1.3,0.9l2.6,2.6
	c-0.7,0.5-1.3,1.1-1.7,1.9H3.9V30h23.2v-1L27.1,28.9z M21.3,19.8v1h-3.9c0-0.2,0-0.3,0-0.5s0-0.3,0-0.5H21.3z M8.7,20.8v-1h3.9
	c0,0.2,0,0.3,0,0.5s0,0.3,0,0.5H8.7z M13.5,20.3c0-0.8,0.7-1.5,1.5-1.5c0.8,0,1.5,0.7,1.5,1.5c0,0.8-0.7,1.5-1.5,1.5
	S13.5,21.1,13.5,20.3z M15.7,22.6c0.5-0.2,0.9-0.4,1.2-0.8h0.7l2.4,2.4c-0.8,0-1.5,0.2-2.2,0.5L15.7,22.6z M4.8,29v-1h9.9
	c-0.1,0.3-0.2,0.6-0.3,0.9V29H4.8z M15.5,29c0.6-2.3,2.6-3.9,4.9-3.9h0.8c2.4,0,4.4,1.6,4.9,3.9H15.5z"/>
<path class="st7" d="M30,10.7V9.2h-6.8v1.5l0.4,1.1c0.2,0.5,0.4,0.9,0.7,1.2h-2.1V7.3c0-0.5,0.4-1,1-1s1,0.4,1,1v1h1v-1
	c0-1.1-0.9-1.9-1.9-1.9s-1.9,0.9-1.9,1.9v5.8h-3.9v-1h1c0.8,0,1.5-0.7,1.5-1.5V7.3c0-0.8-0.7-1.5-1.5-1.5H15v-3
	C15,1.2,13.8,0,12.2,0c-0.8,0-1.6,0.4-2.2,1L7.4,4.3L6,2.9C5.7,2.6,5.3,2.4,4.9,2.4c-0.8,0-1.5,0.7-1.5,1.5c0,0.4,0.2,0.8,0.4,1.1
	l3.8,3.8C7.9,9,8.3,9.2,8.7,9.2c0.8,0,1.5-0.7,1.5-1.5c0-0.4-0.2-0.8-0.4-1.1L8.1,5l2.7-3.3C11.2,1.2,11.7,1,12.2,1
	c1,0,1.8,0.8,1.8,1.8v3h-1.5c-0.8,0-1.5,0.7-1.5,1.5v3.4c0,0.8,0.7,1.5,1.5,1.5h1v1h-0.5c-0.8,0-1.5,0.7-1.5,1.5V16h1v-1.5
	c0-0.3,0.2-0.5,0.5-0.5h15.5c0.3,0,0.5,0.2,0.5,0.5v1.9h1v-1.9c0-0.7-0.5-1.3-1.1-1.4c0.3-0.3,0.6-0.8,0.8-1.2L30,10.7z M9.2,7.7
	C9.2,8,9,8.2,8.6,8.2c-0.1,0-0.3-0.1-0.4-0.2L4.5,4.3C4.4,4.2,4.4,4.1,4.4,3.9c0-0.3,0.2-0.5,0.5-0.5c0.1,0,0.3,0.1,0.4,0.2L9,7.3
	C9.1,7.4,9.2,7.5,9.2,7.7z M12.1,10.6V7.3c0-0.3,0.2-0.5,0.5-0.5h5.8c0.3,0,0.5,0.2,0.5,0.5v3.4c0,0.3-0.2,0.5-0.5,0.5h-5.8
	C12.3,11.1,12.1,10.9,12.1,10.6z M14.5,12.1h1.9v1h-1.9V12.1z M29,10.6l-0.3,1c-0.3,0.9-1.1,1.5-2.1,1.5c-0.9,0-1.8-0.6-2.1-1.5
	l-0.3-1v-0.4H29V10.6z"/>
</svg>
