<?xml version="1.0" encoding="utf-8"?>
<!-- Generator: Adobe Illustrator 24.3.0, SVG Export Plug-In . SVG Version: 6.00 Build 0)  -->
<svg version="1.1" id="Слой_1" xmlns="http://www.w3.org/2000/svg" xmlns:xlink="http://www.w3.org/1999/xlink" x="0px" y="0px"
	 viewBox="0 0 30 30" style="enable-background:new 0 0 30 30;" xml:space="preserve">
<style type="text/css">
	.st0{fill:#00B4D3;}
	.st1{fill:#151515;}
</style>
<g id="Слой_4">
	<g>
		<path d="M26.9,30H3.1l1.3-8.1h15.3L26.9,30z M4.4,29h20.2l-5.3-6H5.3L4.4,29z"/>
	</g>
	<g>
		<path d="M19.2,14.4H5.8V6l0.4-6h10.2l2.8,6V14.4z M6.8,13.4h11.3V6.2L15.7,1H7.2l-0.4,5L6.8,13.4L6.8,13.4z"/>
	</g>
	<g>
		<path d="M9.2,22.9H6.4v-9.6h2.8V22.9z M7.5,21.9h0.7v-7.5H7.5V21.9z"/>
	</g>
	<rect x="11.4" y="16.7" class="st0" width="6.7" height="5.2"/>
	<g>
		<path class="st1" d="M13.6,1.9c-0.7,0-1.4,0-2.2,0c-0.7,0-0.7,1,0,1c0.7,0,1.4,0,2.2,0C14.3,3,14.3,1.9,13.6,1.9L13.6,1.9z"/>
	</g>
	<g>
		<path class="st1" d="M14.6,3.7c-1,0-2.1,0-3.1,0c-0.7,0-0.7,1,0,1c1,0,2.1,0,3.1,0C15.3,4.8,15.3,3.7,14.6,3.7L14.6,3.7z"/>
	</g>
	<g>
		<path class="st1" d="M8.2,23.6c-0.6,0-1.3,0-1.9,0c-0.7,0-0.7,1,0,1c0.6,0,1.3,0,1.9,0C8.8,24.7,8.8,23.6,8.2,23.6L8.2,23.6z"/>
	</g>
	<g>
		<path class="st1" d="M9.4,25.4c-1,0-2.1,0-3.1,0c-0.7,0-0.7,1,0,1c1,0,2.1,0,3.1,0C10.1,26.5,10.1,25.4,9.4,25.4L9.4,25.4z"/>
	</g>
	<g>
		<path class="st1" d="M16.3,5.5c-1.6,0-3.2,0-4.9,0c-0.7,0-0.7,1,0,1c1.6,0,3.2,0,4.9,0C17,6.6,17,5.5,16.3,5.5L16.3,5.5z"/>
	</g>
	<g>
		<rect x="17.1" y="27" class="st1" width="3.8" height="1"/>
	</g>
</g>
</svg>
