<?xml version="1.0" encoding="utf-8"?>
<!-- Generator: Adobe Illustrator 24.3.0, SVG Export Plug-In . SVG Version: 6.00 Build 0)  -->
<svg version="1.1" id="Слой_1" xmlns="http://www.w3.org/2000/svg" xmlns:xlink="http://www.w3.org/1999/xlink" x="0px" y="0px"
	 viewBox="0 0 30 30" style="enable-background:new 0 0 30 30;" xml:space="preserve">
<style type="text/css">
	.st0{fill:#151515;}
	.st1{fill:#00B4D3;}
	.st2{fill:none;}
</style>
<g id="Слой_3">
	<g>
		<path class="st0" d="M30,26H0l0.6-4.8c0.1-0.6,0.5-1,1.1-1h26.7c0.5,0,1,0.4,1.1,1L30,26z M1,25.1H29l-0.5-3.7
			c0-0.1-0.1-0.2-0.2-0.2H1.7c-0.1,0-0.2,0.1-0.2,0.2L1,25.1z"/>
	</g>
	<g>
		<path class="st0" d="M25.7,21.2H4.3c-0.8,0-1.5-0.7-1.5-1.6v-7.4C2.8,7.7,6.3,4,10.7,4h8.7c4.3,0,7.9,3.7,7.9,8.3v7.4
			C27.2,20.5,26.6,21.2,25.7,21.2z M10.7,4.9c-3.8,0-7,3.3-7,7.3v7.4c0,0.3,0.3,0.6,0.6,0.6h21.5c0.3,0,0.6-0.3,0.6-0.6v-7.4
			c0-4-3.1-7.3-7-7.3C19.3,4.9,10.7,4.9,10.7,4.9z"/>
	</g>
	<path class="st1" d="M18.9,7.5h-7.7C8.3,7.5,6.1,10,6.1,13v7.2h17.9V13C24,10,21.7,7.5,18.9,7.5z M11.1,9.3c0.5,0,0.9,0.4,0.9,1
		s-0.4,1-0.9,1c-0.5,0-0.9-0.4-0.9-1C10.2,9.8,10.6,9.3,11.1,9.3z M9.5,14.8c-0.9,0-1.6-0.8-1.6-1.7s0.7-1.7,1.6-1.7
		c0.9,0,1.6,0.8,1.6,1.7S10.4,14.8,9.5,14.8z M12.2,12.6c-0.3,0-0.6-0.3-0.6-0.6c0-0.4,0.3-0.6,0.6-0.6c0.3,0,0.6,0.3,0.6,0.6
		C12.8,12.3,12.5,12.6,12.2,12.6z"/>
	<g>
		<line class="st2" x1="0.9" y1="22.4" x2="29.1" y2="22.4"/>
		<rect x="0.9" y="22" class="st0" width="28.2" height="1"/>
	</g>
</g>
</svg>
