<svg width="31" height="25" fill="none" xmlns="http://www.w3.org/2000/svg"><path d="M20.862 21.905s-.011.03-.018.044a3.678 3.678 0 01-7.014-.722l7.032.678z" fill="#00B4D3"/><path d="M23.524 20.984a1.25 1.25 0 01-.123-.006L7.012 19.373a1.308 1.308 0 01-.893-2.125c.637-.79 1.133-1.594 1.472-2.384.9-2.097.927-4.823.927-5.127 0-4.498 3.566-8.157 7.949-8.157s7.95 3.66 7.95 8.157c0 .599-.144 1.33-.31 2.177-.241 1.237-.516 2.638-.396 3.948.122 1.336.572 2.596.929 3.417.173.401.124.85-.134 1.203-.233.32-.594.502-.982.502zM16.466 2.416c-3.923 0-7.113 3.284-7.113 7.321 0 .322-.028 3.207-.995 5.457-.37.86-.904 1.727-1.588 2.578a.469.469 0 00-.068.481c.068.163.215.27.39.287l16.39 1.605a.374.374 0 00.348-.156.377.377 0 00.04-.377c-.38-.878-.862-2.228-.994-3.673-.132-1.43.156-2.895.409-4.187.157-.804.293-1.498.293-2.016.002-4.036-3.19-7.32-7.112-7.32z" fill="#151515"/><path d="M11.857 9.14a.417.417 0 01-.408-.508 6.094 6.094 0 011.19-2.468c.497-.622 1.134-1.169 2.005-1.72a.418.418 0 01.447.706c-.79.5-1.361.988-1.798 1.536a5.334 5.334 0 00-1.027 2.126.42.42 0 01-.409.327zM19.6 2.853l-.764-.34.01-.022c.062-.15.088-.307.077-.47a1.057 1.057 0 00-.356-.732 1.065 1.065 0 00-1.767.86l.006.053-.83.093A1.902 1.902 0 0117.747.19c.506-.03.993.138 1.374.474.38.336.605.8.636 1.307a1.877 1.877 0 01-.158.883z" fill="#151515"/><path d="M26.044 16.421a.702.702 0 01-.524-1.175l.002-.002a3.883 3.883 0 00.033-5.11.706.706 0 111.07-.92 5.297 5.297 0 01-.048 6.97l-.007.008a.713.713 0 01-.526.23z" fill="#00B4D3"/><path d="M27.745 19.348a.706.706 0 01-.489-1.215 7.558 7.558 0 002.332-5.482 7.578 7.578 0 00-2.251-5.404.706.706 0 01.993-1.003A8.986 8.986 0 0131 12.65a8.963 8.963 0 01-2.766 6.5.705.705 0 01-.49.197zM4.958 16.426a.705.705 0 01-.523-.23l-.01-.013a5.3 5.3 0 01-.05-6.972.704.704 0 111.069.922 3.887 3.887 0 00.035 5.112.705.705 0 01-.521 1.181z" fill="#00B4D3"/><path d="M3.255 19.347a.705.705 0 01-.489-.196A8.963 8.963 0 010 12.651a8.982 8.982 0 012.67-6.406.705.705 0 11.993 1.003 7.578 7.578 0 00-2.252 5.403c0 2 .77 3.889 2.165 5.316.055.057.112.111.168.166a.706.706 0 01-.489 1.214z" fill="#00B4D3"/></svg>