<svg width="25" height="25" fill="none" xmlns="http://www.w3.org/2000/svg"><g clip-path="url(#clip0)"><path d="M10.508 24.547c-.155.048-.143.272.018.3.367.064.839.13 1.287.145 1.435.045 2.096-.11 2.096-.11s.96-1.048 1.024-2.902c.065-1.853-1.821-3.87-1.821-3.87s.91-.009 2.239 1.491c1.328 1.5 1.339 2.497 1.339 2.497s.938-1.744-.15-3.664c-1.413-2.494-3.847-3.349-4.793-5.944-.755-2.066.271-4.814.271-4.814s-1.2.978-2.088 2.443c-.568.936-.97 2.112-.97 3.22 0 5.122 3.572 5.666 3.802 9.081.081 1.224-1.375 1.857-2.254 2.127zM16.33 9.653s.077 1.206.888 2.73c.336.633.994 1.183 1.56 1.88 1.514 1.87-.166 4.61-.166 4.61s.637-1.114-1.614-3.56c-2.696-2.93-.667-5.66-.667-5.66z" fill="#00B4D3"/><path d="M16.015 24.747a.447.447 0 01-.101-.88c.02-.005 1.987-.482 3.63-1.979 1.047-.956 2.168-2.774 2.168-5.012 0-.904-.166-1.564-.323-2.111-.223-.779-.563-1.371-1.034-2.19a32.316 32.316 0 01-1.221-2.281c-.594-1.235-.63-3.243-.563-4.662a8.173 8.173 0 01-1.035 1.49c-.573.644-1.228 1.21-1.799 1.55a.706.706 0 01-.754-.013.643.643 0 01-.27-.643c.264-1.619.104-3.129-.463-4.365-.605-1.32-1.441-2.064-2.135-2.525.086.653.127 1.539-.106 2.295-.396 1.291-1.268 2.296-2.19 3.36-.48.555-.978 1.128-1.425 1.764-2.283 3.249-1.24 7.942-.378 9.706a.56.56 0 01-.168.701.56.56 0 01-.72-.03c-.626-.565-1.772-2.054-2.356-3.596-.488-1.292-.739-2.795-.853-4.053-.723 2.633-.832 4.905-.307 6.644 1.473 4.875 5.526 5.834 5.567 5.843a.446.446 0 01-.194.87c-.188-.041-4.605-1.086-6.227-6.454-.7-2.322-.385-5.458.915-9.069.091-.253.35-.4.614-.351.264.049.451.28.445.549-.028 1.185.125 3.72.875 5.705.245.648.605 1.287.969 1.831-.607-2.296-.934-5.93 1.088-8.809.473-.673.986-1.264 1.48-1.836.86-.99 1.67-1.925 2.012-3.036.245-.797.105-1.83 0-2.375a.653.653 0 01.263-.661.652.652 0 01.71-.037c.492.281 1.99 1.137 2.932 3.19.58 1.265.786 2.766.602 4.369a7.995 7.995 0 001.204-1.117c.607-.683.976-1.414 1.273-2.002.13-.258.254-.503.38-.709.157-.255.47-.377.73-.286a.523.523 0 01.34.578c-.18 1.379-.341 4.366.347 5.796.452.94.844 1.621 1.19 2.223.485.84.867 1.506 1.12 2.39.173.605.358 1.337.358 2.356 0 2.528-1.271 4.587-2.461 5.671-1.82 1.659-3.938 2.167-4.027 2.188a.39.39 0 01-.102.013z" fill="#151515"/></g><defs><clipPath id="clip0"><path fill="#fff" d="M0 0h25v25H0z"/></clipPath></defs></svg>