<svg width="35" height="28" fill="none" xmlns="http://www.w3.org/2000/svg"><path d="M5.06 21.15c-1.56-.332-2.379-1.295-2.94-3.373-.545-2.026-.349-3.412.618-4.362.657-.645 1.783-.903 3.206-1.229.8-.183 1.706-.39 2.646-.698 1.903-.621 3.778-1.453 5.28-2.34 2.86-1.691 4.528-4.571 4.708-4.893a.495.495 0 01.498-.25c.203.025.367.17.418.367l4.294 16.336a.507.507 0 01-.73.58c-.372-.197-3.747-1.924-7.54-1.927-2.79-.003-5.73.831-7.676 1.382-1.278.362-1.908.535-2.287.489a5.852 5.852 0 01-.494-.082zM18.834 5.661c-.785 1.14-2.31 3.043-4.47 4.32-1.561.922-3.505 1.784-5.472 2.427-.982.32-1.911.533-2.73.721-1.225.28-2.283.522-2.745.976-.434.428-.946 1.247-.361 3.42.51 1.899 1.147 2.566 2.617 2.746.212.022 1.112-.233 1.907-.46 1.998-.566 5.016-1.422 7.94-1.419 2.975.004 5.702 1.001 7.082 1.607L18.833 5.66zm4.019 15.292v.002-.002z" fill="#151515"/><path d="M10.622 27.069a.505.505 0 01-.333-.241l-3.49-6.119.84-.48 3.316 5.815 3.456-.835-.758-.25c-.254-.056-.345-.15-1.696-2.703-.64-1.209-1.267-2.428-1.274-2.44l.86-.444c.878 1.707 2.18 4.178 2.522 4.704l.76.25a.647.647 0 01.44.398l.22.59a.547.547 0 01-.382.722l-4.258 1.03a.526.526 0 01-.223.003zm-.004-.944h-.002.002zm-1.721-6.392a29.41 29.41 0 01-1.207-3.545 20.873 20.873 0 01-.662-3.756l.966-.063c.001.017.113 1.667.63 3.566.521 1.915 1.156 3.403 1.162 3.418l-.889.38z" fill="#151515"/><path d="M24.266 16.108a.7.7 0 01-.434-1.076c.007-.011.885-1.355.476-2.823-.412-1.482-1.643-2.153-1.656-2.16a.7.7 0 01.646-1.24c.073.039 1.776.94 2.357 3.024.586 2.102-.614 3.907-.666 3.982a.698.698 0 01-.723.293z" fill="#00B4D3"/><path d="M27.16 18.5a.7.7 0 01-.434-1.076c.02-.03 1.977-2.997 1.059-6.29-.929-3.333-3.668-4.783-3.696-4.797a.699.699 0 01.642-1.242c.134.07 3.309 1.75 4.4 5.663 1.095 3.93-1.152 7.308-1.248 7.45a.696.696 0 01-.723.291z" fill="#00B4D3"/><path d="M29.827 19.921a.698.698 0 01-.427-1.085 10.63 10.63 0 001.7-3.915c.978-4.601-1.223-9.38-5.353-11.622a.698.698 0 11.667-1.228 12.185 12.185 0 015.174 5.492 11.983 11.983 0 01.88 7.648 12.022 12.022 0 01-1.923 4.427.698.698 0 01-.718.283z" fill="#00B4D3"/></svg>