<svg width="20" height="20" viewBox="0 0 20 20" fill="none" xmlns="http://www.w3.org/2000/svg">
<path d="M3.60227 19.2028H1.2949C0.579688 19.2028 0 18.6231 0 17.9079V10.8172C0 10.102 0.579688 9.52234 1.2949 9.52234H3.60227C4.31748 9.52234 4.89717 10.102 4.89717 10.8172V17.9079C4.89717 18.6231 4.31748 19.2028 3.60227 19.2028Z" fill="#C0C0C0"/>
<path d="M16.9123 10.7751H14.4068C13.7462 10.7751 13.2109 10.2398 13.2109 9.57924C13.2109 8.91869 13.7462 8.38342 14.4068 8.38342H16.9123C17.5728 8.38342 18.1081 8.91869 18.1081 9.57924C18.1081 10.2398 17.5728 10.7751 16.9123 10.7751Z" fill="#C0C0C0"/>
<path d="M16.3998 20.0001H14.8054C14.2394 20.0001 13.7804 19.5411 13.7804 18.9751C13.7804 18.409 14.2394 17.9501 14.8054 17.9501H16.3998C16.9658 17.9501 17.4248 18.409 17.4248 18.9751C17.4248 19.5411 16.9658 20.0001 16.3998 20.0001Z" fill="#C0C0C0"/>
<path d="M18.165 17.1529H13.9512C13.2906 17.1529 12.7554 16.6176 12.7554 15.9571C12.7554 15.2965 13.2906 14.7612 13.9512 14.7612H18.165C18.8256 14.7612 19.3609 15.2965 19.3609 15.9571C19.3609 16.6176 18.8256 17.1529 18.165 17.1529Z" fill="#C0C0C0"/>
<path d="M18.7346 13.9639H12.8124C12.1518 13.9639 11.6166 13.4286 11.6166 12.7681C11.6166 12.1075 12.1518 11.5723 12.8124 11.5723H18.7346C19.3951 11.5723 19.9304 12.1075 19.9304 12.7681C19.9304 13.4286 19.3951 13.9639 18.7346 13.9639Z" fill="#C0C0C0"/>
<path d="M9.96512 0.000194734C9.96512 0.000194734 11.3887 -0.0442215 12.1859 1.20854C12.9831 2.46131 12.5276 4.3974 12.5276 4.3974C12.5276 4.3974 12.072 5.76405 12.1859 6.78904C12.2998 7.81402 13.097 8.15569 13.097 8.15569C13.097 8.15569 12.6415 8.49735 12.4137 9.29456C12.1859 10.0918 12.8248 10.7751 12.8248 10.7751C12.8248 10.7751 10.9332 10.889 10.8193 12.8251C10.7384 14.2077 12.4137 14.7612 12.4137 14.7612C12.4137 14.7612 11.7053 15.9092 11.9582 16.5834C12.2998 17.4945 13.4045 17.95 13.4045 17.95C13.4045 17.95 12.9831 18.1778 12.8693 18.8611C12.7554 19.5444 13.2849 20 13.2849 20H8.24884C8.24884 20 7.06099 20 6.26378 19.4306C5.46656 18.8611 5.56109 17.95 5.56109 17.95L5.58045 10.2057C5.58045 10.2057 5.56337 9.80706 5.92211 9.18068C6.10775 8.8561 6.44372 8.50874 6.83321 8.0418C7.28193 7.50311 8.61556 6.3779 9.22486 4.85295C10.136 2.57519 9.96512 0.000194734 9.96512 0.000194734Z" fill="#C0C0C0"/>
</svg>
