<svg width="58" height="60" viewBox="0 0 58 60" fill="none" xmlns="http://www.w3.org/2000/svg">
<path d="M39.7138 38.3422V42.6382H19.5638V39.2402L30.4198 28.9302C31.6438 27.7582 32.4698 26.7362 32.8998 25.8642C33.3298 24.9922 33.5438 24.1262 33.5438 23.2662C33.5438 21.9902 33.1138 21.0142 32.2558 20.3382C31.3958 19.6622 30.1338 19.3222 28.4678 19.3222C25.6818 19.3222 23.5478 20.2722 22.0638 22.1722L18.5078 19.4422C19.5758 18.0102 21.0138 16.8982 22.8238 16.1022C24.6338 15.3082 26.6578 14.9102 28.8958 14.9102C31.8638 14.9102 34.2318 15.6122 36.0038 17.0182C37.7738 18.4242 38.6598 20.3382 38.6598 22.7582C38.6598 24.2422 38.3478 25.6362 37.7218 26.9362C37.0978 28.2382 35.8998 29.7222 34.1298 31.3882L26.8278 38.3402L39.7138 38.3422Z" fill="#151515"/>
<path d="M41.3145 0L49.3665 12.296L34.6985 13.038L36.8085 8.964C36.8085 8.964 33.9485 8.014 28.6645 8.404C26.0365 8.598 23.3685 9.362 20.3985 10.752C14.0545 13.718 10.8925 17.9 9.04453 20.844C8.12653 22.306 6.52253 25.626 5.82053 29.498C5.10853 33.424 5.31253 37.922 6.65853 42.178C9.33053 50.632 15.9765 55.02 15.9765 55.02C16.0665 55.106 16.0625 55.232 15.8645 55.552C15.6765 55.856 15.4465 55.948 15.3965 55.922C14.8345 55.636 11.4245 53.758 8.03253 50.114C5.83253 47.75 3.74853 44.676 2.35253 41.194C-0.83347 33.242 0.0765295 24.462 3.03653 18.358C5.98853 12.272 10.7405 6.614 19.2885 3.386C30.2665 -0.76 39.5645 3.62 39.5645 3.62L41.3145 0Z" fill="#00B4D3"/>
<path d="M26.4214 51.8183L26.4114 46.9023L23.9754 50.9703H23.3594L20.9234 46.9663V51.8183H19.6094V44.4023H20.7434L23.6894 49.3183L26.5814 44.4023H27.7154L27.7254 51.8183H26.4214Z" fill="#151515"/>
<path d="M29.7266 44.4023H31.1046V51.8183H29.7266V44.4023Z" fill="#151515"/>
<path d="M39.6994 44.4023V51.8183H38.5654L34.4754 46.7963V51.8183H33.1094V44.4023H34.2434L38.3334 49.4243V44.4023H39.6994Z" fill="#151515"/>
<path d="M17.2708 56.4914C17.4108 56.1614 17.7908 56.0074 18.1208 56.1474L19.4968 56.7334C19.8268 56.8734 19.9808 57.2534 19.8408 57.5834C19.7008 57.9134 19.3208 58.0674 18.9908 57.9274L17.6128 57.3394C17.2828 57.2014 17.1308 56.8194 17.2708 56.4914Z" fill="#151515"/>
<path d="M23.5232 58.7634C23.5792 58.4094 23.9112 58.1674 24.2652 58.2254L25.7432 58.4594C26.0972 58.5154 26.3392 58.8474 26.2812 59.2014C26.2252 59.5554 25.8932 59.7974 25.5392 59.7394L24.0612 59.5054C23.7092 59.4494 23.4692 59.1174 23.5232 58.7634Z" fill="#151515"/>
<path d="M30.228 59.3928C30.204 59.0368 30.476 58.7268 30.834 58.7048L32.328 58.6108C32.684 58.5868 32.994 58.8588 33.016 59.2168C33.04 59.5728 32.768 59.8828 32.41 59.9048L30.916 59.9988C30.558 60.0228 30.252 59.7508 30.228 59.3928Z" fill="#151515"/>
<path d="M36.7955 58.5785C36.6755 58.2425 36.8515 57.8705 37.1895 57.7525L38.5995 57.2545C38.9355 57.1345 39.3075 57.3105 39.4255 57.6485C39.5455 57.9845 39.3695 58.3565 39.0315 58.4745L37.6215 58.9725C37.2855 59.0945 36.9155 58.9165 36.7955 58.5785Z" fill="#151515"/>
<path d="M43.0377 56.11C42.8337 55.816 42.9057 55.412 43.2017 55.208L44.4317 54.358C44.7257 54.154 45.1297 54.226 45.3337 54.522C45.5377 54.816 45.4657 55.22 45.1697 55.424L43.9397 56.274C43.6457 56.478 43.2417 56.404 43.0377 56.11Z" fill="#151515"/>
<path d="M48.4171 52.1536C48.1551 51.9096 48.1411 51.4996 48.3851 51.2376L49.4071 50.1456C49.6511 49.8836 50.0611 49.8696 50.3231 50.1136C50.5851 50.3576 50.5991 50.7676 50.3551 51.0296L49.3331 52.1216C49.0891 52.3856 48.6791 52.3976 48.4171 52.1536Z" fill="#151515"/>
<path d="M52.7127 47.0295C52.4007 46.8535 52.2907 46.4575 52.4667 46.1475L53.2027 44.8455C53.3787 44.5335 53.7747 44.4235 54.0847 44.5995C54.3967 44.7755 54.5067 45.1715 54.3307 45.4815L53.5967 46.7835C53.4207 47.0955 53.0247 47.2055 52.7127 47.0295Z" fill="#151515"/>
<path d="M55.6262 40.9989C55.2802 40.9049 55.0762 40.5469 55.1722 40.2029L55.5682 38.7609C55.6622 38.4149 56.0202 38.2109 56.3642 38.3069C56.7102 38.4009 56.9142 38.7589 56.8182 39.1029L56.4222 40.5449C56.3282 40.8909 55.9722 41.0929 55.6262 40.9989Z" fill="#151515"/>
<path d="M57.0248 34.4562C56.6668 34.4502 56.3828 34.1522 56.3908 33.7942L56.4228 32.2982C56.4288 31.9402 56.7268 31.6562 57.0848 31.6642C57.4428 31.6702 57.7268 31.9682 57.7188 32.3262L57.6868 33.8222C57.6788 34.1782 57.3828 34.4622 57.0248 34.4562Z" fill="#151515"/>
<path d="M56.7131 27.806C56.3611 27.872 56.0211 27.64 55.9571 27.288L55.6831 25.818C55.6171 25.466 55.8491 25.126 56.2011 25.062C56.5531 24.996 56.8931 25.228 56.9571 25.58L57.2311 27.05C57.2971 27.402 57.0631 27.74 56.7131 27.806Z" fill="#151515"/>
<path d="M54.9606 21.3522C54.6466 21.5222 54.2526 21.4042 54.0826 21.0882L53.3746 19.7702C53.2046 19.4562 53.3226 19.0622 53.6386 18.8922C53.9526 18.7222 54.3466 18.8402 54.5166 19.1562L55.2246 20.4742C55.3966 20.7882 55.2766 21.1822 54.9606 21.3522Z" fill="#151515"/>
<path d="M51.5219 15.5605C51.2519 15.7945 50.8399 15.7645 50.6079 15.4905L49.6339 14.3545C49.3999 14.0845 49.4299 13.6725 49.7039 13.4405C49.9739 13.2065 50.3859 13.2365 50.6179 13.5105L51.5919 14.6465C51.8259 14.9185 51.7939 15.3265 51.5219 15.5605Z" fill="#151515"/>
</svg>
