<svg width="60" height="60" viewBox="0 0 60 60" fill="none" xmlns="http://www.w3.org/2000/svg">
<path d="M56 59.9992C55.4 59.9992 54.8 59.7992 54.4 59.1992L46 48.7992L50.4 45.1992L58.8 55.5992C59.6 56.5992 59.4 57.7992 58.4 58.5992L57.4 59.3992C57 59.7992 56.4 59.9992 56 59.9992ZM48.8 49.1992L56 57.9992C56 57.9992 56 57.9992 56.2 57.9992L57.2 57.1992L50 48.1992L48.8 49.1992Z" fill="#151515"/>
<path d="M47.8024 47.6008L46.6024 48.6008H46.4024L39.2024 39.8008C38.8024 39.4008 39.0024 38.8008 39.4024 38.6008C39.8024 38.2008 40.4024 38.4008 40.6024 38.8008L47.8024 47.6008Z" fill="#151515"/>
<path d="M27.5779 24.3888L28.5938 25.625L30.9115 23.7203L29.8957 22.4841L27.5779 24.3888Z" fill="#151515"/>
<path d="M25.2031 22.4004L26.4031 21.4004H26.6031L38.4031 35.6004C38.8031 36.0004 38.6031 36.6004 38.2031 36.8004C37.8031 37.2004 37.2031 37.0004 37.0031 36.6004L25.2031 22.4004C25.2031 22.6004 25.2031 22.6004 25.2031 22.4004Z" fill="#151515"/>
<path d="M48.9624 47.4966L50.3594 46.3613L28.5372 19.5083L27.1402 20.6435L48.9624 47.4966Z" fill="#151515"/>
<path d="M35.7984 19.6006L27.7984 21.2006C27.5984 21.2006 27.1984 21.4006 27.1984 21.8006L23.9984 29.4006C23.7984 30.0006 22.7984 30.2006 22.3984 29.4006L18.3984 22.2006C17.9984 22.0006 17.7984 21.8006 17.3984 21.8006L9.19844 21.0006C8.39844 21.0006 8.19844 20.0006 8.59844 19.6006L14.1984 13.6006C14.3984 13.4006 14.3984 13.2006 14.3984 12.8006L12.5984 4.80061C12.5984 4.00061 13.1984 3.40061 13.7984 3.80061L21.3984 7.20061C21.5984 7.40061 21.9984 7.40061 22.1984 7.20061L29.1984 3.00061C29.7984 2.60061 30.5984 3.20061 30.3984 3.80061L29.5984 12.0006C29.5984 12.2006 29.5984 12.6006 29.7984 12.8006L35.9984 18.2006C36.5984 18.6006 36.3984 19.4006 35.7984 19.6006Z" fill="#00B4D3"/>
<path d="M22.2031 1.79961L24.0031 0.999609L22.8031 2.59961L23.6031 4.39961L22.0031 3.19961L20.2031 4.19961L21.4031 2.39961L20.6031 0.599609L22.2031 1.79961Z" fill="#00B4D3"/>
<path d="M9.19687 10.2004L10.3969 9.80039L9.59688 10.8004L10.1969 12.0004L8.99688 11.2004L7.79688 11.8004L8.59688 10.8004L7.99687 9.40039L9.19687 10.2004Z" fill="#00B4D3"/>
<path d="M1.79687 8.19961L2.79688 7.79961L2.19688 8.79961L2.59687 9.59961L1.79687 8.99961L0.796875 9.59961L1.39687 8.59961L0.996875 7.59961L1.79687 8.19961Z" fill="#00B4D3"/>
<path d="M6.40156 16.8004L7.00156 16.4004L6.60156 17.2004L7.00156 17.8004L6.20156 17.4004L5.60156 17.6004L6.00156 17.0004L5.80156 16.4004L6.40156 16.8004Z" fill="#00B4D3"/>
<path d="M10.8 25L12.2 24.2L11.2 25.6L11.8 27.2L10.6 26.2L9 27L10 25.6L9.2 24L10.8 25Z" fill="#00B4D3"/>
<path d="M8.40156 1.80078L10.2016 1.00078L9.00156 2.60078L9.80156 4.20078L8.20156 3.20078L6.60156 4.00078L7.60156 2.40078L6.80156 0.800781L8.40156 1.80078Z" fill="#00B4D3"/>
<path d="M16.5984 0.6L17.3984 0.2L16.7984 1L17.3984 2L16.3984 1.4L15.3984 1.8L15.9984 1L15.5984 0L16.5984 0.6Z" fill="#00B4D3"/>
<path d="M35.7984 8.40039L36.9984 7.80039L36.1984 8.80039L36.7984 10.0004L35.5984 9.20039L34.3984 9.80039L35.1984 8.80039L34.5984 7.40039L35.7984 8.40039Z" fill="#00B4D3"/>
<path d="M34.4016 0.999609L35.2016 0.599609L34.8016 1.39961L35.2016 2.19961L34.4016 1.79961L33.6016 2.19961L34.0016 1.39961L33.6016 0.599609L34.4016 0.999609Z" fill="#00B4D3"/>
</svg>
