<svg width="60" height="60" viewBox="0 0 60 60" fill="none" xmlns="http://www.w3.org/2000/svg">
<path d="M17.0016 44.8L13.4016 48.4L11.2016 46.2C10.8016 45.8 10.2016 45.8 9.80156 46.2C9.60156 46.4 9.60156 46.6 9.60156 47C9.60156 47.4 9.80156 47.6 9.80156 47.8L12.0016 49.8C12.4016 50.2 12.8016 50.4 13.4016 50.4C14.0016 50.4 14.4016 50.2 14.8016 49.8L18.4016 46.2C18.8016 45.8 18.8016 45.2 18.4016 44.8C17.8016 44.4 17.4016 44.4 17.0016 44.8Z" fill="black"/>
<path d="M5.20312 47.5991C5.20312 52.1991 9.00313 55.9991 13.6031 55.9991C18.2031 55.9991 22.0031 52.1991 22.0031 47.5991C22.0031 46.9991 21.6031 46.5991 21.0031 46.5991C20.4031 46.5991 20.0031 46.9991 20.0031 47.5991C20.0031 51.1991 17.0031 53.9991 13.6031 53.9991C10.2031 53.9991 7.20312 50.9991 7.20312 47.5991C7.20312 44.1991 10.2031 41.1991 13.6031 41.1991C15.0031 41.1991 16.4031 41.5991 17.4031 42.3991C18.0031 42.5991 18.6031 42.5991 19.0031 41.9991C19.4031 41.5991 19.2031 40.9991 18.8031 40.5991C16.2031 38.5991 12.8031 38.3991 9.80313 39.7991C7.00313 41.3991 5.20312 44.1991 5.20312 47.5991Z" fill="black"/>
<path d="M37.2031 8C37.8031 8 38.2031 7.6 38.2031 7C38.2031 6.4 37.6031 6 37.2031 6H11.2031C10.6031 6 10.2031 6.4 10.2031 7V11C10.2031 11.6 10.6031 12 11.2031 12H37.2031C37.8031 12 38.2031 11.6 38.2031 11C38.2031 10.4 37.6031 10 37.2031 10H12.2031V8H37.2031Z" fill="black"/>
<path d="M14.2031 14C13.6031 14 13.2031 14.4 13.2031 15C13.2031 15.6 13.6031 16 14.2031 16H34.2031C34.8031 16 35.2031 15.6 35.2031 15C35.2031 14.4 34.6031 14 34.2031 14H14.2031Z" fill="black"/>
<path d="M40.2031 21H18.2031C17.6031 21 17.2031 21.4 17.2031 22C17.2031 22.6 17.6031 23 18.2031 23H40.2031C40.8031 23 41.2031 22.6 41.2031 22C41.2031 21.4 40.6031 21 40.2031 21Z" fill="black"/>
<path d="M30.2031 28C30.2031 27.4 29.8031 27 29.2031 27H9.20312C8.60312 27 8.20312 27.4 8.20312 28C8.20312 28.6 8.60312 29 9.20312 29H29.2031C29.6031 29 30.2031 28.6 30.2031 28Z" fill="black"/>
<path d="M19.2031 34C19.8031 34 20.2031 33.6 20.2031 33C20.2031 32.4 19.6031 32 19.2031 32H9.20313C8.60313 32 8.20312 32.4 8.20312 33C8.20312 33.6 8.60313 34 9.20313 34H19.2031Z" fill="black"/>
<path d="M23.2031 34H30.2031C30.8031 34 31.2031 33.6 31.2031 33C31.2031 32.4 30.6031 32 30.2031 32H23.2031C22.6031 32 22.2031 32.4 22.2031 33C22.2031 33.6 22.6031 34 23.2031 34Z" fill="black"/>
<path d="M46.2031 52.4C45.6031 52.4 45.2031 52.8 45.2031 53.4V57C45.2031 57.6 44.8031 58 44.2031 58H4.20312C3.60312 58 3.20312 57.6 3.20312 57V3C3.20312 2.4 3.60312 2 4.20312 2H44.2031C44.8031 2 45.2031 2.4 45.2031 3V21.8C45.2031 22.4 45.6031 22.8 46.2031 22.8C46.8031 22.8 47.2031 22.4 47.2031 21.8V3C47.2031 1.4 45.8031 0 44.2031 0H4.20312C2.40312 0 1.20312 1.4 1.20312 3V57C1.20312 58.6 2.60312 60 4.20312 60H44.2031C45.8031 60 47.2031 58.6 47.2031 57V53.4C47.2031 53 46.6031 52.4 46.2031 52.4Z" fill="black"/>
<path d="M37.2031 27.1992L58.8031 39.3992L51.4031 41.5992L56.4031 48.1992L52.0031 51.3992L47.0031 44.9992L43.0031 51.3992L37.2031 27.1992Z" fill="#00B4D3"/>
</svg>
