<svg width="60" height="60" viewBox="0 0 60 60" fill="none" xmlns="http://www.w3.org/2000/svg">
<path d="M28.1011 56.802C26.6171 57.18 25.0591 57.372 23.4211 57.372C19.4651 57.372 15.9771 56.27 12.9551 54.066C9.93106 51.862 7.58706 48.7 5.92106 44.574C4.25306 40.45 3.42106 35.592 3.42106 29.998C3.42106 24.404 4.25306 19.546 5.92106 15.422C7.58706 11.3 9.93106 8.136 12.9551 5.932C15.9771 3.728 19.4651 2.626 23.4211 2.626C27.3751 2.626 30.8791 3.728 33.9291 5.932C36.9791 8.136 39.3391 11.3 41.0051 15.424C42.5671 19.292 43.3991 23.806 43.4951 28.966C43.7631 28.954 44.0331 28.946 44.3031 28.946C44.9751 28.946 45.6371 28.982 46.2911 29.048C46.1931 23.452 45.2371 18.502 43.4191 14.196C41.4971 9.648 38.8131 6.146 35.3691 3.688C31.9231 1.228 27.9411 0 23.4211 0C18.9571 0 14.9891 1.228 11.5151 3.686C8.03906 6.144 5.34106 9.648 3.42106 14.194C1.49906 18.744 0.539062 24.012 0.539062 30C0.539062 35.99 1.49906 41.258 3.42106 45.806C5.34106 50.354 8.03906 53.856 11.5151 56.314C14.9891 58.772 18.9571 60 23.4211 60C25.6691 60 27.7851 59.696 29.7671 59.088C29.1551 58.37 28.5971 57.606 28.1011 56.802Z" fill="#1D1D1B"/>
<path d="M30.3959 46.1775C29.1899 44.9235 28.5859 43.2095 28.5859 41.0395C28.5859 39.6155 28.8639 38.3735 29.4179 37.3115C29.9719 36.2495 30.7379 35.4355 31.7159 34.8695C32.6939 34.3035 33.8079 34.0195 35.0639 34.0195C36.9939 34.0195 38.5619 34.6535 39.7679 35.9195C40.9739 37.1855 41.5779 38.8935 41.5779 41.0395C41.5779 43.2115 40.9739 44.9235 39.7679 46.1775C38.5619 47.4315 36.9939 48.0595 35.0639 48.0595C33.1579 48.0575 31.6019 47.4315 30.3959 46.1775ZM50.0459 34.3435H55.2559L37.9579 59.6735H32.7479L50.0459 34.3435ZM36.6199 43.7515C37.0059 43.1715 37.1979 42.2675 37.1979 41.0375C37.1979 39.8075 37.0039 38.9015 36.6199 38.3235C36.2339 37.7435 35.7159 37.4555 35.0639 37.4555C34.4359 37.4555 33.9239 37.7515 33.5259 38.3415C33.1279 38.9335 32.9299 39.8315 32.9299 41.0375C32.9299 42.2435 33.1279 43.1435 33.5259 43.7335C33.9239 44.3255 34.4359 44.6195 35.0639 44.6195C35.7159 44.6215 36.2339 44.3315 36.6199 43.7515ZM48.2539 58.1175C47.0599 56.8635 46.4619 55.1495 46.4619 52.9795C46.4619 50.8335 47.0639 49.1255 48.2719 47.8595C49.4779 46.5935 51.0339 45.9595 52.9399 45.9595C54.8699 45.9595 56.4379 46.5935 57.6439 47.8595C58.8499 49.1255 59.4539 50.8335 59.4539 52.9795C59.4539 55.1515 58.8499 56.8635 57.6439 58.1175C56.4379 59.3735 54.8699 59.9995 52.9399 59.9995C51.0099 59.9995 49.4479 59.3735 48.2539 58.1175ZM54.4959 55.6935C54.8819 55.1135 55.0759 54.2095 55.0759 52.9795C55.0759 51.7495 54.8819 50.8435 54.4959 50.2655C54.1099 49.6855 53.5919 49.3975 52.9399 49.3975C52.2879 49.3975 51.7699 49.6875 51.3839 50.2655C50.9979 50.8435 50.8039 51.7495 50.8039 52.9795C50.8039 54.2095 50.9959 55.1135 51.3839 55.6935C51.7699 56.2715 52.2879 56.5615 52.9399 56.5615C53.5919 56.5615 54.1099 56.2715 54.4959 55.6935Z" fill="#00B4D3"/>
</svg>
