<svg width="20" height="20" fill="none" xmlns="http://www.w3.org/2000/svg"><path d="M10.002.085C4.524.085.085 4.524.085 10.001c0 5.476 4.439 9.915 9.915 9.915 5.477 0 9.916-4.439 9.916-9.915 0-5.477-4.439-9.916-9.916-9.916zm3.881 12.447a.902.902 0 010 1.266.902.902 0 01-1.265 0l-2.591-2.59-2.6 2.59a.902.902 0 01-1.265 0 .902.902 0 010-1.266l2.59-2.59-2.59-2.6a.902.902 0 010-1.265.902.902 0 011.266 0l2.59 2.59 2.6-2.59a.902.902 0 011.265 0 .902.902 0 010 1.265l-2.59 2.591 2.59 2.6z" fill="#E43535"/></svg>