<svg width="25" height="50" fill="none" xmlns="http://www.w3.org/2000/svg"><path d="M23.43 44.604l-.698 2.856c-2.096.827-3.77 1.457-5.017 1.89-1.248.434-2.698.65-4.35.65-2.537 0-4.511-.621-5.919-1.856-1.407-1.24-2.111-2.81-2.111-4.716 0-.737.051-1.496.157-2.269.107-.774.278-1.645.51-2.62l2.62-9.27a44 44 0 00.59-2.525c.16-.79.238-1.517.238-2.172 0-1.184-.245-2.012-.733-2.478-.488-.464-1.42-.7-2.802-.7-.677 0-1.373.109-2.082.318-.713.211-1.322.414-1.833.604l.7-2.859a65.604 65.604 0 014.925-1.793c1.57-.498 3.052-.747 4.454-.747 2.52 0 4.464.609 5.83 1.827 1.365 1.219 2.047 2.799 2.047 4.746 0 .403-.045 1.113-.14 2.127a14.237 14.237 0 01-.526 2.796l-2.608 9.234a24.7 24.7 0 00-.573 2.543c-.172.948-.255 1.672-.255 2.158 0 1.226.274 2.063.822 2.508.552.445 1.503.666 2.853.666.634 0 1.356-.112 2.157-.333.8-.221 1.383-.415 1.744-.585zm.662-38.765c0 1.609-.606 2.983-1.825 4.112-1.215 1.134-2.68 1.701-4.393 1.701-1.718 0-3.186-.567-4.415-1.7-1.227-1.13-1.842-2.504-1.842-4.113 0-1.606.614-2.982 1.841-4.126C14.686.571 16.157 0 17.875 0c1.713 0 3.178.572 4.393 1.713 1.22 1.144 1.825 2.52 1.825 4.126z" fill="#00B5D3"/></svg>