<svg width="21" height="17" viewBox="0 0 21 17" fill="none" xmlns="http://www.w3.org/2000/svg">
<path d="M0.333404 0.709531C1.19154 0.709531 2.05741 0.709531 2.91555 0.709531C3.34848 0.709531 3.65772 0.755916 3.98242 1.10381C4.19115 1.33574 4.33031 1.59859 4.41535 1.89237C4.91013 3.58545 5.41265 5.27853 5.90743 6.97161C6.37129 8.53327 6.81195 10.1104 7.29127 11.6643C7.59278 12.6384 8.42772 13.1718 9.42502 13.1718C10.1749 13.1718 10.9248 13.1718 11.6747 13.1718C13.5765 13.1718 15.4784 13.1718 17.3802 13.1718C17.8286 13.1718 17.8286 12.4761 17.3802 12.4761C15.7489 12.4761 14.1177 12.4761 12.4787 12.4761C11.5588 12.4761 10.6465 12.4761 9.72652 12.4761C9.5719 12.4761 9.41728 12.4838 9.26266 12.4761C8.63646 12.4529 8.15714 12.0818 7.96386 11.4942C7.46135 9.97122 7.05161 8.40184 6.60321 6.86338C6.1007 5.15483 5.59819 3.43856 5.09568 1.73002C4.99517 1.39759 4.85602 1.10381 4.64728 0.825495C4.26073 0.29979 3.78141 0.0369368 3.13974 0.0137439C2.2043 -0.0171799 1.26885 0.0137439 0.333404 0.0137439C-0.107261 0.0137439 -0.114992 0.709531 0.333404 0.709531Z" fill="#151515"/>
<path d="M8.09526 16.9059C7.17528 16.9059 6.43311 16.156 6.43311 15.2437C6.43311 14.3314 7.18301 13.5815 8.09526 13.5815C9.00752 13.5815 9.75742 14.3314 9.75742 15.2437C9.75742 16.156 9.00752 16.9059 8.09526 16.9059ZM8.09526 14.2773C7.56183 14.2773 7.12889 14.7103 7.12889 15.2437C7.12889 15.7771 7.56183 16.2101 8.09526 16.2101C8.6287 16.2101 9.06163 15.7771 9.06163 15.2437C9.06163 14.7103 8.6287 14.2773 8.09526 14.2773Z" fill="#151515"/>
<path d="M16.2437 16.9059C15.3237 16.9059 14.5815 16.156 14.5815 15.2437C14.5815 14.3314 15.3314 13.5815 16.2437 13.5815C17.156 13.5815 17.9059 14.3314 17.9059 15.2437C17.9059 16.156 17.1637 16.9059 16.2437 16.9059ZM16.2437 14.2773C15.7103 14.2773 15.2773 14.7103 15.2773 15.2437C15.2773 15.7771 15.7103 16.2101 16.2437 16.2101C16.7771 16.2101 17.2101 15.7771 17.2101 15.2437C17.2101 14.7103 16.7771 14.2773 16.2437 14.2773Z" fill="#151515"/>
<path d="M19.1969 1.7146H6.1006C5.52851 1.7146 5.11877 2.2635 5.28885 2.79694L7.35302 9.79346C7.46125 10.1414 7.79368 10.381 8.16477 10.381H17.0476C17.4187 10.381 17.7512 10.1414 17.8594 9.78573L20.0086 2.7892C20.1787 2.2635 19.7689 1.7146 19.1969 1.7146ZM15.7566 8.12357C15.7566 8.37096 15.5556 8.56424 15.3159 8.56424H9.52542C9.27803 8.56424 9.08475 8.36323 9.08475 8.12357C9.08475 7.87618 9.28576 7.68291 9.52542 7.68291H15.3159C15.5556 7.67518 15.7566 7.87618 15.7566 8.12357ZM16.0967 6.50007H8.99198C8.74459 6.50007 8.55132 6.29906 8.55132 6.0594C8.55132 5.81201 8.75232 5.61874 8.99198 5.61874H16.0967C16.3441 5.61874 16.5374 5.81974 16.5374 6.0594C16.5451 6.29906 16.3441 6.50007 16.0967 6.50007ZM16.8544 4.42817H8.45855C8.21116 4.42817 8.01788 4.22716 8.01788 3.9875C8.01788 3.74011 8.21889 3.54684 8.45855 3.54684H16.8621C17.1095 3.54684 17.3028 3.74784 17.3028 3.9875C17.3028 4.2349 17.1018 4.42817 16.8544 4.42817Z" fill="#00B4D3"/>
</svg>
