<svg width="20" height="20" viewBox="0 0 20 20" fill="none" xmlns="http://www.w3.org/2000/svg">
<g clip-path="url(#clip0)">
<path d="M18.6667 19.8666C17.9334 20.2666 17 19.9333 16.5334 19.0666L13.8667 14.0666C13.8667 14.0666 14.7334 13.8 15.2667 13.4666C15.8 13.2 16.5334 12.6 16.5334 12.6L19.2 17.6C19.6667 18.4666 19.4 19.4666 18.6667 19.8666Z" fill="#00B4D3"/>
<path d="M11.7999 13.6C11.1332 13.6 10.4666 13.5333 9.7999 13.3333C6.1999 12.2667 4.13324 8.46667 5.26657 4.86668C6.33324 1.26668 10.1332 -0.799991 13.7332 0.333342C17.3332 1.40001 19.3332 5.20001 18.2666 8.80001C17.7332 10.5333 16.5999 12 14.9999 12.8667C13.9999 13.3333 12.8666 13.6 11.7999 13.6ZM11.7332 0.666675C9.13324 0.666675 6.66657 2.40001 5.86657 5.06668C4.86657 8.26667 6.73324 11.7333 9.9999 12.6667C11.5332 13.1333 13.1999 13 14.6666 12.2C16.1332 11.4 17.1332 10.1333 17.5999 8.60001C18.5999 5.40001 16.7332 1.93334 13.4666 1.00001C12.9332 0.800009 12.3332 0.666675 11.7332 0.666675Z" fill="#00B4D3"/>
<path d="M13.3334 19H0.933431C0.733431 19 0.600098 18.8667 0.600098 18.6667C0.600098 18.4667 0.733431 18.3334 0.933431 18.3334H13.3334C13.5334 18.3334 13.6668 18.4667 13.6668 18.6667C13.6668 18.8667 13.5334 19 13.3334 19Z" fill="#151515"/>
<path d="M12.2668 17H0.933431C0.733431 17 0.600098 16.8667 0.600098 16.6667C0.600098 16.4667 0.733431 16.3334 0.933431 16.3334H12.2668C12.4668 16.3334 12.6001 16.4667 12.6001 16.6667C12.6001 16.8667 12.4668 17 12.2668 17Z" fill="#151515"/>
<path d="M11.2001 15H0.933431C0.733431 15 0.600098 14.8667 0.600098 14.6667C0.600098 14.4667 0.733431 14.3334 0.933431 14.3334H11.2001C11.4001 14.3334 11.5334 14.4667 11.5334 14.6667C11.5334 14.8667 11.4001 15 11.2001 15Z" fill="#151515"/>
<path d="M5.26676 12.9333H0.933431C0.733431 12.9333 0.600098 12.7999 0.600098 12.5999C0.600098 12.3999 0.733431 12.2666 0.933431 12.2666H5.26676C5.46676 12.2666 5.6001 12.3999 5.6001 12.5999C5.6001 12.7999 5.46676 12.9333 5.26676 12.9333Z" fill="#151515"/>
<path d="M3.4001 10.9333H0.933431C0.733431 10.9333 0.600098 10.7999 0.600098 10.5999C0.600098 10.3999 0.733431 10.2666 0.933431 10.2666H3.4001C3.6001 10.2666 3.73343 10.3999 3.73343 10.5999C3.73343 10.7999 3.6001 10.9333 3.4001 10.9333Z" fill="#151515"/>
<path d="M2.53343 8.93327H0.933431C0.733431 8.93327 0.600098 8.79993 0.600098 8.59993C0.600098 8.39993 0.733431 8.2666 0.933431 8.2666H2.6001C2.8001 8.2666 2.93343 8.39993 2.93343 8.59993C2.93343 8.79993 2.73343 8.93327 2.53343 8.93327Z" fill="#151515"/>
<path d="M2.53343 6.93327H0.933431C0.733431 6.93327 0.600098 6.79994 0.600098 6.59994C0.600098 6.39993 0.733431 6.2666 0.933431 6.2666H2.6001C2.8001 6.2666 2.93343 6.39993 2.93343 6.59994C2.93343 6.79994 2.73343 6.93327 2.53343 6.93327Z" fill="#151515"/>
</g>
<defs>
<clipPath id="clip0">
<rect width="20" height="20" fill="white"/>
</clipPath>
</defs>
</svg>
