<svg width="16" height="20" viewBox="0 0 16 20" fill="none" xmlns="http://www.w3.org/2000/svg">
<path d="M4.80065 0.703477C7.69976 0.703477 10.5911 0.703477 13.4903 0.703477C13.9 0.703477 14.3097 0.703477 14.7195 0.703477C14.6035 0.587513 14.4875 0.471548 14.3716 0.355584C14.3716 2.52798 14.3716 4.70038 14.3716 6.87279C14.3716 10.3363 14.3716 13.792 14.3716 17.2555C14.3716 18.044 14.3716 18.8403 14.3716 19.6289C14.4875 19.5129 14.6035 19.3969 14.7195 19.281C11.8204 19.281 8.92899 19.281 6.02988 19.281C5.62013 19.281 5.21039 19.281 4.80065 19.281C4.35226 19.281 4.35226 19.9768 4.80065 19.9768C7.69976 19.9768 10.5911 19.9768 13.4903 19.9768C13.9 19.9768 14.3097 19.9768 14.7195 19.9768C14.905 19.9768 15.0674 19.8144 15.0674 19.6289C15.0674 17.4565 15.0674 15.2841 15.0674 13.1117C15.0674 9.6482 15.0674 6.19246 15.0674 2.72899C15.0674 1.94043 15.0674 1.14414 15.0674 0.355584C15.0674 0.170041 14.905 0.00769043 14.7195 0.00769043C11.8204 0.00769043 8.92899 0.00769043 6.02988 0.00769043C5.62013 0.00769043 5.21039 0.00769043 4.80065 0.00769043C4.35999 0.00769043 4.35226 0.703477 4.80065 0.703477Z" fill="#151515"/>
<path d="M5.94447 6.39346C6.67886 6.39346 7.2742 5.79812 7.2742 5.06373C7.2742 4.32935 6.67886 3.73401 5.94447 3.73401C5.21008 3.73401 4.61475 4.32935 4.61475 5.06373C4.61475 5.79812 5.21008 6.39346 5.94447 6.39346Z" fill="#00B5D3"/>
<path d="M4.267 13.9467L3.18467 12.501L2.68989 14.3873C2.67443 14.4105 2.65123 14.426 2.63577 14.4492L1.12824 16.4824C0.904038 16.7839 0.934961 17.2169 1.22101 17.4643C1.53798 17.7271 2.00183 17.673 2.24922 17.3483L3.77222 15.2996C3.77995 15.2841 3.79541 15.2687 3.80314 15.2532C3.90365 15.1682 3.98096 15.0522 4.01188 14.913L4.267 13.9467Z" fill="#00B5D3"/>
<path d="M9.16854 10.7382C9.16854 10.7382 7.52185 9.99608 7.26672 9.75642C6.90337 9.41625 6.73329 8.29526 6.47817 7.81594C6.33901 7.54536 6.11481 6.89596 5.30306 6.83411C4.6382 6.78773 3.81872 7.24385 3.72595 7.33663L1.83959 8.89055C1.77775 8.9524 1.73909 9.02197 1.70817 9.09155C1.68498 9.14567 1.66951 9.20752 1.66178 9.26937L1.40666 11.6969C1.37574 11.9984 1.59993 12.2767 1.90144 12.3076H1.9169C2.21841 12.3386 2.49673 12.1144 2.52765 11.8129C2.52765 11.8129 2.69773 10.0888 2.82916 9.76415C2.92193 9.56314 3.47083 9.08382 3.92695 8.71274L3.36259 11.3799C3.36259 11.3799 3.70275 11.9443 3.78779 12.0757L3.89603 12.2458L7.11984 17.2941C7.35176 17.6575 7.83881 17.7657 8.20217 17.5338L8.23309 17.5106C8.59645 17.2786 8.70468 16.7916 8.47275 16.4282L5.49634 11.7742L5.88288 9.71776L6.19212 10.3904C6.23078 10.4677 6.27716 10.5295 6.33901 10.5836C6.37766 10.6223 6.43178 10.6609 6.4859 10.6919L8.67376 11.751C8.94434 11.8824 9.27677 11.7665 9.4082 11.4959L9.41593 11.4804C9.55509 11.2021 9.43912 10.8697 9.16854 10.7382Z" fill="#00B5D3"/>
</svg>
