<svg width="16" height="20" viewBox="0 0 16 20" fill="none" xmlns="http://www.w3.org/2000/svg">
<path d="M4.80065 0.703477C7.69976 0.703477 10.5911 0.703477 13.4903 0.703477C13.9 0.703477 14.3097 0.703477 14.7195 0.703477C14.6035 0.587513 14.4875 0.471548 14.3716 0.355584C14.3716 2.52798 14.3716 4.70038 14.3716 6.87279C14.3716 10.3363 14.3716 13.792 14.3716 17.2555C14.3716 18.044 14.3716 18.8403 14.3716 19.6289C14.4875 19.5129 14.6035 19.3969 14.7195 19.281C11.8204 19.281 8.92899 19.281 6.02988 19.281C5.62013 19.281 5.21039 19.281 4.80065 19.281C4.35226 19.281 4.35226 19.9768 4.80065 19.9768C7.69976 19.9768 10.5911 19.9768 13.4903 19.9768C13.9 19.9768 14.3097 19.9768 14.7195 19.9768C14.905 19.9768 15.0674 19.8144 15.0674 19.6289C15.0674 17.4565 15.0674 15.2841 15.0674 13.1117C15.0674 9.6482 15.0674 6.19246 15.0674 2.72899C15.0674 1.94043 15.0674 1.14414 15.0674 0.355584C15.0674 0.170041 14.905 0.00769043 14.7195 0.00769043C11.8204 0.00769043 8.92899 0.00769043 6.02988 0.00769043C5.62013 0.00769043 5.21039 0.00769043 4.80065 0.00769043C4.35999 0.00769043 4.35226 0.703477 4.80065 0.703477Z" fill="#151515"/>
<path d="M4.5111 6.39346C3.77671 6.39346 3.18137 5.79812 3.18137 5.06373C3.18137 4.32935 3.77671 3.73401 4.5111 3.73401C5.24548 3.73401 5.84082 4.32935 5.84082 5.06373C5.84082 5.79812 5.24548 6.39346 4.5111 6.39346Z" fill="#00B5D3"/>
<path d="M6.18856 13.9467L7.2709 12.501L7.76568 14.3873C7.78114 14.4105 7.80433 14.426 7.8198 14.4492L9.32733 16.4824C9.55153 16.7839 9.5206 17.2169 9.23456 17.4643C8.91759 17.7271 8.45373 17.673 8.20634 17.3483L6.68335 15.2996C6.67561 15.2841 6.66015 15.2687 6.65242 15.2532C6.55192 15.1682 6.47461 15.0522 6.44369 14.913L6.18856 13.9467Z" fill="#00B5D3"/>
<path d="M1.28703 10.7382C1.28703 10.7382 2.93372 9.99608 3.18884 9.75642C3.5522 9.41625 3.72228 8.29526 3.9774 7.81594C4.11656 7.54536 4.34075 6.89596 5.1525 6.83411C5.81737 6.78773 6.63685 7.24385 6.72962 7.33663L8.61597 8.89055C8.67782 8.9524 8.71647 9.02197 8.7474 9.09155C8.77059 9.14567 8.78605 9.20752 8.79378 9.26937L9.04891 11.6969C9.07983 11.9984 8.85563 12.2767 8.55412 12.3076H8.53866C8.23716 12.3386 7.95884 12.1144 7.92792 11.8129C7.92792 11.8129 7.75784 10.0888 7.62641 9.76415C7.53364 9.56314 6.98474 9.08382 6.52861 8.71274L7.09297 11.3799C7.09297 11.3799 6.75281 11.9443 6.66777 12.0757L6.55954 12.2458L3.33573 17.2941C3.1038 17.6575 2.61675 17.7657 2.2534 17.5338L2.22247 17.5106C1.85912 17.2786 1.75089 16.7916 1.98281 16.4282L4.95923 11.7742L4.57268 9.71776L4.26344 10.3904C4.22479 10.4677 4.1784 10.5295 4.11656 10.5836C4.0779 10.6223 4.02379 10.6609 3.96967 10.6919L1.78181 11.751C1.51123 11.8824 1.17879 11.7665 1.04737 11.4959L1.03964 11.4804C0.900479 11.2021 1.01644 10.8697 1.28703 10.7382Z" fill="#00B5D3"/>
</svg>
