<svg width="24" height="20" viewBox="0 0 24 20" fill="none" xmlns="http://www.w3.org/2000/svg">
<path d="M16.088 9.03748C13.3589 9.03748 11.1401 11.2485 11.1401 13.9853C11.1401 16.722 13.3512 18.9331 16.088 18.9331C18.817 18.9331 21.0358 16.722 21.0358 13.9853C21.0358 11.2485 18.8247 9.03748 16.088 9.03748ZM18.6314 12.5241L15.052 16.1036C14.967 16.1886 14.851 16.235 14.735 16.235C14.7196 16.235 14.7041 16.235 14.6886 16.235C14.5572 16.2195 14.4335 16.15 14.3639 16.034L13.4672 14.6888C13.328 14.4801 13.3898 14.2018 13.5909 14.0703C13.7996 13.9312 14.0779 13.993 14.2093 14.194L14.8046 15.0831L17.9975 11.8902C18.1753 11.7124 18.4536 11.7124 18.6314 11.8902C18.8093 12.068 18.8093 12.3541 18.6314 12.5241Z" fill="#00B4D3"/>
<path d="M10.8388 9.98063C9.8415 9.98063 8.91379 9.40081 8.23346 8.35713C7.57633 7.3521 7.2207 6.03011 7.2207 4.62308C7.2207 1.45338 9.03748 0.0308838 10.8465 0.0308838C12.6556 0.0308838 14.4724 1.45338 14.4724 4.62308C14.4724 6.03011 14.109 7.3521 13.4596 8.35713C12.7561 9.40081 11.8361 9.98063 10.8388 9.98063ZM10.8388 0.718939C9.06067 0.718939 7.90876 2.24967 7.90876 4.61534C7.90876 7.18975 9.22302 9.28485 10.8388 9.28485C12.4546 9.28485 13.7688 7.18975 13.7688 4.61534C13.7688 2.24967 12.6169 0.718939 10.8388 0.718939Z" fill="#151515"/>
<path d="M7.98621 9.74106C7.95529 9.81837 8.01714 9.67148 7.98621 9.74106C7.96302 9.77971 7.94756 9.8261 7.91664 9.87248C7.83159 10.0271 7.73109 10.1585 7.6074 10.29C7.159 10.7615 6.53279 10.9935 5.89112 11.0399C5.38088 11.0785 4.93248 11.1094 4.47636 11.3646C4.08981 11.581 3.78057 11.898 3.53318 12.2614C2.96882 13.0576 2.70597 14.0704 2.55135 15.0213C2.389 16.0031 2.32715 17.0004 2.32715 17.99C2.32715 18.5312 2.34261 19.0801 2.389 19.629C2.40446 19.8145 2.53588 19.9769 2.73689 19.9769C5.51231 19.9769 8.29545 19.9769 11.0709 19.9769C11.4729 19.9769 11.8672 19.9769 12.2692 19.9769C12.7176 19.9769 12.7176 19.2811 12.2692 19.2811C9.49375 19.2811 6.7106 19.2811 3.93519 19.2811C3.53318 19.2811 3.1389 19.2811 2.73689 19.2811C2.85285 19.397 2.96882 19.513 3.08478 19.629C2.96109 18.2761 2.99201 16.869 3.17755 15.5238C3.30898 14.5729 3.52545 13.5756 4.03569 12.7561C4.24443 12.4237 4.52274 12.1222 4.87837 11.9367C5.36542 11.6893 5.91432 11.7666 6.43229 11.6661C7.36774 11.4805 8.32638 10.862 8.65881 9.9266C8.8057 9.50913 8.1331 9.32358 7.98621 9.74106Z" fill="#151515"/>
<path d="M5.75977 16.034C5.75977 17.2323 5.75977 18.4306 5.75977 19.6289C5.75977 20.0773 6.45555 20.0773 6.45555 19.6289C6.45555 18.4306 6.45555 17.2323 6.45555 16.034C6.45555 15.5857 5.75977 15.5857 5.75977 16.034Z" fill="#151515"/>
</svg>
