<svg width="62" height="62" viewBox="0 0 62 62" fill="none" xmlns="http://www.w3.org/2000/svg">
<path d="M33.2123 0C31.6435 0 31.2258 2.62763 31.0185 4.16351C30.6108 6.94435 29.8315 10.4048 26.9235 11.9679C25.7823 12.5812 24.6665 12.9493 23.9022 13.4533C23.1378 13.9572 22.7396 14.5343 22.7396 15.5582V30.0892C22.7396 31.1602 23.6691 32.0348 24.8265 32.0348H43.7717C44.8673 32.0348 45.4464 31.0524 45.9151 29.734C47.1788 26.0535 50.4656 17.4905 50.5873 15.9841C50.5873 14.913 49.6827 14.0386 48.5085 14.0386H38.2579C37.6631 14.0408 37.1799 13.5576 37.1822 12.9629C37.2169 8.5046 37.1876 0 33.2123 0ZM13.4416 14.4906C12.8513 14.4906 12.4123 14.9639 12.4123 15.53V30.9954C12.4123 31.5857 12.8836 32.0348 13.4416 32.0348H19.6437C20.234 32.0348 20.673 31.5572 20.673 30.9954V15.53C20.673 14.9682 20.234 14.4906 19.6437 14.4906H13.4416ZM15.5083 27.8995C16.079 27.8995 16.5416 28.3621 16.5416 28.9328C16.5416 29.5035 16.079 29.9661 15.5083 29.9661C14.9376 29.9661 14.475 29.5035 14.475 28.9328C14.475 28.3621 14.9376 27.8995 15.5083 27.8995ZM31.0185 36.166C30.631 36.1627 30.2758 36.3918 30.1042 36.7553L26.9779 43.381L19.9888 44.4446C19.1611 44.5711 18.8298 45.6351 19.4277 46.2469L24.4854 51.4074L23.2886 58.689C23.1444 59.5527 24.0095 60.2138 24.7518 59.8071L31.0023 56.3661L37.2568 59.8051C37.999 60.2131 38.8661 59.5516 38.7221 58.687L37.5273 51.4034L42.589 46.2429C43.1907 45.6298 42.8572 44.5611 42.0259 44.4386L35.0388 43.381L31.9125 36.7533C31.7439 36.3971 31.3984 36.1702 31.0185 36.166ZM53.2355 44.4238C52.8465 44.4198 52.4894 44.6483 52.3172 45.0131L50.1516 49.6045L45.3078 50.3391C44.4807 50.4668 44.1508 51.5303 44.7488 52.1413L48.2524 55.7176L47.4229 60.7611C47.2801 61.626 48.1485 62.2852 48.8902 61.8751L53.2213 59.4956L57.5525 61.8751C58.2933 62.2792 59.1565 61.6209 59.0157 60.759L58.1922 55.7136L61.6959 52.1373C62.2919 51.5257 61.9624 50.4648 61.1368 50.3371L56.2951 49.6045L54.1275 45.0151C53.9602 44.6581 53.6155 44.4295 53.2355 44.4238ZM8.79172 44.4316C8.40324 44.4277 8.04623 44.6546 7.87342 45.0189L5.70786 49.6103L0.866107 50.3429C0.0356152 50.4694 -0.294193 51.5391 0.309072 52.1491L3.81071 55.7193L2.98122 60.7628C2.8416 61.6251 3.70615 62.2813 4.44646 61.8748L8.7776 59.4954L13.1067 61.8748C13.8481 62.2816 14.714 61.6221 14.572 60.7587L13.7465 55.7194L17.2481 52.1411C17.8439 51.5301 17.5159 50.47 16.6911 50.3408L11.8494 49.6082L9.6858 45.0209C9.51767 44.6639 9.1721 44.4362 8.79172 44.4316Z" fill="#00B5D3"/>
</svg>
