<?xml version="1.0" encoding="utf-8"?>
<!-- Generator: Adobe Illustrator 24.3.0, SVG Export Plug-In . SVG Version: 6.00 Build 0)  -->
<svg version="1.1" id="Слой_1" xmlns="http://www.w3.org/2000/svg" xmlns:xlink="http://www.w3.org/1999/xlink" x="0px" y="0px"
	 viewBox="0 0 30 30" style="enable-background:new 0 0 30 30;" xml:space="preserve">
<style type="text/css">
	.st0{fill:#151515;}
	.st1{fill:#00B4D3;}
</style>
<g>
	<g>
		<path class="st0" d="M22.695,30H7.275c-0.405,0-0.734-0.329-0.734-0.734v-2.209c0-0.405,0.329-0.734,0.734-0.734h15.42
			c0.405,0,0.734,0.329,0.734,0.734v2.209C23.429,29.671,23.1,30,22.695,30z M7.586,28.956h14.8v-1.589h-14.8V28.956z"/>
	</g>
	<g>
		<path class="st0" d="M21.267,26.936H8.704l-0.004-3.079c-0.001-0.57,0.382-1.068,0.931-1.212c1.167-0.305,3.124-1.13,3.124-3.222
			c0-1.764-1.229-2.906-2.531-4.116c-0.897-0.833-1.824-1.695-2.417-2.812C6.384,9.818,6.32,3.884,6.358,1.457
			C6.371,0.653,7.035,0,7.839,0h14.29c0.805,0,1.47,0.655,1.481,1.459c0.035,2.452-0.04,8.448-1.475,11.156
			c-0.652,1.23-1.573,2.056-2.465,2.856c-1.259,1.13-2.347,2.105-2.347,4.012c0,2.24,1.841,2.94,2.938,3.158
			c0.586,0.116,1.011,0.634,1.01,1.231L21.267,26.936z M9.746,25.892h10.478l0.004-2.022c0-0.099-0.071-0.185-0.169-0.205
			c-1.136-0.225-3.779-1.084-3.779-4.182c0-2.372,1.37-3.601,2.694-4.789c0.823-0.739,1.675-1.502,2.239-2.568
			c1.359-2.565,1.38-8.802,1.353-10.652c-0.003-0.237-0.199-0.43-0.437-0.43H7.839c-0.237,0-0.433,0.193-0.437,0.429
			c-0.029,1.83-0.019,8,1.326,10.531c0.511,0.961,1.373,1.762,2.206,2.537c1.408,1.309,2.864,2.662,2.864,4.881
			c0,2.898-2.73,3.926-3.904,4.233c-0.089,0.023-0.151,0.106-0.151,0.2L9.746,25.892z"/>
	</g>
	<g>
		<rect x="13.148" y="17.544" class="st0" width="3.609" height="1.044"/>
	</g>
	<g>
		<rect x="13.148" y="20.047" class="st0" width="3.609" height="1.044"/>
	</g>
	<path class="st1" d="M15.314,4.042l1.01,2.046c0.05,0.101,0.146,0.171,0.258,0.187l2.258,0.328c0.281,0.041,0.393,0.386,0.19,0.584
		L17.396,8.78c-0.081,0.079-0.117,0.192-0.098,0.303l0.386,2.249c0.048,0.279-0.245,0.493-0.496,0.361l-2.02-1.062
		c-0.1-0.052-0.219-0.052-0.318,0l-2.02,1.062c-0.251,0.132-0.544-0.081-0.496-0.361l0.386-2.249
		c0.019-0.111-0.018-0.224-0.098-0.303l-1.634-1.593c-0.203-0.198-0.091-0.543,0.19-0.584l2.258-0.328
		c0.111-0.016,0.208-0.086,0.258-0.187l1.01-2.046C14.826,3.788,15.189,3.788,15.314,4.042z"/>
	<g>
		<path class="st0" d="M22.181,12.515l-0.276-1.007c2.507-0.687,3.491-2.227,3.964-2.967l0.059-0.093
			c0.393-0.61,0.904-2.441,0.362-4.107c-0.45-1.384-3.057-0.99-3.083-0.986l-0.172-1.03c0.144-0.024,3.516-0.559,4.248,1.693
			c0.635,1.952,0.103,4.096-0.478,4.996l-0.057,0.089C26.248,9.887,25.076,11.721,22.181,12.515z"/>
	</g>
	<g>
		<path class="st0" d="M7.819,12.515c-2.894-0.794-4.067-2.628-4.568-3.411L3.194,9.014c-0.58-0.9-1.112-3.044-0.478-4.996
			c0.732-2.251,4.105-1.716,4.248-1.693l-0.172,1.03l0.086-0.515L6.793,3.356C6.767,3.352,4.157,2.965,3.709,4.342
			C3.167,6.008,3.678,7.838,4.071,8.448l0.059,0.093c0.473,0.74,1.457,2.279,3.964,2.967L7.819,12.515z"/>
	</g>
</g>
</svg>
