<svg width="105" height="58" viewBox="0 0 105 58" fill="none" xmlns="http://www.w3.org/2000/svg">
<path d="M63.4123 44.9813H0V0.219727H63.4123V44.9813ZM2.03493 42.9464H61.3739V2.25466H2.03493V42.9464Z" fill="#151515"/>
<path d="M18.9315 57.7802C14.8408 57.7802 11.5128 54.4522 11.5128 50.3615C11.5128 46.2709 14.8408 42.9429 18.9315 42.9429C23.0221 42.9429 26.3501 46.2709 26.3501 50.3615C26.3501 54.4522 23.0221 57.7802 18.9315 57.7802ZM18.9315 44.9813C15.964 44.9813 13.5512 47.3941 13.5512 50.3615C13.5512 53.329 15.964 55.7418 18.9315 55.7418C21.8989 55.7418 24.3117 53.329 24.3117 50.3615C24.3152 47.3941 21.8989 44.9813 18.9315 44.9813Z" fill="#151515"/>
<path d="M85.987 57.7802C81.8964 57.7802 78.5684 54.4522 78.5684 50.3615C78.5684 46.2709 81.8964 42.9429 85.987 42.9429C90.0777 42.9429 93.4057 46.2709 93.4057 50.3615C93.4057 54.4522 90.0777 57.7802 85.987 57.7802ZM85.987 44.9813C83.0196 44.9813 80.6068 47.3941 80.6068 50.3615C80.6068 53.329 83.0196 55.7418 85.987 55.7418C88.9545 55.7418 91.3673 53.329 91.3673 50.3615C91.3673 47.3941 88.9545 44.9813 85.987 44.9813Z" fill="#151515"/>
<path d="M93.198 51.7032L92.9692 49.6786C95.687 49.3701 100.166 48.7496 101.955 48.2642C102.021 46.1461 101.816 38.8106 101.643 37.7152C101.32 37.209 99.1502 35.3474 94.4078 32.7301C90.2478 30.4352 84.6977 24.4656 81.023 20.517C79.9484 19.3626 79.0193 18.3642 78.3849 17.7368C75.979 15.369 73.7708 15.3725 73.6806 15.3725H73.6564H62.6809V13.3376H73.6494C73.9788 13.3306 76.8665 13.3826 79.8166 16.2842C80.4822 16.9394 81.4252 17.9552 82.5172 19.1269C86.1017 22.9818 91.5236 28.8058 95.3958 30.9448C97.195 31.9362 103.102 35.3197 103.605 37.1362C103.796 37.8192 103.917 42.1421 103.952 43.449C103.99 44.9258 104.007 46.2848 104.007 47.2797C104.004 49.1552 104 49.6578 103.303 49.9594C101.456 50.7464 94.0369 51.6061 93.198 51.7032Z" fill="#151515"/>
<path d="M72.2383 32.1338C71.2469 32.1338 70.3594 31.7421 69.6765 30.9967C68.9069 30.1613 68.6365 28.8509 68.6365 27.9842V18.177H80.8079V20.2119H70.6714V27.9842C70.6714 28.5943 70.8933 29.3119 71.1741 29.617C71.4791 29.9498 71.8293 30.1023 72.2626 30.0954C74.2802 30.0677 86.0703 29.9775 86.1882 29.9775H86.2229L86.2575 29.981C86.5245 29.9949 87.3218 29.9255 87.6997 29.4783C88.1573 28.9341 88.4069 27.9045 88.4623 27.5543L90.473 27.8698C90.4453 28.057 90.1645 29.7175 89.2562 30.7922C88.2093 32.0333 86.5141 32.0298 86.1778 32.0159C85.533 32.0194 74.2559 32.1061 72.2938 32.1338C72.2765 32.1338 72.2557 32.1338 72.2383 32.1338Z" fill="#151515"/>
<path d="M75.3169 36.5125H70.7444C70.1828 36.5125 69.7252 36.0584 69.7252 35.4933C69.7252 34.9317 70.1793 34.4741 70.7444 34.4741H75.3169C75.8785 34.4741 76.3362 34.9283 76.3362 35.4933C76.3362 36.0584 75.8785 36.5125 75.3169 36.5125Z" fill="#151515"/>
<path d="M103.56 37.7878H98.6476V39.8228H103.56V37.7878Z" fill="#151515"/>
<path d="M79.4491 51.9736H67.1459C66.5913 51.9736 66.0539 51.8349 65.5929 51.5715C63.4054 50.3269 61.887 48.1949 61.4294 45.7197C61.3947 45.5395 61.3809 45.3523 61.3809 45.1477V43.3728H63.4158V45.1477C63.4158 45.224 63.4227 45.2933 63.4331 45.3488C63.7798 47.2312 64.9377 48.8571 66.6017 49.8C66.7577 49.8901 66.9483 49.9352 67.1494 49.9352H79.4526V51.9736H79.4491Z" fill="#151515"/>
<path d="M64.6846 48.479H25.7955V50.5139H64.6846V48.479Z" fill="#151515"/>
<path d="M12.2997 50.514H6.43754C5.87594 50.514 5.41833 50.0599 5.41833 49.4948C5.41833 48.9332 5.87247 48.4756 6.43754 48.4756H12.2997C12.8613 48.4756 13.3189 48.9297 13.3189 49.4948C13.3189 50.0599 12.8613 50.514 12.2997 50.514Z" fill="#151515"/>
<path d="M27.8062 20.4789L34.3235 13.9616C35.1105 13.1746 35.1105 11.9024 34.3235 11.1154L31.7062 8.49463L19.1187 21.0821C17.8499 22.3509 18.7478 24.5176 20.5401 24.5176H31.8483L27.8062 20.4789Z" fill="#00B0CE"/>
<path d="M42.8724 20.5137H31.5642L35.6063 24.5558L29.089 31.0731C28.302 31.8601 28.302 33.1323 29.089 33.9193L31.7063 36.5366L44.2938 23.9491C45.5626 22.6803 44.6647 20.5137 42.8724 20.5137Z" fill="#00B0CE"/>
</svg>
