<svg width="74" height="50" viewBox="0 0 74 50" fill="none" xmlns="http://www.w3.org/2000/svg">
<path d="M73.3529 27.2941C73.3382 27.2352 73.3088 27.1764 73.2794 27.1324L62.8235 11.4411C61.7353 9.8088 59.897 8.82353 57.9265 8.82353H48.5294V5.88235C48.5294 2.63232 45.8971 0 42.6471 0H5.88235C2.63232 0 0 2.63232 0 5.88235V26.4706H45.5882V29.4118H0V39.7059C0 42.1323 1.98526 44.1176 4.41176 44.1176H4.52944C4.44121 43.6323 4.41176 43.147 4.41176 42.6471C4.41176 36.9706 9.02943 32.3529 14.7059 32.3529C20.3823 32.3529 25 36.9706 25 42.6471C25 43.147 24.9706 43.6323 24.8823 44.1176H50.1177C50.0294 43.6323 50 43.147 50 42.6471C50 36.9706 54.6177 32.3529 60.2941 32.3529C65.9706 32.3529 70.5882 36.9706 70.5882 42.6471C70.5882 43.0588 70.5588 43.4706 70.5 43.8823C72.25 43.3088 73.5294 41.6471 73.5294 39.7059V27.9412C73.5294 27.7647 73.4853 27.5882 73.4265 27.4264C73.4117 27.3823 73.3824 27.3382 73.3529 27.2941ZM48.5294 26.4706V11.7647H57.9265C58.9118 11.7647 59.8382 12.2499 60.3823 13.0736L69.3088 26.4706H48.5294Z" fill="#00B5D3"/>
<path d="M14.7058 50.0001C18.7668 50.0001 22.0588 46.708 22.0588 42.6471C22.0588 38.5862 18.7668 35.2942 14.7058 35.2942C10.6449 35.2942 7.35291 38.5862 7.35291 42.6471C7.35291 46.708 10.6449 50.0001 14.7058 50.0001Z" fill="#00B5D3"/>
<path d="M60.2941 50.0001C64.355 50.0001 67.647 46.708 67.647 42.6471C67.647 38.5862 64.355 35.2942 60.2941 35.2942C56.2332 35.2942 52.9412 38.5862 52.9412 42.6471C52.9412 46.708 56.2332 50.0001 60.2941 50.0001Z" fill="#00B5D3"/>
</svg>
