<svg width="60" height="60" viewBox="0 0 60 60" fill="none" xmlns="http://www.w3.org/2000/svg">
<path d="M22.5679 29.706L14.8235 37.4504L19.7395 42.3665L27.484 34.622L22.5679 29.706Z" fill="#00B5D3"/>
<path d="M37.5476 24.405L33.9286 28.0241L29.0714 23.0717L32.6905 19.4526C32.6905 19.4526 32.6905 19.4526 32.7857 19.5479L37.5476 24.405Z" fill="#00B5D3"/>
<path d="M18.6905 45.0714L8.02381 55.6428C6.21429 57.4524 3.2619 57.4524 1.35714 55.6428C-0.452381 53.8333 -0.452381 50.7857 1.35714 48.9762L12.0238 38.3095C12.3095 38.0238 12.7857 38.0238 12.9762 38.3095L18.5952 43.9285C18.9762 44.3095 18.9762 44.7857 18.6905 45.0714Z" fill="#00B5D3"/>
<path d="M52.4047 12.9761L44.119 4.69043C45.0714 4.02376 46.4999 4.119 47.3571 4.97614L52.119 9.73805C53.0714 10.5952 53.1666 11.9285 52.4047 12.9761Z" fill="#00B5D3"/>
<path d="M42.8809 22.4999L42.4047 22.976C41.9286 23.4522 41.2619 23.7379 40.5952 23.7379C39.9286 23.7379 39.2619 23.4522 38.7857 22.976L34.0238 18.2141C33.0714 17.2618 33.0714 15.6427 34.0238 14.5951L34.5 14.1189L42.8809 22.4999Z" fill="#00B5D3"/>
<path d="M55.7381 20.0238L54.2143 27.4524C53.9286 28.7857 52.3095 29.2619 51.3572 28.3095L30.4048 7.35714C29.7381 6.69048 29.7381 5.54762 30.4048 4.97619L34.881 0.5C35.5476 -0.166667 36.5953 -0.166667 37.2619 0.5L43.3572 6.59524L50.4048 13.5476L55.2619 18.4048C55.7381 18.9762 55.9286 19.5476 55.7381 20.0238Z" fill="#00B5D3"/>
<path d="M38.1191 34.8808L34.2143 38.6903L9.73811 14.2142L5.35715 12.1189L1.45239 5.92844L5.26192 2.02368L11.4524 5.92844L13.5476 10.3094L38.1191 34.8808Z" fill="#00B5D3"/>
<path d="M57.3571 47.9285L41.8333 32.4047C41.0714 31.6428 39.9286 31.6428 39.1667 32.4047L31.8333 39.738C31.4524 40.119 31.2619 40.5952 31.2619 41.0713C31.2619 41.5475 31.4524 42.0237 31.8333 42.4047L47.3571 57.9285C50.119 60.6904 54.5952 60.6904 57.3571 57.9285C60.119 55.1666 60.119 50.7856 57.3571 47.9285ZM51.2619 54.7856C50.8809 55.1666 50.3095 55.1666 49.9286 54.7856L37.6429 42.4999C37.2619 42.119 37.2619 41.5475 37.6429 41.1666C38.0238 40.7856 38.5952 40.7856 38.9762 41.1666L51.2619 53.4523C51.6429 53.8333 51.6429 54.4047 51.2619 54.7856ZM54.2143 51.9285C53.8333 52.3094 53.2619 52.3094 52.8809 51.9285L40.5 39.6428C40.119 39.2618 40.119 38.6904 40.5 38.3094C40.8809 37.9285 41.4524 37.9285 41.8333 38.3094L54.119 50.5952C54.5952 50.9761 54.5952 51.5475 54.2143 51.9285Z" fill="#00B5D3"/>
</svg>
