<?xml version="1.0" encoding="utf-8"?>
<!-- Generator: Adobe Illustrator 24.3.0, SVG Export Plug-In . SVG Version: 6.00 Build 0)  -->
<svg version="1.1" id="Слой_1" xmlns="http://www.w3.org/2000/svg" xmlns:xlink="http://www.w3.org/1999/xlink" x="0px" y="0px"
	 viewBox="0 0 30 30" style="enable-background:new 0 0 30 30;" xml:space="preserve">
<style type="text/css">
	.st0{fill:#00B4D3;}
	.st1{fill:#151515;}
</style>
<g>
	<path class="st0" d="M26.544,27.093c-0.137,0-0.274-0.053-0.377-0.16l-6.074-6.265c-0.202-0.208-0.197-0.54,0.012-0.742
		c0.208-0.201,0.54-0.197,0.742,0.012l6.074,6.265c0.202,0.208,0.197,0.54-0.012,0.742C26.808,27.044,26.676,27.093,26.544,27.093z"
		/>
</g>
<g>
	<path class="st1" d="M12.293,19.649l-3.272,3.197L8.82,23.045l0.054,0.277c0.006,0.031,0.58,3.07-0.913,4.563
		c-0.943,0.943-2.426,1.085-3.394,1.061l2.66-3.01l-3.38-3.159l-2.759,2.902c-0.099-1.047-0.041-2.711,1.057-3.81
		c1.689-1.689,4.08-1.001,4.184-0.97l0.298,0.091l5.458-5.391l-0.742-0.742l-5.022,4.961c-0.836-0.175-3.156-0.453-4.918,1.309
		c-1.875,1.876-1.395,4.808-1.203,5.662c0.048,0.215,0.21,0.386,0.423,0.444c0.213,0.059,0.44-0.004,0.592-0.164l2.676-2.815
		l1.874,1.751l-2.585,2.925c-0.145,0.163-0.188,0.392-0.113,0.597c0.075,0.205,0.255,0.352,0.47,0.384
		C3.787,29.949,4.229,30,4.769,30c1.17,0,2.799-0.239,3.934-1.374c1.6-1.6,1.373-4.331,1.247-5.222l3.068-2.997L12.293,19.649z"/>
	<path class="st1" d="M29.836,3.003c-0.041-0.197-0.186-0.354-0.379-0.41c-0.192-0.056-0.4-0.002-0.542,0.142l-2.74,2.814
		l-1.789-1.637l2.674-2.884c0.141-0.152,0.186-0.369,0.117-0.565c-0.069-0.195-0.239-0.336-0.444-0.366
		c-0.618-0.092-3.789-0.461-5.515,1.266c-1.583,1.583-1.415,4.239-1.31,5.108l-5.068,4.948l0.742,0.742l5.251-5.13l0.196-0.194
		l-0.048-0.271c-0.005-0.03-0.504-2.98,0.978-4.462c0.95-0.95,2.587-1.08,3.643-1.05l-2.705,2.917l3.319,3.038l2.718-2.792
		c0.076,1.09,0.001,2.809-1.026,3.836c-1.603,1.603-4.488,1.046-4.516,1.04L23.12,9.038l-3.328,3.271l0.768,0.717l2.907-2.857
		c0.866,0.121,3.494,0.318,5.185-1.373C30.572,6.877,29.917,3.394,29.836,3.003z"/>
</g>
<g>
	<path class="st1" d="M14.189,16.898L4.169,7.019L2.09,6.547l-2.098-4.247L2.315,0l4.242,2.204l0.285,2.164l10.016,9.728
		L14.189,16.898z M2.809,5.634l1.884,0.428l9.472,9.339l1.216-1.276L5.839,4.857L5.574,2.876L2.509,1.284L1.268,2.513L2.809,5.634z"
		/>
</g>
<g>
	<path class="st1" d="M26.767,30c-0.581,0-1.013-0.099-1.053-0.108l-0.145-0.034l-8.717-8.74c-0.639,0.124-2.1,0.254-3.24-0.788
		c-1.422-1.301-1.403-2.624-1.401-2.68l0.006-0.201l4.822-5.063l0.144-0.038c0.059-0.015,1.452-0.364,2.901,0.88
		c1.177,1.011,1.098,2.595,1.004,3.25l8.677,8.922l0.038,0.117c0.029,0.091,0.709,2.254-0.569,3.578
		C28.518,29.834,27.518,30,26.767,30z M26.092,28.896c0.415,0.068,1.679,0.201,2.386-0.531c0.713-0.738,0.453-2.034,0.356-2.418
		l-8.889-9.14l0.069-0.282c0.004-0.015,0.378-1.651-0.614-2.502c-0.801-0.688-1.535-0.706-1.825-0.679l-4.295,4.509
		c0.054,0.314,0.261,0.988,1.04,1.701c1.02,0.933,2.526,0.488,2.541,0.483l0.302-0.092l0.225,0.223L26.092,28.896z"/>
</g>
</svg>
