<svg width="70" height="62" viewBox="0 0 70 62" fill="none" xmlns="http://www.w3.org/2000/svg">
<path d="M12.3107 61.6482C12.0003 61.6482 11.6853 61.6155 11.3703 61.5525C9.73701 61.2165 6.54735 60.1665 3.53968 56.9022C1.66835 54.8699 0.455013 52.7862 0.12368 51.0339C-0.461987 47.9352 1.16901 46.7895 2.19335 46.3812L26.117 37.0455C26.523 36.8845 26.8777 36.5859 27.111 36.2079L27.1157 36.1985L41.223 13.8079L50.5097 18.3579L39.438 43.1332C39.1254 43.8705 38.598 44.5145 37.9237 44.9789L14.707 60.9272C14.021 61.4009 13.181 61.6482 12.3107 61.6482ZM29.001 37.3792C28.518 38.1585 27.783 38.7745 26.9313 39.1152L3.00768 48.4509C2.67635 48.5815 1.97635 48.8615 2.30768 50.6232C2.55968 51.9532 3.60501 53.6939 5.17535 55.3995C7.76068 58.2065 10.4463 59.0955 11.8183 59.3779C12.4087 59.4992 13.0177 59.3965 13.447 59.1002L36.6637 43.1519C36.9903 42.9279 37.2447 42.6152 37.401 42.2512L47.607 19.4149L42.042 16.6872L29.001 37.3792Z" fill="#151515"/>
<path d="M52.2573 17.0372C51.6063 17.0372 50.8807 16.9042 50.085 16.5915C47.6537 15.6349 42.8657 12.9959 42.6627 12.8839L41.7457 12.3799L46.9303 1.43652L55.3863 5.19552C56.5647 5.79752 58.5807 7.61986 57.771 10.2215C57.001 12.6949 56.0723 14.6432 55.538 15.4062C54.9173 16.2929 53.795 17.0372 52.2573 17.0372ZM44.653 11.4372C46.1743 12.2562 49.2147 13.8615 50.8993 14.5242C52.7007 15.2335 53.473 14.4845 53.7203 14.1299C54.0727 13.6259 54.9103 11.9412 55.65 9.55886C56.0793 8.17752 54.656 7.32586 54.3947 7.18352L48.0107 4.34619L44.653 11.4372Z" fill="#151515"/>
<path d="M40.5137 11.708L45.57 0.913954L44.289 0.391287C43.827 0.255954 43.344 0.484621 43.099 0.832287C42.4317 1.77962 39.0157 9.40962 38.9223 9.64762C38.696 10.2123 38.7613 10.707 39.1673 10.9496C39.4007 11.0873 40.5137 11.708 40.5137 11.708Z" fill="#151515"/>
<path d="M68.887 19.5713C68.7283 19.5713 68.5673 19.5363 68.4133 19.464L59.0893 15.0657C58.534 14.8043 58.296 14.1417 58.5573 13.5863C58.8187 13.031 59.4813 12.793 60.0367 13.0543L69.3607 17.4527C69.916 17.714 70.154 18.3767 69.8927 18.932C69.7037 19.3357 69.3047 19.5713 68.887 19.5713Z" fill="#00B4D3"/>
<path d="M42.8586 26.3241C42.7 26.3241 42.539 26.2891 42.385 26.2168L39.3353 24.7771C38.78 24.5158 38.542 23.8531 38.8033 23.2978C39.0646 22.7424 39.7273 22.5044 40.2826 22.7658L43.3323 24.2054C43.8876 24.4668 44.1256 25.1294 43.8643 25.6848C43.6753 26.0884 43.2763 26.3241 42.8586 26.3241Z" fill="#00B4D3"/>
<path d="M41.0596 29.5324C40.901 29.5324 40.74 29.4974 40.586 29.4251L37.5923 28.0134C37.037 27.7521 36.799 27.0894 37.0603 26.5341C37.3217 25.9788 37.9843 25.7408 38.5397 26.0021L41.5333 27.4138C42.0886 27.6751 42.3266 28.3378 42.0653 28.8931C41.8763 29.2991 41.4773 29.5324 41.0596 29.5324Z" fill="#00B4D3"/>
<path d="M39.5617 33.0348C39.403 33.0348 39.242 32.9998 39.088 32.9275L35.77 31.3618C35.2147 31.1005 34.9767 30.4378 35.238 29.8825C35.4993 29.3272 36.162 29.0892 36.7173 29.3505L40.0353 30.9161C40.5907 31.1775 40.8287 31.8401 40.5673 32.3955C40.3783 32.7991 39.9793 33.0348 39.5617 33.0348Z" fill="#00B4D3"/>
<path d="M37.6507 36.2848C37.4921 36.2848 37.3311 36.2498 37.1771 36.1775L33.8567 34.6118C33.3014 34.3505 33.0634 33.6878 33.3247 33.1325C33.5861 32.5772 34.2487 32.3392 34.8041 32.6005L38.1244 34.1662C38.6797 34.4275 38.9177 35.0901 38.6564 35.6455C38.4674 36.0491 38.0684 36.2848 37.6507 36.2848Z" fill="#00B4D3"/>
</svg>
