<svg width="69" height="60" viewBox="0 0 69 60" fill="none" xmlns="http://www.w3.org/2000/svg">
<path d="M26.3015 37.2114L0.866196 47.2413C0.866196 47.2413 -2.26288 49.8286 3.37345 55.6604C8.56797 61.0331 12.2743 59.9004 12.2743 59.9004L36.6905 42.9405L47.0805 18.5806L39.916 14.9988L26.3015 37.2114ZM37.0451 36.0632L31.4015 33.2587L32.0069 32.0387L37.6496 34.8414L37.0451 36.0632ZM38.5732 32.7342L33.2824 30.1024L33.8869 28.8815L39.1778 31.5123L38.5732 32.7342ZM40.0996 29.4024L35.1633 26.9469L35.7687 25.726L40.7087 28.1815L40.0996 29.4024ZM41.6287 26.0715L37.0451 23.7906L37.6496 22.5697L42.2332 24.8506L41.6287 26.0715ZM67.374 17.0279L57.8577 12.5906L56.6731 15.1279L66.1894 19.5651C66.8904 19.8924 67.724 19.5888 68.0513 18.8888C68.3758 18.1879 68.0722 17.3552 67.374 17.0279ZM37.4387 11.5652L38.1578 11.8997L43.4814 0.480708L42.7632 0.147073C41.8178 -0.293833 40.4187 0.2998 39.9287 1.35161L36.5387 8.61793C36.0505 9.66884 36.4933 11.1252 37.4387 11.5652ZM54.2195 5.48795L45.3359 1.34616L40.0123 12.7661L48.895 16.9079C50.9968 17.8879 53.495 16.9797 54.4768 14.877L56.2513 11.0688C57.2304 8.96611 56.3222 6.46795 54.2195 5.48795Z" fill="#00B5D3"/>
</svg>
