<svg width="98" height="80" fill="none" xmlns="http://www.w3.org/2000/svg"><path d="M19.604 79.382c-7.793 0-12.524-4.763-12.71-4.948l-.402-.402v-44.5l.34-.402c.155-.185 4.051-4.483 13.328-4.483 9.37 0 12.525 4.453 12.648 4.638l.248.34v44.438l-.433.402c-.186.185-5.226 4.917-13.02 4.917zM9.275 72.826c1.175.99 4.917 3.773 10.329 3.773 5.473 0 9.4-2.784 10.669-3.773V30.553c-.773-.835-3.587-3.123-10.113-3.123-6.524 0-9.864 2.319-10.885 3.216v42.18zm39.802 6.556c-7.793 0-12.525-4.763-12.71-4.948l-.402-.402V51.179l.34-.402c.155-.186 4.051-4.484 13.328-4.484 9.37 0 12.524 4.453 12.648 4.639l.247.34v22.79l-.432.403c-.217.185-5.258 4.916-13.02 4.916zm-10.329-6.556c1.175.99 4.917 3.772 10.329 3.772 5.442 0 9.4-2.783 10.668-3.803V52.199c-.773-.834-3.587-3.123-10.112-3.123s-9.864 2.32-10.885 3.216v20.534zm39.922 6.556c-7.793 0-12.524-4.763-12.71-4.948l-.401-.402V61.384l.34-.402c.154-.185 4.05-4.484 13.328-4.484 9.37 0 12.524 4.453 12.648 4.639l.247.34v12.586l-.433.402c-.216.185-5.257 4.917-13.019 4.917zm-10.328-6.556c1.175.99 4.917 3.773 10.328 3.773 5.474 0 9.401-2.784 10.669-3.773v-10.39c-.773-.836-3.587-3.124-10.112-3.124s-9.865 2.32-10.885 3.216v10.298z" fill="#151515"/><path d="M19.792 68.775c-9.927 0-12.957-5.103-13.081-5.319l1.206-.68 1.206-.712c.093.155 2.505 3.928 10.7 3.928 8.194 0 10.607-3.618 10.7-3.773l2.38 1.453c-.154.217-3.216 5.103-13.111 5.103zm29.441 0c-9.926 0-12.957-5.103-13.08-5.319l1.205-.68 1.206-.712c.093.155 2.505 3.928 10.7 3.928s10.607-3.618 10.7-3.773l2.38 1.453c-.154.217-3.215 5.103-13.11 5.103zm29.563 0c-9.927 0-12.958-5.103-13.081-5.319l1.206-.68 1.206-.712c.093.155 2.505 3.928 10.7 3.928 8.194 0 10.606-3.618 10.7-3.773l2.38 1.453c-.154.217-3.185 5.103-13.111 5.103zM19.792 58.508c-9.927 0-12.957-5.102-13.081-5.319l1.206-.68 1.206-.711c.093.154 2.505 3.927 10.7 3.927 8.194 0 10.607-3.618 10.7-3.773l2.38 1.454c-.154.216-3.216 5.102-13.111 5.102zm29.441 0c-9.926 0-12.957-5.102-13.08-5.319l1.205-.68 1.206-.711c.093.154 2.505 3.927 10.7 3.927s10.607-3.618 10.7-3.773l2.38 1.454c-.154.216-3.215 5.102-13.11 5.102zM19.792 48.21c-9.927 0-12.957-5.102-13.081-5.318l1.206-.68 1.206-.712c.093.155 2.505 3.927 10.7 3.927 8.194 0 10.607-3.618 10.7-3.772l2.38 1.453c-.154.217-3.216 5.103-13.111 5.103zm0-11.101c-9.927 0-12.957-5.102-13.081-5.319l1.206-.68 1.206-.712c.062.155 2.474 3.928 10.669 3.928 8.194 0 10.607-3.618 10.7-3.773l2.38 1.454c-.123.216-3.185 5.102-13.08 5.102zm-5.908-19.483a7670.357 7670.357 0 0024.43 8.597c12.926 4.546 25.852 9.092 38.778 13.668l8.906 3.155c1.7.587 2.412-2.103.742-2.69a7661.58 7661.58 0 00-24.43-8.598c-12.926-4.545-25.852-9.122-38.778-13.668l-8.906-3.154c-1.701-.588-2.412 2.103-.742 2.69z" fill="#151515"/><path d="M79.813 31.48c2.721 4.02 5.412 8.04 8.102 12.091l.835-2.04c-4.7 1.05-9.37 2.071-14.07 3.123-1.763.402-1.02 3.061.742 2.69 4.7-1.051 9.37-2.072 14.07-3.123.835-.186 1.33-1.33.835-2.041-2.721-4.02-5.412-8.04-8.102-12.091-1.02-1.485-3.432-.093-2.412 1.391z" fill="#151515"/><path d="M56.22 12.493c-1.113-1.144-1.67-2.752-1.67-4.731 0-1.299.248-2.474.774-3.433.526-.99 1.206-1.731 2.134-2.257.896-.526 1.917-.773 3.092-.773 1.794 0 3.216.587 4.33 1.762 1.113 1.176 1.67 2.753 1.67 4.732 0 2.01-.557 3.587-1.67 4.731-1.114 1.144-2.567 1.732-4.33 1.732-1.794-.031-3.216-.619-4.33-1.763zM74.343 1.577h4.824L63.21 24.956h-4.794L74.342 1.577zm-12.37 8.659c.372-.526.526-1.36.526-2.505 0-1.144-.185-1.98-.526-2.505-.37-.526-.834-.804-1.422-.804-.587 0-1.051.278-1.422.804-.372.557-.557 1.36-.557 2.474 0 1.113.185 1.948.556 2.474.372.557.835.804 1.423.804.588.062 1.051-.186 1.422-.742zm10.731 13.266c-1.113-1.144-1.639-2.752-1.639-4.731 0-1.98.557-3.556 1.67-4.732 1.113-1.175 2.536-1.762 4.298-1.762 1.794 0 3.217.587 4.33 1.763 1.113 1.175 1.67 2.752 1.67 4.73 0 2.01-.557 3.588-1.67 4.732-1.113 1.144-2.567 1.732-4.33 1.732-1.793 0-3.247-.588-4.329-1.732zm5.752-2.226c.371-.526.526-1.361.526-2.505s-.186-1.98-.526-2.505c-.371-.526-.835-.804-1.423-.804-.587 0-1.082.278-1.422.804-.371.526-.526 1.36-.526 2.505 0 1.144.186 1.979.526 2.505.371.525.835.804 1.422.804.588 0 1.052-.279 1.423-.804z" fill="#00B4D3"/></svg>