<svg width="80" height="80" fill="none" xmlns="http://www.w3.org/2000/svg"><g clip-path="url(#clip0_2500_2050)"><path d="M49.033 30.968H33.55a2.588 2.588 0 01-2.58-2.581v-1.29h20.645v1.29c0 1.42-1.161 2.58-2.58 2.58z" fill="#00B5D3"/><path d="M78.306 53.08l-9.983-8.871a6.46 6.46 0 00-4.29-1.629H21.386L10.032 23.29c-.951-1.63-2.726-2.645-4.677-2.645A5.362 5.362 0 000 25.998c0 .936.242 1.871.726 2.678l12.145 21a6.476 6.476 0 005.58 3.226h16.565c.58-2.226 2.58-3.871 4.984-3.871 2.403 0 4.403 1.645 4.984 3.87H62.58l9.08 7.807a5.07 5.07 0 003.29 1.226c2.79 0 5.049-2.274 5.049-5.08a5.065 5.065 0 00-1.694-3.775z" fill="#00B5D3"/><path d="M72.227 77.145c-1.596-7.21-7.742-12.29-15.064-12.596l-6.484-6.484h6.097c1.42 0 2.58-1.161 2.58-2.58v-2.581c0-1.42-1.16-2.581-2.58-2.581H45.13c-1.178-1.565-3.033-2.58-5.13-2.58-2.096 0-3.951 1.015-5.128 2.58H23.227a2.588 2.588 0 00-2.58 2.58v2.581c0 1.42 1.161 2.58 2.58 2.58h11.646a6.377 6.377 0 003.58 2.372l6.887 6.887a15.813 15.813 0 00-4.645 4.935h-30.37V80H72.26v-2.58l-.033-.275zM56.776 52.904v2.58H46.324c.08-.42.13-.855.13-1.29 0-.436-.05-.871-.13-1.29h10.452zm-33.549 2.58v-2.58H33.68c-.08.419-.129.854-.129 1.29 0 .435.048.87.13 1.29H23.226zm12.904-1.29A3.882 3.882 0 0140 50.323a3.882 3.882 0 013.872 3.87 3.882 3.882 0 01-3.871 3.872 3.882 3.882 0 01-3.871-3.871zm5.838 6.113a6.463 6.463 0 003.162-2.242h1.903l6.484 6.484c-2.08.112-4.049.612-5.855 1.451l-5.694-5.693zM12.905 77.42v-2.581h26.532c-.29.742-.532 1.5-.71 2.306v.275H12.905zm28.42 0c1.483-6.097 6.854-10.323 13.144-10.323h2.017c6.306 0 11.66 4.226 13.145 10.323H41.324zm38.674-48.823v-4.08H61.935v4.08l1.016 3.048a8.413 8.413 0 001.951 3.194h-5.548V19.355c0-1.42 1.161-2.58 2.58-2.58 1.42 0 2.581 1.16 2.581 2.58v2.58h2.58v-2.58c0-2.839-2.322-5.162-5.16-5.162-2.84 0-5.162 2.323-5.162 5.162v15.484H46.451v-2.58h2.58a3.882 3.882 0 003.871-3.872v-9.032a3.882 3.882 0 00-3.87-3.871h-9.033V7.419A7.42 7.42 0 0032.579 0a7.4 7.4 0 00-5.741 2.726l-7.13 8.71-3.806-3.807a4.072 4.072 0 00-2.838-1.177 4.034 4.034 0 00-4.033 4.032 4.11 4.11 0 001.178 2.855l10.016 10.016a4.081 4.081 0 002.855 1.177 4.034 4.034 0 004.032-4.032 4.11 4.11 0 00-1.177-2.855l-4.371-4.37 7.274-8.92A4.814 4.814 0 0132.58 2.58a4.853 4.853 0 014.838 4.838v8.065h-3.87a3.882 3.882 0 00-3.872 3.87v9.033a3.882 3.882 0 003.871 3.871h2.581v2.58h-1.29a3.882 3.882 0 00-3.871 3.872v3.87h2.58v-3.87c0-.71.581-1.29 1.29-1.29h41.291c.71 0 1.29.58 1.29 1.29v5.161H80v-5.16a3.858 3.858 0 00-3.048-3.775 8.332 8.332 0 002.032-3.29L80 28.597zm-55.484-8.113c0 .79-.645 1.451-1.451 1.451a1.45 1.45 0 01-1.017-.419L12.031 11.5a1.514 1.514 0 01-.42-1.016c0-.79.646-1.452 1.452-1.452.388 0 .759.162 1.017.42l10.016 10.016c.258.274.42.645.42 1.016zm7.742 7.903v-9.032c0-.71.58-1.29 1.29-1.29h15.484c.71 0 1.29.58 1.29 1.29v9.032c0 .71-.58 1.29-1.29 1.29H33.547c-.71 0-1.29-.58-1.29-1.29zm6.452 3.871h5.161v2.58h-5.161v-2.58zm38.71-4.08l-.888 2.645a5.86 5.86 0 01-5.564 4.016 5.845 5.845 0 01-5.565-4.016l-.887-2.646v-1.08h12.903v1.08z" fill="#161616"/></g><defs><clipPath id="clip0_2500_2050"><path fill="#fff" d="M0 0h80v80H0z"/></clipPath></defs></svg>