<svg width="98" height="80" fill="none" xmlns="http://www.w3.org/2000/svg"><path d="M93.636 70.877l-12.37-12.37a20.29 20.29 0 002.69-10.08c0-5.412-2.133-10.36-5.627-13.978V16.915a1.57 1.57 0 00-.464-1.113L62.619.557a1.57 1.57 0 00-1.113-.464H20.068a4.685 4.685 0 00-4.67 4.67v70.444a4.685 4.685 0 004.67 4.67H73.69a4.685 4.685 0 004.67-4.67v-4.7l7.823 7.823a5.292 5.292 0 003.742 1.546c1.36 0 2.721-.525 3.742-1.546 2.04-2.04 2.04-5.38-.031-7.453zm-29.934-5.01c-9.618 0-17.442-7.823-17.442-17.44 0-9.618 7.824-17.441 17.442-17.441 9.617 0 17.44 7.823 17.44 17.44 0 9.618-7.792 17.442-17.44 17.442zm-.619-60.455l9.957 9.957h-8.38a1.55 1.55 0 01-1.546-1.546V5.412h-.031zm12.586 70.32c0 .866-.711 1.578-1.577 1.578H19.666a1.584 1.584 0 01-1.577-1.578V4.267c0-.865.711-1.577 1.577-1.577h40.572l-.03 10.762a4.66 4.66 0 004.7 4.7h10.761v13.7c-3.309-2.32-7.329-3.742-11.69-3.742-11.348 0-20.564 9.091-20.564 20.44 0 2.227.34 4.36.99 6.34H25.078c-.866 0-1.578.711-1.578 1.577s.712 1.577 1.578 1.577H45.27c.154 0 .278-.03.433-.062 3.432 6.587 10.328 10.762 18.276 10.762 3.71 0 6.958-.928 9.988-2.66l1.732 1.732v7.916h-.031zm16.173.68c-1.206 1.021-2.783.712-3.618-.123L76.01 64.445c1.392-1.02 2.783-2.443 3.711-3.741l12.06 11.998c.866.866 1.206 2.629.062 3.71z" fill="#222"/><path d="M39.425 43.85H25.386a1.55 1.55 0 00-1.546 1.547 1.57 1.57 0 001.546 1.546h14.04a1.55 1.55 0 001.546-1.546 1.55 1.55 0 00-1.547-1.546zm.928-10.792H25.386a1.55 1.55 0 00-1.546 1.546 1.55 1.55 0 001.546 1.546h14.936a1.55 1.55 0 001.546-1.546c.031-.866-.649-1.546-1.515-1.546zm4.673 32.408c-.402 0-.804.154-1.113.464a1.569 1.569 0 000 2.227 1.57 1.57 0 002.227 0 1.57 1.57 0 000-2.227c-.31-.279-.712-.464-1.114-.464zm-6.405 0H25.386a1.55 1.55 0 00-1.546 1.546 1.55 1.55 0 001.546 1.546H38.59a1.55 1.55 0 001.547-1.546c.03-.835-.68-1.546-1.516-1.546zM25.39 25.357a1.57 1.57 0 001.113-.463 1.57 1.57 0 000-2.226 1.569 1.569 0 00-2.227 0 1.569 1.569 0 000 2.226c.31.309.712.463 1.114.463zm29.903-3.123H32.007a1.55 1.55 0 00-1.546 1.547 1.55 1.55 0 001.546 1.546h23.286a1.55 1.55 0 001.546-1.546c.03-.835-.68-1.547-1.546-1.547zm-29.907-7.669h29.903a1.55 1.55 0 001.547-1.546c0-.835-.712-1.546-1.547-1.546H25.386a1.55 1.55 0 00-1.546 1.546 1.57 1.57 0 001.546 1.546z" fill="#222"/><path d="M63.7 33.769c-8.101 0-14.657 6.555-14.657 14.657s6.556 14.658 14.658 14.658 14.658-6.556 14.658-14.658S71.803 33.77 63.7 33.77zm7.546 10.328L60.61 54.704a1.34 1.34 0 01-.928.402h-.124a1.236 1.236 0 01-.959-.587l-2.659-3.99c-.402-.618-.247-1.422.371-1.824.618-.402 1.423-.248 1.825.37l1.762 2.63 9.463-9.463a1.325 1.325 0 011.886 0c.495.495.495 1.33 0 1.855z" fill="#00B4D3"/></svg>