<svg width="107" height="80" fill="none" xmlns="http://www.w3.org/2000/svg"><path d="M80 13.885c.804-.124-.556-.031-.773-.031-1.391-.062-2.814-.186-4.174-.433-3.557-.588-6.742-2.35-10.174-3.34-3.34-.959-6.804-.804-10.113.247-2.968.959-5.473 2.938-7.73 5.01-3.402 3.154-6.99 6.432-9.927 10.02-1.237 1.484-1.855 2.628-.804 4.452 1.484 2.536 4.206 4.144 7.05 4.639 3.371.557 6.742-.278 9.834-1.608 2.443-1.052 5.196-2.505 7.917-2.443 2.288.03 4.113 1.113 6.092 2.103 2.165 1.082 4.33 2.164 6.463 3.247 2.01 1.02 3.99 2.04 5.968 3.092 1.485.804 3.154 1.608 4.391 2.783.96.897 1.454 2.01 1.701 3.278.248 1.144.619 2.845-.062 3.897-.587.958-1.948 1.484-3.03 1.577-.062 0-.773-.217-.248-.031l-.185-.093c-.247-.093-.495-.247-.711-.371-6.309-3.216-12.463-6.772-18.616-10.236-1.578-.866-2.97 1.515-1.392 2.412 5.72 3.216 11.473 6.463 17.256 9.525.896.464 1.824 1.051 2.783 1.36 2.288.743 5.35-.773 6.555-2.783 1.268-2.103.743-5.442-.123-7.607-.928-2.381-2.814-3.773-4.917-5.04-3.618-2.165-7.453-3.99-11.225-5.876-4.082-2.041-8.319-4.917-13.081-3.928-5.845 1.238-12.432 6.866-18.307 2.536a5.938 5.938 0 01-1.64-1.762c-.123-.186-.216-.402-.34-.619-.185-.31.124-.03-.03.248.34-.619 1.051-1.361 1.577-1.949 1.67-1.855 3.494-3.587 5.288-5.319 2.103-2.04 4.113-4.205 6.494-5.937 3.247-2.32 7.422-3.37 11.349-2.474 3.99.928 7.576 3.062 11.658 3.68 1.887.278 3.99.68 5.938.402 1.793-.216 1.051-2.907-.712-2.628z" fill="#151515"/><path d="M50.59 15.493s-.958-.742-3.216-2.133c-2.072-1.268-3.896-1.485-6.741-1.454-1.732.031-3.495.371-5.38.711l-2.042.372c-2.412.402-6.463.927-6.648.958l-.372-2.752c.031 0 4.175-.557 6.556-.959.65-.123 1.33-.247 2.01-.37 1.918-.372 3.897-.743 5.876-.774 3.216-.062 5.628.248 8.226 1.856 2.443 1.484 3.463 2.288 3.494 2.319l-1.763 2.226zM19.482 60.518a5.64 5.64 0 01-3.03-.865c-2.753-1.67-3.588-5.288-1.918-8.01l4.205-6.834c.805-1.33 2.103-2.257 3.619-2.628a5.709 5.709 0 014.422.71c2.752 1.67 3.587 5.289 1.917 8.01l-4.206 6.834c-1.144 1.794-3.061 2.783-5.01 2.783zm-1.608-3.216a3.09 3.09 0 004.205-.99l4.206-6.864a3.09 3.09 0 00-.99-4.206c-.68-.433-1.515-.557-2.319-.371-.804.185-1.453.68-1.886 1.36l-4.206 6.835a3.093 3.093 0 00.99 4.236z" fill="#151515"/><path d="M103.902 46.758l-9.277 3.401c-1.515.557-3.154-.216-3.711-1.732L77.122 10.793c-.557-1.515.216-3.154 1.732-3.71L88.13 3.68c1.515-.557 3.154.216 3.71 1.731l13.793 37.635a2.941 2.941 0 01-1.732 3.71zM2.381 46.726l9.463 3.464a2.876 2.876 0 003.71-1.732l13.824-37.603a2.877 2.877 0 00-1.732-3.711l-9.463-3.495a2.876 2.876 0 00-3.71 1.732L.648 43.015C.093 44.5.866 46.17 2.381 46.726z" fill="#00B4D3"/><path d="M35.993 71.62a5.64 5.64 0 01-3.03-.866c-2.752-1.67-3.587-5.288-1.917-8.01l4.483-7.298c1.67-2.752 5.288-3.587 8.01-1.917 1.33.804 2.257 2.103 2.628 3.618a5.71 5.71 0 01-.71 4.422l-4.485 7.298c-1.082 1.763-3.03 2.752-4.979 2.752zm-1.577-3.217a3.09 3.09 0 004.206-.99l4.484-7.297c.433-.68.556-1.516.371-2.32-.186-.803-.68-1.453-1.36-1.886-.681-.433-1.516-.556-2.32-.371-.804.186-1.453.68-1.886 1.36l-4.515 7.299a3.071 3.071 0 001.02 4.205z" fill="#151515"/><path d="M45.12 75.547a5.948 5.948 0 01-3.062-.866l-.031-.03c-1.33-.804-2.258-2.103-2.629-3.65a5.805 5.805 0 01.711-4.453l2.413-3.927c1.7-2.752 5.319-3.618 8.07-1.917a5.883 5.883 0 011.949 8.102l-2.412 3.927c-.835 1.33-2.103 2.289-3.65 2.629a4.984 4.984 0 01-1.36.185zM43.51 72.3a3.08 3.08 0 002.32.371 3.028 3.028 0 001.917-1.391l2.412-3.927c.897-1.454.433-3.371-1.02-4.237-1.485-.897-3.371-.464-4.268.99l-2.412 3.927a3.134 3.134 0 00-.371 2.35A3.187 3.187 0 0043.51 72.3zm-16.453-4.947a5.64 5.64 0 01-3.03-.866l-.248-.155c-2.752-1.67-3.587-5.288-1.917-8.009l5.968-9.741c1.67-2.752 5.288-3.587 8.01-1.917l.247.154c2.752 1.67 3.587 5.288 1.917 8.01l-5.968 9.71c-1.082 1.824-3 2.814-4.979 2.814zm-1.577-3.216a3.09 3.09 0 004.206-.99l5.968-9.71a3.09 3.09 0 00-.99-4.206l-.247-.154a3.09 3.09 0 00-4.206.99l-5.968 9.71a3.09 3.09 0 00.99 4.205l.247.155zm52.356-13.299c.433 1.856.309 4.113-1.114 5.536-1.113 1.113-3.154.99-4.607.804-1.361-.186-2.69-1.145-4.02-1.887-3.65-2.04-7.33-4.05-10.978-6.092-1.578-.865-2.97 1.547-1.392 2.412 4.267 2.382 8.535 4.732 12.803 7.113 2.226 1.237 4.545 1.608 7.143 1.175 4.484-.773 5.814-5.876 4.886-9.772-.464-1.794-3.154-1.051-2.721.711z" fill="#151515"/><path d="M68.403 58.322c.464 2.752-.34 6.216-3.618 6.556-1.67.186-2.69-.618-4.298-1.422-3.093-1.547-6.123-3.155-9.185-4.794-1.577-.834-3 1.547-1.391 2.413 3.71 1.979 7.39 3.989 11.163 5.751 2.258 1.052 4.979 1.237 7.113-.309 2.906-2.134 3.463-5.597 2.876-8.968-.279-1.732-2.97-.99-2.66.773z" fill="#151515"/><path d="M57.952 74.403c-.65 0-2.072-.216-3.494-.68-3-.99-6-2.536-6.216-2.628l1.546-2.412c.464.185 5.041 2.69 8.443 2.906 2.845.186 3.123-2.412 3.154-2.783.03-1.484-.279-2.072-.279-2.072a.096.096 0 01.031.062l2.443-1.36c.124.247.588 1.236.526 3.432-.062 2.567-1.7 5.535-6.154 5.535z" fill="#151515"/></svg>