<svg width="98" height="80" fill="none" xmlns="http://www.w3.org/2000/svg"><path d="M46.045 10.761h13.297a1.32 1.32 0 001.33-1.33 1.32 1.32 0 00-1.33-1.33H46.045a1.32 1.32 0 00-1.33 1.33c0 .743.587 1.33 1.33 1.33zm-3.989 8.009h26.595a1.32 1.32 0 001.33-1.329 1.32 1.32 0 00-1.33-1.33H42.056a1.32 1.32 0 00-1.33 1.33c0 .711.588 1.33 1.33 1.33zM34.08 34.728h25.264a1.32 1.32 0 001.33-1.33 1.32 1.32 0 00-1.33-1.33H34.08a1.32 1.32 0 00-1.33 1.33c0 .742.588 1.33 1.33 1.33zm0-7.978h14.627a1.32 1.32 0 001.33-1.33 1.32 1.32 0 00-1.33-1.33H34.08a1.32 1.32 0 00-1.33 1.33c0 .71.588 1.33 1.33 1.33zm37.23 5.318h-6.648a1.32 1.32 0 00-1.33 1.33c0 .742.588 1.33 1.33 1.33h6.648a1.32 1.32 0 001.33-1.33 1.32 1.32 0 00-1.33-1.33zM34.08 42.705h11.967a1.32 1.32 0 001.33-1.33 1.32 1.32 0 00-1.33-1.33H34.08a1.32 1.32 0 00-1.33 1.33c0 .743.588 1.33 1.33 1.33zm0 7.979h7.978a1.32 1.32 0 001.33-1.33 1.32 1.32 0 00-1.33-1.33H34.08a1.32 1.32 0 00-1.33 1.33c0 .742.588 1.33 1.33 1.33zm9.308 5.319H34.08a1.32 1.32 0 00-1.33 1.33c0 .742.588 1.33 1.33 1.33h9.308a1.32 1.32 0 001.33-1.33 1.34 1.34 0 00-1.33-1.33zm9.307-30.583c0 .742.588 1.33 1.33 1.33h17.286a1.32 1.32 0 001.33-1.33 1.32 1.32 0 00-1.33-1.33H54.025a1.32 1.32 0 00-1.33 1.33z" fill="#161616"/><path d="M80.248 11.163L69.611.525a1.34 1.34 0 00-.928-.402H26.1a1.32 1.32 0 00-1.33 1.33V8.1h-6.68a1.32 1.32 0 00-1.33 1.33v69.177c0 .742.588 1.33 1.33 1.33h53.22a1.32 1.32 0 001.33-1.33v-6.649h6.649a1.32 1.32 0 001.33-1.33V12.091c.03-.34-.124-.68-.372-.928zM69.982 4.669l6.092 6.092h-6.092V4.669zm0 72.64h-50.56V10.761h5.318v59.868c0 .743.588 1.33 1.33 1.33h43.912v5.35zM27.43 69.331V2.782h39.923v9.309c0 .742.588 1.33 1.33 1.33h9.308V69.3H27.43v.03z" fill="#161616"/><path d="M61.353 37.264c-8.102 0-14.689 6.586-14.689 14.688s6.587 14.69 14.689 14.69 14.689-6.587 14.689-14.69c0-8.102-6.587-14.688-14.69-14.688zm7.545 10.39L58.261 58.292a1.34 1.34 0 01-.928.402h-.124c-.402-.031-.742-.248-.99-.588l-2.659-3.989c-.402-.618-.247-1.453.371-1.855.619-.402 1.454-.248 1.856.37l1.762 2.63 9.494-9.494a1.325 1.325 0 011.886 0c.495.525.495 1.36-.03 1.886z" fill="#00B4D3"/></svg>