<svg width="626" height="338" fill="none" xmlns="http://www.w3.org/2000/svg"><g filter="url(#filter0_d_2853_2449)"><circle cx="51" cy="286" r="45" fill="#fff"/></g><g filter="url(#filter1_d_2853_2449)"><circle cx="575" cy="286" r="45" fill="#fff"/></g><g clip-path="url(#clip0_2853_2449)"><path d="M61.242 258.02H41.279a2.314 2.314 0 00-2.318 2.299v46.908a.778.778 0 001.558 0v-46.888c0-.406.331-.735.74-.735h19.963c.41 0 .74.329.74.735v46.907a.779.779 0 001.558 0v-46.907c.04-1.276-.993-2.3-2.278-2.319zm-23.996 13.161h-8.882a2.302 2.302 0 00-2.317 2.3v33.745c0 .426.35.773.779.773a.778.778 0 00.779-.773v-33.765c0-.406.331-.734.74-.734h8.881a.778.778 0 00.78-.773c0-.425-.312-.773-.76-.773zm36.934 0h-8.803a.778.778 0 00-.78.773c0 .425.351.773.78.773h8.803c.409 0 .74.328.74.734v33.746a.778.778 0 001.558 0v-33.746a2.293 2.293 0 00-2.298-2.28z" fill="#151515"/><path d="M34.363 285.193h-2.707c-.798 0-1.46.657-1.46 1.45v2.686c0 .793.662 1.45 1.46 1.45h2.707c.799 0 1.46-.657 1.46-1.45v-2.686c0-.793-.642-1.45-1.46-1.45zm-.117 4.02h-2.473v-2.454h2.473v2.454zm.117 4.543h-2.707c-.798 0-1.46.657-1.46 1.449v2.687c0 .792.662 1.449 1.46 1.449h2.707c.799 0 1.46-.657 1.46-1.449v-2.687a1.44 1.44 0 00-1.46-1.449zm-.117 4.02h-2.473v-2.455h2.473v2.455zm36.344-12.583h-2.707c-.799 0-1.461.657-1.461 1.45v2.686c0 .793.662 1.45 1.46 1.45h2.708c.798 0 1.46-.657 1.46-1.45v-2.686c0-.793-.662-1.45-1.46-1.45zm-.117 4.02h-2.474v-2.454h2.474v2.454zm.117 4.543h-2.707c-.799 0-1.461.657-1.461 1.449v2.687c0 .792.662 1.449 1.46 1.449h2.708c.798 0 1.46-.657 1.46-1.449v-2.687c0-.811-.662-1.449-1.46-1.449zm-.117 4.02h-2.474v-2.455h2.474v2.455zm-36.11-21.126h-2.707c-.798 0-1.46.658-1.46 1.45v2.686c0 .793.662 1.45 1.46 1.45h2.707c.799 0 1.46-.657 1.46-1.45V278.1c0-.792-.642-1.45-1.46-1.45zm-.117 4.02h-2.473v-2.454h2.473v2.454zm9.469 8.659c0 .793.662 1.45 1.46 1.45h2.708c.798 0 1.46-.657 1.46-1.45v-2.686c0-.793-.662-1.45-1.46-1.45h-2.707c-.799 0-1.461.657-1.461 1.45v2.686zm1.577-2.57h2.474v2.454h-2.474v-2.454zm-1.577-8.659v2.686c0 .793.662 1.45 1.46 1.45h2.708c.798 0 1.46-.657 1.46-1.45V278.1c0-.792-.662-1.45-1.46-1.45h-2.707c-.818 0-1.461.658-1.461 1.45zm1.577.116h2.474v2.454h-2.474v-2.454zm12.079 6.977h-2.707c-.799 0-1.46.657-1.46 1.45v2.686c0 .793.661 1.45 1.46 1.45h2.707c.798 0 1.46-.657 1.46-1.45v-2.686c-.019-.793-.662-1.45-1.46-1.45zm-.117 4.02h-2.473v-2.454h2.473v2.454zm.117-12.563h-2.707c-.799 0-1.46.658-1.46 1.45v2.686c0 .793.661 1.45 1.46 1.45h2.707c.798 0 1.46-.657 1.46-1.45V278.1c-.019-.792-.662-1.45-1.46-1.45zm-.117 4.02h-2.473v-2.454h2.473v2.454zm13.336-4.02h-2.707c-.799 0-1.461.658-1.461 1.45v2.686c0 .793.662 1.45 1.46 1.45h2.708c.798 0 1.46-.657 1.46-1.45V278.1c0-.792-.662-1.45-1.46-1.45zm-.117 4.02h-2.474v-2.454h2.474v2.454z" fill="#151515"/><path d="M47.67 272.67c.389.387.915.599 1.48.58 1.81 0 1.967-2.822 2.123-4.233.019 0-.02 0 0 0 .155 1.392.311 4.233 2.122 4.233a2.05 2.05 0 001.48-.58 4.086 4.086 0 00.858-2.976 5.288 5.288 0 01.76-2.919c.583-.928.74-2.068.408-3.112a2.803 2.803 0 00-1.636-1.681 4.376 4.376 0 00-3.019.097 3.98 3.98 0 01-.954.212 3.239 3.239 0 01-.954-.212 4.376 4.376 0 00-3.02-.097 2.786 2.786 0 00-1.655 1.681 3.732 3.732 0 00.41 3.112c.525.87.798 1.894.759 2.919a4.01 4.01 0 00.837 2.976z" fill="#00B4D3"/><path d="M57.153 293.756H45.39c-.916 0-1.675.734-1.675 1.662v11.809a.778.778 0 001.558 0v-11.809c0-.058.039-.097.097-.097h11.764c.058 0 .097.039.097.097v11.809a.778.778 0 001.558 0v-11.809a1.623 1.623 0 00-1.636-1.662z" fill="#151515"/></g><path d="M565.664 303.116h20.109v-1.669h-19.754v-30.596h37.001v30.596h-7.09v1.669h7.445c.73 0 1.328-.593 1.328-1.317v-31.32c0-.723-.598-1.317-1.328-1.317h-37.73c-.729 0-1.328.594-1.328 1.317v31.32a1.356 1.356 0 001.347 1.317z" fill="#151515"/><path d="M565.642 275.081h34.868a.326.326 0 00.318-.315v-1.392a.326.326 0 00-.318-.315h-34.849a.326.326 0 00-.318.315v1.392c0 .185.131.315.299.315zm21.306-8.034h13.562a.327.327 0 00.318-.316v-1.391a.327.327 0 00-.318-.316h-13.562a.327.327 0 00-.318.316v1.391c0 .167.131.316.318.316zM544.86 299.22h3.947a.327.327 0 00.318-.316v-1.391a.327.327 0 00-.318-.316h-3.947a.327.327 0 00-.318.316v1.391c0 .186.15.316.318.316zm20.502 0h17.902a.327.327 0 00.318-.316v-1.391a.327.327 0 00-.318-.316h-17.902a.327.327 0 00-.318.316v1.391c0 .186.15.316.318.316zm32.735 0h5.425a.327.327 0 00.318-.316v-1.391a.327.327 0 00-.318-.316h-5.425a.327.327 0 00-.318.316v1.391c0 .186.131.316.318.316zm5.069-32.173h1.403a.327.327 0 00.318-.316v-1.391a.327.327 0 00-.318-.316h-1.403a.327.327 0 00-.318.316v1.391c0 .167.131.316.318.316z" fill="#151515"/><path d="M581.599 284.692l4.471-4.434a1.37 1.37 0 000-1.948l-1.796-1.782-8.642 8.572c-.879.872-.262 2.338.973 2.338h7.763l-2.769-2.746z" fill="#00B0CE"/><path d="M591.946 284.729h-7.763l2.769 2.747-4.471 4.434a1.37 1.37 0 000 1.948l1.796 1.781 8.642-8.572c.879-.872.262-2.338-.973-2.338z" fill="#00B0CE"/><path d="M590.706 308.181c3.292 0 5.985-2.671 5.985-5.937 0-3.266-2.693-5.937-5.985-5.937-3.293 0-5.986 2.671-5.986 5.937 0 3.266 2.675 5.937 5.986 5.937zm0-10.204c2.375 0 4.302 1.911 4.302 4.267 0 2.356-1.927 4.268-4.302 4.268-2.376 0-4.303-1.912-4.303-4.268s1.927-4.267 4.303-4.267z" fill="#151515"/><path d="M590.685 303.246c-.558 0-1.01-.449-1.01-1.002 0-.553.452-1.002 1.01-1.002s1.01.449 1.01 1.002c0 .553-.452 1.002-1.01 1.002zm-34.526 4.935c3.292 0 5.986-2.671 5.986-5.937 0-3.266-2.694-5.937-5.986-5.937-3.293 0-5.986 2.671-5.986 5.937 0 3.266 2.693 5.937 5.986 5.937zm0-10.204c2.375 0 4.302 1.911 4.302 4.267 0 2.356-1.927 4.268-4.302 4.268-2.376 0-4.303-1.912-4.303-4.268s1.927-4.267 4.303-4.267z" fill="#151515"/><path d="M556.138 303.246c-.558 0-1.01-.449-1.01-1.002 0-.553.452-1.002 1.01-1.002s1.01.449 1.01 1.002c0 .553-.452 1.002-1.01 1.002z" fill="#151515"/><path d="M545.607 303.117h5.201v-1.67h-4.901v-9.908l8.941-13.73h9.484v23.619h-2.544v1.67h4.228v-26.941H554.68a1.4 1.4 0 00-1.16.631l-9.091 13.934a1.33 1.33 0 00-.224.743v10.297a1.4 1.4 0 001.402 1.355z" fill="#151515"/><path d="M545.852 291.019h15.376a.915.915 0 00.917-.909v-8.924a.915.915 0 00-.917-.91H551.8v1.67h8.661v7.403h-14.609v1.67z" fill="#151515"/><path d="M115.896 166.968l.437-.54c.492-.638.772-1.595.841-2.871l.116-2.953h4.765v6.364h.95v3.206h-1.265V168h-5.161v2.174h-1.265l.007-3.206h.575zm1.497 0h3.397v-5.196h-2.276l-.076 1.764c-.077 1.472-.426 2.616-1.045 3.432zm6.678-2.735c0-.724.142-1.376.424-1.955a3.226 3.226 0 011.19-1.34c.51-.314 1.091-.471 1.743-.471 1.007 0 1.82.348 2.44 1.046.625.697.937 1.624.937 2.782v.089c0 .72-.139 1.367-.417 1.941a3.117 3.117 0 01-1.183 1.333c-.51.319-1.098.479-1.764.479-1.002 0-1.816-.349-2.44-1.046-.62-.697-.93-1.62-.93-2.769v-.089zm1.272.151c0 .82.189 1.479.567 1.975.383.497.893.745 1.531.745.643 0 1.153-.25 1.532-.751.378-.506.567-1.213.567-2.12 0-.811-.194-1.467-.581-1.968-.383-.506-.893-.759-1.531-.759-.625 0-1.128.248-1.511.745s-.574 1.208-.574 2.133zm11.826-2.735h-3.411V168h-1.272v-7.396h4.683v1.045zm.629 2.584c0-.724.141-1.376.424-1.955.287-.578.683-1.025 1.189-1.34.511-.314 1.092-.471 1.743-.471 1.007 0 1.821.348 2.441 1.046.624.697.936 1.624.936 2.782v.089c0 .72-.139 1.367-.417 1.941a3.109 3.109 0 01-1.182 1.333c-.511.319-1.099.479-1.764.479-1.003 0-1.816-.349-2.44-1.046-.62-.697-.93-1.62-.93-2.769v-.089zm1.271.151c0 .82.189 1.479.568 1.975.383.497.893.745 1.531.745.643 0 1.153-.25 1.531-.751.378-.506.568-1.213.568-2.12 0-.811-.194-1.467-.581-1.968-.383-.506-.894-.759-1.532-.759-.624 0-1.128.248-1.51.745-.383.497-.575 1.208-.575 2.133zm7.164 3.616v-7.396h2.885c.985 0 1.739.173 2.263.519.529.342.793.845.793 1.511 0 .342-.103.651-.308.929-.205.274-.508.484-.909.629.447.105.804.31 1.073.616.274.305.41.67.41 1.093 0 .679-.25 1.199-.752 1.559-.496.36-1.2.54-2.112.54h-3.343zm1.265-3.247v2.228h2.092c.528 0 .923-.098 1.182-.293.265-.196.397-.472.397-.828 0-.738-.542-1.107-1.627-1.107h-2.044zm0-1.012h1.634c1.185 0 1.777-.346 1.777-1.039s-.56-1.05-1.681-1.073h-1.73v2.112zm6.282.492c0-.724.142-1.376.424-1.955a3.226 3.226 0 011.19-1.34c.51-.314 1.091-.471 1.743-.471 1.007 0 1.82.348 2.44 1.046.624.697.937 1.624.937 2.782v.089c0 .72-.139 1.367-.417 1.941a3.117 3.117 0 01-1.183 1.333c-.51.319-1.098.479-1.764.479-1.002 0-1.816-.349-2.44-1.046-.62-.697-.93-1.62-.93-2.769v-.089zm1.272.151c0 .82.189 1.479.567 1.975.383.497.893.745 1.531.745.643 0 1.153-.25 1.532-.751.378-.506.567-1.213.567-2.12 0-.811-.194-1.467-.581-1.968-.383-.506-.893-.759-1.531-.759-.625 0-1.128.248-1.511.745s-.574 1.208-.574 2.133zm13.296 0c0 1.125-.258 2.032-.773 2.72-.515.689-1.212 1.033-2.092 1.033-.897 0-1.604-.285-2.119-.855v3.562H162.1v-10.24h1.155l.061.82c.515-.638 1.231-.957 2.147-.957.889 0 1.59.335 2.105 1.005.52.67.78 1.602.78 2.796v.116zm-1.265-.144c0-.834-.178-1.492-.533-1.975-.356-.483-.843-.725-1.463-.725-.766 0-1.34.34-1.723 1.019v3.534c.379.674.957 1.011 1.737 1.011.606 0 1.087-.239 1.442-.717.36-.483.54-1.199.54-2.147zm12.414-3.636V168h-1.271v-6.351h-2.516l-.15 2.769c-.082 1.271-.297 2.181-.643 2.728-.342.546-.886.831-1.634.854h-.506v-1.114l.363-.028c.41-.045.704-.282.881-.711.178-.428.292-1.221.342-2.378l.137-3.165h4.997zm6.815 0h1.265V168h-1.265v-5.394L182.901 168h-1.264v-7.396h1.264v5.4l3.411-5.4zm7.363 2.023a.972.972 0 00-.397-.82c-.264-.205-.626-.308-1.087-.308-.446 0-.82.116-1.121.349-.296.232-.444.506-.444.82h-1.258c0-.643.269-1.169.807-1.579.538-.41 1.21-.615 2.016-.615.866 0 1.541.186 2.024.56.483.369.724.898.724 1.586 0 .333-.1.638-.3.916-.201.278-.486.499-.855.663.862.292 1.292.866 1.292 1.723 0 .679-.262 1.217-.786 1.613-.524.397-1.224.595-2.099.595-.852 0-1.556-.207-2.112-.622-.551-.419-.827-.985-.827-1.696h1.258c0 .361.159.67.478.93.324.255.725.383 1.203.383.483 0 .873-.112 1.169-.335.297-.223.445-.513.445-.868 0-.415-.126-.711-.376-.889-.246-.182-.631-.273-1.156-.273h-1.264v-1.067h1.374c.861-.022 1.292-.378 1.292-1.066zm7.827-2.023h1.265V168h-1.265v-5.394L198.091 168h-1.265v-7.396h1.265v5.4l3.411-5.4zM210.84 168h-1.265v-3.158h-3.397V168h-1.272v-7.396h1.272v3.206h3.397v-3.206h1.265V168zm6.815-6.351h-3.411V168h-1.271v-7.396h4.682v1.045zm5.667 6.351c-.073-.146-.132-.406-.177-.779-.588.61-1.29.916-2.106.916-.729 0-1.328-.205-1.798-.616-.465-.414-.697-.938-.697-1.572 0-.77.292-1.367.875-1.791.588-.428 1.413-.642 2.475-.642h1.23v-.581c0-.442-.132-.793-.396-1.053-.265-.264-.654-.397-1.169-.397-.452 0-.83.114-1.135.342-.306.228-.458.504-.458.827h-1.272c0-.369.13-.724.39-1.066a2.7 2.7 0 011.066-.82 3.608 3.608 0 011.484-.301c.852 0 1.52.214 2.003.642.483.424.733 1.01.752 1.757v3.405c0 .679.086 1.219.259 1.62V168h-1.326zm-2.098-.964c.396 0 .772-.102 1.128-.307.355-.206.613-.472.772-.8v-1.518h-.991c-1.55 0-2.324.454-2.324 1.36 0 .397.132.707.396.93.264.223.604.335 1.019.335zM114.349 193h-6.522v-.909l3.445-3.828c.511-.579.862-1.048 1.053-1.409a2.35 2.35 0 00.294-1.127c0-.52-.157-.946-.472-1.279-.314-.332-.733-.499-1.257-.499-.629 0-1.119.18-1.47.54-.346.356-.52.852-.52 1.49h-1.264c0-.916.294-1.656.882-2.221.592-.565 1.383-.848 2.372-.848.925 0 1.656.244 2.194.732.538.483.807 1.128.807 1.934 0 .98-.625 2.147-1.873 3.5l-2.666 2.892h4.997V193zm7.581-4.245c0 1.481-.253 2.582-.759 3.302-.506.72-1.297 1.08-2.372 1.08-1.062 0-1.848-.351-2.359-1.053-.51-.706-.774-1.759-.793-3.158v-1.689c0-1.463.253-2.549.759-3.26.506-.711 1.299-1.067 2.379-1.067 1.071 0 1.86.344 2.365 1.032.506.684.766 1.741.78 3.172v1.641zm-1.265-1.73c0-1.071-.15-1.85-.451-2.337-.301-.493-.777-.739-1.429-.739-.647 0-1.119.244-1.415.732-.296.487-.449 1.237-.458 2.249v2.023c0 1.076.155 1.871.465 2.386.314.51.788.765 1.422.765.624 0 1.087-.241 1.388-.724.305-.483.464-1.244.478-2.283v-2.072zm2.775-2.064c0-.597.19-1.089.568-1.477.383-.387.873-.581 1.47-.581.606 0 1.096.196 1.469.588.379.388.568.891.568 1.511v.485c0 .602-.192 1.094-.575 1.477-.378.378-.861.567-1.449.567-.592 0-1.082-.189-1.47-.567-.387-.383-.581-.891-.581-1.525v-.478zm.944.526c0 .356.1.65.301.882.2.228.469.342.806.342.324 0 .584-.112.78-.335.2-.223.3-.529.3-.916v-.499c0-.356-.098-.649-.294-.882-.196-.232-.462-.349-.799-.349-.338 0-.604.117-.8.349-.196.233-.294.536-.294.909v.499zm3.903 5.073c0-.597.189-1.087.567-1.47.383-.388.873-.581 1.47-.581s1.087.191 1.47.574c.383.383.574.891.574 1.524v.486c0 .597-.191 1.089-.574 1.476-.378.383-.864.575-1.456.575-.593 0-1.082-.19-1.47-.568-.387-.383-.581-.891-.581-1.524v-.492zm.943.533c0 .36.101.656.301.888.201.228.47.342.807.342.328 0 .59-.111.786-.335.196-.228.294-.535.294-.923v-.505c0-.36-.1-.654-.301-.882-.196-.228-.46-.342-.793-.342-.323 0-.588.114-.793.342-.2.223-.301.526-.301.909v.506zm-3.452 1.155l-.717-.451 4.86-7.779.718.451-4.861 7.779zm16.195.752c-.073-.146-.133-.406-.178-.779-.588.61-1.29.916-2.106.916-.729 0-1.328-.205-1.797-.616a2.014 2.014 0 01-.698-1.572c0-.77.292-1.367.875-1.791.588-.428 1.413-.642 2.475-.642h1.23v-.581c0-.442-.132-.793-.396-1.053-.264-.264-.654-.397-1.169-.397-.451 0-.829.114-1.135.342-.305.228-.458.504-.458.827h-1.271c0-.369.13-.724.389-1.066.265-.346.62-.62 1.067-.82a3.6 3.6 0 011.483-.301c.852 0 1.52.214 2.003.642.483.424.734 1.01.752 1.757v3.405c0 .679.087 1.219.26 1.62V193h-1.326zm-2.099-.964c.397 0 .772-.102 1.128-.307.355-.206.613-.472.772-.8v-1.518h-.991c-1.549 0-2.324.454-2.324 1.36 0 .397.132.707.396.93.265.223.604.335 1.019.335zm5.264.964v-7.396h2.884c.985 0 1.739.173 2.263.519.529.342.793.845.793 1.511 0 .342-.102.651-.307.929-.206.274-.509.484-.91.629.447.105.805.31 1.074.616.273.305.41.67.41 1.093 0 .679-.251 1.199-.752 1.559-.497.36-1.201.54-2.113.54h-3.342zm1.264-3.247v2.228h2.092c.529 0 .923-.098 1.183-.293.264-.196.396-.472.396-.828 0-.738-.542-1.107-1.627-1.107h-2.044zm0-1.012h1.634c1.185 0 1.777-.346 1.777-1.039s-.56-1.05-1.681-1.073h-1.73v2.112zM157.586 193c-.073-.146-.132-.406-.178-.779-.588.61-1.29.916-2.105.916-.729 0-1.329-.205-1.798-.616-.465-.414-.697-.938-.697-1.572 0-.77.291-1.367.875-1.791.588-.428 1.412-.642 2.474-.642h1.231v-.581c0-.442-.132-.793-.397-1.053-.264-.264-.654-.397-1.169-.397-.451 0-.829.114-1.134.342-.306.228-.459.504-.459.827h-1.271c0-.369.13-.724.39-1.066.264-.346.619-.62 1.066-.82a3.604 3.604 0 011.483-.301c.853 0 1.52.214 2.003.642.483.424.734 1.01.752 1.757v3.405c0 .679.087 1.219.26 1.62V193h-1.326zm-2.099-.964a2.22 2.22 0 001.128-.307c.356-.206.613-.472.773-.8v-1.518h-.992c-1.549 0-2.324.454-2.324 1.36 0 .397.132.707.397.93.264.223.604.335 1.018.335zm11.191.964h-1.265v-3.158h-3.397V193h-1.272v-7.396h1.272v3.206h3.397v-3.206h1.265V193zm5.004-.896c.451 0 .845-.136 1.182-.41.337-.273.524-.615.561-1.025h1.196a2.302 2.302 0 01-.437 1.21 2.876 2.876 0 01-1.08.916 3.087 3.087 0 01-1.422.342c-1.008 0-1.81-.335-2.407-1.005-.592-.675-.888-1.595-.888-2.762v-.212c0-.72.132-1.36.396-1.921.265-.56.643-.995 1.135-1.305.497-.31 1.082-.465 1.757-.465.829 0 1.517.248 2.064.745.552.497.846 1.142.882 1.934h-1.196c-.037-.478-.219-.87-.547-1.175-.324-.31-.725-.465-1.203-.465-.643 0-1.142.232-1.497.697-.351.46-.527 1.128-.527 2.003v.239c0 .853.176 1.509.527 1.969.351.46.852.69 1.504.69zm-67.661 19.5V219h-1.272v-6.351h-2.516l-.15 2.769c-.082 1.271-.296 2.181-.643 2.728-.341.546-.886.831-1.633.854H97.3v-1.114l.362-.028c.41-.045.704-.282.882-.711.178-.428.292-1.221.342-2.378l.136-3.165h4.998zm6.815 0h1.265V219h-1.265v-5.394L107.425 219h-1.265v-7.396h1.265v5.4l3.411-5.4zm7.362 2.023a.974.974 0 00-.396-.82c-.265-.205-.627-.308-1.087-.308-.447 0-.82.116-1.121.349-.296.232-.445.506-.445.82h-1.257c0-.643.268-1.169.806-1.579.538-.41 1.21-.615 2.017-.615.866 0 1.54.186 2.023.56.483.369.725.898.725 1.586 0 .333-.1.638-.301.916-.2.278-.485.499-.854.663.861.292 1.292.866 1.292 1.723 0 .679-.262 1.217-.787 1.613-.524.397-1.223.595-2.098.595-.852 0-1.556-.207-2.112-.622-.552-.419-.828-.985-.828-1.696h1.258c0 .361.16.67.479.93.323.255.724.383 1.203.383.483 0 .873-.112 1.169-.335a1.04 1.04 0 00.444-.868c0-.415-.125-.711-.376-.889-.246-.182-.631-.273-1.155-.273h-1.265v-1.067h1.374c.862-.022 1.292-.378 1.292-1.066zm7.827-2.023h1.265V219h-1.265v-5.394L122.614 219h-1.264v-7.396h1.264v5.4l3.411-5.4zm9.338 7.396h-1.264v-3.158h-3.398V219h-1.271v-7.396h1.271v3.206h3.398v-3.206h1.264V219zm6.816-6.351h-3.411V219h-1.272v-7.396h4.683v1.045zm.629 2.584c0-.724.141-1.376.423-1.955.288-.578.684-1.025 1.19-1.34.51-.314 1.091-.471 1.743-.471 1.007 0 1.821.348 2.44 1.046.625.697.937 1.624.937 2.782v.089c0 .72-.139 1.367-.417 1.941a3.11 3.11 0 01-1.183 1.333c-.51.319-1.098.479-1.763.479-1.003 0-1.816-.349-2.441-1.046-.619-.697-.929-1.62-.929-2.769v-.089zm1.271.151c0 .82.189 1.479.567 1.975.383.497.894.745 1.532.745.642 0 1.153-.25 1.531-.751.378-.506.567-1.213.567-2.12 0-.811-.193-1.467-.581-1.968-.383-.506-.893-.759-1.531-.759-.624 0-1.128.248-1.511.745-.382.497-.574 1.208-.574 2.133zm7.164 3.616v-7.396h2.885c.984 0 1.739.173 2.263.519.528.342.793.845.793 1.511 0 .342-.103.651-.308.929-.205.274-.508.484-.909.629.446.105.804.31 1.073.616.273.305.41.67.41 1.093 0 .679-.25 1.199-.752 1.559-.497.36-1.201.54-2.112.54h-3.343zm1.265-3.247v2.228h2.092c.528 0 .922-.098 1.182-.293.265-.196.397-.472.397-.828 0-.738-.543-1.107-1.627-1.107h-2.044zm0-1.012h1.634c1.184 0 1.777-.346 1.777-1.039s-.561-1.05-1.682-1.073h-1.729v2.112zm7.998-.588h1.921c.838.009 1.501.228 1.989.657.488.428.731 1.009.731 1.743 0 .738-.25 1.33-.751 1.777-.502.447-1.176.67-2.024.67h-3.131v-7.396h1.265v2.549zm7.28 4.847h-1.271v-7.396h1.271V219zm-7.28-3.814v2.782h1.88c.474 0 .841-.121 1.1-.363.26-.246.39-.581.39-1.004 0-.411-.128-.746-.383-1.005-.25-.265-.604-.401-1.059-.41h-1.928zm12.557 3.951c-1.002 0-1.818-.328-2.447-.985-.629-.66-.943-1.542-.943-2.645v-.233c0-.733.139-1.387.417-1.962a3.281 3.281 0 011.176-1.353 2.954 2.954 0 011.64-.492c.962 0 1.709.317 2.242.95.534.633.8 1.54.8 2.721v.526h-5.01c.018.729.23 1.319.635 1.771.41.446.93.669 1.559.669.446 0 .825-.091 1.135-.273a2.85 2.85 0 00.813-.725l.773.602c-.62.952-1.55 1.429-2.79 1.429zm-.157-6.631c-.51 0-.939.187-1.285.56-.346.37-.56.889-.642 1.559h3.705v-.096c-.037-.642-.21-1.139-.52-1.49-.31-.355-.729-.533-1.258-.533zM186.94 219h-1.264v-6.351h-3.405V219H181v-7.396h5.94V219zm8.094-7.396V219h-1.271v-6.351h-2.516l-.15 2.769c-.082 1.271-.297 2.181-.643 2.728-.342.546-.886.831-1.634.854h-.506v-1.114l.363-.028c.41-.045.704-.282.882-.711.177-.428.291-1.221.341-2.378l.137-3.165h4.997zm6.597 7.396c-.073-.146-.132-.406-.178-.779-.588.61-1.29.916-2.105.916-.73 0-1.329-.205-1.798-.616-.465-.414-.697-.938-.697-1.572 0-.77.291-1.367.875-1.791.587-.428 1.412-.642 2.474-.642h1.231v-.581c0-.442-.133-.793-.397-1.053-.264-.264-.654-.397-1.169-.397-.451 0-.829.114-1.135.342-.305.228-.458.504-.458.827h-1.271c0-.369.13-.724.39-1.066.264-.346.619-.62 1.066-.82a3.604 3.604 0 011.483-.301c.853 0 1.52.214 2.003.642.483.424.734 1.01.752 1.757v3.405c0 .679.087 1.219.26 1.62V219h-1.326zm-2.099-.964a2.22 2.22 0 001.128-.307c.356-.206.613-.472.773-.8v-1.518h-.992c-1.549 0-2.324.454-2.324 1.36 0 .397.132.707.397.93.264.223.604.335 1.018.335zm10.534-5.407h-2.481V219h-1.265v-6.371h-2.433v-1.025h6.179v1.025zm3.753 6.508c-1.002 0-1.818-.328-2.447-.985-.629-.66-.943-1.542-.943-2.645v-.233c0-.733.139-1.387.417-1.962a3.286 3.286 0 011.175-1.353 2.96 2.96 0 011.641-.492c.962 0 1.709.317 2.242.95.534.633.8 1.54.8 2.721v.526h-5.011c.019.729.231 1.319.636 1.771.41.446.93.669 1.559.669.446 0 .825-.091 1.134-.273a2.84 2.84 0 00.814-.725l.772.602c-.619.952-1.549 1.429-2.789 1.429zm-.157-6.631c-.51 0-.939.187-1.285.56-.346.37-.561.889-.643 1.559h3.705v-.096c-.036-.642-.209-1.139-.519-1.49-.31-.355-.729-.533-1.258-.533zm10.411 3.281h-.888V219h-1.265v-3.213h-.889L218.96 219h-1.6l2.646-3.828-2.393-3.568h1.532l1.907 3.062h.868v-3.062h1.265v3.062h.861l1.921-3.062h1.531l-2.399 3.575 2.645 3.821h-1.599l-2.072-3.213zm9.605-4.183h1.264V219h-1.264v-5.394L230.267 219h-1.265v-7.396h1.265v5.4l3.411-5.4zM240.946 281h-1.319v-8.873h-4.908V281h-1.313v-9.953h7.54V281zm1.86-3.767c0-.724.141-1.376.423-1.955.288-.578.684-1.025 1.19-1.34.51-.314 1.091-.471 1.743-.471 1.007 0 1.821.348 2.441 1.046.624.697.936 1.624.936 2.782v.089c0 .72-.139 1.367-.417 1.941a3.11 3.11 0 01-1.183 1.333c-.51.319-1.098.479-1.763.479-1.003 0-1.816-.349-2.441-1.046-.619-.697-.929-1.62-.929-2.769v-.089zm1.271.151c0 .82.189 1.479.568 1.975.382.497.893.745 1.531.745.642 0 1.153-.25 1.531-.751.378-.506.567-1.213.567-2.12 0-.811-.193-1.467-.581-1.968-.382-.506-.893-.759-1.531-.759-.624 0-1.128.248-1.511.745-.382.497-.574 1.208-.574 2.133zm10.015 2.72c.451 0 .845-.136 1.182-.41.338-.273.525-.615.561-1.025h1.196a2.294 2.294 0 01-.437 1.21 2.876 2.876 0 01-1.08.916 3.087 3.087 0 01-1.422.342c-1.007 0-1.809-.335-2.406-1.005-.593-.675-.889-1.595-.889-2.762v-.212c0-.72.132-1.36.396-1.921.265-.56.643-.995 1.135-1.305.497-.31 1.082-.465 1.757-.465.829 0 1.518.248 2.064.745.552.497.846 1.142.882 1.934h-1.196c-.036-.478-.219-.87-.547-1.175-.323-.31-.725-.465-1.203-.465-.643 0-1.142.232-1.497.697-.351.46-.526 1.128-.526 2.003v.239c0 .853.175 1.509.526 1.969.351.46.852.69 1.504.69zm9.857-5.475h-2.481V281h-1.265v-6.371h-2.433v-1.025h6.179v1.025zm5.688 6.371c-.073-.146-.132-.406-.178-.779-.588.61-1.29.916-2.105.916-.73 0-1.329-.205-1.798-.616a2.014 2.014 0 01-.698-1.572c0-.77.292-1.367.875-1.791.588-.428 1.413-.642 2.475-.642h1.23v-.581c0-.442-.132-.793-.396-1.053-.264-.264-.654-.397-1.169-.397-.451 0-.829.114-1.135.342-.305.228-.458.504-.458.827h-1.271c0-.369.13-.724.389-1.066.265-.346.62-.62 1.067-.82a3.6 3.6 0 011.483-.301c.852 0 1.52.214 2.003.642.483.424.734 1.01.752 1.757v3.405c0 .679.087 1.219.26 1.62V281h-1.326zm-2.099-.964a2.22 2.22 0 001.128-.307c.355-.206.613-.472.772-.8v-1.518h-.991c-1.549 0-2.324.454-2.324 1.36 0 .397.132.707.397.93.264.223.603.335 1.018.335zm5.264.964v-7.396h2.885c.984 0 1.738.173 2.262.519.529.342.793.845.793 1.511 0 .342-.102.651-.307.929-.206.274-.509.484-.91.629.447.105.805.31 1.074.616.273.305.41.67.41 1.093 0 .679-.251 1.199-.752 1.559-.497.36-1.201.54-2.112.54h-3.343zm1.264-3.247v2.228h2.092c.529 0 .923-.098 1.183-.293.264-.196.396-.472.396-.828 0-.738-.542-1.107-1.627-1.107h-2.044zm0-1.012h1.634c1.185 0 1.778-.346 1.778-1.039s-.561-1.05-1.682-1.073h-1.73v2.112zm8.921 1.108h-.923V281h-1.271v-7.396h1.271v3.13h.828l2.488-3.13h1.531l-2.926 3.554 3.172 3.842h-1.606l-2.564-3.151zm9.824 3.151c-.073-.146-.133-.406-.178-.779-.588.61-1.29.916-2.106.916-.729 0-1.328-.205-1.798-.616a2.016 2.016 0 01-.697-1.572c0-.77.292-1.367.875-1.791.588-.428 1.413-.642 2.475-.642h1.23v-.581c0-.442-.132-.793-.396-1.053-.265-.264-.654-.397-1.169-.397-.451 0-.83.114-1.135.342-.305.228-.458.504-.458.827h-1.271c0-.369.129-.724.389-1.066.265-.346.62-.62 1.067-.82a3.6 3.6 0 011.483-.301c.852 0 1.52.214 2.003.642.483.424.734 1.01.752 1.757v3.405c0 .679.087 1.219.26 1.62V281h-1.326zm-2.099-.964c.396 0 .772-.102 1.128-.307.355-.206.613-.472.772-.8v-1.518h-.991c-1.549 0-2.324.454-2.324 1.36 0 .397.132.707.396.93.265.223.604.335 1.019.335zm8.285-2.803c0-.724.141-1.376.424-1.955.287-.578.683-1.025 1.189-1.34.511-.314 1.092-.471 1.744-.471 1.007 0 1.82.348 2.44 1.046.624.697.936 1.624.936 2.782v.089c0 .72-.139 1.367-.417 1.941a3.109 3.109 0 01-1.182 1.333c-.511.319-1.098.479-1.764.479-1.002 0-1.816-.349-2.44-1.046-.62-.697-.93-1.62-.93-2.769v-.089zm1.272.151c0 .82.189 1.479.567 1.975.383.497.893.745 1.531.745.643 0 1.153-.25 1.531-.751.379-.506.568-1.213.568-2.12 0-.811-.194-1.467-.581-1.968-.383-.506-.893-.759-1.531-.759-.625 0-1.128.248-1.511.745s-.574 1.208-.574 2.133zm10.294-3.357c.93 0 1.673.313 2.229.937.561.62.841 1.438.841 2.454v.116c0 .697-.135 1.322-.404 1.873a3.006 3.006 0 01-1.162 1.279c-.501.3-1.08.451-1.736.451-.993 0-1.793-.331-2.399-.991-.606-.666-.91-1.557-.91-2.673v-.616c0-1.554.288-2.789.862-3.705.579-.916 1.431-1.474 2.556-1.674.638-.114 1.069-.253 1.292-.417a.794.794 0 00.335-.677h1.039c0 .569-.129 1.014-.389 1.333-.255.319-.666.544-1.231.677l-.943.211c-.752.178-1.317.479-1.695.903-.374.419-.618.98-.732 1.681.67-.774 1.486-1.162 2.447-1.162zm-.246 1.039c-.619 0-1.112.21-1.476.629-.365.415-.547.992-.547 1.73v.109c0 .793.182 1.422.547 1.887.369.46.866.69 1.49.69.629 0 1.126-.232 1.49-.697.365-.465.547-1.144.547-2.037 0-.697-.184-1.256-.554-1.675-.364-.424-.863-.636-1.497-.636zm4.403 2.167c0-.724.141-1.376.424-1.955.287-.578.683-1.025 1.189-1.34.51-.314 1.091-.471 1.743-.471 1.007 0 1.821.348 2.441 1.046.624.697.936 1.624.936 2.782v.089c0 .72-.139 1.367-.417 1.941a3.115 3.115 0 01-1.182 1.333c-.511.319-1.099.479-1.764.479-1.003 0-1.816-.349-2.441-1.046-.619-.697-.929-1.62-.929-2.769v-.089zm1.271.151c0 .82.189 1.479.568 1.975.382.497.893.745 1.531.745.642 0 1.153-.25 1.531-.751.378-.506.567-1.213.567-2.12 0-.811-.193-1.467-.581-1.968-.382-.506-.893-.759-1.531-.759-.624 0-1.128.248-1.511.745-.382.497-.574 1.208-.574 2.133zm13.296 0c0 1.125-.257 2.032-.772 2.72-.515.689-1.213 1.033-2.092 1.033-.898 0-1.604-.285-2.119-.855v3.562h-1.265v-10.24h1.155l.062.82c.515-.638 1.23-.957 2.146-.957.889 0 1.591.335 2.106 1.005.519.67.779 1.602.779 2.796v.116zm-1.265-.144c0-.834-.177-1.492-.533-1.975-.355-.483-.843-.725-1.463-.725-.765 0-1.339.34-1.722 1.019v3.534c.378.674.957 1.011 1.736 1.011.606 0 1.087-.239 1.442-.717.36-.483.54-1.199.54-2.147zm5.216 1.907l1.723-5.543h1.353l-2.973 8.538c-.46 1.23-1.192 1.845-2.195 1.845l-.239-.02-.471-.089v-1.025l.341.027c.429 0 .761-.087.998-.26.242-.173.44-.49.595-.95l.28-.752-2.638-7.314h1.381l1.845 5.543zm3.767.821l.437-.54c.493-.638.773-1.595.841-2.871l.116-2.953h4.765v6.364h.95v3.206h-1.264V281h-5.162v2.174h-1.264l.007-3.206h.574zm1.497 0h3.397v-5.196h-2.276l-.075 1.764c-.078 1.472-.426 2.616-1.046 3.432zm6.679-2.735c0-.724.141-1.376.423-1.955.288-.578.684-1.025 1.19-1.34.51-.314 1.091-.471 1.743-.471 1.007 0 1.821.348 2.441 1.046.624.697.936 1.624.936 2.782v.089c0 .72-.139 1.367-.417 1.941a3.11 3.11 0 01-1.183 1.333c-.51.319-1.098.479-1.763.479-1.003 0-1.816-.349-2.441-1.046-.619-.697-.929-1.62-.929-2.769v-.089zm1.271.151c0 .82.189 1.479.568 1.975.382.497.893.745 1.531.745.642 0 1.153-.25 1.531-.751.378-.506.567-1.213.567-2.12 0-.811-.193-1.467-.581-1.968-.382-.506-.893-.759-1.531-.759-.624 0-1.128.248-1.511.745-.382.497-.574 1.208-.574 2.133zm7.164 3.616v-7.396h2.885c.984 0 1.739.173 2.263.519.528.342.793.845.793 1.511 0 .342-.103.651-.308.929-.205.274-.508.484-.909.629.446.105.804.31 1.073.616.274.305.41.67.41 1.093 0 .679-.25 1.199-.752 1.559-.496.36-1.201.54-2.112.54h-3.343zm1.265-3.247v2.228h2.092c.528 0 .923-.098 1.182-.293.265-.196.397-.472.397-.828 0-.738-.543-1.107-1.627-1.107h-2.044zm0-1.012h1.634c1.185 0 1.777-.346 1.777-1.039s-.561-1.05-1.682-1.073h-1.729v2.112zM366.064 281c-.072-.146-.132-.406-.177-.779-.588.61-1.29.916-2.106.916-.729 0-1.328-.205-1.798-.616a2.016 2.016 0 01-.697-1.572c0-.77.292-1.367.875-1.791.588-.428 1.413-.642 2.475-.642h1.23v-.581c0-.442-.132-.793-.396-1.053-.265-.264-.654-.397-1.169-.397-.451 0-.83.114-1.135.342-.305.228-.458.504-.458.827h-1.271c0-.369.129-.724.389-1.066.264-.346.62-.62 1.067-.82a3.6 3.6 0 011.483-.301c.852 0 1.52.214 2.003.642.483.424.734 1.01.752 1.757v3.405c0 .679.086 1.219.26 1.62V281h-1.327zm-2.098-.964c.396 0 .772-.102 1.128-.307.355-.206.613-.472.772-.8v-1.518h-.991c-1.549 0-2.324.454-2.324 1.36 0 .397.132.707.396.93.265.223.604.335 1.019.335zm11.19.964h-1.264v-3.158h-3.398V281h-1.271v-7.396h1.271v3.206h3.398v-3.206h1.264V281zm6.823-7.396h1.264V281h-1.264v-5.394L378.567 281h-1.264v-7.396h1.264v5.4l3.412-5.4zm8.948 0V281h-1.272v-2.878h-1.907L386.005 281h-1.367l1.859-3.069c-.474-.174-.838-.44-1.094-.8a2.197 2.197 0 01-.376-1.272c0-.674.253-1.216.759-1.627.506-.414 1.183-.624 2.03-.628h3.111zm-4.628 2.269c0 .36.123.652.369.875.246.219.572.33.978.335h2.009v-2.454h-1.818c-.469 0-.843.116-1.121.349a1.1 1.1 0 00-.417.895zm.856-83.905l.438-.54c.492-.638.772-1.595.841-2.871l.116-2.953h4.764v6.364h.951v3.206H393V193h-5.161v2.174h-1.265l.007-3.206h.574zm1.497 0h3.398v-5.196h-2.277l-.075 1.764c-.077 1.472-.426 2.616-1.046 3.432zm6.679-2.735c0-.724.141-1.376.424-1.955.287-.578.683-1.025 1.189-1.34.511-.314 1.092-.471 1.744-.471 1.007 0 1.82.348 2.44 1.046.624.697.936 1.624.936 2.782v.089c0 .72-.139 1.367-.417 1.941a3.109 3.109 0 01-1.182 1.333c-.511.319-1.098.479-1.764.479-1.002 0-1.816-.349-2.44-1.046-.62-.697-.93-1.62-.93-2.769v-.089zm1.272.151c0 .82.189 1.479.567 1.975.383.497.893.745 1.531.745.643 0 1.153-.25 1.531-.751.379-.506.568-1.213.568-2.12 0-.811-.194-1.467-.581-1.968-.383-.506-.893-.759-1.531-.759-.625 0-1.128.248-1.511.745s-.574 1.208-.574 2.133zm11.826-2.735h-3.411V193h-1.272v-7.396h4.683v1.045zm.629 2.584c0-.724.141-1.376.423-1.955.288-.578.684-1.025 1.19-1.34.51-.314 1.091-.471 1.743-.471 1.007 0 1.821.348 2.44 1.046.625.697.937 1.624.937 2.782v.089c0 .72-.139 1.367-.417 1.941a3.11 3.11 0 01-1.183 1.333c-.51.319-1.098.479-1.763.479-1.003 0-1.816-.349-2.441-1.046-.619-.697-.929-1.62-.929-2.769v-.089zm1.271.151c0 .82.189 1.479.567 1.975.383.497.894.745 1.532.745.642 0 1.153-.25 1.531-.751.378-.506.567-1.213.567-2.12 0-.811-.193-1.467-.581-1.968-.383-.506-.893-.759-1.531-.759-.624 0-1.128.248-1.511.745-.382.497-.574 1.208-.574 2.133zm7.164 3.616v-7.396h2.885c.984 0 1.739.173 2.263.519.528.342.793.845.793 1.511 0 .342-.103.651-.308.929-.205.274-.508.484-.909.629.446.105.804.31 1.073.616.273.305.41.67.41 1.093 0 .679-.25 1.199-.752 1.559-.497.36-1.201.54-2.112.54h-3.343zm1.265-3.247v2.228h2.092c.528 0 .922-.098 1.182-.293.265-.196.397-.472.397-.828 0-.738-.543-1.107-1.627-1.107h-2.044zm0-1.012h1.634c1.184 0 1.777-.346 1.777-1.039s-.561-1.05-1.682-1.073h-1.729v2.112zm6.282.492c0-.724.141-1.376.424-1.955.287-.578.683-1.025 1.189-1.34.511-.314 1.092-.471 1.743-.471 1.008 0 1.821.348 2.441 1.046.624.697.936 1.624.936 2.782v.089c0 .72-.139 1.367-.417 1.941a3.109 3.109 0 01-1.182 1.333c-.511.319-1.098.479-1.764.479-1.002 0-1.816-.349-2.44-1.046-.62-.697-.93-1.62-.93-2.769v-.089zm1.272.151c0 .82.189 1.479.567 1.975.383.497.893.745 1.531.745.643 0 1.153-.25 1.531-.751.379-.506.568-1.213.568-2.12 0-.811-.194-1.467-.581-1.968-.383-.506-.893-.759-1.532-.759-.624 0-1.127.248-1.51.745s-.574 1.208-.574 2.133zm13.295 0c0 1.125-.257 2.032-.772 2.72-.515.689-1.212 1.033-2.092 1.033-.898 0-1.604-.285-2.119-.855v3.562h-1.265v-10.24h1.156l.061.82c.515-.638 1.231-.957 2.147-.957.888 0 1.59.335 2.105 1.005.52.67.779 1.602.779 2.796v.116zm-1.264-.144c0-.834-.178-1.492-.533-1.975-.356-.483-.844-.725-1.463-.725-.766 0-1.34.34-1.723 1.019v3.534c.378.674.957 1.011 1.736 1.011.606 0 1.087-.239 1.443-.717.36-.483.54-1.199.54-2.147zm12.4 3.76h-1.264v-6.351h-3.405V193h-1.271v-7.396h5.94V193zm1.695-3.767c0-.724.142-1.376.424-1.955a3.226 3.226 0 011.19-1.34c.51-.314 1.091-.471 1.743-.471 1.007 0 1.821.348 2.44 1.046.625.697.937 1.624.937 2.782v.089c0 .72-.139 1.367-.417 1.941a3.117 3.117 0 01-1.183 1.333c-.51.319-1.098.479-1.763.479-1.003 0-1.816-.349-2.441-1.046-.62-.697-.93-1.62-.93-2.769v-.089zm1.272.151c0 .82.189 1.479.567 1.975.383.497.894.745 1.532.745.642 0 1.153-.25 1.531-.751.378-.506.567-1.213.567-2.12 0-.811-.193-1.467-.581-1.968-.383-.506-.893-.759-1.531-.759-.624 0-1.128.248-1.511.745s-.574 1.208-.574 2.133zm10.015 2.72c.451 0 .845-.136 1.182-.41.337-.273.524-.615.561-1.025h1.196a2.302 2.302 0 01-.437 1.21 2.872 2.872 0 01-1.081.916 3.08 3.08 0 01-1.421.342c-1.008 0-1.81-.335-2.407-1.005-.592-.675-.888-1.595-.888-2.762v-.212c0-.72.132-1.36.396-1.921.264-.56.643-.995 1.135-1.305.497-.31 1.082-.465 1.757-.465.829 0 1.517.248 2.064.745.552.497.846 1.142.882 1.934h-1.196c-.037-.478-.219-.87-.547-1.175-.324-.31-.725-.465-1.203-.465-.643 0-1.142.232-1.497.697-.351.46-.527 1.128-.527 2.003v.239c0 .853.176 1.509.527 1.969.351.46.852.69 1.504.69zm9.857-5.475h-2.481V193h-1.265v-6.371h-2.434v-1.025h6.18v1.025zM479.27 193c-.073-.146-.133-.406-.178-.779-.588.61-1.29.916-2.106.916-.729 0-1.328-.205-1.798-.616a2.016 2.016 0 01-.697-1.572c0-.77.292-1.367.875-1.791.588-.428 1.413-.642 2.475-.642h1.23v-.581c0-.442-.132-.793-.396-1.053-.265-.264-.654-.397-1.169-.397-.451 0-.83.114-1.135.342-.305.228-.458.504-.458.827h-1.271c0-.369.129-.724.389-1.066.265-.346.62-.62 1.067-.82a3.6 3.6 0 011.483-.301c.852 0 1.52.214 2.003.642.483.424.734 1.01.752 1.757v3.405c0 .679.087 1.219.26 1.62V193h-1.326zm-2.099-.964c.396 0 .772-.102 1.128-.307.355-.206.613-.472.772-.8v-1.518h-.991c-1.549 0-2.324.454-2.324 1.36 0 .397.132.707.396.93.265.223.604.335 1.019.335zm5.264.964v-7.396h2.884c.985 0 1.739.173 2.263.519.529.342.793.845.793 1.511 0 .342-.103.651-.308.929-.205.274-.508.484-.909.629.447.105.805.31 1.073.616.274.305.411.67.411 1.093 0 .679-.251 1.199-.752 1.559-.497.36-1.201.54-2.113.54h-3.342zm1.264-3.247v2.228h2.092c.529 0 .923-.098 1.183-.293.264-.196.396-.472.396-.828 0-.738-.542-1.107-1.627-1.107h-2.044zm0-1.012h1.634c1.185 0 1.777-.346 1.777-1.039s-.56-1.05-1.681-1.073h-1.73v2.112zm8.921 1.108h-.923V193h-1.271v-7.396h1.271v3.13h.827l2.489-3.13h1.531l-2.926 3.554L496.79 193h-1.606l-2.564-3.151zm10.042-4.245h1.265V193h-1.265v-5.394L499.251 193h-1.265v-7.396h1.265v5.4l3.411-5.4zM436.776 219h-1.271v-8.429l-2.55.937v-1.149l3.623-1.36h.198V219zm9.947-4.245c0 1.481-.253 2.582-.759 3.302-.506.72-1.297 1.08-2.372 1.08-1.062 0-1.848-.351-2.359-1.053-.51-.706-.774-1.759-.793-3.158v-1.689c0-1.463.253-2.549.759-3.26.506-.711 1.299-1.067 2.379-1.067 1.071 0 1.86.344 2.365 1.032.506.684.766 1.741.78 3.172v1.641zm-1.265-1.73c0-1.071-.15-1.85-.451-2.337-.301-.493-.777-.739-1.429-.739-.647 0-1.119.244-1.415.732-.296.487-.449 1.237-.458 2.249v2.023c0 1.076.155 1.871.465 2.386.314.51.788.765 1.422.765.624 0 1.087-.241 1.387-.724.306-.483.465-1.244.479-2.283v-2.072zm9.126 1.73c0 1.481-.253 2.582-.759 3.302-.506.72-1.296 1.08-2.372 1.08-1.062 0-1.848-.351-2.358-1.053-.511-.706-.775-1.759-.793-3.158v-1.689c0-1.463.253-2.549.759-3.26.505-.711 1.298-1.067 2.378-1.067 1.071 0 1.86.344 2.366 1.032.506.684.765 1.741.779 3.172v1.641zm-1.265-1.73c0-1.071-.15-1.85-.451-2.337-.301-.493-.777-.739-1.429-.739-.647 0-1.118.244-1.415.732-.296.487-.448 1.237-.458 2.249v2.023c0 1.076.155 1.871.465 2.386.315.51.789.765 1.422.765.624 0 1.087-.241 1.388-.724.305-.483.465-1.244.478-2.283v-2.072zm2.776-2.064c0-.597.189-1.089.567-1.477.383-.387.873-.581 1.47-.581.606 0 1.096.196 1.47.588.378.388.567.891.567 1.511v.485c0 .602-.191 1.094-.574 1.477-.379.378-.862.567-1.449.567-.593 0-1.083-.189-1.47-.567-.388-.383-.581-.891-.581-1.525v-.478zm.943.526c0 .356.1.65.301.882.2.228.469.342.807.342.323 0 .583-.112.779-.335.2-.223.301-.529.301-.916v-.499c0-.356-.098-.649-.294-.882-.196-.232-.463-.349-.8-.349s-.604.117-.8.349c-.196.233-.294.536-.294.909v.499zm3.903 5.073c0-.597.19-1.087.568-1.47.383-.388.873-.581 1.47-.581s1.086.191 1.469.574c.383.383.574.891.574 1.524v.486c0 .597-.191 1.089-.574 1.476-.378.383-.863.575-1.456.575-.592 0-1.082-.19-1.47-.568-.387-.383-.581-.891-.581-1.524v-.492zm.944.533c0 .36.1.656.301.888.2.228.469.342.806.342.328 0 .59-.111.786-.335.196-.228.294-.535.294-.923v-.505c0-.36-.1-.654-.301-.882-.195-.228-.46-.342-.792-.342-.324 0-.588.114-.793.342-.201.223-.301.526-.301.909v.506zm-3.452 1.155l-.718-.451 4.86-7.779.718.451-4.86 7.779zm11.293-3.015c0-.724.141-1.376.423-1.955.288-.578.684-1.025 1.19-1.34.51-.314 1.091-.471 1.743-.471 1.007 0 1.821.348 2.44 1.046.625.697.937 1.624.937 2.782v.089c0 .72-.139 1.367-.417 1.941a3.11 3.11 0 01-1.183 1.333c-.51.319-1.098.479-1.763.479-1.003 0-1.816-.349-2.441-1.046-.62-.697-.929-1.62-.929-2.769v-.089zm1.271.151c0 .82.189 1.479.567 1.975.383.497.894.745 1.532.745.642 0 1.153-.25 1.531-.751.378-.506.567-1.213.567-2.12 0-.811-.193-1.467-.581-1.968-.383-.506-.893-.759-1.531-.759-.624 0-1.128.248-1.511.745s-.574 1.208-.574 2.133zM484.095 219h-1.265v-6.351h-3.404V219h-1.272v-7.396h5.941V219zm8.093-7.396V219h-1.271v-6.351h-2.516l-.15 2.769c-.082 1.271-.296 2.181-.643 2.728-.341.546-.886.831-1.633.854h-.506v-1.114l.362-.028c.41-.045.704-.282.882-.711.178-.428.292-1.221.342-2.378l.136-3.165h4.997zm6.597 7.396c-.073-.146-.132-.406-.178-.779-.587.61-1.289.916-2.105.916-.729 0-1.328-.205-1.798-.616-.465-.414-.697-.938-.697-1.572 0-.77.292-1.367.875-1.791.588-.428 1.413-.642 2.474-.642h1.231v-.581c0-.442-.132-.793-.397-1.053-.264-.264-.654-.397-1.169-.397-.451 0-.829.114-1.134.342-.306.228-.458.504-.458.827h-1.272c0-.369.13-.724.39-1.066a2.7 2.7 0 011.066-.82 3.605 3.605 0 011.484-.301c.852 0 1.52.214 2.003.642.483.424.733 1.01.752 1.757v3.405c0 .679.086 1.219.259 1.62V219h-1.326zm-2.098-.964a2.22 2.22 0 001.127-.307c.356-.206.613-.472.773-.8v-1.518h-.991c-1.55 0-2.325.454-2.325 1.36 0 .397.133.707.397.93.264.223.604.335 1.019.335zm10.534-5.407h-2.482V219h-1.264v-6.371h-2.434v-1.025h6.18v1.025zm5.687 6.371c-.073-.146-.132-.406-.178-.779-.587.61-1.289.916-2.105.916-.729 0-1.328-.205-1.798-.616-.465-.414-.697-.938-.697-1.572 0-.77.292-1.367.875-1.791.588-.428 1.413-.642 2.474-.642h1.231v-.581c0-.442-.132-.793-.397-1.053-.264-.264-.653-.397-1.168-.397-.452 0-.83.114-1.135.342-.306.228-.458.504-.458.827h-1.272c0-.369.13-.724.39-1.066a2.7 2.7 0 011.066-.82 3.608 3.608 0 011.484-.301c.852 0 1.52.214 2.003.642.483.424.733 1.01.752 1.757v3.405c0 .679.086 1.219.259 1.62V219h-1.326zm-2.098-.964c.396 0 .772-.102 1.128-.307.355-.206.612-.472.772-.8v-1.518h-.991c-1.55 0-2.324.454-2.324 1.36 0 .397.132.707.396.93.264.223.604.335 1.019.335z" fill="#7D7D7D"/><path d="M176.497 14v-1.75c-.613 0-1.182.321-1.498.847l1.498.903zm-53.65 89l-1.498-.903a1.664 1.664 0 00-.153.325l1.651.578zM76.145 231.129a1.75 1.75 0 103.304 1.157l-3.304-1.157zm3.32 1.11a1.75 1.75 0 10-3.303-1.156l3.303 1.156zm-.686-8.634a1.75 1.75 0 103.303 1.156l-3.303-1.156zm3.336 1.063a1.75 1.75 0 10-3.303-1.156l3.303 1.156zm-.686-8.634a1.75 1.75 0 103.303 1.156l-3.303-1.156zm3.336 1.063a1.75 1.75 0 10-3.303-1.156l3.303 1.156zm-.686-8.634a1.75 1.75 0 103.303 1.156l-3.303-1.156zm3.336 1.063a1.75 1.75 0 10-3.303-1.156l3.303 1.156zm-.686-8.634a1.75 1.75 0 103.303 1.156l-3.303-1.156zm3.336 1.063a1.75 1.75 0 10-3.303-1.156l3.303 1.156zm-.686-8.634a1.75 1.75 0 103.303 1.156l-3.303-1.156zm3.336 1.063a1.75 1.75 0 10-3.303-1.156l3.303 1.156zm-.686-8.634a1.75 1.75 0 103.303 1.156l-3.303-1.156zm3.336 1.063a1.75 1.75 0 00-3.303-1.157l3.303 1.157zm-.686-8.634a1.75 1.75 0 103.303 1.156l-3.303-1.156zm3.336 1.063a1.75 1.75 0 00-3.303-1.157l3.303 1.157zm-.686-8.634a1.75 1.75 0 003.303 1.156l-3.303-1.156zm3.336 1.063a1.749 1.749 0 10-3.303-1.157l3.303 1.157zm-.686-8.634a1.75 1.75 0 103.304 1.156l-3.304-1.156zm3.336 1.063a1.749 1.749 0 10-3.303-1.157l3.303 1.157zm-.686-8.634a1.75 1.75 0 003.304 1.156l-3.304-1.156zm3.336 1.063a1.749 1.749 0 10-3.303-1.157l3.303 1.157zm-.686-8.634a1.75 1.75 0 003.304 1.156l-3.304-1.156zm3.336 1.063a1.749 1.749 0 10-3.303-1.157l3.303 1.157zm-.686-8.634a1.751 1.751 0 003.304 1.156l-3.304-1.156zm3.336 1.063a1.749 1.749 0 10-3.303-1.157l3.303 1.157zm-.686-8.634a1.751 1.751 0 003.304 1.156l-3.304-1.156zm3.336 1.063a1.749 1.749 0 10-3.303-1.157l3.303 1.157zm-.686-8.634a1.751 1.751 0 003.304 1.156l-3.304-1.156zm3.336 1.063a1.749 1.749 0 10-3.303-1.157l3.303 1.157zm-.686-8.634a1.751 1.751 0 003.304 1.156l-3.304-1.156zm3.336 1.062a1.75 1.75 0 10-3.303-1.156l3.303 1.156zm-.686-8.633a1.751 1.751 0 003.304 1.156l-3.304-1.156zm3.336 1.062a1.75 1.75 0 10-3.303-1.156l3.303 1.156zm-.686-8.633a1.75 1.75 0 003.304 1.156l-3.304-1.156zm3.193 1.392a1.75 1.75 0 00-2.998-1.807l2.998 1.807zm1.078-8.568a1.75 1.75 0 002.998 1.807l-2.998-1.807zm3.049 1.722a1.75 1.75 0 00-2.998-1.807l2.998 1.807zm1.078-8.569a1.75 1.75 0 002.998 1.807l-2.998-1.806zm3.048 1.723a1.75 1.75 0 10-2.997-1.807l2.997 1.807zm1.079-8.569a1.75 1.75 0 002.997 1.807l-2.997-1.807zm3.048 1.723a1.75 1.75 0 10-2.997-1.807l2.997 1.807zm1.079-8.569a1.75 1.75 0 102.997 1.807l-2.997-1.807zm3.048 1.723a1.75 1.75 0 10-2.997-1.807l2.997 1.807zm1.079-8.569a1.75 1.75 0 102.997 1.807l-2.997-1.807zm3.048 1.722a1.75 1.75 0 10-2.997-1.806l2.997 1.806zm1.079-8.568a1.75 1.75 0 102.997 1.807l-2.997-1.807zm3.048 1.722a1.75 1.75 0 10-2.997-1.807l2.997 1.807zm1.079-8.568a1.75 1.75 0 102.997 1.807l-2.997-1.807zm3.048 1.722a1.75 1.75 0 10-2.997-1.807l2.997 1.807zm1.079-8.568a1.75 1.75 0 102.997 1.806l-2.997-1.806zm3.048 1.722a1.75 1.75 0 10-2.997-1.807l2.997 1.807zm1.079-8.569a1.75 1.75 0 102.997 1.807l-2.997-1.807zm3.048 1.723a1.75 1.75 0 00-2.998-1.807l2.998 1.807zm1.078-8.569a1.75 1.75 0 002.998 1.807l-2.998-1.807zm3.049 1.723a1.75 1.75 0 00-2.998-1.807l2.998 1.807zm1.078-8.569a1.75 1.75 0 002.998 1.807l-2.998-1.807zm3.049 1.723a1.75 1.75 0 00-2.998-1.807l2.998 1.806zm1.078-8.569a1.75 1.75 0 002.998 1.807l-2.998-1.807zm3.049 1.722a1.75 1.75 0 00-2.998-1.807l2.998 1.807zm1.078-8.568a1.75 1.75 0 002.998 1.807l-2.998-1.807zm1.575 2.611a1.75 1.75 0 000-3.5v3.5zm8.012-3.5a1.75 1.75 0 100 3.5v-3.5zm.1 3.5a1.75 1.75 0 100-3.5v3.5zm8.012-3.5a1.75 1.75 0 000 3.5v-3.5zm.101 3.5a1.75 1.75 0 000-3.5v3.5zm8.012-3.5a1.75 1.75 0 100 3.5v-3.5zm.1 3.5a1.75 1.75 0 100-3.5v3.5zm8.012-3.5a1.75 1.75 0 000 3.5v-3.5zm.101 3.5a1.75 1.75 0 000-3.5v3.5zm8.012-3.5a1.75 1.75 0 100 3.5v-3.5zm.1 3.5a1.75 1.75 0 100-3.5v3.5zm8.012-3.5a1.75 1.75 0 000 3.5v-3.5zm.101 3.5a1.75 1.75 0 000-3.5v3.5zm8.012-3.5a1.75 1.75 0 100 3.5v-3.5zm.1 3.5a1.75 1.75 0 100-3.5v3.5zm8.012-3.5a1.75 1.75 0 000 3.5v-3.5zm.101 3.5a1.75 1.75 0 000-3.5v3.5zm8.012-3.5a1.75 1.75 0 100 3.5v-3.5zm.1 3.5a1.75 1.75 0 100-3.5v3.5zm8.012-3.5a1.75 1.75 0 000 3.5v-3.5zm.101 3.5a1.75 1.75 0 000-3.5v3.5zm8.012-3.5a1.75 1.75 0 100 3.5v-3.5zm.1 3.5a1.75 1.75 0 100-3.5v3.5zm8.012-3.5a1.75 1.75 0 000 3.5v-3.5zm.101 3.5a1.75 1.75 0 000-3.5v3.5zm8.012-3.5a1.75 1.75 0 100 3.5v-3.5zm.1 3.5a1.75 1.75 0 100-3.5v3.5zm8.012-3.5a1.75 1.75 0 000 3.5v-3.5zm.101 3.5a1.75 1.75 0 000-3.5v3.5zm8.012-3.5a1.75 1.75 0 100 3.5v-3.5zm.1 3.5a1.75 1.75 0 100-3.5v3.5zm8.012-3.5a1.75 1.75 0 000 3.5v-3.5zm.101 3.5a1.75 1.75 0 000-3.5v3.5zm8.012-3.5a1.75 1.75 0 100 3.5v-3.5zm.1 3.5a1.75 1.75 0 100-3.5v3.5zm8.012-3.5a1.75 1.75 0 000 3.5v-3.5zm.101 3.5a1.75 1.75 0 000-3.5v3.5zm8.012-3.5a1.75 1.75 0 100 3.5v-3.5zm.1 3.5a1.75 1.75 0 100-3.5v3.5zm8.012-3.5a1.75 1.75 0 000 3.5v-3.5zm.101 3.5a1.75 1.75 0 000-3.5v3.5zm8.012-3.5a1.75 1.75 0 100 3.5v-3.5zm.1 3.5a1.75 1.75 0 100-3.5v3.5zm8.012-3.5a1.75 1.75 0 000 3.5v-3.5zm.101 3.5a1.75 1.75 0 000-3.5v3.5zm8.012-3.5a1.75 1.75 0 100 3.5v-3.5zm.1 3.5a1.75 1.75 0 100-3.5v3.5zm8.012-3.5a1.75 1.75 0 000 3.5v-3.5zm.101 3.5a1.75 1.75 0 000-3.5v3.5zm8.012-3.5a1.75 1.75 0 100 3.5v-3.5zm.1 3.5a1.75 1.75 0 100-3.5v3.5zm8.012-3.5a1.75 1.75 0 000 3.5v-3.5zm.101 3.5a1.75 1.75 0 000-3.5v3.5zm8.012-3.5a1.75 1.75 0 100 3.5v-3.5zm.1 3.5a1.75 1.75 0 100-3.5v3.5zm8.012-3.5a1.75 1.75 0 000 3.5v-3.5zm.101 3.5a1.75 1.75 0 000-3.5v3.5zm8.012-3.5a1.75 1.75 0 100 3.5v-3.5zm.1 3.5a1.75 1.75 0 100-3.5v3.5zm8.012-3.5a1.75 1.75 0 000 3.5v-3.5zm.101 3.5a1.75 1.75 0 000-3.5v3.5zm8.012-3.5a1.75 1.75 0 100 3.5v-3.5zm.1 3.5a1.75 1.75 0 100-3.5v3.5zm8.012-3.5a1.75 1.75 0 000 3.5v-3.5zm.101 3.5a1.75 1.75 0 000-3.5v3.5zm8.012-3.5a1.75 1.75 0 100 3.5v-3.5zm.1 3.5a1.75 1.75 0 100-3.5v3.5zm8.012-3.5a1.75 1.75 0 000 3.5v-3.5zm.101 3.5a1.75 1.75 0 000-3.5v3.5zm8.012-3.5a1.75 1.75 0 000 3.5v-3.5zm.1 3.5a1.75 1.75 0 100-3.5v3.5zm8.013-3.5a1.75 1.75 0 100 3.5v-3.5zm.1 3.5a1.75 1.75 0 000-3.5v3.5zm8.012-3.5a1.75 1.75 0 000 3.5v-3.5zm.1 3.5a1.75 1.75 0 100-3.5v3.5zm8.013-3.5a1.75 1.75 0 100 3.5v-3.5zm.1 3.5a1.75 1.75 0 000-3.5v3.5zm8.012-3.5a1.75 1.75 0 000 3.5v-3.5zm.1 3.5a1.75 1.75 0 100-3.5v3.5zm8.013-3.5a1.75 1.75 0 100 3.5v-3.5zm-421.5 220.036l.017-.047-3.303-1.156-.017.046 3.304 1.157zm2.634-7.525l.033-.093-3.303-1.156-.033.093 3.303 1.156zm2.65-7.571l.033-.093-3.303-1.156-.033.093 3.303 1.156zm2.65-7.571l.033-.093-3.303-1.156-.033.093 3.303 1.156zm2.65-7.571l.033-.093-3.303-1.156-.033.093 3.303 1.156zm2.65-7.571l.033-.093-3.303-1.156-.033.093 3.303 1.156zm2.65-7.571l.033-.093-3.303-1.157-.033.094 3.303 1.156zm2.65-7.571l.033-.093-3.303-1.157-.033.094 3.303 1.156zm2.65-7.571l.033-.093-3.303-1.157-.033.094 3.303 1.156zm2.651-7.571l.032-.093-3.303-1.157-.033.094 3.304 1.156zm2.65-7.571l.032-.093-3.303-1.157-.033.094 3.304 1.156zm2.65-7.571l.032-.093-3.303-1.157-.033.094 3.304 1.156zm2.65-7.571l.032-.093-3.303-1.157-.033.094 3.304 1.156zm2.65-7.571l.032-.093-3.303-1.157-.033.094 3.304 1.156zm2.65-7.571l.032-.093-3.303-1.157-.033.094 3.304 1.156zm2.65-7.571l.032-.094-3.303-1.156-.033.094 3.304 1.156zm2.65-7.571l.032-.094-3.303-1.156-.033.094 3.304 1.156zm2.65-7.571l.016-.047-3.303-1.156-.017.047 3.304 1.156zm-.137.278l.026-.042-2.998-1.807-.025.043 2.997 1.806zm4.102-6.803l.051-.085-2.998-1.807-.051.085 2.998 1.807zm4.127-6.847l.05-.084-2.997-1.807-.051.085 2.998 1.806zm4.126-6.846l.051-.084-2.997-1.807-.051.084 2.997 1.807zm4.127-6.846l.051-.084-2.997-1.807-.051.084 2.997 1.807zm4.127-6.846l.051-.085-2.997-1.806-.051.084 2.997 1.807zm4.127-6.846l.051-.085-2.997-1.807-.051.085 2.997 1.807zm4.127-6.846l.051-.085-2.997-1.807-.051.085 2.997 1.807zm4.127-6.847l.051-.084-2.997-1.807-.051.085 2.997 1.806zm4.127-6.846l.051-.084-2.998-1.807-.05.084 2.997 1.807zm4.127-6.846l.051-.084-2.998-1.807-.051.084 2.998 1.807zm4.127-6.846l.051-.085-2.998-1.806-.051.084 2.998 1.807zm4.127-6.846l.051-.085-2.998-1.807-.051.085 2.998 1.807zm4.127-6.846l.025-.043-2.997-1.806-.026.042 2.998 1.807zm-1.474.804h.051v-3.5h-.051v3.5zm8.063 0h.1v-3.5h-.1v3.5zm8.112 0h.101v-3.5h-.101v3.5zm8.113 0h.1v-3.5h-.1v3.5zm8.112 0h.101v-3.5h-.101v3.5zm8.113 0h.1v-3.5h-.1v3.5zm8.112 0h.101v-3.5h-.101v3.5zm8.113 0h.1v-3.5h-.1v3.5zm8.112 0h.101v-3.5h-.101v3.5zm8.113 0h.1v-3.5h-.1v3.5zm8.112 0h.101v-3.5h-.101v3.5zm8.113 0h.1v-3.5h-.1v3.5zm8.112 0h.101v-3.5h-.101v3.5zm8.113 0h.1v-3.5h-.1v3.5zm8.112 0h.101v-3.5h-.101v3.5zm8.113 0h.1v-3.5h-.1v3.5zm8.112 0h.101v-3.5h-.101v3.5zm8.113 0h.1v-3.5h-.1v3.5zm8.112 0h.101v-3.5h-.101v3.5zm8.113 0h.1v-3.5h-.1v3.5zm8.112 0h.101v-3.5h-.101v3.5zm8.113 0h.1v-3.5h-.1v3.5zm8.112 0h.101v-3.5h-.101v3.5zm8.113 0h.1v-3.5h-.1v3.5zm8.112 0h.101v-3.5h-.101v3.5zm8.113 0h.1v-3.5h-.1v3.5zm8.112 0h.101v-3.5h-.101v3.5zm8.113 0h.1v-3.5h-.1v3.5zm8.112 0h.101v-3.5h-.101v3.5zm8.113 0h.1v-3.5h-.1v3.5zm8.112 0h.101v-3.5h-.101v3.5zm8.113 0h.1v-3.5h-.1v3.5zm8.112 0h.101v-3.5h-.101v3.5zm8.113 0h.1v-3.5h-.1v3.5zm8.112 0h.101v-3.5h-.101v3.5zm8.113 0h.1v-3.5h-.1v3.5zm8.113 0h.1v-3.5h-.1v3.5zm8.112 0h.1v-3.5h-.1v3.5zm8.113 0h.1v-3.5h-.1v3.5zm8.112 0h.1v-3.5h-.1v3.5zm8.113 0h.049v-3.5h-.049v3.5z" fill="#52AEE5"/><path d="M75.707 238.683a1 1 0 01-1.606-.646l-1.46-10.289a1 1 0 011.362-1.069l9.641 3.88a1 1 0 01.244 1.715l-8.18 6.409z" fill="#52AEE5"/><path fill="#fff" d="M215 9h30v12h-30z"/><path fill="#fff" d="M215 9h30v12h-30z"/><path fill="#fff" d="M215 9h30v12h-30zm280 0h9v12h-9z"/><path fill="#fff" d="M495 9h9v12h-9z"/><path fill="#fff" d="M495 9h9v12h-9z"/><g clip-path="url(#clip1_2853_2449)"><path d="M209.023 33.819l7.518-13.121c.498-.883 1.781-.883 2.298-.018l7.624 12.839c.624 1.06-.142 2.384-1.371 2.384h-14.858c-1.069.017-1.746-1.148-1.211-2.084zm-11.617 19.955l7.517-13.121c.499-.883 1.782-.883 2.298-.018l7.625 12.839c.624 1.06-.142 2.384-1.372 2.384h-14.857c-1.069.018-1.746-1.148-1.211-2.084z" fill="#52AEE5"/><path d="M185.683 73.59l7.517-13.122c.499-.883 1.782-.883 2.299-.018l7.624 12.84c.624 1.059-.142 2.383-1.371 2.383h-14.84a1.39 1.39 0 01-1.229-2.084zm23.32 0l7.518-13.122c.499-.883 1.781-.883 2.298-.018l7.625 12.84c.623 1.059-.143 2.383-1.372 2.383h-14.857c-1.069.018-1.746-1.148-1.212-2.084zm23.106 0l7.517-13.122c.499-.883 1.782-.883 2.299-.018l7.624 12.84c.624 1.059-.142 2.383-1.371 2.383H233.32c-1.069.018-1.746-1.148-1.211-2.084zm23.14 0l7.518-13.122c.499-.883 1.781-.883 2.298-.018l7.625 12.84c.623 1.059-.143 2.383-1.372 2.383h-14.84c-1.086.018-1.763-1.148-1.229-2.084zm11.582 19.902l7.518-13.121c.499-.883 1.781-.883 2.298-.018l7.625 12.839c.623 1.06-.143 2.384-1.372 2.384h-14.84a1.39 1.39 0 01-1.229-2.084zm-46.281 0l7.518-13.121c.499-.883 1.781-.883 2.298-.018l7.625 12.839c.623 1.06-.143 2.384-1.372 2.384h-14.858c-1.068.017-1.745-1.148-1.211-2.084zm-46.195 0l7.517-13.121c.499-.883 1.782-.883 2.298-.018l7.625 12.839c.624 1.06-.142 2.384-1.372 2.384h-14.839a1.39 1.39 0 01-1.229-2.084z" fill="#647B91"/><path d="M243.652 53.774l7.517-13.121c.499-.883 1.782-.883 2.299-.018l7.624 12.839c.624 1.06-.142 2.384-1.371 2.384h-14.858c-1.069.018-1.746-1.148-1.211-2.084zM220.64 13.793L228.158.67c.499-.883 1.781-.883 2.298-.017l7.625 12.838c.623 1.06-.143 2.384-1.372 2.384h-14.858c-1.069 0-1.746-1.165-1.211-2.083zm11.469 20.026l7.517-13.121c.499-.883 1.782-.883 2.299-.018l7.624 12.839c.624 1.06-.142 2.384-1.371 2.384H233.32c-1.069.017-1.746-1.148-1.211-2.084zm6.02-13.899l-7.517 13.122c-.499.883-1.782.883-2.299.018l-7.642-12.839c-.624-1.06.142-2.384 1.372-2.384H236.9c1.087 0 1.764 1.148 1.229 2.084zm-11.807 19.904l-7.517 13.121c-.499.883-1.782.883-2.298.018l-7.625-12.839c-.624-1.06.142-2.384 1.372-2.384h14.857a1.39 1.39 0 011.211 2.084zm23.282 0l-7.518 13.121c-.499.883-1.782.883-2.298.018l-7.625-12.839c-.623-1.06.143-2.384 1.372-2.384h14.857a1.392 1.392 0 011.212 2.084z" fill="#52AEE5"/><path d="M261.127 59.531l-7.518 13.121c-.498.883-1.781.883-2.298.018l-7.624-12.839c-.624-1.06.142-2.384 1.371-2.384h14.858c1.069 0 1.746 1.166 1.211 2.084zm-46.226 0l-7.518 13.121c-.499.883-1.782.883-2.298.018l-7.625-12.839c-.624-1.06.142-2.384 1.372-2.384h14.857c1.069 0 1.746 1.166 1.212 2.084zm11.525 20.098l-7.535 13.121c-.499.883-1.782.883-2.299.018l-7.624-12.839c-.624-1.06.142-2.384 1.372-2.384h14.857a1.39 1.39 0 011.229 2.084zm-23.107 0l-7.518 13.121c-.499.883-1.782.883-2.298.018l-7.625-12.839c-.624-1.06.142-2.384 1.372-2.384h14.857c1.069-.017 1.746 1.148 1.212 2.084zm46.285 0l-7.518 13.121c-.499.883-1.782.883-2.298.018l-7.625-12.839c-.623-1.06.143-2.384 1.372-2.384h14.857c1.069-.017 1.746 1.148 1.212 2.084zm23.14 0l-7.517 13.121c-.499.883-1.782.883-2.299.018l-7.624-12.839c-.624-1.06.142-2.384 1.371-2.384h14.858c1.069-.017 1.746 1.148 1.211 2.084z" fill="#647B91"/><path d="M343.935 34.137l-9.46 12.503V34.137h-4.436v21.35h2.904l9.37-12.167v12.15h4.436V34.137h-2.814z" fill="#52AEE5"/><path d="M378.815 74.383l-9.442 12.485V74.383h-4.435v21.333h2.885l9.389-12.168v12.168h4.436V74.383h-2.833zm45.91 0l-9.441 12.485V74.383h-4.436v21.333h2.886l9.388-12.168v12.168h4.436V74.383h-2.833z" fill="#647B91"/><path d="M406.428 34.137l-9.441 12.503V34.137h-4.436v21.35h2.886l9.37-12.167v12.15h4.436V34.137h-2.815zm31.016-.017v8.3h-7.678v-8.3h-4.454v21.332h4.454v-8.441h7.678v8.441h4.436V34.12h-4.436z" fill="#52AEE5"/><path d="M445.46 74.383v8.3h-7.678v-8.3h-4.454v21.333h4.454v-8.441h7.678v8.44h4.436V74.384h-4.436z" fill="#647B91"/><path d="M472.698 34.137H458.82V55.47h4.436V38.534h9.442v-4.397zm-157.3 21.333l-7.625-18.737-1.086-2.596h-2.851l-1.086 2.596-7.625 18.737h5.024l5.113-12.574 5.112 12.574h5.024z" fill="#52AEE5"/><path d="M313.365 74.401l-7.66 9.501-7.643-9.5h-2.921v21.315h4.418V82.772l6.146 7.506 6.164-7.524v12.963h4.436V74.4h-2.94zm22.711 4.379v-4.397h-14.252v21.333h14.252v-4.574h-9.798v-4.044h9.085v-4.415h-9.085V78.78h9.798zm67.823 12.38V74.367h-4.471v16.795h-7.589V74.366h-4.472v21.351h4.472v-.035h7.589v.035h2.761v3.39h4.436v-7.946h-2.726zm65.077 4.556h5.006l-7.625-18.755-1.087-2.578h-2.85l-1.087 2.578-7.606 18.755h5.006l1.567-3.868h7.09l1.586 3.868zm-6.787-8.441l1.674-4.133 1.675 4.133h-3.349zM358.881 91.16l-5.772-14.18-1.086-2.579h-2.851l-1.087 2.579-5.772 14.18h-2.868v7.948h4.454v-3.391h13.183v3.39h4.454v-7.946h-2.655zm-11.526 0l3.26-8.017 3.26 8.018h-6.52z" fill="#647B91"/><path d="M361.447 37.58s3.652-3.886 8.427-3.85c4.774.053 6.431 2.525 6.84 3.567.196.477.749 2.702.339 4.238-.499 1.802-1.995 2.897-1.995 2.897s2.868 1.306 3.01 4.874c.072 1.73-.855 3.62-2.494 4.839-1.55 1.165-3.741 1.589-5.736 1.589-1.586 0-3.385-.389-4.881-1.113-2.387-1.148-4.098-3.037-4.098-3.037l3.225-2.985s.944 1.06 2.779 1.802c2.013.83 5.202 1.147 6.11-.16.98-1.394.41-2.595-.498-3.143-.57-.353-1.319-.441-1.319-.441h-3.563v-4.415h3.741s.891-.353 1.354-1.042c.357-.53.357-1.342.054-1.766-.802-1.166-2.494-1.201-4.026-.883-2.209.477-4.169 1.978-4.169 1.978l-3.1-2.95z" fill="#52AEE5"/></g><path d="M109.594 315.047V325h-1.313v-8.873h-3.568l-.178 3.944c-.068 1.322-.205 2.315-.41 2.981-.201.665-.497 1.155-.889 1.469-.392.31-.916.47-1.572.479h-.431v-1.073l.274-.014c.424-.032.75-.169.977-.41.228-.246.401-.636.52-1.169.118-.533.203-1.354.253-2.461l.205-4.826h6.132zm6.972 2.557h1.265V325h-1.265v-5.394L113.155 325h-1.264v-7.396h1.264v5.4l3.411-5.4zm7.363 2.023a.972.972 0 00-.397-.82c-.264-.205-.626-.308-1.087-.308-.446 0-.82.116-1.121.349-.296.232-.444.506-.444.82h-1.258c0-.643.269-1.169.807-1.579.537-.41 1.21-.615 2.016-.615.866 0 1.541.186 2.024.56.483.369.724.898.724 1.586 0 .333-.1.638-.3.916-.201.278-.486.499-.855.663.861.292 1.292.866 1.292 1.723 0 .679-.262 1.217-.786 1.613-.524.397-1.224.595-2.099.595-.852 0-1.556-.207-2.112-.622-.551-.419-.827-.985-.827-1.696h1.258c0 .361.159.67.478.93.324.255.725.383 1.203.383.483 0 .873-.112 1.169-.335.296-.223.445-.513.445-.868 0-.415-.126-.711-.376-.889-.246-.182-.632-.273-1.156-.273h-1.264v-1.067h1.374c.861-.022 1.292-.378 1.292-1.066zm7.827-2.023h1.265V325h-1.265v-5.394L128.345 325h-1.265v-7.396h1.265v5.4l3.411-5.4zm9.338 7.396h-1.265v-3.158h-3.397V325h-1.272v-7.396h1.272v3.206h3.397v-3.206h1.265V325zm6.815-6.351h-3.411V325h-1.271v-7.396h4.682v1.045zm.629 2.584c0-.724.141-1.376.424-1.955a3.23 3.23 0 011.189-1.34c.511-.314 1.092-.471 1.744-.471 1.007 0 1.82.348 2.44 1.046.624.697.936 1.624.936 2.782v.089c0 .72-.139 1.367-.417 1.941a3.109 3.109 0 01-1.182 1.333c-.511.319-1.098.479-1.764.479-1.002 0-1.816-.349-2.44-1.046-.62-.697-.93-1.62-.93-2.769v-.089zm1.272.151c0 .82.189 1.479.567 1.975.383.497.893.745 1.531.745.643 0 1.153-.25 1.531-.751.379-.506.568-1.213.568-2.12 0-.811-.194-1.467-.581-1.968-.383-.506-.893-.759-1.531-.759-.625 0-1.128.248-1.511.745s-.574 1.208-.574 2.133zM162.907 325h-1.264v-6.351h-3.405V325h-1.271v-7.396h5.94V325zm1.696-3.767c0-.724.141-1.376.423-1.955a3.226 3.226 0 011.19-1.34c.51-.314 1.091-.471 1.743-.471 1.007 0 1.821.348 2.44 1.046.625.697.937 1.624.937 2.782v.089c0 .72-.139 1.367-.417 1.941a3.11 3.11 0 01-1.183 1.333c-.51.319-1.098.479-1.763.479-1.003 0-1.816-.349-2.441-1.046-.62-.697-.929-1.62-.929-2.769v-.089zm1.271.151c0 .82.189 1.479.567 1.975.383.497.894.745 1.532.745.642 0 1.153-.25 1.531-.751.378-.506.567-1.213.567-2.12 0-.811-.193-1.467-.581-1.968-.383-.506-.893-.759-1.531-.759-.624 0-1.128.248-1.511.745s-.574 1.208-.574 2.133zm13.002-3.78V325h-1.272v-6.351h-2.515l-.151 2.769c-.082 1.271-.296 2.181-.642 2.728-.342.546-.886.831-1.634.854h-.506v-1.114l.363-.028c.41-.045.704-.282.881-.711.178-.428.292-1.221.342-2.378l.137-3.165h4.997zm4.45 5.543l1.723-5.543h1.353l-2.973 8.538c-.461 1.23-1.192 1.845-2.195 1.845l-.239-.02-.472-.089v-1.025l.342.027c.429 0 .761-.087.998-.26.242-.173.44-.49.595-.95l.28-.752-2.638-7.314h1.38l1.846 5.543zm9.796 1.853h-1.271v-2.68a6.703 6.703 0 01-1.709.219c-.926 0-1.632-.237-2.12-.711-.483-.474-.729-1.148-.738-2.023v-2.208h1.265v2.249c.023 1.103.554 1.654 1.593 1.654.583 0 1.153-.073 1.709-.219v-3.677h1.271V325zm6.597 0c-.073-.146-.132-.406-.178-.779-.588.61-1.29.916-2.105.916-.73 0-1.329-.205-1.798-.616a2.014 2.014 0 01-.698-1.572c0-.77.292-1.367.875-1.791.588-.428 1.413-.642 2.475-.642h1.231v-.581c0-.442-.133-.793-.397-1.053-.264-.264-.654-.397-1.169-.397-.451 0-.829.114-1.135.342-.305.228-.458.504-.458.827h-1.271c0-.369.13-.724.389-1.066.265-.346.62-.62 1.067-.82a3.604 3.604 0 011.483-.301c.852 0 1.52.214 2.003.642.483.424.734 1.01.752 1.757v3.405c0 .679.087 1.219.26 1.62V325h-1.326zm-2.099-.964a2.22 2.22 0 001.128-.307c.356-.206.613-.472.773-.8v-1.518h-.992c-1.549 0-2.324.454-2.324 1.36 0 .397.132.707.397.93.264.223.603.335 1.018.335zm10.534-5.407h-2.481V325h-1.265v-6.371h-2.433v-1.025h6.179v1.025zm3.753 6.508c-1.002 0-1.818-.328-2.447-.985-.629-.66-.943-1.542-.943-2.645v-.233c0-.733.139-1.387.417-1.962a3.286 3.286 0 011.175-1.353 2.96 2.96 0 011.641-.492c.962 0 1.709.317 2.242.95.533.633.8 1.54.8 2.721v.526h-5.011c.018.729.23 1.319.636 1.771.41.446.93.669 1.559.669.446 0 .824-.091 1.134-.273.31-.182.581-.424.814-.725l.772.602c-.62.952-1.549 1.429-2.789 1.429zm-.157-6.631c-.51 0-.939.187-1.285.56-.347.37-.561.889-.643 1.559h3.705v-.096c-.036-.642-.209-1.139-.519-1.49-.31-.355-.729-.533-1.258-.533zm10.575-.902V325h-1.271v-6.351h-2.516l-.15 2.769c-.082 1.271-.297 2.181-.643 2.728-.342.546-.886.831-1.634.854h-.506v-1.114l.363-.028c.41-.045.704-.282.882-.711.177-.428.291-1.221.341-2.378l.137-3.165h4.997zm3.411 2.549h1.921c.839.009 1.502.228 1.989.657.488.428.732 1.009.732 1.743 0 .738-.251 1.33-.752 1.777-.501.447-1.176.67-2.023.67h-3.131v-7.396h1.264v2.549zm0 1.033v2.782h1.88c.474 0 .841-.121 1.101-.363.26-.246.389-.581.389-1.004 0-.411-.127-.746-.382-1.005-.251-.265-.604-.401-1.06-.41h-1.928zM458.999 325h-1.319v-8.873h-4.909V325h-1.312v-9.953h7.54V325zm1.859-3.767c0-.724.142-1.376.424-1.955a3.226 3.226 0 011.19-1.34c.51-.314 1.091-.471 1.743-.471 1.007 0 1.82.348 2.44 1.046.625.697.937 1.624.937 2.782v.089c0 .72-.139 1.367-.417 1.941a3.117 3.117 0 01-1.183 1.333c-.51.319-1.098.479-1.763.479-1.003 0-1.817-.349-2.441-1.046-.62-.697-.93-1.62-.93-2.769v-.089zm1.272.151c0 .82.189 1.479.567 1.975.383.497.893.745 1.532.745.642 0 1.153-.25 1.531-.751.378-.506.567-1.213.567-2.12 0-.811-.194-1.467-.581-1.968-.383-.506-.893-.759-1.531-.759-.625 0-1.128.248-1.511.745s-.574 1.208-.574 2.133zm10.015 2.72c.451 0 .845-.136 1.182-.41.337-.273.524-.615.561-1.025h1.196a2.295 2.295 0 01-.438 1.21 2.861 2.861 0 01-1.08.916 3.08 3.08 0 01-1.421.342c-1.008 0-1.81-.335-2.407-1.005-.592-.675-.888-1.595-.888-2.762v-.212c0-.72.132-1.36.396-1.921.264-.56.643-.995 1.135-1.305.497-.31 1.082-.465 1.757-.465.829 0 1.517.248 2.064.745.552.497.846 1.142.882 1.934h-1.196c-.037-.478-.219-.87-.547-1.175-.324-.31-.725-.465-1.203-.465-.643 0-1.142.232-1.497.697-.351.46-.527 1.128-.527 2.003v.239c0 .853.176 1.509.527 1.969.351.46.852.69 1.504.69zm9.857-5.475h-2.481V325h-1.265v-6.371h-2.434v-1.025h6.18v1.025zm5.687 6.371c-.072-.146-.132-.406-.177-.779-.588.61-1.29.916-2.106.916-.729 0-1.328-.205-1.798-.616a2.016 2.016 0 01-.697-1.572c0-.77.292-1.367.875-1.791.588-.428 1.413-.642 2.475-.642h1.23v-.581c0-.442-.132-.793-.396-1.053-.265-.264-.654-.397-1.169-.397-.451 0-.83.114-1.135.342-.305.228-.458.504-.458.827h-1.271c0-.369.129-.724.389-1.066.264-.346.62-.62 1.067-.82a3.6 3.6 0 011.483-.301c.852 0 1.52.214 2.003.642.483.424.734 1.01.752 1.757v3.405c0 .679.086 1.219.26 1.62V325h-1.327zm-2.098-.964c.396 0 .772-.102 1.128-.307.355-.206.613-.472.772-.8v-1.518h-.991c-1.549 0-2.324.454-2.324 1.36 0 .397.132.707.396.93.265.223.604.335 1.019.335zm5.263.964v-7.396h2.885c.985 0 1.739.173 2.263.519.529.342.793.845.793 1.511 0 .342-.103.651-.308.929-.205.274-.508.484-.909.629.447.105.804.31 1.073.616.274.305.411.67.411 1.093 0 .679-.251 1.199-.752 1.559-.497.36-1.201.54-2.113.54h-3.343zm1.265-3.247v2.228h2.092c.529 0 .923-.098 1.183-.293.264-.196.396-.472.396-.828 0-.738-.542-1.107-1.627-1.107h-2.044zm0-1.012h1.634c1.185 0 1.777-.346 1.777-1.039s-.56-1.05-1.681-1.073h-1.73v2.112zm7.923-3.137v6.364h2.707v-6.364h1.265v6.364h2.7v-6.364h1.271v6.364h1.039l-.123 3.226h-1.134V325h-8.996v-7.396h1.271zm15.06 0h1.264V325h-1.264v-5.394L511.69 325h-1.264v-7.396h1.264v5.4l3.412-5.4zm5.598 4.245h-.923V325h-1.271v-7.396h1.271v3.13h.827l2.489-3.13h1.531l-2.926 3.554L524.87 325h-1.606l-2.564-3.151z" fill="#00B5D3"/><path d="M523.5 293.25a1.75 1.75 0 010 3.5v-3.5zm-.05 3.5a1.75 1.75 0 110-3.5v3.5zm-8.025-3.5a1.75 1.75 0 110 3.5v-3.5zm-.1 3.5a1.75 1.75 0 110-3.5v3.5zm-8.025-3.5a1.75 1.75 0 110 3.5v-3.5zm-.1 3.5a1.75 1.75 0 110-3.5v3.5zm-8.025-3.5a1.75 1.75 0 110 3.5v-3.5zm-.1 3.5a1.75 1.75 0 110-3.5v3.5zm-8.025-3.5a1.75 1.75 0 110 3.5v-3.5zm-.1 3.5a1.75 1.75 0 110-3.5v3.5zm-8.025-3.5a1.75 1.75 0 110 3.5v-3.5zm-.1 3.5a1.75 1.75 0 110-3.5v3.5zm-8.025-3.5a1.75 1.75 0 110 3.5v-3.5zm-.1 3.5a1.75 1.75 0 110-3.5v3.5zm-8.025-3.5a1.75 1.75 0 110 3.5v-3.5zm-.1 3.5a1.75 1.75 0 110-3.5v3.5zm-8.025-3.5a1.75 1.75 0 110 3.5v-3.5zm-.1 3.5a1.75 1.75 0 110-3.5v3.5zm-8.025-3.5a1.75 1.75 0 110 3.5v-3.5zm-.1 3.5a1.75 1.75 0 110-3.5v3.5zm-8.025-3.5a1.75 1.75 0 110 3.5v-3.5zm-.1 3.5a1.75 1.75 0 110-3.5v3.5zm-8.025-3.5a1.75 1.75 0 110 3.5v-3.5zm-.1 3.5a1.75 1.75 0 110-3.5v3.5zm-8.025-3.5a1.75 1.75 0 110 3.5v-3.5zm-.1 3.5a1.75 1.75 0 110-3.5v3.5zm-8.025-3.5a1.75 1.75 0 110 3.5v-3.5zm-.1 3.5a1.75 1.75 0 110-3.5v3.5zm-8.025-3.5a1.75 1.75 0 110 3.5v-3.5zm-.1 3.5a1.75 1.75 0 110-3.5v3.5zm-8.025-3.5a1.75 1.75 0 110 3.5v-3.5zm-.1 3.5a1.75 1.75 0 110-3.5v3.5zm-8.025-3.5a1.75 1.75 0 110 3.5v-3.5zm-.1 3.5a1.75 1.75 0 110-3.5v3.5zm-8.025-3.5a1.75 1.75 0 110 3.5v-3.5zm-.1 3.5a1.75 1.75 0 110-3.5v3.5zm-8.025-3.5a1.75 1.75 0 110 3.5v-3.5zm-.1 3.5a1.75 1.75 0 110-3.5v3.5zm-8.025-3.5a1.75 1.75 0 110 3.5v-3.5zm-.1 3.5a1.75 1.75 0 110-3.5v3.5zm-8.025-3.5a1.75 1.75 0 110 3.5v-3.5zm-.1 3.5a1.75 1.75 0 110-3.5v3.5zm-8.025-3.5a1.75 1.75 0 110 3.5v-3.5zm-.1 3.5a1.75 1.75 0 110-3.5v3.5zm-8.025-3.5a1.75 1.75 0 110 3.5v-3.5zm-.1 3.5a1.75 1.75 0 110-3.5v3.5zm-8.025-3.5a1.75 1.75 0 110 3.5v-3.5zm-.1 3.5a1.75 1.75 0 110-3.5v3.5zm-8.025-3.5a1.75 1.75 0 110 3.5v-3.5zm-.1 3.5a1.75 1.75 0 110-3.5v3.5zm-8.025-3.5a1.75 1.75 0 110 3.5v-3.5zm-.1 3.5a1.75 1.75 0 110-3.5v3.5zm-8.025-3.5a1.75 1.75 0 110 3.5v-3.5zm-.1 3.5a1.75 1.75 0 110-3.5v3.5zm-8.025-3.5a1.75 1.75 0 110 3.5v-3.5zm-.1 3.5a1.75 1.75 0 110-3.5v3.5zm-8.025-3.5a1.75 1.75 0 110 3.5v-3.5zm-.1 3.5a1.75 1.75 0 010-3.5v3.5zm-7.965-3.5a1.75 1.75 0 010 3.5v-3.5zm-.1 3.5a1.75 1.75 0 010-3.5v3.5zm-7.966-3.5a1.75 1.75 0 110 3.5v-3.5zm-.099 3.5a1.75 1.75 0 110-3.5v3.5zm-7.966-3.5a1.75 1.75 0 110 3.5v-3.5zm-.099 3.5a1.75 1.75 0 110-3.5v3.5zm-7.966-3.5a1.75 1.75 0 010 3.5v-3.5zm-.1 3.5a1.75 1.75 0 010-3.5v3.5zm-7.965-3.5a1.75 1.75 0 010 3.5v-3.5zm-.1 3.5a1.75 1.75 0 010-3.5v3.5zm-7.966-3.5a1.75 1.75 0 110 3.5v-3.5zm-.099 3.5a1.75 1.75 0 110-3.5v3.5zm-7.966-3.5a1.75 1.75 0 110 3.5v-3.5zm-.099 3.5a1.75 1.75 0 110-3.5v3.5zm-7.966-3.5a1.75 1.75 0 110 3.5v-3.5zm-.1 3.5a1.75 1.75 0 010-3.5v3.5zm-7.965-3.5a1.75 1.75 0 010 3.5v-3.5zm-.1 3.5a1.75 1.75 0 010-3.5v3.5zm-7.965-3.5a1.75 1.75 0 010 3.5v-3.5zm-.1 3.5a1.75 1.75 0 010-3.5v3.5zm-7.966-3.5a1.75 1.75 0 110 3.5v-3.5zm-.099 3.5a1.75 1.75 0 110-3.5v3.5zm-7.966-3.5a1.75 1.75 0 110 3.5v-3.5zm-.099 3.5a1.75 1.75 0 110-3.5v3.5zm-7.966-3.5a1.75 1.75 0 010 3.5v-3.5zm-.1 3.5a1.75 1.75 0 010-3.5v3.5zm-7.965-3.5a1.75 1.75 0 010 3.5v-3.5zm-.1 3.5a1.75 1.75 0 010-3.5v3.5zm-7.965-3.5a1.75 1.75 0 010 3.5v-3.5zm-.1 3.5a1.75 1.75 0 110-3.5v3.5zm-7.966-3.5a1.75 1.75 0 110 3.5v-3.5zm-.099 3.5a1.75 1.75 0 110-3.5v3.5zm-7.966-3.5a1.75 1.75 0 110 3.5v-3.5zm-.099 3.5a1.75 1.75 0 110-3.5v3.5zm-7.966-3.5a1.75 1.75 0 010 3.5v-3.5zm-.1 3.5a1.75 1.75 0 010-3.5v3.5zm-7.965-3.5a1.75 1.75 0 010 3.5v-3.5zm-.1 3.5a1.75 1.75 0 010-3.5v3.5zm-7.966-3.5a1.75 1.75 0 110 3.5v-3.5zm-.099 3.5a1.75 1.75 0 110-3.5v3.5zm-7.966-3.5a1.75 1.75 0 110 3.5v-3.5zm-.099 3.5a1.75 1.75 0 110-3.5v3.5zm-7.966-3.5a1.75 1.75 0 110 3.5v-3.5zm-.1 3.5a1.75 1.75 0 010-3.5v3.5zm-7.965-3.5a1.75 1.75 0 010 3.5v-3.5zm412.95 3.5h-.05v-3.5h.05v3.5zm-8.075 0h-.1v-3.5h.1v3.5zm-8.125 0h-.1v-3.5h.1v3.5zm-8.125 0h-.1v-3.5h.1v3.5zm-8.125 0h-.1v-3.5h.1v3.5zm-8.125 0h-.1v-3.5h.1v3.5zm-8.125 0h-.1v-3.5h.1v3.5zm-8.125 0h-.1v-3.5h.1v3.5zm-8.125 0h-.1v-3.5h.1v3.5zm-8.125 0h-.1v-3.5h.1v3.5zm-8.125 0h-.1v-3.5h.1v3.5zm-8.125 0h-.1v-3.5h.1v3.5zm-8.125 0h-.1v-3.5h.1v3.5zm-8.125 0h-.1v-3.5h.1v3.5zm-8.125 0h-.1v-3.5h.1v3.5zm-8.125 0h-.1v-3.5h.1v3.5zm-8.125 0h-.1v-3.5h.1v3.5zm-8.125 0h-.1v-3.5h.1v3.5zm-8.125 0h-.1v-3.5h.1v3.5zm-8.125 0h-.1v-3.5h.1v3.5zm-8.125 0h-.1v-3.5h.1v3.5zm-8.125 0h-.1v-3.5h.1v3.5zm-8.125 0h-.1v-3.5h.1v3.5zm-8.125 0h-.1v-3.5h.1v3.5zm-8.125 0h-.1v-3.5h.1v3.5zm-8.125 0h-.1v-3.5h.1v3.5zm-8.125 0h-.1v-3.5h.1v3.5zm-8.125 0h-.1v-3.5h.1v3.5zm-8.125 0H296v-3.5h.05v3.5zm-.05 0h-.05v-3.5h.05v3.5zm-8.015 0h-.1v-3.5h.1v3.5zm-8.066 0h-.099v-3.5h.099v3.5zm-8.065 0h-.099v-3.5h.099v3.5zm-8.065 0h-.1v-3.5h.1v3.5zm-8.065 0h-.1v-3.5h.1v3.5zm-8.066 0h-.099v-3.5h.099v3.5zm-8.065 0h-.099v-3.5h.099v3.5zm-8.065 0h-.1v-3.5h.1v3.5zm-8.065 0h-.1v-3.5h.1v3.5zm-8.065 0h-.1v-3.5h.1v3.5zm-8.066 0h-.099v-3.5h.099v3.5zm-8.065 0h-.099v-3.5h.099v3.5zm-8.065 0h-.1v-3.5h.1v3.5zm-8.065 0h-.1v-3.5h.1v3.5zm-8.065 0h-.1v-3.5h.1v3.5zm-8.066 0h-.099v-3.5h.099v3.5zm-8.065 0h-.099v-3.5h.099v3.5zm-8.065 0h-.1v-3.5h.1v3.5zm-8.065 0h-.1v-3.5h.1v3.5zm-8.066 0h-.099v-3.5h.099v3.5zm-8.065 0h-.099v-3.5h.099v3.5zm-8.065 0h-.1v-3.5h.1v3.5zm-8.065 0h-.05v-3.5h.05v3.5z" fill="#647B91"/><path d="M103.5 295.866a1 1 0 010-1.732l9-5.196a1 1 0 011.5.866v10.392a1 1 0 01-1.5.866l-9-5.196z" fill="#647B91"/><path d="M493 116v-1.75c.74 0 1.401.466 1.649 1.163L493 116zm46.114 124.413a1.75 1.75 0 01-3.298 1.174l3.298-1.174zm-3.315 1.125a1.75 1.75 0 013.297-1.173l-3.297 1.173zm.553-8.889a1.75 1.75 0 01-3.298 1.173l3.298-1.173zm-3.332 1.077a1.75 1.75 0 013.297-1.173l-3.297 1.173zm.553-8.889a1.75 1.75 0 01-3.298 1.173l3.298-1.173zm-3.332 1.076a1.75 1.75 0 113.297-1.173l-3.297 1.173zm.553-8.889a1.75 1.75 0 01-3.298 1.173l3.298-1.173zm-3.332 1.077a1.75 1.75 0 113.297-1.173l-3.297 1.173zm.553-8.889a1.75 1.75 0 01-3.298 1.173l3.298-1.173zm-3.332 1.076a1.75 1.75 0 113.297-1.173l-3.297 1.173zm.553-8.889a1.751 1.751 0 01-3.298 1.173l3.298-1.173zm-3.332 1.077a1.75 1.75 0 113.297-1.173l-3.297 1.173zm.552-8.889a1.75 1.75 0 11-3.297 1.173l3.297-1.173zm-3.331 1.076a1.75 1.75 0 113.297-1.173l-3.297 1.173zm.552-8.889a1.75 1.75 0 11-3.297 1.173l3.297-1.173zm-3.331 1.077a1.75 1.75 0 113.297-1.173l-3.297 1.173zm.552-8.889a1.75 1.75 0 11-3.297 1.173l3.297-1.173zm-3.332 1.076a1.75 1.75 0 013.298-1.173l-3.298 1.173zm.553-8.889a1.75 1.75 0 11-3.297 1.173l3.297-1.173zm-3.332 1.077a1.751 1.751 0 013.298-1.173l-3.298 1.173zm.553-8.889a1.75 1.75 0 11-3.297 1.173l3.297-1.173zm-3.332 1.076a1.75 1.75 0 013.298-1.173l-3.298 1.173zm.553-8.889a1.75 1.75 0 11-3.297 1.173l3.297-1.173zm-3.332 1.077a1.75 1.75 0 013.298-1.173l-3.298 1.173zm.553-8.889a1.75 1.75 0 01-3.297 1.173l3.297-1.173zm-3.332 1.076a1.75 1.75 0 013.298-1.173l-3.298 1.173zm.553-8.889a1.75 1.75 0 01-3.297 1.173l3.297-1.173zm-3.332 1.077a1.75 1.75 0 013.298-1.173l-3.298 1.173zm.553-8.889a1.75 1.75 0 01-3.298 1.173l3.298-1.173zm-3.332 1.076a1.75 1.75 0 013.298-1.173l-3.298 1.173zm.553-8.889a1.75 1.75 0 01-3.298 1.173l3.298-1.173zm-3.332 1.077a1.75 1.75 0 013.298-1.173l-3.298 1.173zm.553-8.889a1.75 1.75 0 01-3.298 1.173l3.298-1.173zm-1.715 2.288a1.75 1.75 0 110-3.5v3.5zm-7.914-3.5a1.75 1.75 0 110 3.5v-3.5zm-.099 3.5a1.75 1.75 0 010-3.5v3.5zm-7.913-3.5a1.75 1.75 0 110 3.5v-3.5zm-.099 3.5a1.75 1.75 0 010-3.5v3.5zm-7.913-3.5a1.75 1.75 0 110 3.5v-3.5zm-.099 3.5a1.75 1.75 0 010-3.5v3.5zm-7.913-3.5a1.75 1.75 0 010 3.5v-3.5zm-.099 3.5a1.75 1.75 0 110-3.5v3.5zm-7.913-3.5a1.75 1.75 0 010 3.5v-3.5zm-.099 3.5a1.75 1.75 0 110-3.5v3.5zm-7.913-3.5a1.75 1.75 0 010 3.5v-3.5zm-.099 3.5a1.75 1.75 0 110-3.5v3.5zm-7.914-3.5a1.75 1.75 0 110 3.5v-3.5zm-.098 3.5a1.75 1.75 0 110-3.5v3.5zm-7.914-3.5a1.75 1.75 0 110 3.5v-3.5zm-.099 3.5a1.75 1.75 0 010-3.5v3.5zm-7.913-3.5a1.75 1.75 0 110 3.5v-3.5zm-.099 3.5a1.75 1.75 0 010-3.5v3.5zm-7.913-3.5a1.75 1.75 0 010 3.5v-3.5zm-.099 3.5a1.75 1.75 0 010-3.5v3.5zm-7.913-3.5a1.75 1.75 0 010 3.5v-3.5zm-.099 3.5a1.75 1.75 0 110-3.5v3.5zm-7.913-3.5a1.75 1.75 0 010 3.5v-3.5zm-.099 3.5a1.75 1.75 0 110-3.5v3.5zm-7.913-3.5a1.75 1.75 0 010 3.5v-3.5zm-.099 3.5a1.75 1.75 0 110-3.5v3.5zm-7.914-3.5a1.75 1.75 0 110 3.5v-3.5zm-.099 3.5a1.75 1.75 0 010-3.5v3.5zm-7.913-3.5a1.75 1.75 0 110 3.5v-3.5zm-.099 3.5a1.75 1.75 0 010-3.5v3.5zm-7.913-3.5a1.75 1.75 0 110 3.5v-3.5zm-.099 3.5a1.75 1.75 0 010-3.5v3.5zm-7.913-3.5a1.75 1.75 0 010 3.5v-3.5zm-.099 3.5a1.75 1.75 0 110-3.5v3.5zm-7.913-3.5a1.75 1.75 0 010 3.5v-3.5zm-.099 3.5a1.75 1.75 0 110-3.5v3.5zm-7.913-3.5a1.75 1.75 0 010 3.5v-3.5zm-.099 3.5a1.75 1.75 0 110-3.5v3.5zm-7.914-3.5a1.75 1.75 0 110 3.5v-3.5zm-.098 3.5a1.75 1.75 0 110-3.5v3.5zm-7.914-3.5a1.75 1.75 0 110 3.5v-3.5zm-.099 3.5a1.75 1.75 0 010-3.5v3.5zm-7.913-3.5a1.75 1.75 0 110 3.5v-3.5zm-.099 3.5a1.75 1.75 0 010-3.5v3.5zm-7.913-3.5a1.75 1.75 0 010 3.5v-3.5zm-.099 3.5a1.75 1.75 0 010-3.5v3.5zm-7.913-3.5a1.75 1.75 0 010 3.5v-3.5zm-.099 3.5a1.75 1.75 0 110-3.5v3.5zm-7.913-3.5a1.75 1.75 0 010 3.5v-3.5zm-.099 3.5a1.75 1.75 0 110-3.5v3.5zm-7.914-3.5a1.75 1.75 0 110 3.5v-3.5zm-.098 3.5a1.75 1.75 0 110-3.5v3.5zm-7.914-3.5a1.75 1.75 0 110 3.5v-3.5zm-.099 3.5a1.75 1.75 0 010-3.5v3.5zm-7.913-3.5a1.75 1.75 0 110 3.5v-3.5zm-.099 3.5a1.75 1.75 0 010-3.5v3.5zm-7.913-3.5a1.75 1.75 0 010 3.5v-3.5zm-.099 3.5a1.75 1.75 0 010-3.5v3.5zm-7.913-3.5a1.75 1.75 0 010 3.5v-3.5zm-.099 3.5a1.75 1.75 0 110-3.5v3.5zm-7.913-3.5a1.75 1.75 0 010 3.5v-3.5zm-.099 3.5a1.75 1.75 0 110-3.5v3.5zm-7.913-3.5a1.75 1.75 0 010 3.5v-3.5zm-.099 3.5a1.75 1.75 0 110-3.5v3.5zm-7.914-3.5a1.75 1.75 0 110 3.5v-3.5zm-.099 3.5a1.75 1.75 0 010-3.5v3.5zm-7.913-3.5a1.75 1.75 0 110 3.5v-3.5zm-.099 3.5a1.75 1.75 0 010-3.5v3.5zm-7.913-3.5a1.75 1.75 0 110 3.5v-3.5zm-.099 3.5a1.75 1.75 0 010-3.5v3.5zm-7.913-3.5a1.75 1.75 0 010 3.5v-3.5zm-.099 3.5a1.75 1.75 0 010-3.5v3.5zm-7.913-3.5a1.75 1.75 0 010 3.5v-3.5zm-.099 3.5a1.75 1.75 0 110-3.5v3.5zm-7.913-3.5a1.75 1.75 0 010 3.5v-3.5zm-.099 3.5a1.75 1.75 0 110-3.5v3.5zm-7.913-3.5a1.75 1.75 0 010 3.5v-3.5zm-.099 3.5a1.75 1.75 0 110-3.5v3.5zm-7.914-3.5a1.75 1.75 0 110 3.5v-3.5zm-.099 3.5a1.75 1.75 0 010-3.5v3.5zm-7.913-3.5a1.75 1.75 0 110 3.5v-3.5zm371.265 127.337l-.017-.049 3.297-1.173.018.048-3.298 1.174zm-2.762-7.765l-.034-.096 3.297-1.173.035.096-3.298 1.173zm-2.779-7.812l-.034-.097 3.297-1.173.035.097-3.298 1.173zm-2.779-7.813l-.034-.096 3.297-1.173.035.096-3.298 1.173zm-2.779-7.812l-.034-.097 3.297-1.173.035.097-3.298 1.173zm-2.779-7.813l-.034-.096 3.297-1.173.035.096-3.298 1.173zm-2.779-7.812l-.034-.097 3.297-1.173.034.097-3.297 1.173zm-2.779-7.813l-.034-.096 3.297-1.173.034.096-3.297 1.173zm-2.779-7.812l-.035-.097 3.298-1.173.034.097-3.297 1.173zm-2.779-7.813l-.035-.096 3.298-1.173.034.096-3.297 1.173zm-2.779-7.812l-.035-.097 3.298-1.173.034.097-3.297 1.173zm-2.779-7.813l-.035-.096 3.298-1.173.034.096-3.297 1.173zm-2.779-7.812l-.035-.097 3.298-1.173.034.097-3.297 1.173zm-2.779-7.813l-.035-.096 3.298-1.173.034.096-3.297 1.173zm-2.78-7.812l-.034-.097 3.298-1.173.034.097-3.298 1.173zm-2.779-7.813l-.034-.096 3.298-1.173.034.096-3.298 1.173zm-2.779-7.812l-.017-.048 3.298-1.174.017.049-3.298 1.173zM493 117.75h-.049v-3.5H493v3.5zm-7.963 0h-.099v-3.5h.099v3.5zm-8.012 0h-.099v-3.5h.099v3.5zm-8.012 0h-.099v-3.5h.099v3.5zm-8.012 0h-.099v-3.5h.099v3.5zm-8.012 0h-.099v-3.5h.099v3.5zm-8.012 0h-.099v-3.5h.099v3.5zm-8.013 0h-.098v-3.5h.098v3.5zm-8.012 0h-.099v-3.5h.099v3.5zm-8.012 0h-.099v-3.5h.099v3.5zm-8.012 0h-.099v-3.5h.099v3.5zm-8.012 0h-.099v-3.5h.099v3.5zm-8.012 0h-.099v-3.5h.099v3.5zm-8.012 0h-.099v-3.5h.099v3.5zm-8.013 0h-.099v-3.5h.099v3.5zm-8.012 0h-.099v-3.5h.099v3.5zm-8.012 0h-.099v-3.5h.099v3.5zm-8.012 0h-.099v-3.5h.099v3.5zm-8.012 0h-.099v-3.5h.099v3.5zm-8.012 0h-.099v-3.5h.099v3.5zm-8.013 0h-.098v-3.5h.098v3.5zm-8.012 0h-.099v-3.5h.099v3.5zm-8.012 0h-.099v-3.5h.099v3.5zm-8.012 0h-.099v-3.5h.099v3.5zm-8.012 0h-.099v-3.5h.099v3.5zm-8.012 0h-.099v-3.5h.099v3.5zm-8.013 0h-.098v-3.5h.098v3.5zm-8.012 0h-.099v-3.5h.099v3.5zm-8.012 0h-.099v-3.5h.099v3.5zm-8.012 0h-.099v-3.5h.099v3.5zm-8.012 0h-.099v-3.5h.099v3.5zm-8.012 0h-.099v-3.5h.099v3.5zm-8.012 0h-.099v-3.5h.099v3.5zm-8.013 0h-.099v-3.5h.099v3.5zm-8.012 0h-.099v-3.5h.099v3.5zm-8.012 0h-.099v-3.5h.099v3.5zm-8.012 0h-.099v-3.5h.099v3.5zm-8.012 0h-.099v-3.5h.099v3.5zm-8.012 0h-.099v-3.5h.099v3.5zm-8.012 0h-.099v-3.5h.099v3.5zm-8.013 0h-.099v-3.5h.099v3.5zm-8.012 0h-.049v-3.5h.049v3.5z" fill="#00B0CE"/><path d="M539.991 248.673a1 1 0 001.602-.656l1.399-10.298a1 1 0 00-1.37-1.06l-9.617 3.938a1 1 0 00-.233 1.716l8.219 6.36z" fill="#00B5D3"/><path fill="#fff" d="M162 113h6v6h-6z"/><defs><clipPath id="clip0_2853_2449"><path fill="#fff" transform="translate(22 258)" d="M0 0h58v50H0z"/></clipPath><clipPath id="clip1_2853_2449"><path fill="#fff" transform="translate(174)" d="M0 0h300v99.107H0z"/></clipPath><filter id="filter0_d_2853_2449" x="0" y="236" width="102" height="102" filterUnits="userSpaceOnUse" color-interpolation-filters="sRGB"><feFlood flood-opacity="0" result="BackgroundImageFix"/><feColorMatrix in="SourceAlpha" values="0 0 0 0 0 0 0 0 0 0 0 0 0 0 0 0 0 0 127 0" result="hardAlpha"/><feOffset dy="1"/><feGaussianBlur stdDeviation="3"/><feColorMatrix values="0 0 0 0 0 0 0 0 0 0 0 0 0 0 0 0 0 0 0.15 0"/><feBlend in2="BackgroundImageFix" result="effect1_dropShadow_2853_2449"/><feBlend in="SourceGraphic" in2="effect1_dropShadow_2853_2449" result="shape"/></filter><filter id="filter1_d_2853_2449" x="524" y="236" width="102" height="102" filterUnits="userSpaceOnUse" color-interpolation-filters="sRGB"><feFlood flood-opacity="0" result="BackgroundImageFix"/><feColorMatrix in="SourceAlpha" values="0 0 0 0 0 0 0 0 0 0 0 0 0 0 0 0 0 0 127 0" result="hardAlpha"/><feOffset dy="1"/><feGaussianBlur stdDeviation="3"/><feColorMatrix values="0 0 0 0 0 0 0 0 0 0 0 0 0 0 0 0 0 0 0.15 0"/><feBlend in2="BackgroundImageFix" result="effect1_dropShadow_2853_2449"/><feBlend in="SourceGraphic" in2="effect1_dropShadow_2853_2449" result="shape"/></filter></defs></svg>