<svg width="90" height="89" viewBox="0 0 90 89" fill="none" xmlns="http://www.w3.org/2000/svg">
<path d="M34.3799 88.7289C23.6905 86.1328 14.3221 79.7113 8.04523 70.6777C1.76835 61.6442 -0.982286 50.6244 0.313116 39.7007C1.60852 28.7771 6.86022 18.7062 15.0758 11.3913C23.2914 4.07639 33.9018 0.0240671 44.902 0.000106751C55.9021 -0.0238536 66.5301 3.98221 74.7775 11.2613C83.0249 18.5403 88.3204 28.5882 89.6634 39.5061C91.0063 50.424 88.3037 61.4557 82.0663 70.5165C75.8288 79.5773 66.4885 86.0396 55.8105 88.6822L54.7294 84.314C64.3397 81.9356 72.7459 76.1196 78.3596 67.9648C83.9734 59.8101 86.4057 49.8816 85.197 40.0555C83.9884 30.2294 79.2224 21.1863 71.7997 14.6351C64.3771 8.08399 54.8119 4.47853 44.9118 4.5001C35.0116 4.52166 25.4623 8.16875 18.0682 14.7522C10.6742 21.3356 5.94767 30.3994 4.7818 40.2306C3.61594 50.0619 6.09151 59.9798 11.7407 68.1099C17.3899 76.2401 25.8214 82.0195 35.4419 84.356L34.3799 88.7289Z" fill="#00B5D3"/>
</svg>
