<svg width="20" height="20" viewBox="0 0 20 20" fill="none" xmlns="http://www.w3.org/2000/svg">
<path d="M10.0015 0.0849609C4.52476 0.0849609 0.0859375 4.52378 0.0859375 10.0006C0.0859375 15.4774 4.52476 19.9162 10.0015 19.9162C15.4783 19.9162 19.9172 15.4774 19.9172 10.0006C19.9172 4.52378 15.4783 0.0849609 10.0015 0.0849609ZM13.8834 12.5322C14.2294 12.8782 14.2294 13.452 13.8834 13.798C13.5374 14.144 12.9636 14.144 12.6176 13.798L10.0269 11.2073L7.42771 13.798C7.08172 14.144 6.50788 14.144 6.16189 13.798C5.8159 13.452 5.8159 12.8782 6.16189 12.5322L8.7526 9.9415L6.16189 7.34234C5.8159 6.99635 5.8159 6.42251 6.16189 6.07652C6.50788 5.73053 7.08172 5.73053 7.42771 6.07652L10.0184 8.66724L12.6176 6.07652C12.9636 5.73053 13.5374 5.73053 13.8834 6.07652C14.2294 6.42251 14.2294 6.99635 13.8834 7.34234L11.2927 9.93306L13.8834 12.5322Z" fill="#E43535"/>
</svg>
