<svg width="25" height="50" viewBox="0 0 25 50" fill="none" xmlns="http://www.w3.org/2000/svg">
<path d="M23.4305 44.6042L22.7319 47.46C20.636 48.2873 18.9618 48.9169 17.7152 49.3498C16.4671 49.784 15.017 50 13.3648 50C10.8275 50 8.85401 49.3785 7.44646 48.1439C6.03891 46.9044 5.33492 45.3337 5.33492 43.4283C5.33492 42.6907 5.386 41.932 5.49221 41.159C5.59931 40.3851 5.76959 39.5135 6.00262 38.5393L8.62188 29.2686C8.85491 28.3808 9.05298 27.5397 9.21161 26.7443C9.37249 25.9538 9.45001 25.2265 9.45001 24.5718C9.45001 23.3879 9.20489 22.5598 8.71689 22.0942C8.22888 21.6299 7.29769 21.3942 5.91523 21.3942C5.23812 21.3942 4.54219 21.5026 3.83282 21.7124C3.1203 21.923 2.51131 22.1264 2 22.3155L2.70041 19.4574C4.41627 18.7588 6.05639 18.1606 7.62526 17.664C9.19414 17.1662 10.6765 16.917 12.0787 16.917C14.5985 16.917 16.5429 17.526 17.9083 18.744C19.2737 19.9629 19.9562 21.543 19.9562 23.4901C19.9562 23.8929 19.9114 24.6027 19.8151 25.6173C19.7209 26.6341 19.5457 27.5657 19.2903 28.4131L16.6822 37.6466C16.4685 38.3883 16.2762 39.2361 16.1091 40.1902C15.9366 41.138 15.8541 41.8621 15.8541 42.3479C15.8541 43.5739 16.1275 44.411 16.6755 44.856C17.2276 45.301 18.1785 45.5224 19.5292 45.5224C20.1632 45.5224 20.8847 45.4099 21.6864 45.189C22.4859 44.968 23.0689 44.774 23.4305 44.6042ZM24.0919 5.83902C24.0919 7.44777 23.4856 8.82171 22.2672 9.95142C21.0519 11.0852 19.5874 11.6525 17.8742 11.6525C16.1557 11.6525 14.6877 11.0852 13.4585 9.95142C12.2315 8.82126 11.6167 7.44777 11.6167 5.83902C11.6167 4.2334 12.2315 2.85722 13.4585 1.71317C14.6854 0.570906 16.1561 0 17.8742 0C19.587 0 21.0519 0.57225 22.2672 1.71317C23.4865 2.85722 24.0919 4.23385 24.0919 5.83902Z" fill="#00B5D3"/>
</svg>
