<svg width="20" height="20" viewBox="0 0 20 20" fill="none" xmlns="http://www.w3.org/2000/svg">
<path d="M10 0C4.47656 0 0 4.47656 0 10C0 15.5234 4.47656 20 10 20C15.5234 20 20 15.5234 20 10C20 4.47656 15.5234 0 10 0ZM15.5781 7.39062L9.21875 13.6719C8.83594 14.0859 8.15625 14.1016 7.74219 13.7188L4.46875 10.6875C4.05469 10.3047 4.03125 9.66406 4.41406 9.25C4.79688 8.83594 5.4375 8.8125 5.85156 9.19531L8.47656 11.625L14.1406 5.96094C14.5391 5.5625 15.1797 5.5625 15.5781 5.96094C15.9766 6.35156 15.9766 6.99219 15.5781 7.39062Z" fill="#1FAB7D"/>
</svg>
