<svg width="60" height="60" fill="none" xmlns="http://www.w3.org/2000/svg"><path d="M17.002 44.8l-3.6 3.6-2.2-2.2c-.4-.4-1-.4-1.4 0-.2.2-.2.4-.2.8s.2.6.2.8l2.2 2c.4.4.8.6 1.4.6.6 0 1-.2 1.4-.6l3.6-3.6c.4-.4.4-1 0-1.4-.6-.4-1-.4-1.4 0z" fill="#000"/><path d="M5.203 47.6c0 4.6 3.8 8.4 8.4 8.4 4.6 0 8.4-3.8 8.4-8.4 0-.6-.4-1-1-1s-1 .4-1 1c0 3.6-3 6.4-6.4 6.4-3.4 0-6.4-3-6.4-6.4 0-3.4 3-6.4 6.4-6.4 1.4 0 2.8.4 3.8 1.2.6.2 1.2.2 1.6-.4.4-.4.2-1-.2-1.4-2.6-2-6-2.2-9-.8-2.8 1.6-4.6 4.4-4.6 7.8zm32-39.6c.6 0 1-.4 1-1s-.6-1-1-1h-26c-.6 0-1 .4-1 1v4c0 .6.4 1 1 1h26c.6 0 1-.4 1-1s-.6-1-1-1h-25V8h25zm-23 6c-.6 0-1 .4-1 1s.4 1 1 1h20c.6 0 1-.4 1-1s-.6-1-1-1h-20zm26 7h-22c-.6 0-1 .4-1 1s.4 1 1 1h22c.6 0 1-.4 1-1s-.6-1-1-1zm-10 7c0-.6-.4-1-1-1h-20c-.6 0-1 .4-1 1s.4 1 1 1h20c.4 0 1-.4 1-1zm-11 6c.6 0 1-.4 1-1s-.6-1-1-1h-10c-.6 0-1 .4-1 1s.4 1 1 1h10zm4 0h7c.6 0 1-.4 1-1s-.6-1-1-1h-7c-.6 0-1 .4-1 1s.4 1 1 1z" fill="#000"/><path d="M46.203 52.4c-.6 0-1 .4-1 1V57c0 .6-.4 1-1 1h-40c-.6 0-1-.4-1-1V3c0-.6.4-1 1-1h40c.6 0 1 .4 1 1v18.8c0 .6.4 1 1 1s1-.4 1-1V3c0-1.6-1.4-3-3-3h-40c-1.8 0-3 1.4-3 3v54c0 1.6 1.4 3 3 3h40c1.6 0 3-1.4 3-3v-3.6c0-.4-.6-1-1-1z" fill="#000"/><path d="M37.203 27.2l21.6 12.2-7.4 2.2 5 6.6-4.4 3.2-5-6.4-4 6.4-5.8-24.2z" fill="#00B4D3"/></svg>