<svg width="60" height="60" fill="none" xmlns="http://www.w3.org/2000/svg"><path d="M56 60c-.6 0-1.2-.2-1.6-.8L46 48.8l4.4-3.6 8.4 10.4c.8 1 .6 2.2-.4 3l-1 .8c-.4.4-1 .6-1.4.6zm-7.2-10.8L56 58h.2l1-.8-7.2-9-1.2 1z" fill="#151515"/><path d="M47.802 47.6l-1.2 1h-.2l-7.2-8.8c-.4-.4-.2-1 .2-1.2.4-.4 1-.2 1.2.2l7.2 8.8zM27.578 24.389l1.016 1.236 2.317-1.905-1.015-1.236-2.318 1.905z" fill="#151515"/><path d="M25.203 22.4l1.2-1h.2l11.8 14.2c.4.4.2 1-.2 1.2-.4.4-1 .2-1.2-.2l-11.8-14.2c0 .2 0 .2 0 0zm23.759 25.097l1.397-1.136-21.822-26.853-1.397 1.136 21.822 26.853z" fill="#151515"/><path d="M35.798 19.6l-8 1.6c-.2 0-.6.2-.6.6l-3.2 7.6c-.2.6-1.2.8-1.6 0l-4-7.2c-.4-.2-.6-.4-1-.4l-8.2-.8c-.8 0-1-1-.6-1.4l5.6-6c.2-.2.2-.4.2-.8l-1.8-8c0-.8.6-1.4 1.2-1l7.6 3.4c.2.2.6.2.8 0l7-4.2c.6-.4 1.4.2 1.2.8l-.8 8.2c0 .2 0 .6.2.8l6.2 5.4c.6.4.4 1.2-.2 1.4z" fill="#00B4D3"/><path d="M22.203 1.8l1.8-.8-1.2 1.6.8 1.8-1.6-1.2-1.8 1 1.2-1.8-.8-1.8 1.6 1.2zM9.197 10.2l1.2-.4-.8 1 .6 1.2-1.2-.8-1.2.6.8-1-.6-1.4 1.2.8zm-7.4-2l1-.4-.6 1 .4.8-.8-.6-1 .6.6-1-.4-1 .8.6zm4.605 8.6l.6-.4-.4.8.4.6-.8-.4-.6.2.4-.6-.2-.6.6.4zM10.8 25l1.4-.8-1 1.4.6 1.6-1.2-1L9 27l1-1.4-.8-1.6 1.6 1zM8.402 1.8l1.8-.8-1.2 1.6.8 1.6-1.6-1-1.6.8 1-1.6-.8-1.6 1.6 1zM16.598.6l.8-.4-.6.8.6 1-1-.6-1 .4.6-.8-.4-1 1 .6zm19.2 7.8l1.2-.6-.8 1 .6 1.2-1.2-.8-1.2.6.8-1-.6-1.4 1.2 1zM34.402 1l.8-.4-.4.8.4.8-.8-.4-.8.4.4-.8-.4-.8.8.4z" fill="#00B4D3"/></svg>