<svg width="58" height="60" fill="none" xmlns="http://www.w3.org/2000/svg"><path d="M39.714 38.342v4.296h-20.15V39.24L30.42 28.93c1.224-1.172 2.05-2.194 2.48-3.066.43-.872.644-1.738.644-2.598 0-1.276-.43-2.252-1.288-2.928-.86-.676-2.122-1.016-3.788-1.016-2.786 0-4.92.95-6.404 2.85l-3.556-2.73c1.068-1.432 2.506-2.544 4.316-3.34 1.81-.794 3.834-1.192 6.072-1.192 2.968 0 5.336.702 7.108 2.108 1.77 1.406 2.656 3.32 2.656 5.74a9.508 9.508 0 01-.938 4.178c-.624 1.302-1.822 2.786-3.592 4.452l-7.302 6.952 12.886.002z" fill="#151515"/><path d="M41.315 0l8.052 12.296-14.668.742 2.11-4.074s-2.86-.95-8.144-.56c-2.628.194-5.296.958-8.267 2.348-6.343 2.966-9.505 7.148-11.353 10.092-.918 1.462-2.522 4.782-3.224 8.654-.712 3.926-.508 8.424.838 12.68 2.672 8.454 9.317 12.842 9.317 12.842.09.086.086.212-.112.532-.188.304-.418.396-.468.37-.562-.286-3.972-2.164-7.363-5.808-2.2-2.364-4.284-5.438-5.68-8.92-3.186-7.952-2.276-16.732.684-22.836C5.989 12.272 10.74 6.614 19.289 3.386c10.977-4.146 20.276.234 20.276.234L41.315 0z" fill="#00B4D3"/><path d="M26.421 51.818l-.01-4.916-2.436 4.068h-.616l-2.436-4.004v4.852H19.61v-7.416h1.134l2.946 4.916 2.892-4.916h1.134l.01 7.416h-1.304zm3.306-7.416h1.378v7.416h-1.378v-7.416zm9.973 0v7.416h-1.135l-4.09-5.022v5.022H33.11v-7.416h1.134l4.09 5.022v-5.022H39.7zM17.27 56.491c.14-.33.52-.484.85-.344l1.377.586a.648.648 0 11-.506 1.194l-1.378-.588a.645.645 0 01-.342-.848zm6.253 2.272a.646.646 0 01.742-.538l1.478.234a.646.646 0 01.538.742.646.646 0 01-.742.538l-1.478-.234a.65.65 0 01-.538-.742zm6.705.63a.647.647 0 01.606-.688l1.494-.094a.647.647 0 11.082 1.294l-1.494.094a.647.647 0 01-.688-.606zm6.567-.815a.645.645 0 01.395-.826l1.41-.498a.645.645 0 01.825.395.645.645 0 01-.393.825l-1.41.498a.645.645 0 01-.827-.394zm6.243-2.468a.647.647 0 01.164-.902l1.23-.85a.647.647 0 01.902.164.647.647 0 01-.164.902l-1.23.85a.649.649 0 01-.902-.164zm5.379-3.956a.648.648 0 01-.032-.916l1.022-1.092a.648.648 0 11.948.884l-1.022 1.092a.646.646 0 01-.916.032zm4.296-5.124a.647.647 0 01-.246-.883l.736-1.301a.647.647 0 111.128.636l-.734 1.301a.649.649 0 01-.884.246zm2.913-6.031a.646.646 0 01-.454-.796l.396-1.442a.646.646 0 01.796-.454c.346.094.55.452.454.796l-.396 1.442a.647.647 0 01-.796.454zm1.399-6.543a.647.647 0 01-.634-.662l.032-1.496a.647.647 0 01.662-.634.647.647 0 01.634.662l-.032 1.496a.65.65 0 01-.662.634zm-.312-6.65a.647.647 0 01-.756-.518l-.274-1.47a.647.647 0 01.518-.756.647.647 0 01.756.518l.274 1.47a.65.65 0 01-.518.756zm-1.753-6.454a.648.648 0 01-.877-.264l-.708-1.318a.648.648 0 111.142-.614l.708 1.318a.646.646 0 01-.264.878zm-3.438-5.792a.645.645 0 01-.914-.07l-.974-1.136a.645.645 0 01.07-.913.645.645 0 01.914.07l.974 1.136a.647.647 0 01-.07.913z" fill="#151515"/></svg>