<svg width="60" height="60" fill="none" xmlns="http://www.w3.org/2000/svg"><path d="M28.101 56.802a18.88 18.88 0 01-4.68.57c-3.956 0-7.444-1.102-10.466-3.306-3.024-2.204-5.368-5.366-7.034-9.492-1.668-4.124-2.5-8.982-2.5-14.576 0-5.594.832-10.452 2.5-14.576 1.666-4.122 4.01-7.286 7.034-9.49 3.022-2.204 6.51-3.306 10.466-3.306 3.954 0 7.458 1.102 10.508 3.306 3.05 2.204 5.41 5.368 7.076 9.492 1.562 3.868 2.394 8.382 2.49 13.542.268-.012.538-.02.808-.02.672 0 1.334.036 1.988.102-.098-5.596-1.054-10.546-2.872-14.852-1.922-4.548-4.606-8.05-8.05-10.508C31.923 1.228 27.941 0 23.421 0c-4.464 0-8.432 1.228-11.906 3.686C8.04 6.144 5.341 9.648 3.421 14.194 1.5 18.744.54 24.012.54 30c0 5.99.96 11.258 2.882 15.806 1.92 4.548 4.618 8.05 8.094 10.508C14.99 58.772 18.957 60 23.421 60c2.248 0 4.364-.304 6.346-.912a18.498 18.498 0 01-1.666-2.286z" fill="#1D1D1B"/><path d="M30.396 46.178c-1.206-1.255-1.81-2.968-1.81-5.139 0-1.424.278-2.666.832-3.727.554-1.063 1.32-1.877 2.298-2.442.978-.566 2.092-.85 3.348-.85 1.93 0 3.498.633 4.704 1.9 1.206 1.265 1.81 2.974 1.81 5.12 0 2.172-.604 3.883-1.81 5.138-1.206 1.254-2.774 1.882-4.704 1.882-1.906-.003-3.462-.629-4.668-1.883zm19.65-11.834h5.21l-17.298 25.33h-5.21l17.298-25.33zM36.62 43.75c.386-.58.578-1.483.578-2.713s-.194-2.136-.578-2.714c-.386-.58-.904-.868-1.556-.868-.628 0-1.14.295-1.538.886-.398.592-.596 1.49-.596 2.696 0 1.206.198 2.106.596 2.696.398.591.91.886 1.538.886.652.002 1.17-.288 1.556-.868zm11.634 14.367c-1.194-1.255-1.792-2.968-1.792-5.139 0-2.145.602-3.853 1.81-5.12 1.206-1.266 2.762-1.9 4.668-1.9 1.93 0 3.498.634 4.704 1.9 1.206 1.267 1.81 2.974 1.81 5.12 0 2.172-.604 3.885-1.81 5.139-1.206 1.255-2.774 1.881-4.704 1.881-1.93 0-3.492-.626-4.686-1.882zm6.242-2.425c.386-.58.58-1.483.58-2.713s-.194-2.136-.58-2.714c-.386-.58-.904-.868-1.556-.868s-1.17.29-1.556.867c-.386.578-.58 1.484-.58 2.715 0 1.23.192 2.134.58 2.714.386.578.904.867 1.556.867s1.17-.29 1.556-.867z" fill="#00B4D3"/></svg>