<svg width="71" height="71" viewBox="0 0 71 71" fill="none" xmlns="http://www.w3.org/2000/svg">
<path d="M29.1667 23.3326C28.9946 23.3326 28.8254 23.3005 28.6621 23.2422L0.95375 13.0339C0.379167 12.8209 0 12.2784 0 11.6659C0 11.0534 0.379167 10.5109 0.95375 10.298L28.6621 0.0896875C28.9858 -0.0298958 29.3446 -0.0298958 29.6713 0.0896875L57.3796 10.298C57.9542 10.5109 58.3333 11.0534 58.3333 11.6659C58.3333 12.2784 57.9542 12.8209 57.3796 13.0339L29.6713 23.2422C29.5079 23.3005 29.3388 23.3326 29.1667 23.3326ZM5.67583 11.6659L29.1667 20.3197L52.6575 11.6659L29.1667 3.01219L5.67583 11.6659Z" fill="#222222"/>
<path d="M25.1417 56.8465C24.9725 56.8465 24.8033 56.8173 24.6371 56.7561L0.95375 48.0352C0.382083 47.8223 0 47.2798 0 46.6673V11.6673C0 10.8623 0.653333 10.209 1.45833 10.209C2.26333 10.209 2.91667 10.8623 2.91667 11.6673V45.6494L25.6463 54.0202C26.4017 54.2973 26.7896 55.1373 26.5096 55.8927C26.2938 56.4819 25.7367 56.8465 25.1417 56.8465Z" fill="#222222"/>
<path d="M56.8763 26.2506C56.0713 26.2506 55.418 25.5973 55.418 24.7923V11.6673C55.418 10.8623 56.0713 10.209 56.8763 10.209C57.6813 10.209 58.3346 10.8623 58.3346 11.6673V24.7923C58.3346 25.5973 57.6813 26.2506 56.8763 26.2506Z" fill="#222222"/>
<path d="M29.1654 38.0035C28.3604 38.0035 27.707 37.3502 27.707 36.5452V21.8743C27.707 21.0693 28.3604 20.416 29.1654 20.416C29.9704 20.416 30.6237 21.0693 30.6237 21.8743V36.5452C30.6237 37.3531 29.9704 38.0035 29.1654 38.0035Z" fill="#222222"/>
<circle cx="51" cy="51" r="20" fill="#00B5D3"/>
<path d="M51.0404 61.2507C50.2354 61.2507 49.582 60.5973 49.582 59.7923V42.2923C49.582 41.4873 50.2354 40.834 51.0404 40.834C51.8454 40.834 52.4987 41.4873 52.4987 42.2923V59.7923C52.4987 60.5973 51.8454 61.2507 51.0404 61.2507Z" fill="white"/>
<path d="M59.7904 52.5006H42.2904C41.4854 52.5006 40.832 51.8473 40.832 51.0423C40.832 50.2373 41.4854 49.584 42.2904 49.584H59.7904C60.5954 49.584 61.2487 50.2373 61.2487 51.0423C61.2487 51.8473 60.5954 52.5006 59.7904 52.5006Z" fill="white"/>
</svg>
