<svg width="27" height="22" viewBox="0 0 27 22" fill="none" xmlns="http://www.w3.org/2000/svg">
<path d="M22.1461 21.1913H4.64476C4.16853 21.1913 3.77734 20.8001 3.77734 20.3238V2.82249C3.77734 2.33776 4.16853 1.95508 4.64476 1.95508H22.1461C22.6223 1.95508 23.0135 2.34626 23.0135 2.82249V20.3238C23.0135 20.8001 22.6223 21.1913 22.1461 21.1913ZM4.64476 2.72044C4.59373 2.72044 4.54271 2.76296 4.54271 2.82249V20.3238C4.54271 20.3749 4.58523 20.4259 4.64476 20.4259H22.1461C22.1971 20.4259 22.2482 20.3834 22.2482 20.3238V2.82249C22.2482 2.77147 22.2056 2.72044 22.1461 2.72044H4.64476Z" fill="#151515"/>
<path d="M6.64171 2.60307C6.28454 2.60307 6.00391 2.31393 6.00391 1.96527V1.42101C6.00391 1.06384 6.29304 0.783203 6.64171 0.783203C6.99888 0.783203 7.27951 1.07234 7.27951 1.42101V1.96527C7.27951 2.31393 6.99888 2.60307 6.64171 2.60307Z" fill="#151515"/>
<path d="M10.0831 2.60307C9.72595 2.60307 9.44531 2.31393 9.44531 1.96527V1.42101C9.44531 1.06384 9.73445 0.783203 10.0831 0.783203C10.4403 0.783203 10.7209 1.07234 10.7209 1.42101V1.96527C10.7209 2.31393 10.4318 2.60307 10.0831 2.60307Z" fill="#151515"/>
<path d="M13.5284 2.60307C13.1713 2.60307 12.8906 2.31393 12.8906 1.96527V1.42101C12.8906 1.06384 13.1798 0.783203 13.5284 0.783203C13.8856 0.783203 14.1662 1.07234 14.1662 1.42101V1.96527C14.1662 2.31393 13.8771 2.60307 13.5284 2.60307Z" fill="#151515"/>
<path d="M16.9659 2.60307C16.6088 2.60307 16.3281 2.31393 16.3281 1.96527V1.42101C16.3281 1.06384 16.6173 0.783203 16.9659 0.783203C17.3231 0.783203 17.6037 1.07234 17.6037 1.42101V1.96527C17.6037 2.31393 17.3231 2.60307 16.9659 2.60307Z" fill="#151515"/>
<path d="M20.4112 2.60307C20.0541 2.60307 19.7734 2.31393 19.7734 1.96527V1.42101C19.7734 1.06384 20.0626 0.783203 20.4112 0.783203C20.7684 0.783203 21.049 1.07234 21.049 1.42101V1.96527C21.049 2.31393 20.7599 2.60307 20.4112 2.60307Z" fill="#151515"/>
<path d="M22.6431 5.11133H4.21484V5.97024H22.6431V5.11133Z" fill="#151515"/>
<path d="M13.9583 13.3686C14.3835 13.8364 14.6046 14.4231 14.6046 15.1205C14.6046 15.6562 14.4686 16.1495 14.1879 16.6087C13.9073 17.0594 13.4821 17.4251 12.9038 17.6972C12.3255 17.9693 11.6282 18.1139 10.7863 18.1139C10.1315 18.1139 9.49369 18.0289 8.86439 17.8588C8.23509 17.6887 7.69933 17.4421 7.26562 17.1274L8.08202 15.4776C8.43919 15.7413 8.83888 15.9454 9.3066 16.0899C9.76582 16.2345 10.242 16.3025 10.7268 16.3025C11.2625 16.3025 11.6877 16.192 11.9939 15.9879C12.3 15.7838 12.4531 15.4861 12.4531 15.112C12.4531 14.3551 11.8748 13.9724 10.7183 13.9724H9.74881V12.5608L11.6452 10.4092H7.70784V8.69141H14.1794V10.0776L12.0959 12.4502C12.9038 12.6033 13.5161 12.9009 13.9583 13.3686Z" fill="#00B4D3"/>
<path d="M19.1986 8.70898V17.9529H17.0641V10.4268H15.2188V8.70898H19.1986Z" fill="#00B4D3"/>
</svg>
