<svg width="27" height="22" viewBox="0 0 27 22" fill="none" xmlns="http://www.w3.org/2000/svg">
<g clip-path="url(#clip0)">
<path d="M26.1255 6.41211H0.324219V10.7492H26.1255V6.41211Z" fill="#00B4D3"/>
<path d="M25.6328 19.4832H1.18365C0.57136 19.4832 0.078125 18.9814 0.078125 18.3777V4.03131C0.078125 3.41902 0.579864 2.92578 1.18365 2.92578H25.6328C26.2451 2.92578 26.7383 3.42752 26.7383 4.03131V18.3692C26.7383 18.9814 26.2451 19.4832 25.6328 19.4832ZM1.18365 3.68264C0.996563 3.68264 0.84349 3.83572 0.84349 4.0228V18.3692C0.84349 18.5562 0.996563 18.7093 1.18365 18.7093H25.6328C25.8199 18.7093 25.973 18.5562 25.973 18.3692V4.03131C25.973 3.84422 25.8199 3.69115 25.6328 3.69115H1.18365V3.68264Z" fill="#151515"/>
<path d="M3.03399 16.3376C4.24157 16.3376 5.44064 16.3376 6.64821 16.3376C7.14145 16.3376 7.14145 15.5723 6.64821 15.5723C5.44064 15.5723 4.24157 15.5723 3.03399 15.5723C2.54075 15.5723 2.54075 16.3376 3.03399 16.3376Z" fill="#1D1D1B"/>
<path d="M8.21368 16.3376C9.42125 16.3376 10.6203 16.3376 11.8279 16.3376C12.3211 16.3376 12.3211 15.5723 11.8279 15.5723C10.6203 15.5723 9.42125 15.5723 8.21368 15.5723C7.72044 15.5723 7.72044 16.3376 8.21368 16.3376Z" fill="#1D1D1B"/>
</g>
<defs>
<clipPath id="clip0">
<rect width="26.7793" height="22" fill="white"/>
</clipPath>
</defs>
</svg>
