<svg width="18" height="22" viewBox="0 0 18 22" fill="none" xmlns="http://www.w3.org/2000/svg">
<path d="M8.71365 21.9921C8.49254 21.9921 8.27144 21.907 8.10136 21.7454C6.68968 20.3593 5.35455 18.8711 4.13847 17.3148C1.44268 13.8622 0.0820312 10.9453 0.0820312 8.6492C0.0820312 3.88692 3.95138 0.0175781 8.71365 0.0175781C13.4759 0.0175781 17.3453 3.88692 17.3453 8.6492C17.3453 10.9453 15.9761 13.8622 13.2888 17.3233C12.0728 18.8796 10.7461 20.3678 9.33444 21.754C9.15586 21.907 8.93475 21.9921 8.71365 21.9921ZM8.71365 0.782943C4.37658 0.782943 0.847396 4.31213 0.847396 8.6492C0.847396 10.7752 2.15702 13.5305 4.74225 16.8471C5.93282 18.3778 7.24245 19.8405 8.62861 21.2012C8.67113 21.2437 8.74766 21.2437 8.79018 21.2012C10.1678 19.849 11.4775 18.3778 12.6765 16.8556C15.2618 13.539 16.5714 10.7752 16.5714 8.6577C16.5799 4.31213 13.0507 0.782943 8.71365 0.782943Z" fill="#161616"/>
<path d="M12.8111 7.89242L9.05232 4.47378C8.85673 4.2952 8.55909 4.2952 8.36349 4.47378L4.6047 7.89242C4.42612 8.054 4.3836 8.32613 4.51116 8.53873C4.6047 8.6918 4.78329 8.79385 4.97038 8.78535H5.46361V12.0339C5.46361 12.3145 5.69322 12.5441 5.97385 12.5441H7.17293C7.45356 12.5441 7.68317 12.3145 7.68317 12.0339V10.1545C7.68317 9.87387 7.91278 9.64426 8.19341 9.64426H9.2224C9.50304 9.64426 9.73265 9.87387 9.73265 10.1545V12.0339C9.73265 12.3145 9.96226 12.5441 10.2429 12.5441H11.442C11.7226 12.5441 11.9522 12.3145 11.9522 12.0339V8.78535H12.4454C12.6325 8.78535 12.8026 8.6918 12.9047 8.53873C13.0322 8.32613 12.9982 8.054 12.8111 7.89242Z" fill="#00B4D3"/>
</svg>
