<svg width="26" height="22" viewBox="0 0 26 22" fill="none" xmlns="http://www.w3.org/2000/svg">
<path d="M12.6435 21.9921C6.5886 21.9921 1.65625 17.0597 1.65625 11.0048C1.65625 4.94993 6.5886 0.0175781 12.6435 0.0175781C18.6984 0.0175781 23.6307 4.94993 23.6307 11.0048C23.6307 17.0682 18.6984 21.9921 12.6435 21.9921ZM12.6435 0.782943C7.0053 0.782943 2.42162 5.36663 2.42162 11.0048C2.42162 16.643 7.0053 21.2267 12.6435 21.2267C18.2817 21.2267 22.8654 16.643 22.8654 11.0048C22.8654 5.36663 18.2817 0.782943 12.6435 0.782943Z" fill="#151515"/>
<path d="M12.6522 10.9954C12.6522 10.9954 12.6437 1.70898 12.6522 1.70898C17.7717 1.71749 21.9301 5.86746 21.9386 10.9869V10.9954H12.6522Z" fill="#00B4D3"/>
<path d="M12.2617 19.0054C12.2617 19.5242 12.2617 20.0429 12.2617 20.5617C12.2617 21.0549 13.0271 21.0549 13.0271 20.5617C13.0271 20.0429 13.0271 19.5242 13.0271 19.0054C13.0271 18.5207 12.2617 18.5122 12.2617 19.0054Z" fill="#151515"/>
<path d="M4.64101 10.6133C4.12226 10.6133 3.60352 10.6133 3.08477 10.6133C2.59154 10.6133 2.59154 11.3786 3.08477 11.3786C3.60352 11.3786 4.12226 11.3786 4.64101 11.3786C5.13425 11.3786 5.13425 10.6133 4.64101 10.6133Z" fill="#151515"/>
<path d="M12.2617 1.44805C12.2617 1.9668 12.2617 2.48555 12.2617 3.00429C12.2617 3.49753 13.0271 3.49753 13.0271 3.00429C13.0271 2.48555 13.0271 1.9668 13.0271 1.44805C13.0271 0.954816 12.2617 0.954816 12.2617 1.44805Z" fill="#151515"/>
<path d="M22.1957 10.6152C21.6769 10.6152 21.1582 10.6152 20.6395 10.6152C20.1462 10.6152 20.1462 11.3806 20.6395 11.3806C21.1582 11.3806 21.6769 11.3806 22.1957 11.3806C22.6889 11.3806 22.6974 10.6152 22.1957 10.6152Z" fill="#151515"/>
<path d="M18.9604 5.33283C19.1952 5.33283 19.3856 5.14246 19.3856 4.90762C19.3856 4.67279 19.1952 4.48242 18.9604 4.48242C18.7255 4.48242 18.5352 4.67279 18.5352 4.90762C18.5352 5.14246 18.7255 5.33283 18.9604 5.33283Z" fill="#151515"/>
<path d="M6.33536 5.33283C6.57019 5.33283 6.76056 5.14246 6.76056 4.90763C6.76056 4.67279 6.57019 4.48242 6.33536 4.48242C6.10053 4.48242 5.91016 4.67279 5.91016 4.90763C5.91016 5.14246 6.10053 5.33283 6.33536 5.33283Z" fill="#151515"/>
<path d="M18.9565 17.5281C19.1913 17.5281 19.3817 17.3378 19.3817 17.1029C19.3817 16.8681 19.1913 16.6777 18.9565 16.6777C18.7216 16.6777 18.5312 16.8681 18.5312 17.1029C18.5312 17.3378 18.7216 17.5281 18.9565 17.5281Z" fill="#151515"/>
<path d="M6.32754 17.5281C6.56237 17.5281 6.75274 17.3378 6.75274 17.1029C6.75274 16.8681 6.56237 16.6777 6.32754 16.6777C6.09271 16.6777 5.90234 16.8681 5.90234 17.1029C5.90234 17.3378 6.09271 17.5281 6.32754 17.5281Z" fill="#151515"/>
</svg>
