<svg width="20" height="20" fill="none" xmlns="http://www.w3.org/2000/svg"><g clip-path="url(#clip0)"><path d="M18.667 19.867c-.734.4-1.667.066-2.134-.8l-2.666-5s.866-.267 1.4-.6c.533-.267 1.266-.867 1.266-.867l2.667 5c.467.867.2 1.867-.533 2.267zM11.8 13.6c-.667 0-1.333-.067-2-.267-3.6-1.066-5.667-4.866-4.533-8.466C6.333 1.267 10.133-.8 13.733.333c3.6 1.067 5.6 4.867 4.534 8.467C17.733 10.533 16.6 12 15 12.867c-1 .466-2.133.733-3.2.733zM11.733.667c-2.6 0-5.066 1.733-5.866 4.4-1 3.2.866 6.666 4.133 7.6 1.533.466 3.2.333 4.667-.467A6.036 6.036 0 0017.6 8.6c1-3.2-.867-6.667-4.133-7.6a5.008 5.008 0 00-1.734-.333z" fill="#00B4D3"/><path d="M13.333 19H.933c-.2 0-.333-.133-.333-.333s.133-.334.333-.334h12.4c.2 0 .334.134.334.334s-.134.333-.334.333zm-1.066-2H.933c-.2 0-.333-.133-.333-.333s.133-.334.333-.334h11.334c.2 0 .333.134.333.334s-.133.333-.333.333zM11.2 15H.933c-.2 0-.333-.133-.333-.333s.133-.334.333-.334H11.2c.2 0 .333.134.333.334S11.4 15 11.2 15zm-5.933-2.067H.933c-.2 0-.333-.133-.333-.333s.133-.333.333-.333h4.334c.2 0 .333.133.333.333s-.133.333-.333.333zm-1.867-2H.933c-.2 0-.333-.133-.333-.333s.133-.333.333-.333H3.4c.2 0 .333.133.333.333s-.133.333-.333.333zm-.867-2h-1.6C.733 8.933.6 8.8.6 8.6s.133-.333.333-.333H2.6c.2 0 .333.133.333.333s-.2.333-.4.333zm0-2h-1.6C.733 6.933.6 6.8.6 6.6s.133-.333.333-.333H2.6c.2 0 .333.133.333.333s-.2.333-.4.333z" fill="#151515"/></g><defs><clipPath id="clip0"><path fill="#fff" d="M0 0h20v20H0z"/></clipPath></defs></svg>