<svg width="16" height="20" fill="none" xmlns="http://www.w3.org/2000/svg"><path d="M4.8.703h9.92c-.117-.115-.232-.231-.348-.347v19.273l.348-.348H4.8c-.448 0-.448.696 0 .696h9.92a.357.357 0 00.347-.348V.356a.357.357 0 00-.348-.348H4.802c-.441 0-.449.695 0 .695z" fill="#151515"/><path d="M4.511 6.393a1.33 1.33 0 110-2.659 1.33 1.33 0 010 2.66zm1.678 7.554L7.27 12.5l.495 1.886c.015.024.038.039.054.062l1.507 2.033a.728.728 0 01-.092.982.714.714 0 01-1.029-.116L6.683 15.3c-.007-.016-.023-.031-.03-.047a.622.622 0 01-.21-.34l-.254-.966z" fill="#00B5D3"/><path d="M1.287 10.738s1.647-.742 1.902-.982c.363-.34.533-1.46.788-1.94.14-.27.364-.92 1.175-.982.665-.046 1.485.41 1.578.503L8.616 8.89a.643.643 0 01.178.378l.255 2.428a.56.56 0 01-.495.61H8.54a.56.56 0 01-.611-.494s-.17-1.724-.302-2.049c-.092-.2-.641-.68-1.097-1.051l.564 2.667s-.34.564-.425.696l-.108.17-3.224 5.048a.786.786 0 01-1.083.24l-.03-.023a.786.786 0 01-.24-1.083l2.976-4.654-.386-2.056-.31.672a.61.61 0 01-.146.194.724.724 0 01-.147.108L1.782 11.75a.553.553 0 01-.735-.255l-.007-.016a.55.55 0 01.247-.742z" fill="#00B5D3"/></svg>