<svg width="16" height="21" viewBox="0 0 16 21" fill="none" xmlns="http://www.w3.org/2000/svg">
<path d="M0.803835 6.60248C0.38858 6.60248 0.100667 6.18268 0.256372 5.79771C0.809248 4.43088 2.15022 3.46404 3.71293 3.46404H4.43532C4.70472 2.04104 5.95236 0.914062 7.47906 0.914062H8.73443C10.2601 0.914062 11.5086 2.04029 11.7782 3.46404H12.5006C14.0633 3.46404 15.4042 4.43088 15.9571 5.79771C16.1128 6.18268 15.8249 6.60248 15.4097 6.60248H0.803835ZM8.73443 2.09098H7.47906C6.61991 2.09098 5.89062 2.669 5.64511 3.46404H10.5684C10.3229 2.669 9.59358 2.09098 8.73443 2.09098Z" fill="#C0C0C0"/>
<path d="M13.7944 19.3601C13.729 20.2797 12.9555 21.0001 12.0335 21.0001H4.1827C3.26078 21.0001 2.48727 20.2797 2.4218 19.3601L1.59706 7.77942H14.6191L13.7944 19.3601ZM6.4989 10.9277C6.48266 10.6031 6.20589 10.3528 5.88181 10.3694C5.55721 10.3856 5.30724 10.6619 5.32348 10.9865L5.63732 17.2633C5.65306 17.5779 5.91307 17.8224 6.22456 17.8224C6.5634 17.8224 6.8295 17.5391 6.81279 17.2046L6.4989 10.9277ZM10.3344 10.3694C10.0102 10.3531 9.73349 10.6032 9.71729 10.9277L9.40345 17.2046C9.38674 17.5392 9.65303 17.8224 9.99167 17.8224C10.3032 17.8224 10.5632 17.5779 10.5789 17.2633L10.8928 10.9865C10.909 10.6619 10.659 10.3856 10.3344 10.3694Z" fill="#C0C0C0"/>
</svg>
