<svg width="75" height="51" fill="none" xmlns="http://www.w3.org/2000/svg"><path d="M74.82 27.84a.553.553 0 00-.075-.165L64.08 11.67A6.005 6.005 0 0059.085 9H49.5V6c0-3.315-2.685-6-6-6H6C2.685 0 0 2.685 0 6v21h46.5v3H0v10.5C0 42.975 2.025 45 4.5 45h.12a8.32 8.32 0 01-.12-1.5C4.5 37.71 9.21 33 15 33s10.5 4.71 10.5 10.5c0 .51-.03 1.005-.12 1.5h25.74a8.32 8.32 0 01-.12-1.5C51 37.71 55.71 33 61.5 33S72 37.71 72 43.5c0 .42-.03.84-.09 1.26A4.502 4.502 0 0075 40.5v-12c0-.18-.045-.36-.105-.525a.607.607 0 00-.075-.135zM49.5 27V12h9.585c1.005 0 1.95.495 2.505 1.335L70.695 27H49.5z" fill="#fff"/><path d="M15 51a7.5 7.5 0 100-15 7.5 7.5 0 000 15zm46.5 0a7.5 7.5 0 100-15 7.5 7.5 0 000 15z" fill="#fff"/></svg>