<svg width="51" height="60" fill="none" xmlns="http://www.w3.org/2000/svg"><path d="M19.88 59.868a84.4 84.4 0 01-3.867-.28c-.95-.09-1.9-.208-2.843-.34a66.045 66.045 0 01-3.177-.503c-.905-.177-1.788-.42-2.68-.635a17.996 17.996 0 01-3.347-1.174c-1.061-.495-2.07-1.086-2.842-1.986-.661-.776-1.002-1.684-1.099-2.69-.096-.99.097-1.905.4-2.828.446-1.351.958-2.673 1.641-3.929.846-1.558 1.893-2.96 3.303-4.069a8.713 8.713 0 013.422-1.624c.297-.067.594-.111.898-.163a.862.862 0 00.557-.332c.423-.51.735-1.086.905-1.713.223-.82.409-1.655.557-2.49.096-.538.141-1.092.148-1.646.015-1.196.008-2.4-.014-3.596-.008-.613-.075-1.226-.104-1.84-.008-.176-.067-.265-.253-.339-1.313-.532-2.174-1.47-2.479-2.865-.03-.133-.022-.273-.022-.406 0-1.248-.045-2.496.03-3.744.052-.872.527-1.61 1.187-2.179.342-.288.757-.487 1.136-.731.052-.037.111-.089.119-.148.104-.502.163-1.011.29-1.499.266-1.049.125-2.112.133-3.175.014-1.36.178-2.688.608-3.98.698-2.105 1.893-3.9 3.54-5.392a13.941 13.941 0 013.549-2.326A13.405 13.405 0 0122.908.221c1.5-.259 3.006-.296 4.513-.082 2.242.31 4.298 1.1 6.146 2.4 1.84 1.293 3.28 2.94 4.253 4.978.446.93.787 1.898.965 2.902.134.783.17 1.588.215 2.385.03.569-.014 1.138.015 1.706.022.429.09.85.156 1.278.096.59.215 1.174.32 1.765.022.125.059.184.2.244.898.406 1.588 1.026 2.011 1.927.245.517.32 1.063.312 1.625-.015 1.04.007 2.082-.022 3.116-.03 1.026-.527 1.846-1.292 2.51a3.76 3.76 0 01-1.292.747c-.074.022-.155.147-.155.229a43.492 43.492 0 00-.141 5.295c.03.834.163 1.668.26 2.503.089.783.304 1.543.593 2.275.215.531.497 1.033.906 1.44.104.103.282.162.43.184 2.487.347 4.461 1.566 6.027 3.478a14.797 14.797 0 012.197 3.656c.401.967.757 1.95 1.114 2.932.319.886.438 1.802.311 2.732-.17 1.293-.764 2.37-1.803 3.19-1.084.857-2.309 1.448-3.615 1.876-.898.295-1.804.598-2.724.82-1.017.25-2.056.428-3.088.613a44.41 44.41 0 01-2.612.406 78.641 78.641 0 01-3.237.31c-1.202.096-2.405.177-3.607.236-1.091.052-2.182.074-3.28.096-.498.015-.995 0-1.493 0-.571 0-3.74-.044-5.61-.125zm16.27-37.33a.514.514 0 01-.06-.023c-.222.207-.43.421-.66.62-.06.052-.193.082-.26.045a751.371 751.371 0 01-4.2-2.142c-1.545-.797-3.088-1.595-4.64-2.385-1.677-.864-3.362-1.72-5.04-2.577-.222-.11-.445-.266-.682-.303-.535-.081-1.077-.007-1.596.155-.802.244-1.47.716-2.004 1.366-1.025 1.248-1.515 2.718-1.79 4.276-.036.222-.08.45-.125.68-.12-.037-.208-.067-.312-.096a.54.54 0 00-.022.133c0 1.513 0 3.02.007 4.534 0 .103.052.214.119.295.245.31.542.473.935.244.022.052.044.081.06.118.274.687.504 1.388.816 2.053.683 1.455 1.529 2.806 2.605 4.01 1.091 1.226 2.338 2.252 3.89 2.85 1.35.525 2.73.599 4.126.2 1.121-.325 2.108-.908 3.014-1.64.913-.745 1.677-1.617 2.375-2.562.252-.34.475-.702.713-1.064-.06-.014-.075-.022-.09-.022-.935.362-1.9.613-2.887.79-.542.096-1.098.148-1.64.215-.208.022-.379.066-.52.273-.349.502-.853.731-1.477.731-.764-.007-1.529 0-2.293 0a1.789 1.789 0 01-1.767-1.684 1.768 1.768 0 011.722-1.846c.81-.015 1.626-.007 2.435 0 .497.008.942.177 1.247.561.2.251.4.266.66.207.09-.022.178-.022.26-.037.869-.17 1.752-.303 2.605-.532.958-.25 1.87-.635 2.732-1.115.185-.103.378-.184.445-.42.097-.318.223-.628.334-.938.015-.045.052-.09.082-.133.527.243.876.022.876-.54v-3.98c.007-.118.007-.214.007-.317zm-3.763 13.514s-.03.015-.052.03a12.734 12.734 0 01-2.234 1.75 9.242 9.242 0 01-3.496 1.307c-1.425.214-2.798-.015-4.12-.54-1.01-.398-1.922-.967-2.768-1.646-.371-.303-.728-.628-1.121-.968-.015.118-.037.215-.044.303-.023.399-.179.753-.394 1.086-.445.686-1.091 1.122-1.84 1.425-.253.103-.275.17-.186.428.178.517.52.916.898 1.293.675.679 1.462 1.218 2.286 1.69.868.503 1.796.894 2.761 1.168.913.265 1.848.428 2.813.48.958.044 1.915 0 2.85-.207.765-.163 1.522-.421 2.264-.687a11.203 11.203 0 003.66-2.193c.512-.45.994-.938 1.202-1.625.06-.2.03-.288-.178-.37-.787-.317-1.47-.79-1.87-1.557-.201-.348-.29-.761-.431-1.167zM16.607 7.074c.705-.54 1.447-1.02 2.256-1.403.839-.4 1.7-.731 2.613-.887.63-.103 1.262-.214 1.9-.258.638-.044 1.284-.015 1.93-.007 1.425.014 2.85-.082 4.26.265 1.054.259 2.064.599 3.006 1.123.557.31 1.084.672 1.581.982-.178-.37-1.105-1.396-2.234-2.2-1.751-1.249-3.718-1.95-5.863-2.031-3.882-.133-7.067 1.314-9.45 4.416z" fill="#fff"/></svg>