<svg width="80" height="54" fill="none" xmlns="http://www.w3.org/2000/svg"><path d="M39.987 43.348H9.043c-.552 0-.552 0-.552-.55 0-12.68.008-25.362-.009-38.043 0-1.593.503-2.911 1.806-3.89.7-.525 1.5-.825 2.39-.849.181-.008.355-.008.536-.008C31.069.008 48.923.016 66.786 0 68.64 0 70 .76 70.94 2.28c.404.656.553 1.392.553 2.16v38.366c0 .542 0 .542-.561.542H39.987zm.338-4.99h23.856c.577 0 1.154.009 1.731 0 .511-.008.874-.331.931-.833.017-.129.009-.267.009-.404V7.004c0-.138.008-.267-.008-.405-.05-.542-.462-.897-1.023-.89-.37.009-.742.009-1.112.009H14.977c-.857 0-1.204.331-1.204 1.172v30.28c0 .865.322 1.18 1.204 1.18 8.45.017 16.898.008 25.347.008zM39.98 54H4.674C2.548 54 .94 52.91.24 50.945c-.15-.415-.207-.867-.223-1.305-.033-.897 0-1.803-.016-2.709-.009-.323.082-.445.436-.445 8.928.008 17.855.008 26.782.017.181 0 .404.096.536.218 1.368 1.294 3.017 1.916 4.896 1.925 4.905.016 9.81.016 14.706 0 1.871-.008 3.495-.655 4.872-1.909a.983.983 0 01.61-.234c8.902-.009 17.796-.009 26.699-.017.33 0 .47.065.462.42-.042 1.093.05 2.193-.083 3.268-.296 2.297-2.16 3.817-4.534 3.817H60.72C53.804 54 46.896 54 39.98 54z" fill="#fff"/><path d="M40.315 36.628H16.171c-.585 0-.585 0-.585-.575V7.998c0-.517 0-.525.552-.525h48.33c.576 0 .576 0 .576.566v28.055c0 .526 0 .526-.544.526-8.061.008-16.123.008-24.185.008zM35.65 10.942c-1.22-.048-2.333.97-2.35 2.289-.024 1.23 1.072 2.297 2.333 2.297 1.31 0 2.341-1.084 2.358-2.297.016-1.197-1.13-2.362-2.341-2.289zm-3.669 8.015c1.154.056 2.21-.914 2.21-2.152 0-1.18-.981-2.135-2.193-2.143-1.228-.008-2.226 1.02-2.201 2.168.033 1.197.956 2.127 2.184 2.127zM28.57 21.73c-.058 1.108.997 2.054 2.069 2.062 1.12.008 2.143-.979 2.126-2.07-.016-1.108-1.055-2.038-2.102-2.055-1.013-.024-2.184.939-2.093 2.063zm1.467 4.884c-.074 1.068.915 1.966 1.954 1.95 1.08-.017 1.994-.89 1.994-1.941 0-1.052-.906-1.925-1.986-1.95-1.055-.016-2.028.898-1.962 1.942zm5.614 1.78c-1.105-.065-1.896.946-1.888 1.811.008 1.011.849 1.82 1.871 1.86.874.033 1.88-.825 1.88-1.836 0-.946-.858-1.908-1.863-1.835zm6.767 3.121c0-.962-.791-1.714-1.789-1.706-.98.008-1.73.736-1.739 1.698-.008.955.791 1.747 1.764 1.747.956 0 1.764-.792 1.764-1.739zm3.198.3c.874.072 1.674-.72 1.674-1.61 0-.881-.726-1.601-1.632-1.617-.915-.008-1.682.728-1.682 1.617.008.93.866 1.674 1.64 1.61zm5.218-5.184c.091-.664-.593-1.52-1.508-1.529-.857 0-1.575.688-1.566 1.52.008.801.733 1.537 1.541 1.521.775-.008 1.583-.671 1.533-1.512zm-.173-3.518c.808-.008 1.418-.615 1.41-1.408a1.413 1.413 0 00-1.46-1.383c-.79.017-1.425.664-1.409 1.432.017.687.594 1.4 1.46 1.359zm-.057-6.309c.057-.711-.635-1.318-1.32-1.285-.75.032-1.31.582-1.302 1.318.008.695.61 1.278 1.32 1.278.733 0 1.302-.567 1.302-1.31zm-3.743-3.59c-.008-.64-.593-1.197-1.245-1.181-.634.016-1.211.574-1.211 1.18 0 .631.585 1.206 1.236 1.206.651.008 1.228-.566 1.22-1.205zm-5.152-1.31c.041-.615-.503-1.036-1.047-1.06-.585-.024-1.104.493-1.096 1.068 0 .566.486 1.051 1.072 1.051.56 0 1.112-.412 1.071-1.06z" fill="#fff"/></svg>