<svg width="56" height="56" fill="none" xmlns="http://www.w3.org/2000/svg"><path d="M52.181 45.818h-8.909c-5.614 0-10.181-4.567-10.181-10.181 0-5.614 4.567-10.182 10.181-10.182h8.91c.703 0 1.272-.57 1.272-1.273v-3.818c0-2.669-2.07-4.84-4.686-5.05l-7.31-12.766a5.03 5.03 0 00-3.08-2.376 5.001 5.001 0 00-3.83.514L9.492 15.273H5.09A5.096 5.096 0 000 20.364V50.91A5.096 5.096 0 005.09 56h43.273a5.096 5.096 0 005.09-5.09v-3.82c0-.703-.569-1.273-1.272-1.273zM43.037 10.43l2.773 4.844H34.717l8.32-4.843zm-28.486 4.844L35.83 2.886a2.461 2.461 0 011.89-.255c.65.174 1.192.594 1.529 1.182l.003.004-19.677 11.456h-5.024z" fill="#fff"/><path d="M52.18 28.001h-8.909c-4.21 0-7.636 3.425-7.636 7.636s3.425 7.636 7.636 7.636h8.909a3.822 3.822 0 003.818-3.818V31.82a3.822 3.822 0 00-3.818-3.818zm-8.909 10.182a2.549 2.549 0 01-2.545-2.546 2.549 2.549 0 012.545-2.545 2.549 2.549 0 012.545 2.545 2.549 2.549 0 01-2.545 2.546z" fill="#fff"/></svg>