<svg width="47" height="37" viewBox="0 0 47 37" fill="none" xmlns="http://www.w3.org/2000/svg">
<path d="M30.3099 31.6937H14.8162V30.4065H30.036V6.82202H1.52762V30.4065H6.99005V31.6937H1.25377C0.691677 31.6937 0.230469 31.236 0.230469 30.6782V6.53597C0.230469 5.97818 0.691677 5.52051 1.25377 5.52051H30.3243C30.8864 5.52051 31.3476 5.97818 31.3476 6.53597V30.6782C31.3332 31.236 30.872 31.6937 30.3099 31.6937Z" fill="#151515"/>
<path d="M30.3252 10.0834H3.45986C3.33015 10.0834 3.21484 9.96894 3.21484 9.84022V8.76755C3.21484 8.63883 3.33015 8.52441 3.45986 8.52441H30.3108C30.4405 8.52441 30.5558 8.63883 30.5558 8.76755V9.84022C30.5558 9.98325 30.455 10.0834 30.3252 10.0834Z" fill="#151515"/>
<path d="M13.9091 3.89H3.45986C3.33015 3.89 3.21484 3.77559 3.21484 3.64687V2.57419C3.21484 2.44547 3.33015 2.33105 3.45986 2.33105H13.9091C14.0388 2.33105 14.1541 2.44547 14.1541 2.57419V3.64687C14.1541 3.77559 14.0532 3.89 13.9091 3.89Z" fill="#151515"/>
<path d="M46.3369 28.6908H43.2958C43.1661 28.6908 43.0508 28.5764 43.0508 28.4476V27.375C43.0508 27.2463 43.1661 27.1318 43.2958 27.1318H46.3369C46.4666 27.1318 46.5819 27.2463 46.5819 27.375V28.4476C46.5819 28.5907 46.4666 28.6908 46.3369 28.6908Z" fill="#151515"/>
<path d="M30.5419 28.6908H16.7489C16.6192 28.6908 16.5039 28.5764 16.5039 28.4476V27.375C16.5039 27.2463 16.6192 27.1318 16.7489 27.1318H30.5419C30.6716 27.1318 30.7869 27.2463 30.7869 27.375V28.4476C30.7869 28.5907 30.6716 28.6908 30.5419 28.6908Z" fill="#151515"/>
<path d="M5.31925 28.6908H1.13955C1.00983 28.6908 0.894531 28.5764 0.894531 28.4476V27.375C0.894531 27.2463 1.00983 27.1318 1.13955 27.1318H5.31925C5.44896 27.1318 5.56426 27.2463 5.56426 27.375V28.4476C5.56426 28.5907 5.46338 28.6908 5.31925 28.6908Z" fill="#151515"/>
<path d="M1.41191 3.89H0.330954C0.20124 3.89 0.0859375 3.77559 0.0859375 3.64687V2.57419C0.0859375 2.44547 0.20124 2.33105 0.330954 2.33105H1.41191C1.54163 2.33105 1.65693 2.44547 1.65693 2.57419V3.64687C1.65693 3.77559 1.55604 3.89 1.41191 3.89Z" fill="#151515"/>
<path d="M13.9082 17.4922L17.3529 14.074C17.7708 13.6592 17.7708 12.987 17.3529 12.5722L15.9692 11.1992L9.31054 17.8069C8.63314 18.4791 9.10876 19.609 10.06 19.609H16.0413L13.9082 17.4922Z" fill="#00B0CE"/>
<path d="M21.8798 17.5205H15.8985L18.0316 19.6372L14.5869 23.0555C14.1689 23.4703 14.1689 24.1425 14.5869 24.5572L15.9705 25.9303L22.6292 19.3226C23.3066 18.6504 22.831 17.5205 21.8798 17.5205Z" fill="#00B0CE"/>
<path d="M11.0105 35.5978C8.47387 35.5978 6.39844 33.5383 6.39844 31.0211C6.39844 28.5039 8.47387 26.4443 11.0105 26.4443C13.5472 26.4443 15.6226 28.5039 15.6226 31.0211C15.6226 33.5383 13.5616 35.5978 11.0105 35.5978ZM11.0105 27.7315C9.1801 27.7315 7.69559 29.2047 7.69559 31.0211C7.69559 32.8375 9.1801 34.3106 11.0105 34.3106C12.8409 34.3106 14.3255 32.8375 14.3255 31.0211C14.3255 29.2047 12.8409 27.7315 11.0105 27.7315Z" fill="#151515"/>
<path d="M11.0244 31.7937C11.4542 31.7937 11.8027 31.4479 11.8027 31.0213C11.8027 30.5948 11.4542 30.249 11.0244 30.249C10.5945 30.249 10.2461 30.5948 10.2461 31.0213C10.2461 31.4479 10.5945 31.7937 11.0244 31.7937Z" fill="#151515"/>
<path d="M37.6316 35.5978C35.095 35.5978 33.0195 33.5383 33.0195 31.0211C33.0195 28.5039 35.095 26.4443 37.6316 26.4443C40.1683 26.4443 42.2437 28.5039 42.2437 31.0211C42.2437 33.5383 40.1683 35.5978 37.6316 35.5978ZM37.6316 27.7315C35.8012 27.7315 34.3167 29.2047 34.3167 31.0211C34.3167 32.8375 35.8012 34.3106 37.6316 34.3106C39.462 34.3106 40.9466 32.8375 40.9466 31.0211C40.9466 29.2047 39.462 27.7315 37.6316 27.7315Z" fill="#151515"/>
<path d="M37.6455 31.7937C38.0753 31.7937 38.4238 31.4479 38.4238 31.0213C38.4238 30.5948 38.0753 30.249 37.6455 30.249C37.2156 30.249 36.8672 30.5948 36.8672 31.0213C36.8672 31.4479 37.2156 31.7937 37.6455 31.7937Z" fill="#151515"/>
<path d="M45.7595 31.6943H41.7527V30.4071H45.5289V22.7697L38.6396 12.186H31.3323V30.3928H33.2924V31.68H30.0352V10.9131H38.7693C39.1296 10.9131 39.4611 11.099 39.6629 11.3994L46.6675 22.1404C46.7828 22.312 46.8404 22.5122 46.8404 22.7125V30.6502C46.826 31.2223 46.3504 31.6943 45.7595 31.6943Z" fill="#151515"/>
<path d="M45.573 22.3689H33.7258C33.3366 22.3689 33.0195 22.0543 33.0195 21.6681V14.7887C33.0195 14.4025 33.3366 14.0879 33.7258 14.0879H40.9898V15.3751H34.3167V21.0817H45.573V22.3689Z" fill="#151515"/>
</svg>
