<svg width="47" height="47" viewBox="0 0 47 47" fill="none" xmlns="http://www.w3.org/2000/svg">
<g clip-path="url(#clip0)">
<path d="M26.7914 45.1196L26.6347 44.3363C22.8747 29.453 16.9214 6.57964 15.5114 4.54298C13.788 2.03631 9.40135 2.50631 9.24469 2.50631C8.77469 2.50631 8.46135 2.19298 8.30469 1.72298C8.30469 1.25298 8.61802 0.939642 9.08802 0.782975C9.24469 0.782975 14.5714 0.312976 16.7647 3.60298C18.6447 6.42297 26.3214 36.8163 27.888 43.083L37.9147 40.4196C38.3847 40.263 38.8547 40.5763 38.8547 41.0463C39.0114 41.5163 38.698 41.9863 38.228 41.9863L26.7914 45.1196Z" fill="#151515"/>
<path d="M20.8372 47.0005C20.2106 47.0005 19.5839 46.8439 18.9572 46.6872C17.7039 46.2172 16.7639 45.2772 16.2939 44.0239C15.8239 42.7705 15.8239 41.5172 16.2939 40.2639C16.7639 39.0105 17.7039 38.0705 18.9572 37.6005C20.2106 37.1305 21.4639 37.1305 22.7172 37.6005C23.9706 38.0705 24.9106 39.0105 25.3806 40.2639C25.8506 41.5172 25.8506 42.7705 25.3806 44.0239C24.9106 45.2772 23.9706 46.2172 22.7172 46.6872C22.0906 46.8439 21.4639 47.0005 20.8372 47.0005ZM20.8372 38.8539C20.3672 38.8539 20.0539 39.0105 19.5839 39.1672C18.8006 39.4805 18.1739 40.1072 17.8606 40.8905C17.5472 41.6739 17.5472 42.6139 17.8606 43.3972C18.1739 44.1805 18.8006 44.8072 19.5839 45.1205C20.3672 45.4339 21.3072 45.4339 22.0906 45.1205C22.8739 44.8072 23.5006 44.1805 23.8139 43.3972C24.1272 42.6139 24.1272 41.6739 23.8139 40.8905C23.5006 40.1072 22.8739 39.4805 22.0906 39.1672C21.6206 39.0105 21.3072 38.8539 20.8372 38.8539Z" fill="#151515"/>
<path d="M20.8345 43.0841C21.3537 43.0841 21.7745 42.6632 21.7745 42.1441C21.7745 41.625 21.3537 41.2041 20.8345 41.2041C20.3154 41.2041 19.8945 41.625 19.8945 42.1441C19.8945 42.6632 20.3154 43.0841 20.8345 43.0841Z" fill="#151515"/>
<path d="M8.77333 2.82L2.35 3.13333C2.19333 3.13333 2.03667 3.13333 1.88 2.97667C1.41 2.66333 0.313333 2.03667 0 1.09667V0.783333C0 0.47 0.313333 0 0.626667 0H8.61667C9.08667 0 9.4 0.47 9.4 0.94L9.24333 2.50667C9.08667 2.66333 8.93 2.82 8.77333 2.82Z" fill="#151515"/>
<path d="M43.7113 26.3203L36.9746 28.2003L39.0113 36.5036L36.9746 36.9736L34.7813 28.827L27.418 30.8636L30.708 42.3003L47.0013 37.757L43.7113 26.3203Z" fill="#00B4D3"/>
<path d="M38.3832 14.7266L31.4898 16.6066L33.6832 24.7532L31.6465 25.3799L29.4532 17.2332L22.0898 19.2699L25.2232 30.7066L41.6732 26.1632L38.3832 14.7266Z" fill="#00B4D3"/>
<path d="M38.537 2.66306L31.487 1.72306L30.2337 10.0264L28.197 9.71306L29.2937 1.40973L21.7737 0.469727L20.207 12.2197L36.9704 14.4131L38.537 2.66306Z" fill="#00B4D3"/>
</g>
<defs>
<clipPath id="clip0">
<rect width="47" height="47" fill="white"/>
</clipPath>
</defs>
</svg>
