<svg width="47" height="47" viewBox="0 0 47 47" fill="none" xmlns="http://www.w3.org/2000/svg">
<path d="M37.4433 27.1036L26.1633 24.2836C25.5367 24.127 25.0667 24.127 24.44 24.127L13.9433 25.3803L4.38667 13.0036C3.91667 12.5336 3.29 12.377 2.66333 12.377H2.50667C1.09667 12.377 0 13.4736 0 14.8836C0 15.667 0.313333 16.2936 0.783333 16.7636L10.6533 29.4536C10.9667 29.767 11.4367 29.9236 11.75 30.237V32.9003C11.75 34.467 13.0033 35.7203 14.57 35.7203C15.04 35.7203 15.51 35.5636 15.98 35.407L20.68 36.347V38.5403H5.01333C3.13333 38.5403 1.56667 40.107 1.56667 41.987C1.56667 42.3003 1.88 42.6136 2.19333 42.6136H36.0333C36.3467 42.6136 36.66 42.3003 36.66 41.987V39.167C36.66 36.9736 35.0933 35.0936 33.0567 34.6236L21.3067 31.9603L18.4867 31.3336L18.9567 30.5503L25.2233 29.9236L36.19 32.9003C36.3467 32.9003 36.66 33.057 36.8167 32.9003C38.2267 32.9003 39.48 31.8036 39.48 30.237V30.0803C39.48 28.5136 38.54 27.417 37.4433 27.1036ZM20.5233 40.8903H3.13333C3.44667 40.107 4.23 39.4803 5.01333 39.4803H20.5233V40.8903ZM21.9333 33.057L32.7433 35.5636C34.1533 35.877 35.0933 36.9736 35.25 38.3836H23.1867V39.7936H35.4067V41.2036H21.9333V33.057ZM15.8233 33.3703C15.51 33.997 14.57 34.3103 13.9433 33.997C13.4733 33.6836 13.16 33.2136 13.16 32.7436V30.5503C13.4733 30.5503 13.9433 30.5503 14.4133 30.5503L17.39 30.237L15.8233 33.3703ZM20.5233 32.7436V34.7803L16.92 34.1536L17.86 32.2736L20.5233 32.7436ZM38.07 29.767C38.07 30.5503 37.4433 31.0203 36.8167 31.0203C36.66 31.0203 36.66 31.0203 36.5033 31.0203L25.38 28.2003C25.2233 28.2003 25.2233 28.2003 25.0667 28.2003L14.1 29.297C13.16 29.4536 12.22 29.1403 11.4367 28.5136L1.56667 15.8236C1.25333 15.3536 1.25333 14.5703 1.72333 14.1003C1.88 13.787 2.35 13.6303 2.66333 13.6303H2.82C3.13333 13.6303 3.44667 13.787 3.60333 13.9436L13.3167 26.6336C13.4733 26.7903 13.63 26.7903 13.7867 26.7903L24.5967 25.537C25.0667 25.537 25.38 25.537 25.85 25.537L37.13 28.357C37.7567 28.5136 38.07 28.9836 38.07 29.6103V29.767Z" fill="#151515"/>
<path d="M15.1952 31.4893H13.7852V32.8993H15.1952V31.4893Z" fill="#151515"/>
<path d="M41.0461 2.34987C40.7328 1.40987 39.9494 0.783203 38.8528 0.783203H24.2828C23.1861 0.783203 22.2461 1.7232 22.2461 2.81987V17.8599H23.6561V2.81987C23.6561 2.50654 23.9694 2.1932 24.2828 2.1932H38.8528C39.3228 2.1932 39.7928 2.6632 39.7928 3.1332C39.7928 3.44654 39.4794 3.91654 39.1661 3.91654L33.0561 5.9532C32.2728 6.26654 31.6461 7.04987 31.6461 7.8332V8.92987C31.0194 9.08654 30.3928 9.39987 29.9228 9.86987C29.2961 8.92987 28.0428 8.61654 27.1028 9.2432C26.4761 9.55654 26.1628 10.3399 26.1628 10.9665V13.0032C26.1628 14.0999 27.1028 15.0399 28.1994 15.0399V13.6299C27.8861 13.6299 27.5728 13.3165 27.5728 13.0032V10.9665C27.5728 10.6532 27.8861 10.3399 28.1994 10.3399C28.5128 10.3399 28.8261 10.6532 28.8261 10.9665V12.3765C28.8261 14.2565 30.3928 15.8232 32.2728 15.8232C34.1528 15.8232 35.7194 14.2565 35.7194 12.3765V10.9665C35.7194 10.6532 36.0328 10.3399 36.3461 10.3399C36.6594 10.3399 36.9728 10.6532 36.9728 10.9665V13.0032C36.9728 13.3165 36.6594 13.6299 36.3461 13.6299V15.0399C37.4428 15.0399 38.3828 14.0999 38.3828 13.0032V10.9665C38.3828 9.86987 37.4428 8.92987 36.3461 8.92987C35.7194 8.92987 34.9361 9.2432 34.6228 9.86987C34.1528 9.39987 33.5261 9.08654 32.8994 8.92987V7.98987C32.8994 7.67654 33.0561 7.51987 33.3694 7.3632L39.4794 5.32654C40.8894 4.85654 41.5161 3.6032 41.0461 2.34987ZM34.4661 12.3765C34.4661 13.4732 33.5261 14.4132 32.4294 14.4132C31.3328 14.4132 30.3928 13.4732 30.3928 12.3765C30.3928 11.2799 31.3328 10.3399 32.4294 10.3399C33.5261 10.3399 34.4661 11.2799 34.4661 12.3765Z" fill="#151515"/>
<path d="M33.2147 11.5938H31.8047V13.0037H33.2147V11.5938Z" fill="#151515"/>
<path d="M24.5956 20.0538H20.5222V18.0171C20.5222 16.9205 19.5822 15.9805 18.4856 15.9805C17.3889 15.9805 16.4489 16.9205 16.4489 18.0171V18.6438H17.8589V18.0171C17.8589 17.7038 18.1722 17.3905 18.4856 17.3905C18.7989 17.3905 19.1122 17.7038 19.1122 18.0171V20.0538H14.2556C13.9422 20.0538 13.6289 20.3671 13.6289 20.6805V21.7771H15.0389V21.3071H24.1256V23.3438H25.5356V20.6805C25.3789 20.3671 25.0656 20.0538 24.5956 20.0538Z" fill="#151515"/>
<path d="M36.3447 46.0596C42.2284 46.0596 46.9981 41.2899 46.9981 35.4063C46.9981 29.5226 42.2284 24.7529 36.3447 24.7529C30.4611 24.7529 25.6914 29.5226 25.6914 35.4063C25.6914 41.2899 30.4611 46.0596 36.3447 46.0596Z" fill="#00B4D3"/>
<path d="M30.2326 35.0927C29.7626 34.466 29.4492 33.6827 29.4492 32.7427C29.4492 32.116 29.6059 31.4894 29.7626 31.0194C30.0759 30.5494 30.3892 30.236 30.8592 29.9227C31.3292 29.6094 31.7992 29.6094 32.4259 29.6094C33.3659 29.6094 33.9926 29.9227 34.6192 30.3927C35.0892 31.0194 35.4026 31.8027 35.4026 32.7427C35.4026 33.6827 35.0892 34.466 34.6192 35.0927C34.1492 35.7194 33.3659 35.876 32.4259 35.876C31.4859 35.876 30.7026 35.7194 30.2326 35.0927ZM39.0059 29.766H41.3559L33.5226 41.2027H31.1726L39.0059 29.766ZM33.0526 33.996C33.2092 33.6827 33.3659 33.3694 33.3659 32.7427C33.3659 32.116 33.2092 31.8027 33.0526 31.4894C32.8959 31.176 32.5826 31.0194 32.4259 31.0194C32.1126 31.0194 31.9559 31.176 31.7992 31.4894C31.3292 31.8027 31.3292 32.2727 31.3292 32.7427C31.3292 33.2127 31.4859 33.6827 31.6426 33.996C31.7992 34.3094 32.1126 34.466 32.2692 34.466C32.5826 34.3094 32.7392 34.3094 33.0526 33.996ZM38.2226 40.4194C37.7526 39.7927 37.4392 39.0094 37.4392 38.0694C37.4392 37.1294 37.7526 36.346 38.2226 35.7194C38.6926 35.0927 39.4759 34.936 40.2592 34.936C41.1992 34.936 41.8259 35.2494 42.4526 35.7194C42.9226 36.346 43.2359 37.1294 43.2359 38.0694C43.2359 39.0094 42.9226 39.7927 42.4526 40.4194C41.9826 41.046 41.1992 41.2027 40.2592 41.2027C39.4759 41.3594 38.6926 41.046 38.2226 40.4194ZM41.0426 39.3227C41.1992 39.0094 41.3559 38.696 41.3559 38.0694C41.3559 37.4427 41.1992 37.1294 41.0426 36.816C40.8859 36.5027 40.5726 36.346 40.4159 36.346C40.2592 36.346 39.9459 36.5027 39.7892 36.816C39.6326 37.1294 39.4759 37.4427 39.4759 38.0694C39.4759 38.696 39.6326 39.0094 39.7892 39.3227C39.9459 39.636 40.2592 39.636 40.4159 39.636C40.5726 39.636 40.8859 39.636 41.0426 39.3227Z" fill="white"/>
</svg>
