<svg width="45" height="45" viewBox="0 0 45 45" fill="none" xmlns="http://www.w3.org/2000/svg">
<g clip-path="url(#clip0)">
<path d="M17.8513 14.1L25.5013 6.45C26.4013 5.55 26.4013 4.05 25.5013 3.15L22.5013 0L7.65127 14.85C6.15127 16.35 7.20127 18.9 9.30127 18.9H22.6513L17.8513 14.1Z" fill="#00B0CE"/>
<path d="M35.7031 14.25H22.3531L27.1531 19.05L19.5031 26.7C18.6031 27.6 18.6031 29.1 19.5031 30L22.6531 33.15L37.5031 18.3C38.8531 16.8 37.8031 14.25 35.7031 14.25Z" fill="#00B0CE"/>
<path d="M42.4507 23.3995C42.4507 23.2495 42.3007 23.0995 42.4507 22.9495C42.6007 22.6495 42.9007 22.1995 42.9007 21.8995C42.9007 21.5995 42.9007 21.1495 42.7507 21.1495C42.7507 21.1495 42.4507 21.2995 42.3007 21.4495C42.0007 21.5995 42.0007 22.0495 42.0007 22.0495C42.0007 22.4995 41.8507 22.7995 41.4007 22.7995C40.9507 22.7995 40.8007 22.7995 40.5007 22.3495C40.5007 22.3495 40.2007 21.2995 40.9507 20.3995C41.8507 19.4995 42.7507 19.4995 43.2007 19.7995C43.9507 20.0995 44.2507 20.9995 44.2507 22.0495C44.2507 22.6495 43.8007 23.3995 43.3507 23.6995C43.0507 23.8495 42.6007 23.6995 42.4507 23.3995Z" fill="#151515"/>
<path d="M42.7547 28.2C42.3047 28.2 42.0047 27.9 42.0047 27.6C42.0047 27.15 42.3047 26.85 42.6047 26.7C42.9047 26.7 43.2047 26.55 43.3547 26.55L43.5047 26.4C43.3547 26.25 43.0547 26.1 42.4547 26.4C41.7047 26.7 41.5547 27 41.4047 27.3C41.2547 27.45 41.1047 27.9 40.5047 27.9H40.2047L40.0547 27.6C39.9047 27.3 39.9047 27 39.9047 26.7C39.9047 26.4 40.0547 25.5 39.9047 25.2C39.7547 24.9 39.4547 24.75 39.3047 24.75V24.9C39.3047 25.2 39.4547 25.35 39.4547 25.35C39.7547 25.65 39.7547 26.1 39.4547 26.4C39.1547 26.7 38.7047 26.7 38.4047 26.4C38.4047 26.4 37.8047 25.8 37.8047 24.9C37.8047 23.85 38.5547 23.4 39.0047 23.25C39.4547 23.1 40.6547 23.25 41.4047 24.6C41.5547 24.75 41.5547 25.05 41.5547 25.35C41.7047 25.2 41.8547 25.2 42.0047 25.2C43.6547 24.6 44.7047 25.5 45.0047 25.95C45.3047 26.55 45.3047 27.3 44.5547 28.05C43.8047 28.05 43.0547 28.2 42.7547 28.2Z" fill="#151515"/>
<path d="M41.1001 32.5496C40.8001 32.5496 40.5001 32.5496 40.5001 32.5496C40.0501 32.5496 39.7501 32.0996 39.9001 31.6496C39.9001 31.1996 40.3501 30.8996 40.8001 31.0496C41.1001 31.0496 41.8501 31.0496 42.1501 30.7496C42.3001 30.5996 42.3001 30.4496 42.3001 30.4496C42.1501 30.2996 41.7001 30.1496 40.8001 30.4496C39.7501 30.7496 39.3001 31.3496 39.1501 31.4996C39.0001 31.6496 38.8501 31.9496 38.4001 31.9496C38.2501 31.9496 37.9501 31.9496 37.8001 31.7996C37.3501 31.3496 37.6501 30.8996 37.6501 30.5996C37.8001 30.2996 38.1001 29.6996 37.8001 28.7996C37.5001 28.1996 37.3501 27.8996 37.0501 27.8996C37.0501 28.0496 37.2001 28.3496 37.2001 28.4996C37.3501 28.9496 37.2001 29.3996 36.9001 29.5496C36.6001 29.6996 36.0001 29.6996 35.8501 29.2496C35.8501 29.2496 35.4001 28.4996 35.5501 27.7496C35.7001 26.8496 36.3001 26.3996 36.7501 26.3996C37.2001 26.2496 38.5501 26.3996 39.3001 28.3496C39.4501 28.6496 39.4501 28.9496 39.4501 29.2496C39.7501 29.0996 40.0501 28.9496 40.3501 28.9496C42.4501 28.3496 43.3501 29.2496 43.5001 29.5496C43.9501 29.9996 44.2501 31.0496 43.3501 32.0996C42.6001 32.5496 41.7001 32.5496 41.1001 32.5496Z" fill="#151515"/>
<path d="M39.1531 37.1996C38.2531 37.1996 37.6531 36.8996 37.5031 36.8996C37.0531 36.7496 36.9031 36.2996 37.0531 35.8496C37.2031 35.3996 37.6531 35.2496 38.1031 35.3996C38.1031 35.3996 39.1531 35.6996 39.9031 35.3996C40.3531 35.2496 40.5031 35.0996 40.5031 34.9496C40.2031 34.7996 39.4531 34.3496 38.4031 34.3496C37.3531 34.3496 36.6031 34.7996 36.1531 35.0996C35.8531 35.2496 35.2531 35.5496 34.8031 35.0996C34.5031 34.6496 34.6531 34.3496 34.6531 34.0496C34.8031 33.7496 35.1031 32.9996 34.8031 32.3996C34.6531 31.7996 34.3531 31.4996 34.2031 31.3496C34.2031 31.4996 34.2031 31.6496 34.3531 31.7996C34.5031 32.2496 34.2031 32.6996 33.9031 32.8496C33.4531 32.9996 33.0031 32.6996 32.8531 32.3996C32.8531 32.2496 32.7031 31.6496 32.7031 31.1996C32.8531 29.9996 33.7531 29.8496 33.9031 29.8496C34.3531 29.8496 35.7031 30.1496 36.3031 32.2496C36.4531 32.6996 36.4531 33.1496 36.4531 33.5996C36.9031 33.4496 37.5031 33.2996 38.2531 33.1496C39.9031 33.1496 41.5531 34.0496 41.8531 34.6496C42.0031 35.2496 42.0031 36.5996 40.3531 37.1996C40.0531 37.0496 39.4531 37.1996 39.1531 37.1996Z" fill="#151515"/>
<path d="M35.4034 41.3996C33.7534 41.3996 32.7034 40.3496 32.7034 40.3496C32.4034 40.0496 32.4034 39.5996 32.7034 39.2996C33.0034 38.9996 33.4534 38.9996 33.7534 39.2996C33.7534 39.2996 34.6534 40.1996 36.0034 39.7496C36.6034 39.5996 36.9034 39.4496 37.0534 39.1496C36.9034 38.8496 36.0034 38.2496 34.8034 37.9496C33.7534 37.7996 32.5534 38.3996 31.9534 38.6996C31.6534 38.8496 31.0534 39.1496 30.6034 38.6996C30.4534 38.5496 30.1534 38.0996 30.7534 37.4996C31.0534 37.1996 31.8034 36.4496 31.6534 35.2496C31.5034 34.3496 31.2034 33.8996 30.9034 33.7496C30.9034 33.8996 30.7534 33.8996 30.6034 34.1996C30.4534 34.6496 30.4534 35.0996 30.4534 35.2496C30.6034 35.6996 30.3034 36.1496 29.8534 36.1496C29.4034 36.2996 28.9534 35.9996 28.9534 35.5496C28.9534 35.3996 28.6534 34.4996 29.1034 33.5996C29.5534 32.5496 30.3034 32.0996 30.7534 32.0996C31.2034 32.0996 32.8534 32.6996 33.0034 35.0996C33.0034 35.6996 33.0034 36.1496 32.8534 36.5996C33.4534 36.4496 34.2034 36.2996 34.9534 36.4496C36.6034 36.7496 38.4034 37.9496 38.5534 38.9996C38.5534 39.4496 38.4034 40.7996 36.3034 41.2496C36.1534 41.3996 35.7034 41.3996 35.4034 41.3996Z" fill="#151515"/>
<path d="M30.1526 44.9993C29.5526 44.9993 28.6526 44.9993 27.7526 44.5493C27.0026 44.2493 26.4026 43.6493 25.9526 43.3493C25.6526 43.6493 25.0526 43.9493 24.4526 44.3993C24.0026 44.5493 23.5526 44.3993 23.4026 44.0993C23.2526 43.6493 23.4026 43.1993 23.7026 43.0493C24.1526 42.7493 24.6026 42.4493 24.9026 42.2993C24.6026 41.8493 23.7026 40.4993 23.8526 38.9993C24.0026 37.6493 24.7526 36.8993 25.2026 36.5993C25.6526 36.2993 26.2526 35.9993 26.5526 36.1493C27.1526 36.2993 28.9526 37.3493 28.6526 39.5993C28.6526 39.8993 28.5026 40.3493 28.5026 40.6493C29.2526 40.4993 30.0026 40.4993 30.6026 40.6493C32.7026 41.2493 33.7526 42.7493 33.7526 43.4993C33.7526 44.5493 31.6526 45.2993 30.6026 45.2993C30.6026 44.9993 30.4526 44.9993 30.1526 44.9993ZM27.3026 42.2993C27.6026 42.5993 28.0526 42.8993 28.5026 43.1993C29.1026 43.4993 30.0026 43.4993 30.4526 43.4993C31.0526 43.4993 31.6526 43.1993 32.1026 43.0493C31.8026 42.7493 31.3526 42.1493 30.3026 41.8493C29.7026 41.5493 28.8026 41.5493 27.3026 42.2993ZM26.5526 37.4993C26.2526 37.6493 25.8026 37.9493 25.6526 38.9993C25.5026 39.8993 26.1026 40.7993 26.2526 41.0993C26.4026 40.9493 27.0026 40.4993 27.1526 38.9993C27.3026 38.0993 26.8526 37.6493 26.5526 37.4993Z" fill="#151515"/>
<path d="M1.49905 23.6999C1.04905 23.3999 0.599053 22.7999 0.599053 22.0499C0.449053 20.9999 0.899053 20.0999 1.64905 19.7999C2.09905 19.6499 3.14905 19.4999 3.89905 20.3999C4.64905 21.2999 4.49905 22.3499 4.49905 22.3499C4.34905 22.7999 4.04905 22.9499 3.59905 22.7999C3.29905 22.7999 2.99905 22.4999 2.99905 22.0499C2.99905 22.0499 2.99905 21.7499 2.84905 21.4499C2.69905 21.2999 2.39905 21.1499 2.39905 21.1499C2.24905 21.1499 2.24905 21.5999 2.24905 21.8999C2.24905 22.1999 2.54905 22.4999 2.69905 22.9499C2.69905 23.0999 2.69905 23.3999 2.69905 23.3999C2.39905 23.6999 1.94905 23.8499 1.49905 23.6999Z" fill="#151515"/>
<path d="M2.24993 28.2C2.69993 28.2 2.99993 27.9 2.99993 27.6C2.99993 27.15 2.69993 26.85 2.39993 26.7C2.09993 26.7 1.79993 26.55 1.64993 26.55L1.49993 26.4C1.64993 26.25 1.94993 26.1 2.54993 26.4C3.29993 26.7 3.44993 27 3.59993 27.3C3.74993 27.45 3.89993 27.9 4.49993 27.9H4.79993L4.94993 27.6C5.09993 27.3 5.09993 27 5.09993 26.7C5.09993 26.4 4.94993 25.5 5.09993 25.2C5.24993 24.9 5.54993 24.75 5.69993 24.75V24.9C5.69993 25.2 5.54993 25.35 5.54993 25.35C5.24993 25.65 5.24993 26.1 5.54993 26.4C5.84993 26.7 6.29993 26.7 6.59993 26.4C6.59993 26.4 7.19993 25.8 7.19993 24.9C7.19993 23.85 6.44993 23.4 5.99993 23.25C5.54993 23.1 4.34993 23.25 3.59993 24.6C3.44993 24.75 3.44993 25.05 3.44993 25.35C3.29993 25.2 3.14993 25.2 2.99993 25.2C1.34993 24.6 0.299926 25.5 -7.41035e-05 25.95C-0.300074 26.55 -0.300074 27.3 0.449926 28.05C1.19993 28.05 1.94993 28.2 2.24993 28.2Z" fill="#151515"/>
<path d="M1.80154 31.9502C0.901541 31.0502 1.20154 30.0002 1.65154 29.4002C1.80154 29.2502 2.85154 28.2002 4.80154 28.8002C5.10154 28.9502 5.40154 28.9502 5.70154 29.1002C5.70154 28.8002 5.85154 28.5002 5.85154 28.2002C6.60154 26.2502 7.95154 26.1002 8.40154 26.2502C8.85154 26.4002 9.45154 26.7002 9.60154 27.6002C9.75154 28.3502 9.30154 28.9502 9.30154 29.1002C9.15154 29.4002 8.55154 29.5502 8.25154 29.4002C7.95154 29.2502 7.80154 28.6502 7.95154 28.3502C7.95154 28.3502 8.10154 28.0502 8.10154 27.7502C7.95154 27.9002 7.65154 28.0502 7.35154 28.6502C7.05154 29.4002 7.35154 30.0002 7.50154 30.4502C7.65154 30.6002 7.80154 31.2002 7.35154 31.6502C7.20154 31.8002 6.90154 31.8002 6.75154 31.8002C6.45154 31.8002 6.15154 31.5002 6.00154 31.3502C5.70154 31.0502 5.40154 30.6002 4.35154 30.3002C3.45154 30.0002 3.00154 30.3002 2.85154 30.3002C2.85154 30.3002 2.85154 30.4502 3.00154 30.6002C3.30154 30.9002 4.05154 30.9002 4.35154 30.9002C4.80154 30.9002 5.25154 31.0502 5.25154 31.5002C5.25154 31.9502 5.10154 32.4002 4.65154 32.4002C4.65154 32.4002 4.35154 32.4002 4.05154 32.4002C3.30154 32.5502 2.40154 32.5502 1.80154 31.9502Z" fill="#151515"/>
<path d="M5.99973 37.1996C6.89973 37.1996 7.49973 36.8996 7.64973 36.8996C8.09973 36.7496 8.24973 36.2996 8.09973 35.8496C7.94973 35.3996 7.49973 35.2496 7.04973 35.3996C7.04973 35.3996 5.99973 35.6996 5.24973 35.3996C4.79973 35.2496 4.64973 35.0996 4.64973 34.9496C4.94973 34.7996 5.69973 34.3496 6.74973 34.3496C7.79973 34.3496 8.54973 34.7996 8.99973 35.0996C9.29973 35.2496 9.89973 35.5496 10.3497 35.0996C10.6497 34.6496 10.4997 34.3496 10.4997 34.0496C10.3497 33.7496 10.0497 32.9996 10.3497 32.3996C10.4997 31.7996 10.7997 31.4996 10.9497 31.3496C10.9497 31.4996 10.9497 31.6496 10.7997 31.7996C10.6497 32.2496 10.9497 32.6996 11.2497 32.8496C11.6997 32.9996 12.1497 32.6996 12.2997 32.3996C12.2997 32.2496 12.4497 31.6496 12.4497 31.1996C12.2997 29.9996 11.3997 29.8496 11.2497 29.8496C10.7997 29.8496 9.44973 30.1496 8.84973 32.2496C8.69973 32.6996 8.69973 33.1496 8.69973 33.5996C8.24973 33.4496 7.64973 33.2996 6.89973 33.1496C5.24973 33.1496 3.59973 34.0496 3.29973 34.6496C3.14973 35.2496 3.14973 36.5996 4.79973 37.1996C4.94973 37.0496 5.54973 37.1996 5.99973 37.1996Z" fill="#151515"/>
<path d="M9.59922 41.4C11.2492 41.4 12.2992 40.35 12.2992 40.35C12.5992 40.05 12.5992 39.6 12.2992 39.3C11.9992 39 11.5492 39 11.2492 39.3C11.2492 39.3 10.3492 40.2 8.99922 39.75C8.39922 39.6 8.09922 39.45 7.94922 39.15C8.09922 39 8.99922 38.4 10.1992 38.1C11.2492 37.95 12.4492 38.55 13.0492 38.85C13.3492 39 13.9492 39.3 14.3992 38.85C14.5492 38.7 14.8492 38.25 14.2492 37.65C13.9492 37.35 13.1992 36.6 13.3492 35.4C13.4992 34.5 13.7992 34.05 14.0992 33.9C14.0992 34.05 14.2492 34.05 14.3992 34.35C14.5492 34.8 14.5492 35.25 14.5492 35.4C14.3992 35.85 14.6992 36.3 15.1492 36.3C15.5992 36.45 16.0492 36.15 16.0492 35.7C16.0492 35.55 16.3492 34.65 15.8992 33.75C15.4492 32.7 14.6992 32.25 14.2492 32.25C13.7992 32.25 12.1492 32.85 11.9992 35.25C11.9992 35.85 11.9992 36.3 12.1492 36.75C11.5492 36.6 10.7992 36.45 10.0492 36.6C8.39922 36.9 6.59922 38.1 6.44922 39.15C6.44922 39.6 6.59922 40.95 8.69922 41.4C8.99922 41.4 9.29922 41.4 9.59922 41.4Z" fill="#151515"/>
<path d="M14.4 44.9996C13.35 44.8496 11.25 44.2496 11.25 43.1996C11.25 42.4496 12.3 40.9496 14.4 40.3496C15 40.1996 15.75 40.1996 16.5 40.3496C16.35 40.0496 16.35 39.7496 16.35 39.2996C16.05 37.0496 17.85 35.9996 18.45 35.8496C18.75 35.8496 19.35 35.9996 19.8 36.2996C20.25 36.7496 21 37.3496 21.15 38.6996C21.3 40.3496 20.55 41.5496 20.1 41.9996C20.4 42.2996 20.85 42.4496 21.3 42.7496C21.75 42.8996 21.75 43.4996 21.6 43.7996C21.45 44.2496 20.85 44.2496 20.55 44.0996C19.95 43.7996 19.35 43.3496 19.05 43.0496C18.6 43.3496 18 43.9496 17.25 44.2496C16.35 44.9996 15.3 44.9996 14.85 44.9996C14.55 44.9996 14.4 44.9996 14.4 44.9996ZM14.7 41.6996C13.65 41.9996 13.05 42.5996 12.9 42.8996C13.2 43.0496 13.8 43.3496 14.55 43.3496C15 43.3496 15.9 43.3496 16.5 43.0496C16.95 42.7496 17.4 42.4496 17.7 42.1496C16.2 41.5496 15.3 41.5496 14.7 41.6996ZM17.7 38.9996C17.85 40.4996 18.45 40.9496 18.6 41.0996C18.9 40.7996 19.35 39.8996 19.2 38.9996C19.05 37.9496 18.6 37.6496 18.3 37.4996C18.15 37.6496 17.7 38.0996 17.7 38.9996Z" fill="#151515"/>
</g>
<defs>
<clipPath id="clip0">
<rect width="45" height="45" fill="white"/>
</clipPath>
</defs>
</svg>
