<svg width="45" height="45" viewBox="0 0 45 45" fill="none" xmlns="http://www.w3.org/2000/svg">
<path d="M7.25748 0.456872C7.25748 0.456872 12.2879 -0.578807 15.395 3.56391C18.502 7.70663 16.8745 11.4055 16.8745 11.4055L35.8126 30.4916C35.8126 30.4916 39.5115 29.6039 42.1747 32.267C44.8378 34.9302 44.8378 38.4811 43.9501 40.2566L40.991 37.2975C40.991 37.2975 40.3992 36.5577 39.5115 36.7057C38.7717 36.7057 38.3279 37.2975 38.1799 37.4454L36.5524 39.0729C36.4044 39.2209 35.9606 40.2566 36.5524 40.9963C37.1442 41.7361 39.9553 44.3993 39.9553 44.3993C39.9553 44.3993 35.9606 46.4706 32.1138 42.9197C29.1547 40.1086 30.0424 36.2618 30.0424 36.2618L11.4002 16.8798C11.4002 16.8798 7.10952 18.9511 2.9668 14.9564C-0.584096 11.5534 0.599538 7.26277 0.599538 7.26277L4.29839 10.9616C4.29839 10.9616 4.74226 11.7014 5.77793 11.7014C6.81361 11.7014 7.25748 11.1096 7.25748 11.1096L11.4002 7.11481C11.4002 7.11481 11.8441 6.523 11.8441 5.63527C11.8441 4.74754 10.9563 4.00777 10.9563 4.00777L7.25748 0.456872Z" fill="#00B4D3"/>
<path d="M28.1241 19.5422L25.4609 16.879L34.6341 7.70582L35.8177 4.59878L40.9961 0.60402C41.292 0.456066 41.7359 0.456066 42.0318 0.751975L44.2511 2.82333C44.547 3.11924 44.695 3.5631 44.3991 4.00697C43.9552 4.74674 40.8482 8.59355 40.5523 9.03741L40.4043 9.18536L37.4452 10.369L28.1241 19.5422ZM27.6803 16.879L28.2721 17.4708L36.5575 9.03741L39.5166 8.00173C40.5523 6.67014 42.1798 4.59878 42.7716 3.71106L41.292 2.37947L37.0014 5.63446L35.8177 8.59355L27.6803 16.879Z" fill="#151515"/>
<path d="M15.3962 23.9814C15.3962 23.9814 15.1003 23.9814 14.8044 24.1294C14.5085 24.2774 13.6207 25.1651 13.3248 25.461C13.0289 25.7569 13.1769 26.4967 13.1769 26.4967C13.1769 26.4967 12.733 26.3487 12.1412 26.4967C11.5494 26.6446 10.9576 27.2364 10.9576 27.2364L1.78441 36.2616C1.4885 36.5575 1.34055 36.8535 1.19259 37.0014C0.304868 38.6289 -0.138994 40.9962 1.78441 42.9196C3.55986 44.843 5.63122 44.695 6.96281 44.2512C7.99849 43.9553 8.59031 43.2155 8.59031 43.2155C8.59031 43.2155 17.7635 34.1903 18.3553 33.4505C18.7991 32.8587 18.5032 31.6751 18.5032 31.6751C18.5032 31.6751 18.7991 31.6751 19.0951 31.6751C19.391 31.6751 19.5389 31.3792 19.5389 31.3792C19.5389 31.3792 20.5746 30.3435 20.7226 30.1955C20.8705 29.8996 20.8705 29.4558 20.8705 29.4558L15.3962 23.9814ZM2.37623 39.6646C1.93236 39.2207 1.93236 38.481 2.37623 38.0371L11.5494 28.8639C11.9933 28.4201 12.733 28.4201 13.1769 28.8639C13.6207 29.3078 13.6207 30.0476 13.1769 30.4914L4.00372 39.6646C3.55986 40.2564 2.82009 40.2564 2.37623 39.6646ZM16.136 33.4505L6.96281 42.6237C6.51895 43.0675 5.77917 43.0675 5.33531 42.6237C4.89145 42.1798 4.89145 41.44 5.33531 40.9962L14.5085 31.823C14.9523 31.3792 15.6921 31.3792 16.136 31.823C16.5798 32.2669 16.5798 33.0066 16.136 33.4505Z" fill="#151515"/>
</svg>
