<svg width="47" height="47" viewBox="0 0 47 47" fill="none" xmlns="http://www.w3.org/2000/svg">
<g clip-path="url(#clip0)">
<path d="M12.8477 47V24.5967L44.3377 26.32V43.8667L12.8477 47ZM14.4143 26.32V45.12L42.771 42.3V27.8867L14.4143 26.32Z" fill="#151515"/>
<path d="M11.9074 46.9996L2.66406 43.8663V26.4763L11.9074 24.7529V46.9996ZM4.23073 42.6129L10.3407 44.6496V26.6329L4.23073 27.7296V42.6129Z" fill="#151515"/>
<path d="M23.5021 4.38667C23.0321 4.38667 22.7188 4.07333 22.7188 3.60333V0.783333C22.7188 0.313333 23.0321 0 23.5021 0C23.9721 0 24.2854 0.313333 24.2854 0.783333V3.60333C24.2854 4.07333 23.9721 4.38667 23.5021 4.38667Z" fill="#151515"/>
<path d="M23.5007 16.1365C23.344 16.1365 23.344 16.1365 23.5007 16.1365C22.5607 16.1365 21.7774 15.6665 21.1507 15.0398C20.2107 14.0998 20.054 12.5331 20.6807 11.4365C21.1507 10.6531 22.0907 10.1831 22.5607 10.0265V7.83314C22.5607 7.36314 22.874 7.0498 23.344 7.0498C23.814 7.0498 24.1274 7.36314 24.1274 7.83314V11.4365H23.344C23.344 11.4365 22.404 11.4365 21.934 12.2198C21.6207 12.6898 21.6207 13.4731 22.0907 13.9431C22.404 14.2565 22.7174 14.4131 23.1874 14.4131C23.6574 14.4131 24.1274 14.2565 24.4407 13.9431C25.0674 13.7865 25.0674 13.1598 25.0674 13.1598C25.0674 12.6898 25.3807 12.3765 25.8507 12.3765C26.3207 12.3765 26.634 12.6898 26.634 13.1598C26.634 13.3165 26.634 14.5698 25.694 15.3531C25.0674 15.8231 24.284 16.1365 23.5007 16.1365Z" fill="#151515"/>
<path d="M25.5366 1.41016H21.4633C21.3066 1.41016 21.3066 1.41016 21.1499 1.56682L19.1133 5.01349C19.1133 5.17016 19.1133 5.17016 19.1133 5.32682L21.1499 8.77349C21.1499 8.93016 21.3066 8.93016 21.4633 8.93016H25.5366C25.6933 8.93016 25.6933 8.93016 25.8499 8.77349L27.8866 5.32682C27.8866 5.17016 27.8866 5.17016 27.8866 5.01349L25.8499 1.56682C25.6933 1.41016 25.5366 1.41016 25.5366 1.41016Z" fill="#00B4D3"/>
<path d="M42.6132 25.6935C42.4565 25.6935 42.2998 25.6935 42.2998 25.5369L23.4998 16.2935L5.16985 25.3802C4.69985 25.5369 4.22985 25.3802 4.07318 25.0669C3.91651 24.5969 4.07318 24.1269 4.38651 23.9702L23.0298 14.7269C23.3432 14.5702 23.4998 14.5702 23.8132 14.7269L42.9265 24.1269C43.3965 24.2835 43.5532 24.7535 43.2398 25.2235C43.0832 25.5369 42.9265 25.6935 42.6132 25.6935Z" fill="#151515"/>
<path d="M33.8395 25.2234C33.6828 25.2234 33.5262 25.2234 33.3695 25.0668L23.4995 16.6068L14.0995 23.9701C13.7862 24.2834 13.1595 24.1268 13.0028 23.8134C12.6895 23.5001 12.8462 22.8734 13.1595 22.7168L23.0295 14.8834C23.3428 14.5701 23.8128 14.5701 24.2828 14.8834L34.6228 23.8134C34.9362 24.1268 34.9362 24.5968 34.7795 24.9101C34.3095 25.2234 34.1528 25.2234 33.8395 25.2234Z" fill="#151515"/>
<path d="M16.293 43.3973V28.8273C16.293 28.3573 16.6063 28.0439 17.0763 28.0439C17.5463 28.0439 17.8596 28.3573 17.8596 28.8273V41.5173L19.2696 41.3606C19.7396 41.3606 20.053 41.6739 20.2096 42.1439C20.2096 42.6139 19.8963 42.9273 19.4263 43.0839L16.293 43.3973Z" fill="#00B4D3"/>
<path d="M21.6211 42.927V29.297C21.6211 28.827 21.9344 28.5137 22.4044 28.5137C22.8744 28.5137 23.1878 28.827 23.1878 29.297V41.2037L24.5978 41.047C25.0678 41.047 25.3811 41.3603 25.5378 41.8303C25.5378 42.3003 25.2244 42.6137 24.7544 42.7703L21.6211 42.927Z" fill="#00B4D3"/>
<path d="M27.1055 42.4572V29.6105C27.1055 29.1405 27.4188 28.8271 27.8888 28.8271C28.3588 28.8271 28.6721 29.1405 28.6721 29.6105V40.7338L30.0821 40.5771C30.5521 40.5771 30.8655 40.8905 31.0221 41.3605C31.0221 41.8305 30.7088 42.1438 30.2388 42.3005L27.1055 42.4572Z" fill="#00B4D3"/>
<path d="M32.4297 41.8301V29.7667C32.4297 29.2967 32.743 28.9834 33.213 28.9834C33.683 28.9834 33.9964 29.2967 33.9964 29.7667V39.9501L35.4064 39.7934C35.8764 39.7934 36.1897 40.1067 36.3464 40.5767C36.3464 41.0467 36.033 41.3601 35.563 41.5167L32.4297 41.8301Z" fill="#00B4D3"/>
<path d="M37.9141 41.3598V30.2365C37.9141 29.7665 38.2274 29.4531 38.6974 29.4531C39.1674 29.4531 39.4807 29.7665 39.4807 30.2365V39.6365L40.8907 39.4798C41.3607 39.4798 41.6741 39.7931 41.8307 40.2631C41.8307 40.7331 41.5174 41.0465 41.0474 41.2031L37.9141 41.3598Z" fill="#00B4D3"/>
</g>
<defs>
<clipPath id="clip0">
<rect width="47" height="47" fill="white"/>
</clipPath>
</defs>
</svg>
