<svg width="79" height="98" fill="none" xmlns="http://www.w3.org/2000/svg"><g clip-path="url(#clip0)" filter="url(#filter0_d)"><path d="M10.03 45.358L4 40.69v-1.013l6.098-.03-.068 5.71z" fill="#BC2727"/><path d="M70.928 93h-57.85a3.265 3.265 0 01-3.265-3.265V6.265A3.265 3.265 0 0113.078 3h42.18l18.935 18.561v68.175A3.264 3.264 0 0170.928 93z" fill="#fff"/><path d="M74.195 21.557v.927H60.048a4.094 4.094 0 01-4.095-4.095V3.927l18.24 17.63z" fill="#DCDCDC"/><path d="M74.195 21.557H59.353a4.094 4.094 0 01-4.094-4.095V3l18.936 18.557z" fill="#F2F2F2"/><path d="M65.24 52.375H18.6a.657.657 0 01-.658-.657v-2.844c0-.363.295-.657.658-.657h46.64c.364 0 .658.294.658.657v2.844a.657.657 0 01-.657.657zm0 8.102H18.6a.657.657 0 01-.658-.658v-2.843c0-.363.295-.658.658-.658h46.64c.364 0 .658.295.658.658v2.843a.657.657 0 01-.657.658zm0 8.1H18.6a.657.657 0 01-.658-.657v-2.844c0-.363.295-.657.658-.657h46.64c.364 0 .658.294.658.657v2.844a.658.658 0 01-.657.657zm0 8.102H18.6a.657.657 0 01-.658-.658v-2.843c0-.363.295-.657.658-.657h46.64c.364 0 .658.294.658.657v2.843a.657.657 0 01-.657.658zm0 8.101H18.6a.657.657 0 01-.658-.657v-2.844c0-.363.295-.657.658-.657h46.64c.364 0 .658.294.658.657v2.844a.657.657 0 01-.657.657z" fill="#E4E5E4"/><path d="M47.209 41.575H9.813v-18.34c0-2.092 1.484-3.787 3.313-3.787h34.082c1.83 0 3.313 1.695 3.313 3.786V37.79c0 2.091-1.483 3.786-3.313 3.786z" fill="#DCDCDC"/><path d="M46.735 40.69H4V22.349a3.786 3.786 0 013.786-3.787h38.95a3.786 3.786 0 013.785 3.787v14.555a3.786 3.786 0 01-3.786 3.786z" fill="#E73B38"/><path d="M18.497 23.94c.774.35 1.37.848 1.788 1.491.417.644.626 1.407.626 2.288 0 .87-.209 1.63-.627 2.278-.418.65-1.013 1.147-1.787 1.492-.774.344-1.686.516-2.736.516h-2.39v3.27h-2.744v-11.86h5.134c1.05 0 1.962.175 2.736.525zm-1.008 5.295c.43-.356.644-.861.644-1.516 0-.667-.215-1.178-.644-1.534-.43-.356-1.057-.533-1.88-.533h-2.237v4.117h2.236c.825 0 1.451-.178 1.88-.534zm5.371-5.82h5.388c1.287 0 2.425.246 3.414.737.988.491 1.756 1.183 2.304 2.076.548.892.822 1.931.822 3.117s-.274 2.226-.822 3.118c-.548.892-1.316 1.584-2.304 2.075-.989.492-2.127.737-3.414.737H22.86v-11.86zm5.252 9.607c1.186 0 2.132-.33 2.838-.991s1.06-1.556 1.06-2.686-.354-2.025-1.06-2.685c-.706-.661-1.652-.992-2.838-.992h-2.507v7.354h2.507zM39.6 25.618v3.134h5.49v2.203H39.6v4.32h-2.745v-11.86h8.963v2.203H39.6z" fill="#fff"/></g><defs><clipPath id="clip0"><path fill="#fff" transform="translate(4 3)" d="M0 0h70.193v90H0z"/></clipPath><filter id="filter0_d" x="0" y="0" width="78.193" height="98" filterUnits="userSpaceOnUse" color-interpolation-filters="sRGB"><feFlood flood-opacity="0" result="BackgroundImageFix"/><feColorMatrix in="SourceAlpha" values="0 0 0 0 0 0 0 0 0 0 0 0 0 0 0 0 0 0 127 0" result="hardAlpha"/><feOffset dy="1"/><feGaussianBlur stdDeviation="2"/><feComposite in2="hardAlpha" operator="out"/><feColorMatrix values="0 0 0 0 0 0 0 0 0 0 0 0 0 0 0 0 0 0 0.15 0"/><feBlend in2="BackgroundImageFix" result="effect1_dropShadow"/><feBlend in="SourceGraphic" in2="effect1_dropShadow" result="shape"/></filter></defs></svg>