<svg width="79" height="98" fill="none" xmlns="http://www.w3.org/2000/svg"><g clip-path="url(#clip0)" filter="url(#filter0_d)"><path d="M10.03 45.358L4 40.69v-1.013l6.099-.03-.068 5.71z" fill="#1C7131"/><path d="M70.928 93h-57.85a3.265 3.265 0 01-3.265-3.265V6.265A3.265 3.265 0 0113.078 3h42.18l18.935 18.561v68.175A3.265 3.265 0 0170.928 93z" fill="#fff"/><path d="M74.193 22.484H60.048a4.094 4.094 0 01-4.094-4.095V3.927l18.24 17.634v.923z" fill="#DCDCDC"/><path d="M74.195 21.557H59.353a4.094 4.094 0 01-4.094-4.095V3l18.936 18.557z" fill="#F2F2F2"/><path d="M65.24 52.375H18.6a.657.657 0 01-.658-.657v-2.844c0-.363.295-.657.658-.657h46.64c.364 0 .658.294.658.657v2.844a.657.657 0 01-.657.657zm0 8.102H18.6a.657.657 0 01-.658-.658v-2.843c0-.363.295-.658.658-.658h46.64c.364 0 .658.295.658.658v2.843a.657.657 0 01-.657.658zm0 8.1H18.6a.657.657 0 01-.658-.657v-2.844c0-.363.295-.657.658-.657h46.64c.364 0 .658.294.658.657v2.844a.657.657 0 01-.657.657zm0 8.102H18.6a.657.657 0 01-.658-.658v-2.843c0-.363.295-.657.658-.657h46.64c.364 0 .658.294.658.657v2.843a.657.657 0 01-.657.658zm0 8.101H18.6a.657.657 0 01-.658-.657v-2.844c0-.363.295-.657.658-.657h46.64c.364 0 .658.294.658.657v2.844a.657.657 0 01-.657.657z" fill="#E4E5E4"/><path d="M46.736 41.575H9.814l-.02-18.34a3.786 3.786 0 013.786-3.787h33.156a3.786 3.786 0 013.786 3.786V37.79a3.786 3.786 0 01-3.786 3.786z" fill="#DCDCDC"/><path d="M46.736 40.69H4V22.349a3.786 3.786 0 013.786-3.787h38.95a3.786 3.786 0 013.786 3.787v14.555a3.786 3.786 0 01-3.786 3.786z" fill="#49AD41"/><path d="M19.953 35.275l-2.863-4.117-2.813 4.117h-3.151l4.388-6.031-4.168-5.829h3.118l2.728 3.846 2.677-3.846h2.965L18.7 29.142l4.422 6.133h-3.169zm4.253-11.86h2.745v9.624h5.947v2.236h-8.692v-11.86zM35.55 35.097c-.875-.254-1.579-.584-2.11-.99l.932-2.068c.508.373 1.113.672 1.813.898.7.227 1.4.34 2.1.34.78 0 1.357-.116 1.73-.348.372-.232.558-.54.558-.924a.883.883 0 00-.33-.703 2.504 2.504 0 00-.847-.449c-.345-.113-.81-.237-1.398-.373-.904-.214-1.643-.429-2.22-.643a3.604 3.604 0 01-1.482-1.034c-.413-.474-.618-1.107-.618-1.897 0-.69.186-1.313.559-1.873.372-.559.934-1.002 1.685-1.33.751-.327 1.67-.491 2.754-.491.756 0 1.496.09 2.22.271a6.56 6.56 0 011.897.78l-.847 2.084c-1.096-.622-2.191-.932-3.287-.932-.768 0-1.336.124-1.703.372-.367.249-.55.576-.55.983 0 .407.211.709.635.907.423.197 1.07.392 1.94.584.903.215 1.643.43 2.22.644a3.68 3.68 0 011.482 1.017c.412.463.618 1.09.618 1.88 0 .678-.19 1.297-.568 1.855-.378.56-.945 1.003-1.702 1.33-.757.328-1.678.492-2.762.492a9.694 9.694 0 01-2.719-.382z" fill="#fff"/></g><defs><clipPath id="clip0"><path fill="#fff" transform="translate(4 3)" d="M0 0h70.193v90H0z"/></clipPath><filter id="filter0_d" x="0" y="0" width="78.193" height="98" filterUnits="userSpaceOnUse" color-interpolation-filters="sRGB"><feFlood flood-opacity="0" result="BackgroundImageFix"/><feColorMatrix in="SourceAlpha" values="0 0 0 0 0 0 0 0 0 0 0 0 0 0 0 0 0 0 127 0" result="hardAlpha"/><feOffset dy="1"/><feGaussianBlur stdDeviation="2"/><feComposite in2="hardAlpha" operator="out"/><feColorMatrix values="0 0 0 0 0 0 0 0 0 0 0 0 0 0 0 0 0 0 0.15 0"/><feBlend in2="BackgroundImageFix" result="effect1_dropShadow"/><feBlend in="SourceGraphic" in2="effect1_dropShadow" result="shape"/></filter></defs></svg>