<svg width="145" height="36" viewBox="0 0 145 36" fill="none" xmlns="http://www.w3.org/2000/svg">
<rect width="145" height="36" rx="4" fill="black"/>
<path d="M46.06 9.34C46.5333 9.44667 46.9033 9.65 47.17 9.95C47.4433 10.25 47.58 10.6133 47.58 11.04C47.58 11.4467 47.4567 11.8033 47.21 12.11C46.9633 12.4167 46.6367 12.65 46.23 12.81C45.8233 12.97 45.3833 13.05 44.91 13.05C44.45 13.05 43.9967 12.97 43.55 12.81C43.11 12.65 42.7167 12.4133 42.37 12.1L42.58 11.74C42.8867 12.0267 43.2367 12.2433 43.63 12.39C44.03 12.53 44.4367 12.6 44.85 12.6C45.2433 12.6 45.61 12.5367 45.95 12.41C46.29 12.2767 46.56 12.09 46.76 11.85C46.96 11.6033 47.06 11.3133 47.06 10.98C47.06 10.5333 46.8867 10.19 46.54 9.95C46.1933 9.70333 45.7067 9.58 45.08 9.58H43.64V9.14H45.06C45.5933 9.14 46.01 9.02667 46.31 8.8C46.61 8.56667 46.76 8.24667 46.76 7.84C46.76 7.38667 46.57 7.03 46.19 6.77C45.8167 6.50333 45.35 6.37 44.79 6.37C44.45 6.37 44.1067 6.42 43.76 6.52C43.42 6.62 43.0933 6.77333 42.78 6.98L42.59 6.55C42.9367 6.33667 43.2967 6.17667 43.67 6.07C44.05 5.96333 44.4267 5.91 44.8 5.91C45.2533 5.91 45.6667 5.98667 46.04 6.14C46.42 6.28667 46.72 6.50333 46.94 6.79C47.1667 7.07 47.28 7.4 47.28 7.78C47.28 8.16 47.17 8.48667 46.95 8.76C46.7367 9.03333 46.44 9.22667 46.06 9.34ZM51.1186 7.74C51.7653 7.74 52.2619 7.90667 52.6086 8.24C52.9553 8.56667 53.1286 9.05 53.1286 9.69V13H52.6486V12.07C52.4819 12.3767 52.2386 12.6167 51.9186 12.79C51.5986 12.9567 51.2153 13.04 50.7686 13.04C50.1886 13.04 49.7286 12.9033 49.3886 12.63C49.0553 12.3567 48.8886 11.9967 48.8886 11.55C48.8886 11.1167 49.0419 10.7667 49.3486 10.5C49.6619 10.2267 50.1586 10.09 50.8386 10.09H52.6286V9.67C52.6286 9.18333 52.4953 8.81333 52.2286 8.56C51.9686 8.30667 51.5853 8.18 51.0786 8.18C50.7319 8.18 50.3986 8.24 50.0786 8.36C49.7653 8.48 49.4986 8.64 49.2786 8.84L49.0286 8.48C49.2886 8.24667 49.6019 8.06667 49.9686 7.94C50.3353 7.80667 50.7186 7.74 51.1186 7.74ZM50.8386 12.63C51.2719 12.63 51.6386 12.53 51.9386 12.33C52.2453 12.13 52.4753 11.84 52.6286 11.46V10.48H50.8486C50.3353 10.48 49.9619 10.5733 49.7286 10.76C49.5019 10.9467 49.3886 11.2033 49.3886 11.53C49.3886 11.87 49.5153 12.14 49.7686 12.34C50.0219 12.5333 50.3786 12.63 50.8386 12.63ZM58.7301 8.23H55.6601V13H55.1601V7.78H58.7301V8.23ZM62.4288 7.74C62.9154 7.74 63.3554 7.85333 63.7488 8.08C64.1421 8.30667 64.4488 8.62 64.6688 9.02C64.8954 9.42 65.0088 9.87667 65.0088 10.39C65.0088 10.9033 64.8954 11.3633 64.6688 11.77C64.4488 12.17 64.1421 12.4833 63.7488 12.71C63.3554 12.93 62.9154 13.04 62.4288 13.04C61.9688 13.04 61.5521 12.9333 61.1788 12.72C60.8054 12.5 60.5154 12.1967 60.3088 11.81V14.94H59.8088V7.78H60.2888V9.01C60.4954 8.61 60.7854 8.3 61.1588 8.08C61.5388 7.85333 61.9621 7.74 62.4288 7.74ZM62.3988 12.59C62.7988 12.59 63.1588 12.4967 63.4788 12.31C63.7988 12.1233 64.0488 11.8633 64.2287 11.53C64.4154 11.1967 64.5088 10.8167 64.5088 10.39C64.5088 9.96333 64.4154 9.58333 64.2287 9.25C64.0488 8.91667 63.7988 8.65667 63.4788 8.47C63.1588 8.28333 62.7988 8.19 62.3988 8.19C61.9988 8.19 61.6388 8.28333 61.3188 8.47C61.0054 8.65667 60.7554 8.91667 60.5688 9.25C60.3888 9.58333 60.2988 9.96333 60.2988 10.39C60.2988 10.8167 60.3888 11.1967 60.5688 11.53C60.7554 11.8633 61.0054 12.1233 61.3188 12.31C61.6388 12.4967 61.9988 12.59 62.3988 12.59ZM70.7382 7.78L68.0582 13.71C67.8582 14.17 67.6249 14.4967 67.3582 14.69C67.0982 14.8833 66.7882 14.98 66.4282 14.98C66.1882 14.98 65.9615 14.94 65.7482 14.86C65.5415 14.78 65.3649 14.6633 65.2182 14.51L65.4682 14.13C65.7349 14.4033 66.0582 14.54 66.4382 14.54C66.6915 14.54 66.9082 14.47 67.0882 14.33C67.2682 14.19 67.4349 13.95 67.5882 13.61L67.8682 12.98L65.5182 7.78H66.0482L68.1382 12.45L70.2282 7.78H70.7382ZM74.1205 10.28C74.5071 10.3533 74.8038 10.5 75.0105 10.72C75.2238 10.9333 75.3305 11.1967 75.3305 11.51C75.3305 11.8167 75.2271 12.0867 75.0205 12.32C74.8205 12.5533 74.5471 12.7333 74.2005 12.86C73.8538 12.9867 73.4771 13.05 73.0705 13.05C72.6971 13.05 72.3305 12.9933 71.9705 12.88C71.6171 12.76 71.3071 12.59 71.0405 12.37L71.2405 12C71.4738 12.2 71.7505 12.3533 72.0705 12.46C72.3971 12.5667 72.7271 12.62 73.0605 12.62C73.5538 12.62 73.9705 12.5167 74.3105 12.31C74.6505 12.0967 74.8205 11.8167 74.8205 11.47C74.8205 11.1633 74.6771 10.9233 74.3905 10.75C74.1105 10.57 73.7305 10.48 73.2505 10.48H72.4105V10.1H73.2305C73.6505 10.1 73.9938 10.0167 74.2605 9.85C74.5338 9.68333 74.6705 9.46 74.6705 9.18C74.6705 8.85333 74.5205 8.60333 74.2205 8.43C73.9271 8.25 73.5505 8.16 73.0905 8.16C72.5038 8.16 71.9505 8.31 71.4305 8.61L71.2805 8.21C71.8671 7.88333 72.4905 7.72 73.1505 7.72C73.7305 7.72 74.2138 7.84667 74.6005 8.1C74.9871 8.34667 75.1805 8.68333 75.1805 9.11C75.1805 9.38333 75.0838 9.62333 74.8905 9.83C74.6971 10.0367 74.4405 10.1867 74.1205 10.28ZM77.0741 7.78H77.5741V12.23L81.2941 7.78H81.7341V13H81.2341V8.55L77.5141 13H77.0741V7.78ZM87.3805 8.23H85.3405V13H84.8405V8.23H82.8005V7.78H87.3805V8.23ZM92.657 10.51H88.167C88.1803 10.9167 88.2836 11.28 88.477 11.6C88.6703 11.9133 88.9303 12.1567 89.257 12.33C89.5903 12.5033 89.9636 12.59 90.377 12.59C90.717 12.59 91.0303 12.53 91.317 12.41C91.6103 12.2833 91.8536 12.1 92.047 11.86L92.337 12.19C92.1103 12.4633 91.8236 12.6733 91.477 12.82C91.137 12.9667 90.767 13.04 90.367 13.04C89.847 13.04 89.3836 12.9267 88.977 12.7C88.5703 12.4733 88.2503 12.16 88.017 11.76C87.7903 11.36 87.677 10.9033 87.677 10.39C87.677 9.88333 87.7836 9.43 87.997 9.03C88.217 8.62333 88.517 8.30667 88.897 8.08C89.277 7.85333 89.7036 7.74 90.177 7.74C90.6503 7.74 91.0736 7.85333 91.447 8.08C91.827 8.3 92.1236 8.61 92.337 9.01C92.557 9.41 92.667 9.86333 92.667 10.37L92.657 10.51ZM90.177 8.18C89.8103 8.18 89.4803 8.26333 89.187 8.43C88.8936 8.59 88.657 8.82 88.477 9.12C88.3036 9.41333 88.2036 9.74667 88.177 10.12H92.177C92.157 9.74667 92.057 9.41333 91.877 9.12C91.697 8.82667 91.4603 8.59667 91.167 8.43C90.8736 8.26333 90.5436 8.18 90.177 8.18ZM99.9591 10.31C100.726 10.4433 101.109 10.8733 101.109 11.6C101.109 12.0533 100.942 12.4 100.609 12.64C100.282 12.88 99.7891 13 99.1291 13H96.8691V7.78H99.0691C99.6491 7.78 100.102 7.89667 100.429 8.13C100.762 8.35667 100.929 8.68333 100.929 9.11C100.929 9.41667 100.842 9.67333 100.669 9.88C100.502 10.08 100.266 10.2233 99.9591 10.31ZM97.3591 10.16H99.0391C99.4857 10.16 99.8291 10.0767 100.069 9.91C100.309 9.73667 100.429 9.49 100.429 9.17C100.429 8.84333 100.309 8.6 100.069 8.44C99.8357 8.27333 99.4924 8.19 99.0391 8.19H97.3591V10.16ZM99.1191 12.59C100.112 12.59 100.609 12.2533 100.609 11.58C100.609 11.2267 100.496 10.9667 100.269 10.8C100.042 10.6333 99.6857 10.55 99.1991 10.55H97.3591V12.59H99.1191Z" fill="white"/>
<path d="M49.816 25.2H43.864L42.632 28H40.984L46.056 16.8H47.64L52.728 28H51.048L49.816 25.2ZM49.256 23.92L46.84 18.432L44.424 23.92H49.256ZM58.6708 19.44C59.4921 19.44 60.2281 19.6213 60.8788 19.984C61.5294 20.3467 62.0361 20.8533 62.3988 21.504C62.7721 22.1547 62.9588 22.9067 62.9588 23.76C62.9588 24.6133 62.7721 25.3707 62.3988 26.032C62.0361 26.6827 61.5294 27.1893 60.8788 27.552C60.2281 27.9147 59.4921 28.096 58.6708 28.096C58.0628 28.096 57.5028 27.9787 56.9908 27.744C56.4894 27.5093 56.0628 27.168 55.7108 26.72V31.104H54.1748V19.52H55.6468V20.864C55.9881 20.3947 56.4201 20.0427 56.9427 19.808C57.4654 19.5627 58.0414 19.44 58.6708 19.44ZM58.5428 26.752C59.0868 26.752 59.5721 26.6293 59.9988 26.384C60.4361 26.128 60.7774 25.776 61.0228 25.328C61.2788 24.8693 61.4068 24.3467 61.4068 23.76C61.4068 23.1733 61.2788 22.656 61.0228 22.208C60.7774 21.7493 60.4361 21.3973 59.9988 21.152C59.5721 20.9067 59.0868 20.784 58.5428 20.784C58.0094 20.784 57.5241 20.912 57.0868 21.168C56.6601 21.4133 56.3188 21.76 56.0628 22.208C55.8174 22.656 55.6948 23.1733 55.6948 23.76C55.6948 24.3467 55.8174 24.8693 56.0628 25.328C56.3081 25.776 56.6494 26.128 57.0868 26.384C57.5241 26.6293 58.0094 26.752 58.5428 26.752ZM69.577 19.44C70.3983 19.44 71.1343 19.6213 71.785 19.984C72.4357 20.3467 72.9423 20.8533 73.305 21.504C73.6783 22.1547 73.865 22.9067 73.865 23.76C73.865 24.6133 73.6783 25.3707 73.305 26.032C72.9423 26.6827 72.4357 27.1893 71.785 27.552C71.1343 27.9147 70.3983 28.096 69.577 28.096C68.969 28.096 68.409 27.9787 67.897 27.744C67.3957 27.5093 66.969 27.168 66.617 26.72V31.104H65.081V19.52H66.553V20.864C66.8943 20.3947 67.3263 20.0427 67.849 19.808C68.3717 19.5627 68.9477 19.44 69.577 19.44ZM69.449 26.752C69.993 26.752 70.4783 26.6293 70.905 26.384C71.3423 26.128 71.6837 25.776 71.929 25.328C72.185 24.8693 72.313 24.3467 72.313 23.76C72.313 23.1733 72.185 22.656 71.929 22.208C71.6837 21.7493 71.3423 21.3973 70.905 21.152C70.4783 20.9067 69.993 20.784 69.449 20.784C68.9157 20.784 68.4303 20.912 67.993 21.168C67.5663 21.4133 67.225 21.76 66.969 22.208C66.7237 22.656 66.601 23.1733 66.601 23.76C66.601 24.3467 66.7237 24.8693 66.969 25.328C67.2143 25.776 67.5557 26.128 67.993 26.384C68.4303 26.6293 68.9157 26.752 69.449 26.752ZM83.7721 28.128C82.9295 28.128 82.1135 28 81.3241 27.744C80.5455 27.4773 79.9321 27.136 79.4841 26.72L80.0761 25.472C80.5028 25.856 81.0468 26.1707 81.7081 26.416C82.3801 26.6507 83.0681 26.768 83.7721 26.768C84.7001 26.768 85.3935 26.6133 85.8521 26.304C86.3108 25.984 86.5401 25.5627 86.5401 25.04C86.5401 24.656 86.4121 24.3467 86.1561 24.112C85.9108 23.8667 85.6015 23.68 85.2281 23.552C84.8655 23.424 84.3481 23.28 83.6761 23.12C82.8335 22.9173 82.1508 22.7147 81.6281 22.512C81.1161 22.3093 80.6735 22 80.3001 21.584C79.9375 21.1573 79.7561 20.5867 79.7561 19.872C79.7561 19.2747 79.9108 18.736 80.2201 18.256C80.5401 17.776 81.0201 17.392 81.6601 17.104C82.3001 16.816 83.0948 16.672 84.0441 16.672C84.7055 16.672 85.3561 16.7573 85.9961 16.928C86.6361 17.0987 87.1855 17.344 87.6441 17.664L87.1161 18.944C86.6468 18.6453 86.1455 18.4213 85.6121 18.272C85.0788 18.112 84.5561 18.032 84.0441 18.032C83.1375 18.032 82.4548 18.1973 81.9961 18.528C81.5481 18.8587 81.3241 19.2853 81.3241 19.808C81.3241 20.192 81.4521 20.5067 81.7081 20.752C81.9641 20.9867 82.2788 21.1733 82.6521 21.312C83.0361 21.44 83.5535 21.5787 84.2041 21.728C85.0468 21.9307 85.7241 22.1333 86.2361 22.336C86.7481 22.5387 87.1855 22.848 87.5481 23.264C87.9215 23.68 88.1081 24.24 88.1081 24.944C88.1081 25.5307 87.9481 26.0693 87.6281 26.56C87.3081 27.04 86.8228 27.424 86.1721 27.712C85.5215 27.9893 84.7215 28.128 83.7721 28.128ZM94.9896 27.504C94.7656 27.696 94.4883 27.8453 94.1576 27.952C93.827 28.048 93.4856 28.096 93.1336 28.096C92.2803 28.096 91.619 27.8667 91.1496 27.408C90.6803 26.9493 90.4456 26.2933 90.4456 25.44V20.784H89.0056V19.52H90.4456V17.664H91.9816V19.52H94.4136V20.784H91.9816V25.376C91.9816 25.8347 92.0936 26.1867 92.3176 26.432C92.5523 26.6773 92.883 26.8 93.3096 26.8C93.779 26.8 94.179 26.6667 94.5096 26.4L94.9896 27.504ZM100.197 28.096C99.3547 28.096 98.5974 27.9093 97.9254 27.536C97.2534 27.1627 96.7254 26.6507 96.3414 26C95.968 25.3387 95.7814 24.592 95.7814 23.76C95.7814 22.928 95.968 22.1867 96.3414 21.536C96.7254 20.8747 97.2534 20.3627 97.9254 20C98.5974 19.6267 99.3547 19.44 100.197 19.44C101.04 19.44 101.792 19.6267 102.453 20C103.125 20.3627 103.648 20.8747 104.021 21.536C104.405 22.1867 104.597 22.928 104.597 23.76C104.597 24.592 104.405 25.3387 104.021 26C103.648 26.6507 103.125 27.1627 102.453 27.536C101.792 27.9093 101.04 28.096 100.197 28.096ZM100.197 26.752C100.741 26.752 101.227 26.6293 101.653 26.384C102.091 26.128 102.432 25.776 102.677 25.328C102.923 24.8693 103.045 24.3467 103.045 23.76C103.045 23.1733 102.923 22.656 102.677 22.208C102.432 21.7493 102.091 21.3973 101.653 21.152C101.227 20.9067 100.741 20.784 100.197 20.784C99.6534 20.784 99.1627 20.9067 98.7254 21.152C98.2987 21.3973 97.9574 21.7493 97.7014 22.208C97.456 22.656 97.3334 23.1733 97.3334 23.76C97.3334 24.3467 97.456 24.8693 97.7014 25.328C97.9574 25.776 98.2987 26.128 98.7254 26.384C99.1627 26.6293 99.6534 26.752 100.197 26.752ZM108.194 20.944C108.46 20.4533 108.855 20.08 109.378 19.824C109.9 19.568 110.535 19.44 111.282 19.44V20.928C111.196 20.9173 111.079 20.912 110.93 20.912C110.098 20.912 109.442 21.1627 108.962 21.664C108.492 22.1547 108.258 22.8587 108.258 23.776V28H106.722V19.52H108.194V20.944ZM120.761 23.808C120.761 23.9253 120.75 24.08 120.729 24.272H113.849C113.945 25.0187 114.27 25.6213 114.825 26.08C115.39 26.528 116.089 26.752 116.921 26.752C117.934 26.752 118.75 26.4107 119.369 25.728L120.217 26.72C119.833 27.168 119.353 27.5093 118.777 27.744C118.211 27.9787 117.577 28.096 116.873 28.096C115.977 28.096 115.182 27.9147 114.489 27.552C113.795 27.1787 113.257 26.6613 112.873 26C112.499 25.3387 112.313 24.592 112.313 23.76C112.313 22.9387 112.494 22.1973 112.857 21.536C113.23 20.8747 113.737 20.3627 114.377 20C115.027 19.6267 115.758 19.44 116.569 19.44C117.379 19.44 118.099 19.6267 118.729 20C119.369 20.3627 119.865 20.8747 120.217 21.536C120.579 22.1973 120.761 22.9547 120.761 23.808ZM116.569 20.736C115.833 20.736 115.214 20.96 114.713 21.408C114.222 21.856 113.934 22.4427 113.849 23.168H119.289C119.203 22.4533 118.91 21.872 118.409 21.424C117.918 20.9653 117.305 20.736 116.569 20.736Z" fill="white"/>
<path d="M11.9278 14.0875C10.0679 17.3151 11.2503 22.213 13.307 25.1828C14.3337 26.6675 15.3731 28.0003 16.7967 28.0003C16.8236 28.0003 16.8505 27.9998 16.878 27.9987C17.5469 27.972 18.0303 27.7661 18.4976 27.5671C19.0223 27.3435 19.5649 27.1123 20.4161 27.1123C21.2258 27.1123 21.7426 27.3359 22.2423 27.5522C22.7348 27.7653 23.2421 27.9857 23.9917 27.9716C25.5953 27.9418 26.5799 26.5036 27.4486 25.2349C28.355 23.9102 28.8098 22.6241 28.9632 22.1326L28.9694 22.113C28.9986 22.0257 28.9573 21.9303 28.8736 21.8918C28.8713 21.8908 28.8628 21.8872 28.8604 21.8862C28.578 21.7707 26.1009 20.6718 26.0748 17.6766C26.0507 15.2432 27.9331 13.9546 28.3107 13.721L28.3283 13.7101C28.3692 13.6838 28.3977 13.642 28.4073 13.5942C28.417 13.5466 28.4069 13.4969 28.3795 13.4568C27.0801 11.5553 25.0886 11.2687 24.2868 11.2343C24.1704 11.2226 24.0503 11.2168 23.9297 11.2168C22.988 11.2168 22.0858 11.5725 21.3611 11.8583C20.8608 12.0555 20.4286 12.2259 20.1306 12.2259C19.7957 12.2259 19.3611 12.0534 18.8578 11.8538C18.1848 11.5867 17.422 11.284 16.6145 11.284C16.5953 11.284 16.5763 11.2842 16.5576 11.2846C14.6801 11.3122 12.9059 12.3864 11.9278 14.0875Z" fill="white"/>
<path d="M24.2884 6.00014C23.1514 6.04645 21.7875 6.74634 20.9723 7.70121C20.2794 8.50381 19.6026 9.84199 19.7809 11.1908C19.7921 11.2752 19.8608 11.3404 19.9457 11.3469C20.0224 11.3529 20.1008 11.3559 20.1788 11.356C21.2906 11.356 22.4899 10.741 23.3089 9.7506C24.171 8.70484 24.6069 7.36277 24.475 6.16063C24.4646 6.06643 24.3817 5.99646 24.2884 6.00014Z" fill="white"/>
</svg>
