<svg width="145" height="36" viewBox="0 0 145 36" fill="none" xmlns="http://www.w3.org/2000/svg">
<rect width="145" height="36" rx="4" fill="black"/>
<path d="M45.49 12.54V14.6H45V13H38.6L38.59 14.6H38.1L38.11 12.54H38.49C38.95 12.5 39.27 12.1133 39.45 11.38C39.6367 10.6467 39.75 9.62 39.79 8.3L39.86 6H44.41V12.54H45.49ZM40.26 8.34C40.22 9.47333 40.13 10.4 39.99 11.12C39.8567 11.84 39.6267 12.3133 39.3 12.54H43.9V6.46H40.32L40.26 8.34ZM48.8553 13.04C48.362 13.04 47.9153 12.9267 47.5153 12.7C47.122 12.4733 46.812 12.16 46.5853 11.76C46.3586 11.3533 46.2453 10.8967 46.2453 10.39C46.2453 9.88333 46.3586 9.43 46.5853 9.03C46.812 8.62333 47.122 8.30667 47.5153 8.08C47.9153 7.85333 48.362 7.74 48.8553 7.74C49.3486 7.74 49.792 7.85333 50.1853 8.08C50.5853 8.30667 50.8986 8.62333 51.1253 9.03C51.352 9.43 51.4653 9.88333 51.4653 10.39C51.4653 10.8967 51.352 11.3533 51.1253 11.76C50.8986 12.16 50.5853 12.4733 50.1853 12.7C49.792 12.9267 49.3486 13.04 48.8553 13.04ZM48.8553 12.59C49.2553 12.59 49.612 12.4967 49.9253 12.31C50.2453 12.1233 50.4953 11.8633 50.6753 11.53C50.862 11.1967 50.9553 10.8167 50.9553 10.39C50.9553 9.96333 50.862 9.58333 50.6753 9.25C50.4953 8.91667 50.2453 8.65667 49.9253 8.47C49.612 8.28333 49.2553 8.19 48.8553 8.19C48.4553 8.19 48.0953 8.28333 47.7753 8.47C47.462 8.65667 47.212 8.91667 47.0253 9.25C46.8453 9.58333 46.7553 9.96333 46.7553 10.39C46.7553 10.8167 46.8453 11.1967 47.0253 11.53C47.212 11.8633 47.462 12.1233 47.7753 12.31C48.0953 12.4967 48.4553 12.59 48.8553 12.59ZM55.2037 13.04C54.697 13.04 54.2437 12.9267 53.8437 12.7C53.4437 12.4733 53.1303 12.16 52.9037 11.76C52.677 11.3533 52.5637 10.8967 52.5637 10.39C52.5637 9.87667 52.677 9.42 52.9037 9.02C53.1303 8.61333 53.4437 8.3 53.8437 8.08C54.2437 7.85333 54.697 7.74 55.2037 7.74C55.6237 7.74 56.0037 7.82333 56.3437 7.99C56.6903 8.15 56.9703 8.38667 57.1837 8.7L56.8137 8.97C56.627 8.71 56.3937 8.51667 56.1137 8.39C55.8403 8.25667 55.537 8.19 55.2037 8.19C54.797 8.19 54.4303 8.28333 54.1037 8.47C53.7837 8.65 53.5303 8.90667 53.3437 9.24C53.1637 9.57333 53.0737 9.95667 53.0737 10.39C53.0737 10.8233 53.1637 11.2067 53.3437 11.54C53.5303 11.8733 53.7837 12.1333 54.1037 12.32C54.4303 12.5 54.797 12.59 55.2037 12.59C55.537 12.59 55.8403 12.5267 56.1137 12.4C56.3937 12.2667 56.627 12.07 56.8137 11.81L57.1837 12.08C56.9703 12.3933 56.6903 12.6333 56.3437 12.8C56.0037 12.96 55.6237 13.04 55.2037 13.04ZM62.0329 8.23H59.9929V13H59.4929V8.23H57.4529V7.78H62.0329V8.23ZM67.3632 7.78L64.6832 13.71C64.4832 14.17 64.2499 14.4967 63.9832 14.69C63.7232 14.8833 63.4132 14.98 63.0532 14.98C62.8132 14.98 62.5865 14.94 62.3732 14.86C62.1665 14.78 61.9899 14.6633 61.8432 14.51L62.0932 14.13C62.3599 14.4033 62.6832 14.54 63.0632 14.54C63.3165 14.54 63.5332 14.47 63.7132 14.33C63.8932 14.19 64.0599 13.95 64.2132 13.61L64.4932 12.98L62.1432 7.78H62.6732L64.7632 12.45L66.8532 7.78H67.3632ZM73.1322 7.78V13H72.6322V8.23H69.0722V13H68.5722V7.78H73.1322ZM75.2909 7.78H75.7909V10.16H79.3309V7.78H79.8309V13H79.3309V10.6H75.7909V13H75.2909V7.78ZM84.0702 13.04C83.5768 13.04 83.1302 12.9267 82.7302 12.7C82.3368 12.4733 82.0268 12.16 81.8002 11.76C81.5735 11.3533 81.4602 10.8967 81.4602 10.39C81.4602 9.88333 81.5735 9.43 81.8002 9.03C82.0268 8.62333 82.3368 8.30667 82.7302 8.08C83.1302 7.85333 83.5768 7.74 84.0702 7.74C84.5635 7.74 85.0068 7.85333 85.4002 8.08C85.8002 8.30667 86.1135 8.62333 86.3402 9.03C86.5668 9.43 86.6802 9.88333 86.6802 10.39C86.6802 10.8967 86.5668 11.3533 86.3402 11.76C86.1135 12.16 85.8002 12.4733 85.4002 12.7C85.0068 12.9267 84.5635 13.04 84.0702 13.04ZM84.0702 12.59C84.4702 12.59 84.8268 12.4967 85.1402 12.31C85.4602 12.1233 85.7102 11.8633 85.8902 11.53C86.0768 11.1967 86.1702 10.8167 86.1702 10.39C86.1702 9.96333 86.0768 9.58333 85.8902 9.25C85.7102 8.91667 85.4602 8.65667 85.1402 8.47C84.8268 8.28333 84.4702 8.19 84.0702 8.19C83.6702 8.19 83.3102 8.28333 82.9902 8.47C82.6768 8.65667 82.4268 8.91667 82.2402 9.25C82.0602 9.58333 81.9702 9.96333 81.9702 10.39C81.9702 10.8167 82.0602 11.1967 82.2402 11.53C82.4268 11.8633 82.6768 12.1233 82.9902 12.31C83.3102 12.4967 83.6702 12.59 84.0702 12.59ZM93.9669 10.31C94.7335 10.4433 95.1169 10.8733 95.1169 11.6C95.1169 12.0533 94.9502 12.4 94.6169 12.64C94.2902 12.88 93.7969 13 93.1369 13H90.8769V7.78H93.0769C93.6569 7.78 94.1102 7.89667 94.4369 8.13C94.7702 8.35667 94.9369 8.68333 94.9369 9.11C94.9369 9.41667 94.8502 9.67333 94.6769 9.88C94.5102 10.08 94.2735 10.2233 93.9669 10.31ZM91.3669 10.16H93.0469C93.4935 10.16 93.8369 10.0767 94.0769 9.91C94.3169 9.73667 94.4369 9.49 94.4369 9.17C94.4369 8.84333 94.3169 8.6 94.0769 8.44C93.8435 8.27333 93.5002 8.19 93.0469 8.19H91.3669V10.16ZM93.1269 12.59C94.1202 12.59 94.6169 12.2533 94.6169 11.58C94.6169 11.2267 94.5035 10.9667 94.2769 10.8C94.0502 10.6333 93.6935 10.55 93.2069 10.55H91.3669V12.59H93.1269Z" fill="white"/>
<path d="M46.44 22.336H47.976V26.704C47.4213 27.1627 46.776 27.5147 46.04 27.76C45.304 28.0053 44.536 28.128 43.736 28.128C42.6053 28.128 41.5867 27.8827 40.68 27.392C39.7733 26.8907 39.0587 26.208 38.536 25.344C38.024 24.4693 37.768 23.488 37.768 22.4C37.768 21.312 38.024 20.3307 38.536 19.456C39.0587 18.5813 39.7733 17.8987 40.68 17.408C41.5973 16.9173 42.6267 16.672 43.768 16.672C44.664 16.672 45.4747 16.8213 46.2 17.12C46.936 17.408 47.56 17.8347 48.072 18.4L47.08 19.392C46.184 18.528 45.1013 18.096 43.832 18.096C42.9787 18.096 42.2107 18.2827 41.528 18.656C40.856 19.0187 40.328 19.5307 39.944 20.192C39.56 20.8427 39.368 21.5787 39.368 22.4C39.368 23.2107 39.56 23.9467 39.944 24.608C40.328 25.2587 40.856 25.7707 41.528 26.144C42.2107 26.5173 42.9733 26.704 43.816 26.704C44.8187 26.704 45.6933 26.464 46.44 25.984V22.336ZM54.4474 28.096C53.6047 28.096 52.8474 27.9093 52.1754 27.536C51.5034 27.1627 50.9754 26.6507 50.5914 26C50.218 25.3387 50.0314 24.592 50.0314 23.76C50.0314 22.928 50.218 22.1867 50.5914 21.536C50.9754 20.8747 51.5034 20.3627 52.1754 20C52.8474 19.6267 53.6047 19.44 54.4474 19.44C55.29 19.44 56.042 19.6267 56.7034 20C57.3754 20.3627 57.898 20.8747 58.2714 21.536C58.6554 22.1867 58.8474 22.928 58.8474 23.76C58.8474 24.592 58.6554 25.3387 58.2714 26C57.898 26.6507 57.3754 27.1627 56.7034 27.536C56.042 27.9093 55.29 28.096 54.4474 28.096ZM54.4474 26.752C54.9914 26.752 55.4767 26.6293 55.9034 26.384C56.3407 26.128 56.682 25.776 56.9274 25.328C57.1727 24.8693 57.2954 24.3467 57.2954 23.76C57.2954 23.1733 57.1727 22.656 56.9274 22.208C56.682 21.7493 56.3407 21.3973 55.9034 21.152C55.4767 20.9067 54.9914 20.784 54.4474 20.784C53.9034 20.784 53.4127 20.9067 52.9754 21.152C52.5487 21.3973 52.2074 21.7493 51.9514 22.208C51.706 22.656 51.5834 23.1733 51.5834 23.76C51.5834 24.3467 51.706 24.8693 51.9514 25.328C52.2074 25.776 52.5487 26.128 52.9754 26.384C53.4127 26.6293 53.9034 26.752 54.4474 26.752ZM64.6036 28.096C63.761 28.096 63.0036 27.9093 62.3316 27.536C61.6596 27.1627 61.1316 26.6507 60.7476 26C60.3743 25.3387 60.1876 24.592 60.1876 23.76C60.1876 22.928 60.3743 22.1867 60.7476 21.536C61.1316 20.8747 61.6596 20.3627 62.3316 20C63.0036 19.6267 63.761 19.44 64.6036 19.44C65.4463 19.44 66.1983 19.6267 66.8596 20C67.5316 20.3627 68.0543 20.8747 68.4276 21.536C68.8116 22.1867 69.0036 22.928 69.0036 23.76C69.0036 24.592 68.8116 25.3387 68.4276 26C68.0543 26.6507 67.5316 27.1627 66.8596 27.536C66.1983 27.9093 65.4463 28.096 64.6036 28.096ZM64.6036 26.752C65.1476 26.752 65.633 26.6293 66.0596 26.384C66.497 26.128 66.8383 25.776 67.0836 25.328C67.329 24.8693 67.4516 24.3467 67.4516 23.76C67.4516 23.1733 67.329 22.656 67.0836 22.208C66.8383 21.7493 66.497 21.3973 66.0596 21.152C65.633 20.9067 65.1476 20.784 64.6036 20.784C64.0596 20.784 63.569 20.9067 63.1316 21.152C62.705 21.3973 62.3636 21.7493 62.1076 22.208C61.8623 22.656 61.7396 23.1733 61.7396 23.76C61.7396 24.3467 61.8623 24.8693 62.1076 25.328C62.3636 25.776 62.705 26.128 63.1316 26.384C63.569 26.6293 64.0596 26.752 64.6036 26.752ZM79.2399 19.52V26.848C79.2399 28.3307 78.8719 29.424 78.1359 30.128C77.3999 30.8427 76.3012 31.2 74.8399 31.2C74.0399 31.2 73.2772 31.088 72.5519 30.864C71.8265 30.6507 71.2399 30.3413 70.7919 29.936L71.5279 28.752C71.9225 29.0933 72.4079 29.36 72.9839 29.552C73.5705 29.7547 74.1732 29.856 74.7919 29.856C75.7839 29.856 76.5145 29.6213 76.9839 29.152C77.4639 28.6827 77.7039 27.968 77.7039 27.008V26.336C77.3412 26.7733 76.8932 27.104 76.3599 27.328C75.8372 27.5413 75.2665 27.648 74.6479 27.648C73.8372 27.648 73.1012 27.4773 72.4399 27.136C71.7892 26.784 71.2772 26.2987 70.9039 25.68C70.5305 25.0507 70.3439 24.336 70.3439 23.536C70.3439 22.736 70.5305 22.0267 70.9039 21.408C71.2772 20.7787 71.7892 20.2933 72.4399 19.952C73.1012 19.6107 73.8372 19.44 74.6479 19.44C75.2879 19.44 75.8799 19.5573 76.4239 19.792C76.9785 20.0267 77.4319 20.3733 77.7839 20.832V19.52H79.2399ZM74.8239 26.304C75.3785 26.304 75.8745 26.1867 76.3119 25.952C76.7599 25.7173 77.1065 25.392 77.3519 24.976C77.6079 24.5493 77.7359 24.0693 77.7359 23.536C77.7359 22.7147 77.4639 22.0533 76.9199 21.552C76.3759 21.04 75.6772 20.784 74.8239 20.784C73.9599 20.784 73.2559 21.04 72.7119 21.552C72.1679 22.0533 71.8959 22.7147 71.8959 23.536C71.8959 24.0693 72.0185 24.5493 72.2639 24.976C72.5199 25.392 72.8665 25.7173 73.3039 25.952C73.7519 26.1867 74.2585 26.304 74.8239 26.304ZM82.1748 16.128H83.7108V28H82.1748V16.128ZM94.3075 23.808C94.3075 23.9253 94.2968 24.08 94.2755 24.272H87.3955C87.4915 25.0187 87.8168 25.6213 88.3715 26.08C88.9368 26.528 89.6355 26.752 90.4675 26.752C91.4808 26.752 92.2968 26.4107 92.9155 25.728L93.7635 26.72C93.3795 27.168 92.8995 27.5093 92.3235 27.744C91.7582 27.9787 91.1235 28.096 90.4195 28.096C89.5235 28.096 88.7288 27.9147 88.0355 27.552C87.3422 27.1787 86.8035 26.6613 86.4195 26C86.0462 25.3387 85.8595 24.592 85.8595 23.76C85.8595 22.9387 86.0408 22.1973 86.4035 21.536C86.7768 20.8747 87.2835 20.3627 87.9235 20C88.5742 19.6267 89.3048 19.44 90.1155 19.44C90.9262 19.44 91.6462 19.6267 92.2755 20C92.9155 20.3627 93.4115 20.8747 93.7635 21.536C94.1262 22.1973 94.3075 22.9547 94.3075 23.808ZM90.1155 20.736C89.3795 20.736 88.7608 20.96 88.2595 21.408C87.7688 21.856 87.4808 22.4427 87.3955 23.168H92.8355C92.7502 22.4533 92.4568 21.872 91.9555 21.424C91.4648 20.9653 90.8515 20.736 90.1155 20.736ZM105.329 16.8C106.78 16.8 107.921 17.1467 108.753 17.84C109.585 18.5333 110.001 19.488 110.001 20.704C110.001 21.92 109.585 22.8747 108.753 23.568C107.921 24.2613 106.78 24.608 105.329 24.608H102.561V28H100.961V16.8H105.329ZM105.281 23.216C106.295 23.216 107.068 23.0027 107.601 22.576C108.135 22.1387 108.401 21.5147 108.401 20.704C108.401 19.8933 108.135 19.2747 107.601 18.848C107.068 18.4107 106.295 18.192 105.281 18.192H102.561V23.216H105.281ZM112.284 16.128H113.82V28H112.284V16.128ZM119.841 19.44C121.014 19.44 121.91 19.728 122.529 20.304C123.158 20.88 123.473 21.7387 123.473 22.88V28H122.017V26.88C121.761 27.2747 121.393 27.5787 120.913 27.792C120.444 27.9947 119.884 28.096 119.233 28.096C118.284 28.096 117.521 27.8667 116.945 27.408C116.38 26.9493 116.097 26.3467 116.097 25.6C116.097 24.8533 116.369 24.256 116.913 23.808C117.457 23.3493 118.321 23.12 119.505 23.12H121.937V22.816C121.937 22.1547 121.745 21.648 121.361 21.296C120.977 20.944 120.412 20.768 119.665 20.768C119.164 20.768 118.673 20.8533 118.193 21.024C117.713 21.184 117.308 21.4027 116.977 21.68L116.337 20.528C116.774 20.176 117.297 19.9093 117.905 19.728C118.513 19.536 119.158 19.44 119.841 19.44ZM119.489 26.912C120.076 26.912 120.582 26.784 121.009 26.528C121.436 26.2613 121.745 25.888 121.937 25.408V24.224H119.569C118.268 24.224 117.617 24.6613 117.617 25.536C117.617 25.9627 117.782 26.2987 118.113 26.544C118.444 26.7893 118.902 26.912 119.489 26.912ZM133.663 19.52L129.551 28.848C129.188 29.712 128.762 30.32 128.271 30.672C127.791 31.024 127.21 31.2 126.527 31.2C126.111 31.2 125.706 31.1307 125.311 30.992C124.927 30.864 124.607 30.672 124.351 30.416L125.007 29.264C125.444 29.68 125.951 29.888 126.527 29.888C126.9 29.888 127.21 29.7867 127.455 29.584C127.711 29.392 127.94 29.056 128.143 28.576L128.415 27.984L124.671 19.52H126.271L129.231 26.304L132.159 19.52H133.663Z" fill="white"/>
<path d="M20.08 17.6021L9.76 27.2755C9.26667 26.838 9 26.2381 9 25.5882V10.4158C9 9.75343 9.28 9.15354 9.78667 8.70361L20.08 17.6021Z" fill="#2196F3"/>
<path d="M29 18.0011C29 18.8759 28.4933 19.6508 27.6533 20.0882L24.72 21.613L21.08 18.4635L20.08 17.6011L23.9333 13.9893L27.6533 15.9139C28.4933 16.3514 29 17.1262 29 18.0011Z" fill="#FFC107"/>
<path d="M20.0799 17.6017L9.78662 8.70326C9.91995 8.57828 10.0933 8.4658 10.2666 8.36582C11.1066 7.8909 12.12 7.8784 12.9866 8.32832L23.9333 13.9899L20.0799 17.6017Z" fill="#4CAF50"/>
<path d="M24.72 21.6134L12.9867 27.6748C12.5733 27.8998 12.1067 27.9998 11.6533 27.9998C11.1733 27.9998 10.6933 27.8873 10.2667 27.6374C10.08 27.5374 9.90668 27.4124 9.76001 27.2749L20.08 17.6016L21.08 18.4639L24.72 21.6134Z" fill="#F44336"/>
</svg>
