<svg width="24" height="21" viewBox="0 0 24 21" fill="none" xmlns="http://www.w3.org/2000/svg">
<path d="M17.2193 10.3023C17.0782 8.04479 15.6158 6.14359 13.6064 5.34747C13.522 4.25989 12.6136 3.40198 11.5034 3.40198C10.3931 3.40198 9.48476 4.25989 9.4003 5.34747C7.39096 6.14359 5.92849 8.04479 5.7874 10.3023V14.2253C5.7874 14.2253 4.44852 16.5848 4.34553 17.0997C4.24254 17.6147 4.75749 17.8207 4.75749 17.8207H18.0433C18.0433 17.8207 18.7642 17.7177 18.6612 17.0997C18.5541 16.4571 17.2193 14.2283 17.2193 14.2283V10.3023Z" fill="#C0C0C0"/>
<path d="M8.51575 19.1595C9.11206 20.1441 10.2264 20.8074 11.5035 20.8074C12.7806 20.8074 13.8939 20.1441 14.4913 19.1595H8.51575Z" fill="#C0C0C0"/>
<path d="M17.4253 2.98995C17.4253 2.98995 18.5211 3.62335 19.3821 5.66771C20.206 7.62453 20.103 9.16938 20.103 9.27238C20.103 9.37537 20.103 9.89032 19.4851 9.89032C18.7642 9.89032 18.7642 9.27238 18.7642 9.27238C18.7642 9.16938 18.7642 7.62453 18.1462 6.28565C17.5283 4.94677 16.6014 4.01986 16.4984 3.91687C16.3954 3.81388 16.2924 3.40192 16.6014 3.09294C16.9103 2.78397 17.2193 2.88696 17.4253 2.98995Z" fill="#C0C0C0"/>
<path d="M5.58556 2.98995C5.58556 2.98995 4.48974 3.62335 3.62874 5.66771C2.80482 7.62453 2.90781 9.16938 2.90781 9.27238C2.90781 9.37537 2.90781 9.89032 3.52575 9.89032C4.24668 9.89032 4.24668 9.27238 4.24668 9.27238C4.24668 9.16938 4.24668 7.62453 4.86463 6.28565C5.48257 4.94677 6.40948 4.01986 6.51247 3.91687C6.61546 3.81388 6.71846 3.40192 6.40948 3.09294C6.10051 2.78397 5.79154 2.88696 5.58556 2.98995Z" fill="#C0C0C0"/>
<path d="M19.4852 0.930199C19.5882 1.03319 21.0939 2.28658 22.1629 4.63786C23.1928 6.90365 22.9868 9.37542 22.9868 9.37542C22.9868 9.37542 22.9868 9.99337 22.3689 9.99337C21.648 9.99337 21.648 9.37542 21.648 9.37542C21.648 9.37542 21.6171 6.71312 20.927 5.2558C20.0001 3.29898 18.6612 2.06309 18.5583 1.9601C18.4553 1.85711 18.3008 1.39366 18.6612 1.03319C19.0217 0.672723 19.3822 0.827209 19.4852 0.930199Z" fill="#C0C0C0"/>
<path d="M3.51849 0.930199C3.4155 1.03319 1.90978 2.28658 0.840739 4.63786C-0.189166 6.90365 0.0168148 9.37542 0.0168148 9.37542C0.0168148 9.37542 0.0168148 9.99337 0.634758 9.99337C1.35569 9.99337 1.35569 9.37542 1.35569 9.37542C1.35569 9.37542 1.38659 6.71312 2.07663 5.2558C3.00354 3.29898 4.34242 2.06309 4.44541 1.9601C4.5484 1.85711 4.70288 1.39366 4.34242 1.03319C3.98195 0.672723 3.62148 0.827209 3.51849 0.930199Z" fill="#C0C0C0"/>
</svg>
