<svg width="31" height="25" viewBox="0 0 31 25" fill="none" xmlns="http://www.w3.org/2000/svg">
<path d="M20.8619 21.9049C20.8619 21.9049 20.8505 21.9349 20.8443 21.9493C20.2863 23.302 18.9451 24.2454 17.393 24.2237C15.6446 24.1989 14.199 22.9579 13.8487 21.318C13.8425 21.288 13.8301 21.2271 13.8301 21.2271L20.8619 21.9049Z" fill="#00B4D3"/>
<path d="M23.5237 20.9843C23.4834 20.9843 23.442 20.9822 23.4007 20.9781L7.01203 19.3733C6.53256 19.3268 6.11819 19.022 5.93219 18.5776C5.74516 18.1333 5.81749 17.6239 6.11923 17.2488C6.75576 16.4572 7.25176 15.6543 7.59069 14.8638C8.49176 12.7672 8.51759 10.0413 8.51759 9.73746C8.51759 5.23936 12.0836 1.58032 16.467 1.58032C20.8504 1.58032 24.4165 5.23936 24.4165 9.73746C24.4165 10.3358 24.2728 11.0674 24.1075 11.9137C23.8657 13.1506 23.5908 14.5518 23.7107 15.862C23.8326 17.1981 24.2832 18.4578 24.6397 19.2793C24.8133 19.6802 24.7637 20.1297 24.5064 20.4821C24.2728 20.8024 23.9122 20.9843 23.5237 20.9843ZM16.466 2.41629C12.5435 2.41629 9.35253 5.70022 9.35253 9.73746C9.35253 10.0588 9.32463 12.9439 8.35846 15.1935C7.98853 16.0532 7.45429 16.9212 6.77023 17.7716C6.65863 17.9101 6.63383 18.0899 6.70203 18.2532C6.77023 18.4164 6.91696 18.5239 7.09263 18.5404L23.4823 20.1452C23.6797 20.1648 23.7913 20.0429 23.8295 19.9892C23.8678 19.9365 23.9494 19.7928 23.8709 19.612C23.4896 18.7337 23.008 17.3841 22.8758 15.9385C22.7445 14.5084 23.0318 13.0441 23.285 11.7525C23.442 10.9485 23.5784 10.2541 23.5784 9.73642C23.5795 5.70022 20.3885 2.41629 16.466 2.41629Z" fill="#151515"/>
<path d="M11.8573 9.13915C11.8274 9.13915 11.7974 9.13605 11.7664 9.12882C11.5411 9.07922 11.3985 8.85602 11.4492 8.63075C11.6445 7.74828 12.0557 6.89578 12.6396 6.16418C13.1356 5.54212 13.7731 4.99548 14.6442 4.44368C14.8395 4.32072 15.0979 4.37858 15.2208 4.57388C15.3438 4.76918 15.2859 5.02752 15.0906 5.15048C14.3012 5.65062 13.7297 6.13835 13.2926 6.68602C12.7956 7.30912 12.4308 8.06448 12.2655 8.81158C12.2221 9.00585 12.0495 9.13915 11.8573 9.13915Z" fill="#151515"/>
<path d="M19.6001 2.85335L18.8364 2.51339L18.8457 2.49065C18.9077 2.34082 18.9336 2.18375 18.9232 2.02049C18.9057 1.73735 18.7796 1.47695 18.5667 1.28889C18.3539 1.10082 18.0811 1.00575 17.7969 1.02332C17.212 1.05845 16.7646 1.56375 16.7997 2.14965C16.8028 2.16722 16.8039 2.18479 16.8059 2.20235L15.9751 2.29535C15.972 2.26435 15.9689 2.23232 15.9669 2.20132C15.9038 1.15559 16.7016 0.253487 17.7473 0.18942C18.2536 0.15842 18.7414 0.326853 19.1216 0.662687C19.5019 0.99852 19.7272 1.46352 19.7582 1.96985C19.7757 2.26022 19.7292 2.54232 19.6187 2.80892C19.6135 2.82339 19.6073 2.83785 19.6001 2.85335Z" fill="#151515"/>
<path d="M26.0442 16.4211C25.8747 16.4211 25.7052 16.3611 25.5699 16.2382C25.2826 15.9757 25.2588 15.5345 25.5203 15.2462C25.5203 15.2462 25.5213 15.2451 25.5223 15.2441C26.1506 14.5332 26.4968 13.6197 26.4968 12.6701C26.4968 11.739 26.163 10.839 25.5554 10.1343C25.3012 9.83875 25.3343 9.39338 25.6298 9.13918C25.9253 8.88498 26.3707 8.91805 26.6249 9.21358C27.4526 10.1735 27.9083 11.4022 27.9083 12.6711C27.9083 13.9669 27.435 15.2141 26.5774 16.1834L26.5701 16.1917C26.4306 16.3436 26.2374 16.4211 26.0442 16.4211Z" fill="#00B4D3"/>
<path d="M27.7449 19.3475C27.5589 19.3475 27.3739 19.2751 27.2354 19.1305C26.9657 18.8494 26.975 18.403 27.2561 18.1323C27.3129 18.0775 27.3687 18.0227 27.4235 17.9659C28.8195 16.5389 29.5883 14.651 29.5883 12.6504C29.5883 10.7233 28.8681 8.88702 27.5609 7.47859C27.4886 7.40109 27.4132 7.32256 27.3367 7.24713C27.0598 6.97329 27.0577 6.52586 27.3315 6.24892C27.6054 5.97199 28.0528 5.96992 28.3297 6.24376C28.4196 6.33262 28.5095 6.42562 28.5953 6.51759C30.1463 8.18849 30.9999 10.3668 30.9999 12.6504C30.9999 15.0219 30.0885 17.2601 28.4331 18.9527C28.368 19.0199 28.3008 19.086 28.2336 19.1501C28.0972 19.2813 27.9205 19.3475 27.7449 19.3475Z" fill="#00B4D3"/>
<path d="M4.958 16.4262C4.7658 16.4262 4.57463 16.3487 4.43513 16.1958C4.43306 16.1927 4.42686 16.1865 4.4248 16.1834C3.56403 15.212 3.0918 13.9648 3.0918 12.669C3.0918 11.4001 3.5475 10.1725 4.3752 9.21145C4.6294 8.91592 5.0758 8.88285 5.3703 9.13809C5.66583 9.39229 5.6989 9.83765 5.44366 10.1332C4.8371 10.8369 4.5023 11.738 4.5023 12.669C4.5023 13.6197 4.8495 14.5342 5.4788 15.2451C5.74126 15.5334 5.7206 15.9788 5.4323 16.2412C5.29796 16.3652 5.12746 16.4262 4.958 16.4262Z" fill="#00B4D3"/>
<path d="M3.255 19.3473C3.07933 19.3473 2.90367 19.2822 2.76623 19.151C2.69907 19.0859 2.6319 19.0197 2.5668 18.9526C0.9114 17.26 0 15.0218 0 12.6503C0 10.3666 0.853533 8.18834 2.40457 6.51847C2.49137 6.42547 2.58023 6.3335 2.67013 6.24464C2.94707 5.96977 3.39347 5.97287 3.66833 6.2498C3.94217 6.52674 3.9401 6.97417 3.66317 7.248C3.58773 7.3224 3.5123 7.40094 3.43893 7.47947C2.13177 8.8879 1.41153 10.7241 1.41153 12.6513C1.41153 14.6518 2.18033 16.5397 3.57637 17.9668C3.63113 18.0236 3.68797 18.0784 3.74377 18.1331C4.02483 18.4028 4.03413 18.8503 3.76443 19.1313C3.62597 19.2739 3.441 19.3473 3.255 19.3473Z" fill="#00B4D3"/>
</svg>
