<svg width="18" height="23" viewBox="0 0 18 23" fill="none" xmlns="http://www.w3.org/2000/svg">
<path d="M6.80471 23C6.80471 23 1.82208 21.8689 0.340763 16.9672C-0.0403409 15.7041 -0.12518 14.2085 0.206097 12.9454C0.573734 11.5452 1.52986 10.4656 1.95675 9.30055C2.62065 7.49071 2.76474 6.15847 2.76474 6.15847C2.76474 6.15847 3.03408 6.53552 3.43807 7.28962C3.84207 8.04372 3.97673 8.9235 3.97673 8.9235C3.97673 8.9235 5.99672 6.78688 6.67005 4.14754C7.34337 1.5082 7.20871 0 7.20871 0C7.20871 0 9.29872 0.798087 11.2487 3.26776C13.134 5.65574 13.2687 7.91803 13.2687 7.91803C13.2687 7.91803 13.8073 7.4153 14.0767 6.40984C14.346 5.40437 14.0767 4.27322 14.0767 4.27322C14.0767 4.27322 18.3092 7.54727 17.982 13.4481C17.578 20.7377 10.8447 23 10.8447 23C10.8447 23 13.538 19.8579 12.9993 15.2076C12.8041 13.5235 11.8937 11.9122 10.9793 10.8087C10.1094 9.75929 9.09403 9.04918 9.09403 9.04918C9.09403 9.04918 9.76735 10.306 9.63269 12.3169C9.49802 14.3279 8.15137 16.2131 8.15137 16.2131C8.15137 16.2131 8.20658 14.9839 7.74737 13.6995C7.34337 12.5683 6.67005 12.0656 6.67005 12.0656C6.67005 12.0656 6.67005 12.5683 6.40072 14.2022C6.13138 15.8361 4.78473 17.4699 5.05406 19.3552C5.32339 21.2404 6.80471 23 6.80471 23Z" fill="#C0C0C0"/>
</svg>
