<svg width="25" height="25" viewBox="0 0 25 25" fill="none" xmlns="http://www.w3.org/2000/svg">
<g clip-path="url(#clip0)">
<path d="M10.5083 24.5471C10.3525 24.5946 10.365 24.8188 10.5258 24.8471C10.8933 24.9113 11.365 24.9779 11.8125 24.9921C13.2483 25.0371 13.9091 24.8813 13.9091 24.8813C13.9091 24.8813 14.8691 23.8338 14.9333 21.9804C14.9975 20.1271 13.1116 18.1096 13.1116 18.1096C13.1116 18.1096 14.0225 18.1013 15.3508 19.6013C16.6791 21.1013 16.69 22.0979 16.69 22.0979C16.69 22.0979 17.6283 20.3538 16.54 18.4338C15.1266 15.9396 12.6933 15.0854 11.7466 12.4904C10.9925 10.4238 12.0183 7.67627 12.0183 7.67627C12.0183 7.67627 10.8175 8.65377 9.92996 10.1188C9.36246 11.0546 8.95996 12.2313 8.95996 13.3396C8.95996 18.4613 12.5325 19.0054 12.7616 22.4204C12.8433 23.6438 11.3875 24.2771 10.5083 24.5471Z" fill="#00B4D3"/>
<path d="M16.3309 9.65308C16.3309 9.65308 16.4067 10.8589 17.2175 12.3822C17.5542 13.0156 18.2117 13.5656 18.7775 14.2639C20.2917 16.1339 18.6117 18.8739 18.6117 18.8739C18.6117 18.8739 19.2492 17.7589 16.9975 15.3122C14.3025 12.3822 16.3309 9.65308 16.3309 9.65308Z" fill="#00B4D3"/>
<path d="M16.0149 24.7473C15.8124 24.7473 15.629 24.6081 15.5807 24.4023C15.5249 24.1623 15.674 23.9223 15.914 23.8664C15.9332 23.8623 17.9015 23.3848 19.5432 21.8881C20.5915 20.9323 21.7124 19.1139 21.7124 16.8764C21.7124 15.9723 21.5457 15.3123 21.389 14.7648C21.1665 13.9864 20.8257 13.3939 20.3549 12.5748C20.0007 11.9598 19.5999 11.2623 19.134 10.2939C18.5399 9.05893 18.504 7.05059 18.5707 5.63226C18.309 6.10393 17.984 6.61726 17.5357 7.12226C16.9632 7.76643 16.3082 8.33143 15.7374 8.67143C15.499 8.81309 15.2032 8.80809 14.9832 8.65893C14.7749 8.51726 14.6707 8.27059 14.7124 8.01559C14.9765 6.39726 14.8165 4.88726 14.2499 3.65059C13.6449 2.33143 12.809 1.58726 12.1149 1.12643C12.2007 1.77893 12.2415 2.66476 12.009 3.42143C11.6132 4.71226 10.7415 5.71726 9.81904 6.78059C9.33821 7.33559 8.84071 7.90893 8.39404 8.54476C6.11071 11.7939 7.15321 16.4873 8.01571 18.2514C8.13654 18.4989 8.06738 18.7864 7.84821 18.9523C7.62904 19.1181 7.33238 19.1048 7.12821 18.9214C6.50154 18.3573 5.35571 16.8681 4.77238 15.3256C4.28404 14.0339 4.03321 12.5314 3.91904 11.2731C3.19571 13.9064 3.08738 16.1781 3.61238 17.9173C5.08488 22.7923 9.13821 23.7506 9.17904 23.7598C9.41988 23.8131 9.57071 24.0523 9.51738 24.2923C9.46404 24.5331 9.22488 24.6848 8.98488 24.6306C8.79738 24.5889 4.37988 23.5439 2.75821 18.1756C2.05738 15.8539 2.37321 12.7181 3.67321 9.10726C3.76404 8.85393 4.02238 8.70643 4.28654 8.75559C4.55071 8.80476 4.73821 9.03643 4.73238 9.30476C4.70404 10.4898 4.85738 13.0248 5.60738 15.0098C5.85238 15.6581 6.21154 16.2973 6.57571 16.8414C5.96904 14.5448 5.64154 10.9106 7.66404 8.03226C8.13738 7.35893 8.64988 6.76809 9.14488 6.19643C10.004 5.20559 10.8149 4.27059 11.1557 3.15976C11.4007 2.36309 11.2607 1.32976 11.1557 0.784759C11.1065 0.528926 11.2074 0.275593 11.419 0.123926C11.6307 -0.0277407 11.9024 -0.041074 12.1282 0.0872593C12.6207 0.368093 14.1199 1.22393 15.0607 3.27726C15.6407 4.54226 15.8465 6.04309 15.6632 7.64559C15.9699 7.41893 16.3957 7.05893 16.8674 6.52893C17.474 5.84559 17.8432 5.11476 18.1399 4.52726C18.2707 4.26893 18.394 4.02393 18.5199 3.81809C18.6765 3.56309 18.9907 3.44059 19.2499 3.53226C19.4882 3.61643 19.6249 3.84893 19.5907 4.10976C19.4099 5.48893 19.249 8.47643 19.9374 9.90643C20.389 10.8456 20.7807 11.5273 21.1274 12.1289C21.6115 12.9698 21.994 13.6348 22.2465 14.5181C22.4199 15.1239 22.6049 15.8556 22.6049 16.8748C22.6049 19.4031 21.334 21.4623 20.144 22.5464C18.324 24.2048 16.2057 24.7131 16.1165 24.7339C16.0824 24.7431 16.0482 24.7473 16.0149 24.7473Z" fill="#151515"/>
</g>
<defs>
<clipPath id="clip0">
<rect width="25" height="25" fill="white" transform="translate(0 0.000488281)"/>
</clipPath>
</defs>
</svg>
