<svg width="35" height="28" viewBox="0 0 35 28" fill="none" xmlns="http://www.w3.org/2000/svg">
<path d="M5.06052 21.1501C3.50006 20.8184 2.68107 19.8554 2.12066 17.7767C1.57547 15.7512 1.77113 14.365 2.73847 13.4152C3.39513 12.7699 4.52057 12.5121 5.94425 12.186C6.74356 12.0028 7.65008 11.7954 8.5901 11.4879C10.4929 10.8667 12.368 10.0354 13.8703 9.14729C16.7301 7.45673 18.3976 4.5768 18.5783 4.25492C18.6774 4.07696 18.8728 3.97867 19.0755 4.00441C19.2792 4.03036 19.4426 4.17429 19.4944 4.37208L23.788 20.7084C23.8395 20.9031 23.771 21.11 23.6126 21.2355C23.4543 21.3611 23.2367 21.3812 23.0587 21.2872C22.6861 21.0906 19.3105 19.3637 15.5175 19.3607C12.7278 19.3577 9.78754 20.1922 7.84247 20.7433C6.56422 21.1054 5.93363 21.2775 5.55452 21.2317C5.38149 21.2102 5.21676 21.1833 5.06052 21.1501ZM18.8325 5.66129C18.0483 6.80101 16.5232 8.70384 14.3627 9.98068C12.802 10.9033 10.8583 11.7649 8.89054 12.4081C7.90905 12.7282 6.97995 12.941 6.16022 13.1291C4.93601 13.4098 3.87832 13.6514 3.41644 14.1054C2.9815 14.5334 2.4696 15.3524 3.05492 17.5252C3.5658 19.4239 4.20176 20.0909 5.67202 20.2707C5.88361 20.2932 6.78404 20.0376 7.57917 19.8116C9.57651 19.2451 12.5947 18.3894 15.5192 18.3925C18.4935 18.396 21.221 19.3932 22.6008 19.9988L18.8325 5.66129ZM22.852 20.9534C22.852 20.9534 22.8518 20.9544 22.8528 20.9546L22.852 20.9534Z" fill="#151515"/>
<path d="M10.6222 27.069C10.4845 27.0397 10.3618 26.9544 10.2887 26.8276L6.79841 20.7091L7.63928 20.2295L10.9554 26.0437L14.4112 25.2085L13.6529 24.9585C13.3995 24.9026 13.3082 24.8087 11.9566 22.2556C11.3173 21.047 10.6896 19.8277 10.6831 19.8151L11.5437 19.3723C12.4211 21.0786 13.7238 23.5498 14.0652 24.0755L14.8244 24.3257C15.0272 24.38 15.1899 24.5269 15.2643 24.7244L15.4859 25.3144C15.5405 25.4608 15.5303 25.6239 15.4572 25.7615C15.384 25.899 15.2546 25.9991 15.1028 26.0362L10.8454 27.0654C10.7702 27.0831 10.6946 27.0833 10.6222 27.069ZM10.6177 26.125C10.6177 26.125 10.6167 26.1247 10.6165 26.1257L10.6177 26.125Z" fill="#151515"/>
<path d="M8.89722 19.7334C8.86979 19.6705 8.22994 18.1719 7.69012 16.1884C7.14616 14.1908 7.03237 12.5029 7.02814 12.4316L7.9936 12.3694C7.99516 12.3861 8.10687 14.0357 8.62382 15.9347C9.14547 17.8501 9.78035 19.3384 9.78644 19.3529L8.89722 19.7334Z" fill="#151515"/>
<path d="M24.2656 16.1077C24.1797 16.0894 24.0963 16.0544 24.0186 16.0021C23.6993 15.7853 23.616 15.3511 23.8319 15.0317C23.8393 15.021 24.717 13.6766 24.3084 12.2088C23.8957 10.7269 22.6646 10.056 22.6517 10.0492C22.3124 9.86886 22.1806 9.44689 22.3602 9.1064C22.5385 8.76668 22.9558 8.63288 23.2979 8.8097C23.3705 8.84758 25.0743 9.74862 25.655 11.8327C26.241 13.9352 25.0409 15.7397 24.9891 15.8155C24.8252 16.0583 24.5351 16.165 24.2656 16.1077Z" fill="#00B4D3"/>
<path d="M27.1602 18.4992C27.0743 18.4809 26.9909 18.4459 26.9132 18.3936C26.5939 18.1767 26.5106 17.7426 26.7266 17.4231C26.7459 17.3946 28.7034 14.4273 27.7848 11.1334C26.8562 7.80068 24.1167 6.35086 24.0891 6.33683C23.746 6.1598 23.6123 5.73741 23.7891 5.39532C23.9661 5.05226 24.3885 4.91852 24.7306 5.09534C24.8649 5.16471 28.0399 6.84591 29.1302 10.758C30.2258 14.6886 27.979 18.066 27.8825 18.2077C27.7198 18.4497 27.4297 18.5565 27.1602 18.4992Z" fill="#00B4D3"/>
<path d="M29.8269 19.9212C29.738 19.9023 29.6509 19.8654 29.5709 19.8096C29.2546 19.5883 29.1788 19.1527 29.4002 18.8364C30.2261 17.6586 30.7981 16.3411 31.0999 14.9213C32.0779 10.32 29.8767 5.54098 25.7472 3.29866C25.4078 3.11423 25.2825 2.69058 25.4669 2.35113C25.6513 2.01167 26.075 1.88637 26.4144 2.07079C28.6591 3.28889 30.4959 5.23985 31.5881 7.56326C32.7168 9.96485 33.0211 12.6097 32.4682 15.2111C32.1271 16.8155 31.4797 18.3058 30.5453 19.6381C30.3796 19.8754 30.0934 19.9779 29.8269 19.9212Z" fill="#00B4D3"/>
</svg>
