<svg width="20" height="20" viewBox="0 0 20 20" fill="none" xmlns="http://www.w3.org/2000/svg">
<path d="M17.9979 17.1546C20.9467 13.7534 20.5848 8.6243 17.2579 5.64746C18.9667 11.6355 14.4481 17.617 8.22264 17.617C8.1028 17.617 8.82608 17.6212 5.97717 17.6036C7.53534 19.1545 9.61065 19.9998 11.7772 19.9998C11.7828 19.9998 19.4118 19.9608 19.4163 19.9607C19.9371 19.9582 20.1965 19.3244 19.825 18.9577L17.9979 17.1546Z" fill="#C0C0C0"/>
<path d="M8.22242 16.4453C12.7562 16.4453 16.4446 12.7566 16.4446 8.22266C16.4446 3.68867 12.7562 0 8.22242 0C3.68863 0 0.000232321 3.68867 0.000232321 8.22266C0.000232321 10.2187 0.706795 12.1065 2.00168 13.6001L0.174568 15.4032C-0.195744 15.7688 0.0607792 16.4037 0.583357 16.4062C0.587381 16.4063 8.21844 16.4453 8.22242 16.4453ZM4.72652 5.3125H11.7574C12.081 5.3125 12.3433 5.57484 12.3433 5.89844C12.3433 6.22203 12.081 6.48438 11.7574 6.48438H4.72652C4.40293 6.48438 4.14062 6.22203 4.14062 5.89844C4.14062 5.57484 4.40297 5.3125 4.72652 5.3125ZM4.72652 7.65625H11.7574C12.081 7.65625 12.3433 7.91859 12.3433 8.24219C12.3433 8.56578 12.081 8.82812 11.7574 8.82812H4.72652C4.40293 8.82812 4.14062 8.56578 4.14062 8.24219C4.14062 7.91859 4.40297 7.65625 4.72652 7.65625ZM4.14062 10.5859C4.14062 10.2623 4.40293 10 4.72652 10H11.7574C12.081 10 12.3433 10.2623 12.3433 10.5859C12.3433 10.9095 12.081 11.1719 11.7574 11.1719H4.72652C4.40297 11.1719 4.14062 10.9095 4.14062 10.5859Z" fill="#C0C0C0"/>
</svg>
