<svg width="25" height="22" viewBox="0 0 25 22" fill="none" xmlns="http://www.w3.org/2000/svg">
<path fill-rule="evenodd" clip-rule="evenodd" d="M8.88023 17.0971C13.3976 17.0971 17.0485 13.3885 17.0485 8.79995C17.0485 4.21138 13.3976 0.502808 8.88023 0.502808C4.3629 0.502808 0.711914 4.21138 0.711914 8.79995C0.711914 13.3885 4.39385 17.0971 8.88023 17.0971ZM9.40622 11.5971H7.79731V12.9171H6.43592V11.5971H5.63147V10.4657H6.43592V9.67995H5.63147V8.48566H6.43592V4.65138H9.18964C9.77751 4.65138 10.2726 4.74566 10.6438 4.90281C11.0151 5.05995 11.3245 5.27995 11.5411 5.53138C11.7577 5.78281 11.9124 6.06566 12.0052 6.34852C12.0981 6.66281 12.129 6.91424 12.129 7.19709C12.129 7.44852 12.0981 7.73138 12.0052 8.01424C11.9124 8.29709 11.7577 8.57995 11.5411 8.83138C11.3245 9.08281 11.0151 9.27138 10.6438 9.42852C10.2726 9.58566 9.80845 9.67995 9.22058 9.67995H7.82825V10.4342H9.43716V11.5971H9.40622ZM7.79731 8.48566H9.06588C9.22058 8.48566 9.40622 8.45424 9.59187 8.42281C9.77751 8.39138 9.93221 8.32852 10.1179 8.23424C10.2726 8.13995 10.3963 8.01424 10.5201 7.82566C10.6129 7.66852 10.6748 7.44852 10.6748 7.16566C10.6748 6.88281 10.6438 6.66281 10.551 6.50566C10.4582 6.31709 10.3344 6.19138 10.2107 6.09709C10.056 6.00281 9.90127 5.93995 9.71563 5.90852C9.52998 5.87709 9.34434 5.84566 9.1587 5.84566H7.89013V8.48566H7.79731Z" fill="#00B5D3"/>
<path fill-rule="evenodd" clip-rule="evenodd" d="M17.1105 19.9571C16.6464 19.9571 16.2751 19.7371 16.1514 19.3599V19.3285V14.2685C16.1514 14.0171 16.2132 13.9228 16.2132 13.8914L16.5227 13.4199C17.4199 12.0999 17.6984 11.7228 17.6365 10.9371C17.5746 10.1199 17.6365 9.36565 18.5338 9.27136C18.5647 9.27136 18.6266 9.27136 18.6576 9.27136C19.4001 9.27136 20.2355 9.83708 20.3593 11.3771C20.4212 11.8799 20.2046 12.6342 20.0808 13.1056H23.0511C23.8246 13.1056 24.2578 13.5456 24.2578 14.3314C24.2578 14.7399 24.0722 15.0228 23.8246 15.2114C23.9175 15.3685 24.0103 15.5885 24.0103 15.8399C24.0103 16.2485 23.8246 16.5628 23.5462 16.7514C23.6699 16.9714 23.6699 17.1914 23.639 17.3799C23.5771 17.7885 23.3605 18.0399 23.1439 18.1971C23.2368 18.4171 23.2677 18.6999 23.1749 18.9514C23.0202 19.3285 22.587 19.9256 21.3803 19.9256H17.1105V19.9571Z" fill="#00B5D3"/>
<path d="M18.688 9.61709C19.1521 9.61709 19.9256 9.93137 20.0494 11.4399C20.1113 12.1314 19.6162 13.4828 19.6162 13.4828C19.6162 13.4828 22.7722 13.4828 23.0506 13.4828C23.5457 13.4828 23.917 13.7028 23.917 14.3628C23.917 14.9914 23.2363 15.1799 23.2363 15.1799C23.2363 15.1799 23.6695 15.3685 23.6695 15.8714C23.6695 16.4057 23.2053 16.6571 22.8959 16.6571C23.0816 16.7514 23.3601 16.9399 23.2982 17.3799C23.2363 17.8199 22.9269 18.0085 22.5865 18.1028C22.8031 18.2285 22.9578 18.5742 22.8341 18.8571C22.6794 19.2342 22.2771 19.6428 21.3489 19.6428C20.2351 19.6428 17.1719 19.6428 17.0482 19.6428C16.7078 19.6428 16.4912 19.4857 16.4294 19.2971C16.4294 18.9199 16.4294 14.2685 16.4294 14.2685C16.4294 14.2685 16.4294 14.1114 16.4603 14.0799C17.6051 12.3828 18.0073 11.9114 17.9454 10.9371C17.8836 9.9628 18.0692 9.67995 18.5333 9.64852C18.6261 9.61709 18.6571 9.61709 18.688 9.61709ZM18.688 8.92566C18.6261 8.92566 18.5643 8.92566 18.5024 8.92566C17.1719 9.05137 17.2648 10.4342 17.2957 10.9685C17.3266 11.5971 17.141 11.8799 16.2437 13.2314C16.1509 13.3571 16.0581 13.5142 15.9343 13.6714V13.7028V13.7342C15.8724 13.8285 15.8105 13.9857 15.8105 14.2999V19.3285V19.4228L15.8415 19.5171C15.9653 20.0199 16.4912 20.3657 17.1101 20.3657H21.4108C22.865 20.3657 23.3601 19.5485 23.5148 19.1714C23.6076 18.9199 23.6385 18.6685 23.5766 18.4171C23.8242 18.1971 23.9789 17.8828 24.0098 17.5371C24.0407 17.3799 24.0407 17.1914 23.9789 16.9714C24.2264 16.7199 24.3811 16.3742 24.3811 15.9657C24.3811 15.7457 24.3502 15.5571 24.2883 15.3999C24.5049 15.1485 24.6286 14.8342 24.6286 14.4571C24.6286 13.4828 24.0407 12.8857 23.0816 12.8857C22.8959 12.8857 21.5036 12.8857 20.5445 12.8857C20.6682 12.4142 20.761 11.8799 20.7301 11.4399C20.5754 9.58566 19.5853 8.92566 18.688 8.92566Z" fill="white"/>
<path fill-rule="evenodd" clip-rule="evenodd" d="M13.8922 20.02L12.7783 13.7971H16.1818V20.02H13.8922Z" fill="#00B5D3"/>
<path d="M15.8413 14.1428V19.6743H14.2015L13.1804 14.1428H15.8413ZM16.522 13.4514H15.8413H13.2114H12.376L12.5307 14.2686L13.5208 19.8L13.6136 20.3657H14.1705H15.8104H16.4911V19.6743V14.1428V13.4514H16.522Z" fill="white"/>
</svg>
