<svg width="37" height="30" viewBox="0 0 37 30" fill="none" xmlns="http://www.w3.org/2000/svg">
<g clip-path="url(#clip0_4454:4264)">
<path d="M4.76647 27.5304L0.124236 10.2967C-0.357773 8.50421 0.657814 6.63875 2.388 6.13969L23.2228 0.124873C24.1458 -0.140999 25.1308 0.0235364 25.9233 0.580343L35.9655 7.60962C36.919 8.27757 37.261 9.547 36.779 10.629L31.7011 22.0245C31.3001 22.9245 30.5403 23.5946 29.6163 23.8616L8.78146 29.8764C7.05023 30.3744 5.24848 29.3229 4.76647 27.5304ZM36.0876 9.20158C35.996 8.86161 35.7908 8.55433 35.4888 8.34294L25.4455 1.31258C24.8604 0.902877 24.1342 0.780837 23.4533 0.976972L2.61848 6.99288C1.34189 7.36118 0.592564 8.7363 0.948282 10.058L5.59052 27.2918C5.94623 28.6135 7.27439 29.3894 8.55098 29.0211L29.3858 23.0062C30.0667 22.8101 30.6266 22.3165 30.9223 21.6518L36.0024 10.2564C36.1571 9.91421 36.1792 9.54155 36.0876 9.20158Z" fill="#151515"/>
<path d="M7.24479 25.6458L3.18771 10.5848C2.96354 9.75011 3.43397 8.88602 4.24013 8.65284L23.2195 3.17412C23.6478 3.05099 24.1077 3.12727 24.475 3.38551L33.1786 9.4777C33.508 9.7087 33.628 10.1533 33.4617 10.5259L29.0583 20.4024C28.8721 20.8198 28.5184 21.1325 28.0901 21.2556L9.11074 26.7343C8.30353 26.9675 7.46896 26.4805 7.24479 25.6458Z" fill="#E33435"/>
<path d="M29.408 12.812C30.3043 12.812 31.0308 12.0597 31.0308 11.1318C31.0308 10.2038 30.3043 9.45154 29.408 9.45154C28.5117 9.45154 27.7852 10.2038 27.7852 11.1318C27.7852 12.0597 28.5117 12.812 29.408 12.812Z" fill="white"/>
<path d="M10.4885 16.1866C9.80763 15.7714 9.33509 15.0708 9.06988 14.0879C8.89623 13.4429 8.86571 12.8457 8.97938 12.2944C9.09304 11.743 9.32878 11.2777 9.6866 10.8975C10.0455 10.5172 10.498 10.248 11.0463 10.0889C11.8904 9.84487 12.6534 9.93422 13.3364 10.3559C14.0184 10.7765 14.4899 11.4739 14.7519 12.4469C15.0171 13.4298 14.9624 14.2819 14.5867 15.0021C14.212 15.7224 13.6027 16.204 12.7586 16.4492C11.9272 16.69 11.1684 16.6017 10.4885 16.1866ZM17.6408 8.34552L19.9204 7.68738L15.4434 21.3449L13.1638 22.0031L17.6408 8.34552ZM12.9154 14.3026C13.0133 13.992 12.9881 13.5584 12.8376 13.0005C12.6881 12.4437 12.4924 12.0579 12.2535 11.8433C12.0135 11.6308 11.7515 11.5632 11.4662 11.646C11.1916 11.7256 11.0042 11.9239 10.9022 12.2421C10.8001 12.5603 10.8222 12.9918 10.9695 13.5387C11.1168 14.0857 11.3136 14.4671 11.5599 14.684C11.8062 14.9008 12.0661 14.9694 12.3408 14.891C12.626 14.8104 12.8176 14.6142 12.9154 14.3026ZM19.7572 19.34C19.0826 18.9227 18.6122 18.222 18.3459 17.2392C18.0839 16.2661 18.1397 15.4184 18.5122 14.6916C18.8848 13.9648 19.4889 13.4821 20.3224 13.2413C21.1664 12.9972 21.9294 13.0865 22.6124 13.5082C23.2944 13.9288 23.7659 14.6262 24.028 15.5993C24.2932 16.5821 24.2384 17.4342 23.8627 18.1545C23.4881 18.8747 22.8787 19.3563 22.0347 19.6015C21.1927 19.8445 20.4318 19.7573 19.7572 19.34ZM22.1925 17.4538C22.2904 17.1433 22.2652 16.7096 22.1147 16.1517C21.9652 15.5949 21.7695 15.2092 21.5306 14.9956C21.2906 14.7831 21.0286 14.7156 20.7444 14.7995C20.4602 14.8823 20.2677 15.0784 20.1698 15.389C20.0719 15.6995 20.0972 16.1332 20.2477 16.6911C20.3971 17.2479 20.5929 17.6336 20.8318 17.8472C21.0717 18.0597 21.3338 18.1261 21.6179 18.0433C21.9021 17.9605 22.0936 17.7644 22.1925 17.4538Z" fill="white"/>
<path d="M29.0952 11.1482C29.0774 11.0795 29.0752 11.0043 29.0921 10.9303L33.1544 1.86662C33.2102 1.62799 33.4407 1.48307 33.6701 1.53973C33.9006 1.59748 34.0406 1.83611 33.9859 2.07365L29.9235 11.1373C29.8677 11.3759 29.6372 11.5208 29.4078 11.4642C29.251 11.4239 29.1352 11.2996 29.0952 11.1482Z" fill="#151515"/>
</g>
<defs>
<clipPath id="clip0_4454:4264">
<rect width="37" height="30" fill="white"/>
</clipPath>
</defs>
</svg>
