<svg width="34" height="35" viewBox="0 0 34 35" fill="none" xmlns="http://www.w3.org/2000/svg">
<path d="M9.1418 0H24.769C27.9482 0 29.0997 0.342709 30.2584 0.984375C31.4085 1.61208 32.3489 2.58269 32.9571 3.76979C33.5788 4.96563 33.9109 6.15417 33.9109 9.43542V25.5646C33.9109 28.8458 33.5788 30.0344 32.9571 31.2302C32.3489 32.4173 31.4085 33.3879 30.2584 34.0156C29.0997 34.6573 27.9482 35 24.769 35H9.1418C5.96266 35 4.8111 34.6573 3.65248 34.0156C2.50231 33.3879 1.56192 32.4173 0.953742 31.2302C0.332043 30.0417 0 28.8458 0 25.5646V9.43542C0 6.15417 0.332043 4.96563 0.953742 3.76979C1.56192 2.58269 2.50231 1.61208 3.65248 0.984375C4.8111 0.342709 5.96266 0 9.1418 0Z" fill="#EAE60E"/>
<path d="M25.4263 7.10203C25.8542 7.10395 26.2639 7.28073 26.5657 7.59367C26.8676 7.90661 27.0371 8.33022 27.0371 8.77182V12.9135H30.3999V8.77182C30.3999 5.92807 28.1674 3.6239 25.4263 3.6239H21.3994V7.10203H25.4263Z" fill="#63666A"/>
<path d="M27.0371 26.2501C27.0371 26.691 26.8674 27.1138 26.5653 27.4256C26.2632 27.7374 25.8535 27.9126 25.4263 27.9126H21.3994V31.3761H25.4263C26.7436 31.3742 28.0065 30.8337 28.9386 29.873C29.8708 28.9123 30.3962 27.6096 30.3999 26.2501V22.0938H27.0371V26.2501Z" fill="#63666A"/>
<path d="M6.87357 8.77182C6.87264 8.55254 6.91356 8.33521 6.99401 8.13226C7.07445 7.9293 7.19284 7.74469 7.34242 7.58896C7.49199 7.43322 7.66982 7.30942 7.86575 7.22463C8.06168 7.13983 8.27188 7.09569 8.48433 7.09473H12.5112V3.6239H8.48433C7.16396 3.62776 5.89893 4.17183 4.96661 5.13684C4.03428 6.10184 3.51074 7.40903 3.51074 8.77182V12.9135H6.87357V8.77182Z" fill="#63666A"/>
<path d="M8.48433 27.9126C8.0577 27.9106 7.64908 27.7349 7.3474 27.4235C7.04573 27.1121 6.87543 26.6904 6.87357 26.2501V22.0938H3.51074V26.2501C3.51448 27.6096 4.0399 28.9123 4.97203 29.873C5.90415 30.8337 7.16705 31.3742 8.48433 31.3761H12.5112V27.9126H8.48433Z" fill="#63666A"/>
<path d="M15.0198 25.8271L7.83496 18.4114L10.2087 15.9541L15.0128 20.9125L23.7024 11.9437L26.0762 14.401L15.0198 25.8271Z" fill="#63666A"/>
</svg>
