<svg width="22" height="22" viewBox="0 0 22 22" fill="none" xmlns="http://www.w3.org/2000/svg">
<path d="M11.1848 21.8152H0L3.6146 18.7073C3.49287 18.5885 3.3902 18.4895 3.38213 18.4807C1.441 16.4516 0.374733 13.7969 0.374733 11C0.374733 5.03655 5.22647 0.184814 11.1899 0.184814C17.1505 0.184814 22 5.03655 22 11C22 16.9635 17.1483 21.8152 11.1848 21.8152ZM2.0328 21.0613H11.1848C16.7325 21.0613 21.2461 16.5477 21.2461 11C21.2461 5.45235 16.7354 0.938681 11.1899 0.938681C5.64227 0.938681 1.1286 5.45235 1.1286 11C1.1286 13.6004 2.11933 16.0681 3.91747 17.9505C3.96587 17.9982 4.43593 18.4536 4.43593 18.4536L4.7322 18.7411L2.0328 21.0613Z" fill="#151515"/>
<path d="M12.5448 16.1098C12.2133 16.4252 11.7946 16.5777 11.2776 16.5777C10.7716 16.5777 10.3587 16.42 10.0272 16.1098C9.69576 15.7945 9.53223 15.4139 9.53223 14.9629C9.53223 14.5009 9.69503 14.1203 10.0162 13.8211C10.3426 13.5219 10.7613 13.3752 11.2724 13.3752C11.7887 13.3752 12.2074 13.5219 12.5396 13.8211C12.866 14.1203 13.0346 14.5009 13.0346 14.9629C13.0398 15.4139 12.877 15.7945 12.5448 16.1098Z" fill="#00B4D3"/>
<path d="M14.9697 9.4497C14.8282 9.77604 14.6544 10.0481 14.4534 10.2652C14.2525 10.4881 13.9914 10.733 13.6761 11.0154C13.3278 11.3146 13.0674 11.5698 12.9039 11.7766C12.7411 11.9885 12.659 12.2334 12.659 12.5106H9.91338C9.91338 11.9995 10.0278 11.5756 10.2507 11.2383C10.4788 10.9068 10.8051 10.5372 11.2348 10.1346C11.534 9.85744 11.7511 9.6235 11.8985 9.43357C12.04 9.2429 12.1163 9.04197 12.1163 8.8249C12.1163 8.5257 11.9909 8.28664 11.7408 8.10697C11.4908 7.9273 11.1644 7.8349 10.7618 7.8349C10.349 7.8349 9.97864 7.93244 9.64204 8.12824C9.31058 8.32404 9.03851 8.5961 8.83171 8.9437L6.53711 7.7095C6.95584 6.99157 7.55351 6.43204 8.32571 6.02944C9.09791 5.62684 10.0278 5.4259 11.1153 5.4259C12.3385 5.4259 13.3226 5.6811 14.0677 6.1871C14.8128 6.69824 15.1875 7.40517 15.1875 8.32404C15.1816 8.75377 15.1112 9.12337 14.9697 9.4497Z" fill="#00B4D3"/>
</svg>
