<svg width="20" height="24" viewBox="0 0 20 24" fill="none" xmlns="http://www.w3.org/2000/svg">
<path d="M12.6094 16.861C12.4594 16.861 12.3375 16.9406 12.2391 17.1C12.1406 17.2594 12.0938 17.5219 12.0938 17.8781C12.0938 18.2391 12.1406 18.4969 12.2391 18.6563C12.3375 18.8156 12.4594 18.8953 12.6094 18.8953C12.7594 18.8953 12.8813 18.8156 12.9797 18.6563C13.0781 18.4969 13.125 18.2344 13.125 17.8781C13.125 17.5172 13.0781 17.2594 12.9797 17.1C12.8813 16.9406 12.7594 16.861 12.6094 16.861Z" fill="#00B5D3"/>
<path d="M16.6315 8.5125C14.5971 6.26719 13.3878 4.28438 12.7315 3.02344C12.019 1.65469 11.7893 0.80625 11.7846 0.796875L11.5737 0L10.819 0.3375C10.73 0.375 8.64401 1.32656 7.47214 3.67031C6.8862 4.84688 6.76901 6.15 6.7737 7.04062C6.77839 7.55625 6.40808 8.00625 5.90183 8.10938C5.54558 8.17969 5.17995 8.07187 4.92214 7.81406L3.51589 6.40781L3.03308 7.07344C2.98151 7.14375 1.80026 8.775 1.58464 9.09844C0.534639 10.6922 -0.0137987 12.5437 0.000263791 14.4609C0.0190138 17.0203 1.02683 19.4203 2.8362 21.2156C4.6362 23.0109 7.04089 24 9.60495 24C14.9018 24 19.2143 19.6875 19.2143 14.3906C19.2143 12.4688 18.2721 10.3266 16.6315 8.5125ZM4.41589 14.0109C4.41589 13.5328 4.50964 13.125 4.69714 12.7828C4.88464 12.4406 5.14245 12.1781 5.47526 11.9953C5.80808 11.8172 6.17839 11.7234 6.59558 11.7234C7.00808 11.7234 7.38308 11.8125 7.71589 11.9953C8.0487 12.1734 8.30651 12.4359 8.49401 12.7828C8.68151 13.125 8.77526 13.5375 8.77526 14.0109C8.77526 14.7234 8.5737 15.2813 8.16589 15.6891C7.75808 16.0969 7.23776 16.2984 6.59558 16.2984C5.95339 16.2984 5.43308 16.0969 5.02526 15.6891C4.62214 15.2813 4.41589 14.7234 4.41589 14.0109ZM7.79089 20.0484H5.81276L11.4143 11.8453H13.3925L7.79089 20.0484ZM14.18 19.5563C13.7721 19.9641 13.2518 20.1656 12.6096 20.1656C11.9675 20.1656 11.4471 19.9641 11.0393 19.5563C10.6315 19.1484 10.43 18.5906 10.43 17.8781C10.43 17.4 10.5237 16.9922 10.7112 16.65C10.8987 16.3078 11.1565 16.0453 11.4893 15.8625C11.8221 15.6844 12.1925 15.5906 12.6096 15.5906C13.0221 15.5906 13.3971 15.6797 13.73 15.8625C14.0628 16.0406 14.3206 16.3031 14.5081 16.65C14.6956 16.9922 14.7893 17.4047 14.7893 17.8781C14.7893 18.5906 14.5878 19.1484 14.18 19.5563Z" fill="#00B5D3"/>
<path d="M6.96504 14.7891C7.06348 14.6297 7.11035 14.3672 7.11035 14.011C7.11035 13.65 7.06348 13.3922 6.96504 13.2328C6.8666 13.0735 6.74473 12.9938 6.59473 12.9938C6.44473 12.9938 6.32285 13.0735 6.22441 13.2328C6.12598 13.3922 6.0791 13.6547 6.0791 14.011C6.0791 14.3719 6.12598 14.6297 6.22441 14.7891C6.32285 14.9484 6.44473 15.0281 6.59473 15.0281C6.74473 15.0328 6.8666 14.9531 6.96504 14.7891Z" fill="#00B5D3"/>
</svg>
