<svg width="25" height="25" viewBox="0 0 25 25" fill="none" xmlns="http://www.w3.org/2000/svg">
<path d="M18.3592 1.46497C17.0025 1.46497 15.7592 1.89497 14.6625 2.74247C13.6117 3.5558 12.9117 4.5908 12.5 5.3433C12.0883 4.5908 11.3883 3.55497 10.3375 2.74247C9.24083 1.89497 7.9975 1.46497 6.64083 1.46497C2.855 1.46497 0 4.56163 0 8.66747C0 13.1033 3.56167 16.1391 8.95333 20.7341C9.86917 21.5141 10.9067 22.3991 11.9858 23.3425C12.1283 23.4666 12.3108 23.5358 12.5 23.5358C12.6892 23.5358 12.8717 23.4675 13.0142 23.3425C14.0933 22.3991 15.1308 21.515 16.0467 20.7341C21.4383 16.1391 25 13.1041 25 8.66747C25 4.56163 22.145 1.46497 18.3592 1.46497Z" fill="#00B4D2"/>
</svg>
