<svg width="25" height="25" viewBox="0 0 25 25" fill="none" xmlns="http://www.w3.org/2000/svg">
<path d="M18.3592 2.2333C19.9733 2.2333 21.4558 2.87747 22.5342 4.04747C23.6283 5.23497 24.2317 6.8758 24.2317 8.6683C24.2317 10.5591 23.5292 12.2508 21.9533 14.1516C20.4317 15.9883 18.1683 17.9166 15.5483 20.1491C14.6308 20.9308 13.5908 21.8175 12.5075 22.7641C12.505 22.7658 12.5025 22.7666 12.4992 22.7666C12.4967 22.7666 12.4933 22.7658 12.4908 22.7633C11.4092 21.8175 10.3692 20.9308 9.45083 20.1491C6.83 17.9158 4.5675 15.9875 3.045 14.1508C1.46917 12.25 0.766667 10.5583 0.766667 8.66747C0.766667 6.87497 1.36917 5.23413 2.46417 4.04663C3.54417 2.87747 5.02667 2.2333 6.64083 2.2333C7.82333 2.2333 8.90917 2.60913 9.8675 3.3508C10.8225 4.08913 11.46 5.04247 11.8267 5.71247L12.5 6.94413L13.1742 5.71247C13.5408 5.04247 14.1783 4.08913 15.1333 3.3508C16.0917 2.60913 17.1767 2.2333 18.3592 2.2333ZM18.3592 1.46497C17.0025 1.46497 15.7592 1.89497 14.6625 2.74247C13.6117 3.5558 12.9117 4.5908 12.5 5.3433C12.0883 4.5908 11.3883 3.55497 10.3375 2.74247C9.24083 1.89497 7.9975 1.46497 6.64083 1.46497C2.855 1.46497 0 4.56163 0 8.66747C0 13.1033 3.56167 16.1391 8.95333 20.7341C9.86917 21.5141 10.9067 22.3991 11.9858 23.3425C12.1283 23.4666 12.3108 23.5358 12.5 23.5358C12.6892 23.5358 12.8717 23.4675 13.0142 23.3425C14.0933 22.3991 15.1308 21.515 16.0467 20.7341C21.4383 16.1391 25 13.1041 25 8.66747C25 4.56163 22.145 1.46497 18.3592 1.46497Z" fill="#161616"/>
</svg>
