<svg width="22" height="22" viewBox="0 0 22 22" fill="none" xmlns="http://www.w3.org/2000/svg">
<g clip-path="url(#clip0_4304:4335)">
<path d="M9.2473 21.6011C9.11017 21.6429 9.12117 21.8402 9.2627 21.8651C9.5861 21.9216 10.0012 21.9802 10.395 21.9927C11.6585 22.0323 12.24 21.8952 12.24 21.8952C12.24 21.8952 13.0848 20.9734 13.1413 19.3424C13.1978 17.7115 11.5382 15.9361 11.5382 15.9361C11.5382 15.9361 12.3398 15.9288 13.5087 17.2488C14.6776 18.5688 14.6872 19.4458 14.6872 19.4458C14.6872 19.4458 15.5129 17.911 14.5552 16.2214C13.3114 14.0265 11.1701 13.2748 10.337 10.9912C9.67336 9.17256 10.5761 6.75476 10.5761 6.75476C10.5761 6.75476 9.51937 7.61496 8.73837 8.90416C8.23897 9.72769 7.88477 10.7632 7.88477 11.7385C7.88477 16.2456 11.0286 16.7244 11.2302 19.7296C11.3021 20.8062 10.021 21.3635 9.2473 21.6011Z" fill="#00B4D3"/>
<path d="M14.3709 8.49426C14.3709 8.49426 14.4377 9.5554 15.1512 10.8959C15.4475 11.4533 16.0261 11.9373 16.524 12.5518C17.8565 14.1974 16.3781 16.6086 16.3781 16.6086C16.3781 16.6086 16.9391 15.6274 14.9576 13.4743C12.586 10.8959 14.3709 8.49426 14.3709 8.49426Z" fill="#00B4D3"/>
<path d="M14.0933 21.7771C13.9151 21.7771 13.7538 21.6546 13.7113 21.4735C13.6621 21.2623 13.7934 21.0511 14.0046 21.0019C14.0215 20.9983 15.7536 20.5781 17.1983 19.261C18.1208 18.4199 19.1071 16.8197 19.1071 14.8507C19.1071 14.0551 18.9605 13.4743 18.8226 12.9925C18.6268 12.3075 18.3269 11.7861 17.9125 11.0653C17.6009 10.5241 17.2481 9.91027 16.8382 9.05814C16.3153 7.97134 16.2838 6.204 16.3425 4.95587C16.1122 5.37094 15.8262 5.82267 15.4317 6.26707C14.9279 6.83394 14.3515 7.33114 13.8491 7.63034C13.6394 7.755 13.3791 7.7506 13.1855 7.61934C13.0021 7.49467 12.9105 7.2776 12.9471 7.0532C13.1796 5.62907 13.0388 4.30027 12.5401 3.212C12.0077 2.05114 11.2722 1.39627 10.6613 0.990737C10.7369 1.56494 10.7728 2.34447 10.5682 3.01034C10.2199 4.14627 9.45279 5.03067 8.64099 5.9664C8.21786 6.4548 7.78006 6.95934 7.38699 7.51887C5.37766 10.3781 6.29506 14.5083 7.05406 16.0607C7.16039 16.2785 7.09953 16.5315 6.90666 16.6775C6.71379 16.8234 6.45273 16.8117 6.27306 16.6503C5.72159 16.1539 4.71326 14.8434 4.19993 13.486C3.77019 12.3493 3.54946 11.0271 3.44899 9.9198C2.81246 12.2371 2.71713 14.2362 3.17913 15.7667C4.47493 20.0567 8.04186 20.9 8.07779 20.9081C8.28973 20.955 8.42246 21.1655 8.37553 21.3767C8.32859 21.5886 8.11813 21.7221 7.90693 21.6744C7.74193 21.6377 3.85453 20.7181 2.42746 15.994C1.81073 13.9509 2.08866 11.1914 3.23266 8.01387C3.31259 7.79094 3.53993 7.66114 3.77239 7.7044C4.00486 7.74767 4.16986 7.95154 4.16473 8.18767C4.13979 9.23047 4.27473 11.4613 4.93473 13.2081C5.15033 13.7786 5.46639 14.3411 5.78686 14.8199C5.25299 12.7989 4.96479 9.6008 6.74459 7.06787C7.16113 6.47534 7.61213 5.9554 8.04773 5.45234C8.80379 4.5804 9.51733 3.7576 9.81726 2.78007C10.0329 2.079 9.90966 1.16967 9.81726 0.690071C9.77399 0.464937 9.86273 0.242004 10.049 0.108537C10.2353 -0.0249294 10.4743 -0.0366627 10.6731 0.0762706C11.1065 0.323404 12.4257 1.07654 13.2537 2.88347C13.7641 3.99667 13.9452 5.3174 13.7839 6.7276C14.0537 6.52814 14.4285 6.21134 14.8435 5.74494C15.3774 5.1436 15.7023 4.50047 15.9633 3.98347C16.0785 3.75614 16.187 3.54054 16.2977 3.3594C16.4356 3.135 16.7121 3.0272 16.9401 3.10787C17.1499 3.18194 17.2701 3.38654 17.2401 3.61607C17.0809 4.82974 16.9394 7.45874 17.5451 8.71714C17.9426 9.5436 18.2873 10.1435 18.5923 10.6729C19.0184 11.4129 19.355 11.9981 19.5772 12.7754C19.7297 13.3085 19.8925 13.9524 19.8925 14.8493C19.8925 17.0742 18.7742 18.8863 17.727 19.8403C16.1254 21.2997 14.2613 21.747 14.1828 21.7653C14.1527 21.7734 14.1227 21.7771 14.0933 21.7771Z" fill="#151515"/>
</g>
<defs>
<clipPath id="clip0_4304:4335">
<rect width="22" height="22" fill="white"/>
</clipPath>
</defs>
</svg>
