<svg width="76" height="61" viewBox="0 0 76 61" fill="none" xmlns="http://www.w3.org/2000/svg">
<path d="M63.9817 29.9274L58.3898 27.1465L42.1807 35.3918L48.1505 38.3601L63.9817 29.9274Z" fill="#00B5D3"/>
<path d="M57.9893 60.4799L41.7197 52.2196V36.0814L47.7122 39.1247L47.7198 45.1662L50.1152 45.1362L52.5032 47.5723V41.5608L57.9893 44.3417V60.4799Z" fill="#00B5D3"/>
<path d="M68.7424 32.296L52.9111 40.7212L58.4502 43.4646L74.7274 35.2718L68.7424 32.296Z" fill="#00B5D3"/>
<path d="M75.2035 52.332L58.8281 60.4798V44.3416L75.2035 36.0813V52.332Z" fill="#00B5D3"/>
<path d="M19.3541 14.165L16.5176 14.6611L17.1178 18.0376L19.9544 17.5414C20.8928 17.3773 21.5217 16.4864 21.3563 15.5555C21.1908 14.6248 20.2928 14.0014 19.3541 14.165Z" fill="#00B5D3"/>
<path d="M29.378 32.48C26.5192 32.48 24.1934 30.173 24.1934 27.3373C24.1934 24.5016 26.5192 22.1946 29.378 22.1946C32.2368 22.1946 34.5626 24.5016 34.5626 27.3373C34.5626 30.173 32.2368 32.48 29.378 32.48Z" fill="#00B5D3"/>
<path d="M36.8582 22.0531L34.5539 3.76781C34.4455 2.91412 33.4615 2.4822 32.753 2.97069C26.4961 7.28631 18.2943 8.86913 12.5156 9.43697C6.19112 10.0584 1.30389 9.63268 1.25493 9.6284C0.550827 9.56469 -0.08861 10.1488 0.010114 10.9322L2.3113 29.193C2.3833 29.7651 2.87368 30.1944 3.45479 30.1944C9.6461 30.1944 15.3378 29.7152 20.4463 28.7673C21.2189 28.6239 21.8545 27.9933 21.8959 27.0175C22.0657 23.0354 25.4269 19.8742 29.4448 19.9092C31.9188 19.9307 34.1093 21.1476 35.4585 23.0048C35.9437 23.6727 36.9727 22.971 36.8582 22.0531ZM20.3521 19.7922L17.5155 20.2884L17.7155 21.4139L19.9848 21.0169C20.6117 20.9072 21.2091 21.3224 21.3195 21.944C21.43 22.5655 21.0116 23.1583 20.3849 23.2679L18.1156 23.6648L18.3157 24.7904C18.4263 25.4119 18.0078 26.0047 17.3811 26.1143C16.756 26.2238 16.1571 25.81 16.0464 25.1872C15.8033 23.8194 14.2894 15.3033 14.0458 13.9325C13.9352 13.311 14.3537 12.7182 14.9804 12.6086L18.9516 11.914C21.1407 11.5311 23.2369 12.9865 23.6231 15.1585C24.0092 17.3306 22.5418 19.4093 20.3521 19.7922Z" fill="#00B5D3"/>
<path d="M14.8294 1.79441C14.4532 2.02012 14.4664 2.56662 14.8502 2.7794C16.1455 3.49739 17.2493 4.51674 18.0647 5.74101C18.2627 6.03822 18.6221 6.18679 18.9728 6.11029C21.2019 5.62387 23.5477 4.96802 25.8842 4.08439C26.2717 3.93782 26.3813 3.44032 26.0876 3.14997C23.0543 0.151138 18.4064 -0.351785 14.8294 1.79441Z" fill="#00B5D3"/>
<path d="M4.88904 6.59096C4.59992 6.96359 4.8732 7.50415 5.34723 7.50579C8.4763 7.51679 11.7311 7.30394 14.8852 6.84774C15.3593 6.77917 15.5462 6.20339 15.2039 5.87076C12.2303 2.98033 7.41324 3.33739 4.88904 6.59096Z" fill="#00B5D3"/>
<path d="M54.3212 8.13259C54.3212 8.13259 56.6034 8.10535 58.8691 9.2383C59.8062 9.70674 61.9231 11.1447 63.4611 13.5032C65.0487 15.9271 65.6165 18.4817 65.7819 19.9196C66.1843 23.5037 65.5504 25.8131 65.5504 25.8131C65.5504 25.8131 65.2031 24.0484 64.2384 22.082C63.4831 20.5351 62.1491 18.9283 61.0355 17.9969C59.8503 17.0055 58.9077 16.4554 57.8989 16.0796C55.9805 15.3715 54.3212 15.3824 54.3212 15.3824V18.6941C54.3212 18.6941 54.3267 18.912 54.1448 19.0372C53.9629 19.1571 53.6542 19.0372 53.6542 19.0372L43.285 12.2559C43.285 12.2559 43.0645 12.0761 43.0645 11.7929C43.0645 11.5097 43.285 11.3517 43.285 11.3517L53.6597 4.56489C53.6597 4.56489 53.9353 4.41237 54.1117 4.51586C54.3157 4.63025 54.3102 4.86446 54.3102 4.86446L54.3212 8.13259Z" fill="#00B5D3"/>
<path d="M24.6378 51.8889C24.6378 51.8889 22.3556 51.9161 20.0899 50.7832C19.1528 50.3147 17.0359 48.8768 15.4979 46.5183C13.9103 44.0944 13.3425 41.5398 13.1771 40.1019C12.7747 36.5178 13.4086 34.2083 13.4086 34.2083C13.4086 34.2083 13.7559 35.9731 14.7206 37.9394C15.4759 39.4864 16.8099 41.0932 17.9235 42.0246C19.1087 43.0159 20.0513 43.5661 21.0601 43.9419C22.9785 44.65 24.6378 44.6391 24.6378 44.6391L24.6378 41.3274C24.6378 41.3274 24.6323 41.1095 24.8142 40.9843C24.9961 40.8644 25.3048 40.9843 25.3048 40.9843L35.674 47.7656C35.674 47.7656 35.8945 47.9454 35.8945 48.2286C35.8945 48.5118 35.674 48.6698 35.674 48.6698L25.2993 55.4566C25.2993 55.4566 25.0237 55.6091 24.8473 55.5056C24.6433 55.3912 24.6488 55.157 24.6488 55.157L24.6378 51.8889Z" fill="#00B5D3"/>
</svg>
