<svg version="1.1" id="Слой_1" xmlns="http://www.w3.org/2000/svg" x="0" y="0" viewBox="0 0 30 30" xml:space="preserve"><style>.st0{fill:#00b4d3}.st1{fill:#151515}.st2{display:none}.st3{display:inline;fill:#151515}</style><g id="Слой_2_1_"><path class="st0" d="M22.4 1.3C18.6-1 15.3 3 15.3 3S13.8 1.5 11.9.8C10.7.4 9.2.4 8.1 1 5.6 2.4 4.7 5.3 4.7 6.5c-.1 1.9 1.9 7.7 1.9 7.7h16.8l1.7-5.3c.2-.7 1.2-5.3-2.7-7.6zM8.3 7.5c-.8 0-1.5-.7-1.5-1.6 0-.9.7-1.6 1.5-1.6s1.5.7 1.5 1.6c0 .9-.6 1.6-1.5 1.6zm.8-4.2c0-.5.3-.8.8-.8s.8.4.8.8-.3.8-.8.8-.8-.3-.8-.8zm1.7 1.9c-.2 0-.4-.2-.4-.5s.2-.5.4-.5.4.2.4.5-.2.5-.4.5z"/><path class="st1" d="M23.7 14.5H6.4l-.1-.3c-.1-.2-1.9-5.8-1.9-7.8 0-1.8 1.1-4.5 3.7-5.9 1.1-.6 2.7-.7 4.1-.2 1.4.6 2.6 1.6 3.2 2 3.1-3 5.7-2.5 7.3-1.5 4.3 2.5 3.1 7.5 2.9 8l-1.9 5.7zM7 13.5h16l1.5-4.9c.1-.3.4-1.5.2-2.9-.2-1.7-1.1-3.1-2.6-3.9-2-1.2-4.1-.7-6.3 1.5-.2.2-.3.3-.6.3-.1 0-.2-.1-.4-.3-.5-.4-1.7-1.5-3.1-2-1-.4-2.4-.3-3.3.1-2.2 1.2-3.2 3.4-3.2 5 .1 1.4 1.2 5.3 1.8 7.1z"/><path class="st1" d="M14.6 3.3c2 1.7 4.6 2.9 7.3 3.1.7 0 .7-1 0-1-2.4-.1-4.7-1.3-6.5-2.8-.5-.4-1.3.3-.8.7z"/><g class="st2"><path class="st3" d="M22.3 16.6H7.8l-1.7-3.1h18l-1.8 3.1zM8.5 15.5h13.3l.6-1H7.9l.6 1z"/></g><path class="st1" d="M15.1 30c-1.2-.1-4.2-3.7-4.4-4-.1-.2-.2-.4-.6-5.2-.2-2.3-.5-6.2-.5-6.3l.1-1h11l.1 1c-.4 3.5-1.3 11.1-1.5 11.4-.1.4-1.5 1.8-1.8 2.2-1.5 1.8-2.1 1.9-2.4 1.9zm.1-1zm-.1 0zm-3.4-3.5c.3.5 2.8 3.1 3.4 3.4.7-.3 3-2.9 3.3-3.4.1-.6.7-7.5 1.1-11.1h-8.7c.3 3.5.7 10.5.9 11.1zm0 0z"/><path class="st0" d="M20.5 18.5L10 20.3c-.5.1-.9-.2-1-.7v-.3c-.1-.5.2-.9.7-1l10.5-1.8c.5-.1.9.2 1 .7l.1.4c0 .4-.3.9-.8.9zm.2 4.2l-10.5 1.8c-.5.1-.9-.2-1-.7l-.1-.4c-.1-.5.2-.9.7-1l10.5-1.8c.5-.1.9.2 1 .7l.1.4c.1.5-.3 1-.7 1z"/><g class="st2"><path class="st3" d="M10.9 21.9c-.7 0-1.3-.5-1.4-1.2l-.1-.4c-.1-.4 0-.7.2-1.1.2-.3.5-.5.9-.6l8.6-1.5c.4-.1.7 0 1.1.2.3.2.5.5.6.9l.1.4c.1.8-.4 1.5-1.1 1.6l-8.6 1.5c-.2.2-.3.2-.3.2zm8.5-3.7l-8.7 1.5c-.1 0-.2.1-.2.2s-.1.2-.1.3l.1.4c0 .2.2.3.4.3l8.6-1.5c.2 0 .3-.2.3-.4l-.1-.4c0-.1-.1-.2-.2-.2.1-.1 0-.2-.1-.2z"/></g><g class="st2"><path class="st3" d="M10.9 26.4c-.7 0-1.3-.5-1.4-1.2l-.1-.4c-.1-.4 0-.7.2-1.1.2-.3.5-.5.9-.6l8.6-1.5c.8-.1 1.5.4 1.6 1.1l.1.4c.1.8-.4 1.5-1.1 1.6l-8.6 1.5c-.1.2-.2.2-.2.2zm8.5-3.7l-8.7 1.5c-.1 0-.2.1-.2.2s-.1.2-.1.3l.1.4c0 .2.2.3.4.3l8.6-1.5c.2 0 .3-.2.3-.4V23c0-.1-.1-.2-.2-.2 0 0-.1-.1-.2-.1z"/></g></g></svg>