<svg version="1.1" id="Слой_1" xmlns="http://www.w3.org/2000/svg" x="0" y="0" viewBox="0 0 30 30" xml:space="preserve"><style>.st0{display:none}.st1{display:inline}.st3{fill:#151515}.st4{fill:#00b4d3}.st5{display:inline;fill:#151515}</style><g id="Слой_1_1_" class="st0"><g id="ЗУб" class="st1"><path d="M18.4 19.2l-1.5 1-1.6-1.2v-2.2h3.1zm4.3 8.3H11.2l.4-2.4 2.3-1.2 3 1.4 3.2-1.5 2.6 1.3z" fill="#00b5d3"/><path class="st3" d="M18.7 36.8h-.2c-.4-.1-.5-.4-.8-1.8-.2-.6-.5-1.7-.7-2.2-.3.7-1.1 3.2-1.1 3.4-.1.3-.2.6-.5.6-.2 0-.4 0-1.6-1.3-.4-.5-1.2-1.5-1.9-2.8-1-1.9-1.6-4.4-1.3-5.8.5-2.3 1.9-3.7 3.7-3.7.7 0 1.3.5 1.9 1 .3.2.7.5.8.5.1 0 .4-.3.6-.5.5-.5 1.1-1 2-1h.1c1.4 0 3.2 1.2 3.7 3.4.2.9 0 3.3-.9 5.4-.7 1.6-1.6 2.8-2 3.4-1.1 1.2-1.6 1.4-1.8 1.4zm-1.8-5.4c.7 0 1.1.9 1.7 3.3.1.3.2.6.2.8.6-.6 1.8-2.1 2.6-4s1-4.1.9-4.7c-.4-1.6-1.7-2.6-2.7-2.6-.5 0-.9.4-1.3.8s-.8.7-1.3.7-1-.4-1.5-.8c-.4-.3-.9-.7-1.3-.7-1.3 0-2.3 1-2.7 2.8-.2 1 .2 3.3 1.2 5.1.7 1.4 1.7 2.5 2.2 3.1V35c.9-2.6 1.3-3.6 2-3.6zm0-10.4c-.2 0-.3 0-2.2-1.8l-.2-.2v-2.8h4.6V19l-.1.1C17.2 21 17.2 21 16.9 21zm-1.3-2.4c.5.5 1 1 1.3 1.2l1.2-1.2v-1.4h-2.5v1.4z"/><path class="st3" d="M18.8 17.4h-3.7l-5.5-5.3h14.7l-5.5 5.3zm-3.3-1.1h2.9l3.3-3.2h-9.5l3.3 3.2z"/><path class="st3" d="M31 12.2h-7.6c-.5 0-.8-.4-.8-.8V8.7c0-.5.4-.8.8-.8H31c.5 0 .8.4.8.8v2.7c0 .4-.4.8-.8.8zm-7.4-1.1h7.1V8.9h-7.1v2.2zm-13.3 1.1H2.7c-.5 0-.8-.4-.8-.8V8.7c0-.5.4-.8.8-.8h7.6c.5 0 .8.4.8.8v2.7c.1.4-.3.8-.8.8zM3 11.1h7.1V8.9H3v2.2z"/><path class="st3" d="M22.7 13.1H11.1c-.5 0-.9-.4-.9-.9V7.7c0-.5.4-.9.9-.9h11.6c.5 0 .9.4.9.9v4.5c0 .5-.4.9-.9.9zm-11.4-1h11.3V7.9H11.3v4.2zM17 28.4c-3.8 0-6.1-.8-6.2-.8l.3-1s2.2.7 5.8.7c3.7 0 5.8-.7 5.8-.7l.3 1c.1 0-2.2.8-6 .8z"/></g></g><g id="Слой_2_1_" class="st0"><g class="st1"><path class="st4" d="M24.9 8.2c-3.8-2.2-7.1 1.7-7.1 1.7s-1.5-1.5-3.4-2.2c-1.1-.5-2.7-.5-3.7.1-2.5 1.4-3.4 4.3-3.5 5.5 0 2 2 7.7 2 7.7H26l1.7-5.3c.1-.7 1.2-5.2-2.8-7.5zm-14 6.1c-.8 0-1.5-.7-1.5-1.6 0-.9.7-1.6 1.5-1.6s1.5.7 1.5 1.6c0 .9-.6 1.6-1.5 1.6zm.8-4.1c0-.5.3-.8.8-.8s.8.4.8.8c0 .5-.3.8-.8.8s-.8-.3-.8-.8zm1.7 1.8c-.2 0-.4-.2-.4-.5s.2-.5.4-.5.4.2.4.5-.2.5-.4.5z"/><path class="st3" d="M26.2 21.4H8.9l-.1-.4c-.1-.2-1.9-5.8-1.9-7.8 0-1.8 1.1-4.5 3.7-5.9 1.1-.6 2.7-.7 4.1-.2 1.4.6 2.6 1.6 3.2 2 3.1-3 5.6-2.5 7.3-1.5 4.3 2.5 3.1 7.5 2.9 8l-1.9 5.8zM9.6 20.3h15.9l1.5-4.9c.1-.3.4-1.5.2-2.9-.2-1.7-1.1-3-2.6-3.9-2-1.2-4.1-.7-6.3 1.5-.2.2-.3.3-.6.3-.1 0-.2-.1-.4-.3-.5-.4-1.7-1.4-3-2-1.1-.4-2.4-.4-3.3.1-2.2 1.2-3.2 3.4-3.2 5 .1 1.4 1.2 5.3 1.8 7.1z"/><path class="st3" d="M17.2 10.2c2 1.7 4.6 2.9 7.2 3.1.7 0 .7-1 0-1-2.4-.1-4.7-1.3-6.5-2.8-.4-.5-1.2.2-.7.7z"/><g class="st0"><path class="st5" d="M24.9 23.4H10.4l-1.7-3.1h17.9l-1.7 3.1zm-13.8-1h13.3l.6-1H10.5l.6 1z"/></g><path class="st3" d="M17.7 36.8c-1.2-.1-4.2-3.7-4.4-4-.1-.2-.2-.4-.6-5.2-.2-2.3-.5-6.2-.5-6.3l.1-1h11l.1 1c-.4 3.6-1.3 11.1-1.4 11.5-.1.4-1.4 1.8-1.8 2.2-1.7 1.7-2.2 1.8-2.5 1.8zm0-1zm0 0zm-3.4-3.5c.3.5 2.8 3.1 3.4 3.4.7-.3 3-2.9 3.3-3.4.1-.6.7-7.5 1.1-11.1h-8.7c.3 3.5.7 10.5.9 11.1zm0 .1z"/><path class="st4" d="M23.1 25.4l-10.4 1.8c-.5.1-.9-.2-1-.7l-.1-.4c-.1-.5.2-.9.7-1l10.4-1.8c.5-.1.9.2 1 .7l.1.4c.1.4-.2.9-.7 1zm.1 4.2l-10.4 1.8c-.5.1-.9-.2-1-.7l-.1-.4c-.1-.5.2-.9.7-1l10.4-1.8c.5-.1.9.2 1 .7l.1.4c.1.4-.2.9-.7 1z"/><g class="st0"><path class="st5" d="M13.4 28.7c-.7 0-1.3-.5-1.4-1.2v-.3c-.1-.4 0-.7.2-1.1.2-.3.5-.5.9-.6l8.6-1.5c.4-.1.7 0 1.1.2.3.2.5.5.6.9l.1.4c.1.8-.4 1.5-1.1 1.6l-8.6 1.5c-.2.1-.3.1-.4.1zm8.6-3.6l-8.7 1.5c-.1 0-.2.1-.2.2-.1 0-.1.1-.1.2l.1.4c0 .2.2.3.4.3l8.6-1.5c.2 0 .3-.2.3-.4l-.1-.4c0-.1-.1-.2-.2-.2.1-.1 0-.1-.1-.1z"/></g><g class="st0"><path class="st5" d="M13.4 33.2c-.7 0-1.3-.5-1.4-1.2v-.3c-.1-.4 0-.7.2-1.1.2-.3.5-.5.9-.6l8.6-1.5c.8-.1 1.5.4 1.6 1.1l.1.4c.1.8-.4 1.5-1.1 1.6l-8.6 1.5c-.1.1-.2.1-.3.1zm8.6-3.6l-8.7 1.5c-.1 0-.2.1-.2.2-.1 0-.1.1-.1.2l.1.4c0 .2.2.3.4.3l8.6-1.5c.2 0 .3-.2.3-.4l-.1-.4c0-.1-.1-.2-.2-.2.1-.1 0-.1-.1-.1z"/></g></g></g><g id="Слой_3" class="st0"><g class="st1"><path class="st3" d="M33.9 36.8h-34l.8-7.2h32.4l.8 7.2zm-32.8-1h31.6l-.6-5.1H1.6l-.5 5.1z"/></g><g class="st1"><path class="st3" d="M30.8 30.7H3.1V12.3c0-3 2.4-5.4 5.4-5.4h17c3 0 5.4 2.4 5.4 5.4v18.4zM4.1 29.6h25.6V12.3c0-2.4-1.9-4.3-4.3-4.3h-17C6 8 4.1 9.9 4.1 12.3v17.3z"/></g><path d="M21.4 12.2h-9c-3.3 0-6 2.7-6 6v11.5h21V18.2c0-3.3-2.7-6-6-6zm-9.2 1.9c.6 0 1.1.5 1.1 1.1 0 .6-.5 1.1-1.1 1.1s-1.1-.5-1.1-1.1c0-.7.5-1.1 1.1-1.1zm-1.8 5.8c-1 0-1.9-.8-1.9-1.9 0-1 .8-1.9 1.9-1.9 1 0 1.9.8 1.9 1.9-.1 1.1-.9 1.9-1.9 1.9zm3.1-2.3c-.4 0-.7-.3-.7-.7 0-.4.3-.7.7-.7.4 0 .7.3.7.7 0 .4-.3.7-.7.7z" fill="#00b4d3"/><g class="st1"><path fill="none" d="M.9 32.3h32"/><path class="st3" d="M.9 31.8h31.9v1H.9z"/></g></g><g id="Слой_4"><path d="M13.1 0c-.4 0-.7.3-.8.6-.1.4 0 .8.4 1 0 0 3.4 2.1 3.4 4.9 0 1.3-1.1 2.4-2.4 2.4s-2.4-1.1-2.4-2.4c0-1.1.6-1.6.6-1.7.3-.3.4-.7.2-1.1-.2-.4-.7-.5-1.1-.4-.2.1-9 3.6-9 13.5C1.9 24.1 7.8 30 15 30s13.1-5.9 13.1-13.1C28.1 6.1 17.5 0 13.1 0zM15 28.8C8.5 28.8 3.2 23.5 3.2 17c0-6.9 4.6-10.3 6-11.3l1.4-1c-1.1 2.4.2 5 2.6 5.3 2.6.2 4.2-1.6 4-4.1-.2-2.2-1.8-3.6-2.9-4.6 1.7.6 4.5 2 7 4.2 3 2.6 5.5 6.4 5.5 11.4 0 6.6-5.3 11.9-11.8 11.9z"/><path d="M8.5 18.1c-.6-.6-.9-1.4-.9-2.5 0-.7.1-1.3.4-1.8.3-.5.6-.9 1.1-1.2.5-.3 1-.4 1.6-.4.9 0 1.7.3 2.3.9.6.6.9 1.4.9 2.5 0 1-.3 1.9-.9 2.5-.6.6-1.3.9-2.3.9-.9 0-1.7-.3-2.2-.9zm9.4-5.7h2.5l-8.3 12.2H9.6l8.3-12.2zM11.4 17c.2-.3.3-.7.3-1.3 0-.6-.1-1-.3-1.3-.2-.3-.4-.4-.7-.4-.3 0-.5.1-.7.4-.2.3-.3.7-.3 1.3 0 .6.1 1 .3 1.3.2.3.4.4.7.4.3 0 .6-.2.7-.4zm5.6 6.9c-.6-.6-.9-1.4-.9-2.5 0-1 .3-1.9.9-2.5.6-.6 1.3-.9 2.2-.9.9 0 1.7.3 2.3.9.6.6.9 1.4.9 2.5 0 1-.3 1.9-.9 2.5-.6.6-1.3.9-2.3.9-.8 0-1.6-.3-2.2-.9zm3-1.2c.2-.3.3-.7.3-1.3 0-.6-.1-1-.3-1.3-.2-.3-.4-.4-.7-.4-.3 0-.6.1-.7.4-.2.3-.3.7-.3 1.3s.1 1 .3 1.3c.2.3.4.4.7.4.3 0 .6-.1.7-.4z" fill="#e43535"/></g></svg>