<svg version="1.1" id="Слой_1" xmlns="http://www.w3.org/2000/svg" x="0" y="0" viewBox="0 0 30 30" xml:space="preserve"><style>.st0{display:none}.st1{display:inline}.st2{fill:#00b4d3}.st3,.st4{fill:#151515}.st4{display:inline}</style><g id="Слой_2_1_" class="st0"><g class="st1"><path class="st2" d="M78-101c-32.8-19.4-61.6 15-61.6 15S3.2-99-12.5-105.1c-9.8-3.9-22.9-3.9-32.1 1.2-21.5 12-29.3 37-29.8 47.4-.8 16.6 16.6 66.2 16.6 66.2H87.1l14.3-46C103-42 112-81 78-101zM-42.7-47.9c-7.1 0-12.9-6.2-12.9-14 0-7.7 5.8-14 12.9-14s12.9 6.2 12.9 14c0 7.7-5.7 14-12.9 14zm6.2-35.7c0-4 3-7.3 6.7-7.3s6.7 3.3 6.7 7.3-3 7.3-6.7 7.3-6.7-3.3-6.7-7.3zm14.7 16c-2.1 0-3.8-1.8-3.8-4.1s1.7-4.1 3.8-4.1S-18-74-18-71.7s-1.7 4.1-3.8 4.1z"/><path class="st3" d="M89.3 12.7H-59.9l-1-3c-.7-2-16.6-49.9-16.7-66.9 0-15.9 9.9-38.6 31.9-50.8 9.6-5.3 23.6-5.9 35-1.5 12.2 4.8 22.6 13.4 27.5 17.6 26.6-25.6 48.7-21.4 62.6-13.2 36.8 21.7 26.4 64.3 25.1 69.1l-.1.2-15.1 48.5zm-143.4-9H83.4l13.2-42.3c.6-2.2 3.1-12.6 1.5-24.6-2.1-14.9-9.7-26.3-22.6-33.9-17-10-35.2-5.7-54.1 12.9-1.8 1.8-3 2.9-5 2.6-1.2-.2-1.8-.7-3.6-2.2C8.9-87.2-1.5-96.3-13.5-101c-9.2-3.6-20.9-3.2-28.5 1-18.8 10.5-27.4 29.6-27.3 42.8 0 12 10.2 45.6 15.2 60.9z"/><path class="st3" d="M11.6-83.8c17.5 14.5 39.6 25.3 62.5 26.5 5.8.3 5.8-8.7 0-9C53.7-67.4 33.5-77.2 18-90.1c-4.4-3.8-10.8 2.5-6.4 6.3z"/><g class="st0"><path class="st4" d="M77.9 30.3H-47L-62 3.6H92.8L77.9 30.3zm-119.6-9H72.6l4.9-8.7h-124l4.8 8.7z"/></g><path class="st3" d="M15.8 146.1h-.7c-9.6-.6-35.7-31.9-37.1-34.4-.8-1.4-1.9-3.3-5.3-45.2-1.6-20.2-4-53.7-4-53.9l.6-9h94.6l1.1 9C61.4 43 53.5 108.1 52.5 111c-1.2 3.4-12.5 15.7-15.4 18.8-14.2 15.1-18.9 16.3-21.3 16.3zm.2-8.9zm-.8 0zM-14 107.5c3 4.5 23.8 27 29.6 29.5 5.7-2.4 25.6-24.6 28.4-29.1 1-5.3 6.2-64.9 9.8-95.3H-21c2.1 29.1 5.5 89.4 7 94.9zm.1.2z"/><path class="st2" d="M62.1 47.4L-28 63.3c-4.1.7-8.1-2-8.8-6.2l-.5-3.1c-.7-4.1 2-8.1 6.2-8.8L59 29.3c4.1-.7 8.1 2 8.8 6.2l.5 3.1c.7 4.2-2 8.1-6.2 8.8zm1.3 36.1l-90.1 15.9c-4.1.7-8.1-2-8.8-6.2l-.5-3.1c-.7-4.1 2-8.1 6.2-8.8l90.1-15.9c4.1-.7 8.1 2 8.8 6.2l.5 3.1c.7 4.1-2 8.1-6.2 8.8z"/><g class="st0"><path class="st4" d="M-21.1 76.2c-5.8 0-10.9-4.1-11.9-10l-.5-3.1c-.6-3.2.2-6.4 2-9.1 1.9-2.7 4.6-4.4 7.8-5l74.4-13.1c3.2-.6 6.4.2 9.1 2 2.7 1.9 4.4 4.6 5 7.8l.5 3.1c1.2 6.6-3.2 12.9-9.8 14l-74.4 13.1c-.8.2-1.5.3-2.2.3zm73.9-31.5h-.5l-74.4 13.1c-.8.1-1.5.6-2 1.3s-.7 1.5-.5 2.3l.5 3.1c.3 1.7 1.9 2.8 3.6 2.5l74.4-13.1c1.7-.3 2.8-1.9 2.5-3.6l-.5-3.1c-.1-.8-.6-1.5-1.3-2-.5-.3-1.1-.5-1.8-.5z"/></g><g class="st0"><path class="st4" d="M-21.1 114.9c-5.8 0-10.9-4.1-11.9-10l-.5-3.1c-.6-3.2.2-6.4 2-9.1 1.9-2.7 4.6-4.4 7.8-5l74.4-13.1c6.6-1.2 12.9 3.2 14 9.8l.5 3.1c1.2 6.6-3.2 12.9-9.8 14L-19 114.6c-.7.3-1.4.3-2.1.3zm73.9-31.4h-.5l-74.4 13.1c-.8.1-1.5.6-2 1.3s-.7 1.5-.5 2.3l.5 3.1c.3 1.7 1.9 2.8 3.6 2.5l74.4-13.1c1.7-.3 2.8-1.9 2.5-3.6l-.5-3.1c-.1-.8-.6-1.5-1.3-2-.5-.3-1.1-.5-1.8-.5z"/></g></g></g><g id="Шприц" class="st0"><g class="st1"><path class="st3" d="M121.5-45c-1.8 0-3.6-.7-4.9-2L73.5-90.1c-2.7-2.7-2.7-7.2 0-9.9l9.4-9.4c2.7-2.7 7.2-2.7 9.9 0l43.1 43.1c1.3 1.3 2 3.1 2 4.9 0 1.9-.7 3.6-2 4.9l-9.4 9.4c-1.4 1.4-3.2 2.1-5 2.1zM81.3-95l40.2 40.2 6.5-6.5-40.2-40.2-6.5 6.5z"/></g><g class="st1"><path class="st3" d="M83.4 10.3c-1.8 0-3.6-.7-5-2.1L18.2-52c-2.7-2.8-2.7-7.2 0-10l9.3-9.3c1.3-1.3 3.1-2.1 5-2.1s3.7.7 5 2.1l60.2 60.2c1.3 1.3 2.1 3.1 2.1 5s-.7 3.7-2.1 5l-9.3 9.3c-1.4 1.4-3.2 2.1-5 2.1zM25.9-57L83.4.5l6.5-6.6-57.4-57.4-6.6 6.5z"/></g><g class="st1"><path class="st3" d="M-49.4 108.6c-1.9 0-3.7-.7-5.1-2.1l-25.9-26c-1.4-1.3-2.1-3.1-2.1-5.1 0-1.9.7-3.7 2.1-5.1l8.3-8.3c1.3-1.4 3.1-2.1 5.1-2.1 1.9 0 3.7.7 5.1 2.1L-36 87.9c1.4 1.3 2.1 3.1 2.1 5.1 0 1.9-.7 3.7-2.1 5.1l-8.4 8.4c-1.3 1.3-3.1 2.1-5 2.1zm-23.3-33.1l23.3 23.3 5.7-5.7L-67 69.8l-5.7 5.7z"/></g><g class="st1"><path class="st3" d="M-27.2 102.1c-3.5 0-6.8-1.4-9.3-3.8l-35.3-35.1c-2.5-2.5-3.9-5.8-3.9-9.3s1.4-6.9 3.8-9.4L18-46c5.1-5.2 13.5-5.2 18.7-.1L72-11c2.5 2.5 3.9 5.8 3.9 9.3s-1.4 6.9-3.8 9.4l-89.9 90.5c-2.5 2.5-5.9 3.9-9.4 3.9zM27.3-41c-1.1 0-2.2.4-3 1.2l-89.9 90.5c-.8.8-1.2 1.9-1.2 3s.4 2.2 1.2 3l35.3 35.1c.8.8 1.9 1.3 3 1.2 1.1 0 2.2-.4 3-1.2L65.6 1.3c.8-.8 1.2-1.9 1.2-3s-.4-2.2-1.2-3L30.3-39.8c-.8-.8-1.9-1.2-3-1.2z"/></g><g class="st1"><path class="st3" d="M-76 117.6c-1.9 0-3.8-.8-5.2-2.1l-8-8c-1.4-1.4-2.1-3.2-2.1-5.2 0-1.9.8-3.8 2.1-5.2l13.9-13.9c1.4-1.4 3.2-2.1 5.2-2.1s3.8.8 5.2 2.1l8 8c1.4 1.4 2.1 3.2 2.1 5.2 0 1.9-.8 3.8-2.1 5.2l-13.9 13.9c-1.4 1.3-3.3 2.1-5.2 2.1zm-5.6-15.3l5.6 5.6 11.5-11.5-5.6-5.6-11.5 11.5z"/></g><g class="st1"><path class="st3" d="M-111.5 143.8c10.9-10.8 21.8-21.6 32.7-32.3 4.1-4.1-2.2-10.4-6.4-6.4-10.8 10.8-21.7 21.6-32.7 32.4-4.1 4 2.3 10.4 6.4 6.3z"/></g><path fill="#00b4d3" d="M-5.9 4.7l-47.8 47.9 27.4 27.3 69.4-69.4z"/><g class="st1"><path class="st3" d="M-29 83.6l-28.1-28.1L-4.8 3.2l56 .2L-29 83.6zm-15.4-28.1L-29 70.9l58.6-58.6-30.7-.1-43.3 43.3z"/></g><g class="st1"><path class="st3" d="M73.5-22.4L48.8-47.1l39.8-39.7 24.7 24.7-39.8 39.7zm-12-24.7l11.9 11.9 27.1-27.1-11.9-11.8-27.1 27z"/></g></g><g id="Слой_3"><path class="st3" d="M28.1 7.8c-.2 0-.4-.1-.6-.2l-5-5c-.3-.3-.3-.8 0-1.2L23.6.3c.3-.3.8-.3 1.2 0l5 5c.1.2.2.4.2.6 0 .2-.1.4-.2.6l-1.1 1.1c-.2.1-.4.2-.6.2zm-4.7-5.9l4.7 4.7.8-.8-4.7-4.7-.8.8zm.2 12.3c-.2 0-.4-.1-.6-.2l-7-7c-.3-.3-.3-.8 0-1.2l1.1-1.1c.2-.2.4-.2.6-.2.2 0 .4.1.6.2l7 7c.2.2.2.4.2.6 0 .2-.1.4-.2.6L24.2 14c-.1.2-.3.2-.6.2zm-6.7-7.8l6.7 6.7.8-.8-6.7-6.7-.8.8zM8.1 25.7c-.2 0-.4-.1-.6-.2l-3-3c-.2-.2-.2-.4-.2-.6 0-.2.1-.4.2-.6l1-1c.1-.2.4-.3.6-.3.2 0 .4.1.6.2l3 3c.2.2.2.4.2.6 0 .2-.1.4-.2.6l-1 1c-.1.2-.3.3-.6.3zm-2.7-3.9l2.7 2.7.7-.7-2.7-2.7-.7.7z"/><path class="st3" d="M10.7 24.9c-.4 0-.8-.2-1.1-.4l-4.1-4.1c-.3-.3-.5-.7-.5-1.1 0-.4.2-.8.4-1.1L16 7.7c.6-.6 1.6-.6 2.2 0l4.1 4.1c.3.3.5.7.5 1.1s-.2.8-.4 1.1L11.8 24.5c-.3.3-.7.4-1.1.4zm6.4-16.6c-.1 0-.3 0-.4.1L6.3 18.9c-.1.1-.1.2-.1.4 0 .1 0 .3.1.4l4.1 4.1c.1.1.2.2.4.1.1 0 .3 0 .4-.1l10.5-10.6c.1-.1.1-.2.1-.4 0-.1 0-.3-.1-.4l-4.1-4.1h-.5zM5 26.8c-.2 0-.4-.1-.6-.2l-.9-.9c-.2-.2-.2-.4-.2-.6 0-.2.1-.4.2-.6l1.6-1.6c.2-.2.4-.2.6-.2.2 0 .4.1.6.2l.9.9c.2.2.2.4.2.6 0 .2-.1.4-.2.6l-1.6 1.6c-.1.1-.3.2-.6.2zM4.4 25l.6.6 1.3-1.3-.7-.7L4.4 25z"/><path class="st3" d="M.9 29.8L4.7 26c.5-.5-.3-1.2-.7-.7L.2 29.1c-.5.4.2 1.2.7.7z"/><path class="st2" d="M13.2 13.6l-5.6 5.6 3.2 3.2 8.1-8.1z"/><g class="st0"><path class="st4" d="M10.5 22.8l-3.3-3.3 6.1-6.1h6.5l-9.3 9.4zm-1.8-3.3l1.8 1.8 6.8-6.8h-3.6l-5 5z"/></g><path class="st3" d="M22.5 10.4l-2.9-2.9 4.6-4.6 2.9 2.9-4.6 4.6zm-1.4-2.9l1.4 1.4 3.2-3.2-1.4-1.4-3.2 3.2z"/></g></svg>