<svg version="1.1" id="Слой_1" xmlns="http://www.w3.org/2000/svg" x="0" y="0" viewBox="0 0 30 30" xml:space="preserve"><style>.st0{fill:#151515}</style><g id="Слой_3"><path class="st0" d="M30 26H0l.6-4.8c.1-.6.5-1 1.1-1h26.7c.5 0 1 .4 1.1 1L30 26zm-29-.9h28l-.5-3.7c0-.1-.1-.2-.2-.2H1.7c-.1 0-.2.1-.2.2L1 25.1z"/><path class="st0" d="M25.7 21.2H4.3c-.8 0-1.5-.7-1.5-1.6v-7.4C2.8 7.7 6.3 4 10.7 4h8.7c4.3 0 7.9 3.7 7.9 8.3v7.4c-.1.8-.7 1.5-1.6 1.5zm-15-16.3c-3.8 0-7 3.3-7 7.3v7.4c0 .3.3.6.6.6h21.5c.3 0 .6-.3.6-.6v-7.4c0-4-3.1-7.3-7-7.3h-8.7z"/><path d="M18.9 7.5h-7.7C8.3 7.5 6.1 10 6.1 13v7.2H24V13c0-3-2.3-5.5-5.1-5.5zm-7.8 1.8c.5 0 .9.4.9 1s-.4 1-.9 1-.9-.4-.9-1c0-.5.4-1 .9-1zm-1.6 5.5c-.9 0-1.6-.8-1.6-1.7s.7-1.7 1.6-1.7c.9 0 1.6.8 1.6 1.7s-.7 1.7-1.6 1.7zm2.7-2.2c-.3 0-.6-.3-.6-.6 0-.4.3-.6.6-.6s.6.3.6.6-.3.6-.6.6z" fill="#00b4d3"/><path fill="none" d="M.9 22.4h28.2"/><path class="st0" d="M.9 22h28.2v1H.9z"/></g></svg>