<svg xmlns="http://www.w3.org/2000/svg" viewBox="0 0 30 30"><path d="M26.9 30H3.1l1.3-8.1h15.3l7.2 8.1zM4.4 29h20.2l-5.3-6h-14l-.9 6zm14.8-14.6H5.8V6l.4-6h10.2l2.8 6v8.4zm-12.4-1h11.3V6.2L15.7 1H7.2l-.4 5v7.4z"/><path d="M9.2 22.9H6.4v-9.6h2.8v9.6zm-1.7-1h.7v-7.5h-.7v7.5z"/><path fill="#00b4d3" d="M11.4 16.7h6.7v5.2h-6.7z"/><path d="M13.6 1.9h-2.2c-.7 0-.7 1 0 1h2.2c.7.1.7-1 0-1zm1 1.8h-3.1c-.7 0-.7 1 0 1h3.1c.7.1.7-1 0-1zM8.2 23.6H6.3c-.7 0-.7 1 0 1h1.9c.6.1.6-1 0-1zm1.2 1.8H6.3c-.7 0-.7 1 0 1h3.1c.7.1.7-1 0-1zm6.9-19.9h-4.9c-.7 0-.7 1 0 1h4.9c.7.1.7-1 0-1zm.8 21.5h3.8v1h-3.8z" fill="#151515"/></svg>