<svg width="80" height="80" viewBox="0 0 80 80" fill="none" xmlns="http://www.w3.org/2000/svg">
<path d="M43.2 32.5326C43.2 34.9326 42.9333 39.1993 41.3333 43.7326C39.4667 49.0659 36 54.666 31.4667 58.3993C27.2 61.866 22.1333 64.5326 17.6 66.1326C9.86667 68.7993 2.93333 69.0659 2.93333 69.0659C2.93333 69.0659 7.46667 67.466 11.4667 62.1326C15.4667 56.7993 15.4667 53.3326 15.4667 53.3326C6.66667 50.666 0 42.3993 0 32.5326C0 20.5326 9.6 10.9326 21.6 10.9326C33.6 10.9326 43.2 20.5326 43.2 32.5326Z" fill="#00B4D3"/>
<path d="M58.3971 10.9326C51.9971 10.9326 46.1305 13.866 42.1305 18.3993C45.3305 22.1326 47.4638 27.1993 47.4638 32.5326C47.4638 34.9326 47.1971 39.1993 45.5971 43.7326C45.0638 45.3326 44.5305 46.6659 43.7305 48.2659C46.1305 50.6659 49.0638 52.2659 52.5305 53.3326C52.5305 53.3326 52.2638 57.3326 48.2638 62.3993C44.5305 67.4659 39.7305 69.3326 39.7305 69.3326C39.7305 69.3326 46.6638 69.0659 54.3971 66.3993C59.1971 64.7993 63.9971 61.8659 68.2638 58.6659C73.0638 54.9326 76.5305 49.3326 78.1305 43.9993C79.7305 39.4659 79.9971 35.1993 79.9971 32.7993C79.9971 20.5326 70.3971 10.9326 58.3971 10.9326Z" fill="#00B4D3"/>
</svg>
