<svg width="80" height="80" viewBox="0 0 80 80" fill="none" xmlns="http://www.w3.org/2000/svg">
<g clip-path="url(#clip0)">
<path d="M58.4 66.4007C48 66.4007 39.4667 57.8674 39.4667 47.4674C39.4667 44.8007 39.7333 41.0674 41.0667 37.0674C42.9333 31.734 46.4 26.934 50.1333 23.734C54.1333 20.5341 58.9333 17.8674 63.2 16.2674C64.5333 15.7341 65.8667 15.4674 67.2 15.2007C66.9333 15.4674 66.6667 15.7341 66.4 16.0007C62.1333 21.6007 61.6 25.8674 61.6 26.4007L61.3333 28.5341L63.7333 29.3341C71.7333 31.7341 77.3333 39.2007 77.3333 47.4674C77.3333 57.8674 68.8 66.4007 58.4 66.4007ZM58.4 69.0674C70.4 69.0674 80 59.4674 80 47.4674C80 37.6007 73.3333 29.3341 64.5333 26.6674C64.5333 26.6674 64.8 22.6674 68.8 17.6007C72.5333 12.5341 77.3333 10.6674 77.3333 10.6674C77.3333 10.6674 70.4 10.9341 62.6667 13.6007C57.8667 15.2007 53.0667 18.134 48.8 21.3341C44 25.0674 40.5333 30.6674 38.9333 36.0007C37.3333 40.534 37.0667 44.8007 37.0667 47.2007C36.8 59.4674 46.4 69.0674 58.4 69.0674Z" fill="#00B4D3"/>
<path d="M21.6029 66.4007C11.2029 66.4007 2.66953 57.8674 2.66953 47.4674C2.66953 44.8007 2.9362 41.0674 4.26953 37.0674C6.1362 31.734 9.60287 26.934 13.3362 23.734C17.3362 20.5341 22.1362 17.8674 26.4029 16.2674C27.7362 15.7341 29.0695 15.4674 30.4029 15.2007C30.1362 15.4674 29.8695 15.7341 29.6029 16.2674C25.3362 21.8674 24.8029 26.1341 24.8029 26.6674L24.5362 28.8007L26.9362 29.3341C29.0695 29.8674 31.2029 30.9341 33.0695 32.5341C32.5362 33.6007 32.2695 34.4007 32.0029 35.4674C30.4029 40.0007 30.1362 44.534 30.1362 47.734C30.1362 52.8007 31.7362 57.6007 34.6695 61.6007C30.9362 64.534 26.4029 66.4007 21.6029 66.4007ZM21.6029 69.0674C28.0029 69.0674 33.8695 66.134 37.8695 61.6007C34.6695 57.8674 32.5362 52.8007 32.5362 47.4674C32.5362 45.0674 32.8029 40.8007 34.4029 36.2674C34.9362 34.6674 35.4695 33.3341 36.2695 31.7341C33.8695 29.3341 30.9362 27.7341 27.4695 26.6674C27.4695 26.6674 27.7362 22.6674 31.7362 17.6007C35.4695 12.5341 40.2695 10.6674 40.2695 10.6674C40.2695 10.6674 33.3362 10.9341 25.6029 13.6007C20.8029 15.2007 16.0029 18.1341 11.7362 21.3341C6.9362 25.0674 3.46954 30.6674 1.86953 36.0007C0.269534 40.534 0.00286314 44.8007 0.00286293 47.2007C0.00286186 59.4674 9.60286 69.0674 21.6029 69.0674Z" fill="#00B4D3"/>
</g>
<defs>
<clipPath id="clip0">
<rect width="80" height="80" fill="white" transform="translate(80 80) rotate(-180)"/>
</clipPath>
</defs>
</svg>
