<svg width="71" height="71" fill="none" xmlns="http://www.w3.org/2000/svg"><path d="M29.167 23.333c-.172 0-.342-.032-.505-.09L.954 13.032A1.456 1.456 0 010 11.667c0-.613.38-1.155.954-1.368L28.662.09c.324-.12.683-.12 1.01 0L57.38 10.298a1.456 1.456 0 010 2.736L29.67 23.242a1.5 1.5 0 01-.504.09zM5.676 11.666l23.49 8.654 23.491-8.654-23.49-8.654-23.491 8.654z" fill="#222"/><path d="M25.142 56.846c-.17 0-.339-.029-.505-.09L.954 48.036A1.46 1.46 0 010 46.666v-35a1.459 1.459 0 012.917 0V45.65l22.73 8.371a1.456 1.456 0 01.863 1.873 1.455 1.455 0 01-1.368.953zM56.876 26.25a1.459 1.459 0 01-1.458-1.458V11.667a1.459 1.459 0 012.917 0v13.125a1.46 1.46 0 01-1.459 1.459zM29.165 38.004a1.459 1.459 0 01-1.458-1.459v-14.67a1.459 1.459 0 012.917 0v14.67c0 .808-.654 1.459-1.459 1.459z" fill="#222"/><circle cx="51" cy="51" r="20" fill="#00B5D3"/><path d="M51.04 61.25a1.459 1.459 0 01-1.458-1.458v-17.5a1.459 1.459 0 012.917 0v17.5a1.46 1.46 0 01-1.459 1.459z" fill="#fff"/><path d="M59.79 52.5h-17.5a1.459 1.459 0 010-2.916h17.5a1.459 1.459 0 010 2.917z" fill="#fff"/></svg>