<svg width="27" height="22" fill="none" xmlns="http://www.w3.org/2000/svg"><path d="M22.146 21.191H4.645a.871.871 0 01-.868-.867V2.822c0-.484.392-.867.868-.867h17.501a.87.87 0 01.867.867v17.502a.871.871 0 01-.867.867zM4.645 2.721a.103.103 0 00-.102.101v17.502c0 .05.042.102.102.102h17.501a.103.103 0 00.102-.102V2.822a.103.103 0 00-.102-.102H4.645z" fill="#151515"/><path d="M6.642 2.603a.637.637 0 01-.638-.638v-.544a.637.637 0 111.276 0v.544a.637.637 0 01-.638.638zm3.441 0a.637.637 0 01-.638-.638v-.544a.637.637 0 111.276 0v.544c0 .349-.29.638-.638.638zm3.445 0a.637.637 0 01-.637-.638v-.544a.637.637 0 111.275 0v.544a.642.642 0 01-.638.638zm3.438 0a.637.637 0 01-.638-.638v-.544a.637.637 0 111.276 0v.544c0 .349-.28.638-.638.638zm3.445 0a.637.637 0 01-.638-.638v-.544a.637.637 0 111.276 0v.544c0 .349-.29.638-.638.638zm2.232 2.508H4.215v.86h18.428v-.86z" fill="#151515"/><path d="M13.958 13.369c.425.467.647 1.054.647 1.752 0 .535-.136 1.028-.417 1.488-.28.45-.706.816-1.284 1.088-.579.272-1.276.417-2.118.417a7.318 7.318 0 01-1.922-.255c-.629-.17-1.165-.417-1.598-.732l.816-1.65a4.03 4.03 0 001.225.613c.459.145.935.212 1.42.212.535 0 .96-.11 1.267-.314a.997.997 0 00.46-.876c0-.757-.58-1.14-1.736-1.14h-.97v-1.411l1.897-2.152H7.708V8.691h6.471v1.387l-2.083 2.372c.808.153 1.42.45 1.862.919zm5.241-4.66v9.244h-2.135v-7.526H15.22V8.709h3.98z" fill="#00B4D3"/></svg>