<svg width="27" height="22" fill="none" xmlns="http://www.w3.org/2000/svg"><g clip-path="url(#clip0)"><path d="M26.125 6.412H.325v4.337h25.8V6.412z" fill="#00B4D3"/><path d="M25.633 19.483H1.183a1.109 1.109 0 01-1.105-1.105V4.03c0-.612.502-1.105 1.106-1.105h24.449c.612 0 1.105.502 1.105 1.105v14.34a1.11 1.11 0 01-1.105 1.114zm-24.45-15.8a.341.341 0 00-.34.34v14.346c0 .187.154.34.34.34h24.45c.187 0 .34-.153.34-.34V4.031a.341.341 0 00-.34-.34H1.183v-.008z" fill="#151515"/><path d="M3.034 16.338h3.614c.493 0 .493-.766 0-.766H3.034c-.493 0-.493.766 0 .766zm5.18 0h3.614c.493 0 .493-.766 0-.766H8.214c-.494 0-.494.766 0 .766z" fill="#1D1D1B"/></g><defs><clipPath id="clip0"><path fill="#fff" d="M0 0h26.779v22H0z"/></clipPath></defs></svg>