<svg width="18" height="22" fill="none" xmlns="http://www.w3.org/2000/svg"><path d="M8.714 21.992a.891.891 0 01-.613-.247 45.48 45.48 0 01-3.963-4.43C1.443 13.862.082 10.945.082 8.649c0-4.762 3.87-8.631 8.632-8.631s8.631 3.869 8.631 8.631c0 2.296-1.369 5.213-4.056 8.674a45.397 45.397 0 01-3.955 4.431.962.962 0 01-.62.238zm0-21.21C4.377.783.847 4.313.847 8.65c0 2.126 1.31 4.882 3.895 8.198 1.19 1.53 2.5 2.993 3.887 4.354a.118.118 0 00.161 0 46.012 46.012 0 003.887-4.345c2.585-3.317 3.894-6.08 3.894-8.198.009-4.346-3.52-7.875-7.857-7.875z" fill="#161616"/><path d="M12.811 7.892L9.052 4.474a.51.51 0 00-.689 0L4.605 7.892a.516.516 0 00-.094.647.52.52 0 00.46.246h.493v3.249c0 .28.23.51.51.51h1.199c.28 0 .51-.23.51-.51v-1.88c0-.28.23-.51.51-.51h1.03c.28 0 .51.23.51.51v1.88c0 .28.23.51.51.51h1.199c.28 0 .51-.23.51-.51V8.785h.493a.55.55 0 00.46-.246.506.506 0 00-.094-.647z" fill="#00B4D3"/></svg>