<svg width="26" height="22" fill="none" xmlns="http://www.w3.org/2000/svg"><path d="M12.643 21.992c-6.054 0-10.987-4.932-10.987-10.987S6.59.018 12.643.018c6.055 0 10.988 4.932 10.988 10.987 0 6.063-4.933 10.987-10.988 10.987zm0-21.21C7.005.783 2.422 5.368 2.422 11.006s4.583 10.222 10.221 10.222c5.639 0 10.222-4.584 10.222-10.222S18.282.783 12.644.783z" fill="#151515"/><path d="M12.652 10.995s-.008-9.286 0-9.286c5.12.008 9.278 4.158 9.287 9.278v.008h-9.287z" fill="#00B4D3"/><path d="M12.262 19.005v1.557c0 .493.765.493.765 0v-1.557c0-.484-.765-.493-.765 0zm-7.621-8.392H3.085c-.493 0-.493.766 0 .766H4.64c.493 0 .493-.766 0-.766zm7.621-9.165v1.556c0 .494.765.494.765 0V1.448c0-.493-.765-.493-.765 0zm9.934 9.167H20.64c-.494 0-.494.766 0 .766h1.556c.493 0 .501-.766 0-.766zM18.96 5.333a.425.425 0 100-.85.425.425 0 000 .85zm-12.625 0a.425.425 0 100-.85.425.425 0 000 .85zm12.621 12.195a.425.425 0 100-.85.425.425 0 000 .85zm-12.628 0a.425.425 0 100-.85.425.425 0 000 .85z" fill="#151515"/></svg>