<svg width="80" height="80" fill="none" xmlns="http://www.w3.org/2000/svg"><path d="M43.2 32.533c0 2.4-.267 6.666-1.867 11.2-1.866 5.333-5.333 10.933-9.866 14.666-4.267 3.467-9.334 6.134-13.867 7.734-7.733 2.666-14.667 2.933-14.667 2.933s4.534-1.6 8.534-6.933c4-5.334 4-8.8 4-8.8C6.667 50.666 0 42.399 0 32.533c0-12 9.6-21.6 21.6-21.6 12 0 21.6 9.6 21.6 21.6z" fill="#00B4D3"/><path d="M58.397 10.933c-6.4 0-12.267 2.933-16.267 7.466 3.2 3.734 5.334 8.8 5.334 14.134 0 2.4-.267 6.666-1.867 11.2a32.525 32.525 0 01-1.867 4.533c2.4 2.4 5.334 4 8.8 5.067 0 0-.266 4-4.266 9.066-3.733 5.067-8.534 6.934-8.534 6.934s6.934-.267 14.667-2.934c4.8-1.6 9.6-4.533 13.867-7.733 4.8-3.733 8.267-9.333 9.867-14.667 1.6-4.533 1.866-8.8 1.866-11.2 0-12.266-9.6-21.866-21.6-21.866z" fill="#00B4D3"/></svg>