<svg width="80" height="80" fill="none" xmlns="http://www.w3.org/2000/svg"><g clip-path="url(#clip0)" fill="#00B4D3"><path d="M58.4 66.4c-10.4 0-18.933-8.533-18.933-18.933 0-2.666.266-6.4 1.6-10.4 1.866-5.333 5.333-10.133 9.066-13.333 4-3.2 8.8-5.867 13.067-7.467 1.333-.533 2.667-.8 4-1.066l-.8.8c-4.267 5.6-4.8 9.866-4.8 10.4l-.267 2.133 2.4.8c8 2.4 13.6 9.867 13.6 18.133 0 10.4-8.533 18.934-18.933 18.934zm0 2.667c12 0 21.6-9.6 21.6-21.6 0-9.866-6.667-18.133-15.467-20.8 0 0 .267-4 4.267-9.066 3.733-5.067 8.533-6.934 8.533-6.934s-6.933.267-14.666 2.934c-4.8 1.6-9.6 4.533-13.867 7.733-4.8 3.733-8.267 9.333-9.867 14.667-1.6 4.533-1.866 8.8-1.866 11.2C36.8 59.467 46.4 69.067 58.4 69.067z"/><path d="M21.603 66.4c-10.4 0-18.933-8.533-18.933-18.933 0-2.666.266-6.4 1.6-10.4 1.866-5.333 5.333-10.133 9.066-13.333 4-3.2 8.8-5.867 13.067-7.467 1.333-.533 2.667-.8 4-1.066-.267.266-.534.533-.8 1.066-4.267 5.6-4.8 9.867-4.8 10.4l-.267 2.134 2.4.533c2.134.533 4.267 1.6 6.133 3.2-.533 1.067-.8 1.867-1.066 2.933-1.6 4.534-1.867 9.067-1.867 12.267 0 5.067 1.6 9.867 4.534 13.867-3.734 2.933-8.267 4.8-13.067 4.8zm0 2.667c6.4 0 12.267-2.933 16.267-7.466-3.2-3.734-5.334-8.8-5.334-14.134 0-2.4.267-6.666 1.867-11.2a32.525 32.525 0 011.867-4.533c-2.4-2.4-5.334-4-8.8-5.067 0 0 .266-4 4.266-9.066 3.733-5.067 8.534-6.934 8.534-6.934s-6.934.267-14.667 2.934c-4.8 1.6-9.6 4.533-13.867 7.733-4.8 3.733-8.266 9.333-9.866 14.667C.27 40.534.003 44.8.003 47.2c0 12.266 9.6 21.866 21.6 21.866z"/></g><defs><clipPath id="clip0"><path fill="#fff" transform="rotate(-180 40 40)" d="M0 0h80v80H0z"/></clipPath></defs></svg>