<svg width="75" height="51" viewBox="0 0 75 51" fill="none" xmlns="http://www.w3.org/2000/svg">
<path d="M74.82 27.84C74.805 27.7799 74.775 27.72 74.745 27.675L64.08 11.67C62.97 10.005 61.095 9 59.085 9H49.5V6C49.5 2.68497 46.815 0 43.5 0H6C2.68497 0 0 2.68497 0 6V27H46.5V30H0V40.5C0 42.9749 2.02496 45 4.5 45H4.62003C4.53003 44.505 4.5 44.0099 4.5 43.5C4.5 37.71 9.21002 33 15 33C20.79 33 25.5 37.71 25.5 43.5C25.5 44.0099 25.47 44.505 25.38 45H51.12C51.03 44.505 51 44.0099 51 43.5C51 37.71 55.71 33 61.5 33C67.29 33 72 37.71 72 43.5C72 43.92 71.97 44.34 71.91 44.7599C73.695 44.175 75 42.48 75 40.5V28.5C75 28.32 74.955 28.14 74.895 27.9749C74.88 27.93 74.85 27.8849 74.82 27.84ZM49.5 27V12H59.085C60.09 12 61.035 12.4949 61.59 13.335L70.695 27H49.5Z" fill="white"/>
<path d="M15 51C19.1421 51 22.5 47.6421 22.5 43.5C22.5 39.3579 19.1421 36 15 36C10.8579 36 7.5 39.3579 7.5 43.5C7.5 47.6421 10.8579 51 15 51Z" fill="white"/>
<path d="M61.5 51C65.6421 51 69 47.6421 69 43.5C69 39.3579 65.6421 36 61.5 36C57.3579 36 54 39.3579 54 43.5C54 47.6421 57.3579 51 61.5 51Z" fill="white"/>
</svg>
