<svg width="51" height="60" viewBox="0 0 51 60" fill="none" xmlns="http://www.w3.org/2000/svg">
<path d="M19.8801 59.8679C18.5886 59.8088 17.2971 59.7054 16.013 59.5873C15.0629 59.4986 14.1128 59.3805 13.1702 59.2476C12.1088 59.0999 11.0474 58.9448 9.99337 58.7454C9.08783 58.5682 8.20456 58.3245 7.31387 58.1103C6.16339 57.8297 5.0426 57.4383 3.96634 56.9361C2.90493 56.4413 1.89548 55.8505 1.12354 54.9496C0.462943 54.1742 0.12151 53.2659 0.0250185 52.2615C-0.0714733 51.2719 0.12151 50.3562 0.425831 49.4331C0.871178 48.0817 1.38333 46.7598 2.06619 45.5044C2.91235 43.9462 3.95892 42.5431 5.36918 41.4354C6.38606 40.6378 7.53654 40.1061 8.79093 39.8107C9.08783 39.7442 9.38473 39.6999 9.68905 39.6482C9.91915 39.6113 10.0973 39.5005 10.2457 39.3159C10.6688 38.8064 10.9806 38.2303 11.1513 37.6026C11.3739 36.7829 11.5595 35.9484 11.708 35.1139C11.8044 34.5748 11.849 34.021 11.8564 33.4671C11.8713 32.2708 11.8638 31.0671 11.8416 29.8707C11.8341 29.2578 11.7673 28.6448 11.7376 28.0319C11.7302 27.8547 11.6708 27.766 11.4853 27.6922C10.1715 27.1605 9.3105 26.2226 9.00618 24.8269C8.97649 24.6939 8.98392 24.5536 8.98392 24.4207C8.98392 23.1727 8.93938 21.9246 9.01361 20.6766C9.06556 19.8052 9.5406 19.0667 10.2012 18.4981C10.5426 18.2101 10.9583 18.0107 11.3368 17.767C11.3888 17.73 11.4482 17.6784 11.4556 17.6193C11.5595 17.1171 11.6189 16.6076 11.7451 16.1202C12.0123 15.0715 11.8713 14.0081 11.8787 12.9447C11.8935 11.5859 12.0568 10.2566 12.4873 8.96425C13.185 6.85958 14.38 5.06506 16.0278 3.57333C17.0892 2.6133 18.2768 1.84528 19.5758 1.24711C20.6372 0.759707 21.7505 0.420005 22.9084 0.220615C24.4078 -0.0378544 25.9145 -0.0747786 27.4213 0.139382C29.6629 0.449544 31.7189 1.23972 33.5671 2.53945C35.4078 3.8318 36.8478 5.47861 37.8201 7.51683C38.2655 8.44732 38.6069 9.41473 38.7851 10.4191C38.9187 11.2019 38.9558 12.0068 39.0003 12.8044C39.03 13.373 38.9855 13.9416 39.0152 14.5103C39.0374 14.9386 39.1042 15.3595 39.171 15.7878C39.2675 16.3786 39.3863 16.962 39.4902 17.5528C39.5125 17.6784 39.5496 17.7374 39.6906 17.7965C40.5887 18.2027 41.279 18.823 41.7021 19.724C41.947 20.2409 42.0212 20.7874 42.0138 21.3486C41.999 22.3899 42.0212 23.4311 41.9916 24.465C41.9619 25.4915 41.4646 26.3112 40.7 26.9759C40.3215 27.3082 39.891 27.5593 39.4085 27.7217C39.3343 27.7439 39.2527 27.8694 39.2527 27.9507C39.1042 29.7156 39.0448 31.4806 39.1116 33.2456C39.1413 34.0801 39.2749 34.9146 39.3714 35.749C39.4605 36.5318 39.6758 37.2925 39.9652 38.0236C40.1805 38.5553 40.4625 39.0574 40.8708 39.4636C40.9747 39.567 41.1528 39.6261 41.3013 39.6482C43.7878 39.9953 45.7622 41.2138 47.3283 43.1265C48.2338 44.2416 48.9761 45.4601 49.5253 46.782C49.9262 47.7494 50.2824 48.7316 50.6387 49.7137C50.9579 50.5999 51.0766 51.5156 50.9505 52.4461C50.7797 53.7385 50.1859 54.8167 49.1468 55.6364C48.0631 56.493 46.8384 57.0838 45.5321 57.5121C44.6339 57.8075 43.7284 58.1103 42.808 58.3318C41.7911 58.5829 40.752 58.7602 39.7203 58.9448C38.8519 59.0999 37.9834 59.2476 37.1076 59.351C36.0313 59.4765 34.9551 59.5799 33.8714 59.6611C32.669 59.7571 31.4665 59.8384 30.2641 59.8974C29.173 59.9491 28.0819 59.9713 26.9834 59.9934C26.4861 60.0082 25.9888 59.9934 25.4914 59.9934C24.9199 59.9934 21.7505 59.9491 19.8801 59.8679ZM36.1501 22.5376C36.1278 22.5302 36.1056 22.5228 36.0907 22.5154C35.868 22.7222 35.6602 22.9364 35.4301 23.1357C35.3707 23.1874 35.2371 23.217 35.1703 23.1801C33.7675 22.4711 32.3646 21.7548 30.9692 21.0385C29.4253 20.2409 27.8815 19.4433 26.3302 18.6532C24.6527 17.7891 22.9678 16.9325 21.2903 16.0758C21.0677 15.9651 20.845 15.81 20.6075 15.7731C20.0731 15.6918 19.5312 15.7657 19.0116 15.9282C18.21 16.1719 17.542 16.6445 17.0076 17.2943C15.9833 18.5424 15.4934 20.012 15.2188 21.5702C15.1817 21.7917 15.1371 22.0206 15.0926 22.2496C14.9738 22.2126 14.8848 22.1831 14.7809 22.1536C14.766 22.2126 14.7586 22.2496 14.7586 22.2865C14.7586 23.8004 14.7586 25.3069 14.766 26.8208C14.766 26.9242 14.818 27.0349 14.8848 27.1162C15.1297 27.4263 15.4266 27.5888 15.82 27.3599C15.8423 27.4116 15.8645 27.4411 15.8794 27.478C16.154 28.1648 16.3841 28.8664 16.6958 29.531C17.3787 30.9858 18.2249 32.3372 19.3011 33.541C20.3922 34.7668 21.6392 35.7933 23.1905 36.3915C24.5414 36.9158 25.9219 36.9897 27.3174 36.5909C28.4382 36.266 29.4253 35.6826 30.3309 34.9515C31.2438 34.2056 32.0084 33.3342 32.7061 32.3889C32.9584 32.0492 33.1811 31.6874 33.4186 31.3255C33.3592 31.3108 33.3444 31.3034 33.3296 31.3034C32.3943 31.6652 31.4294 31.9163 30.4422 32.0935C29.9004 32.1895 29.3437 32.2412 28.8019 32.3077C28.594 32.3299 28.4233 32.3742 28.2823 32.5809C27.9334 33.0831 27.4287 33.312 26.8052 33.312C26.0407 33.3047 25.2762 33.312 24.5117 33.312C23.5468 33.3047 22.7897 32.5292 22.7451 31.6283C22.6932 30.6313 23.5022 29.7969 24.4671 29.7821C25.2762 29.7673 26.0927 29.7747 26.9017 29.7821C27.399 29.7895 27.8444 29.9593 28.1487 30.3433C28.3491 30.5944 28.5495 30.6092 28.8093 30.5501C28.8984 30.528 28.9874 30.528 29.0691 30.5132C29.9375 30.3433 30.8208 30.2104 31.6743 29.9815C32.6318 29.7304 33.5448 29.3464 34.4058 28.8664C34.5914 28.763 34.7844 28.6818 34.8512 28.4454C34.9476 28.1279 35.0738 27.8177 35.1852 27.5076C35.2 27.4633 35.2371 27.4189 35.2668 27.3746C35.7938 27.6183 36.1427 27.3968 36.1427 26.8355C36.1427 25.5063 36.1427 24.177 36.1427 22.8551C36.1501 22.737 36.1501 22.641 36.1501 22.5376ZM32.3869 36.0518C32.3869 36.0518 32.3572 36.0666 32.3349 36.0814C31.6521 36.746 30.9098 37.3368 30.1008 37.8316C29.0245 38.4962 27.8666 38.9467 26.6048 39.1387C25.1797 39.3528 23.8066 39.1239 22.4854 38.5996C21.4759 38.2008 20.5629 37.6322 19.7168 36.9528C19.3457 36.65 18.9894 36.3251 18.596 35.9853C18.5811 36.1035 18.5589 36.1995 18.5515 36.2881C18.5292 36.6869 18.3733 37.0414 18.1581 37.3737C17.7127 38.0605 17.067 38.4962 16.3173 38.799C16.0649 38.9024 16.0427 38.9688 16.1317 39.2273C16.3099 39.7442 16.6513 40.143 17.0299 40.5196C17.7053 41.199 18.4921 41.7381 19.316 42.2108C20.1844 42.7129 21.1122 43.1043 22.0771 43.3776C22.9901 43.6434 23.9253 43.8059 24.8902 43.8576C25.8477 43.9019 26.8052 43.8576 27.7404 43.6508C28.505 43.4883 29.2621 43.2299 30.0043 42.964C31.3626 42.4766 32.5799 41.7307 33.6636 40.7707C34.1757 40.3202 34.6582 39.8328 34.866 39.1461C34.9254 38.9467 34.8957 38.858 34.6879 38.7768C33.9011 38.4593 33.2182 37.9866 32.8174 37.2186C32.617 36.8715 32.5279 36.458 32.3869 36.0518ZM16.6068 7.07374C17.3119 6.53465 18.0542 6.05463 18.8632 5.67062C19.7019 5.27184 20.5629 4.93952 21.4759 4.78444C22.1068 4.68105 22.7377 4.57028 23.376 4.52597C24.0144 4.48166 24.6601 4.5112 25.3059 4.51859C26.731 4.53336 28.1561 4.43735 29.5664 4.78444C30.6204 5.04291 31.6298 5.38261 32.5725 5.90693C33.1292 6.2171 33.6561 6.57895 34.1534 6.88912C33.9753 6.51988 33.0475 5.49338 31.9193 4.68844C30.1676 3.4404 28.2006 2.73884 26.0556 2.65761C22.1736 2.52468 18.9894 3.97211 16.6068 7.07374Z" fill="#00B5D3"/>
</svg>
