<svg width="80" height="54" viewBox="0 0 80 54" fill="none" xmlns="http://www.w3.org/2000/svg">
<path d="M39.9875 43.3483C29.6754 43.3483 19.3551 43.3483 9.04295 43.3483C8.49066 43.3483 8.49066 43.3483 8.49066 42.7984C8.49066 30.1174 8.49891 17.4364 8.48242 4.75538C8.48242 3.16216 8.98525 1.84392 10.2877 0.865349C10.9883 0.33967 11.7879 0.0404369 12.6782 0.0161748C12.8595 0.00808738 13.0326 0.00808738 13.214 0.00808738C31.0685 0.00808738 48.923 0.0161748 66.7858 0C68.6405 0 70.0006 0.760213 70.9403 2.28064C71.3442 2.93572 71.4926 3.67167 71.4926 4.43997C71.4926 11.0554 71.4926 17.6709 71.4926 24.2864C71.4926 30.4571 71.4926 36.6277 71.4926 42.8065C71.4926 43.3483 71.4926 43.3483 70.932 43.3483C60.6199 43.3483 50.3078 43.3483 39.9875 43.3483ZM40.3255 38.3584C48.28 38.3584 56.2264 38.3584 64.181 38.3584C64.758 38.3584 65.335 38.3665 65.912 38.3584C66.4231 38.3503 66.7858 38.0268 66.8435 37.5254C66.86 37.396 66.8517 37.2585 66.8517 37.1211C66.8517 27.0846 66.8517 17.0401 66.8517 7.00367C66.8517 6.86618 66.86 6.73678 66.8435 6.5993C66.794 6.05744 66.3819 5.7016 65.8213 5.70969C65.4504 5.71777 65.0795 5.71777 64.7085 5.71777C48.1317 5.71777 31.5548 5.71777 14.978 5.71777C14.1207 5.71777 13.7745 6.04936 13.7745 6.89044C13.7745 16.9835 13.7745 27.0765 13.7745 37.1696C13.7745 38.0349 14.096 38.3503 14.978 38.3503C23.4271 38.3665 31.8763 38.3584 40.3255 38.3584Z" fill="#00B5D3"/>
<path d="M39.9795 54.0005C28.2083 54.0005 16.4372 54.0005 4.67433 54.0005C2.54762 54.0005 0.940216 52.9087 0.239553 50.9435C0.0911778 50.531 0.0334762 50.0781 0.01699 49.6414C-0.0159823 48.7437 0.01699 47.8379 0.000503848 46.9321C-0.00773924 46.6086 0.0829347 46.4873 0.437387 46.4873C9.36465 46.4954 18.2919 46.4954 27.2192 46.5035C27.4005 46.5035 27.6231 46.6005 27.755 46.7218C29.1233 48.0158 30.7719 48.6385 32.6514 48.6466C37.556 48.6628 42.4606 48.6628 47.357 48.6466C49.2282 48.6385 50.8521 47.9916 52.2287 46.738C52.3771 46.6005 52.6326 46.5035 52.8387 46.5035C61.7412 46.4954 70.6355 46.4954 79.538 46.4873C79.8678 46.4873 80.0079 46.552 79.9997 46.9078C79.9584 47.9996 80.0491 49.0995 79.9172 50.1752C79.6205 52.472 77.7575 53.9924 75.3835 53.9924C70.4954 53.9924 65.6072 53.9924 60.7191 53.9924C53.8031 54.0005 46.8954 54.0005 39.9795 54.0005Z" fill="#00B5D3"/>
<path d="M40.3152 36.6276C32.2699 36.6276 24.2164 36.6276 16.1712 36.6276C15.5859 36.6276 15.5859 36.6276 15.5859 36.0534C15.5859 26.7044 15.5859 17.3473 15.5859 7.99834C15.5859 7.48074 15.5859 7.47266 16.1382 7.47266C32.2452 7.47266 48.3604 7.47266 64.4674 7.47266C65.0445 7.47266 65.0445 7.47266 65.0445 8.03877C65.0445 17.3878 65.0445 26.7449 65.0445 36.0939C65.0445 36.6196 65.0445 36.6196 64.5004 36.6196C56.4387 36.6276 48.3769 36.6276 40.3152 36.6276ZM35.6496 10.9421C34.4296 10.8936 33.3168 11.9126 33.3003 13.2309C33.2756 14.4601 34.3719 15.5277 35.6331 15.5277C36.9438 15.5277 37.9742 14.444 37.9906 13.2309C38.0071 12.0339 36.8613 10.8694 35.6496 10.9421ZM31.9814 18.9567C33.1355 19.0133 34.1906 18.0429 34.1906 16.8055C34.1906 15.6247 33.2097 14.6704 31.9979 14.6623C30.7697 14.6542 29.7723 15.6813 29.797 16.8297C29.83 18.0267 30.7532 18.9567 31.9814 18.9567ZM28.5688 21.7307C28.5111 22.8387 29.5662 23.7849 30.6378 23.793C31.7589 23.8011 32.781 22.8144 32.7645 21.7226C32.748 20.6146 31.7094 19.6846 30.6625 19.6684C29.6486 19.6442 28.4781 20.6066 28.5688 21.7307ZM30.0361 26.6155C29.9619 27.683 30.951 28.5807 31.9897 28.5645C33.0695 28.5484 33.9845 27.6749 33.9845 26.6236C33.9845 25.5722 33.0778 24.6988 31.9979 24.6745C30.9428 24.6583 29.9701 25.5722 30.0361 26.6155ZM35.6496 28.3947C34.545 28.33 33.7537 29.3409 33.7619 30.2063C33.7702 31.2172 34.611 32.0259 35.6331 32.0664C36.5069 32.0987 37.5125 31.2415 37.5125 30.2305C37.5125 29.2843 36.6553 28.3219 35.6496 28.3947ZM42.4172 31.5164C42.4172 30.554 41.6258 29.8019 40.6284 29.81C39.6475 29.8181 38.8974 30.5459 38.8891 31.5083C38.8809 32.4626 39.6805 33.2552 40.6532 33.2552C41.6094 33.2552 42.4172 32.4626 42.4172 31.5164ZM45.6155 31.8157C46.4893 31.8884 47.2888 31.0959 47.2888 30.2063C47.2888 29.3247 46.5635 28.605 45.6567 28.5888C44.7417 28.5807 43.9751 29.3167 43.9751 30.2063C43.9834 31.1363 44.8407 31.8804 45.6155 31.8157ZM50.8334 26.6316C50.924 25.9685 50.2399 25.1112 49.3249 25.1031C48.4676 25.1031 47.7505 25.7906 47.7587 26.6236C47.7669 27.4242 48.4923 28.1602 49.3002 28.144C50.075 28.1359 50.8828 27.4727 50.8334 26.6316ZM50.6603 23.1136C51.4681 23.1056 52.0781 22.499 52.0698 21.7064C52.0616 20.93 51.4021 20.2992 50.6108 20.3235C49.8195 20.3397 49.1848 20.9867 49.2012 21.755C49.2177 22.4424 49.7947 23.1541 50.6603 23.1136ZM50.6026 16.8055C50.6603 16.0938 49.9678 15.4872 49.2837 15.5196C48.5336 15.5519 47.973 16.1019 47.9813 16.8378C47.9895 17.5333 48.5913 18.1156 49.3002 18.1156C50.0338 18.1156 50.6026 17.5495 50.6026 16.8055ZM46.8602 13.2147C46.852 12.5758 46.2667 12.0178 45.6155 12.0339C44.9808 12.0501 44.4038 12.6081 44.4038 13.2147C44.4038 13.8455 44.989 14.4197 45.6402 14.4197C46.2914 14.4278 46.8684 13.8536 46.8602 13.2147ZM41.7083 11.9045C41.7495 11.2899 41.2054 10.8694 40.6614 10.8451C40.0761 10.8208 39.5568 11.3384 39.5651 11.9126C39.5651 12.4787 40.0514 12.964 40.6367 12.964C41.1972 12.964 41.7495 12.5515 41.7083 11.9045Z" fill="#00B5D3"/>
</svg>
