<svg width="56" height="56" viewBox="0 0 56 56" fill="none" xmlns="http://www.w3.org/2000/svg">
<path d="M52.1811 45.8183H43.2721C37.658 45.8183 33.0905 41.2507 33.0905 35.6367C33.0905 30.0226 37.658 25.455 43.2721 25.455H52.1811C52.8845 25.455 53.4538 24.8858 53.4538 24.1823V20.3642C53.4538 17.6953 51.3837 15.5248 48.7681 15.3144L41.4588 2.54751C40.7815 1.36676 39.6877 0.522836 38.3789 0.172404C37.0763 -0.175641 35.7142 0.00715123 34.5484 0.685703L9.49161 15.2733H5.09087C2.28324 15.2733 0 17.5564 0 20.3642V50.9091C0 53.7168 2.28312 56 5.09087 56H48.3629C51.1706 56 53.4538 53.7169 53.4538 50.9091V47.091C53.4538 46.3875 52.8845 45.8183 52.1811 45.8183ZM43.0373 10.4295L45.8104 15.2733H34.7175L43.0373 10.4295ZM14.5506 15.2733L35.8297 2.88554C36.4052 2.54871 37.0775 2.45922 37.7202 2.6308C38.3702 2.80476 38.9121 3.22487 39.249 3.81274L39.2516 3.8174L19.5751 15.2733H14.5506Z" fill="white"/>
<path d="M52.18 28.001H43.271C39.0601 28.001 35.6348 31.4263 35.6348 35.6372C35.6348 39.8481 39.0601 43.2735 43.271 43.2735H52.18C54.2854 43.2735 55.9981 41.5608 55.9981 39.4553V31.8191C55.9981 29.7136 54.2854 28.001 52.18 28.001ZM43.271 38.1826C41.8678 38.1826 40.7256 37.0404 40.7256 35.6372C40.7256 34.2341 41.8678 33.0918 43.271 33.0918C44.6742 33.0918 45.8164 34.2341 45.8164 35.6372C45.8165 37.0404 44.6743 38.1826 43.271 38.1826Z" fill="white"/>
</svg>
