<svg width="21" height="17" fill="none" xmlns="http://www.w3.org/2000/svg"><path d="M.333.71h2.583c.432 0 .742.046 1.066.394.21.232.348.495.433.788.495 1.693.998 3.387 1.492 5.08.464 1.561.905 3.138 1.384 4.692.302.974 1.137 1.508 2.134 1.508h7.955c.449 0 .449-.696 0-.696H9.727c-.155 0-.31.008-.464 0-.627-.023-1.106-.394-1.3-.982-.502-1.523-.911-3.092-1.36-4.63L5.096 1.73a2.83 2.83 0 00-.449-.905C4.261.3 3.781.037 3.14.014c-.936-.031-1.871 0-2.807 0-.44 0-.448.696 0 .696zm7.762 16.196c-.92 0-1.662-.75-1.662-1.662 0-.913.75-1.662 1.662-1.662.913 0 1.662.75 1.662 1.662a1.67 1.67 0 01-1.662 1.662zm0-2.629a.967.967 0 10.001 1.934.967.967 0 000-1.934zm8.149 2.629c-.92 0-1.662-.75-1.662-1.662 0-.913.75-1.662 1.662-1.662.912 0 1.662.75 1.662 1.662 0 .912-.742 1.662-1.662 1.662zm0-2.629a.967.967 0 100 1.934.967.967 0 000-1.934z" fill="#151515"/><path d="M19.197 1.715H6.1c-.572 0-.982.548-.812 1.082l2.064 6.996a.85.85 0 00.812.588h8.883c.37 0 .703-.24.811-.595l2.15-6.997c.17-.526-.24-1.074-.812-1.074zm-3.44 6.409a.44.44 0 01-.441.44h-5.79a.44.44 0 110-.881h5.79c.24-.008.44.193.44.44zm.34-1.624H8.992a.44.44 0 110-.881h7.105a.44.44 0 01.44.44.436.436 0 01-.44.441zm.757-2.072H8.46a.44.44 0 110-.881h8.403a.44.44 0 11-.008.881z" fill="#00B4D3"/></svg>