<svg width="14" height="14" fill="none" xmlns="http://www.w3.org/2000/svg"><path d="M7 14a6.99 6.99 0 01-7-7c0-3.873 3.127-7 7-7s7 3.127 7 7-3.127 7-7 7zM7 .467C3.407.467.467 3.407.467 7c0 3.593 2.94 6.533 6.533 6.533 3.593 0 6.533-2.94 6.533-6.533 0-3.593-2.94-6.533-6.533-6.533z" fill="#151515"/><path d="M11.293 6.253L6.767 8.867A.847.847 0 015.6 8.54a.847.847 0 01.327-1.167l4.526-2.613a.848.848 0 011.167.327.848.848 0 01-.327 1.166z" fill="#00B4D3"/><path d="M5.133 4.853l1.914 2.754c.28.373.186.933-.234 1.166-.373.28-.933.187-1.166-.233L3.733 5.833c-.28-.373-.186-.933.234-1.166.373-.28.886-.187 1.166.186z" fill="#00B4D3"/></svg>