<svg width="16" height="20" fill="none" xmlns="http://www.w3.org/2000/svg"><path d="M4.8.703h9.92c-.117-.115-.232-.231-.348-.347v19.273l.348-.348H4.8c-.448 0-.448.696 0 .696h9.92a.357.357 0 00.347-.348V.356a.357.357 0 00-.348-.348H4.802c-.441 0-.449.695 0 .695z" fill="#151515"/><path d="M5.944 6.393a1.33 1.33 0 100-2.659 1.33 1.33 0 000 2.66zm-1.677 7.554L3.185 12.5l-.495 1.886c-.016.024-.039.039-.054.062l-1.508 2.033a.728.728 0 00.093.982.714.714 0 001.028-.116L3.772 15.3c.008-.016.023-.031.031-.047a.622.622 0 00.209-.34l.255-.966z" fill="#00B5D3"/><path d="M9.169 10.738s-1.647-.742-1.902-.982c-.364-.34-.534-1.46-.789-1.94-.139-.27-.363-.92-1.175-.982-.665-.046-1.484.41-1.577.503L1.84 8.89a.643.643 0 00-.178.378l-.255 2.428a.56.56 0 00.494.61h.016a.56.56 0 00.61-.494s.17-1.724.302-2.049c.093-.2.642-.68 1.098-1.051l-.564 2.667s.34.564.425.696l.108.17 3.224 5.048a.786.786 0 001.082.24l.031-.023a.786.786 0 00.24-1.083l-2.977-4.654.387-2.056.31.672a.61.61 0 00.146.194.724.724 0 00.147.108l2.188 1.059c.27.131.603.016.734-.255l.008-.016a.55.55 0 00-.247-.742z" fill="#00B5D3"/></svg>