<svg width="15" height="15" fill="none" xmlns="http://www.w3.org/2000/svg"><path d="M6.85 7.75L.4 2.85l.65-.3h13.1l.45.4-6.4 4.8c-.4.3-.95.3-1.35 0z" fill="#00B4D3"/><path d="M13.85 12.6H1.15C.5 12.6 0 12.1 0 11.5v-8c0-.65.5-1.15 1.15-1.15h12.7C14.5 2.4 15 2.9 15 3.5v8c0 .6-.5 1.1-1.15 1.1zM1.15 2.8c-.4 0-.75.3-.75.7v8c0 .4.35.75.75.75h12.7c.4 0 .75-.35.75-.75v-8c0-.4-.35-.75-.75-.75H1.15v.05z" fill="#151515"/><path d="M.65 12.2c-.05 0-.1-.05-.15-.1-.05-.1-.05-.2.05-.3L4.7 8.55c.1-.05.2-.05.3.05.05.1.05.2-.05.3L.8 12.15c-.05.05-.1.05-.15.05zm13.8 0c-.05 0-.1 0-.15-.05L10.15 8.9c-.1-.05-.1-.2-.05-.3.05-.1.2-.1.3-.05l4.15 3.25c.1.05.1.2.05.3 0 .1-.05.1-.15.1z" fill="#151515"/></svg>