<svg width="15" height="10" viewBox="0 0 15 10" fill="none" xmlns="http://www.w3.org/2000/svg">
<path d="M14.0969 0.714478L9.78363 5.00001L14.0969 9.28553C14.1749 9.12256 14.2222 8.9424 14.2222 8.75001V1.25001C14.2222 1.05759 14.1749 0.87745 14.0969 0.714478Z" fill="#00B5D3"/>
<path d="M12.9722 0H1.25001C1.05759 0 0.87745 0.0473056 0.714478 0.125278L6.22734 5.61036C6.71479 6.09781 7.50745 6.09781 7.9949 5.61036L13.5078 0.125278C13.3448 0.0473056 13.1646 0 12.9722 0Z" fill="#00B5D3"/>
<path d="M0.125278 0.714478C0.0473056 0.87745 0 1.05759 0 1.25001V8.75001C0 8.94242 0.0473056 9.12259 0.125278 9.28553L4.43858 5.00001L0.125278 0.714478Z" fill="#00B5D3"/>
<path d="M9.19445 5.58923L8.58409 6.19959C7.7719 7.01179 6.45031 7.01179 5.63812 6.19959L5.02778 5.58923L0.714478 9.87476C0.87745 9.95273 1.05759 10 1.25001 10H12.9722C13.1646 10 13.3448 9.95273 13.5078 9.87476L9.19445 5.58923Z" fill="#00B5D3"/>
</svg>
