<svg width="14" height="14" fill="none" xmlns="http://www.w3.org/2000/svg"><path d="M7 14c-.093 0-.28-.047-.7-.467-1.353-1.4-4.527-5.786-4.433-8.4C1.913 2.24 4.2 0 7 0c2.847 0 5.133 2.333 5.133 5.133 0 1.82-1.446 4.294-2.286 5.6-.56.84-1.12 1.634-1.68 2.287C7.327 14 7.093 14 7 14zM7 .467c-2.52 0-4.573 2.053-4.667 4.666-.046 1.587 1.307 3.92 2.1 5.134 1.12 1.726 2.24 2.986 2.567 3.173.7-.373 4.667-5.367 4.667-8.307A4.68 4.68 0 007 .467z" fill="#151515"/><path d="M7 7.653a2.52 2.52 0 100-5.04 2.52 2.52 0 000 5.04z" fill="#00B4D3"/></svg>