<svg width="14" height="14" fill="none" xmlns="http://www.w3.org/2000/svg"><g clip-path="url(#clip0)"><path d="M8.913 14a4.553 4.553 0 01-1.633-.327c-.653-.28-2.287-1.306-3.733-2.706C1.773 9.24.233 6.86.093 5.973c-.14-.933-.046-1.586.28-2.24.467-.933 1.26-1.773 1.774-1.68.233.047.98.747 1.586 1.354C5.04 4.713 5.04 4.853 5.04 4.993c0 .327-.327.654-.7 1.027-.28.28-.607.607-.653.793 0 .187.373.887 1.4 1.96.886.934 1.773 1.587 2.1 1.634.14 0 .42-.327.653-.56.373-.42.747-.84 1.167-.84.093 0 .28 0 1.54 1.213.466.467 1.306 1.26 1.4 1.633.14.467-.98 1.634-2.147 2.054-.28.046-.56.093-.887.093zM2.007 2.567c-.14 0-.7.42-1.214 1.4-.28.513-.326 1.12-.233 1.866.14.7 1.493 2.987 3.313 4.76 1.4 1.354 2.987 2.38 3.594 2.614.606.233 1.54.42 2.146.186.98-.326 1.727-1.213 1.82-1.446-.233-.467-2.146-2.24-2.52-2.474-.233.047-.513.374-.746.654-.327.373-.654.746-1.027.746-.7 0-1.96-1.26-2.427-1.773-.606-.653-1.633-1.82-1.54-2.38.094-.373.42-.7.794-1.073.186-.187.513-.514.56-.654-.28-.373-2.147-2.24-2.52-2.426z" fill="#151515"/><path d="M8.633 7.42c-.046 0-.046 0 0 0a.567.567 0 01-.56-.56c0-.14-.046-.513-.233-.7-.187-.187-.56-.233-.7-.187-.28.047-.56-.186-.607-.513-.046-.28.187-.56.514-.607.093 0 .98-.093 1.586.514.56.606.56 1.446.56 1.54-.046.28-.28.513-.56.513z" fill="#00B4D3"/><path d="M11.013 7.513c-.28 0-.513-.233-.56-.513 0 0-.14-1.587-1.073-2.52-.98-.98-2.427-.933-2.427-.933-.28 0-.56-.234-.56-.514s.234-.56.514-.56c.093 0 1.913-.046 3.22 1.26 1.26 1.214 1.4 3.127 1.4 3.22.046.28-.187.514-.514.56z" fill="#00B4D3"/><path d="M13.44 7.7a.567.567 0 01-.56-.56c0-.047-.047-2.52-1.867-4.34C9.24.98 6.813 1.073 6.767 1.073c-.28 0-.56-.233-.56-.513S6.44 0 6.72 0c.14 0 2.987-.14 5.087 2.053C13.953 4.2 14 7 14 7.14c0 .28-.233.56-.56.56z" fill="#00B4D3"/></g><defs><clipPath id="clip0"><path fill="#fff" d="M0 0h14v14H0z"/></clipPath></defs></svg>