<svg width="24" height="20" fill="none" xmlns="http://www.w3.org/2000/svg"><path d="M16.088 9.037a4.947 4.947 0 00-4.948 4.948 4.943 4.943 0 004.948 4.948 4.947 4.947 0 004.948-4.948 4.943 4.943 0 00-4.948-4.948zm2.543 3.487l-3.579 3.58a.451.451 0 01-.317.131h-.046a.434.434 0 01-.325-.201l-.897-1.345a.446.446 0 11.742-.495l.596.89 3.192-3.194a.443.443 0 01.634 0 .443.443 0 010 .634z" fill="#00B4D3"/><path d="M10.839 9.98c-.998 0-1.925-.58-2.606-1.623-.657-1.005-1.012-2.327-1.012-3.734 0-3.17 1.816-4.592 3.626-4.592 1.809 0 3.625 1.422 3.625 4.592 0 1.407-.363 2.73-1.012 3.734-.704 1.044-1.624 1.624-2.621 1.624zm0-9.261c-1.778 0-2.93 1.53-2.93 3.896 0 2.575 1.314 4.67 2.93 4.67s2.93-2.095 2.93-4.67c0-2.365-1.152-3.896-2.93-3.896zM7.986 9.741c-.03.077.031-.07 0 0-.023.039-.038.085-.07.131a2.016 2.016 0 01-.309.418c-.448.472-1.074.704-1.716.75-.51.039-.959.07-1.415.325a2.827 2.827 0 00-.943.896c-.564.797-.827 1.81-.982 2.76-.162.982-.224 1.98-.224 2.969 0 .541.016 1.09.062 1.639.015.185.147.348.348.348h9.532c.449 0 .449-.696 0-.696H2.737l.348.348a18.228 18.228 0 01.093-4.105c.131-.951.347-1.948.858-2.768.208-.332.487-.634.842-.82.487-.247 1.036-.17 1.554-.27.936-.186 1.894-.804 2.227-1.74.147-.417-.526-.602-.673-.185z" fill="#151515"/><path d="M5.76 16.034v3.595c0 .448.696.448.696 0v-3.595c0-.448-.696-.448-.696 0z" fill="#151515"/></svg>