<svg width="26" height="26" viewBox="0 0 26 26" fill="none" xmlns="http://www.w3.org/2000/svg">
<g clip-path="url(#clip0)">
<path d="M24.4142 19.1223L20.778 16.3952C21.687 14.8369 22.0766 13.0188 22.0766 11.0709C22.0766 4.96731 17.1419 0.0325317 11.0383 0.0325317C4.93478 0.0325317 0 4.96731 0 11.0708C0 17.1743 4.93478 22.1091 11.0383 22.1091C12.9863 22.1091 14.6745 21.5897 16.3627 20.8105L19.0898 24.4466C20.5183 26.2647 23.2454 26.5244 24.9336 24.8362C26.492 23.2779 26.3621 20.5508 24.4142 19.1223ZM11.0383 19.5119C6.36326 19.5119 2.59725 15.7459 2.59725 11.0709C2.59725 6.3958 6.36326 2.62978 11.0383 2.62978C15.7134 2.62978 19.4794 6.3958 19.4794 11.0708C19.4794 15.7458 15.7134 19.5119 11.0383 19.5119Z" fill="#00B5D3"/>
</g>
<defs>
<clipPath id="clip0">
<rect width="26" height="26" fill="white"/>
</clipPath>
</defs>
</svg>
