<svg version="1.1" id="Слой_1" xmlns="http://www.w3.org/2000/svg" x="0" y="0" viewBox="0 0 1028 114" xml:space="preserve"><style>.st0{fill:#00b1cf}</style><path class="st0" d="M38.27 49.08l26.31-26.31c3.17-3.17 3.17-8.32 0-11.49L54.01.71 3.19 51.53c-5.12 5.12-1.5 13.87 5.74 13.87h45.66L38.27 49.08z"/><path class="st0" d="M99.09 49.23H53.43l16.32 16.32-26.31 26.31c-3.17 3.17-3.17 8.32 0 11.49l10.57 10.57 50.82-50.82c5.12-5.12 1.5-13.87-5.74-13.87z"/><path d="M238.67 71.31c0-11.6-9.4-21-21-21h-42.82a5.25 5.25 0 110-10.5h54.89v-17.5H169.6c-11.6 0-21 9.4-21 21s9.4 21 21 21h42.82a5.25 5.25 0 110 10.5h-60.03v17.5h65.28c11.6 0 21-9.4 21-21zm91.22-49H241.6v17.5h33.65v52.5h21v-52.5h33.64zm184.98 0l-19.74 45.94-19.73-45.94h-29.24v70h21V45.64l18.54 46.67h18.87l18.54-46.68v46.68h21v-70zm-104.03 0h-51.12c-11.6 0-21 9.4-21 21v28c0 11.6 9.4 21 21 21h51.12c11.6 0 21-9.4 21-21v-28c0-11.59-9.4-21-21-21zm0 49c0 1.93-1.57 3.5-3.5 3.5h-44.12c-1.93 0-3.5-1.57-3.5-3.5v-28c0-1.93 1.57-3.5 3.5-3.5h44.12c1.93 0 3.5 1.57 3.5 3.5v28zm320.01-49h-88.3v17.5h33.65v52.5h21v-52.5h33.65zm80.94 0h-51.12c-11.6 0-21 9.4-21 21v28c0 11.6 9.4 21 21 21h51.12c11.6 0 21-9.4 21-21v-28c0-11.59-9.4-21-21-21zm0 49c0 1.93-1.57 3.5-3.5 3.5h-44.12c-1.93 0-3.5-1.57-3.5-3.5v-28c0-1.93 1.57-3.5 3.5-3.5h44.12c1.93 0 3.5 1.57 3.5 3.5v28zm-181.7 21h21.5l-35.22-70H588.3l-35.22 70h21l7.04-14h41.91l7.06 14zm-41.92-28l13.91-27.65L616 64.31h-27.83zm319.9 28h23.72l-17.07-20c9.03-4.26 15.25-13.51 15.07-24.2-.24-14.41-12.37-25.8-26.78-25.8h-58.04v17.5h53.83c5.74 0 10.35 4.84 9.98 10.67-.34 5.31-5 9.33-10.32 9.33h-42.48c-6.08 0-11 4.92-11 11v21.5h21v-14c0-1.93 1.57-3.5 3.5-3.5h23.66l14.93 17.5zm76.33-39.17v11.17h23.81v7c0 1.93-1.57 3.5-3.5 3.5h-40.62c-1.93 0-3.5-1.57-3.5-3.5v-28c0-1.93 1.57-3.5 3.5-3.5h53.62v-17.5h-57.12c-11.6 0-21 9.4-21 21v28c0 11.6 9.4 21 21 21h45.62c11.6 0 21-9.4 21-21V53.14H984.4z" fill="#1a2021"/></svg>