<svg width="16" height="12" viewBox="0 0 16 12" fill="none" xmlns="http://www.w3.org/2000/svg">
<path d="M1.35518 0.762924C1.09643 0.439478 0.624456 0.387037 0.30101 0.645794C-0.0224365 0.904551 -0.0748775 1.37652 0.18388 1.69997L1.35518 0.762924ZM4.76953 6.23145L5.35518 6.69997C5.57431 6.42605 5.57431 6.03684 5.35518 5.76292L4.76953 6.23145ZM0.18388 10.7629C-0.0748775 11.0864 -0.0224365 11.5583 0.30101 11.8171C0.624456 12.0759 1.09643 12.0234 1.35518 11.7L0.18388 10.7629ZM0.18388 1.69997L4.18388 6.69997L5.35518 5.76292L1.35518 0.762924L0.18388 1.69997ZM4.18388 5.76292L0.18388 10.7629L1.35518 11.7L5.35518 6.69997L4.18388 5.76292Z" fill="#00B5D3"/>
<path d="M6.113 0.762924C5.85424 0.439478 5.38227 0.387037 5.05882 0.645794C4.73538 0.904551 4.68293 1.37652 4.94169 1.69997L6.113 0.762924ZM9.52734 6.23145L10.113 6.69997C10.3321 6.42605 10.3321 6.03684 10.113 5.76292L9.52734 6.23145ZM4.94169 10.7629C4.68293 11.0864 4.73538 11.5583 5.05882 11.8171C5.38227 12.0759 5.85424 12.0234 6.113 11.7L4.94169 10.7629ZM4.94169 1.69997L8.94169 6.69997L10.113 5.76292L6.113 0.762924L4.94169 1.69997ZM8.94169 5.76292L4.94169 10.7629L6.113 11.7L10.113 6.69997L8.94169 5.76292Z" fill="#00B5D3"/>
<path d="M10.8708 0.762924C10.6121 0.439478 10.1401 0.387037 9.81663 0.645794C9.49319 0.904551 9.44075 1.37652 9.6995 1.69997L10.8708 0.762924ZM14.2852 6.23145L14.8708 6.69997C15.0899 6.42605 15.0899 6.03684 14.8708 5.76292L14.2852 6.23145ZM9.6995 10.7629C9.44075 11.0864 9.49319 11.5583 9.81663 11.8171C10.1401 12.0759 10.6121 12.0234 10.8708 11.7L9.6995 10.7629ZM9.6995 1.69997L13.6995 6.69997L14.8708 5.76292L10.8708 0.762924L9.6995 1.69997ZM13.6995 5.76292L9.6995 10.7629L10.8708 11.7L14.8708 6.69997L13.6995 5.76292Z" fill="#00B5D3"/>
</svg>
