<svg width="6" height="32" viewBox="0 0 6 32" fill="none" xmlns="http://www.w3.org/2000/svg">
<path d="M0.872 0.199998H4.568L3.908 21.76H1.488L0.872 0.199998ZM2.72 31.22C2.07467 31.22 1.51733 31 1.048 30.56C0.608 30.0907 0.388 29.548 0.388 28.932C0.388 28.2867 0.608 27.7587 1.048 27.348C1.488 26.908 2.04533 26.688 2.72 26.688C3.36533 26.688 3.908 26.908 4.348 27.348C4.788 27.7587 5.008 28.2867 5.008 28.932C5.008 29.548 4.788 30.0907 4.348 30.56C3.908 31 3.36533 31.22 2.72 31.22Z" fill="#C0C0C0"/>
</svg>
