<svg width="22" height="22" viewBox="0 0 22 22" fill="none" xmlns="http://www.w3.org/2000/svg">
<rect width="22" height="22" rx="4" fill="#00B5D3"/>
<path d="M9.82333 11.0019L13.2785 7.5466C13.3736 7.45169 13.426 7.32478 13.426 7.18947C13.426 7.05409 13.3736 6.92726 13.2785 6.8322L12.9757 6.52958C12.8808 6.43437 12.7538 6.38196 12.6185 6.38196C12.4832 6.38196 12.3563 6.43437 12.2613 6.52958L8.14733 10.6434C8.05189 10.7388 7.99963 10.8662 8 11.0017C7.99963 11.1378 8.05181 11.265 8.14733 11.3605L12.2574 15.4704C12.3525 15.5656 12.4793 15.618 12.6147 15.618C12.75 15.618 12.8769 15.5656 12.972 15.4704L13.2747 15.1677C13.4716 14.9708 13.4716 14.6502 13.2747 14.4533L9.82333 11.0019Z" fill="white"/>
</svg>
