<svg width="18" height="18" viewBox="0 0 18 18" fill="none" xmlns="http://www.w3.org/2000/svg">
<g clip-path="url(#clip0)">
<path d="M12.0903 1.44674L3.92204 5.62874L0.675293 4.03124L8.69954 0.0689912C8.87954 -0.0225088 9.09554 -0.0225088 9.28454 0.0689912L12.0903 1.44674Z" fill="white"/>
<path d="M17.3159 4.03121L9.00439 8.14871L5.89189 6.61496L5.44189 6.38621L13.6191 2.20496L14.0691 2.43296L17.3159 4.03121Z" fill="white"/>
<path d="M8.3385 9.33527L8.3295 18L0.369 13.8458C0.144 13.7273 0 13.4895 0 13.2338V5.21777L3.3735 6.87977V9.80177C3.3735 10.176 3.6795 10.4865 4.0485 10.4865C4.4175 10.4865 4.7235 10.176 4.7235 9.80177V7.55552L5.1735 7.77452L8.3385 9.33527Z" fill="white"/>
<path d="M17.9912 5.22681L9.68869 9.32631L9.67969 17.9911L18.0002 13.6463L17.9912 5.22681Z" fill="white"/>
</g>
<defs>
<clipPath id="clip0">
<rect width="18" height="18" fill="white"/>
</clipPath>
</defs>
</svg>
