<svg width="19" height="20" viewBox="0 0 19 20" fill="none" xmlns="http://www.w3.org/2000/svg">
<path d="M2.68814 1.90152C2.68814 2.38678 2.67962 2.838 2.68814 3.28921C2.70517 4.08947 3.28418 4.6769 4.05052 4.6769C4.81687 4.6769 5.39588 4.08947 5.41291 3.28921C5.42142 2.838 5.41291 2.38678 5.41291 1.90152C8.0355 1.90152 10.624 1.90152 13.2551 1.90152C13.2551 2.35273 13.2551 2.79543 13.2551 3.22962C13.2637 4.06393 13.8256 4.66839 14.609 4.6769C15.4009 4.68542 15.9799 4.08096 15.9884 3.2211C15.9884 2.78692 15.9884 2.35273 15.9884 1.91855C17.2401 1.78233 18.3641 2.81246 18.3641 4.07245C18.3726 6.43067 18.3641 8.78038 18.3641 11.1386C18.3641 13.3266 18.3641 15.506 18.3641 17.694C18.3641 19.0135 17.4104 19.9926 16.0906 19.9926C11.5862 20.0011 7.09035 20.0011 2.58596 19.9926C1.26615 19.9926 0.295449 19.0221 0.295449 17.7025C0.286934 13.1904 0.286934 8.67822 0.295449 4.1661C0.303964 2.82097 1.3513 1.81638 2.68814 1.90152ZM1.14694 6.20932C1.14694 6.37108 1.14694 6.48175 1.14694 6.59243C1.14694 10.2532 1.14694 13.914 1.14694 17.5748C1.14694 18.5964 1.70041 19.1327 2.73923 19.1327C7.12441 19.1327 11.5181 19.1327 15.9033 19.1327C16.9932 19.1327 17.5296 18.6049 17.5296 17.5152C17.5296 13.897 17.5296 10.2788 17.5296 6.66054C17.5296 6.50729 17.5296 6.36257 17.5296 6.20081C12.046 6.20932 6.62203 6.20932 1.14694 6.20932Z" fill="#C0C0C0"/>
<path d="M13.7733 2.06877C13.7733 1.66864 13.7648 1.27702 13.7733 0.876885C13.7903 0.366078 14.1565 0 14.6248 0C15.0931 0 15.4593 0.374592 15.4678 0.885399C15.4763 1.67715 15.4763 2.4689 15.4678 3.26917C15.4593 3.797 15.1187 4.14605 14.6333 4.15456C14.1395 4.16308 13.7818 3.797 13.7733 3.25214C13.7648 2.86903 13.7733 2.4689 13.7733 2.06877Z" fill="#C0C0C0"/>
<path d="M4.90007 2.12696C4.90007 2.51007 4.90859 2.89317 4.90007 3.27628C4.89156 3.80411 4.55096 4.16167 4.07413 4.17019C3.57175 4.1787 3.21412 3.82114 3.2056 3.27628C3.19709 2.48452 3.19709 1.69277 3.2056 0.89251C3.21412 0.381703 3.58026 0.015625 4.04858 0.015625C4.50839 0.015625 4.88304 0.390217 4.90007 0.901024C4.90859 1.30967 4.90007 1.71831 4.90007 2.12696Z" fill="#C0C0C0"/>
<path d="M8.71269 10.2489C7.92081 10.2489 7.16298 10.2489 6.37109 10.2489C6.37109 9.46561 6.37109 8.69089 6.37109 7.89062C7.15447 7.89062 7.92081 7.89062 8.71269 7.89062C8.71269 8.68238 8.71269 9.44007 8.71269 10.2489Z" fill="#C0C0C0"/>
<path d="M2.73047 10.2659V7.89062H5.10613V10.2574L2.73047 10.2659Z" fill="#C0C0C0"/>
<path d="M13.5938 10.2311C13.5938 9.44789 13.5938 8.69019 13.5938 7.89844C14.3856 7.89844 15.152 7.89844 15.9524 7.89844C15.9524 8.67316 15.9524 9.43086 15.9524 10.2311C15.1775 10.2311 14.4112 10.2311 13.5938 10.2311Z" fill="#C0C0C0"/>
<path d="M12.3182 7.89062C12.3182 8.67386 12.3182 9.44007 12.3182 10.2318C11.5433 10.2318 10.777 10.2318 9.97656 10.2318C9.97656 9.4571 9.97656 8.68238 9.97656 7.89062C10.7514 7.89062 11.5263 7.89062 12.3182 7.89062Z" fill="#C0C0C0"/>
<path d="M2.74219 15.1094C3.53407 15.1094 4.30042 15.1094 5.08379 15.1094C5.08379 15.8926 5.08379 16.6503 5.08379 17.4421C4.31745 17.4421 3.5511 17.4421 2.74219 17.4421C2.74219 16.6929 2.74219 15.9182 2.74219 15.1094Z" fill="#C0C0C0"/>
<path d="M2.74219 11.5078C3.54259 11.5078 4.30042 11.5078 5.08379 11.5078C5.08379 12.291 5.08379 13.0487 5.08379 13.8405C4.31745 13.8405 3.54259 13.8405 2.74219 13.8405C2.74219 13.0743 2.74219 12.3081 2.74219 11.5078Z" fill="#C0C0C0"/>
<path d="M8.70418 11.5215C8.70418 12.3047 8.70418 13.0624 8.70418 13.8542C7.92932 13.8542 7.16298 13.8542 6.37109 13.8542C6.37109 13.0965 6.37109 12.3217 6.37109 11.5215C7.13744 11.5215 7.89526 11.5215 8.70418 11.5215Z" fill="#C0C0C0"/>
<path d="M9.97656 11.5078C10.7514 11.5078 11.5092 11.5078 12.3096 11.5078C12.3096 12.274 12.3096 13.0402 12.3096 13.8405C11.5518 13.8405 10.777 13.8405 9.97656 13.8405C9.97656 13.0658 9.97656 12.2996 9.97656 11.5078Z" fill="#C0C0C0"/>
<path d="M13.5938 13.8457C13.5938 13.0539 13.5938 12.2962 13.5938 11.5215C14.3856 11.5215 15.1605 11.5215 15.9439 11.5215C15.9439 12.3047 15.9439 13.0624 15.9439 13.8457C15.152 13.8457 14.3771 13.8457 13.5938 13.8457Z" fill="#C0C0C0"/>
<path d="M8.70879 15.1191C8.70879 15.9024 8.70879 16.6601 8.70879 17.4518C7.93393 17.4518 7.16759 17.4518 6.36719 17.4518C6.36719 16.6856 6.36719 15.9194 6.36719 15.1191C7.15056 15.1191 7.9169 15.1191 8.70879 15.1191Z" fill="#C0C0C0"/>
<path d="M12.3228 15.125C12.3228 15.8997 12.3228 16.6574 12.3228 17.4492C11.5394 17.4492 10.7731 17.4492 9.97266 17.4492C9.97266 16.683 9.97266 15.9253 9.97266 15.125C10.739 15.125 11.5053 15.125 12.3228 15.125Z" fill="#C0C0C0"/>
<path d="M15.9353 17.4577C15.1605 17.4577 14.3856 17.4577 13.5938 17.4577C13.5938 16.6744 13.5938 15.9168 13.5938 15.125C14.3686 15.125 15.1349 15.125 15.9353 15.125C15.9353 15.8827 15.9353 16.6404 15.9353 17.4577Z" fill="#C0C0C0"/>
</svg>
