<svg width="23" height="15" viewBox="0 0 23 15" fill="none" xmlns="http://www.w3.org/2000/svg">
<path d="M22.9473 8.18823C22.9429 8.17057 22.934 8.15293 22.9252 8.13971L19.7884 3.43234C19.462 2.94264 18.9105 2.64706 18.3193 2.64706H15.5002V1.76471C15.5002 0.789696 14.7105 0 13.7355 0H2.70611C1.7311 0 0.941406 0.789696 0.941406 1.76471V7.94117H14.6179V8.82353H0.941406V11.9118C0.941406 12.6397 1.53698 13.2353 2.26494 13.2353H2.30024C2.27377 13.0897 2.26494 12.9441 2.26494 12.7941C2.26494 11.0912 3.65024 9.70588 5.35317 9.70588C7.0561 9.70588 8.4414 11.0912 8.4414 12.7941C8.4414 12.9441 8.43257 13.0897 8.4061 13.2353H15.9767C15.9502 13.0897 15.9414 12.9441 15.9414 12.7941C15.9414 11.0912 17.3267 9.70588 19.0296 9.70588C20.7326 9.70588 22.1179 11.0912 22.1179 12.7941C22.1179 12.9176 22.109 13.0412 22.0914 13.1647C22.6164 12.9927 23.0002 12.4941 23.0002 11.9118V8.38235C23.0002 8.32941 22.987 8.27647 22.9693 8.22792C22.9649 8.2147 22.9561 8.20145 22.9473 8.18823ZM15.5002 7.94117V3.52941H18.3193C18.6149 3.52941 18.8929 3.67498 19.0561 3.92206L21.734 7.94117H15.5002Z" fill="#C0C0C0"/>
<path d="M5.35432 14.9999C6.57259 14.9999 7.5602 14.0123 7.5602 12.794C7.5602 11.5757 6.57259 10.5881 5.35432 10.5881C4.13604 10.5881 3.14844 11.5757 3.14844 12.794C3.14844 14.0123 4.13604 14.9999 5.35432 14.9999Z" fill="#C0C0C0"/>
<path d="M19.0301 14.9999C20.2484 14.9999 21.236 14.0123 21.236 12.794C21.236 11.5757 20.2484 10.5881 19.0301 10.5881C17.8118 10.5881 16.8242 11.5757 16.8242 12.794C16.8242 14.0123 17.8118 14.9999 19.0301 14.9999Z" fill="#C0C0C0"/>
</svg>
