<svg width="34" height="16" viewBox="0 0 34 16" fill="none" xmlns="http://www.w3.org/2000/svg">
<g clip-path="url(#clip0)">
<path d="M17.2043 13.2844C15.1659 13.2844 13.1232 13.2844 11.0847 13.2844C10.7724 13.2844 10.7259 13.234 10.7175 12.9153C10.6964 12.0094 10.5656 11.1329 10.0971 10.3318C9.48091 9.28752 8.60727 8.55777 7.43821 8.19289C6.65742 7.94964 5.87242 7.92448 5.07053 8.10062C4.4248 8.24322 3.82127 8.47389 3.29794 8.87651C2.62266 9.39656 2.12043 10.055 1.79967 10.8435C1.72793 11.0154 1.67728 11.1958 1.60975 11.3719C1.56333 11.4894 1.58443 11.6823 1.39451 11.6739C1.22147 11.6655 1.02733 11.6529 0.888056 11.5648C0.622167 11.4055 0.508214 11.1161 0.406923 10.8309C0.0144208 9.70272 -0.0151223 8.52841 -0.00668142 7.35829C0.00175949 6.50691 0.0903891 5.65973 0.162137 4.80835C0.170578 4.71189 0.267648 4.59866 0.356278 4.53575C1.12862 4.00731 1.91785 3.50822 2.67753 2.96301C3.49208 2.37585 4.27286 1.73837 5.07475 1.13444C5.44193 0.853439 5.81333 0.568249 6.20583 0.329192C6.64898 0.0607782 7.16388 0.0146445 7.67033 0.0104505C9.61174 -0.0021314 11.5532 0.00206257 13.4946 -0.0021314C14.7734 -0.0021314 16.0564 -0.0105193 17.3352 -0.0021314C17.7192 0.00206257 18.116 -0.0021314 18.4874 0.081748C18.7744 0.148852 19.0571 0.312417 19.2935 0.496951C20.3908 1.3651 21.4712 2.25423 22.5517 3.14335C23.1932 3.67179 23.8136 4.22539 24.4509 4.75803C24.856 5.09774 25.3583 5.21098 25.8605 5.28227C26.5273 5.37874 27.1984 5.44584 27.8652 5.53391C28.9794 5.6807 30.0641 5.93653 31.115 6.32657C32.0519 6.67467 32.9298 7.13182 33.7907 7.63509C33.9216 7.71058 33.9933 7.81963 33.9933 7.97061C33.9849 8.8849 34.0144 9.80338 33.9469 10.7135C33.9131 11.1664 33.5122 11.4306 33.0775 11.5816C32.8032 11.6781 32.7863 11.6613 32.7061 11.3761C32.3431 10.0634 31.5539 9.09459 30.3257 8.46969C29.4985 8.0461 28.6207 7.89931 27.7175 8.00836C26.4429 8.16353 25.3963 8.75908 24.5986 9.76982C24.1512 10.336 23.8473 10.9777 23.725 11.6823C23.649 12.1226 23.6701 12.584 23.6743 13.0369C23.6743 13.2047 23.6194 13.2718 23.4675 13.276C23.286 13.2802 23.1003 13.276 22.9188 13.276C21.0196 13.2844 19.112 13.2844 17.2043 13.2844ZM22.8176 5.14807C22.6909 4.94256 22.615 4.77061 22.4968 4.63221C21.3699 3.29853 20.0616 2.16615 18.5718 1.24767C18.3523 1.11347 18.0864 0.966676 17.8416 0.962482C16.3518 0.937318 14.8578 0.945706 13.3679 0.9499C12.891 0.9499 12.4479 1.38607 12.4437 1.8558C12.4352 2.92526 12.4394 3.99472 12.4437 5.06419C12.4437 5.08935 12.4563 5.11452 12.4648 5.14807C15.896 5.14807 19.3188 5.14807 22.8176 5.14807ZM7.69143 5.16065V5.15645C7.7463 5.15645 7.80539 5.15645 7.86025 5.15645C8.89427 5.15645 9.92828 5.16065 10.9623 5.15645C11.359 5.15645 11.4308 5.08096 11.4308 4.69512C11.4308 3.75147 11.4308 2.80783 11.4265 1.86419C11.4265 1.38188 10.9918 0.954094 10.498 0.954094C9.66661 0.954094 8.8394 0.962482 8.00797 0.9499C7.7674 0.945706 7.56904 1.02539 7.37912 1.14702C6.39997 1.75934 5.53478 2.51845 4.77088 3.37821C4.47545 3.70953 4.20956 4.08699 4.00697 4.48123C3.81283 4.85868 3.92256 5.15226 4.41636 5.16904C4.47122 5.16904 4.53031 5.16904 4.58518 5.16904C5.62341 5.16065 6.65742 5.16065 7.69143 5.16065Z" fill="white"/>
<path d="M6.06859 16.0001C4.16516 15.9959 2.62469 14.4693 2.62891 12.5779C2.63736 10.6612 4.15672 9.14718 6.07703 9.15138C8.01 9.15557 9.53358 10.6738 9.52092 12.6072C9.51248 14.4777 7.99734 16.0001 6.06859 16.0001ZM3.93726 12.582C3.91615 13.7438 4.88264 14.7084 6.07281 14.7084C7.25876 14.7084 8.22102 13.7606 8.2168 12.5988C8.21258 11.391 7.2672 10.4473 6.06859 10.4473C4.93328 10.4431 3.90349 11.3826 3.93726 12.582Z" fill="white"/>
<path d="M31.6956 12.5782C31.7462 14.4445 30.1467 15.9837 28.3065 16.0046C26.4284 16.0256 24.8036 14.4906 24.8204 12.574C24.8373 10.6531 26.3694 9.16008 28.2559 9.1475C30.1467 9.13911 31.742 10.6783 31.6956 12.5782ZM26.1203 12.5782C26.0486 13.6602 27.0742 14.7171 28.2559 14.7087C29.4925 14.7003 30.4168 13.7399 30.4168 12.5698C30.4168 11.3955 29.4672 10.4392 28.2517 10.4434C27.0784 10.4476 26.1203 11.408 26.1203 12.5782Z" fill="white"/>
</g>
<defs>
<clipPath id="clip0">
<rect width="34" height="16" fill="white"/>
</clipPath>
</defs>
</svg>
