<svg width="24" height="16" viewBox="0 0 24 16" fill="none" xmlns="http://www.w3.org/2000/svg">
<path d="M23.4732 8.73421C23.4685 8.71537 23.4591 8.69656 23.4497 8.68245L20.1037 3.6612C19.7555 3.13885 19.1673 2.82356 18.5367 2.82356H15.5296V1.88237C15.5296 0.842352 14.6872 0 13.6472 0H1.88237C0.842352 0 0 0.842352 0 1.88237V8.47068H14.5884V9.41187H0V12.706C0 13.4825 0.635289 14.1178 1.41178 14.1178H1.44944C1.4212 13.9625 1.41178 13.8072 1.41178 13.6472C1.41178 11.8307 2.88945 10.3531 4.70593 10.3531C6.52242 10.3531 8.00009 11.8307 8.00009 13.6472C8.00009 13.8072 7.99066 13.9625 7.96243 14.1178H16.0378C16.0096 13.9625 16.0002 13.8072 16.0002 13.6472C16.0002 11.8307 17.4778 10.3531 19.2943 10.3531C21.1108 10.3531 22.5885 11.8307 22.5885 13.6472C22.5885 13.779 22.5791 13.9107 22.5602 14.0425C23.1203 13.859 23.5297 13.3272 23.5297 12.706V8.94127C23.5297 8.8848 23.5155 8.82834 23.4967 8.77655C23.492 8.76245 23.4826 8.74831 23.4732 8.73421ZM15.5296 8.47068V3.76475H18.5367C18.852 3.76475 19.1484 3.92002 19.3226 4.18358L22.1791 8.47068H15.5296Z" fill="#00B5D3"/>
<path d="M4.70844 15.9989C6.00794 15.9989 7.0614 14.9454 7.0614 13.6459C7.0614 12.3464 6.00794 11.293 4.70844 11.293C3.40893 11.293 2.35547 12.3464 2.35547 13.6459C2.35547 14.9454 3.40893 15.9989 4.70844 15.9989Z" fill="#00B5D3"/>
<path d="M19.2944 15.9989C20.5939 15.9989 21.6473 14.9454 21.6473 13.6459C21.6473 12.3464 20.5939 11.293 19.2944 11.293C17.9949 11.293 16.9414 12.3464 16.9414 13.6459C16.9414 14.9454 17.9949 15.9989 19.2944 15.9989Z" fill="#00B5D3"/>
</svg>
