<svg width="37" height="29" viewBox="0 0 37 29" fill="none" xmlns="http://www.w3.org/2000/svg">
<path d="M12.5622 14.6667H0.77145C0.345248 14.6667 0 14.3215 0 13.8953V13.7709C0 13.3452 0.345248 13 0.77145 13H12.5628C12.9885 13 13.3337 13.3452 13.3337 13.7714V13.8959C13.3337 14.3215 12.9885 14.6667 12.5622 14.6667Z" fill="white"/>
<path d="M12.5622 18.8331H0.77145C0.345248 18.8331 0 18.4878 0 18.0616V17.9372C0 17.5116 0.345248 17.1664 0.77145 17.1664H12.5628C12.9885 17.1664 13.3337 17.5116 13.3337 17.9378V18.0622C13.3337 18.4878 12.9885 18.8331 12.5622 18.8331Z" fill="white"/>
<path d="M12.5622 23H0.77145C0.345248 23 0 22.6547 0 22.2285V22.1041C0 21.6785 0.345248 21.3333 0.77145 21.3333H12.5628C12.989 21.3333 13.3343 21.6785 13.3343 22.1047V22.2291C13.3337 22.6547 12.9885 23 12.5622 23Z" fill="white"/>
<ellipse cx="22" cy="14.5" rx="15" ry="14.5" fill="#00B5D3"/>
<path d="M25.9021 21.216L23.3847 19.328C24.0141 18.2491 24.2838 16.9905 24.2838 15.6419C24.2838 11.4164 20.8674 8 16.6419 8C12.4164 8 9 11.4164 9 15.6419C9 19.8674 12.4164 23.2838 16.6419 23.2838C17.9905 23.2838 19.1592 22.9241 20.328 22.3847L22.216 24.9021C23.2049 26.1607 25.0929 26.3405 26.2617 25.1718C27.3406 24.0929 27.2507 22.2049 25.9021 21.216ZM16.6419 21.4857C13.4053 21.4857 10.7981 18.8785 10.7981 15.6419C10.7981 12.4053 13.4053 9.79809 16.6419 9.79809C19.8785 9.79809 22.4857 12.4053 22.4857 15.6419C22.4857 18.8784 19.8785 21.4857 16.6419 21.4857Z" fill="white"/>
</svg>
