<svg width="26" height="26" viewBox="0 0 26 26" fill="none" xmlns="http://www.w3.org/2000/svg">
<rect width="26" height="26" rx="2" fill="#00B5D3"/>
<path d="M5.35399 8.1101H8.16905V9.35749C8.16905 9.52606 8.30391 9.67777 8.48933 9.67777H10.5627C10.7313 9.67777 10.883 9.54292 10.883 9.35749V5.24447C10.883 5.0759 10.7481 4.92419 10.5627 4.92419H8.50619C8.33762 4.92419 8.18591 5.05905 8.18591 5.24447V6.49186H5.35399C5.15171 6.49186 5 6.66043 5 6.84585V7.73926C5 7.95839 5.16857 8.1101 5.35399 8.1101Z" fill="white"/>
<path d="M20.6627 6.49188H11.9141V8.11012H20.6458C20.8481 8.11012 20.9998 7.94155 20.9998 7.75613V6.86273C21.0167 6.64359 20.8481 6.49188 20.6627 6.49188Z" fill="white"/>
<path d="M20.66 11.8186H17.5078V13.4368H20.6432C20.8454 13.4368 20.9971 13.2683 20.9971 13.0829V12.1895C21.014 11.9703 20.8454 11.8186 20.66 11.8186Z" fill="white"/>
<path d="M5.35399 13.4369H13.7655V14.6843C13.7655 14.8528 13.9003 15.0046 14.0857 15.0046H16.1591C16.3277 15.0046 16.4794 14.8697 16.4794 14.6843V10.5713C16.4794 10.4027 16.3445 10.251 16.1591 10.251H14.1026C13.934 10.251 13.7823 10.3858 13.7823 10.5713V11.8186H5.35399C5.15171 11.8186 5 11.9872 5 12.1726V13.066C5 13.2852 5.16857 13.4369 5.35399 13.4369Z" fill="white"/>
<path d="M20.6627 17.1453H11.9141V18.7635H20.6458C20.8481 18.7635 20.9998 18.5949 20.9998 18.4095V17.5161C21.0167 17.3138 20.8481 17.1453 20.6627 17.1453Z" fill="white"/>
<path d="M10.5627 15.5777H8.50619C8.33762 15.5777 8.18591 15.7126 8.18591 15.898V17.1454H5.35399C5.15171 17.1454 5 17.3139 5 17.4994V18.3928C5 18.595 5.16857 18.7468 5.35399 18.7468H8.16905V19.9941C8.16905 20.1627 8.30391 20.3144 8.48933 20.3144H10.5627C10.7313 20.3144 10.883 20.1796 10.883 19.9941V15.898C10.883 15.7126 10.7481 15.5777 10.5627 15.5777Z" fill="white"/>
</svg>
