<svg width="24" height="18" viewBox="0 0 24 18" fill="none" xmlns="http://www.w3.org/2000/svg">
<path d="M23.9123 17.8589C23.9123 17.8589 22.0178 17.8589 21.0534 17.8589C21.0534 14.7255 21.0534 11.5959 21.0534 8.43957C20.9581 8.43957 20.8895 8.43957 20.8208 8.43957C14.9123 8.43957 9.00381 8.43957 3.0953 8.43575C2.91233 8.43575 2.86277 8.48531 2.86277 8.66828C2.86658 11.653 2.86658 14.6416 2.86658 17.6264C2.86658 17.7026 2.86658 17.775 2.86658 17.8589C1.90597 17.8589 0.964422 17.8589 0.00381194 17.8589C0.00381194 17.7712 0.00381194 17.695 0.00381194 17.6225C0.00381194 14.0469 0.00762389 10.4675 0 6.89192C0 6.54503 0.152478 6.343 0.442186 6.19433C1.12071 5.83982 1.79543 5.47769 2.47014 5.11555C3.36595 4.63525 4.26557 4.15494 5.16137 3.67083C5.90851 3.27057 6.65565 2.86269 7.40279 2.45863C8.21093 2.02407 9.01525 1.5895 9.82338 1.15494C10.4257 0.830927 11.0318 0.506912 11.6341 0.182897C11.8399 0.0723502 12.0457 0.0532904 12.2516 0.163837C13.4867 0.823303 14.7217 1.49039 15.9568 2.15367C17.1233 2.77883 18.2935 3.40399 19.46 4.02915C20.4892 4.58188 21.5146 5.13842 22.54 5.69115C22.906 5.88938 23.2681 6.09141 23.6341 6.28582C23.8285 6.38874 23.9123 6.54884 23.9199 6.7585C23.9199 6.78518 23.9199 6.80805 23.9199 6.83474C23.9123 10.479 23.9123 17.8589 23.9123 17.8589Z" fill="white"/>
<path d="M12.2887 12.373C12.2887 13.1736 12.2887 13.9588 12.2887 14.7555C10.8096 14.7555 9.33822 14.7555 7.85156 14.7555C7.85156 13.9626 7.85156 13.1736 7.85156 12.373C9.3344 12.373 10.8058 12.373 12.2887 12.373Z" fill="white"/>
<path d="M13.3398 12.3612C13.7858 12.3612 14.2166 12.3612 14.6473 12.3612C15.6194 12.3612 16.5876 12.365 17.5596 12.3574C17.7197 12.3574 17.7655 12.4032 17.7655 12.5633C17.7579 13.2875 17.7617 14.0118 17.7617 14.7513C16.2865 14.7513 14.8189 14.7513 13.3398 14.7513C13.3398 13.9661 13.3398 13.177 13.3398 12.3612Z" fill="white"/>
<path d="M12.2999 17.8587C10.8094 17.8587 9.33422 17.8587 7.84375 17.8587C7.84375 17.1764 7.84375 16.5017 7.84375 15.8308C7.84375 15.4687 7.84375 15.4687 8.20588 15.4687C9.50195 15.4687 10.7942 15.4725 12.0903 15.4648C12.258 15.4648 12.3075 15.5106 12.3037 15.6783C12.2961 16.3492 12.2999 17.0239 12.2999 17.6948C12.2999 17.7482 12.2999 17.7978 12.2999 17.8587Z" fill="white"/>
<path d="M17.7695 17.8549C16.2905 17.8549 14.8267 17.8549 13.3477 17.8549C13.3477 17.0735 13.3477 16.2806 13.3477 15.4763C13.4048 15.4725 13.4658 15.4687 13.5306 15.4687C14.8724 15.4687 16.2104 15.4725 17.5522 15.4648C17.7276 15.4648 17.7809 15.5144 17.7771 15.6897C17.7619 16.4102 17.7695 17.1268 17.7695 17.8549Z" fill="white"/>
<path d="M6.80068 11.6677C5.68759 11.6677 4.58975 11.6677 3.48047 11.6677C3.48047 10.8748 3.48047 10.0896 3.48047 9.28906C4.58593 9.28906 5.68378 9.28906 6.80068 9.28906C6.80068 10.0743 6.80068 10.8634 6.80068 11.6677Z" fill="white"/>
<path d="M6.80068 12.377C6.80068 13.1698 6.80068 13.9551 6.80068 14.7518C5.69902 14.7518 4.59737 14.7518 3.48047 14.7518C3.48047 13.9665 3.48047 13.1775 3.48047 12.377C4.58975 12.377 5.6914 12.377 6.80068 12.377Z" fill="white"/>
<path d="M3.46866 17.855C3.46866 17.0964 3.46866 16.3569 3.46484 15.6212C3.46484 15.5069 3.49915 15.4688 3.61732 15.4688C4.62748 15.4726 5.63765 15.4726 6.64781 15.4688C6.75073 15.4688 6.81554 15.4764 6.81554 15.6098C6.81172 16.3531 6.81172 17.0964 6.81172 17.855C5.69864 17.855 4.58937 17.855 3.46866 17.855Z" fill="white"/>
</svg>
