<?xml version="1.0" encoding="utf-8"?>
<!-- Generator: Adobe Illustrator 24.3.0, SVG Export Plug-In . SVG Version: 6.00 Build 0)  -->
<svg version="1.1" id="Слой_1" xmlns="http://www.w3.org/2000/svg" xmlns:xlink="http://www.w3.org/1999/xlink" x="0px" y="0px"
	 viewBox="0 0 30 30" style="enable-background:new 0 0 30 30;" xml:space="preserve">
<style type="text/css">
	.st0{display:none;}
	.st1{display:inline;}
	.st2{fill:#161616;}
	.st3{fill:#00B4D2;}
	.st4{fill:#FFFFFF;}
</style>
<g class="st0">
	<g class="st1">
		<g>
			<path class="st2" d="M21.584,2.274c1.898,0,3.641,0.757,4.909,2.133c1.287,1.396,1.996,3.325,1.996,5.433
				c0,2.224-0.826,4.212-2.678,6.447c-1.789,2.159-4.45,4.426-7.53,7.051c-1.079,0.919-2.301,1.961-3.575,3.075
				c-0.003,0.002-0.006,0.004-0.01,0.004c-0.003,0-0.007-0.001-0.01-0.004c-1.272-1.112-2.494-2.154-3.574-3.074
				c-3.081-2.625-5.741-4.893-7.531-7.052c-1.852-2.235-2.678-4.223-2.678-6.447c0-2.107,0.709-4.037,1.996-5.433
				C4.166,3.031,5.91,2.274,7.807,2.274c1.39,0,2.667,0.442,3.794,1.314c1.123,0.868,1.872,1.989,2.303,2.777l0.792,1.447
				l0.792-1.447c0.431-0.788,1.181-1.909,2.303-2.777C18.917,2.716,20.194,2.274,21.584,2.274 M21.584,1.371
				c-1.595,0-3.057,0.505-4.346,1.502c-1.236,0.956-2.058,2.173-2.543,3.058c-0.484-0.885-1.307-2.102-2.543-3.058
				c-1.289-0.997-2.751-1.502-4.346-1.502C3.356,1.371,0,5.012,0,9.839c0,5.215,4.187,8.784,10.526,14.186
				c1.076,0.917,2.297,1.957,3.565,3.066c0.167,0.146,0.382,0.227,0.605,0.227s0.437-0.081,0.605-0.227
				c1.268-1.109,2.488-2.149,3.565-3.067c6.338-5.401,10.526-8.97,10.526-14.185C29.391,5.012,26.035,1.371,21.584,1.371
				L21.584,1.371z"/>
		</g>
	</g>
	<g class="st1">
		<g>
			<path class="st3" d="M24.934,11.793c-1.035,0-1.984,0.328-2.82,0.975c-0.802,0.62-1.336,1.41-1.65,1.984
				c-0.314-0.574-0.848-1.364-1.65-1.984c-0.836-0.647-1.785-0.975-2.82-0.975c-2.888,0-5.066,2.362-5.066,5.495
				c0,3.384,2.717,5.699,6.83,9.205c0.698,0.595,1.49,1.27,2.313,1.99c0.108,0.095,0.248,0.147,0.392,0.147s0.284-0.052,0.392-0.147
				c0.823-0.72,1.615-1.394,2.313-1.99c4.113-3.505,6.83-5.82,6.83-9.204C30,14.155,27.822,11.793,24.934,11.793z"/>
		</g>
	</g>
</g>
<g>
	<g>
		<path class="st2" d="M22.031,2.68c1.937,0,3.716,0.773,5.01,2.177c1.313,1.425,2.037,3.394,2.037,5.545
			c0,2.269-0.843,4.299-2.734,6.58c-1.826,2.204-4.542,4.518-7.686,7.197c-1.101,0.938-2.349,2.002-3.649,3.138
			c-0.003,0.002-0.006,0.003-0.01,0.003c-0.003,0-0.007-0.001-0.01-0.004c-1.298-1.135-2.546-2.199-3.648-3.137
			c-3.145-2.68-5.86-4.994-7.687-7.198c-1.891-2.281-2.734-4.311-2.734-6.58c0-2.151,0.723-4.12,2.037-5.545
			C4.253,3.453,6.032,2.68,7.969,2.68c1.419,0,2.722,0.451,3.872,1.341c1.146,0.886,1.911,2.03,2.351,2.834L15,8.333l0.809-1.478
			c0.44-0.804,1.205-1.948,2.351-2.834C19.31,3.131,20.612,2.68,22.031,2.68 M22.031,1.758c-1.628,0-3.12,0.516-4.436,1.533
			C16.334,4.267,15.494,5.509,15,6.412c-0.494-0.903-1.334-2.146-2.595-3.121c-1.316-1.017-2.808-1.533-4.436-1.533
			C3.426,1.758,0,5.474,0,10.401c0,5.323,4.274,8.966,10.744,14.48c1.099,0.936,2.344,1.998,3.639,3.13
			c0.171,0.149,0.39,0.232,0.617,0.232s0.446-0.082,0.617-0.232c1.295-1.132,2.54-2.193,3.639-3.13
			C25.726,19.367,30,15.725,30,10.401C30,5.474,26.574,1.758,22.031,1.758L22.031,1.758z"/>
	</g>
</g>
<g class="st0">
	<g class="st1">
		<g>
			<path class="st3" d="M22.031,1.758c-1.628,0-3.12,0.516-4.436,1.533C16.334,4.267,15.494,5.509,15,6.412
				c-0.494-0.903-1.334-2.146-2.595-3.121c-1.316-1.017-2.808-1.533-4.436-1.533C3.426,1.758,0,5.474,0,10.401
				c0,5.323,4.274,8.966,10.744,14.48c1.099,0.936,2.344,1.998,3.639,3.13c0.171,0.149,0.39,0.232,0.617,0.232
				c0.227,0,0.446-0.082,0.617-0.232c1.295-1.132,2.54-2.193,3.639-3.13C25.726,19.367,30,15.725,30,10.401
				C30,5.474,26.574,1.758,22.031,1.758z"/>
		</g>
	</g>
	<g class="st1">
		<path class="st4" d="M12.215,8.628V20.09h-2.129v-9.678H7.663V8.628H12.215z"/>
		<path class="st4" d="M21.385,14.441c0.557,0.59,0.835,1.326,0.835,2.211c0,0.666-0.169,1.272-0.508,1.818
			c-0.339,0.546-0.849,0.98-1.531,1.302c-0.682,0.322-1.515,0.483-2.497,0.483c-0.819,0-1.607-0.117-2.366-0.352
			c-0.759-0.235-1.406-0.559-1.94-0.974l0.917-1.654c0.415,0.35,0.92,0.625,1.515,0.827c0.595,0.202,1.209,0.303,1.842,0.303
			c0.753,0,1.345-0.156,1.777-0.467c0.431-0.311,0.647-0.734,0.647-1.269c0-0.535-0.205-0.952-0.614-1.253
			c-0.409-0.3-1.034-0.45-1.875-0.45h-1.048v-1.457l2.604-3.095h-5.207V8.628h7.811v1.425l-2.784,3.308
			C20.02,13.491,20.828,13.852,21.385,14.441z"/>
	</g>
</g>
</svg>
