<?xml version="1.0" encoding="utf-8"?>
<!-- Generator: Adobe Illustrator 24.3.0, SVG Export Plug-In . SVG Version: 6.00 Build 0)  -->
<svg version="1.1" id="Слой_1" xmlns="http://www.w3.org/2000/svg" xmlns:xlink="http://www.w3.org/1999/xlink" x="0px" y="0px"
	 viewBox="0 0 30 30" style="enable-background:new 0 0 30 30;" xml:space="preserve">
<style type="text/css">
	.st0{fill:#E43535;}
</style>
<g>
	<g>
		<g>
			<path class="st0" d="M22.031,1.758c-1.628,0-3.12,0.516-4.436,1.533C16.334,4.267,15.494,5.509,15,6.412
				c-0.494-0.903-1.334-2.146-2.595-3.121c-1.316-1.017-2.808-1.533-4.436-1.533C3.426,1.758,0,5.474,0,10.401
				c0,5.323,4.274,8.966,10.744,14.48c1.099,0.936,2.344,1.998,3.639,3.13c0.171,0.149,0.39,0.232,0.617,0.232
				c0.227,0,0.446-0.082,0.617-0.232c1.295-1.132,2.54-2.193,3.639-3.13C25.726,19.367,30,15.725,30,10.401
				C30,5.474,26.574,1.758,22.031,1.758z"/>
		</g>
	</g>
</g>
</svg>
