<svg width="14" height="17" viewBox="0 0 14 17" fill="none" xmlns="http://www.w3.org/2000/svg">
<path d="M6.86782 16.998C5.15746 16.998 3.45499 16.9901 1.74464 16.998C0.727882 17.006 -0.0524182 16.2049 0.00275457 15.253C0.0500455 14.4916 0.0185181 13.7222 0.0106363 12.9528C-0.0130092 11.1682 0.751527 9.80391 2.20178 8.81244C2.50917 8.60621 2.87174 8.4793 3.21066 8.33653C3.27371 8.31273 3.39982 8.36826 3.47076 8.42378C4.74761 9.47077 6.21363 9.81184 7.82152 9.61354C8.63335 9.51043 9.39 9.18523 9.97326 8.63C10.3989 8.21755 10.7378 8.37619 11.1004 8.56655C12.1329 9.09798 12.9447 9.87529 13.3546 10.9857C13.5358 11.4854 13.6777 12.0248 13.7092 12.5483C13.7644 13.4684 13.7092 14.3964 13.7329 15.3244C13.7565 16.2207 13.0235 16.9822 12.0698 16.9901C10.3358 17.006 8.60182 16.998 6.86782 16.998Z" fill="#C0C0C0"/>
<path d="M6.76758 8.71725C4.52126 8.66173 2.54292 6.81363 2.55869 4.36271C2.57445 1.78488 4.56067 -0.0235633 6.90157 0.000232065C9.28975 0.0240274 11.1893 1.89593 11.1814 4.39444C11.1735 6.87708 9.09271 8.78071 6.76758 8.71725Z" fill="#C0C0C0"/>
</svg>
