<svg width="20" height="19" viewBox="0 0 20 19" fill="none" xmlns="http://www.w3.org/2000/svg">
<path d="M17.3965 15.7385C20.1239 12.6181 19.7892 7.91237 16.7121 5.18127C18.2926 10.675 14.1133 16.1627 8.35519 16.1627C8.24435 16.1627 8.91332 16.1666 6.27832 16.1505C7.71949 17.5733 9.63899 18.3488 11.6428 18.3488C11.648 18.3488 18.7042 18.313 18.7084 18.313C19.1901 18.3107 19.4301 17.7292 19.0864 17.3928L17.3965 15.7385Z" fill="#C0C0C0"/>
<path d="M8.35529 15.0877C12.5486 15.0877 15.9602 11.7036 15.9602 7.54387C15.9602 3.38417 12.5487 0 8.35529 0C4.16191 0 0.750441 3.38417 0.750441 7.54387C0.750441 9.37514 1.40395 11.1071 2.60161 12.4774L0.911687 14.1317C0.569178 14.467 0.806442 15.0496 1.28978 15.0519C1.2935 15.0519 8.35161 15.0877 8.35529 15.0877ZM5.12187 4.87395H11.6248C11.9241 4.87395 12.1667 5.11463 12.1667 5.41151C12.1667 5.70839 11.9241 5.94908 11.6248 5.94908H5.12187C4.82257 5.94908 4.57996 5.70839 4.57996 5.41151C4.57996 5.11463 4.82261 4.87395 5.12187 4.87395ZM5.12187 7.02422H11.6248C11.9241 7.02422 12.1667 7.2649 12.1667 7.56178C12.1667 7.85866 11.9241 8.09935 11.6248 8.09935H5.12187C4.82257 8.09935 4.57996 7.85866 4.57996 7.56178C4.57996 7.2649 4.82261 7.02422 5.12187 7.02422ZM4.57996 9.71205C4.57996 9.41517 4.82257 9.17449 5.12187 9.17449H11.6248C11.9241 9.17449 12.1667 9.41517 12.1667 9.71205C12.1667 10.0089 11.9241 10.2496 11.6248 10.2496H5.12187C4.82261 10.2496 4.57996 10.0089 4.57996 9.71205Z" fill="#C0C0C0"/>
</svg>
