<svg width="16" height="16" viewBox="0 0 16 16" fill="none" xmlns="http://www.w3.org/2000/svg">
<path d="M14.4726 12.9675C16.7197 10.3966 16.4439 6.51964 13.9087 4.26953C15.2109 8.79573 11.7676 13.317 7.0236 13.317C6.93228 13.317 7.48344 13.3202 5.3125 13.3069C6.49986 14.4791 8.0813 15.1181 9.73224 15.1181C9.73653 15.1181 15.55 15.0886 15.5534 15.0885C15.9503 15.0867 16.148 14.6076 15.8649 14.3304L14.4726 12.9675Z" fill="#00B5D3"/>
<path d="M7.02369 12.4305C10.4785 12.4305 13.2892 9.64238 13.2892 6.21527C13.2892 2.78816 10.4785 0 7.02369 0C3.56883 0 0.758176 2.78816 0.758176 6.21527C0.758176 7.72403 1.29659 9.15097 2.28333 10.2799L0.891024 11.6429C0.608837 11.9191 0.804314 12.3991 1.20253 12.401C1.2056 12.401 7.02065 12.4305 7.02369 12.4305ZM4.35973 4.01557H9.71742C9.964 4.01557 10.1639 4.21386 10.1639 4.45846C10.1639 4.70305 9.964 4.90135 9.71742 4.90135H4.35973C4.11314 4.90135 3.91326 4.70305 3.91326 4.45846C3.91326 4.21386 4.11317 4.01557 4.35973 4.01557ZM4.35973 5.78714H9.71742C9.964 5.78714 10.1639 5.98544 10.1639 6.23003C10.1639 6.47463 9.964 6.67293 9.71742 6.67293H4.35973C4.11314 6.67293 3.91326 6.47463 3.91326 6.23003C3.91326 5.98544 4.11317 5.78714 4.35973 5.78714ZM3.91326 8.00161C3.91326 7.75701 4.11314 7.55871 4.35973 7.55871H9.71742C9.964 7.55871 10.1639 7.75701 10.1639 8.00161C10.1639 8.2462 9.964 8.4445 9.71742 8.4445H4.35973C4.11317 8.4445 3.91326 8.2462 3.91326 8.00161Z" fill="#00B5D3"/>
</svg>
