<svg width="22" height="22" viewBox="0 0 22 22" fill="none" xmlns="http://www.w3.org/2000/svg">
<path d="M11 0C4.92422 0 0 4.92422 0 11C0 17.0758 4.92422 22 11 22C17.0758 22 22 17.0758 22 11C22 4.92422 17.0758 0 11 0ZM17.1359 8.12969L10.1406 15.0391C9.71953 15.4945 8.97188 15.5117 8.51641 15.0906L4.91563 11.7563C4.46016 11.3352 4.43437 10.6305 4.85547 10.175C5.27656 9.71953 5.98125 9.69375 6.43672 10.1148L9.32422 12.7875L15.5547 6.55703C15.993 6.11875 16.6977 6.11875 17.1359 6.55703C17.5742 6.98672 17.5742 7.69141 17.1359 8.12969Z" fill="#C0C0C0"/>
</svg>
