<svg width="23" height="23" viewBox="0 0 23 23" fill="none" xmlns="http://www.w3.org/2000/svg">
<path d="M21.4319 18.8185H17.7728C15.4669 18.8185 13.591 16.9425 13.591 14.6367C13.591 12.3309 15.4669 10.4549 17.7728 10.4549H21.4319C21.7208 10.4549 21.9546 10.2211 21.9546 9.93218V8.364C21.9546 7.26784 21.1044 6.37637 20.0301 6.28993L17.028 1.04632C16.7498 0.561357 16.3006 0.21474 15.763 0.0708101C15.228 -0.0721396 14.6686 0.00293716 14.1898 0.281633L3.8984 6.27307H2.09093C0.937773 6.27307 0 7.21079 0 8.364V20.9095C0 22.0626 0.937724 23.0004 2.09093 23.0004H19.8637C21.0168 23.0004 21.9546 22.0627 21.9546 20.9095V19.3413C21.9546 19.0523 21.7208 18.8185 21.4319 18.8185ZM17.6763 4.28363L18.8153 6.27307H14.2592L17.6763 4.28363ZM5.97625 6.27307L14.716 1.18515C14.9524 1.04681 15.2285 1.01005 15.4925 1.08052C15.7595 1.15197 15.982 1.32452 16.1204 1.56597L16.1215 1.56789L8.03993 6.27307H5.97625Z" fill="#00B5D3"/>
<path d="M21.4312 11.5H17.7721C16.0426 11.5 14.6357 12.9069 14.6357 14.6364C14.6357 16.3659 16.0426 17.7727 17.7721 17.7727H21.4312C22.296 17.7727 22.9994 17.0693 22.9994 16.2045V13.0682C22.9994 12.2034 22.296 11.5 21.4312 11.5ZM17.7721 15.6818C17.1958 15.6818 16.7267 15.2127 16.7267 14.6364C16.7267 14.0601 17.1958 13.5909 17.7721 13.5909C18.3484 13.5909 18.8175 14.0601 18.8175 14.6364C18.8176 15.2127 18.3485 15.6818 17.7721 15.6818Z" fill="#00B5D3"/>
</svg>
