<svg width="17" height="16" viewBox="0 0 17 16" fill="none" xmlns="http://www.w3.org/2000/svg">
<path d="M14.9089 13.0909H12.3634C10.7594 13.0909 9.45442 11.7859 9.45442 10.1819C9.45442 8.57788 10.7594 7.27287 12.3634 7.27287H14.9089C15.1099 7.27287 15.2725 7.11022 15.2725 6.90923V5.81834C15.2725 5.0558 14.681 4.43566 13.9338 4.37553L11.8454 0.727861C11.6518 0.390503 11.3393 0.149382 10.9654 0.0492583C10.5932 -0.0501832 10.2041 0.00204321 9.87097 0.195915L2.71189 4.3638H1.45453C0.652353 4.3638 0 5.01612 0 5.81834V14.5455C0 15.3476 0.652319 16 1.45453 16H13.818C14.6202 16 15.2725 15.3477 15.2725 14.5455V13.4546C15.2725 13.2536 15.1099 13.0909 14.9089 13.0909ZM12.2964 2.97987L13.0887 4.3638H9.91927L12.2964 2.97987ZM4.15732 4.3638L10.2371 0.824439C10.4015 0.728202 10.5936 0.702634 10.7772 0.751656C10.9629 0.80136 11.1178 0.921392 11.214 1.08936L11.2147 1.09068L5.5929 4.3638H4.15732Z" fill="#C0C0C0"/>
<path d="M14.9108 8H12.3654C11.1623 8 10.1836 8.97867 10.1836 10.1818C10.1836 11.3849 11.1623 12.3636 12.3654 12.3636H14.9108C15.5124 12.3636 16.0017 11.8742 16.0017 11.2727V9.09089C16.0017 8.48933 15.5124 8 14.9108 8ZM12.3654 10.909C11.9645 10.909 11.6381 10.5827 11.6381 10.1818C11.6381 9.78088 11.9645 9.45453 12.3654 9.45453C12.7663 9.45453 13.0926 9.78088 13.0926 10.1818C13.0927 10.5827 12.7663 10.909 12.3654 10.909Z" fill="#C0C0C0"/>
</svg>
