<svg width="16" height="16" viewBox="0 0 16 16" fill="none" xmlns="http://www.w3.org/2000/svg">
<path d="M8.00195 0C3.58331 0 0 3.58244 0 8C0 10.1463 0.847036 12.0937 2.22103 13.5298C2.23274 13.5415 2.62308 13.92 2.62308 13.92L0.202976 16C0.202976 16 7.72871 16 7.99805 16C12.4167 16 16 12.4176 16 8C16 3.58244 12.4206 0 8.00195 0ZM9.14955 11.8283C8.91144 12.0546 8.61088 12.1639 8.24006 12.1639C7.87704 12.1639 7.58039 12.0507 7.34228 11.8283C7.10417 11.602 6.98707 11.3288 6.98707 11.0049C6.98707 10.6732 7.10417 10.4 7.33447 10.1854C7.56868 9.97073 7.86924 9.86537 8.23616 9.86537C8.60698 9.86537 8.90754 9.97073 9.14565 10.1854C9.37985 10.4 9.50085 10.6732 9.50085 11.0049C9.50476 11.3288 9.38766 11.602 9.14955 11.8283ZM10.8905 7.0478C10.789 7.28195 10.6641 7.47707 10.5196 7.63317C10.3752 7.79317 10.1879 7.96878 9.96145 8.17171C9.71164 8.38634 9.52427 8.56976 9.40717 8.71805C9.29007 8.87024 9.23152 9.04585 9.23152 9.24488H7.26031C7.26031 8.87805 7.34228 8.57366 7.50232 8.33171C7.66626 8.09366 7.90046 7.82829 8.20883 7.53951C8.42352 7.34049 8.57965 7.17268 8.68505 7.0361C8.78653 6.89951 8.84118 6.75512 8.84118 6.59902C8.84118 6.38439 8.7514 6.21268 8.57185 6.0839C8.39229 5.95512 8.15809 5.88878 7.86924 5.88878C7.57258 5.88878 7.30715 5.95902 7.06514 6.09951C6.82703 6.24 6.63186 6.43512 6.48353 6.68488L4.8363 5.79902C5.13686 5.2839 5.56624 4.88195 6.12052 4.59317C6.6748 4.30439 7.34228 4.16 8.12296 4.16C9.00122 4.16 9.70773 4.34341 10.2425 4.70634C10.7773 5.07317 11.0466 5.58049 11.0466 6.24C11.0427 6.54829 10.992 6.81366 10.8905 7.0478Z" fill="#00B5D3"/>
</svg>
