<svg width="17" height="17" viewBox="0 0 17 17" fill="none" xmlns="http://www.w3.org/2000/svg">
<path d="M8.50207 0C3.80727 0 0 3.80634 0 8.5C0 13.1937 3.77713 17 8.49793 17C13.1927 17 17 13.1937 17 8.5C17 3.80634 13.1969 0 8.50207 0ZM9.7214 12.5676C9.46841 12.8081 9.14906 12.9241 8.75506 12.9241C8.36936 12.9241 8.05416 12.8039 7.80117 12.5676C7.54818 12.3271 7.42376 12.0368 7.42376 11.6927C7.42376 11.3402 7.54818 11.05 7.79288 10.822C8.04172 10.5939 8.36106 10.482 8.75091 10.482C9.14491 10.482 9.46426 10.5939 9.71725 10.822C9.96609 11.05 10.0947 11.3402 10.0947 11.6927C10.0988 12.0368 9.97438 12.3271 9.7214 12.5676ZM11.5711 7.48829C11.4633 7.73707 11.3306 7.94439 11.1771 8.11024C11.0237 8.28024 10.8246 8.46683 10.584 8.68244C10.3186 8.91049 10.1195 9.10537 9.99512 9.26293C9.8707 9.42463 9.80849 9.61122 9.80849 9.82268H7.71408C7.71408 9.43293 7.80117 9.10951 7.97121 8.85244C8.1454 8.59951 8.39424 8.31756 8.72188 8.01073C8.94999 7.79927 9.11588 7.62098 9.22786 7.47585C9.33569 7.33073 9.39375 7.17732 9.39375 7.01146C9.39375 6.78341 9.29836 6.60098 9.10759 6.46415C8.91681 6.32732 8.66797 6.25683 8.36106 6.25683C8.04586 6.25683 7.76384 6.33146 7.50671 6.48073C7.25372 6.63 7.04635 6.83732 6.88875 7.10268L5.13857 6.16146C5.45792 5.61415 5.91412 5.18707 6.50305 4.88024C7.09197 4.57341 7.80117 4.42 8.63064 4.42C9.5638 4.42 10.3145 4.61488 10.8827 5.00049C11.4508 5.39024 11.737 5.92927 11.737 6.63C11.7329 6.95756 11.6789 7.23951 11.5711 7.48829Z" fill="#00B5D3"/>
</svg>
