<svg width="25" height="18" viewBox="0 0 25 18" fill="none" xmlns="http://www.w3.org/2000/svg">
<path d="M24.0178 17.859C24.0178 17.859 22.1233 17.859 21.1588 17.859C21.1588 14.7256 21.1588 11.596 21.1588 8.43969C21.0635 8.43969 20.9949 8.43969 20.9263 8.43969C15.0178 8.43969 9.10928 8.43969 3.20077 8.43588C3.01779 8.43588 2.96824 8.48543 2.96824 8.6684C2.97205 11.6532 2.97205 14.6417 2.97205 17.6265C2.97205 17.7027 2.97205 17.7751 2.97205 17.859C2.01144 17.859 1.06989 17.859 0.109281 17.859C0.109281 17.7713 0.109281 17.6951 0.109281 17.6227C0.109281 14.0471 0.113093 10.4676 0.105469 6.89204C0.105469 6.54515 0.257947 6.34312 0.547654 6.19445C1.22618 5.83994 1.90089 5.47781 2.57561 5.11567C3.47142 4.63537 4.37103 4.15506 5.26684 3.67095C6.01398 3.27069 6.76112 2.86281 7.50826 2.45875C8.3164 2.02419 9.12072 1.58963 9.92885 1.15506C10.5311 0.831049 11.1372 0.507034 11.7395 0.183019C11.9454 0.0724722 12.1512 0.0534125 12.3571 0.163959C13.5921 0.823425 14.8272 1.49052 16.0623 2.15379C17.2287 2.77895 18.399 3.40411 19.5654 4.02927C20.5947 4.582 21.6201 5.13855 22.6455 5.69128C23.0114 5.8895 23.3736 6.09153 23.7395 6.28594C23.9339 6.38886 24.0178 6.54896 24.0254 6.75862C24.0254 6.78531 24.0254 6.80818 24.0254 6.83486C24.0178 10.4791 24.0178 17.859 24.0178 17.859Z" fill="#C0C0C0"/>
<path d="M12.3941 12.3737C12.3941 13.1742 12.3941 13.9594 12.3941 14.7561C10.9151 14.7561 9.44368 14.7561 7.95703 14.7561C7.95703 13.9632 7.95703 13.1742 7.95703 12.3737C9.43987 12.3737 10.9113 12.3737 12.3941 12.3737Z" fill="#C0C0C0"/>
<path d="M13.4453 12.3622C13.8913 12.3622 14.3221 12.3622 14.7528 12.3622C15.7248 12.3622 16.6931 12.366 17.6651 12.3584C17.8252 12.3584 17.871 12.4041 17.871 12.5642C17.8633 13.2885 17.8671 14.0128 17.8671 14.7523C16.3919 14.7523 14.9243 14.7523 13.4453 14.7523C13.4453 13.967 13.4453 13.178 13.4453 12.3622Z" fill="#C0C0C0"/>
<path d="M12.4054 17.859C10.9149 17.859 9.43969 17.859 7.94922 17.859C7.94922 17.1766 7.94922 16.5019 7.94922 15.831C7.94922 15.4689 7.94922 15.4689 8.31135 15.4689C9.60741 15.4689 10.8997 15.4727 12.1957 15.4651C12.3635 15.4651 12.413 15.5108 12.4092 15.6786C12.4016 16.3495 12.4054 17.0242 12.4054 17.6951C12.4054 17.7484 12.4054 17.798 12.4054 17.859Z" fill="#C0C0C0"/>
<path d="M17.875 17.8552C16.3959 17.8552 14.9322 17.8552 13.4531 17.8552C13.4531 17.0737 13.4531 16.2808 13.4531 15.4765C13.5103 15.4727 13.5713 15.4689 13.6361 15.4689C14.9779 15.4689 16.3159 15.4727 17.6577 15.4651C17.833 15.4651 17.8864 15.5146 17.8826 15.69C17.8674 16.4104 17.875 17.1271 17.875 17.8552Z" fill="#C0C0C0"/>
<path d="M6.90615 11.6684C5.79306 11.6684 4.69522 11.6684 3.58594 11.6684C3.58594 10.8756 3.58594 10.0903 3.58594 9.28979C4.6914 9.28979 5.78925 9.28979 6.90615 9.28979C6.90615 10.0751 6.90615 10.8641 6.90615 11.6684Z" fill="#C0C0C0"/>
<path d="M6.90615 12.3774C6.90615 13.1703 6.90615 13.9556 6.90615 14.7523C5.80449 14.7523 4.70284 14.7523 3.58594 14.7523C3.58594 13.967 3.58594 13.1779 3.58594 12.3774C4.69522 12.3774 5.79687 12.3774 6.90615 12.3774Z" fill="#C0C0C0"/>
<path d="M3.57412 17.8553C3.57412 17.0967 3.57412 16.3572 3.57031 15.6215C3.57031 15.5071 3.60462 15.469 3.72279 15.469C4.73295 15.4728 5.74312 15.4728 6.75328 15.469C6.8562 15.469 6.92101 15.4766 6.92101 15.61C6.91719 16.3534 6.91719 17.0967 6.91719 17.8553C5.80411 17.8553 4.69483 17.8553 3.57412 17.8553Z" fill="#C0C0C0"/>
</svg>
