<svg width="30" height="30" viewBox="0 0 30 30" fill="none" xmlns="http://www.w3.org/2000/svg">
<g clip-path="url(#clip0_5344_4639)">
<path d="M15.062 22.6174C9.792 22.6174 7.73 20.5734 6.622 19.4754C6.495 19.3494 6.386 19.2414 6.285 19.1484C5.945 18.8364 5.75 18.3914 5.75 17.9274V12.9814H6.635V17.9274C6.635 18.1434 6.726 18.3514 6.884 18.4964C6.998 18.6004 7.118 18.7204 7.245 18.8464C8.334 19.9254 10.156 21.7314 15.062 21.7314C19.849 21.7314 21.879 19.7924 22.97 18.7514C23.067 18.6584 23.157 18.5724 23.241 18.4964C23.399 18.3514 23.49 18.1434 23.49 17.9274V12.9814H24.375V17.9274C24.375 18.3904 24.18 18.8354 23.84 19.1484C23.76 19.2214 23.675 19.3034 23.582 19.3924C22.4 20.5194 20.203 22.6174 15.062 22.6174Z" fill="#161616"/>
<path d="M15.0001 17.0614C14.6621 17.0614 14.3251 16.9924 14.0111 16.8554L0.750066 11.0604C0.293066 10.8604 0.00506633 10.4264 6.63284e-05 9.92636C-0.00493367 9.42636 0.273066 8.98636 0.727066 8.77736L14.0501 2.62136C14.6541 2.34236 15.3461 2.34236 15.9501 2.62136L29.2741 8.77836C29.7271 8.98736 30.0051 9.42836 30.0001 9.92736C29.9951 10.4264 29.7071 10.8614 29.2501 11.0604L15.9891 16.8564C15.6751 16.9934 15.3371 17.0614 15.0001 17.0614ZM15.0001 3.29736C14.8031 3.29736 14.6051 3.33936 14.4221 3.42436L1.09807 9.58036C0.898066 9.67236 0.885066 9.86136 0.885066 9.91736C0.886066 9.97336 0.903066 10.1614 1.10507 10.2494L14.3651 16.0444C14.7681 16.2204 15.2311 16.2204 15.6351 16.0444L28.8961 10.2484C29.0971 10.1604 29.1151 9.97236 29.1151 9.91636C29.1161 9.86036 29.1021 9.67236 28.9021 9.58036L15.5781 3.42436C15.3941 3.33936 15.1971 3.29736 15.0001 3.29736Z" fill="#161616"/>
<path d="M14.9475 11.2051C13.5865 11.2051 12.5605 10.5871 12.5605 9.76805C12.5605 8.94905 13.5865 8.33105 14.9475 8.33105C16.3085 8.33105 17.3355 8.94905 17.3355 9.76805C17.3345 10.5881 16.3085 11.2051 14.9475 11.2051ZM14.9475 9.21705C13.9715 9.21705 13.4455 9.60805 13.4455 9.76905C13.4455 9.92905 13.9715 10.3211 14.9475 10.3211C15.9235 10.3211 16.4495 9.93005 16.4495 9.76905C16.4495 9.60805 15.9235 9.21705 14.9475 9.21705Z" fill="#161616"/>
<path d="M26.8936 19.5752L26.8816 12.0332L16.8516 10.2812L17.0036 9.41016L27.7656 11.2882L27.7786 19.5742L26.8936 19.5752Z" fill="#161616"/>
<path d="M27.3266 22.1688C28.1423 22.1688 28.8036 21.5076 28.8036 20.6918C28.8036 19.8761 28.1423 19.2148 27.3266 19.2148C26.5109 19.2148 25.8496 19.8761 25.8496 20.6918C25.8496 21.5076 26.5109 22.1688 27.3266 22.1688Z" fill="#00B4D3"/>
<path d="M28.8478 23.0784H28.8458C28.7388 22.3174 28.1038 21.7314 27.3358 21.7314C26.5628 21.7314 25.9258 22.3234 25.8238 23.0914H25.8228C25.8228 23.0914 25.3848 26.3024 25.3848 26.7594C25.3848 27.2154 25.8028 27.5884 26.3128 27.5884H28.3238C28.8348 27.5884 29.2518 27.2154 29.2518 26.7594C29.2518 26.3044 28.8478 23.0784 28.8478 23.0784Z" fill="#00B4D3"/>
</g>
<defs>
<clipPath id="clip0_5344_4639">
<rect width="30" height="30" fill="white"/>
</clipPath>
</defs>
</svg>
