<svg width="26" height="22" viewBox="0 0 26 22" fill="none" xmlns="http://www.w3.org/2000/svg">
<path d="M23.576 15.1218V7.29785L22.1021 7.78915V15.1218C21.1856 15.4304 20.5234 16.2973 20.5234 17.3165V21.2632C20.5234 21.6702 20.8534 22.0002 21.2604 22.0002H24.4178C24.8248 22.0002 25.1547 21.6702 25.1547 21.2632V17.3165C25.1547 16.2973 24.4925 15.4304 23.576 15.1218Z" fill="white"/>
<path d="M11.8766 10.7264L4.73438 8.3457V13.3651C4.73438 13.5606 4.81205 13.748 4.95025 13.8862C6.98727 15.923 9.69546 17.0447 12.5758 17.0447C15.4563 17.0447 18.1642 15.923 20.2008 13.8861C20.339 13.7479 20.4166 13.5605 20.4166 13.3651V8.3457L13.2746 10.7264C12.7864 10.889 12.295 10.8658 11.8766 10.7264Z" fill="white"/>
<path d="M12.5772 9.36734C12.656 9.36734 12.7347 9.35471 12.8103 9.3295L24.6506 5.38276C24.9515 5.28243 25.1545 5.00082 25.1545 4.68364C25.1545 4.36645 24.9515 4.08484 24.6506 3.98452L12.8103 0.0377686C12.6591 -0.0125895 12.4954 -0.0125895 12.3442 0.0377686L0.503925 3.98452C0.202956 4.08479 0 4.36641 0 4.68364C0 5.00087 0.202956 5.28243 0.503925 5.38276L12.3442 9.3295C12.4198 9.35471 12.4985 9.36734 12.5772 9.36734Z" fill="white"/>
</svg>
