<svg width="22" height="22" viewBox="0 0 22 22" fill="none" xmlns="http://www.w3.org/2000/svg">
<rect width="22" height="22" rx="4" fill="#00B5D3"/>
<path d="M6.04947 7.94049C5.76181 7.94049 5.56237 7.64968 5.67023 7.383C6.05322 6.43617 6.98214 5.76643 8.06466 5.76643H8.56508C8.75169 4.78068 9.61596 4 10.6735 4H11.5432C12.6001 4 13.4649 4.78016 13.6516 5.76643H14.152C15.2346 5.76643 16.1635 6.43617 16.5465 7.383C16.6543 7.64968 16.4549 7.94049 16.1672 7.94049H6.04947ZM11.5432 4.81527H10.6735C10.0784 4.81527 9.57319 5.21568 9.40312 5.76643H12.8136C12.6435 5.21568 12.1383 4.81527 11.5432 4.81527Z" fill="white"/>
<path d="M15.0479 16.7779C15.0025 17.415 14.4667 17.914 13.828 17.914H8.3896C7.75097 17.914 7.21514 17.415 7.16979 16.7779L6.59847 8.75574H15.6191L15.0479 16.7779ZM9.99408 10.9366C9.98283 10.7118 9.79111 10.5384 9.56661 10.5499C9.34176 10.5611 9.16859 10.7525 9.17984 10.9773L9.39725 15.3255C9.40815 15.5434 9.58827 15.7127 9.80404 15.7127C10.0388 15.7127 10.2231 15.5164 10.2115 15.2847L9.99408 10.9366ZM12.651 10.5499C12.4264 10.5386 12.2348 10.7118 12.2235 10.9366L12.0061 15.2847C11.9945 15.5166 12.179 15.7127 12.4136 15.7127C12.6294 15.7127 12.8095 15.5434 12.8204 15.3255L13.0378 10.9773C13.049 10.7525 12.8759 10.5611 12.651 10.5499Z" fill="white"/>
</svg>
