<svg width="26" height="17" viewBox="0 0 26 17" fill="none" xmlns="http://www.w3.org/2000/svg">
<path d="M24.9437 9.28139C24.9387 9.26137 24.9287 9.24137 24.9187 9.22639L21.3632 3.89057C20.9931 3.33549 20.368 3.00045 19.698 3.00045H16.5025V2.0003C16.5025 0.895123 15.6073 0 14.5022 0H2.0003C0.895123 0 0 0.895123 0 2.0003V9.00135H15.5023V10.0015H0V13.502C0 14.3271 0.675089 15.0022 1.50022 15.0022H1.54024C1.51024 14.8372 1.50022 14.6722 1.50022 14.5022C1.50022 12.5719 3.07047 11.0016 5.00075 11.0016C6.93103 11.0016 8.50127 12.5719 8.50127 14.5022C8.50127 14.6722 8.49126 14.8372 8.46126 15.0022H17.0426C17.0126 14.8372 17.0025 14.6722 17.0025 14.5022C17.0025 12.5719 18.5728 11.0016 20.5031 11.0016C22.4334 11.0016 24.0036 12.5719 24.0036 14.5022C24.0036 14.6422 23.9936 14.7822 23.9736 14.9222C24.5687 14.7272 25.0037 14.1621 25.0037 13.502V9.50142C25.0037 9.44142 24.9887 9.38141 24.9687 9.32638C24.9637 9.31139 24.9537 9.29638 24.9437 9.28139ZM16.5025 9.00135V4.0006H19.698C20.033 4.0006 20.348 4.1656 20.5331 4.44567L23.5685 9.00135H16.5025Z" fill="#00B5D3"/>
<path d="M5.00428 17.0007C6.3852 17.0007 7.50466 15.8813 7.50466 14.5004C7.50466 13.1195 6.3852 12 5.00428 12C3.62336 12 2.50391 13.1195 2.50391 14.5004C2.50391 15.8813 3.62336 17.0007 5.00428 17.0007Z" fill="#00B5D3"/>
<path d="M20.5082 17.0007C21.8891 17.0007 23.0086 15.8813 23.0086 14.5004C23.0086 13.1195 21.8891 12 20.5082 12C19.1273 12 18.0078 13.1195 18.0078 14.5004C18.0078 15.8813 19.1273 17.0007 20.5082 17.0007Z" fill="#00B5D3"/>
</svg>
