<svg width="31" height="18" viewBox="0 0 31 18" fill="none" xmlns="http://www.w3.org/2000/svg">
<path d="M15.4329 18C13.6217 18 11.8189 17.9916 10.0077 18C8.93095 18.0084 8.10465 17.1601 8.16307 16.1521C8.21315 15.3458 8.17977 14.531 8.17142 13.7163C8.14638 11.8264 8.95599 10.3817 10.4918 9.3318C10.8173 9.11341 11.2012 8.97902 11.5601 8.82783C11.6269 8.80263 11.7604 8.86143 11.8356 8.92022C13.1877 10.0289 14.7401 10.3901 16.4428 10.1801C17.3025 10.0709 18.1038 9.72657 18.7214 9.13861C19.1722 8.70184 19.5311 8.86983 19.915 9.07141C21.0084 9.63418 21.8681 10.4573 22.3021 11.6332C22.4941 12.1624 22.6443 12.7336 22.6777 13.2879C22.7361 14.2623 22.6777 15.245 22.7027 16.2277C22.7278 17.1769 21.9516 17.9832 20.9416 17.9916C19.1054 18.0084 17.2691 18 15.4329 18Z" fill="#C0C0C0"/>
<path d="M15.3243 9.23099C12.9456 9.17219 10.8506 7.21512 10.8673 4.61969C10.884 1.88988 12.9873 -0.0251967 15.4662 1.60662e-06C17.9952 0.0251999 20.0067 2.00747 19.9984 4.65329C19.99 7.28232 17.7866 9.29818 15.3243 9.23099Z" fill="#C0C0C0"/>
<path d="M23.2208 17.3616C23.6465 16.2193 23.3877 15.0938 23.4545 13.9934C23.5296 12.8595 23.3794 11.7676 22.7617 10.6841C23.179 10.8269 23.5129 10.9528 23.8551 11.0704C25.274 11.5492 26.5761 11.2552 27.7529 10.3985C28.0701 10.1717 28.3205 10.1885 28.5876 10.3313C30.0566 11.1124 30.8579 12.3136 30.8579 14.0186C30.8579 14.6738 30.8662 15.329 30.8579 15.9925C30.8495 16.866 30.3571 17.3616 29.4974 17.37C27.4107 17.3616 25.3241 17.3616 23.2208 17.3616Z" fill="#C0C0C0"/>
<path d="M8.09561 10.6589C7.47796 11.7508 7.32772 12.8512 7.40284 13.9935C7.46962 15.0938 7.21922 16.2277 7.6282 17.3533C7.26095 17.3533 6.8937 17.3533 6.52646 17.3533C4.83211 17.3533 3.13776 17.3533 1.44342 17.3533C0.483565 17.3533 0.0078125 16.8661 0.0078125 15.8834C0.0078125 15.2366 0.0078125 14.5982 0.0078125 13.9515C0.016159 12.2716 0.825773 11.0789 2.28642 10.3145C2.55351 10.1717 2.8039 10.1633 3.12107 10.3901C4.53998 11.3981 6.07574 11.5744 7.66993 10.8101C7.77009 10.7597 7.88694 10.7345 8.09561 10.6589Z" fill="#C0C0C0"/>
<path d="M2.14613 6.8203C2.04597 4.92203 3.80709 3.17495 5.76853 3.20855C7.72996 3.24214 9.35754 4.88003 9.34085 6.8707C9.32415 8.87817 7.67988 10.4741 5.7101 10.4825C3.7904 10.4909 2.02928 8.77737 2.14613 6.8203Z" fill="#C0C0C0"/>
<path d="M28.7104 6.87074C28.8105 8.79422 27.0411 10.5161 25.0963 10.4825C23.1182 10.4489 21.5073 8.81941 21.5157 6.82035C21.524 4.83808 23.1683 3.20859 25.1381 3.20859C27.0578 3.20019 28.8356 4.92207 28.7104 6.87074Z" fill="#C0C0C0"/>
</svg>
