<svg width="18" height="28" viewBox="0 0 18 28" fill="none" xmlns="http://www.w3.org/2000/svg">
<path d="M7.97266 27.9996L10.0237 15.5168L17.9907 9.23145C17.9907 9.23145 17.9426 10.5055 17.5462 11.8821C17.0657 13.5544 16.3721 14.9779 15.3991 16.7381C13.5192 20.1356 7.97266 27.9996 7.97266 27.9996Z" fill="#E00000"/>
<path d="M9 0.00390625C4.03003 0.00390625 0 3.93445 0 8.78173C0 13.629 4.03003 17.5596 9 17.5596C13.97 17.5596 18 13.629 18 8.78173C18 3.93445 13.97 0.00390625 9 0.00390625ZM9 12.2905C7.01502 12.2905 5.40541 10.7206 5.40541 8.78173C5.40541 6.84282 7.01501 5.27294 9.003 5.27294C10.991 5.27294 12.6006 6.84282 12.6006 8.78173C12.6006 10.7206 10.988 12.2905 9 12.2905Z" fill="#FF3334"/>
</svg>
